<?xml version="1.0" encoding="UTF-8"?> <svg xmlns="http://www.w3.org/2000/svg" width="538" height="260" viewBox="0 0 538 260" fill="none"> <rect x="0.5" y="0.5" width="537" height="231" rx="3.5" fill="#191919" stroke="#282726"></rect> <path d="M358.117 123H358.852V120.265H360.897C360.964 120.265 361.042 120.262 361.132 120.255C361.222 120.248 361.312 120.238 361.402 120.225C361.962 120.138 362.394 119.892 362.697 119.485C363.004 119.078 363.157 118.595 363.157 118.035C363.157 117.472 363.005 116.987 362.702 116.58C362.399 116.173 361.965 115.927 361.402 115.84C361.312 115.823 361.222 115.813 361.132 115.81C361.045 115.803 360.967 115.8 360.897 115.8H358.117V123ZM358.852 119.565V116.505H360.877C360.937 116.505 361.007 116.508 361.087 116.515C361.17 116.518 361.249 116.528 361.322 116.545C361.692 116.625 361.964 116.81 362.137 117.1C362.314 117.387 362.402 117.698 362.402 118.035C362.402 118.368 362.314 118.68 362.137 118.97C361.964 119.26 361.692 119.443 361.322 119.52C361.249 119.537 361.17 119.548 361.087 119.555C361.007 119.562 360.937 119.565 360.877 119.565H358.852ZM366.368 123.15C366.901 123.15 367.358 123.03 367.738 122.79C368.121 122.55 368.415 122.217 368.618 121.79C368.825 121.36 368.928 120.862 368.928 120.295C368.928 119.738 368.826 119.247 368.623 118.82C368.423 118.39 368.131 118.055 367.748 117.815C367.368 117.572 366.908 117.45 366.368 117.45C365.841 117.45 365.386 117.57 365.003 117.81C364.623 118.047 364.33 118.378 364.123 118.805C363.916 119.232 363.813 119.728 363.813 120.295C363.813 120.852 363.913 121.345 364.113 121.775C364.316 122.205 364.608 122.542 364.988 122.785C365.371 123.028 365.831 123.15 366.368 123.15ZM366.368 122.445C365.785 122.445 365.343 122.25 365.043 121.86C364.743 121.467 364.593 120.945 364.593 120.295C364.593 119.665 364.738 119.152 365.028 118.755C365.318 118.355 365.765 118.155 366.368 118.155C366.965 118.155 367.41 118.35 367.703 118.74C368 119.127 368.148 119.645 368.148 120.295C368.148 120.932 368.001 121.45 367.708 121.85C367.415 122.247 366.968 122.445 366.368 122.445ZM372.286 123.15C372.819 123.15 373.276 123.03 373.656 122.79C374.039 122.55 374.333 122.217 374.536 121.79C374.743 121.36 374.846 120.862 374.846 120.295C374.846 119.738 374.744 119.247 374.541 118.82C374.341 118.39 374.049 118.055 373.666 117.815C373.286 117.572 372.826 117.45 372.286 117.45C371.759 117.45 371.304 117.57 370.921 117.81C370.541 118.047 370.248 118.378 370.041 118.805C369.834 119.232 369.731 119.728 369.731 120.295C369.731 120.852 369.831 121.345 370.031 121.775C370.234 122.205 370.526 122.542 370.906 122.785C371.289 123.028 371.749 123.15 372.286 123.15ZM372.286 122.445C371.703 122.445 371.261 122.25 370.961 121.86C370.661 121.467 370.511 120.945 370.511 120.295C370.511 119.665 370.656 119.152 370.946 118.755C371.236 118.355 371.683 118.155 372.286 118.155C372.883 118.155 373.328 118.35 373.621 118.74C373.918 119.127 374.066 119.645 374.066 120.295C374.066 120.932 373.919 121.45 373.626 121.85C373.333 122.247 372.886 122.445 372.286 122.445ZM376.049 123H376.784V115.65H376.049V123Z" fill="white"></path> <circle cx="367" cy="118" r="41.5" stroke="#13CDF9"></circle> <path d="M235 117C234.448 117 234 117.448 234 118C234 118.552 234.448 119 235 119V117ZM315 118L305 112.226V123.774L315 118ZM235 119H306V117H235V119Z" fill="url(#paint0_linear)" fill-opacity="0.9"></path> <path d="M264.821 74H265.796L268.276 66.8H267.511L265.301 73.165L263.106 66.8H262.341L264.821 74ZM270.122 74.15C271.065 74.15 271.75 73.8017 272.177 73.105V74H272.832V70.645C272.832 70.445 272.822 70.2483 272.802 70.055C272.782 69.8617 272.739 69.6867 272.672 69.53C272.529 69.18 272.284 68.9133 271.937 68.73C271.594 68.5433 271.175 68.45 270.682 68.45C270.089 68.45 269.605 68.5833 269.232 68.85C268.859 69.1167 268.609 69.4917 268.482 69.975L269.197 70.185C269.3 69.825 269.479 69.5617 269.732 69.395C269.989 69.2283 270.302 69.145 270.672 69.145C271.185 69.145 271.552 69.265 271.772 69.505C271.992 69.7417 272.105 70.1033 272.112 70.59C271.872 70.6233 271.607 70.6583 271.317 70.695C271.03 70.7317 270.742 70.7733 270.452 70.82C270.162 70.8667 269.895 70.92 269.652 70.98C269.249 71.0867 268.919 71.265 268.662 71.515C268.405 71.7617 268.277 72.1067 268.277 72.55C268.277 72.8367 268.345 73.1017 268.482 73.345C268.619 73.5883 268.824 73.7833 269.097 73.93C269.374 74.0767 269.715 74.15 270.122 74.15ZM270.207 73.515C269.917 73.515 269.684 73.4683 269.507 73.375C269.334 73.2783 269.207 73.1567 269.127 73.01C269.05 72.86 269.012 72.7067 269.012 72.55C269.012 72.2567 269.11 72.0367 269.307 71.89C269.504 71.7433 269.717 71.6367 269.947 71.57C270.244 71.49 270.589 71.425 270.982 71.375C271.375 71.325 271.749 71.2783 272.102 71.235C272.102 71.3583 272.097 71.5 272.087 71.66C272.08 71.8167 272.062 71.9617 272.032 72.095C271.962 72.5017 271.769 72.84 271.452 73.11C271.139 73.38 270.724 73.515 270.207 73.515ZM276.199 74.135C276.585 74.135 276.934 74.0617 277.244 73.915C277.557 73.765 277.814 73.5433 278.014 73.25V74H278.674V68.6H277.939V71.48C277.939 72.09 277.802 72.5683 277.529 72.915C277.255 73.2617 276.859 73.435 276.339 73.435C275.962 73.435 275.659 73.345 275.429 73.165C275.199 72.9817 275.032 72.7333 274.929 72.42C274.825 72.1067 274.774 71.7517 274.774 71.355V68.6H274.034V71.57C274.034 71.8733 274.07 72.1767 274.144 72.48C274.22 72.7833 274.342 73.06 274.509 73.31C274.675 73.56 274.897 73.76 275.174 73.91C275.454 74.06 275.795 74.135 276.199 74.135ZM280.171 74H280.906V66.65H280.171V74ZM285.345 74V73.355C284.958 73.4183 284.633 73.4283 284.37 73.385C284.11 73.3417 283.92 73.2083 283.8 72.985C283.737 72.8683 283.702 72.735 283.695 72.585C283.692 72.4317 283.69 72.2417 283.69 72.015V69.23H285.345V68.6H283.69V67.1H282.96V68.6H281.805V69.23H282.96V72.045C282.96 72.3083 282.963 72.5433 282.97 72.75C282.98 72.9567 283.033 73.1583 283.13 73.355C283.25 73.595 283.425 73.7717 283.655 73.885C283.888 73.9983 284.152 74.0617 284.445 74.075C284.742 74.0883 285.042 74.0633 285.345 74ZM252.258 90.135C252.645 90.135 252.993 90.0617 253.303 89.915C253.616 89.765 253.873 89.5433 254.073 89.25V90H254.733V84.6H253.998V87.48C253.998 88.09 253.861 88.5683 253.588 88.915C253.315 89.2617 252.918 89.435 252.398 89.435C252.021 89.435 251.718 89.345 251.488 89.165C251.258 88.9817 251.091 88.7333 250.988 88.42C250.885 88.1067 250.833 87.7517 250.833 87.355V84.6H250.093V87.57C250.093 87.8733 250.13 88.1767 250.203 88.48C250.28 88.7833 250.401 89.06 250.568 89.31C250.735 89.56 250.956 89.76 251.233 89.91C251.513 90.06 251.855 90.135 252.258 90.135ZM256.126 90H256.866V87.12C256.866 86.51 257.002 86.0317 257.276 85.685C257.549 85.3383 257.946 85.165 258.466 85.165C258.842 85.165 259.146 85.2567 259.376 85.44C259.606 85.62 259.772 85.8667 259.876 86.18C259.979 86.4933 260.031 86.8483 260.031 87.245V90H260.771V87.03C260.771 86.7267 260.732 86.4233 260.656 86.12C260.582 85.8167 260.462 85.54 260.296 85.29C260.129 85.04 259.907 84.84 259.631 84.69C259.354 84.54 259.012 84.465 258.606 84.465C258.219 84.465 257.869 84.54 257.556 84.69C257.246 84.8367 256.991 85.0567 256.791 85.35V84.6H256.126V90ZM264.124 90.15C264.517 90.15 264.862 90.07 265.159 89.91C265.456 89.7467 265.701 89.525 265.894 89.245V90H266.554V82.8H265.814V85.235C265.617 84.9883 265.374 84.7967 265.084 84.66C264.797 84.52 264.467 84.45 264.094 84.45C263.601 84.45 263.177 84.575 262.824 84.825C262.471 85.075 262.199 85.415 262.009 85.845C261.822 86.275 261.729 86.7583 261.729 87.295C261.729 87.835 261.822 88.32 262.009 88.75C262.199 89.18 262.472 89.5217 262.829 89.775C263.189 90.025 263.621 90.15 264.124 90.15ZM264.199 89.465C263.826 89.465 263.512 89.37 263.259 89.18C263.009 88.9867 262.821 88.7267 262.694 88.4C262.571 88.0733 262.509 87.705 262.509 87.295C262.509 86.8883 262.571 86.5217 262.694 86.195C262.817 85.8683 263.004 85.61 263.254 85.42C263.507 85.23 263.827 85.135 264.214 85.135C264.777 85.135 265.197 85.3367 265.474 85.74C265.754 86.14 265.894 86.6583 265.894 87.295C265.894 87.7117 265.832 88.0833 265.709 88.41C265.586 88.7367 265.399 88.995 265.149 89.185C264.899 89.3717 264.582 89.465 264.199 89.465ZM270.242 90.15C270.765 90.15 271.234 90.0217 271.647 89.765C272.064 89.5083 272.379 89.1433 272.592 88.67L271.907 88.405C271.564 89.0983 270.999 89.445 270.212 89.445C269.672 89.445 269.249 89.2767 268.942 88.94C268.639 88.6033 268.472 88.125 268.442 87.505H272.697C272.724 86.5517 272.515 85.805 272.072 85.265C271.632 84.7217 271.012 84.45 270.212 84.45C269.692 84.45 269.24 84.5667 268.857 84.8C268.477 85.0333 268.182 85.365 267.972 85.795C267.762 86.225 267.657 86.735 267.657 87.325C267.657 87.895 267.762 88.3917 267.972 88.815C268.185 89.2383 268.485 89.5667 268.872 89.8C269.262 90.0333 269.719 90.15 270.242 90.15ZM270.232 85.125C271.249 85.125 271.814 85.7133 271.927 86.89H268.457C268.514 86.32 268.694 85.8833 268.997 85.58C269.3 85.2767 269.712 85.125 270.232 85.125ZM273.806 90H274.541V87.305C274.541 86.9817 274.578 86.66 274.651 86.34C274.728 86.0167 274.901 85.7483 275.171 85.535C275.368 85.375 275.581 85.2833 275.811 85.26C276.045 85.2333 276.261 85.2433 276.461 85.29V84.6C276.225 84.54 275.956 84.5383 275.656 84.595C275.356 84.6483 275.1 84.7683 274.886 84.955C274.726 85.075 274.586 85.2417 274.466 85.455V84.6H273.806V90ZM277.51 90H278.245V82.65H277.51V90ZM280.514 92.4H281.249L284.149 84.6H283.399L281.764 89.04L279.989 84.6H279.209L281.404 89.985L280.514 92.4ZM285.117 83.575H285.852V82.75H285.117V83.575ZM285.117 90H285.852V84.6H285.117V90ZM287.346 90H288.086V87.12C288.086 86.51 288.223 86.0317 288.496 85.685C288.77 85.3383 289.166 85.165 289.686 85.165C290.063 85.165 290.366 85.2567 290.596 85.44C290.826 85.62 290.993 85.8667 291.096 86.18C291.2 86.4933 291.251 86.8483 291.251 87.245V90H291.991V87.03C291.991 86.7267 291.953 86.4233 291.876 86.12C291.803 85.8167 291.683 85.54 291.516 85.29C291.35 85.04 291.128 84.84 290.851 84.69C290.575 84.54 290.233 84.465 289.826 84.465C289.44 84.465 289.09 84.54 288.776 84.69C288.466 84.8367 288.211 85.0567 288.011 85.35V84.6H287.346V90ZM295.384 90.15C295.747 90.15 296.071 90.08 296.354 89.94C296.637 89.8 296.876 89.6067 297.069 89.36V89.915C297.072 90.5483 296.947 91.0267 296.694 91.35C296.441 91.6733 296.021 91.835 295.434 91.835C295.151 91.835 294.872 91.7683 294.599 91.635C294.326 91.505 294.116 91.29 293.969 90.99L293.304 91.36C293.534 91.78 293.842 92.0833 294.229 92.27C294.619 92.4567 295.021 92.55 295.434 92.55C296.094 92.55 296.621 92.4067 297.014 92.12C297.407 91.8333 297.652 91.3883 297.749 90.785C297.772 90.6483 297.787 90.5083 297.794 90.365C297.804 90.225 297.809 90.0783 297.809 89.925V84.6H297.154V85.345C296.957 85.065 296.707 84.8467 296.404 84.69C296.104 84.53 295.754 84.45 295.354 84.45C294.861 84.45 294.437 84.575 294.084 84.825C293.731 85.075 293.459 85.415 293.269 85.845C293.082 86.275 292.989 86.7583 292.989 87.295C292.989 87.835 293.082 88.32 293.269 88.75C293.459 89.18 293.732 89.5217 294.089 89.775C294.449 90.025 294.881 90.15 295.384 90.15ZM295.459 89.465C295.086 89.465 294.772 89.37 294.519 89.18C294.269 88.9867 294.081 88.7267 293.954 88.4C293.831 88.0733 293.769 87.705 293.769 87.295C293.769 86.8883 293.831 86.5217 293.954 86.195C294.077 85.8683 294.264 85.61 294.514 85.42C294.767 85.23 295.087 85.135 295.474 85.135C296.037 85.135 296.457 85.3367 296.734 85.74C297.014 86.14 297.154 86.6583 297.154 87.295C297.154 87.7117 297.092 88.0833 296.969 88.41C296.846 88.7367 296.659 88.995 296.409 89.185C296.159 89.3717 295.842 89.465 295.459 89.465ZM262.821 106H263.556V99.505H266.071V98.8H260.306V99.505H262.821V106ZM268.327 106.15C268.86 106.15 269.317 106.03 269.697 105.79C270.08 105.55 270.374 105.217 270.577 104.79C270.784 104.36 270.887 103.862 270.887 103.295C270.887 102.738 270.785 102.247 270.582 101.82C270.382 101.39 270.09 101.055 269.707 100.815C269.327 100.572 268.867 100.45 268.327 100.45C267.8 100.45 267.345 100.57 266.962 100.81C266.582 101.047 266.289 101.378 266.082 101.805C265.875 102.232 265.772 102.728 265.772 103.295C265.772 103.852 265.872 104.345 266.072 104.775C266.275 105.205 266.567 105.542 266.947 105.785C267.33 106.028 267.79 106.15 268.327 106.15ZM268.327 105.445C267.744 105.445 267.302 105.25 267.002 104.86C266.702 104.467 266.552 103.945 266.552 103.295C266.552 102.665 266.697 102.152 266.987 101.755C267.277 101.355 267.724 101.155 268.327 101.155C268.924 101.155 269.369 101.35 269.662 101.74C269.959 102.127 270.107 102.645 270.107 103.295C270.107 103.932 269.96 104.45 269.667 104.85C269.374 105.247 268.927 105.445 268.327 105.445ZM271.985 106H272.73V103.4L275.38 106H276.45L273.59 103.3L276.12 100.6H275.14L272.73 103.2V98.8H271.99L271.985 106ZM279.138 106.15C279.662 106.15 280.13 106.022 280.543 105.765C280.96 105.508 281.275 105.143 281.488 104.67L280.803 104.405C280.46 105.098 279.895 105.445 279.108 105.445C278.568 105.445 278.145 105.277 277.838 104.94C277.535 104.603 277.368 104.125 277.338 103.505H281.593C281.62 102.552 281.412 101.805 280.968 101.265C280.528 100.722 279.908 100.45 279.108 100.45C278.588 100.45 278.137 100.567 277.753 100.8C277.373 101.033 277.078 101.365 276.868 101.795C276.658 102.225 276.553 102.735 276.553 103.325C276.553 103.895 276.658 104.392 276.868 104.815C277.082 105.238 277.382 105.567 277.768 105.8C278.158 106.033 278.615 106.15 279.138 106.15ZM279.128 101.125C280.145 101.125 280.71 101.713 280.823 102.89H277.353C277.41 102.32 277.59 101.883 277.893 101.58C278.197 101.277 278.608 101.125 279.128 101.125ZM282.551 106H283.291V103.12C283.291 102.51 283.428 102.032 283.701 101.685C283.975 101.338 284.371 101.165 284.891 101.165C285.268 101.165 285.571 101.257 285.801 101.44C286.031 101.62 286.198 101.867 286.301 102.18C286.405 102.493 286.456 102.848 286.456 103.245V106H287.196V103.03C287.196 102.727 287.158 102.423 287.081 102.12C287.008 101.817 286.888 101.54 286.721 101.29C286.555 101.04 286.333 100.84 286.056 100.69C285.78 100.54 285.438 100.465 285.031 100.465C284.645 100.465 284.295 100.54 283.981 100.69C283.671 100.837 283.416 101.057 283.216 101.35V100.6H282.551V106Z" fill="white"></path> <rect x="129.2" y="74.2" width="95.6" height="95.6" rx="3.8" fill="#282726" stroke="url(#paint1_linear)" stroke-width="0.4"></rect> <path d="M163.654 127H165.761L169.037 116.92H167.518L164.69 125.523L161.897 116.92H160.378L163.654 127ZM171.598 127.21C172.802 127.21 173.71 126.774 174.321 125.901V127H175.616V122.345C175.616 122.028 175.602 121.731 175.574 121.456C175.546 121.181 175.472 120.919 175.35 120.672C175.117 120.173 174.748 119.809 174.244 119.58C173.745 119.347 173.157 119.23 172.48 119.23C171.608 119.23 170.908 119.421 170.38 119.804C169.853 120.187 169.498 120.702 169.316 121.351L170.681 121.771C170.812 121.351 171.043 121.048 171.374 120.861C171.706 120.674 172.07 120.581 172.466 120.581C173.054 120.581 173.479 120.707 173.74 120.959C174.006 121.206 174.151 121.591 174.174 122.114C173.558 122.198 172.956 122.287 172.368 122.38C171.78 122.469 171.267 122.576 170.828 122.702C170.245 122.889 169.802 123.166 169.498 123.535C169.195 123.904 169.043 124.373 169.043 124.942C169.043 125.353 169.139 125.731 169.33 126.076C169.526 126.417 169.813 126.692 170.191 126.902C170.574 127.107 171.043 127.21 171.598 127.21ZM171.857 126.013C171.391 126.013 171.045 125.906 170.821 125.691C170.602 125.476 170.492 125.222 170.492 124.928C170.492 124.629 170.59 124.394 170.786 124.221C170.987 124.048 171.237 123.911 171.535 123.808C171.853 123.715 172.226 123.633 172.655 123.563C173.089 123.493 173.591 123.416 174.16 123.332C174.156 123.509 174.144 123.708 174.125 123.927C174.107 124.146 174.067 124.342 174.006 124.515C173.95 124.762 173.831 125 173.649 125.229C173.472 125.458 173.232 125.647 172.928 125.796C172.63 125.941 172.273 126.013 171.857 126.013ZM180.283 127.203C180.829 127.203 181.312 127.105 181.732 126.909C182.157 126.713 182.507 126.442 182.782 126.097V127H184.084V119.44H182.607V123.374C182.607 123.971 182.521 124.45 182.348 124.809C182.175 125.164 181.942 125.42 181.648 125.579C181.359 125.738 181.039 125.817 180.689 125.817C180.288 125.817 179.961 125.735 179.709 125.572C179.457 125.409 179.263 125.194 179.128 124.928C178.993 124.662 178.899 124.375 178.848 124.067C178.801 123.754 178.778 123.451 178.778 123.157V119.44H177.294V123.64C177.294 123.873 177.315 124.144 177.357 124.452C177.399 124.76 177.478 125.075 177.595 125.397C177.712 125.719 177.88 126.018 178.099 126.293C178.323 126.564 178.612 126.783 178.967 126.951C179.322 127.119 179.76 127.203 180.283 127.203ZM186.187 127H187.65V116.71H186.187V127ZM194.078 127V125.761C193.584 125.836 193.152 125.852 192.783 125.81C192.419 125.763 192.153 125.598 191.985 125.313C191.897 125.159 191.848 124.97 191.838 124.746C191.834 124.522 191.831 124.258 191.831 123.955V120.616H194.078V119.44H191.831V117.34H190.361V119.44H188.912V120.616H190.361V124.025C190.361 124.436 190.366 124.804 190.375 125.131C190.389 125.453 190.478 125.77 190.641 126.083C190.828 126.433 191.101 126.69 191.46 126.853C191.82 127.016 192.228 127.105 192.685 127.119C193.143 127.133 193.607 127.093 194.078 127Z" fill="white"></path> <defs> <linearGradient id="paint0_linear" x1="235" y1="118" x2="280.715" y2="118.041" gradientUnits="userSpaceOnUse"> <stop stop-color="#13CDF9"></stop> <stop offset="1" stop-color="#F78774"></stop> </linearGradient> <linearGradient id="paint1_linear" x1="129" y1="74" x2="195.47" y2="187.321" gradientUnits="userSpaceOnUse"> <stop stop-color="#857370"></stop> <stop offset="1" stop-color="#563440"></stop> </linearGradient> </defs> </svg> 