<?xml version="1.0" encoding="UTF-8"?> <svg xmlns="http://www.w3.org/2000/svg" width="590" height="260" viewBox="0 0 590 260" fill="none"> <rect x="0.5" y="0.5" width="589" height="259" rx="3.5" fill="#191919" stroke="#282726"></rect> <path d="M28.704 44.24C29.5627 44.24 30.2987 44.04 30.912 43.64C31.5307 43.2347 32.0027 42.648 32.328 41.88L31.144 41.528C30.7067 42.584 29.8933 43.112 28.704 43.112C27.776 43.112 27.0773 42.8 26.608 42.176C26.1387 41.5467 25.8987 40.7147 25.888 39.68C25.8987 38.672 26.1307 37.848 26.584 37.208C27.0427 36.568 27.7493 36.248 28.704 36.248C29.2693 36.248 29.7707 36.392 30.208 36.68C30.6507 36.9627 30.9733 37.3627 31.176 37.88L32.328 37.512C32.088 36.7707 31.6427 36.1867 30.992 35.76C30.3467 35.3333 29.5867 35.12 28.712 35.12C27.8533 35.12 27.1227 35.312 26.52 35.696C25.9173 36.0747 25.456 36.608 25.136 37.296C24.816 37.9787 24.6507 38.7733 24.64 39.68C24.6507 40.5653 24.8107 41.352 25.12 42.04C25.4347 42.728 25.8933 43.2667 26.496 43.656C27.0987 44.0453 27.8347 44.24 28.704 44.24ZM37.353 44.24C38.2063 44.24 38.937 44.048 39.545 43.664C40.1583 43.28 40.6277 42.7467 40.953 42.064C41.2837 41.376 41.449 40.5787 41.449 39.672C41.449 38.7813 41.2863 37.9947 40.961 37.312C40.641 36.624 40.1743 36.088 39.561 35.704C38.953 35.3147 38.217 35.12 37.353 35.12C36.5103 35.12 35.7823 35.312 35.169 35.696C34.561 36.0747 34.0917 36.6053 33.761 37.288C33.4303 37.9707 33.265 38.7653 33.265 39.672C33.265 40.5627 33.425 41.352 33.745 42.04C34.0703 42.728 34.537 43.2667 35.145 43.656C35.7583 44.0453 36.4943 44.24 37.353 44.24ZM37.353 43.112C36.4197 43.112 35.713 42.8 35.233 42.176C34.753 41.5467 34.513 40.712 34.513 39.672C34.513 38.664 34.745 37.8427 35.209 37.208C35.673 36.568 36.3877 36.248 37.353 36.248C38.3077 36.248 39.0197 36.56 39.489 37.184C39.9637 37.8027 40.201 38.632 40.201 39.672C40.201 40.6907 39.9663 41.52 39.497 42.16C39.0277 42.7947 38.313 43.112 37.353 43.112ZM43.2138 44H44.3898V39.688C44.3898 39.1707 44.4484 38.656 44.5658 38.144C44.6884 37.6267 44.9658 37.1973 45.3978 36.856C45.7124 36.6 46.0538 36.4533 46.4218 36.416C46.7951 36.3733 47.1418 36.3893 47.4618 36.464V35.36C47.0831 35.264 46.6538 35.2613 46.1738 35.352C45.6938 35.4373 45.2831 35.6293 44.9418 35.928C44.6858 36.12 44.4618 36.3867 44.2698 36.728V35.36H43.2138V44ZM52.4791 44.24C53.3165 44.24 54.0658 44.0347 54.7271 43.624C55.3938 43.2133 55.8978 42.6293 56.2391 41.872L55.1431 41.448C54.5938 42.5573 53.6898 43.112 52.4311 43.112C51.5671 43.112 50.8898 42.8427 50.3991 42.304C49.9138 41.7653 49.6471 41 49.5991 40.008H56.4071C56.4498 38.4827 56.1165 37.288 55.4071 36.424C54.7031 35.5547 53.7111 35.12 52.4311 35.12C51.5991 35.12 50.8765 35.3067 50.2631 35.68C49.6551 36.0533 49.1831 36.584 48.8471 37.272C48.5111 37.96 48.3431 38.776 48.3431 39.72C48.3431 40.632 48.5111 41.4267 48.8471 42.104C49.1885 42.7813 49.6685 43.3067 50.2871 43.68C50.9111 44.0533 51.6418 44.24 52.4791 44.24ZM52.4631 36.2C54.0898 36.2 54.9938 37.1413 55.1751 39.024H49.6231C49.7138 38.112 50.0018 37.4133 50.4871 36.928C50.9725 36.4427 51.6311 36.2 52.4631 36.2ZM60.6261 44H62.1861L66.1541 32.48H64.9301L61.3941 42.664L57.8821 32.48H56.6581L60.6261 44ZM69.1076 44.24C70.617 44.24 71.713 43.6827 72.3956 42.568V44H73.4436V38.632C73.4436 38.312 73.4276 37.9973 73.3956 37.688C73.3636 37.3787 73.2943 37.0987 73.1876 36.848C72.9583 36.288 72.5663 35.8613 72.0116 35.568C71.4623 35.2693 70.793 35.12 70.0036 35.12C69.0543 35.12 68.281 35.3333 67.6836 35.76C67.0863 36.1867 66.6863 36.7867 66.4836 37.56L67.6276 37.896C67.793 37.32 68.0783 36.8987 68.4836 36.632C68.8943 36.3653 69.3956 36.232 69.9876 36.232C70.809 36.232 71.3956 36.424 71.7476 36.808C72.0996 37.1867 72.281 37.7653 72.2916 38.544C71.9076 38.5973 71.4836 38.6533 71.0196 38.712C70.561 38.7707 70.0996 38.8373 69.6356 38.912C69.1716 38.9867 68.745 39.072 68.3556 39.168C67.7103 39.3387 67.1823 39.624 66.7716 40.024C66.361 40.4187 66.1556 40.9707 66.1556 41.68C66.1556 42.1387 66.265 42.5627 66.4836 42.952C66.7023 43.3413 67.0303 43.6533 67.4676 43.888C67.9103 44.1227 68.457 44.24 69.1076 44.24ZM69.2436 43.224C68.7796 43.224 68.4063 43.1493 68.1236 43C67.8463 42.8453 67.6436 42.6507 67.5156 42.416C67.393 42.176 67.3316 41.9307 67.3316 41.68C67.3316 41.2107 67.489 40.8587 67.8036 40.624C68.1183 40.3893 68.4596 40.2187 68.8276 40.112C69.3023 39.984 69.8543 39.88 70.4836 39.8C71.113 39.72 71.7103 39.6453 72.2756 39.576C72.2756 39.7733 72.2676 40 72.2516 40.256C72.241 40.5067 72.2116 40.7387 72.1636 40.952C72.0516 41.6027 71.7423 42.144 71.2356 42.576C70.7343 43.008 70.0703 43.224 69.2436 43.224ZM78.8303 44.216C79.4489 44.216 80.0063 44.0987 80.5023 43.864C81.0036 43.624 81.4143 43.2693 81.7343 42.8V44H82.7903V35.36H81.6143V39.968C81.6143 40.944 81.3956 41.7093 80.9583 42.264C80.5209 42.8187 79.8863 43.096 79.0543 43.096C78.4516 43.096 77.9663 42.952 77.5983 42.664C77.2303 42.3707 76.9636 41.9733 76.7983 41.472C76.6329 40.9707 76.5503 40.4027 76.5503 39.768V35.36H75.3663V40.112C75.3663 40.5973 75.4249 41.0827 75.5423 41.568C75.6649 42.0533 75.8596 42.496 76.1263 42.896C76.3929 43.296 76.7476 43.616 77.1903 43.856C77.6383 44.096 78.1849 44.216 78.8303 44.216ZM85.1863 44H86.3623V32.24H85.1863V44ZM93.4646 44V42.968C92.846 43.0693 92.326 43.0853 91.9046 43.016C91.4886 42.9467 91.1846 42.7333 90.9926 42.376C90.8913 42.1893 90.8353 41.976 90.8246 41.736C90.8193 41.4907 90.8166 41.1867 90.8166 40.824V36.368H93.4646V35.36H90.8166V32.96H89.6486V35.36H87.8006V36.368H89.6486V40.872C89.6486 41.2933 89.654 41.6693 89.6646 42C89.6806 42.3307 89.766 42.6533 89.9206 42.968C90.1126 43.352 90.3926 43.6347 90.7606 43.816C91.134 43.9973 91.5553 44.0987 92.0246 44.12C92.4993 44.1413 92.9793 44.1013 93.4646 44Z" fill="white"></path> <path d="M28.344 124.232C29.4053 124.232 30.2373 124 30.84 123.536C31.448 123.067 31.752 122.424 31.752 121.608C31.752 121.16 31.656 120.784 31.464 120.48C31.2773 120.176 30.9547 119.912 30.496 119.688C30.0427 119.464 29.4187 119.251 28.624 119.048C27.9467 118.877 27.424 118.72 27.056 118.576C26.6933 118.432 26.4427 118.28 26.304 118.12C26.1653 117.955 26.096 117.757 26.096 117.528C26.096 117.117 26.288 116.789 26.672 116.544C27.056 116.299 27.5547 116.181 28.168 116.192C28.8187 116.203 29.3547 116.357 29.776 116.656C30.1973 116.949 30.4507 117.349 30.536 117.856L31.736 117.64C31.6773 117.139 31.4907 116.699 31.176 116.32C30.8613 115.941 30.4453 115.648 29.928 115.44C29.416 115.227 28.8347 115.12 28.184 115.12C27.5333 115.12 26.96 115.224 26.464 115.432C25.9733 115.635 25.5893 115.923 25.312 116.296C25.04 116.664 24.904 117.093 24.904 117.584C24.904 117.984 24.9947 118.325 25.176 118.608C25.3627 118.885 25.68 119.133 26.128 119.352C26.576 119.565 27.1893 119.779 27.968 119.992C28.6987 120.189 29.2453 120.36 29.608 120.504C29.976 120.648 30.2213 120.805 30.344 120.976C30.4667 121.141 30.528 121.357 30.528 121.624C30.528 122.093 30.3387 122.467 29.96 122.744C29.5813 123.021 29.064 123.16 28.408 123.16C27.736 123.16 27.1707 123.016 26.712 122.728C26.2533 122.435 25.9627 122.043 25.84 121.552L24.64 121.752C24.7893 122.531 25.1893 123.139 25.84 123.576C26.496 124.013 27.3307 124.232 28.344 124.232ZM33.6863 113.72H34.8623V112.4H33.6863V113.72ZM33.6863 124H34.8623V115.36H33.6863V124ZM37.2526 124H38.4366V119.392C38.4366 118.416 38.6553 117.651 39.0926 117.096C39.53 116.541 40.1646 116.264 40.9966 116.264C41.5993 116.264 42.0846 116.411 42.4526 116.704C42.8206 116.992 43.0873 117.387 43.2526 117.888C43.418 118.389 43.5006 118.957 43.5006 119.592V124H44.6846V119.248C44.6846 118.763 44.6233 118.277 44.5006 117.792C44.3833 117.307 44.1913 116.864 43.9246 116.464C43.658 116.064 43.3033 115.744 42.8606 115.504C42.418 115.264 41.8713 115.144 41.2206 115.144C40.602 115.144 40.042 115.264 39.5406 115.504C39.0446 115.739 38.6366 116.091 38.3166 116.56V115.36H37.2526V124ZM50.1126 124.24C50.694 124.24 51.2113 124.128 51.6646 123.904C52.118 123.68 52.4993 123.371 52.8086 122.976V123.864C52.814 124.877 52.614 125.643 52.2086 126.16C51.8033 126.677 51.1313 126.936 50.1926 126.936C49.7393 126.936 49.294 126.829 48.8566 126.616C48.4193 126.408 48.0833 126.064 47.8486 125.584L46.7846 126.176C47.1526 126.848 47.646 127.333 48.2646 127.632C48.8886 127.931 49.5313 128.08 50.1926 128.08C51.2486 128.08 52.0913 127.851 52.7206 127.392C53.35 126.933 53.742 126.221 53.8966 125.256C53.934 125.037 53.958 124.813 53.9686 124.584C53.9846 124.36 53.9926 124.125 53.9926 123.88V115.36H52.9446V116.552C52.63 116.104 52.23 115.755 51.7446 115.504C51.2646 115.248 50.7046 115.12 50.0646 115.12C49.2753 115.12 48.598 115.32 48.0326 115.72C47.4673 116.12 47.0326 116.664 46.7286 117.352C46.43 118.04 46.2806 118.813 46.2806 119.672C46.2806 120.536 46.43 121.312 46.7286 122C47.0326 122.688 47.47 123.235 48.0406 123.64C48.6166 124.04 49.3073 124.24 50.1126 124.24ZM50.2326 123.144C49.6353 123.144 49.134 122.992 48.7286 122.688C48.3286 122.379 48.0273 121.963 47.8246 121.44C47.6273 120.917 47.5286 120.328 47.5286 119.672C47.5286 119.021 47.6273 118.435 47.8246 117.912C48.022 117.389 48.3206 116.976 48.7206 116.672C49.126 116.368 49.638 116.216 50.2566 116.216C51.158 116.216 51.83 116.539 52.2726 117.184C52.7206 117.824 52.9446 118.653 52.9446 119.672C52.9446 120.339 52.846 120.933 52.6486 121.456C52.4513 121.979 52.1526 122.392 51.7526 122.696C51.3526 122.995 50.846 123.144 50.2326 123.144ZM56.3894 124H57.5654V112.24H56.3894V124ZM63.6198 124.24C64.4571 124.24 65.2064 124.035 65.8678 123.624C66.5344 123.213 67.0384 122.629 67.3798 121.872L66.2838 121.448C65.7344 122.557 64.8304 123.112 63.5718 123.112C62.7078 123.112 62.0304 122.843 61.5398 122.304C61.0544 121.765 60.7878 121 60.7398 120.008H67.5478C67.5904 118.483 67.2571 117.288 66.5478 116.424C65.8438 115.555 64.8518 115.12 63.5718 115.12C62.7398 115.12 62.0171 115.307 61.4038 115.68C60.7958 116.053 60.3238 116.584 59.9878 117.272C59.6518 117.96 59.4838 118.776 59.4838 119.72C59.4838 120.632 59.6518 121.427 59.9878 122.104C60.3291 122.781 60.8091 123.307 61.4278 123.68C62.0518 124.053 62.7824 124.24 63.6198 124.24ZM63.6038 116.2C65.2304 116.2 66.1344 117.141 66.3158 119.024H60.7638C60.8544 118.112 61.1424 117.413 61.6278 116.928C62.1131 116.443 62.7718 116.2 63.6038 116.2ZM68.5231 124H69.7471L70.7071 121.208H75.8271L76.7951 124H78.0191L74.0511 112.48H72.4911L68.5231 124ZM71.0911 120.104L73.2591 113.808L75.4431 120.104H71.0911ZM82.6878 124.232C83.7491 124.232 84.5811 124 85.1838 123.536C85.7918 123.067 86.0958 122.424 86.0958 121.608C86.0958 121.16 85.9998 120.784 85.8078 120.48C85.6211 120.176 85.2984 119.912 84.8398 119.688C84.3864 119.464 83.7624 119.251 82.9678 119.048C82.2904 118.877 81.7678 118.72 81.3998 118.576C81.0371 118.432 80.7864 118.28 80.6478 118.12C80.5091 117.955 80.4398 117.757 80.4398 117.528C80.4398 117.117 80.6318 116.789 81.0158 116.544C81.3998 116.299 81.8984 116.181 82.5118 116.192C83.1624 116.203 83.6984 116.357 84.1198 116.656C84.5411 116.949 84.7944 117.349 84.8798 117.856L86.0798 117.64C86.0211 117.139 85.8344 116.699 85.5198 116.32C85.2051 115.941 84.7891 115.648 84.2718 115.44C83.7598 115.227 83.1784 115.12 82.5278 115.12C81.8771 115.12 81.3038 115.224 80.8078 115.432C80.3171 115.635 79.9331 115.923 79.6558 116.296C79.3838 116.664 79.2478 117.093 79.2478 117.584C79.2478 117.984 79.3384 118.325 79.5197 118.608C79.7064 118.885 80.0238 119.133 80.4718 119.352C80.9198 119.565 81.5331 119.779 82.3118 119.992C83.0424 120.189 83.5891 120.36 83.9518 120.504C84.3198 120.648 84.5651 120.805 84.6878 120.976C84.8104 121.141 84.8718 121.357 84.8718 121.624C84.8718 122.093 84.6824 122.467 84.3038 122.744C83.9251 123.021 83.4078 123.16 82.7517 123.16C82.0798 123.16 81.5144 123.016 81.0558 122.728C80.5971 122.435 80.3064 122.043 80.1838 121.552L78.9838 121.752C79.1331 122.531 79.5331 123.139 80.1838 123.576C80.8398 124.013 81.6744 124.232 82.6878 124.232ZM91.094 124.232C92.1553 124.232 92.9873 124 93.59 123.536C94.198 123.067 94.502 122.424 94.502 121.608C94.502 121.16 94.406 120.784 94.214 120.48C94.0273 120.176 93.7047 119.912 93.246 119.688C92.7927 119.464 92.1687 119.251 91.374 119.048C90.6967 118.877 90.174 118.72 89.806 118.576C89.4433 118.432 89.1927 118.28 89.054 118.12C88.9153 117.955 88.846 117.757 88.846 117.528C88.846 117.117 89.038 116.789 89.422 116.544C89.806 116.299 90.3047 116.181 90.918 116.192C91.5687 116.203 92.1047 116.357 92.526 116.656C92.9473 116.949 93.2007 117.349 93.286 117.856L94.486 117.64C94.4273 117.139 94.2407 116.699 93.926 116.32C93.6113 115.941 93.1953 115.648 92.678 115.44C92.166 115.227 91.5847 115.12 90.934 115.12C90.2833 115.12 89.71 115.224 89.214 115.432C88.7233 115.635 88.3393 115.923 88.062 116.296C87.79 116.664 87.654 117.093 87.654 117.584C87.654 117.984 87.7447 118.325 87.926 118.608C88.1127 118.885 88.43 119.133 88.878 119.352C89.326 119.565 89.9393 119.779 90.718 119.992C91.4487 120.189 91.9953 120.36 92.358 120.504C92.726 120.648 92.9713 120.805 93.094 120.976C93.2167 121.141 93.278 121.357 93.278 121.624C93.278 122.093 93.0887 122.467 92.71 122.744C92.3313 123.021 91.814 123.16 91.158 123.16C90.486 123.16 89.9207 123.016 89.462 122.728C89.0033 122.435 88.7127 122.043 88.59 121.552L87.39 121.752C87.5393 122.531 87.9393 123.139 88.59 123.576C89.246 124.013 90.0807 124.232 91.094 124.232ZM99.9323 124.24C100.77 124.24 101.519 124.035 102.18 123.624C102.847 123.213 103.351 122.629 103.692 121.872L102.596 121.448C102.047 122.557 101.143 123.112 99.8843 123.112C99.0203 123.112 98.3429 122.843 97.8523 122.304C97.3669 121.765 97.1003 121 97.0523 120.008H103.86C103.903 118.483 103.57 117.288 102.86 116.424C102.156 115.555 101.164 115.12 99.8843 115.12C99.0523 115.12 98.3296 115.307 97.7163 115.68C97.1083 116.053 96.6363 116.584 96.3003 117.272C95.9643 117.96 95.7963 118.776 95.7963 119.72C95.7963 120.632 95.9643 121.427 96.3003 122.104C96.6416 122.781 97.1216 123.307 97.7403 123.68C98.3643 124.053 99.0949 124.24 99.9323 124.24ZM99.9163 116.2C101.543 116.2 102.447 117.141 102.628 119.024H97.0763C97.1669 118.112 97.4549 117.413 97.9403 116.928C98.4256 116.443 99.0843 116.2 99.9163 116.2ZM110.34 124V122.968C109.721 123.069 109.201 123.085 108.78 123.016C108.364 122.947 108.06 122.733 107.868 122.376C107.766 122.189 107.71 121.976 107.7 121.736C107.694 121.491 107.692 121.187 107.692 120.824V116.368H110.34V115.36H107.692V112.96H106.524V115.36H104.676V116.368H106.524V120.872C106.524 121.293 106.529 121.669 106.54 122C106.556 122.331 106.641 122.653 106.796 122.968C106.988 123.352 107.268 123.635 107.636 123.816C108.009 123.997 108.43 124.099 108.9 124.12C109.374 124.141 109.854 124.101 110.34 124ZM112.202 124H118.85V122.872H113.378V112.48H112.202V124ZM120.214 124H121.39V119.624H124.662C124.768 119.624 124.894 119.619 125.038 119.608C125.182 119.597 125.326 119.581 125.47 119.56C126.366 119.421 127.056 119.027 127.542 118.376C128.032 117.725 128.278 116.952 128.278 116.056C128.278 115.155 128.035 114.379 127.55 113.728C127.064 113.077 126.371 112.683 125.47 112.544C125.326 112.517 125.182 112.501 125.038 112.496C124.899 112.485 124.774 112.48 124.662 112.48H120.214V124ZM121.39 118.504V113.608H124.63C124.726 113.608 124.838 113.613 124.966 113.624C125.099 113.629 125.224 113.645 125.342 113.672C125.934 113.8 126.368 114.096 126.646 114.56C126.928 115.019 127.07 115.517 127.07 116.056C127.07 116.589 126.928 117.088 126.646 117.552C126.368 118.016 125.934 118.309 125.342 118.432C125.224 118.459 125.099 118.477 124.966 118.488C124.838 118.499 124.726 118.504 124.63 118.504H121.39ZM132.798 124H134.358L138.326 112.48H137.102L133.566 122.664L130.054 112.48H128.83L132.798 124ZM141.28 124.24C142.789 124.24 143.885 123.683 144.568 122.568V124H145.616V118.632C145.616 118.312 145.6 117.997 145.568 117.688C145.536 117.379 145.466 117.099 145.36 116.848C145.13 116.288 144.738 115.861 144.184 115.568C143.634 115.269 142.965 115.12 142.176 115.12C141.226 115.12 140.453 115.333 139.856 115.76C139.258 116.187 138.858 116.787 138.656 117.56L139.799 117.896C139.965 117.32 140.25 116.899 140.656 116.632C141.066 116.365 141.568 116.232 142.16 116.232C142.981 116.232 143.568 116.424 143.92 116.808C144.272 117.187 144.453 117.765 144.464 118.544C144.08 118.597 143.656 118.653 143.192 118.712C142.733 118.771 142.272 118.837 141.808 118.912C141.344 118.987 140.917 119.072 140.528 119.168C139.882 119.339 139.354 119.624 138.944 120.024C138.533 120.419 138.328 120.971 138.328 121.68C138.328 122.139 138.437 122.563 138.656 122.952C138.874 123.341 139.202 123.653 139.64 123.888C140.082 124.123 140.629 124.24 141.28 124.24ZM141.416 123.224C140.952 123.224 140.578 123.149 140.296 123C140.018 122.845 139.816 122.651 139.688 122.416C139.565 122.176 139.504 121.931 139.504 121.68C139.504 121.211 139.661 120.859 139.976 120.624C140.29 120.389 140.632 120.219 141 120.112C141.474 119.984 142.026 119.88 142.656 119.8C143.285 119.72 143.882 119.645 144.448 119.576C144.448 119.773 144.44 120 144.424 120.256C144.413 120.507 144.384 120.739 144.336 120.952C144.224 121.603 143.914 122.144 143.408 122.576C142.906 123.008 142.242 123.224 141.416 123.224ZM151.002 124.216C151.621 124.216 152.178 124.099 152.674 123.864C153.175 123.624 153.586 123.269 153.906 122.8V124H154.962V115.36H153.786V119.968C153.786 120.944 153.567 121.709 153.13 122.264C152.693 122.819 152.058 123.096 151.226 123.096C150.623 123.096 150.138 122.952 149.77 122.664C149.402 122.371 149.135 121.973 148.97 121.472C148.805 120.971 148.722 120.403 148.722 119.768V115.36H147.538V120.112C147.538 120.597 147.597 121.083 147.714 121.568C147.837 122.053 148.031 122.496 148.298 122.896C148.565 123.296 148.919 123.616 149.362 123.856C149.81 124.096 150.357 124.216 151.002 124.216ZM157.358 124H158.534V112.24H157.358V124ZM165.637 124V122.968C165.018 123.069 164.498 123.085 164.077 123.016C163.661 122.947 163.357 122.733 163.165 122.376C163.063 122.189 163.007 121.976 162.997 121.736C162.991 121.491 162.989 121.187 162.989 120.824V116.368H165.637V115.36H162.989V112.96H161.821V115.36H159.973V116.368H161.821V120.872C161.821 121.293 161.826 121.669 161.837 122C161.853 122.331 161.938 122.653 162.093 122.968C162.285 123.352 162.565 123.635 162.933 123.816C163.306 123.997 163.727 124.099 164.197 124.12C164.671 124.141 165.151 124.101 165.637 124Z" fill="white"></path> <path d="M25.112 176H26.296V170.424C26.296 169.747 26.48 169.205 26.848 168.8C27.216 168.389 27.6987 168.184 28.296 168.184C28.8933 168.184 29.3733 168.384 29.736 168.784C30.104 169.179 30.288 169.72 30.288 170.408L30.28 176H31.44L31.448 170.424C31.448 169.885 31.5467 169.453 31.744 169.128C31.9467 168.797 32.2027 168.557 32.512 168.408C32.8213 168.259 33.1387 168.184 33.464 168.184C34.0347 168.184 34.504 168.376 34.872 168.76C35.2453 169.139 35.432 169.661 35.432 170.328L35.424 176H36.6L36.608 170.104C36.608 169.192 36.3467 168.469 35.824 167.936C35.3067 167.397 34.6107 167.128 33.736 167.128C33.16 167.128 32.6427 167.259 32.184 167.52C31.7253 167.776 31.3707 168.131 31.12 168.584C30.8853 168.109 30.5467 167.749 30.104 167.504C29.6667 167.253 29.1653 167.128 28.6 167.128C28.088 167.128 27.6213 167.232 27.2 167.44C26.7787 167.643 26.4347 167.92 26.168 168.272V167.36H25.112V176ZM41.9865 176.216C42.6052 176.216 43.1625 176.099 43.6585 175.864C44.1598 175.624 44.5705 175.269 44.8905 174.8V176H45.9465V167.36H44.7705V171.968C44.7705 172.944 44.5518 173.709 44.1145 174.264C43.6772 174.819 43.0425 175.096 42.2105 175.096C41.6078 175.096 41.1225 174.952 40.7545 174.664C40.3865 174.371 40.1198 173.973 39.9545 173.472C39.7892 172.971 39.7065 172.403 39.7065 171.768V167.36H38.5225V172.112C38.5225 172.597 38.5812 173.083 38.6985 173.568C38.8212 174.053 39.0158 174.496 39.2825 174.896C39.5492 175.296 39.9038 175.616 40.3465 175.856C40.7945 176.096 41.3412 176.216 41.9865 176.216ZM48.3425 176H49.5185V164.24H48.3425V176ZM56.6209 176V174.968C56.0022 175.069 55.4822 175.085 55.0609 175.016C54.6449 174.947 54.3409 174.733 54.1489 174.376C54.0475 174.189 53.9915 173.976 53.9809 173.736C53.9755 173.491 53.9729 173.187 53.9729 172.824V168.368H56.6209V167.36H53.9729V164.96H52.8049V167.36H50.9569V168.368H52.8049V172.872C52.8049 173.293 52.8102 173.669 52.8209 174C52.8369 174.331 52.9222 174.653 53.0769 174.968C53.2689 175.352 53.5489 175.635 53.9169 175.816C54.2902 175.997 54.7115 176.099 55.1809 176.12C55.6555 176.141 56.1355 176.101 56.6209 176ZM58.4831 165.72H59.6591V164.4H58.4831V165.72ZM58.4831 176H59.6591V167.36H58.4831V176ZM61.2575 176H62.4815L63.4415 173.208H68.5615L69.5295 176H70.7535L66.7855 164.48H65.2255L61.2575 176ZM63.8255 172.104L65.9935 165.808L68.1775 172.104H63.8255ZM75.4221 176.232C76.4835 176.232 77.3155 176 77.9181 175.536C78.5261 175.067 78.8301 174.424 78.8301 173.608C78.8301 173.16 78.7341 172.784 78.5421 172.48C78.3555 172.176 78.0328 171.912 77.5741 171.688C77.1208 171.464 76.4968 171.251 75.7021 171.048C75.0248 170.877 74.5021 170.72 74.1341 170.576C73.7715 170.432 73.5208 170.28 73.3821 170.12C73.2435 169.955 73.1741 169.757 73.1741 169.528C73.1741 169.117 73.3661 168.789 73.7501 168.544C74.1341 168.299 74.6328 168.181 75.2461 168.192C75.8968 168.203 76.4328 168.357 76.8541 168.656C77.2755 168.949 77.5288 169.349 77.6141 169.856L78.8141 169.64C78.7555 169.139 78.5688 168.699 78.2541 168.32C77.9395 167.941 77.5235 167.648 77.0061 167.44C76.4941 167.227 75.9128 167.12 75.2621 167.12C74.6115 167.12 74.0381 167.224 73.5421 167.432C73.0515 167.635 72.6675 167.923 72.3901 168.296C72.1181 168.664 71.9821 169.093 71.9821 169.584C71.9821 169.984 72.0728 170.325 72.2541 170.608C72.4408 170.885 72.7581 171.133 73.2061 171.352C73.6541 171.565 74.2675 171.779 75.0461 171.992C75.7768 172.189 76.3235 172.36 76.6861 172.504C77.0541 172.648 77.2995 172.805 77.4221 172.976C77.5448 173.141 77.6061 173.357 77.6061 173.624C77.6061 174.093 77.4168 174.467 77.0381 174.744C76.6595 175.021 76.1421 175.16 75.4861 175.16C74.8141 175.16 74.2488 175.016 73.7901 174.728C73.3315 174.435 73.0408 174.043 72.9181 173.552L71.7181 173.752C71.8675 174.531 72.2675 175.139 72.9181 175.576C73.5741 176.013 74.4088 176.232 75.4221 176.232ZM83.8284 176.232C84.8897 176.232 85.7217 176 86.3244 175.536C86.9324 175.067 87.2364 174.424 87.2364 173.608C87.2364 173.16 87.1404 172.784 86.9484 172.48C86.7617 172.176 86.439 171.912 85.9804 171.688C85.527 171.464 84.903 171.251 84.1084 171.048C83.431 170.877 82.9084 170.72 82.5404 170.576C82.1777 170.432 81.927 170.28 81.7884 170.12C81.6497 169.955 81.5804 169.757 81.5804 169.528C81.5804 169.117 81.7724 168.789 82.1564 168.544C82.5404 168.299 83.039 168.181 83.6524 168.192C84.303 168.203 84.839 168.357 85.2604 168.656C85.6817 168.949 85.935 169.349 86.0204 169.856L87.2204 169.64C87.1617 169.139 86.975 168.699 86.6604 168.32C86.3457 167.941 85.9297 167.648 85.4124 167.44C84.9004 167.227 84.319 167.12 83.6684 167.12C83.0177 167.12 82.4444 167.224 81.9484 167.432C81.4577 167.635 81.0737 167.923 80.7964 168.296C80.5244 168.664 80.3884 169.093 80.3884 169.584C80.3884 169.984 80.479 170.325 80.6604 170.608C80.847 170.885 81.1644 171.133 81.6124 171.352C82.0604 171.565 82.6737 171.779 83.4524 171.992C84.183 172.189 84.7297 172.36 85.0924 172.504C85.4604 172.648 85.7057 172.805 85.8284 172.976C85.951 173.141 86.0124 173.357 86.0124 173.624C86.0124 174.093 85.823 174.467 85.4444 174.744C85.0657 175.021 84.5484 175.16 83.8924 175.16C83.2204 175.16 82.655 175.016 82.1964 174.728C81.7377 174.435 81.447 174.043 81.3244 173.552L80.1244 173.752C80.2737 174.531 80.6737 175.139 81.3244 175.576C81.9804 176.013 82.815 176.232 83.8284 176.232ZM92.6666 176.24C93.504 176.24 94.2533 176.035 94.9146 175.624C95.5813 175.213 96.0853 174.629 96.4266 173.872L95.3306 173.448C94.7813 174.557 93.8773 175.112 92.6186 175.112C91.7546 175.112 91.0773 174.843 90.5866 174.304C90.1013 173.765 89.8346 173 89.7866 172.008H96.5946C96.6373 170.483 96.304 169.288 95.5946 168.424C94.8906 167.555 93.8986 167.12 92.6186 167.12C91.7866 167.12 91.064 167.307 90.4506 167.68C89.8426 168.053 89.3706 168.584 89.0346 169.272C88.6986 169.96 88.5306 170.776 88.5306 171.72C88.5306 172.632 88.6986 173.427 89.0346 174.104C89.376 174.781 89.856 175.307 90.4746 175.68C91.0986 176.053 91.8293 176.24 92.6666 176.24ZM92.6506 168.2C94.2773 168.2 95.1813 169.141 95.3626 171.024H89.8106C89.9013 170.112 90.1893 169.413 90.6746 168.928C91.16 168.443 91.8186 168.2 92.6506 168.2ZM103.074 176V174.968C102.455 175.069 101.935 175.085 101.514 175.016C101.098 174.947 100.794 174.733 100.602 174.376C100.501 174.189 100.445 173.976 100.434 173.736C100.429 173.491 100.426 173.187 100.426 172.824V168.368H103.074V167.36H100.426V164.96H99.258V167.36H97.41V168.368H99.258V172.872C99.258 173.293 99.2633 173.669 99.274 174C99.29 174.331 99.3753 174.653 99.53 174.968C99.722 175.352 100.002 175.635 100.37 175.816C100.743 175.997 101.165 176.099 101.634 176.12C102.109 176.141 102.589 176.101 103.074 176ZM104.936 176H111.584V174.872H106.112V164.48H104.936V176ZM112.948 176H114.124V171.624H117.396C117.503 171.624 117.628 171.619 117.772 171.608C117.916 171.597 118.06 171.581 118.204 171.56C119.1 171.421 119.791 171.027 120.276 170.376C120.767 169.725 121.012 168.952 121.012 168.056C121.012 167.155 120.769 166.379 120.284 165.728C119.799 165.077 119.105 164.683 118.204 164.544C118.06 164.517 117.916 164.501 117.772 164.496C117.633 164.485 117.508 164.48 117.396 164.48H112.948V176ZM114.124 170.504V165.608H117.364C117.46 165.608 117.572 165.613 117.7 165.624C117.833 165.629 117.959 165.645 118.076 165.672C118.668 165.8 119.103 166.096 119.38 166.56C119.663 167.019 119.804 167.517 119.804 168.056C119.804 168.589 119.663 169.088 119.38 169.552C119.103 170.016 118.668 170.309 118.076 170.432C117.959 170.459 117.833 170.477 117.7 170.488C117.572 170.499 117.46 170.504 117.364 170.504H114.124ZM125.532 176H127.092L131.06 164.48H129.836L126.3 174.664L122.788 164.48H121.564L125.532 176ZM134.014 176.24C135.523 176.24 136.619 175.683 137.302 174.568V176H138.35V170.632C138.35 170.312 138.334 169.997 138.302 169.688C138.27 169.379 138.201 169.099 138.094 168.848C137.865 168.288 137.473 167.861 136.918 167.568C136.369 167.269 135.699 167.12 134.91 167.12C133.961 167.12 133.187 167.333 132.59 167.76C131.993 168.187 131.593 168.787 131.39 169.56L132.534 169.896C132.699 169.32 132.985 168.899 133.39 168.632C133.801 168.365 134.302 168.232 134.894 168.232C135.715 168.232 136.302 168.424 136.654 168.808C137.006 169.187 137.187 169.765 137.198 170.544C136.814 170.597 136.39 170.653 135.926 170.712C135.467 170.771 135.006 170.837 134.542 170.912C134.078 170.987 133.651 171.072 133.262 171.168C132.617 171.339 132.089 171.624 131.678 172.024C131.267 172.419 131.062 172.971 131.062 173.68C131.062 174.139 131.171 174.563 131.39 174.952C131.609 175.341 131.937 175.653 132.374 175.888C132.817 176.123 133.363 176.24 134.014 176.24ZM134.15 175.224C133.686 175.224 133.313 175.149 133.03 175C132.753 174.845 132.55 174.651 132.422 174.416C132.299 174.176 132.238 173.931 132.238 173.68C132.238 173.211 132.395 172.859 132.71 172.624C133.025 172.389 133.366 172.219 133.734 172.112C134.209 171.984 134.761 171.88 135.39 171.8C136.019 171.72 136.617 171.645 137.182 171.576C137.182 171.773 137.174 172 137.158 172.256C137.147 172.507 137.118 172.739 137.07 172.952C136.958 173.603 136.649 174.144 136.142 174.576C135.641 175.008 134.977 175.224 134.15 175.224ZM143.737 176.216C144.355 176.216 144.913 176.099 145.409 175.864C145.91 175.624 146.321 175.269 146.641 174.8V176H147.697V167.36H146.521V171.968C146.521 172.944 146.302 173.709 145.865 174.264C145.427 174.819 144.793 175.096 143.961 175.096C143.358 175.096 142.873 174.952 142.505 174.664C142.137 174.371 141.87 173.973 141.705 173.472C141.539 172.971 141.457 172.403 141.457 171.768V167.36H140.273V172.112C140.273 172.597 140.331 173.083 140.449 173.568C140.571 174.053 140.766 174.496 141.033 174.896C141.299 175.296 141.654 175.616 142.097 175.856C142.545 176.096 143.091 176.216 143.737 176.216ZM150.093 176H151.269V164.24H150.093V176ZM158.371 176V174.968C157.752 175.069 157.232 175.085 156.811 175.016C156.395 174.947 156.091 174.733 155.899 174.376C155.798 174.189 155.742 173.976 155.731 173.736C155.726 173.491 155.723 173.187 155.723 172.824V168.368H158.371V167.36H155.723V164.96H154.555V167.36H152.707V168.368H154.555V172.872C154.555 173.293 154.56 173.669 154.571 174C154.587 174.331 154.672 174.653 154.827 174.968C155.019 175.352 155.299 175.635 155.667 175.816C156.04 175.997 156.462 176.099 156.931 176.12C157.406 176.141 157.886 176.101 158.371 176Z" fill="white"></path> <path d="M25.12 228H26.296V223.688C26.296 223.171 26.3547 222.656 26.472 222.144C26.5947 221.627 26.872 221.197 27.304 220.856C27.6187 220.6 27.96 220.453 28.328 220.416C28.7013 220.373 29.048 220.389 29.368 220.464V219.36C28.9893 219.264 28.56 219.261 28.08 219.352C27.6 219.437 27.1893 219.629 26.848 219.928C26.592 220.12 26.368 220.387 26.176 220.728V219.36H25.12V228ZM34.3854 228.24C35.2227 228.24 35.972 228.035 36.6334 227.624C37.3 227.213 37.804 226.629 38.1454 225.872L37.0494 225.448C36.5 226.557 35.596 227.112 34.3374 227.112C33.4734 227.112 32.796 226.843 32.3054 226.304C31.82 225.765 31.5534 225 31.5054 224.008H38.3134C38.356 222.483 38.0227 221.288 37.3134 220.424C36.6094 219.555 35.6174 219.12 34.3374 219.12C33.5054 219.12 32.7827 219.307 32.1694 219.68C31.5614 220.053 31.0894 220.584 30.7534 221.272C30.4174 221.96 30.2494 222.776 30.2494 223.72C30.2494 224.632 30.4174 225.427 30.7534 226.104C31.0947 226.781 31.5747 227.307 32.1934 227.68C32.8174 228.053 33.548 228.24 34.3854 228.24ZM34.3694 220.2C35.996 220.2 36.9 221.141 37.0814 223.024H31.5294C31.62 222.112 31.908 221.413 32.3934 220.928C32.8787 220.443 33.5374 220.2 34.3694 220.2ZM41.6163 228H42.6403L44.7923 221.12L46.9523 228H47.9763L50.6163 219.36H49.4483L47.3843 226.072L45.3283 219.36H44.2563L42.2003 226.072L40.1523 219.36L38.9763 219.352L41.6163 228ZM54.0451 228.24C55.5545 228.24 56.6505 227.683 57.3331 226.568V228H58.3811V222.632C58.3811 222.312 58.3651 221.997 58.3331 221.688C58.3011 221.379 58.2318 221.099 58.1251 220.848C57.8958 220.288 57.5038 219.861 56.9491 219.568C56.3998 219.269 55.7305 219.12 54.9411 219.12C53.9918 219.12 53.2185 219.333 52.6211 219.76C52.0238 220.187 51.6238 220.787 51.4211 221.56L52.5651 221.896C52.7305 221.32 53.0158 220.899 53.4211 220.632C53.8318 220.365 54.3331 220.232 54.9251 220.232C55.7465 220.232 56.3331 220.424 56.6851 220.808C57.0371 221.187 57.2185 221.765 57.2291 222.544C56.8451 222.597 56.4211 222.653 55.9571 222.712C55.4985 222.771 55.0371 222.837 54.5731 222.912C54.1091 222.987 53.6825 223.072 53.2931 223.168C52.6478 223.339 52.1198 223.624 51.7091 224.024C51.2985 224.419 51.0931 224.971 51.0931 225.68C51.0931 226.139 51.2025 226.563 51.4211 226.952C51.6398 227.341 51.9678 227.653 52.4051 227.888C52.8478 228.123 53.3945 228.24 54.0451 228.24ZM54.1811 227.224C53.7171 227.224 53.3438 227.149 53.0611 227C52.7838 226.845 52.5811 226.651 52.4531 226.416C52.3305 226.176 52.2691 225.931 52.2691 225.68C52.2691 225.211 52.4265 224.859 52.7411 224.624C53.0558 224.389 53.3971 224.219 53.7651 224.112C54.2398 223.984 54.7918 223.88 55.4211 223.8C56.0505 223.72 56.6478 223.645 57.2131 223.576C57.2131 223.773 57.2051 224 57.1891 224.256C57.1785 224.507 57.1491 224.739 57.1011 224.952C56.9891 225.603 56.6798 226.144 56.1731 226.576C55.6718 227.008 55.0078 227.224 54.1811 227.224ZM60.4638 228H61.6398V223.688C61.6398 223.171 61.6984 222.656 61.8158 222.144C61.9384 221.627 62.2158 221.197 62.6478 220.856C62.9624 220.6 63.3038 220.453 63.6718 220.416C64.0451 220.373 64.3918 220.389 64.7118 220.464V219.36C64.3331 219.264 63.9038 219.261 63.4238 219.352C62.9438 219.437 62.5331 219.629 62.1918 219.928C61.9358 220.12 61.7118 220.387 61.5198 220.728V219.36H60.4638V228ZM69.4251 228.24C70.0545 228.24 70.6065 228.112 71.0811 227.856C71.5558 227.595 71.9478 227.24 72.2571 226.792V228H73.3131V216.48H72.1291V220.376C71.8145 219.981 71.4251 219.675 70.9611 219.456C70.5025 219.232 69.9745 219.12 69.3771 219.12C68.5878 219.12 67.9105 219.32 67.3451 219.72C66.7798 220.12 66.3451 220.664 66.0411 221.352C65.7425 222.04 65.5931 222.813 65.5931 223.672C65.5931 224.536 65.7425 225.312 66.0411 226C66.3451 226.688 66.7825 227.235 67.3531 227.64C67.9291 228.04 68.6198 228.24 69.4251 228.24ZM69.5451 227.144C68.9478 227.144 68.4465 226.992 68.0411 226.688C67.6411 226.379 67.3398 225.963 67.1371 225.44C66.9398 224.917 66.8411 224.328 66.8411 223.672C66.8411 223.021 66.9398 222.435 67.1371 221.912C67.3345 221.389 67.6331 220.976 68.0331 220.672C68.4385 220.368 68.9505 220.216 69.5691 220.216C70.4705 220.216 71.1425 220.539 71.5851 221.184C72.0331 221.824 72.2571 222.653 72.2571 223.672C72.2571 224.339 72.1585 224.933 71.9611 225.456C71.7638 225.979 71.4651 226.392 71.0651 226.696C70.6651 226.995 70.1585 227.144 69.5451 227.144ZM78.4855 228H80.0455L84.0135 216.48H82.7895L79.2535 226.664L75.7415 216.48H74.5175L78.4855 228ZM86.967 228.24C88.4763 228.24 89.5723 227.683 90.255 226.568V228H91.303V222.632C91.303 222.312 91.287 221.997 91.255 221.688C91.223 221.379 91.1537 221.099 91.047 220.848C90.8177 220.288 90.4257 219.861 89.871 219.568C89.3217 219.269 88.6523 219.12 87.863 219.12C86.9137 219.12 86.1403 219.333 85.543 219.76C84.9457 220.187 84.5457 220.787 84.343 221.56L85.487 221.896C85.6523 221.32 85.9377 220.899 86.343 220.632C86.7537 220.365 87.255 220.232 87.847 220.232C88.6683 220.232 89.255 220.424 89.607 220.808C89.959 221.187 90.1403 221.765 90.151 222.544C89.767 222.597 89.343 222.653 88.879 222.712C88.4203 222.771 87.959 222.837 87.495 222.912C87.031 222.987 86.6043 223.072 86.215 223.168C85.5697 223.339 85.0417 223.624 84.631 224.024C84.2203 224.419 84.015 224.971 84.015 225.68C84.015 226.139 84.1243 226.563 84.343 226.952C84.5617 227.341 84.8897 227.653 85.327 227.888C85.7697 228.123 86.3163 228.24 86.967 228.24ZM87.103 227.224C86.639 227.224 86.2657 227.149 85.983 227C85.7057 226.845 85.503 226.651 85.375 226.416C85.2523 226.176 85.191 225.931 85.191 225.68C85.191 225.211 85.3483 224.859 85.663 224.624C85.9777 224.389 86.319 224.219 86.687 224.112C87.1617 223.984 87.7137 223.88 88.343 223.8C88.9723 223.72 89.5697 223.645 90.135 223.576C90.135 223.773 90.127 224 90.111 224.256C90.1003 224.507 90.071 224.739 90.023 224.952C89.911 225.603 89.6017 226.144 89.095 226.576C88.5937 227.008 87.9297 227.224 87.103 227.224ZM96.6896 228.216C97.3083 228.216 97.8656 228.099 98.3616 227.864C98.863 227.624 99.2736 227.269 99.5936 226.8V228H100.65V219.36H99.4736V223.968C99.4736 224.944 99.255 225.709 98.8176 226.264C98.3803 226.819 97.7456 227.096 96.9136 227.096C96.311 227.096 95.8256 226.952 95.4576 226.664C95.0896 226.371 94.823 225.973 94.6576 225.472C94.4923 224.971 94.4096 224.403 94.4096 223.768V219.36H93.2256V224.112C93.2256 224.597 93.2843 225.083 93.4016 225.568C93.5243 226.053 93.719 226.496 93.9856 226.896C94.2523 227.296 94.607 227.616 95.0496 227.856C95.4976 228.096 96.0443 228.216 96.6896 228.216ZM103.046 228H104.222V216.24H103.046V228ZM111.324 228V226.968C110.705 227.069 110.185 227.085 109.764 227.016C109.348 226.947 109.044 226.733 108.852 226.376C108.751 226.189 108.695 225.976 108.684 225.736C108.679 225.491 108.676 225.187 108.676 224.824V220.368H111.324V219.36H108.676V216.96H107.508V219.36H105.66V220.368H107.508V224.872C107.508 225.293 107.513 225.669 107.524 226C107.54 226.331 107.625 226.653 107.78 226.968C107.972 227.352 108.252 227.635 108.62 227.816C108.993 227.997 109.415 228.099 109.884 228.12C110.359 228.141 110.839 228.101 111.324 228Z" fill="white"></path> <path d="M24 92H566" stroke="#282726"></path> <path d="M24 144H566" stroke="#282726"></path> <path d="M24 196H566" stroke="#282726"></path> <path d="M229.064 47.488H230.016V46.36H229.112C228.883 46.36 228.688 46.28 228.528 46.12C228.368 45.96 228.288 45.768 228.288 45.544V40.376C228.288 39.9653 228.168 39.592 227.928 39.256L227.488 38.64L227.928 38.024C228.168 37.688 228.288 37.3147 228.288 36.904V31.752C228.288 31.5173 228.368 31.32 228.528 31.16C228.688 31 228.883 30.92 229.112 30.92H230.016V29.792H229.064C228.509 29.792 228.053 29.9707 227.696 30.328C227.339 30.6853 227.16 31.1413 227.16 31.696V36.904C227.16 37.0587 227.112 37.2133 227.016 37.368L226.336 38.32C226.187 38.5333 226.187 38.7467 226.336 38.96L227.016 39.912C227.112 40.0613 227.16 40.216 227.16 40.376V45.592C227.16 46.1413 227.339 46.5947 227.696 46.952C228.053 47.3093 228.509 47.488 229.064 47.488ZM262.074 42.712L261.322 41.976L264.378 38.96L261.322 35.944L262.074 35.208L265.826 38.96L262.074 42.712ZM313.813 32.48H315.021L311.949 44H310.741L313.813 32.48ZM356.231 42.712L355.479 41.976L358.535 38.96L355.479 35.944L356.231 35.208L359.983 38.96L356.231 42.712ZM462.923 32.48H464.131L461.059 44H459.851L462.923 32.48ZM514.949 42.712L514.197 41.976L517.253 38.96L514.197 35.944L514.949 35.208L518.701 38.96L514.949 42.712ZM288.938 60.48H290.146L287.074 72H285.866L288.938 60.48ZM348.257 75.488H347.305V74.36H348.209C348.439 74.36 348.633 74.28 348.793 74.12C348.953 73.96 349.033 73.768 349.033 73.544V68.376C349.033 67.9653 349.153 67.592 349.393 67.256L349.833 66.64L349.393 66.024C349.153 65.688 349.033 65.3147 349.033 64.904V59.752C349.033 59.5173 348.953 59.32 348.793 59.16C348.633 59 348.439 58.92 348.209 58.92H347.305V57.792H348.257C348.812 57.792 349.268 57.9707 349.625 58.328C349.983 58.6853 350.161 59.1413 350.161 59.696V64.904C350.161 65.0587 350.209 65.2133 350.305 65.368L350.985 66.32C351.135 66.5333 351.135 66.7467 350.985 66.96L350.305 67.912C350.209 68.0613 350.161 68.216 350.161 68.376V73.592C350.161 74.1413 349.983 74.5947 349.625 74.952C349.268 75.3093 348.812 75.488 348.257 75.488Z" fill="#949494"></path> <path d="M231.839 44H235.335C235.447 44 235.655 43.9973 235.959 43.992C236.263 43.9867 236.548 43.9653 236.815 43.928C237.689 43.8053 238.42 43.4827 239.007 42.96C239.593 42.432 240.033 41.76 240.327 40.944C240.62 40.1227 240.767 39.2213 240.767 38.24C240.767 37.2587 240.62 36.36 240.327 35.544C240.033 34.728 239.593 34.056 239.007 33.528C238.42 32.9947 237.689 32.6693 236.815 32.552C236.537 32.5147 236.252 32.4933 235.959 32.488C235.665 32.4827 235.457 32.48 235.335 32.48H231.839V44ZM233.055 42.872V33.608H235.335C235.543 33.608 235.775 33.616 236.031 33.632C236.292 33.6427 236.513 33.6667 236.695 33.704C237.361 33.8213 237.903 34.0933 238.319 34.52C238.735 34.9413 239.039 35.472 239.231 36.112C239.423 36.752 239.519 37.4613 239.519 38.24C239.519 39.0027 239.423 39.7067 239.231 40.352C239.044 40.9973 238.743 41.5333 238.327 41.96C237.911 42.3867 237.367 42.6587 236.695 42.776C236.513 42.8133 236.295 42.84 236.039 42.856C235.788 42.8667 235.553 42.872 235.335 42.872H233.055ZM241.476 44H242.7L243.66 41.208H248.78L249.748 44H250.972L247.004 32.48H245.444L241.476 44ZM244.044 40.104L246.212 33.808L248.396 40.104H244.044ZM252.577 44H253.753V32.48H252.577V44ZM319.576 44.24C321.086 44.24 322.182 43.6827 322.864 42.568V44H323.912V38.632C323.912 38.312 323.896 37.9973 323.864 37.688C323.832 37.3787 323.763 37.0987 323.656 36.848C323.427 36.288 323.035 35.8613 322.48 35.568C321.931 35.2693 321.262 35.12 320.472 35.12C319.523 35.12 318.75 35.3333 318.152 35.76C317.555 36.1867 317.155 36.7867 316.952 37.56L318.096 37.896C318.262 37.32 318.547 36.8987 318.952 36.632C319.363 36.3653 319.864 36.232 320.456 36.232C321.278 36.232 321.864 36.424 322.216 36.808C322.568 37.1867 322.75 37.7653 322.76 38.544C322.376 38.5973 321.952 38.6533 321.488 38.712C321.03 38.7707 320.568 38.8373 320.104 38.912C319.64 38.9867 319.214 39.072 318.824 39.168C318.179 39.3387 317.651 39.624 317.24 40.024C316.83 40.4187 316.624 40.9707 316.624 41.68C316.624 42.1387 316.734 42.5627 316.952 42.952C317.171 43.3413 317.499 43.6533 317.936 43.888C318.379 44.1227 318.926 44.24 319.576 44.24ZM319.712 43.224C319.248 43.224 318.875 43.1493 318.592 43C318.315 42.8453 318.112 42.6507 317.984 42.416C317.862 42.176 317.8 41.9307 317.8 41.68C317.8 41.2107 317.958 40.8587 318.272 40.624C318.587 40.3893 318.928 40.2187 319.296 40.112C319.771 39.984 320.323 39.88 320.952 39.8C321.582 39.72 322.179 39.6453 322.744 39.576C322.744 39.7733 322.736 40 322.72 40.256C322.71 40.5067 322.68 40.7387 322.632 40.952C322.52 41.6027 322.211 42.144 321.704 42.576C321.203 43.008 320.539 43.224 319.712 43.224ZM325.995 44H329.491C329.603 44 329.811 43.9973 330.115 43.992C330.419 43.9867 330.704 43.9653 330.971 43.928C331.846 43.8053 332.576 43.4827 333.163 42.96C333.75 42.432 334.19 41.76 334.483 40.944C334.776 40.1227 334.923 39.2213 334.923 38.24C334.923 37.2587 334.776 36.36 334.483 35.544C334.19 34.728 333.75 34.056 333.163 33.528C332.576 32.9947 331.846 32.6693 330.971 32.552C330.694 32.5147 330.408 32.4933 330.115 32.488C329.822 32.4827 329.614 32.48 329.491 32.48H325.995V44ZM327.211 42.872V33.608H329.491C329.699 33.608 329.931 33.616 330.187 33.632C330.448 33.6427 330.67 33.6667 330.851 33.704C331.518 33.8213 332.059 34.0933 332.475 34.52C332.891 34.9413 333.195 35.472 333.387 36.112C333.579 36.752 333.675 37.4613 333.675 38.24C333.675 39.0027 333.579 39.7067 333.387 40.352C333.2 40.9973 332.899 41.5333 332.483 41.96C332.067 42.3867 331.523 42.6587 330.851 42.776C330.67 42.8133 330.451 42.84 330.195 42.856C329.944 42.8667 329.71 42.872 329.491 42.872H327.211ZM335.633 44H336.857L337.817 41.208H342.937L343.905 44H345.129L341.161 32.48H339.601L335.633 44ZM338.201 40.104L340.369 33.808L342.553 40.104H338.201ZM346.733 44H347.909V32.48H346.733V44ZM470.71 44.24C471.59 44.24 472.366 44.0587 473.038 43.696C473.715 43.328 474.246 42.8133 474.63 42.152C475.014 41.4907 475.206 40.72 475.206 39.84V32.48H474.022V39.688C474.022 40.2853 473.92 40.8027 473.718 41.24C473.52 41.672 473.256 42.0293 472.926 42.312C472.6 42.5893 472.243 42.7947 471.854 42.928C471.464 43.0613 471.083 43.128 470.71 43.128C470.342 43.128 469.963 43.0613 469.574 42.928C469.184 42.7947 468.824 42.5893 468.494 42.312C468.168 42.0293 467.904 41.672 467.702 41.24C467.499 40.8027 467.398 40.2853 467.398 39.688V32.48L466.214 32.488V39.84C466.214 40.7253 466.406 41.4987 466.79 42.16C467.174 42.8213 467.704 43.3333 468.382 43.696C469.059 44.0587 469.835 44.24 470.71 44.24ZM480.964 44.24C481.769 44.24 482.486 44.1067 483.116 43.84C483.75 43.5733 484.252 43.1893 484.62 42.688C484.988 42.1813 485.172 41.5707 485.172 40.856C485.172 40.312 485.07 39.8613 484.868 39.504C484.67 39.1413 484.42 38.8507 484.116 38.632C483.817 38.408 483.51 38.2373 483.196 38.12C482.881 37.9973 482.606 37.904 482.372 37.84L480.116 37.176C479.817 37.0907 479.508 36.9813 479.188 36.848C478.873 36.7147 478.606 36.5307 478.388 36.296C478.174 36.0613 478.068 35.7493 478.068 35.36C478.068 34.976 478.185 34.6347 478.42 34.336C478.654 34.032 478.974 33.7947 479.38 33.624C479.785 33.448 480.244 33.3627 480.756 33.368C481.561 33.3733 482.252 33.6 482.828 34.048C483.409 34.4907 483.758 35.0853 483.876 35.832L485.108 35.608C484.921 34.5733 484.438 33.7573 483.66 33.16C482.881 32.5573 481.916 32.2533 480.764 32.248C480.006 32.2427 479.332 32.3707 478.74 32.632C478.148 32.888 477.681 33.2533 477.34 33.728C476.998 34.1973 476.828 34.7573 476.828 35.408C476.828 36.1813 477.06 36.784 477.524 37.216C477.993 37.6427 478.58 37.96 479.284 38.168L482.204 39.04C482.47 39.12 482.74 39.2293 483.012 39.368C483.284 39.5067 483.51 39.6987 483.692 39.944C483.878 40.1893 483.972 40.5093 483.972 40.904C483.972 41.3573 483.844 41.7493 483.588 42.08C483.332 42.4107 482.98 42.6667 482.532 42.848C482.089 43.024 481.582 43.112 481.012 43.112C480.153 43.112 479.414 42.9013 478.796 42.48C478.177 42.0533 477.772 41.4667 477.58 40.72L476.38 40.92C476.513 41.6027 476.788 42.192 477.204 42.688C477.62 43.184 478.148 43.568 478.788 43.84C479.433 44.1067 480.158 44.24 480.964 44.24ZM486.823 44H490.319C490.431 44 490.639 43.9973 490.943 43.992C491.247 43.9867 491.532 43.9653 491.799 43.928C492.674 43.8053 493.404 43.4827 493.991 42.96C494.578 42.432 495.018 41.76 495.311 40.944C495.604 40.1227 495.751 39.2213 495.751 38.24C495.751 37.2587 495.604 36.36 495.311 35.544C495.018 34.728 494.578 34.056 493.991 33.528C493.404 32.9947 492.674 32.6693 491.799 32.552C491.522 32.5147 491.236 32.4933 490.943 32.488C490.65 32.4827 490.442 32.48 490.319 32.48H486.823V44ZM488.039 42.872V33.608H490.319C490.527 33.608 490.759 33.616 491.015 33.632C491.276 33.6427 491.498 33.6667 491.679 33.704C492.346 33.8213 492.887 34.0933 493.303 34.52C493.719 34.9413 494.023 35.472 494.215 36.112C494.407 36.752 494.503 37.4613 494.503 38.24C494.503 39.0027 494.407 39.7067 494.215 40.352C494.028 40.9973 493.727 41.5333 493.311 41.96C492.895 42.3867 492.351 42.6587 491.679 42.776C491.498 42.8133 491.279 42.84 491.023 42.856C490.772 42.8667 490.538 42.872 490.319 42.872H488.039ZM502.237 44.24C503.576 44.24 504.669 43.8987 505.517 43.216C506.365 42.528 506.946 41.608 507.261 40.456L506.061 40.144C505.816 41.0507 505.376 41.7733 504.741 42.312C504.106 42.8453 503.272 43.112 502.237 43.112C501.336 43.112 500.581 42.9067 499.973 42.496C499.37 42.08 498.917 41.5067 498.613 40.776C498.314 40.0453 498.168 39.2 498.173 38.24C498.184 37.28 498.338 36.4347 498.637 35.704C498.936 34.968 499.384 34.3947 499.981 33.984C500.584 33.5733 501.336 33.368 502.237 33.368C503.272 33.368 504.106 33.6373 504.741 34.176C505.376 34.7093 505.816 35.4293 506.061 36.336L507.261 36.024C506.946 34.872 506.365 33.9547 505.517 33.272C504.669 32.584 503.576 32.24 502.237 32.24C501.09 32.24 500.122 32.4933 499.333 33C498.544 33.5067 497.946 34.2107 497.541 35.112C497.136 36.0133 496.933 37.056 496.933 38.24C496.933 39.4187 497.136 40.4613 497.541 41.368C497.946 42.2693 498.544 42.9733 499.333 43.48C500.122 43.9867 501.09 44.24 502.237 44.24Z" fill="#FFB33D"></path> <path d="M271.586 44H272.81L273.77 41.208H278.89L279.858 44H281.082L277.114 32.48H275.554L271.586 44ZM274.154 40.104L276.322 33.808L278.506 40.104H274.154ZM282.304 44H283.528L284.488 41.208H289.608L290.576 44H291.8L287.832 32.48H286.272L282.304 44ZM284.872 40.104L287.04 33.808L289.224 40.104H284.872ZM295.048 44H296.608L300.576 32.48H299.352L295.816 42.664L292.304 32.48H291.08L295.048 44ZM301.776 44H308.976V42.872H302.952V38.72H308.016V37.592H302.952V33.608H308.976V32.48H301.776V44Z" fill="#B46558"></path> <path d="M366.534 44H367.59V42.792C367.899 43.24 368.291 43.5947 368.766 43.856C369.241 44.112 369.793 44.24 370.422 44.24C371.233 44.24 371.923 44.04 372.494 43.64C373.065 43.2347 373.499 42.688 373.798 42C374.102 41.312 374.254 40.536 374.254 39.672C374.254 38.8133 374.102 38.04 373.798 37.352C373.499 36.664 373.067 36.12 372.502 35.72C371.937 35.32 371.259 35.12 370.47 35.12C369.873 35.12 369.342 35.232 368.878 35.456C368.419 35.6747 368.033 35.9813 367.718 36.376V32.48H366.534V44ZM370.302 43.144C369.689 43.144 369.182 42.9947 368.782 42.696C368.382 42.392 368.083 41.9787 367.886 41.456C367.689 40.9333 367.59 40.3387 367.59 39.672C367.59 38.6533 367.811 37.824 368.254 37.184C368.702 36.5387 369.377 36.216 370.278 36.216C370.897 36.216 371.406 36.368 371.806 36.672C372.211 36.976 372.513 37.3893 372.71 37.912C372.907 38.4347 373.006 39.0213 373.006 39.672C373.006 40.328 372.905 40.9173 372.702 41.44C372.505 41.9627 372.206 42.3787 371.806 42.688C371.406 42.992 370.905 43.144 370.302 43.144ZM379.619 44.24C380.472 44.24 381.203 44.048 381.811 43.664C382.424 43.28 382.893 42.7467 383.219 42.064C383.549 41.376 383.715 40.5787 383.715 39.672C383.715 38.7813 383.552 37.9947 383.227 37.312C382.907 36.624 382.44 36.088 381.827 35.704C381.219 35.3147 380.483 35.12 379.619 35.12C378.776 35.12 378.048 35.312 377.435 35.696C376.827 36.0747 376.357 36.6053 376.027 37.288C375.696 37.9707 375.531 38.7653 375.531 39.672C375.531 40.5627 375.691 41.352 376.011 42.04C376.336 42.728 376.803 43.2667 377.411 43.656C378.024 44.0453 378.76 44.24 379.619 44.24ZM379.619 43.112C378.685 43.112 377.979 42.8 377.499 42.176C377.019 41.5467 376.779 40.712 376.779 39.672C376.779 38.664 377.011 37.8427 377.475 37.208C377.939 36.568 378.653 36.248 379.619 36.248C380.573 36.248 381.285 36.56 381.755 37.184C382.229 37.8027 382.467 38.632 382.467 39.672C382.467 40.6907 382.232 41.52 381.763 42.16C381.293 42.7947 380.579 43.112 379.619 43.112ZM385.479 44H386.655V39.688C386.655 39.1707 386.714 38.656 386.831 38.144C386.954 37.6267 387.231 37.1973 387.663 36.856C387.978 36.6 388.319 36.4533 388.687 36.416C389.061 36.3733 389.407 36.3893 389.727 36.464V35.36C389.349 35.264 388.919 35.2613 388.439 35.352C387.959 35.4373 387.549 35.6293 387.207 35.928C386.951 36.12 386.727 36.3867 386.535 36.728V35.36H385.479V44ZM391.245 44H392.421V39.688C392.421 39.1707 392.48 38.656 392.597 38.144C392.72 37.6267 392.997 37.1973 393.429 36.856C393.744 36.6 394.085 36.4533 394.453 36.416C394.826 36.3733 395.173 36.3893 395.493 36.464V35.36C395.114 35.264 394.685 35.2613 394.205 35.352C393.725 35.4373 393.314 35.6293 392.973 35.928C392.717 36.12 392.493 36.3867 392.301 36.728V35.36H391.245V44ZM400.462 44.24C401.316 44.24 402.046 44.048 402.654 43.664C403.268 43.28 403.737 42.7467 404.062 42.064C404.393 41.376 404.558 40.5787 404.558 39.672C404.558 38.7813 404.396 37.9947 404.07 37.312C403.75 36.624 403.284 36.088 402.67 35.704C402.062 35.3147 401.326 35.12 400.462 35.12C399.62 35.12 398.892 35.312 398.278 35.696C397.67 36.0747 397.201 36.6053 396.87 37.288C396.54 37.9707 396.374 38.7653 396.374 39.672C396.374 40.5627 396.534 41.352 396.854 42.04C397.18 42.728 397.646 43.2667 398.254 43.656C398.868 44.0453 399.604 44.24 400.462 44.24ZM400.462 43.112C399.529 43.112 398.822 42.8 398.342 42.176C397.862 41.5467 397.622 40.712 397.622 39.672C397.622 38.664 397.854 37.8427 398.318 37.208C398.782 36.568 399.497 36.248 400.462 36.248C401.417 36.248 402.129 36.56 402.598 37.184C403.073 37.8027 403.31 38.632 403.31 39.672C403.31 40.6907 403.076 41.52 402.606 42.16C402.137 42.7947 401.422 43.112 400.462 43.112ZM407.851 44H408.875L411.027 37.12L413.187 44H414.211L416.851 35.36H415.683L413.619 42.072L411.563 35.36H410.491L408.435 42.072L406.387 35.36L405.211 35.352L407.851 44Z" fill="#F78774"></path> <path d="M420.695 44H421.919L422.879 41.208H427.999L428.967 44H430.191L426.223 32.48H424.663L420.695 44ZM423.263 40.104L425.431 33.808L427.615 40.104H423.263ZM431.414 44H432.638L433.598 41.208H438.718L439.686 44H440.91L436.942 32.48H435.382L431.414 44ZM433.982 40.104L436.15 33.808L438.334 40.104H433.982ZM444.157 44H445.717L449.685 32.48H448.461L444.925 42.664L441.413 32.48H440.189L444.157 44ZM450.886 44H458.086V42.872H452.062V38.72H457.126V37.592H452.062V33.608H458.086V32.48H450.886V44ZM295.581 72.24C296.211 72.24 296.763 72.112 297.237 71.856C297.712 71.5947 298.104 71.24 298.413 70.792V72H299.469V60.48H298.285V64.376C297.971 63.9813 297.581 63.6747 297.117 63.456C296.659 63.232 296.131 63.12 295.533 63.12C294.744 63.12 294.067 63.32 293.501 63.72C292.936 64.12 292.501 64.664 292.197 65.352C291.899 66.04 291.749 66.8133 291.749 67.672C291.749 68.536 291.899 69.312 292.197 70C292.501 70.688 292.939 71.2347 293.509 71.64C294.085 72.04 294.776 72.24 295.581 72.24ZM295.701 71.144C295.104 71.144 294.603 70.992 294.197 70.688C293.797 70.3787 293.496 69.9627 293.293 69.44C293.096 68.9173 292.997 68.328 292.997 67.672C292.997 67.0213 293.096 66.4347 293.293 65.912C293.491 65.3893 293.789 64.976 294.189 64.672C294.595 64.368 295.107 64.216 295.725 64.216C296.627 64.216 297.299 64.5387 297.741 65.184C298.189 65.824 298.413 66.6533 298.413 67.672C298.413 68.3387 298.315 68.9333 298.117 69.456C297.92 69.9787 297.621 70.392 297.221 70.696C296.821 70.9947 296.315 71.144 295.701 71.144ZM306.21 72.24C307.09 72.24 307.866 72.0587 308.538 71.696C309.215 71.328 309.746 70.8133 310.13 70.152C310.514 69.4907 310.706 68.72 310.706 67.84V60.48H309.522V67.688C309.522 68.2853 309.42 68.8027 309.218 69.24C309.02 69.672 308.756 70.0293 308.426 70.312C308.1 70.5893 307.743 70.7947 307.354 70.928C306.964 71.0613 306.583 71.128 306.21 71.128C305.842 71.128 305.463 71.0613 305.074 70.928C304.684 70.7947 304.324 70.5893 303.994 70.312C303.668 70.0293 303.404 69.672 303.202 69.24C302.999 68.8027 302.898 68.2853 302.898 67.688V60.48L301.714 60.488V67.84C301.714 68.7253 301.906 69.4987 302.29 70.16C302.674 70.8213 303.204 71.3333 303.882 71.696C304.559 72.0587 305.335 72.24 306.21 72.24ZM316.464 72.24C317.269 72.24 317.986 72.1067 318.616 71.84C319.25 71.5733 319.752 71.1893 320.12 70.688C320.488 70.1813 320.672 69.5707 320.672 68.856C320.672 68.312 320.57 67.8613 320.368 67.504C320.17 67.1413 319.92 66.8507 319.616 66.632C319.317 66.408 319.01 66.2373 318.696 66.12C318.381 65.9973 318.106 65.904 317.872 65.84L315.616 65.176C315.317 65.0907 315.008 64.9813 314.688 64.848C314.373 64.7147 314.106 64.5307 313.888 64.296C313.674 64.0613 313.568 63.7493 313.568 63.36C313.568 62.976 313.685 62.6347 313.92 62.336C314.154 62.032 314.474 61.7947 314.88 61.624C315.285 61.448 315.744 61.3627 316.256 61.368C317.061 61.3733 317.752 61.6 318.328 62.048C318.909 62.4907 319.258 63.0853 319.376 63.832L320.608 63.608C320.421 62.5733 319.938 61.7573 319.16 61.16C318.381 60.5573 317.416 60.2533 316.264 60.248C315.506 60.2427 314.832 60.3707 314.24 60.632C313.648 60.888 313.181 61.2533 312.84 61.728C312.498 62.1973 312.328 62.7573 312.328 63.408C312.328 64.1813 312.56 64.784 313.024 65.216C313.493 65.6427 314.08 65.96 314.784 66.168L317.704 67.04C317.97 67.12 318.24 67.2293 318.512 67.368C318.784 67.5067 319.01 67.6987 319.192 67.944C319.378 68.1893 319.472 68.5093 319.472 68.904C319.472 69.3573 319.344 69.7493 319.088 70.08C318.832 70.4107 318.48 70.6667 318.032 70.848C317.589 71.024 317.082 71.112 316.512 71.112C315.653 71.112 314.914 70.9013 314.296 70.48C313.677 70.0533 313.272 69.4667 313.08 68.72L311.88 68.92C312.013 69.6027 312.288 70.192 312.704 70.688C313.12 71.184 313.648 71.568 314.288 71.84C314.933 72.1067 315.658 72.24 316.464 72.24ZM322.323 72H325.819C325.931 72 326.139 71.9973 326.443 71.992C326.747 71.9867 327.032 71.9653 327.299 71.928C328.174 71.8053 328.904 71.4827 329.491 70.96C330.078 70.432 330.518 69.76 330.811 68.944C331.104 68.1227 331.251 67.2213 331.251 66.24C331.251 65.2587 331.104 64.36 330.811 63.544C330.518 62.728 330.078 62.056 329.491 61.528C328.904 60.9947 328.174 60.6693 327.299 60.552C327.022 60.5147 326.736 60.4933 326.443 60.488C326.15 60.4827 325.942 60.48 325.819 60.48H322.323V72ZM323.539 70.872V61.608H325.819C326.027 61.608 326.259 61.616 326.515 61.632C326.776 61.6427 326.998 61.6667 327.179 61.704C327.846 61.8213 328.387 62.0933 328.803 62.52C329.219 62.9413 329.523 63.472 329.715 64.112C329.907 64.752 330.003 65.4613 330.003 66.24C330.003 67.0027 329.907 67.7067 329.715 68.352C329.528 68.9973 329.227 69.5333 328.811 69.96C328.395 70.3867 327.851 70.6587 327.179 70.776C326.998 70.8133 326.779 70.84 326.523 70.856C326.272 70.8667 326.038 70.872 325.819 70.872H323.539ZM337.737 72.24C339.076 72.24 340.169 71.8987 341.017 71.216C341.865 70.528 342.446 69.608 342.761 68.456L341.561 68.144C341.316 69.0507 340.876 69.7733 340.241 70.312C339.606 70.8453 338.772 71.112 337.737 71.112C336.836 71.112 336.081 70.9067 335.473 70.496C334.87 70.08 334.417 69.5067 334.113 68.776C333.814 68.0453 333.668 67.2 333.673 66.24C333.684 65.28 333.838 64.4347 334.137 63.704C334.436 62.968 334.884 62.3947 335.481 61.984C336.084 61.5733 336.836 61.368 337.737 61.368C338.772 61.368 339.606 61.6373 340.241 62.176C340.876 62.7093 341.316 63.4293 341.561 64.336L342.761 64.024C342.446 62.872 341.865 61.9547 341.017 61.272C340.169 60.584 339.076 60.24 337.737 60.24C336.59 60.24 335.622 60.4933 334.833 61C334.044 61.5067 333.446 62.2107 333.041 63.112C332.636 64.0133 332.433 65.056 332.433 66.24C332.433 67.4187 332.636 68.4613 333.041 69.368C333.446 70.2693 334.044 70.9733 334.833 71.48C335.622 71.9867 336.59 72.24 337.737 72.24Z" fill="#0B7B95"></path> <path d="M225.12 72H228.616C228.728 72 228.936 71.9973 229.24 71.992C229.544 71.9867 229.829 71.9653 230.096 71.928C230.971 71.8053 231.701 71.4827 232.288 70.96C232.875 70.432 233.315 69.76 233.608 68.944C233.901 68.1227 234.048 67.2213 234.048 66.24C234.048 65.2587 233.901 64.36 233.608 63.544C233.315 62.728 232.875 62.056 232.288 61.528C231.701 60.9947 230.971 60.6693 230.096 60.552C229.819 60.5147 229.533 60.4933 229.24 60.488C228.947 60.4827 228.739 60.48 228.616 60.48H225.12V72ZM226.336 70.872V61.608H228.616C228.824 61.608 229.056 61.616 229.312 61.632C229.573 61.6427 229.795 61.6667 229.976 61.704C230.643 61.8213 231.184 62.0933 231.6 62.52C232.016 62.9413 232.32 63.472 232.512 64.112C232.704 64.752 232.8 65.4613 232.8 66.24C232.8 67.0027 232.704 67.7067 232.512 68.352C232.325 68.9973 232.024 69.5333 231.608 69.96C231.192 70.3867 230.648 70.6587 229.976 70.776C229.795 70.8133 229.576 70.84 229.32 70.856C229.069 70.8667 228.835 70.872 228.616 70.872H226.336ZM235.87 72H237.046V66.824H241.526V65.656H237.046V61.656H242.486V60.48H235.87V72ZM248.597 72.24C249.749 72.24 250.719 71.9867 251.509 71.48C252.298 70.9733 252.895 70.2693 253.301 69.368C253.706 68.4613 253.909 67.4187 253.909 66.24C253.909 65.056 253.706 64.0133 253.301 63.112C252.895 62.2107 252.298 61.5067 251.509 61C250.719 60.4933 249.749 60.24 248.597 60.24C247.45 60.24 246.482 60.4933 245.693 61C244.903 61.5067 244.306 62.2107 243.901 63.112C243.495 64.0133 243.293 65.056 243.293 66.24C243.293 67.4187 243.495 68.4613 243.901 69.368C244.306 70.2693 244.903 70.9733 245.693 71.48C246.482 71.9867 247.45 72.24 248.597 72.24ZM248.597 71.112C247.695 71.1067 246.941 70.8987 246.333 70.488C245.73 70.0773 245.279 69.5067 244.981 68.776C244.682 68.0453 244.535 67.2 244.541 66.24C244.551 65.28 244.706 64.4347 245.005 63.704C245.303 62.968 245.751 62.3947 246.349 61.984C246.946 61.568 247.695 61.3627 248.597 61.368C249.498 61.3733 250.25 61.5813 250.852 61.992C251.455 62.4027 251.906 62.9733 252.205 63.704C252.509 64.4347 252.661 65.28 252.661 66.24C252.661 67.2 252.509 68.048 252.205 68.784C251.906 69.5147 251.455 70.0853 250.852 70.496C250.25 70.9067 249.498 71.112 248.597 71.112ZM255.511 72H256.687V67.624H260.367L262.487 72H263.839L261.567 67.336C262.212 67.0747 262.708 66.6507 263.055 66.064C263.401 65.4773 263.575 64.808 263.575 64.056C263.575 63.1547 263.332 62.3787 262.847 61.728C262.361 61.0773 261.668 60.6827 260.767 60.544C260.623 60.5173 260.479 60.5013 260.335 60.496C260.196 60.4853 260.071 60.48 259.959 60.48H255.511V72ZM256.687 66.504V61.608H259.927C260.023 61.608 260.135 61.6133 260.263 61.624C260.396 61.6293 260.521 61.6453 260.639 61.672C261.231 61.8 261.665 62.096 261.943 62.56C262.225 63.0187 262.367 63.5173 262.367 64.056C262.367 64.5893 262.225 65.088 261.943 65.552C261.665 66.016 261.231 66.3093 260.639 66.432C260.521 66.4587 260.396 66.4773 260.263 66.488C260.135 66.4987 260.023 66.504 259.927 66.504H256.687ZM270.112 72.24C271.451 72.24 272.544 71.8987 273.392 71.216C274.24 70.528 274.821 69.608 275.136 68.456L273.936 68.144C273.691 69.0507 273.251 69.7733 272.616 70.312C271.981 70.8453 271.147 71.112 270.112 71.112C269.211 71.112 268.456 70.9067 267.848 70.496C267.245 70.08 266.792 69.5067 266.488 68.776C266.189 68.0453 266.043 67.2 266.048 66.24C266.059 65.28 266.213 64.4347 266.512 63.704C266.811 62.968 267.259 62.3947 267.856 61.984C268.459 61.5733 269.211 61.368 270.112 61.368C271.147 61.368 271.981 61.6373 272.616 62.176C273.251 62.7093 273.691 63.4293 273.936 64.336L275.136 64.024C274.821 62.872 274.24 61.9547 273.392 61.272C272.544 60.584 271.451 60.24 270.112 60.24C268.965 60.24 267.997 60.4933 267.208 61C266.419 61.5067 265.821 62.2107 265.416 63.112C265.011 64.0133 264.808 65.056 264.808 66.24C264.808 67.4187 265.011 68.4613 265.416 69.368C265.821 70.2693 266.419 70.9733 267.208 71.48C267.997 71.9867 268.965 72.24 270.112 72.24ZM276.901 72H284.101V70.872H278.077V66.72H283.141V65.592H278.077V61.608H284.101V60.48H276.901V72Z" fill="#B6708E"></path> <path d="M225.112 124H226.296V119.392C226.296 118.416 226.515 117.651 226.952 117.096C227.389 116.541 228.024 116.264 228.856 116.264C229.459 116.264 229.944 116.411 230.312 116.704C230.68 116.992 230.947 117.387 231.112 117.888C231.277 118.389 231.36 118.957 231.36 119.592V124H232.544V119.248C232.544 118.763 232.483 118.277 232.36 117.792C232.243 117.307 232.051 116.864 231.784 116.464C231.517 116.064 231.163 115.744 230.72 115.504C230.277 115.264 229.731 115.144 229.08 115.144C228.461 115.144 227.901 115.264 227.4 115.504C226.904 115.739 226.496 116.091 226.176 116.56V115.36H225.112V124ZM238.166 124.24C239.019 124.24 239.75 124.048 240.358 123.664C240.971 123.28 241.44 122.747 241.766 122.064C242.096 121.376 242.262 120.579 242.262 119.672C242.262 118.781 242.099 117.995 241.774 117.312C241.454 116.624 240.987 116.088 240.374 115.704C239.766 115.315 239.03 115.12 238.166 115.12C237.323 115.12 236.595 115.312 235.982 115.696C235.374 116.075 234.904 116.605 234.574 117.288C234.243 117.971 234.078 118.765 234.078 119.672C234.078 120.563 234.238 121.352 234.558 122.04C234.883 122.728 235.35 123.267 235.958 123.656C236.571 124.045 237.307 124.24 238.166 124.24ZM238.166 123.112C237.232 123.112 236.526 122.8 236.046 122.176C235.566 121.547 235.326 120.712 235.326 119.672C235.326 118.664 235.558 117.843 236.022 117.208C236.486 116.568 237.2 116.248 238.166 116.248C239.12 116.248 239.832 116.56 240.302 117.184C240.776 117.803 241.014 118.632 241.014 119.672C241.014 120.691 240.779 121.52 240.31 122.16C239.84 122.795 239.126 123.112 238.166 123.112ZM248.73 124V122.968C248.112 123.069 247.592 123.085 247.17 123.016C246.754 122.947 246.45 122.733 246.258 122.376C246.157 122.189 246.101 121.976 246.09 121.736C246.085 121.491 246.082 121.187 246.082 120.824V116.368H248.73V115.36H246.082V112.96H244.914V115.36H243.066V116.368H244.914V120.872C244.914 121.293 244.92 121.669 244.93 122C244.946 122.331 245.032 122.653 245.186 122.968C245.378 123.352 245.658 123.635 246.026 123.816C246.4 123.997 246.821 124.099 247.29 124.12C247.765 124.141 248.245 124.101 248.73 124ZM257.22 124.24C258.078 124.24 258.814 124.04 259.428 123.64C260.046 123.235 260.518 122.648 260.844 121.88L259.66 121.528C259.222 122.584 258.409 123.112 257.22 123.112C256.292 123.112 255.593 122.8 255.124 122.176C254.654 121.547 254.414 120.715 254.404 119.68C254.414 118.672 254.646 117.848 255.1 117.208C255.558 116.568 256.265 116.248 257.22 116.248C257.785 116.248 258.286 116.392 258.724 116.68C259.166 116.963 259.489 117.363 259.692 117.88L260.844 117.512C260.604 116.771 260.158 116.187 259.508 115.76C258.862 115.333 258.102 115.12 257.228 115.12C256.369 115.12 255.638 115.312 255.036 115.696C254.433 116.075 253.972 116.608 253.652 117.296C253.332 117.979 253.166 118.773 253.156 119.68C253.166 120.565 253.326 121.352 253.636 122.04C253.95 122.728 254.409 123.267 255.012 123.656C255.614 124.045 256.35 124.24 257.22 124.24ZM265.869 124.24C266.722 124.24 267.453 124.048 268.061 123.664C268.674 123.28 269.143 122.747 269.469 122.064C269.799 121.376 269.965 120.579 269.965 119.672C269.965 118.781 269.802 117.995 269.477 117.312C269.157 116.624 268.69 116.088 268.077 115.704C267.469 115.315 266.733 115.12 265.869 115.12C265.026 115.12 264.298 115.312 263.685 115.696C263.077 116.075 262.607 116.605 262.277 117.288C261.946 117.971 261.781 118.765 261.781 119.672C261.781 120.563 261.941 121.352 262.261 122.04C262.586 122.728 263.053 123.267 263.661 123.656C264.274 124.045 265.01 124.24 265.869 124.24ZM265.869 123.112C264.935 123.112 264.229 122.8 263.749 122.176C263.269 121.547 263.029 120.712 263.029 119.672C263.029 118.664 263.261 117.843 263.725 117.208C264.189 116.568 264.903 116.248 265.869 116.248C266.823 116.248 267.535 116.56 268.005 117.184C268.479 117.803 268.717 118.632 268.717 119.672C268.717 120.691 268.482 121.52 268.013 122.16C267.543 122.795 266.829 123.112 265.869 123.112ZM271.721 124H272.905V118.424C272.905 117.747 273.089 117.205 273.457 116.8C273.825 116.389 274.308 116.184 274.905 116.184C275.503 116.184 275.983 116.384 276.345 116.784C276.713 117.179 276.897 117.72 276.897 118.408L276.889 124H278.049L278.057 118.424C278.057 117.885 278.156 117.453 278.353 117.128C278.556 116.797 278.812 116.557 279.121 116.408C279.431 116.259 279.748 116.184 280.073 116.184C280.644 116.184 281.113 116.376 281.481 116.76C281.855 117.139 282.041 117.661 282.041 118.328L282.033 124H283.209L283.217 118.104C283.217 117.192 282.956 116.469 282.433 115.936C281.916 115.397 281.22 115.128 280.345 115.128C279.769 115.128 279.252 115.259 278.793 115.52C278.335 115.776 277.98 116.131 277.729 116.584C277.495 116.109 277.156 115.749 276.713 115.504C276.276 115.253 275.775 115.128 275.209 115.128C274.697 115.128 274.231 115.232 273.809 115.44C273.388 115.643 273.044 115.92 272.777 116.272V115.36H271.721V124ZM285.284 124H286.468V118.424C286.468 117.747 286.652 117.205 287.02 116.8C287.388 116.389 287.871 116.184 288.468 116.184C289.065 116.184 289.545 116.384 289.908 116.784C290.276 117.179 290.46 117.72 290.46 118.408L290.452 124H291.612L291.62 118.424C291.62 117.885 291.719 117.453 291.916 117.128C292.119 116.797 292.375 116.557 292.684 116.408C292.993 116.259 293.311 116.184 293.636 116.184C294.207 116.184 294.676 116.376 295.044 116.76C295.417 117.139 295.604 117.661 295.604 118.328L295.596 124H296.772L296.78 118.104C296.78 117.192 296.519 116.469 295.996 115.936C295.479 115.397 294.783 115.128 293.908 115.128C293.332 115.128 292.815 115.259 292.356 115.52C291.897 115.776 291.543 116.131 291.292 116.584C291.057 116.109 290.719 115.749 290.276 115.504C289.839 115.253 289.337 115.128 288.772 115.128C288.26 115.128 287.793 115.232 287.372 115.44C286.951 115.643 286.607 115.92 286.34 116.272V115.36H285.284V124ZM302.4 124.24C303.253 124.24 303.984 124.048 304.592 123.664C305.205 123.28 305.675 122.747 306 122.064C306.331 121.376 306.496 120.579 306.496 119.672C306.496 118.781 306.333 117.995 306.008 117.312C305.688 116.624 305.221 116.088 304.608 115.704C304 115.315 303.264 115.12 302.4 115.12C301.557 115.12 300.829 115.312 300.216 115.696C299.608 116.075 299.139 116.605 298.808 117.288C298.477 117.971 298.312 118.765 298.312 119.672C298.312 120.563 298.472 121.352 298.792 122.04C299.117 122.728 299.584 123.267 300.192 123.656C300.805 124.045 301.541 124.24 302.4 124.24ZM302.4 123.112C301.467 123.112 300.76 122.8 300.28 122.176C299.8 121.547 299.56 120.712 299.56 119.672C299.56 118.664 299.792 117.843 300.256 117.208C300.72 116.568 301.435 116.248 302.4 116.248C303.355 116.248 304.067 116.56 304.536 117.184C305.011 117.803 305.248 118.632 305.248 119.672C305.248 120.691 305.013 121.52 304.544 122.16C304.075 122.795 303.36 123.112 302.4 123.112ZM308.253 124H309.437V119.392C309.437 118.416 309.655 117.651 310.093 117.096C310.53 116.541 311.165 116.264 311.997 116.264C312.599 116.264 313.085 116.411 313.453 116.704C313.821 116.992 314.087 117.387 314.253 117.888C314.418 118.389 314.501 118.957 314.501 119.592V124H315.685V119.248C315.685 118.763 315.623 118.277 315.501 117.792C315.383 117.307 315.191 116.864 314.925 116.464C314.658 116.064 314.303 115.744 313.861 115.504C313.418 115.264 312.871 115.144 312.221 115.144C311.602 115.144 311.042 115.264 310.541 115.504C310.045 115.739 309.637 116.091 309.317 116.56V115.36H308.253V124Z" fill="white"></path> <path d="M229.064 179.488H230.016V178.36H229.112C228.883 178.36 228.688 178.28 228.528 178.12C228.368 177.96 228.288 177.768 228.288 177.544V172.376C228.288 171.965 228.168 171.592 227.928 171.256L227.488 170.64L227.928 170.024C228.168 169.688 228.288 169.315 228.288 168.904V163.752C228.288 163.517 228.368 163.32 228.528 163.16C228.688 163 228.883 162.92 229.112 162.92H230.016V161.792H229.064C228.509 161.792 228.053 161.971 227.696 162.328C227.339 162.685 227.16 163.141 227.16 163.696V168.904C227.16 169.059 227.112 169.213 227.016 169.368L226.336 170.32C226.187 170.533 226.187 170.747 226.336 170.96L227.016 171.912C227.112 172.061 227.16 172.216 227.16 172.376V177.592C227.16 178.141 227.339 178.595 227.696 178.952C228.053 179.309 228.509 179.488 229.064 179.488ZM257.601 171.464H262.401V170.456H257.601V171.464ZM308.913 171.464H313.713V170.456H308.913V171.464ZM367.184 174.712L366.432 173.976L369.488 170.96L366.432 167.944L367.184 167.208L370.936 170.96L367.184 174.712ZM418.923 164.48H420.131L417.059 176H415.851L418.923 164.48ZM430.944 171.464H435.744V170.456H430.944V171.464ZM463.585 171.464H468.385V170.456H463.585V171.464ZM514.898 171.464H519.698V170.456H514.898V171.464Z" fill="#949494"></path> <path d="M236.335 176.24C237.215 176.24 237.991 176.059 238.663 175.696C239.34 175.328 239.871 174.813 240.255 174.152C240.639 173.491 240.831 172.72 240.831 171.84V164.48H239.647V171.688C239.647 172.285 239.545 172.803 239.343 173.24C239.145 173.672 238.881 174.029 238.551 174.312C238.225 174.589 237.868 174.795 237.479 174.928C237.089 175.061 236.708 175.128 236.335 175.128C235.967 175.128 235.588 175.061 235.199 174.928C234.809 174.795 234.449 174.589 234.119 174.312C233.793 174.029 233.529 173.672 233.327 173.24C233.124 172.803 233.023 172.285 233.023 171.688V164.48L231.839 164.488V171.84C231.839 172.725 232.031 173.499 232.415 174.16C232.799 174.821 233.329 175.333 234.007 175.696C234.684 176.059 235.46 176.24 236.335 176.24ZM243.073 176H244.257V166.552L250.601 176H251.785V164.48H250.601V173.92L244.257 164.48H243.073V176ZM254.186 176H255.362V164.48H254.186V176ZM424.686 176.24C426.195 176.24 427.291 175.683 427.974 174.568V176H429.022V170.632C429.022 170.312 429.006 169.997 428.974 169.688C428.942 169.379 428.872 169.099 428.766 168.848C428.536 168.288 428.144 167.861 427.59 167.568C427.04 167.269 426.371 167.12 425.582 167.12C424.632 167.12 423.859 167.333 423.262 167.76C422.664 168.187 422.264 168.787 422.062 169.56L423.206 169.896C423.371 169.32 423.656 168.899 424.062 168.632C424.472 168.365 424.974 168.232 425.566 168.232C426.387 168.232 426.974 168.424 427.326 168.808C427.678 169.187 427.859 169.765 427.87 170.544C427.486 170.597 427.062 170.653 426.598 170.712C426.139 170.771 425.678 170.837 425.214 170.912C424.75 170.987 424.323 171.072 423.934 171.168C423.288 171.339 422.76 171.624 422.35 172.024C421.939 172.419 421.734 172.971 421.734 173.68C421.734 174.139 421.843 174.563 422.062 174.952C422.28 175.341 422.608 175.653 423.046 175.888C423.488 176.123 424.035 176.24 424.686 176.24ZM424.822 175.224C424.358 175.224 423.984 175.149 423.702 175C423.424 174.845 423.222 174.651 423.094 174.416C422.971 174.176 422.91 173.931 422.91 173.68C422.91 173.211 423.067 172.859 423.382 172.624C423.696 172.389 424.038 172.219 424.406 172.112C424.88 171.984 425.432 171.88 426.062 171.8C426.691 171.72 427.288 171.645 427.854 171.576C427.854 171.773 427.846 172 427.83 172.256C427.819 172.507 427.79 172.739 427.742 172.952C427.63 173.603 427.32 174.144 426.814 174.576C426.312 175.008 425.648 175.224 424.822 175.224Z" fill="#C66C5D"></path> <path d="M266.951 176H268.135L270.839 166.552L273.559 176H274.743L278.063 164.48H276.831L274.151 173.992L271.455 164.48L270.223 164.488L267.543 173.992L264.847 164.48H263.623L266.951 176ZM279.448 176H286.648V174.872H280.624V170.72H285.688V169.592H280.624V165.608H286.648V164.48H279.448V176ZM291.637 176H292.813V165.608H296.837V164.48H287.613V165.608H291.637V176ZM298.12 176H299.296V170.8H305.664V176H306.832V164.48H305.664V169.672H299.296V164.48H298.12V176ZM472.936 176H474.12L476.824 166.552L479.544 176H480.728L484.048 164.48H482.816L480.136 173.992L477.44 164.48L476.208 164.488L473.528 173.992L470.832 164.48H469.608L472.936 176ZM485.433 176H492.633V174.872H486.609V170.72H491.673V169.592H486.609V165.608H492.633V164.48H485.433V176ZM497.622 176H498.798V165.608H502.822V164.48H493.598V165.608H497.622V176ZM504.104 176H505.28V170.8H511.648V176H512.816V164.48H511.648V169.672H505.28V164.48H504.104V176Z" fill="#0B7B95"></path> <path d="M318.264 176H319.448L322.152 166.552L324.872 176H326.056L329.376 164.48H328.144L325.464 173.992L322.768 164.48L321.536 164.488L318.856 173.992L316.16 164.48H314.936L318.264 176ZM330.761 176H335.577C336.595 176 337.417 175.712 338.041 175.136C338.665 174.555 338.977 173.765 338.977 172.768C338.977 172.101 338.806 171.52 338.465 171.024C338.129 170.528 337.662 170.149 337.065 169.888C337.481 169.648 337.809 169.315 338.049 168.888C338.294 168.456 338.417 167.976 338.417 167.448C338.417 166.904 338.283 166.408 338.017 165.96C337.75 165.507 337.377 165.147 336.897 164.88C336.417 164.613 335.854 164.48 335.209 164.48H330.761V176ZM331.945 169.392V165.592H335.201C335.782 165.592 336.259 165.763 336.633 166.104C337.011 166.445 337.201 166.888 337.201 167.432C337.201 168.008 337.006 168.48 336.617 168.848C336.227 169.211 335.755 169.392 335.201 169.392H331.945ZM331.945 174.872V170.504H335.505C335.937 170.504 336.323 170.605 336.665 170.808C337.006 171.011 337.273 171.285 337.465 171.632C337.662 171.973 337.761 172.357 337.761 172.784C337.761 173.44 337.523 173.952 337.049 174.32C336.574 174.688 335.987 174.872 335.289 174.872H331.945ZM343.325 176H344.501V165.608H348.525V164.48H339.301V165.608H343.325V176ZM354.472 176.24C355.81 176.24 356.904 175.899 357.752 175.216C358.6 174.528 359.181 173.608 359.496 172.456L358.296 172.144C358.05 173.051 357.61 173.773 356.976 174.312C356.341 174.845 355.506 175.112 354.472 175.112C353.57 175.112 352.816 174.907 352.208 174.496C351.605 174.08 351.152 173.507 350.848 172.776C350.549 172.045 350.402 171.2 350.408 170.24C350.418 169.28 350.573 168.435 350.872 167.704C351.17 166.968 351.618 166.395 352.216 165.984C352.818 165.573 353.57 165.368 354.472 165.368C355.506 165.368 356.341 165.637 356.976 166.176C357.61 166.709 358.05 167.429 358.296 168.336L359.496 168.024C359.181 166.872 358.6 165.955 357.752 165.272C356.904 164.584 355.81 164.24 354.472 164.24C353.325 164.24 352.357 164.493 351.568 165C350.778 165.507 350.181 166.211 349.776 167.112C349.37 168.013 349.168 169.056 349.168 170.24C349.168 171.419 349.37 172.461 349.776 173.368C350.181 174.269 350.778 174.973 351.568 175.48C352.357 175.987 353.325 176.24 354.472 176.24ZM524.248 176H525.432L528.136 166.552L530.856 176H532.04L535.36 164.48H534.128L531.448 173.992L528.752 164.48L527.52 164.488L524.84 173.992L522.144 164.48H520.92L524.248 176ZM536.745 176H541.561C542.58 176 543.401 175.712 544.025 175.136C544.649 174.555 544.961 173.765 544.961 172.768C544.961 172.101 544.79 171.52 544.449 171.024C544.113 170.528 543.646 170.149 543.049 169.888C543.465 169.648 543.793 169.315 544.033 168.888C544.278 168.456 544.401 167.976 544.401 167.448C544.401 166.904 544.268 166.408 544.001 165.96C543.734 165.507 543.361 165.147 542.881 164.88C542.401 164.613 541.838 164.48 541.193 164.48H536.745V176ZM537.929 169.392V165.592H541.185C541.766 165.592 542.244 165.763 542.617 166.104C542.996 166.445 543.185 166.888 543.185 167.432C543.185 168.008 542.99 168.48 542.601 168.848C542.212 169.211 541.74 169.392 541.185 169.392H537.929ZM537.929 174.872V170.504H541.489C541.921 170.504 542.308 170.605 542.649 170.808C542.99 171.011 543.257 171.285 543.449 171.632C543.646 171.973 543.745 172.357 543.745 172.784C543.745 173.44 543.508 173.952 543.033 174.32C542.558 174.688 541.972 174.872 541.273 174.872H537.929Z" fill="#FFB33D"></path> <path d="M546.782 176H548.15V174.632H546.782V176ZM550.844 176H552.212V174.632H550.844V176ZM554.907 176H556.275V174.632H554.907V176Z" fill="white"></path> <path d="M376.695 176H377.919L378.879 173.208H383.999L384.967 176H386.191L382.223 164.48H380.663L376.695 176ZM379.263 172.104L381.431 165.808L383.615 172.104H379.263ZM387.414 176H388.638L389.598 173.208H394.718L395.686 176H396.91L392.942 164.48H391.382L387.414 176ZM389.982 172.104L392.15 165.808L394.334 172.104H389.982ZM400.157 176H401.717L405.685 164.48H404.461L400.925 174.664L397.413 164.48H396.189L400.157 176ZM406.886 176H414.086V174.872H408.062V170.72H413.126V169.592H408.062V165.608H414.086V164.48H406.886V176Z" fill="#B597A4"></path> <path d="M442.319 176.24C443.199 176.24 443.975 176.059 444.647 175.696C445.324 175.328 445.855 174.813 446.239 174.152C446.623 173.491 446.815 172.72 446.815 171.84V164.48H445.631V171.688C445.631 172.285 445.53 172.803 445.327 173.24C445.13 173.672 444.866 174.029 444.535 174.312C444.21 174.589 443.852 174.795 443.463 174.928C443.074 175.061 442.692 175.128 442.319 175.128C441.951 175.128 441.572 175.061 441.183 174.928C440.794 174.795 440.434 174.589 440.103 174.312C439.778 174.029 439.514 173.672 439.311 173.24C439.108 172.803 439.007 172.285 439.007 171.688V164.48L437.823 164.488V171.84C437.823 172.725 438.015 173.499 438.399 174.16C438.783 174.821 439.314 175.333 439.991 175.696C440.668 176.059 441.444 176.24 442.319 176.24ZM449.058 176H450.242V166.552L456.586 176H457.77V164.48H456.586V173.92L450.242 164.48H449.058V176ZM460.171 176H461.347V164.48H460.171V176Z" fill="#B46558"></path> <path d="M229.064 231.488H230.016V230.36H229.112C228.883 230.36 228.688 230.28 228.528 230.12C228.368 229.96 228.288 229.768 228.288 229.544V224.376C228.288 223.965 228.168 223.592 227.928 223.256L227.488 222.64L227.928 222.024C228.168 221.688 228.288 221.315 228.288 220.904V215.752C228.288 215.517 228.368 215.32 228.528 215.16C228.688 215 228.883 214.92 229.112 214.92H230.016V213.792H229.064C228.509 213.792 228.053 213.971 227.696 214.328C227.339 214.685 227.16 215.141 227.16 215.696V220.904C227.16 221.059 227.112 221.213 227.016 221.368L226.336 222.32C226.187 222.533 226.187 222.747 226.336 222.96L227.016 223.912C227.112 224.061 227.16 224.216 227.16 224.376V229.592C227.16 230.141 227.339 230.595 227.696 230.952C228.053 231.309 228.509 231.488 229.064 231.488ZM268.965 226.712L268.213 225.976L271.269 222.96L268.213 219.944L268.965 219.208L272.717 222.96L268.965 226.712ZM320.704 216.48H321.912L318.84 228H317.632L320.704 216.48ZM370.012 226.712L369.26 225.976L372.316 222.96L369.26 219.944L370.012 219.208L373.764 222.96L370.012 226.712ZM479.907 216.48H481.115L478.043 228H476.835L479.907 216.48ZM531.934 226.712L531.182 225.976L534.238 222.96L531.182 219.944L531.934 219.208L535.686 222.96L531.934 226.712Z" fill="#949494"></path> <path d="M236.503 228.24C237.841 228.24 238.935 227.899 239.783 227.216C240.631 226.528 241.212 225.608 241.527 224.456L240.327 224.144C240.081 225.051 239.641 225.773 239.007 226.312C238.372 226.845 237.537 227.112 236.503 227.112C235.601 227.112 234.847 226.907 234.239 226.496C233.636 226.08 233.183 225.507 232.879 224.776C232.58 224.045 232.433 223.2 232.439 222.24C232.449 221.28 232.604 220.435 232.903 219.704C233.201 218.968 233.649 218.395 234.247 217.984C234.849 217.573 235.601 217.368 236.503 217.368C237.537 217.368 238.372 217.637 239.007 218.176C239.641 218.709 240.081 219.429 240.327 220.336L241.527 220.024C241.212 218.872 240.631 217.955 239.783 217.272C238.935 216.584 237.841 216.24 236.503 216.24C235.356 216.24 234.388 216.493 233.599 217C232.809 217.507 232.212 218.211 231.807 219.112C231.401 220.013 231.199 221.056 231.199 222.24C231.199 223.419 231.401 224.461 231.807 225.368C232.212 226.269 232.809 226.973 233.599 227.48C234.388 227.987 235.356 228.24 236.503 228.24ZM243.292 228H244.468V223.624H248.148L250.268 228H251.62L249.348 223.336C249.993 223.075 250.489 222.651 250.836 222.064C251.183 221.477 251.356 220.808 251.356 220.056C251.356 219.155 251.113 218.379 250.628 217.728C250.143 217.077 249.449 216.683 248.548 216.544C248.404 216.517 248.26 216.501 248.116 216.496C247.977 216.485 247.852 216.48 247.74 216.48H243.292V228ZM244.468 222.504V217.608H247.708C247.804 217.608 247.916 217.613 248.044 217.624C248.177 217.629 248.303 217.645 248.42 217.672C249.012 217.8 249.447 218.096 249.724 218.56C250.007 219.019 250.148 219.517 250.148 220.056C250.148 220.589 250.007 221.088 249.724 221.552C249.447 222.016 249.012 222.309 248.42 222.432C248.303 222.459 248.177 222.477 248.044 222.488C247.916 222.499 247.804 222.504 247.708 222.504H244.468ZM256.314 228H257.874L261.842 216.48H260.618L257.082 226.664L253.57 216.48H252.346L256.314 228ZM487.694 228.24C488.574 228.24 489.35 228.059 490.022 227.696C490.699 227.328 491.23 226.813 491.614 226.152C491.998 225.491 492.19 224.72 492.19 223.84V216.48H491.006V223.688C491.006 224.285 490.905 224.803 490.702 225.24C490.505 225.672 490.241 226.029 489.91 226.312C489.585 226.589 489.227 226.795 488.838 226.928C488.449 227.061 488.067 227.128 487.694 227.128C487.326 227.128 486.947 227.061 486.558 226.928C486.169 226.795 485.809 226.589 485.478 226.312C485.153 226.029 484.889 225.672 484.686 225.24C484.483 224.803 484.382 224.285 484.382 223.688V216.48L483.198 216.488V223.84C483.198 224.725 483.39 225.499 483.774 226.16C484.158 226.821 484.689 227.333 485.366 227.696C486.043 228.059 486.819 228.24 487.694 228.24ZM497.948 228.24C498.753 228.24 499.471 228.107 500.1 227.84C500.735 227.573 501.236 227.189 501.604 226.688C501.972 226.181 502.156 225.571 502.156 224.856C502.156 224.312 502.055 223.861 501.852 223.504C501.655 223.141 501.404 222.851 501.1 222.632C500.801 222.408 500.495 222.237 500.18 222.12C499.865 221.997 499.591 221.904 499.356 221.84L497.1 221.176C496.801 221.091 496.492 220.981 496.172 220.848C495.857 220.715 495.591 220.531 495.372 220.296C495.159 220.061 495.052 219.749 495.052 219.36C495.052 218.976 495.169 218.635 495.404 218.336C495.639 218.032 495.959 217.795 496.364 217.624C496.769 217.448 497.228 217.363 497.74 217.368C498.545 217.373 499.236 217.6 499.812 218.048C500.393 218.491 500.743 219.085 500.86 219.832L502.092 219.608C501.905 218.573 501.423 217.757 500.644 217.16C499.865 216.557 498.9 216.253 497.748 216.248C496.991 216.243 496.316 216.371 495.724 216.632C495.132 216.888 494.665 217.253 494.324 217.728C493.983 218.197 493.812 218.757 493.812 219.408C493.812 220.181 494.044 220.784 494.508 221.216C494.977 221.643 495.564 221.96 496.268 222.168L499.188 223.04C499.455 223.12 499.724 223.229 499.996 223.368C500.268 223.507 500.495 223.699 500.676 223.944C500.863 224.189 500.956 224.509 500.956 224.904C500.956 225.357 500.828 225.749 500.572 226.08C500.316 226.411 499.964 226.667 499.516 226.848C499.073 227.024 498.567 227.112 497.996 227.112C497.137 227.112 496.399 226.901 495.78 226.48C495.161 226.053 494.756 225.467 494.564 224.72L493.364 224.92C493.497 225.603 493.772 226.192 494.188 226.688C494.604 227.184 495.132 227.568 495.772 227.84C496.417 228.107 497.143 228.24 497.948 228.24ZM503.808 228H507.304C507.416 228 507.624 227.997 507.928 227.992C508.232 227.987 508.517 227.965 508.784 227.928C509.658 227.805 510.389 227.483 510.976 226.96C511.562 226.432 512.002 225.76 512.296 224.944C512.589 224.123 512.736 223.221 512.736 222.24C512.736 221.259 512.589 220.36 512.296 219.544C512.002 218.728 511.562 218.056 510.976 217.528C510.389 216.995 509.658 216.669 508.784 216.552C508.506 216.515 508.221 216.493 507.928 216.488C507.634 216.483 507.426 216.48 507.304 216.48H503.808V228ZM505.024 226.872V217.608H507.304C507.512 217.608 507.744 217.616 508 217.632C508.261 217.643 508.482 217.667 508.664 217.704C509.33 217.821 509.872 218.093 510.288 218.52C510.704 218.941 511.008 219.472 511.2 220.112C511.392 220.752 511.488 221.461 511.488 222.24C511.488 223.003 511.392 223.707 511.2 224.352C511.013 224.997 510.712 225.533 510.296 225.96C509.88 226.387 509.336 226.659 508.664 226.776C508.482 226.813 508.264 226.84 508.008 226.856C507.757 226.867 507.522 226.872 507.304 226.872H505.024ZM519.222 228.24C520.56 228.24 521.654 227.899 522.502 227.216C523.35 226.528 523.931 225.608 524.246 224.456L523.046 224.144C522.8 225.051 522.36 225.773 521.726 226.312C521.091 226.845 520.256 227.112 519.222 227.112C518.32 227.112 517.566 226.907 516.958 226.496C516.355 226.08 515.902 225.507 515.598 224.776C515.299 224.045 515.152 223.2 515.158 222.24C515.168 221.28 515.323 220.435 515.622 219.704C515.92 218.968 516.368 218.395 516.966 217.984C517.568 217.573 518.32 217.368 519.222 217.368C520.256 217.368 521.091 217.637 521.726 218.176C522.36 218.709 522.8 219.429 523.046 220.336L524.246 220.024C523.931 218.872 523.35 217.955 522.502 217.272C521.654 216.584 520.56 216.24 519.222 216.24C518.075 216.24 517.107 216.493 516.318 217C515.528 217.507 514.931 218.211 514.526 219.112C514.12 220.013 513.918 221.056 513.918 222.24C513.918 223.419 514.12 224.461 514.526 225.368C514.931 226.269 515.528 226.973 516.318 227.48C517.107 227.987 518.075 228.24 519.222 228.24Z" fill="#FFB33D"></path> <path d="M542.469 228H543.837V226.632H542.469V228ZM546.532 228H547.9V226.632H546.532V228ZM550.594 228H551.962V226.632H550.594V228Z" fill="white"></path> <path d="M278.476 228H279.7L280.66 225.208H285.78L286.748 228H287.972L284.004 216.48H282.444L278.476 228ZM281.044 224.104L283.212 217.808L285.396 224.104H281.044ZM289.195 228H290.419L291.379 225.208H296.499L297.467 228H298.691L294.723 216.48H293.163L289.195 228ZM291.763 224.104L293.931 217.808L296.115 224.104H291.763ZM301.939 228H303.499L307.467 216.48H306.243L302.707 226.664L299.195 216.48H297.971L301.939 228ZM308.667 228H315.867V226.872H309.843V222.72H314.907V221.592H309.843V217.608H315.867V216.48H308.667V228Z" fill="#0FA4C7"></path> <path d="M326.467 228.24C327.976 228.24 329.072 227.683 329.755 226.568V228H330.803V222.632C330.803 222.312 330.787 221.997 330.755 221.688C330.723 221.379 330.654 221.099 330.547 220.848C330.318 220.288 329.926 219.861 329.371 219.568C328.822 219.269 328.152 219.12 327.363 219.12C326.414 219.12 325.64 219.333 325.043 219.76C324.446 220.187 324.046 220.787 323.843 221.56L324.987 221.896C325.152 221.32 325.438 220.899 325.843 220.632C326.254 220.365 326.755 220.232 327.347 220.232C328.168 220.232 328.755 220.424 329.107 220.808C329.459 221.187 329.64 221.765 329.651 222.544C329.267 222.597 328.843 222.653 328.379 222.712C327.92 222.771 327.459 222.837 326.995 222.912C326.531 222.987 326.104 223.072 325.715 223.168C325.07 223.339 324.542 223.624 324.131 224.024C323.72 224.419 323.515 224.971 323.515 225.68C323.515 226.139 323.624 226.563 323.843 226.952C324.062 227.341 324.39 227.653 324.827 227.888C325.27 228.123 325.816 228.24 326.467 228.24ZM326.603 227.224C326.139 227.224 325.766 227.149 325.483 227C325.206 226.845 325.003 226.651 324.875 226.416C324.752 226.176 324.691 225.931 324.691 225.68C324.691 225.211 324.848 224.859 325.163 224.624C325.478 224.389 325.819 224.219 326.187 224.112C326.662 223.984 327.214 223.88 327.843 223.8C328.472 223.72 329.07 223.645 329.635 223.576C329.635 223.773 329.627 224 329.611 224.256C329.6 224.507 329.571 224.739 329.523 224.952C329.411 225.603 329.102 226.144 328.595 226.576C328.094 227.008 327.43 227.224 326.603 227.224ZM337.55 228.24C338.888 228.24 339.982 227.899 340.83 227.216C341.678 226.528 342.259 225.608 342.574 224.456L341.374 224.144C341.128 225.051 340.688 225.773 340.054 226.312C339.419 226.845 338.584 227.112 337.55 227.112C336.648 227.112 335.894 226.907 335.286 226.496C334.683 226.08 334.23 225.507 333.926 224.776C333.627 224.045 333.48 223.2 333.486 222.24C333.496 221.28 333.651 220.435 333.95 219.704C334.248 218.968 334.696 218.395 335.294 217.984C335.896 217.573 336.648 217.368 337.55 217.368C338.584 217.368 339.419 217.637 340.054 218.176C340.688 218.709 341.128 219.429 341.374 220.336L342.574 220.024C342.259 218.872 341.678 217.955 340.83 217.272C339.982 216.584 338.888 216.24 337.55 216.24C336.403 216.24 335.435 216.493 334.646 217C333.856 217.507 333.259 218.211 332.854 219.112C332.448 220.013 332.246 221.056 332.246 222.24C332.246 223.419 332.448 224.461 332.854 225.368C333.259 226.269 333.856 226.973 334.646 227.48C335.435 227.987 336.403 228.24 337.55 228.24ZM344.339 228H345.515V223.624H349.195L351.315 228H352.667L350.395 223.336C351.04 223.075 351.536 222.651 351.883 222.064C352.229 221.477 352.403 220.808 352.403 220.056C352.403 219.155 352.16 218.379 351.675 217.728C351.189 217.077 350.496 216.683 349.595 216.544C349.451 216.517 349.307 216.501 349.163 216.496C349.024 216.485 348.899 216.48 348.787 216.48H344.339V228ZM345.515 222.504V217.608H348.755C348.851 217.608 348.963 217.613 349.091 217.624C349.224 217.629 349.349 217.645 349.467 217.672C350.059 217.8 350.493 218.096 350.771 218.56C351.053 219.019 351.195 219.517 351.195 220.056C351.195 220.589 351.053 221.088 350.771 221.552C350.493 222.016 350.059 222.309 349.467 222.432C349.349 222.459 349.224 222.477 349.091 222.488C348.963 222.499 348.851 222.504 348.755 222.504H345.515ZM357.361 228H358.921L362.889 216.48H361.665L358.129 226.664L354.617 216.48H353.393L357.361 228Z" fill="#B597A4"></path> <path d="M383.518 228H384.574V226.792C384.884 227.24 385.276 227.595 385.75 227.856C386.225 228.112 386.777 228.24 387.406 228.24C388.217 228.24 388.908 228.04 389.478 227.64C390.049 227.235 390.484 226.688 390.782 226C391.086 225.312 391.238 224.536 391.238 223.672C391.238 222.813 391.086 222.04 390.782 221.352C390.484 220.664 390.052 220.12 389.486 219.72C388.921 219.32 388.244 219.12 387.454 219.12C386.857 219.12 386.326 219.232 385.862 219.456C385.404 219.675 385.017 219.981 384.702 220.376V216.48H383.518V228ZM387.286 227.144C386.673 227.144 386.166 226.995 385.766 226.696C385.366 226.392 385.068 225.979 384.87 225.456C384.673 224.933 384.574 224.339 384.574 223.672C384.574 222.653 384.796 221.824 385.238 221.184C385.686 220.539 386.361 220.216 387.262 220.216C387.881 220.216 388.39 220.368 388.79 220.672C389.196 220.976 389.497 221.389 389.694 221.912C389.892 222.435 389.99 223.021 389.99 223.672C389.99 224.328 389.889 224.917 389.686 225.44C389.489 225.963 389.19 226.379 388.79 226.688C388.39 226.992 387.889 227.144 387.286 227.144ZM396.603 228.24C397.456 228.24 398.187 228.048 398.795 227.664C399.408 227.28 399.878 226.747 400.203 226.064C400.534 225.376 400.699 224.579 400.699 223.672C400.699 222.781 400.536 221.995 400.211 221.312C399.891 220.624 399.424 220.088 398.811 219.704C398.203 219.315 397.467 219.12 396.603 219.12C395.76 219.12 395.032 219.312 394.419 219.696C393.811 220.075 393.342 220.605 393.011 221.288C392.68 221.971 392.515 222.765 392.515 223.672C392.515 224.563 392.675 225.352 392.995 226.04C393.32 226.728 393.787 227.267 394.395 227.656C395.008 228.045 395.744 228.24 396.603 228.24ZM396.603 227.112C395.67 227.112 394.963 226.8 394.483 226.176C394.003 225.547 393.763 224.712 393.763 223.672C393.763 222.664 393.995 221.843 394.459 221.208C394.923 220.568 395.638 220.248 396.603 220.248C397.558 220.248 398.27 220.56 398.739 221.184C399.214 221.803 399.451 222.632 399.451 223.672C399.451 224.691 399.216 225.52 398.747 226.16C398.278 226.795 397.563 227.112 396.603 227.112ZM402.464 228H403.64V223.688C403.64 223.171 403.698 222.656 403.816 222.144C403.938 221.627 404.216 221.197 404.648 220.856C404.962 220.6 405.304 220.453 405.672 220.416C406.045 220.373 406.392 220.389 406.712 220.464V219.36C406.333 219.264 405.904 219.261 405.424 219.352C404.944 219.437 404.533 219.629 404.192 219.928C403.936 220.12 403.712 220.387 403.52 220.728V219.36H402.464V228ZM408.229 228H409.405V223.688C409.405 223.171 409.464 222.656 409.581 222.144C409.704 221.627 409.981 221.197 410.413 220.856C410.728 220.6 411.069 220.453 411.437 220.416C411.811 220.373 412.157 220.389 412.477 220.464V219.36C412.099 219.264 411.669 219.261 411.189 219.352C410.709 219.437 410.299 219.629 409.957 219.928C409.701 220.12 409.477 220.387 409.285 220.728V219.36H408.229V228ZM417.447 228.24C418.3 228.24 419.031 228.048 419.639 227.664C420.252 227.28 420.721 226.747 421.047 226.064C421.377 225.376 421.543 224.579 421.543 223.672C421.543 222.781 421.38 221.995 421.055 221.312C420.735 220.624 420.268 220.088 419.655 219.704C419.047 219.315 418.311 219.12 417.447 219.12C416.604 219.12 415.876 219.312 415.263 219.696C414.655 220.075 414.185 220.605 413.855 221.288C413.524 221.971 413.359 222.765 413.359 223.672C413.359 224.563 413.519 225.352 413.839 226.04C414.164 226.728 414.631 227.267 415.239 227.656C415.852 228.045 416.588 228.24 417.447 228.24ZM417.447 227.112C416.513 227.112 415.807 226.8 415.327 226.176C414.847 225.547 414.607 224.712 414.607 223.672C414.607 222.664 414.839 221.843 415.303 221.208C415.767 220.568 416.481 220.248 417.447 220.248C418.401 220.248 419.113 220.56 419.583 221.184C420.057 221.803 420.295 222.632 420.295 223.672C420.295 224.691 420.06 225.52 419.591 226.16C419.121 226.795 418.407 227.112 417.447 227.112ZM424.835 228H425.859L428.011 221.12L430.171 228H431.195L433.835 219.36H432.667L430.603 226.072L428.547 219.36H427.475L425.419 226.072L423.371 219.36L422.195 219.352L424.835 228Z" fill="#F78774"></path> <path d="M437.679 228H438.903L439.863 225.208H444.983L445.951 228H447.175L443.207 216.48H441.647L437.679 228ZM440.247 224.104L442.415 217.808L444.599 224.104H440.247ZM448.398 228H449.622L450.582 225.208H455.702L456.67 228H457.894L453.926 216.48H452.366L448.398 228ZM450.966 224.104L453.134 217.808L455.318 224.104H450.966ZM461.142 228H462.702L466.67 216.48H465.446L461.91 226.664L458.398 216.48H457.174L461.142 228ZM467.87 228H475.07V226.872H469.046V222.72H474.11V221.592H469.046V217.608H475.07V216.48H467.87V228Z" fill="#0B7B95"></path> </svg> 