<?xml version="1.0" encoding="UTF-8"?> <svg xmlns="http://www.w3.org/2000/svg" width="538" height="260" viewBox="0 0 538 260" fill="none"> <rect x="0.5" y="0.5" width="537" height="259" rx="3.5" fill="#191919" stroke="#282726"></rect> <path d="M257.986 67.15C258.823 67.15 259.506 66.9367 260.036 66.51C260.566 66.08 260.929 65.505 261.126 64.785L260.376 64.59C260.223 65.1567 259.948 65.6083 259.551 65.945C259.154 66.2783 258.633 66.445 257.986 66.445C257.423 66.445 256.951 66.3167 256.571 66.06C256.194 65.8 255.911 65.4417 255.721 64.985C255.534 64.5283 255.443 64 255.446 63.4C255.453 62.8 255.549 62.2717 255.736 61.815C255.923 61.355 256.203 60.9967 256.576 60.74C256.953 60.4833 257.423 60.355 257.986 60.355C258.633 60.355 259.154 60.5233 259.551 60.86C259.948 61.1933 260.223 61.6433 260.376 62.21L261.126 62.015C260.929 61.295 260.566 60.7217 260.036 60.295C259.506 59.865 258.823 59.65 257.986 59.65C257.269 59.65 256.664 59.8083 256.171 60.125C255.678 60.4417 255.304 60.8817 255.051 61.445C254.798 62.0083 254.671 62.66 254.671 63.4C254.671 64.1367 254.798 64.7883 255.051 65.355C255.304 65.9183 255.678 66.3583 256.171 66.675C256.664 66.9917 257.269 67.15 257.986 67.15ZM264.484 67.15C265.018 67.15 265.474 67.03 265.854 66.79C266.238 66.55 266.531 66.2167 266.734 65.79C266.941 65.36 267.044 64.8617 267.044 64.295C267.044 63.7383 266.943 63.2467 266.739 62.82C266.539 62.39 266.248 62.055 265.864 61.815C265.484 61.5717 265.024 61.45 264.484 61.45C263.958 61.45 263.503 61.57 263.119 61.81C262.739 62.0467 262.446 62.3783 262.239 62.805C262.033 63.2317 261.929 63.7283 261.929 64.295C261.929 64.8517 262.029 65.345 262.229 65.775C262.433 66.205 262.724 66.5417 263.104 66.785C263.488 67.0283 263.948 67.15 264.484 67.15ZM264.484 66.445C263.901 66.445 263.459 66.25 263.159 65.86C262.859 65.4667 262.709 64.945 262.709 64.295C262.709 63.665 262.854 63.1517 263.144 62.755C263.434 62.355 263.881 62.155 264.484 62.155C265.081 62.155 265.526 62.35 265.819 62.74C266.116 63.1267 266.264 63.645 266.264 64.295C266.264 64.9317 266.118 65.45 265.824 65.85C265.531 66.2467 265.084 66.445 264.484 66.445ZM268.247 67H268.982V59.65H268.247V67ZM270.581 67H271.316V59.65H270.581V67ZM274.36 67.15C275.304 67.15 275.989 66.8017 276.415 66.105V67H277.07V63.645C277.07 63.445 277.06 63.2483 277.04 63.055C277.02 62.8617 276.977 62.6867 276.91 62.53C276.767 62.18 276.522 61.9133 276.175 61.73C275.832 61.5433 275.414 61.45 274.92 61.45C274.327 61.45 273.844 61.5833 273.47 61.85C273.097 62.1167 272.847 62.4917 272.72 62.975L273.435 63.185C273.539 62.825 273.717 62.5617 273.97 62.395C274.227 62.2283 274.54 62.145 274.91 62.145C275.424 62.145 275.79 62.265 276.01 62.505C276.23 62.7417 276.344 63.1033 276.35 63.59C276.11 63.6233 275.845 63.6583 275.555 63.695C275.269 63.7317 274.98 63.7733 274.69 63.82C274.4 63.8667 274.134 63.92 273.89 63.98C273.487 64.0867 273.157 64.265 272.9 64.515C272.644 64.7617 272.515 65.1067 272.515 65.55C272.515 65.8367 272.584 66.1017 272.72 66.345C272.857 66.5883 273.062 66.7833 273.335 66.93C273.612 67.0767 273.954 67.15 274.36 67.15ZM274.445 66.515C274.155 66.515 273.922 66.4683 273.745 66.375C273.572 66.2783 273.445 66.1567 273.365 66.01C273.289 65.86 273.25 65.7067 273.25 65.55C273.25 65.2567 273.349 65.0367 273.545 64.89C273.742 64.7433 273.955 64.6367 274.185 64.57C274.482 64.49 274.827 64.425 275.22 64.375C275.614 64.325 275.987 64.2783 276.34 64.235C276.34 64.3583 276.335 64.5 276.325 64.66C276.319 64.8167 276.3 64.9617 276.27 65.095C276.2 65.5017 276.007 65.84 275.69 66.11C275.377 66.38 274.962 66.515 274.445 66.515ZM281.312 67V66.355C280.925 66.4183 280.6 66.4283 280.337 66.385C280.077 66.3417 279.887 66.2083 279.767 65.985C279.704 65.8683 279.669 65.735 279.662 65.585C279.659 65.4317 279.657 65.2417 279.657 65.015V62.23H281.312V61.6H279.657V60.1H278.927V61.6H277.772V62.23H278.927V65.045C278.927 65.3083 278.93 65.5433 278.937 65.75C278.947 65.9567 279 66.1583 279.097 66.355C279.217 66.595 279.392 66.7717 279.622 66.885C279.855 66.9983 280.119 67.0617 280.412 67.075C280.709 67.0883 281.009 67.0633 281.312 67ZM284.465 67.15C284.989 67.15 285.457 67.0217 285.87 66.765C286.287 66.5083 286.602 66.1433 286.815 65.67L286.13 65.405C285.787 66.0983 285.222 66.445 284.435 66.445C283.895 66.445 283.472 66.2767 283.165 65.94C282.862 65.6033 282.695 65.125 282.665 64.505H286.92C286.947 63.5517 286.739 62.805 286.295 62.265C285.855 61.7217 285.235 61.45 284.435 61.45C283.915 61.45 283.464 61.5667 283.08 61.8C282.7 62.0333 282.405 62.365 282.195 62.795C281.985 63.225 281.88 63.735 281.88 64.325C281.88 64.895 281.985 65.3917 282.195 65.815C282.409 66.2383 282.709 66.5667 283.095 66.8C283.485 67.0333 283.942 67.15 284.465 67.15ZM284.455 62.125C285.472 62.125 286.037 62.7133 286.15 63.89H282.68C282.737 63.32 282.917 62.8833 283.22 62.58C283.524 62.2767 283.935 62.125 284.455 62.125ZM288.03 67H288.765V64.305C288.765 63.9817 288.802 63.66 288.875 63.34C288.952 63.0167 289.125 62.7483 289.395 62.535C289.592 62.375 289.805 62.2833 290.035 62.26C290.268 62.2333 290.485 62.2433 290.685 62.29V61.6C290.448 61.54 290.18 61.5383 289.88 61.595C289.58 61.6483 289.323 61.7683 289.11 61.955C288.95 62.075 288.81 62.2417 288.69 62.455V61.6H288.03V67ZM292.983 67.15C293.927 67.15 294.612 66.8017 295.038 66.105V67H295.693V63.645C295.693 63.445 295.683 63.2483 295.663 63.055C295.643 62.8617 295.6 62.6867 295.533 62.53C295.39 62.18 295.145 61.9133 294.798 61.73C294.455 61.5433 294.037 61.45 293.543 61.45C292.95 61.45 292.467 61.5833 292.093 61.85C291.72 62.1167 291.47 62.4917 291.343 62.975L292.058 63.185C292.162 62.825 292.34 62.5617 292.593 62.395C292.85 62.2283 293.163 62.145 293.533 62.145C294.047 62.145 294.413 62.265 294.633 62.505C294.853 62.7417 294.967 63.1033 294.973 63.59C294.733 63.6233 294.468 63.6583 294.178 63.695C293.892 63.7317 293.603 63.7733 293.313 63.82C293.023 63.8667 292.757 63.92 292.513 63.98C292.11 64.0867 291.78 64.265 291.523 64.515C291.267 64.7617 291.138 65.1067 291.138 65.55C291.138 65.8367 291.207 66.1017 291.343 66.345C291.48 66.5883 291.685 66.7833 291.958 66.93C292.235 67.0767 292.577 67.15 292.983 67.15ZM293.068 66.515C292.778 66.515 292.545 66.4683 292.368 66.375C292.195 66.2783 292.068 66.1567 291.988 66.01C291.912 65.86 291.873 65.7067 291.873 65.55C291.873 65.2567 291.972 65.0367 292.168 64.89C292.365 64.7433 292.578 64.6367 292.808 64.57C293.105 64.49 293.45 64.425 293.843 64.375C294.237 64.325 294.61 64.2783 294.963 64.235C294.963 64.3583 294.958 64.5 294.948 64.66C294.942 64.8167 294.923 64.9617 294.893 65.095C294.823 65.5017 294.63 65.84 294.313 66.11C294 66.38 293.585 66.515 293.068 66.515ZM297.095 67H297.83V59.65H297.095V67ZM267.117 83H267.852V80.265H269.897C269.964 80.265 270.042 80.2617 270.132 80.255C270.222 80.2483 270.312 80.2383 270.402 80.225C270.962 80.1383 271.394 79.8917 271.697 79.485C272.004 79.0783 272.157 78.595 272.157 78.035C272.157 77.4717 272.005 76.9867 271.702 76.58C271.399 76.1733 270.965 75.9267 270.402 75.84C270.312 75.8233 270.222 75.8133 270.132 75.81C270.045 75.8033 269.967 75.8 269.897 75.8H267.117V83ZM267.852 79.565V76.505H269.877C269.937 76.505 270.007 76.5083 270.087 76.515C270.17 76.5183 270.249 76.5283 270.322 76.545C270.692 76.625 270.964 76.81 271.137 77.1C271.314 77.3867 271.402 77.6983 271.402 78.035C271.402 78.3683 271.314 78.68 271.137 78.97C270.964 79.26 270.692 79.4433 270.322 79.52C270.249 79.5367 270.17 79.5483 270.087 79.555C270.007 79.5617 269.937 79.565 269.877 79.565H267.852ZM275.368 83.15C275.901 83.15 276.358 83.03 276.738 82.79C277.121 82.55 277.415 82.2167 277.618 81.79C277.825 81.36 277.928 80.8617 277.928 80.295C277.928 79.7383 277.826 79.2467 277.623 78.82C277.423 78.39 277.131 78.055 276.748 77.815C276.368 77.5717 275.908 77.45 275.368 77.45C274.841 77.45 274.386 77.57 274.003 77.81C273.623 78.0467 273.33 78.3783 273.123 78.805C272.916 79.2317 272.813 79.7283 272.813 80.295C272.813 80.8517 272.913 81.345 273.113 81.775C273.316 82.205 273.608 82.5417 273.988 82.785C274.371 83.0283 274.831 83.15 275.368 83.15ZM275.368 82.445C274.785 82.445 274.343 82.25 274.043 81.86C273.743 81.4667 273.593 80.945 273.593 80.295C273.593 79.665 273.738 79.1517 274.028 78.755C274.318 78.355 274.765 78.155 275.368 78.155C275.965 78.155 276.41 78.35 276.703 78.74C277 79.1267 277.148 79.645 277.148 80.295C277.148 80.9317 277.001 81.45 276.708 81.85C276.415 82.2467 275.968 82.445 275.368 82.445ZM281.286 83.15C281.819 83.15 282.276 83.03 282.656 82.79C283.039 82.55 283.333 82.2167 283.536 81.79C283.743 81.36 283.846 80.8617 283.846 80.295C283.846 79.7383 283.744 79.2467 283.541 78.82C283.341 78.39 283.049 78.055 282.666 77.815C282.286 77.5717 281.826 77.45 281.286 77.45C280.759 77.45 280.304 77.57 279.921 77.81C279.541 78.0467 279.248 78.3783 279.041 78.805C278.834 79.2317 278.731 79.7283 278.731 80.295C278.731 80.8517 278.831 81.345 279.031 81.775C279.234 82.205 279.526 82.5417 279.906 82.785C280.289 83.0283 280.749 83.15 281.286 83.15ZM281.286 82.445C280.703 82.445 280.261 82.25 279.961 81.86C279.661 81.4667 279.511 80.945 279.511 80.295C279.511 79.665 279.656 79.1517 279.946 78.755C280.236 78.355 280.683 78.155 281.286 78.155C281.883 78.155 282.328 78.35 282.621 78.74C282.918 79.1267 283.066 79.645 283.066 80.295C283.066 80.9317 282.919 81.45 282.626 81.85C282.333 82.2467 281.886 82.445 281.286 82.445ZM285.049 83H285.784V75.65H285.049V83Z" fill="white"></path> <circle cx="277" cy="69" r="31.5" stroke="#13CDF9"></circle> <rect x="325.5" y="40.5" width="57" height="57" rx="3.5" stroke="#F78774"></rect> <path d="M338.921 70H341.931C342.567 70 343.081 69.82 343.471 69.46C343.861 69.0967 344.056 68.6033 344.056 67.98C344.056 67.5633 343.949 67.2 343.736 66.89C343.526 66.58 343.234 66.3433 342.861 66.18C343.121 66.03 343.326 65.8217 343.476 65.555C343.629 65.285 343.706 64.985 343.706 64.655C343.706 64.315 343.622 64.005 343.456 63.725C343.289 63.4417 343.056 63.2167 342.756 63.05C342.456 62.8833 342.104 62.8 341.701 62.8H338.921V70ZM339.661 65.87V63.495H341.696C342.059 63.495 342.357 63.6017 342.591 63.815C342.827 64.0283 342.946 64.305 342.946 64.645C342.946 65.005 342.824 65.3 342.581 65.53C342.337 65.7567 342.042 65.87 341.696 65.87H339.661ZM339.661 69.295V66.565H341.886C342.156 66.565 342.397 66.6283 342.611 66.755C342.824 66.8817 342.991 67.0533 343.111 67.27C343.234 67.4833 343.296 67.7233 343.296 67.99C343.296 68.4 343.147 68.72 342.851 68.95C342.554 69.18 342.187 69.295 341.751 69.295H339.661ZM347.309 70.15C347.842 70.15 348.299 70.03 348.679 69.79C349.062 69.55 349.355 69.2167 349.559 68.79C349.765 68.36 349.869 67.8617 349.869 67.295C349.869 66.7383 349.767 66.2467 349.564 65.82C349.364 65.39 349.072 65.055 348.689 64.815C348.309 64.5717 347.849 64.45 347.309 64.45C346.782 64.45 346.327 64.57 345.944 64.81C345.564 65.0467 345.27 65.3783 345.064 65.805C344.857 66.2317 344.754 66.7283 344.754 67.295C344.754 67.8517 344.854 68.345 345.054 68.775C345.257 69.205 345.549 69.5417 345.929 69.785C346.312 70.0283 346.772 70.15 347.309 70.15ZM347.309 69.445C346.725 69.445 346.284 69.25 345.984 68.86C345.684 68.4667 345.534 67.945 345.534 67.295C345.534 66.665 345.679 66.1517 345.969 65.755C346.259 65.355 346.705 65.155 347.309 65.155C347.905 65.155 348.35 65.35 348.644 65.74C348.94 66.1267 349.089 66.645 349.089 67.295C349.089 67.9317 348.942 68.45 348.649 68.85C348.355 69.2467 347.909 69.445 347.309 69.445ZM350.971 70H351.706V67.305C351.706 66.9817 351.743 66.66 351.816 66.34C351.893 66.0167 352.066 65.7483 352.336 65.535C352.533 65.375 352.746 65.2833 352.976 65.26C353.21 65.2333 353.426 65.2433 353.626 65.29V64.6C353.39 64.54 353.121 64.5383 352.821 64.595C352.521 64.6483 352.265 64.7683 352.051 64.955C351.891 65.075 351.751 65.2417 351.631 65.455V64.6H350.971V70ZM354.575 70H355.31V67.305C355.31 66.9817 355.347 66.66 355.42 66.34C355.497 66.0167 355.67 65.7483 355.94 65.535C356.137 65.375 356.35 65.2833 356.58 65.26C356.813 65.2333 357.03 65.2433 357.23 65.29V64.6C356.993 64.54 356.725 64.5383 356.425 64.595C356.125 64.6483 355.868 64.7683 355.655 64.955C355.495 65.075 355.355 65.2417 355.235 65.455V64.6H354.575V70ZM360.336 70.15C360.869 70.15 361.326 70.03 361.706 69.79C362.089 69.55 362.383 69.2167 362.586 68.79C362.793 68.36 362.896 67.8617 362.896 67.295C362.896 66.7383 362.794 66.2467 362.591 65.82C362.391 65.39 362.099 65.055 361.716 64.815C361.336 64.5717 360.876 64.45 360.336 64.45C359.809 64.45 359.354 64.57 358.971 64.81C358.591 65.0467 358.298 65.3783 358.091 65.805C357.884 66.2317 357.781 66.7283 357.781 67.295C357.781 67.8517 357.881 68.345 358.081 68.775C358.284 69.205 358.576 69.5417 358.956 69.785C359.339 70.0283 359.799 70.15 360.336 70.15ZM360.336 69.445C359.753 69.445 359.311 69.25 359.011 68.86C358.711 68.4667 358.561 67.945 358.561 67.295C358.561 66.665 358.706 66.1517 358.996 65.755C359.286 65.355 359.733 65.155 360.336 65.155C360.933 65.155 361.378 65.35 361.671 65.74C361.968 66.1267 362.116 66.645 362.116 67.295C362.116 67.9317 361.969 68.45 361.676 68.85C361.383 69.2467 360.936 69.445 360.336 69.445ZM364.954 70H365.594L366.939 65.7L368.289 70H368.929L370.579 64.6H369.849L368.559 68.795L367.274 64.6H366.604L365.319 68.795L364.039 64.6L363.304 64.595L364.954 70Z" fill="white"></path> <path d="M313 23H231C228.791 23 227 24.7909 227 27V110C227 112.209 228.791 114 231 114H313" stroke="url(#paint0_linear)" stroke-opacity="0.5"></path> <path d="M313 23H397C399.209 23 401 24.7909 401 27V110C401 112.209 399.209 114 397 114H313" stroke="url(#paint1_linear)" stroke-opacity="0.5"></path> <path d="M137 68C136.448 68 136 68.4477 136 69C136 69.5523 136.448 70 137 70V68ZM217 69L207 63.2265V74.7735L217 69ZM137 70H208V68H137V70Z" fill="url(#paint2_linear)" fill-opacity="0.9"></path> <path d="M163.821 25H164.796L167.276 17.8H166.511L164.301 24.165L162.106 17.8H161.341L163.821 25ZM169.122 25.15C170.065 25.15 170.75 24.8017 171.177 24.105V25H171.832V21.645C171.832 21.445 171.822 21.2483 171.802 21.055C171.782 20.8617 171.739 20.6867 171.672 20.53C171.529 20.18 171.284 19.9133 170.937 19.73C170.594 19.5433 170.175 19.45 169.682 19.45C169.089 19.45 168.605 19.5833 168.232 19.85C167.859 20.1167 167.609 20.4917 167.482 20.975L168.197 21.185C168.3 20.825 168.479 20.5617 168.732 20.395C168.989 20.2283 169.302 20.145 169.672 20.145C170.185 20.145 170.552 20.265 170.772 20.505C170.992 20.7417 171.105 21.1033 171.112 21.59C170.872 21.6233 170.607 21.6583 170.317 21.695C170.03 21.7317 169.742 21.7733 169.452 21.82C169.162 21.8667 168.895 21.92 168.652 21.98C168.249 22.0867 167.919 22.265 167.662 22.515C167.405 22.7617 167.277 23.1067 167.277 23.55C167.277 23.8367 167.345 24.1017 167.482 24.345C167.619 24.5883 167.824 24.7833 168.097 24.93C168.374 25.0767 168.715 25.15 169.122 25.15ZM169.207 24.515C168.917 24.515 168.684 24.4683 168.507 24.375C168.334 24.2783 168.207 24.1567 168.127 24.01C168.05 23.86 168.012 23.7067 168.012 23.55C168.012 23.2567 168.11 23.0367 168.307 22.89C168.504 22.7433 168.717 22.6367 168.947 22.57C169.244 22.49 169.589 22.425 169.982 22.375C170.375 22.325 170.749 22.2783 171.102 22.235C171.102 22.3583 171.097 22.5 171.087 22.66C171.08 22.8167 171.062 22.9617 171.032 23.095C170.962 23.5017 170.769 23.84 170.452 24.11C170.139 24.38 169.724 24.515 169.207 24.515ZM175.199 25.135C175.585 25.135 175.934 25.0617 176.244 24.915C176.557 24.765 176.814 24.5433 177.014 24.25V25H177.674V19.6H176.939V22.48C176.939 23.09 176.802 23.5683 176.529 23.915C176.255 24.2617 175.859 24.435 175.339 24.435C174.962 24.435 174.659 24.345 174.429 24.165C174.199 23.9817 174.032 23.7333 173.929 23.42C173.825 23.1067 173.774 22.7517 173.774 22.355V19.6H173.034V22.57C173.034 22.8733 173.07 23.1767 173.144 23.48C173.22 23.7833 173.342 24.06 173.509 24.31C173.675 24.56 173.897 24.76 174.174 24.91C174.454 25.06 174.795 25.135 175.199 25.135ZM179.171 25H179.906V17.65H179.171V25ZM184.345 25V24.355C183.958 24.4183 183.633 24.4283 183.37 24.385C183.11 24.3417 182.92 24.2083 182.8 23.985C182.737 23.8683 182.702 23.735 182.695 23.585C182.692 23.4317 182.69 23.2417 182.69 23.015V20.23H184.345V19.6H182.69V18.1H181.96V19.6H180.805V20.23H181.96V23.045C181.96 23.3083 181.963 23.5433 181.97 23.75C181.98 23.9567 182.033 24.1583 182.13 24.355C182.25 24.595 182.425 24.7717 182.655 24.885C182.888 24.9983 183.152 25.0617 183.445 25.075C183.742 25.0883 184.042 25.0633 184.345 25ZM151.258 41.135C151.645 41.135 151.993 41.0617 152.303 40.915C152.616 40.765 152.873 40.5433 153.073 40.25V41H153.733V35.6H152.998V38.48C152.998 39.09 152.861 39.5683 152.588 39.915C152.315 40.2617 151.918 40.435 151.398 40.435C151.021 40.435 150.718 40.345 150.488 40.165C150.258 39.9817 150.091 39.7333 149.988 39.42C149.885 39.1067 149.833 38.7517 149.833 38.355V35.6H149.093V38.57C149.093 38.8733 149.13 39.1767 149.203 39.48C149.28 39.7833 149.401 40.06 149.568 40.31C149.735 40.56 149.956 40.76 150.233 40.91C150.513 41.06 150.855 41.135 151.258 41.135ZM155.126 41H155.866V38.12C155.866 37.51 156.002 37.0317 156.276 36.685C156.549 36.3383 156.946 36.165 157.466 36.165C157.842 36.165 158.146 36.2567 158.376 36.44C158.606 36.62 158.772 36.8667 158.876 37.18C158.979 37.4933 159.031 37.8483 159.031 38.245V41H159.771V38.03C159.771 37.7267 159.732 37.4233 159.656 37.12C159.582 36.8167 159.462 36.54 159.296 36.29C159.129 36.04 158.907 35.84 158.631 35.69C158.354 35.54 158.012 35.465 157.606 35.465C157.219 35.465 156.869 35.54 156.556 35.69C156.246 35.8367 155.991 36.0567 155.791 36.35V35.6H155.126V41ZM163.124 41.15C163.517 41.15 163.862 41.07 164.159 40.91C164.456 40.7467 164.701 40.525 164.894 40.245V41H165.554V33.8H164.814V36.235C164.617 35.9883 164.374 35.7967 164.084 35.66C163.797 35.52 163.467 35.45 163.094 35.45C162.601 35.45 162.177 35.575 161.824 35.825C161.471 36.075 161.199 36.415 161.009 36.845C160.822 37.275 160.729 37.7583 160.729 38.295C160.729 38.835 160.822 39.32 161.009 39.75C161.199 40.18 161.472 40.5217 161.829 40.775C162.189 41.025 162.621 41.15 163.124 41.15ZM163.199 40.465C162.826 40.465 162.512 40.37 162.259 40.18C162.009 39.9867 161.821 39.7267 161.694 39.4C161.571 39.0733 161.509 38.705 161.509 38.295C161.509 37.8883 161.571 37.5217 161.694 37.195C161.817 36.8683 162.004 36.61 162.254 36.42C162.507 36.23 162.827 36.135 163.214 36.135C163.777 36.135 164.197 36.3367 164.474 36.74C164.754 37.14 164.894 37.6583 164.894 38.295C164.894 38.7117 164.832 39.0833 164.709 39.41C164.586 39.7367 164.399 39.995 164.149 40.185C163.899 40.3717 163.582 40.465 163.199 40.465ZM169.242 41.15C169.765 41.15 170.234 41.0217 170.647 40.765C171.064 40.5083 171.379 40.1433 171.592 39.67L170.907 39.405C170.564 40.0983 169.999 40.445 169.212 40.445C168.672 40.445 168.249 40.2767 167.942 39.94C167.639 39.6033 167.472 39.125 167.442 38.505H171.697C171.724 37.5517 171.515 36.805 171.072 36.265C170.632 35.7217 170.012 35.45 169.212 35.45C168.692 35.45 168.24 35.5667 167.857 35.8C167.477 36.0333 167.182 36.365 166.972 36.795C166.762 37.225 166.657 37.735 166.657 38.325C166.657 38.895 166.762 39.3917 166.972 39.815C167.185 40.2383 167.485 40.5667 167.872 40.8C168.262 41.0333 168.719 41.15 169.242 41.15ZM169.232 36.125C170.249 36.125 170.814 36.7133 170.927 37.89H167.457C167.514 37.32 167.694 36.8833 167.997 36.58C168.3 36.2767 168.712 36.125 169.232 36.125ZM172.806 41H173.541V38.305C173.541 37.9817 173.578 37.66 173.651 37.34C173.728 37.0167 173.901 36.7483 174.171 36.535C174.368 36.375 174.581 36.2833 174.811 36.26C175.045 36.2333 175.261 36.2433 175.461 36.29V35.6C175.225 35.54 174.956 35.5383 174.656 35.595C174.356 35.6483 174.1 35.7683 173.886 35.955C173.726 36.075 173.586 36.2417 173.466 36.455V35.6H172.806V41ZM176.51 41H177.245V33.65H176.51V41ZM179.514 43.4H180.249L183.149 35.6H182.399L180.764 40.04L178.989 35.6H178.209L180.404 40.985L179.514 43.4ZM184.117 34.575H184.852V33.75H184.117V34.575ZM184.117 41H184.852V35.6H184.117V41ZM186.346 41H187.086V38.12C187.086 37.51 187.223 37.0317 187.496 36.685C187.77 36.3383 188.166 36.165 188.686 36.165C189.063 36.165 189.366 36.2567 189.596 36.44C189.826 36.62 189.993 36.8667 190.096 37.18C190.2 37.4933 190.251 37.8483 190.251 38.245V41H190.991V38.03C190.991 37.7267 190.953 37.4233 190.876 37.12C190.803 36.8167 190.683 36.54 190.516 36.29C190.35 36.04 190.128 35.84 189.851 35.69C189.575 35.54 189.233 35.465 188.826 35.465C188.44 35.465 188.09 35.54 187.776 35.69C187.466 35.8367 187.211 36.0567 187.011 36.35V35.6H186.346V41ZM194.384 41.15C194.747 41.15 195.071 41.08 195.354 40.94C195.637 40.8 195.876 40.6067 196.069 40.36V40.915C196.072 41.5483 195.947 42.0267 195.694 42.35C195.441 42.6733 195.021 42.835 194.434 42.835C194.151 42.835 193.872 42.7683 193.599 42.635C193.326 42.505 193.116 42.29 192.969 41.99L192.304 42.36C192.534 42.78 192.842 43.0833 193.229 43.27C193.619 43.4567 194.021 43.55 194.434 43.55C195.094 43.55 195.621 43.4067 196.014 43.12C196.407 42.8333 196.652 42.3883 196.749 41.785C196.772 41.6483 196.787 41.5083 196.794 41.365C196.804 41.225 196.809 41.0783 196.809 40.925V35.6H196.154V36.345C195.957 36.065 195.707 35.8467 195.404 35.69C195.104 35.53 194.754 35.45 194.354 35.45C193.861 35.45 193.437 35.575 193.084 35.825C192.731 36.075 192.459 36.415 192.269 36.845C192.082 37.275 191.989 37.7583 191.989 38.295C191.989 38.835 192.082 39.32 192.269 39.75C192.459 40.18 192.732 40.5217 193.089 40.775C193.449 41.025 193.881 41.15 194.384 41.15ZM194.459 40.465C194.086 40.465 193.772 40.37 193.519 40.18C193.269 39.9867 193.081 39.7267 192.954 39.4C192.831 39.0733 192.769 38.705 192.769 38.295C192.769 37.8883 192.831 37.5217 192.954 37.195C193.077 36.8683 193.264 36.61 193.514 36.42C193.767 36.23 194.087 36.135 194.474 36.135C195.037 36.135 195.457 36.3367 195.734 36.74C196.014 37.14 196.154 37.6583 196.154 38.295C196.154 38.7117 196.092 39.0833 195.969 39.41C195.846 39.7367 195.659 39.995 195.409 40.185C195.159 40.3717 194.842 40.465 194.459 40.465ZM161.821 57H162.556V50.505H165.071V49.8H159.306V50.505H161.821V57ZM167.327 57.15C167.86 57.15 168.317 57.03 168.697 56.79C169.08 56.55 169.374 56.2167 169.577 55.79C169.784 55.36 169.887 54.8617 169.887 54.295C169.887 53.7383 169.785 53.2467 169.582 52.82C169.382 52.39 169.09 52.055 168.707 51.815C168.327 51.5717 167.867 51.45 167.327 51.45C166.8 51.45 166.345 51.57 165.962 51.81C165.582 52.0467 165.289 52.3783 165.082 52.805C164.875 53.2317 164.772 53.7283 164.772 54.295C164.772 54.8517 164.872 55.345 165.072 55.775C165.275 56.205 165.567 56.5417 165.947 56.785C166.33 57.0283 166.79 57.15 167.327 57.15ZM167.327 56.445C166.744 56.445 166.302 56.25 166.002 55.86C165.702 55.4667 165.552 54.945 165.552 54.295C165.552 53.665 165.697 53.1517 165.987 52.755C166.277 52.355 166.724 52.155 167.327 52.155C167.924 52.155 168.369 52.35 168.662 52.74C168.959 53.1267 169.107 53.645 169.107 54.295C169.107 54.9317 168.96 55.45 168.667 55.85C168.374 56.2467 167.927 56.445 167.327 56.445ZM170.985 57H171.73V54.4L174.38 57H175.45L172.59 54.3L175.12 51.6H174.14L171.73 54.2V49.8H170.99L170.985 57ZM178.138 57.15C178.662 57.15 179.13 57.0217 179.543 56.765C179.96 56.5083 180.275 56.1433 180.488 55.67L179.803 55.405C179.46 56.0983 178.895 56.445 178.108 56.445C177.568 56.445 177.145 56.2767 176.838 55.94C176.535 55.6033 176.368 55.125 176.338 54.505H180.593C180.62 53.5517 180.412 52.805 179.968 52.265C179.528 51.7217 178.908 51.45 178.108 51.45C177.588 51.45 177.137 51.5667 176.753 51.8C176.373 52.0333 176.078 52.365 175.868 52.795C175.658 53.225 175.553 53.735 175.553 54.325C175.553 54.895 175.658 55.3917 175.868 55.815C176.082 56.2383 176.382 56.5667 176.768 56.8C177.158 57.0333 177.615 57.15 178.138 57.15ZM178.128 52.125C179.145 52.125 179.71 52.7133 179.823 53.89H176.353C176.41 53.32 176.59 52.8833 176.893 52.58C177.197 52.2767 177.608 52.125 178.128 52.125ZM181.551 57H182.291V54.12C182.291 53.51 182.428 53.0317 182.701 52.685C182.975 52.3383 183.371 52.165 183.891 52.165C184.268 52.165 184.571 52.2567 184.801 52.44C185.031 52.62 185.198 52.8667 185.301 53.18C185.405 53.4933 185.456 53.8483 185.456 54.245V57H186.196V54.03C186.196 53.7267 186.158 53.4233 186.081 53.12C186.008 52.8167 185.888 52.54 185.721 52.29C185.555 52.04 185.333 51.84 185.056 51.69C184.78 51.54 184.438 51.465 184.031 51.465C183.645 51.465 183.295 51.54 182.981 51.69C182.671 51.8367 182.416 52.0567 182.216 52.35V51.6H181.551V57Z" fill="white"></path> <path d="M455.7 89H456.435V86.265H458.48C458.547 86.265 458.625 86.2617 458.715 86.255C458.805 86.2483 458.895 86.2383 458.985 86.225C459.545 86.1383 459.977 85.8917 460.28 85.485C460.587 85.0783 460.74 84.595 460.74 84.035C460.74 83.4717 460.588 82.9867 460.285 82.58C459.982 82.1733 459.548 81.9267 458.985 81.84C458.895 81.8233 458.805 81.8133 458.715 81.81C458.628 81.8033 458.55 81.8 458.48 81.8H455.7V89ZM456.435 85.565V82.505H458.46C458.52 82.505 458.59 82.5083 458.67 82.515C458.753 82.5183 458.832 82.5283 458.905 82.545C459.275 82.625 459.547 82.81 459.72 83.1C459.897 83.3867 459.985 83.6983 459.985 84.035C459.985 84.3683 459.897 84.68 459.72 84.97C459.547 85.26 459.275 85.4433 458.905 85.52C458.832 85.5367 458.753 85.5483 458.67 85.555C458.59 85.5617 458.52 85.565 458.46 85.565H456.435ZM463.951 89.15C464.484 89.15 464.941 89.03 465.321 88.79C465.704 88.55 465.998 88.2167 466.201 87.79C466.408 87.36 466.511 86.8617 466.511 86.295C466.511 85.7383 466.409 85.2467 466.206 84.82C466.006 84.39 465.714 84.055 465.331 83.815C464.951 83.5717 464.491 83.45 463.951 83.45C463.424 83.45 462.969 83.57 462.586 83.81C462.206 84.0467 461.913 84.3783 461.706 84.805C461.499 85.2317 461.396 85.7283 461.396 86.295C461.396 86.8517 461.496 87.345 461.696 87.775C461.899 88.205 462.191 88.5417 462.571 88.785C462.954 89.0283 463.414 89.15 463.951 89.15ZM463.951 88.445C463.368 88.445 462.926 88.25 462.626 87.86C462.326 87.4667 462.176 86.945 462.176 86.295C462.176 85.665 462.321 85.1517 462.611 84.755C462.901 84.355 463.348 84.155 463.951 84.155C464.548 84.155 464.993 84.35 465.286 84.74C465.583 85.1267 465.731 85.645 465.731 86.295C465.731 86.9317 465.584 87.45 465.291 87.85C464.998 88.2467 464.551 88.445 463.951 88.445ZM469.869 89.15C470.402 89.15 470.859 89.03 471.239 88.79C471.622 88.55 471.916 88.2167 472.119 87.79C472.326 87.36 472.429 86.8617 472.429 86.295C472.429 85.7383 472.327 85.2467 472.124 84.82C471.924 84.39 471.632 84.055 471.249 83.815C470.869 83.5717 470.409 83.45 469.869 83.45C469.342 83.45 468.887 83.57 468.504 83.81C468.124 84.0467 467.831 84.3783 467.624 84.805C467.417 85.2317 467.314 85.7283 467.314 86.295C467.314 86.8517 467.414 87.345 467.614 87.775C467.817 88.205 468.109 88.5417 468.489 88.785C468.872 89.0283 469.332 89.15 469.869 89.15ZM469.869 88.445C469.286 88.445 468.844 88.25 468.544 87.86C468.244 87.4667 468.094 86.945 468.094 86.295C468.094 85.665 468.239 85.1517 468.529 84.755C468.819 84.355 469.266 84.155 469.869 84.155C470.466 84.155 470.911 84.35 471.204 84.74C471.501 85.1267 471.649 85.645 471.649 86.295C471.649 86.9317 471.502 87.45 471.209 87.85C470.916 88.2467 470.469 88.445 469.869 88.445ZM473.632 89H474.367V81.65H473.632V89ZM479.123 89H479.868V81.8H479.123L477.768 82.61V83.435L479.123 82.62V89ZM457.765 105.135C458.152 105.135 458.5 105.062 458.81 104.915C459.123 104.765 459.38 104.543 459.58 104.25V105H460.24V99.6H459.505V102.48C459.505 103.09 459.368 103.568 459.095 103.915C458.822 104.262 458.425 104.435 457.905 104.435C457.528 104.435 457.225 104.345 456.995 104.165C456.765 103.982 456.598 103.733 456.495 103.42C456.392 103.107 456.34 102.752 456.34 102.355V99.6H455.6V102.57C455.6 102.873 455.637 103.177 455.71 103.48C455.787 103.783 455.908 104.06 456.075 104.31C456.242 104.56 456.463 104.76 456.74 104.91C457.02 105.06 457.362 105.135 457.765 105.135ZM461.633 105H462.373V102.12C462.373 101.51 462.509 101.032 462.783 100.685C463.056 100.338 463.453 100.165 463.973 100.165C464.349 100.165 464.653 100.257 464.883 100.44C465.113 100.62 465.279 100.867 465.383 101.18C465.486 101.493 465.538 101.848 465.538 102.245V105H466.278V102.03C466.278 101.727 466.239 101.423 466.163 101.12C466.089 100.817 465.969 100.54 465.803 100.29C465.636 100.04 465.414 99.84 465.138 99.69C464.861 99.54 464.519 99.465 464.113 99.465C463.726 99.465 463.376 99.54 463.063 99.69C462.753 99.8367 462.498 100.057 462.298 100.35V99.6H461.633V105ZM469.631 105.15C470.024 105.15 470.369 105.07 470.666 104.91C470.963 104.747 471.208 104.525 471.401 104.245V105H472.061V97.8H471.321V100.235C471.124 99.9883 470.881 99.7967 470.591 99.66C470.304 99.52 469.974 99.45 469.601 99.45C469.108 99.45 468.684 99.575 468.331 99.825C467.978 100.075 467.706 100.415 467.516 100.845C467.329 101.275 467.236 101.758 467.236 102.295C467.236 102.835 467.329 103.32 467.516 103.75C467.706 104.18 467.979 104.522 468.336 104.775C468.696 105.025 469.128 105.15 469.631 105.15ZM469.706 104.465C469.333 104.465 469.019 104.37 468.766 104.18C468.516 103.987 468.328 103.727 468.201 103.4C468.078 103.073 468.016 102.705 468.016 102.295C468.016 101.888 468.078 101.522 468.201 101.195C468.324 100.868 468.511 100.61 468.761 100.42C469.014 100.23 469.334 100.135 469.721 100.135C470.284 100.135 470.704 100.337 470.981 100.74C471.261 101.14 471.401 101.658 471.401 102.295C471.401 102.712 471.339 103.083 471.216 103.41C471.093 103.737 470.906 103.995 470.656 104.185C470.406 104.372 470.089 104.465 469.706 104.465ZM475.749 105.15C476.272 105.15 476.74 105.022 477.154 104.765C477.57 104.508 477.885 104.143 478.099 103.67L477.414 103.405C477.07 104.098 476.505 104.445 475.719 104.445C475.179 104.445 474.755 104.277 474.449 103.94C474.145 103.603 473.979 103.125 473.949 102.505H478.204C478.23 101.552 478.022 100.805 477.579 100.265C477.139 99.7217 476.519 99.45 475.719 99.45C475.199 99.45 474.747 99.5667 474.364 99.8C473.984 100.033 473.689 100.365 473.479 100.795C473.269 101.225 473.164 101.735 473.164 102.325C473.164 102.895 473.269 103.392 473.479 103.815C473.692 104.238 473.992 104.567 474.379 104.8C474.769 105.033 475.225 105.15 475.749 105.15ZM475.739 100.125C476.755 100.125 477.32 100.713 477.434 101.89H473.964C474.02 101.32 474.2 100.883 474.504 100.58C474.807 100.277 475.219 100.125 475.739 100.125ZM479.313 105H480.048V102.305C480.048 101.982 480.085 101.66 480.158 101.34C480.235 101.017 480.408 100.748 480.678 100.535C480.875 100.375 481.088 100.283 481.318 100.26C481.552 100.233 481.768 100.243 481.968 100.29V99.6C481.732 99.54 481.463 99.5383 481.163 99.595C480.863 99.6483 480.607 99.7683 480.393 99.955C480.233 100.075 480.093 100.242 479.973 100.455V99.6H479.313V105ZM483.017 105H483.752V97.65H483.017V105ZM486.021 107.4H486.756L489.656 99.6H488.906L487.271 104.04L485.496 99.6H484.716L486.911 104.985L486.021 107.4ZM490.624 98.575H491.359V97.75H490.624V98.575ZM490.624 105H491.359V99.6H490.624V105ZM492.853 105H493.593V102.12C493.593 101.51 493.73 101.032 494.003 100.685C494.277 100.338 494.673 100.165 495.193 100.165C495.57 100.165 495.873 100.257 496.103 100.44C496.333 100.62 496.5 100.867 496.603 101.18C496.707 101.493 496.758 101.848 496.758 102.245V105H497.498V102.03C497.498 101.727 497.46 101.423 497.383 101.12C497.31 100.817 497.19 100.54 497.023 100.29C496.857 100.04 496.635 99.84 496.358 99.69C496.082 99.54 495.74 99.465 495.333 99.465C494.947 99.465 494.597 99.54 494.283 99.69C493.973 99.8367 493.718 100.057 493.518 100.35V99.6H492.853V105ZM500.891 105.15C501.254 105.15 501.577 105.08 501.861 104.94C502.144 104.8 502.382 104.607 502.576 104.36V104.915C502.579 105.548 502.454 106.027 502.201 106.35C501.947 106.673 501.527 106.835 500.941 106.835C500.657 106.835 500.379 106.768 500.106 106.635C499.832 106.505 499.622 106.29 499.476 105.99L498.811 106.36C499.041 106.78 499.349 107.083 499.736 107.27C500.126 107.457 500.527 107.55 500.941 107.55C501.601 107.55 502.127 107.407 502.521 107.12C502.914 106.833 503.159 106.388 503.256 105.785C503.279 105.648 503.294 105.508 503.301 105.365C503.311 105.225 503.316 105.078 503.316 104.925V99.6H502.661V100.345C502.464 100.065 502.214 99.8467 501.911 99.69C501.611 99.53 501.261 99.45 500.861 99.45C500.367 99.45 499.944 99.575 499.591 99.825C499.237 100.075 498.966 100.415 498.776 100.845C498.589 101.275 498.496 101.758 498.496 102.295C498.496 102.835 498.589 103.32 498.776 103.75C498.966 104.18 499.239 104.522 499.596 104.775C499.956 105.025 500.387 105.15 500.891 105.15ZM500.966 104.465C500.592 104.465 500.279 104.37 500.026 104.18C499.776 103.987 499.587 103.727 499.461 103.4C499.337 103.073 499.276 102.705 499.276 102.295C499.276 101.888 499.337 101.522 499.461 101.195C499.584 100.868 499.771 100.61 500.021 100.42C500.274 100.23 500.594 100.135 500.981 100.135C501.544 100.135 501.964 100.337 502.241 100.74C502.521 101.14 502.661 101.658 502.661 102.295C502.661 102.712 502.599 103.083 502.476 103.41C502.352 103.737 502.166 103.995 501.916 104.185C501.666 104.372 501.349 104.465 500.966 104.465ZM457.615 121H458.35V114.505H460.865V113.8H455.1V114.505H457.615V121ZM463.121 121.15C463.654 121.15 464.111 121.03 464.491 120.79C464.874 120.55 465.168 120.217 465.371 119.79C465.578 119.36 465.681 118.862 465.681 118.295C465.681 117.738 465.579 117.247 465.376 116.82C465.176 116.39 464.884 116.055 464.501 115.815C464.121 115.572 463.661 115.45 463.121 115.45C462.594 115.45 462.139 115.57 461.756 115.81C461.376 116.047 461.083 116.378 460.876 116.805C460.669 117.232 460.566 117.728 460.566 118.295C460.566 118.852 460.666 119.345 460.866 119.775C461.069 120.205 461.361 120.542 461.741 120.785C462.124 121.028 462.584 121.15 463.121 121.15ZM463.121 120.445C462.538 120.445 462.096 120.25 461.796 119.86C461.496 119.467 461.346 118.945 461.346 118.295C461.346 117.665 461.491 117.152 461.781 116.755C462.071 116.355 462.518 116.155 463.121 116.155C463.718 116.155 464.163 116.35 464.456 116.74C464.753 117.127 464.901 117.645 464.901 118.295C464.901 118.932 464.754 119.45 464.461 119.85C464.168 120.247 463.721 120.445 463.121 120.445ZM466.779 121H467.524V118.4L470.174 121H471.244L468.384 118.3L470.914 115.6H469.934L467.524 118.2V113.8H466.784L466.779 121ZM473.932 121.15C474.456 121.15 474.924 121.022 475.337 120.765C475.754 120.508 476.069 120.143 476.282 119.67L475.597 119.405C475.254 120.098 474.689 120.445 473.902 120.445C473.362 120.445 472.939 120.277 472.632 119.94C472.329 119.603 472.162 119.125 472.132 118.505H476.387C476.414 117.552 476.206 116.805 475.762 116.265C475.322 115.722 474.702 115.45 473.902 115.45C473.382 115.45 472.931 115.567 472.547 115.8C472.167 116.033 471.872 116.365 471.662 116.795C471.452 117.225 471.347 117.735 471.347 118.325C471.347 118.895 471.452 119.392 471.662 119.815C471.876 120.238 472.176 120.567 472.562 120.8C472.952 121.033 473.409 121.15 473.932 121.15ZM473.922 116.125C474.939 116.125 475.504 116.713 475.617 117.89H472.147C472.204 117.32 472.384 116.883 472.687 116.58C472.991 116.277 473.402 116.125 473.922 116.125ZM477.345 121H478.085V118.12C478.085 117.51 478.222 117.032 478.495 116.685C478.769 116.338 479.165 116.165 479.685 116.165C480.062 116.165 480.365 116.257 480.595 116.44C480.825 116.62 480.992 116.867 481.095 117.18C481.199 117.493 481.25 117.848 481.25 118.245V121H481.99V118.03C481.99 117.727 481.952 117.423 481.875 117.12C481.802 116.817 481.682 116.54 481.515 116.29C481.349 116.04 481.127 115.84 480.85 115.69C480.574 115.54 480.232 115.465 479.825 115.465C479.439 115.465 479.089 115.54 478.775 115.69C478.465 115.837 478.21 116.057 478.01 116.35V115.6H477.345V121Z" fill="white"></path> <path d="M411 68C410.448 68 410 68.4477 410 69C410 69.5523 410.448 70 411 70V68ZM442 149L447.774 139H436.226L442 149ZM411 70H432V68H411V70ZM441 79V140H443V79H441ZM432 70C436.971 70 441 74.0294 441 79H443C443 72.9249 438.075 68 432 68V70Z" fill="url(#paint3_linear)" fill-opacity="0.9"></path> <path d="M389 206C389.552 206 390 205.552 390 205C390 204.448 389.552 204 389 204V206ZM309 205L319 210.774V199.226L309 205ZM389 204H318V206H389V204Z" fill="url(#paint4_linear)" fill-opacity="0.9"></path> <path d="M334.264 161H334.999V158.265H337.044C337.111 158.265 337.189 158.262 337.279 158.255C337.369 158.248 337.459 158.238 337.549 158.225C338.109 158.138 338.541 157.892 338.844 157.485C339.151 157.078 339.304 156.595 339.304 156.035C339.304 155.472 339.153 154.987 338.849 154.58C338.546 154.173 338.113 153.927 337.549 153.84C337.459 153.823 337.369 153.813 337.279 153.81C337.193 153.803 337.114 153.8 337.044 153.8H334.264V161ZM334.999 157.565V154.505H337.024C337.084 154.505 337.154 154.508 337.234 154.515C337.318 154.518 337.396 154.528 337.469 154.545C337.839 154.625 338.111 154.81 338.284 155.1C338.461 155.387 338.549 155.698 338.549 156.035C338.549 156.368 338.461 156.68 338.284 156.97C338.111 157.26 337.839 157.443 337.469 157.52C337.396 157.537 337.318 157.548 337.234 157.555C337.154 157.562 337.084 157.565 337.024 157.565H334.999ZM342.516 161.15C343.049 161.15 343.506 161.03 343.886 160.79C344.269 160.55 344.562 160.217 344.766 159.79C344.972 159.36 345.076 158.862 345.076 158.295C345.076 157.738 344.974 157.247 344.771 156.82C344.571 156.39 344.279 156.055 343.896 155.815C343.516 155.572 343.056 155.45 342.516 155.45C341.989 155.45 341.534 155.57 341.151 155.81C340.771 156.047 340.477 156.378 340.271 156.805C340.064 157.232 339.961 157.728 339.961 158.295C339.961 158.852 340.061 159.345 340.261 159.775C340.464 160.205 340.756 160.542 341.136 160.785C341.519 161.028 341.979 161.15 342.516 161.15ZM342.516 160.445C341.932 160.445 341.491 160.25 341.191 159.86C340.891 159.467 340.741 158.945 340.741 158.295C340.741 157.665 340.886 157.152 341.176 156.755C341.466 156.355 341.912 156.155 342.516 156.155C343.112 156.155 343.557 156.35 343.851 156.74C344.147 157.127 344.296 157.645 344.296 158.295C344.296 158.932 344.149 159.45 343.856 159.85C343.562 160.247 343.116 160.445 342.516 160.445ZM348.434 161.15C348.967 161.15 349.424 161.03 349.804 160.79C350.187 160.55 350.48 160.217 350.684 159.79C350.89 159.36 350.994 158.862 350.994 158.295C350.994 157.738 350.892 157.247 350.689 156.82C350.489 156.39 350.197 156.055 349.814 155.815C349.434 155.572 348.974 155.45 348.434 155.45C347.907 155.45 347.452 155.57 347.069 155.81C346.689 156.047 346.395 156.378 346.189 156.805C345.982 157.232 345.879 157.728 345.879 158.295C345.879 158.852 345.979 159.345 346.179 159.775C346.382 160.205 346.674 160.542 347.054 160.785C347.437 161.028 347.897 161.15 348.434 161.15ZM348.434 160.445C347.85 160.445 347.409 160.25 347.109 159.86C346.809 159.467 346.659 158.945 346.659 158.295C346.659 157.665 346.804 157.152 347.094 156.755C347.384 156.355 347.83 156.155 348.434 156.155C349.03 156.155 349.475 156.35 349.769 156.74C350.065 157.127 350.214 157.645 350.214 158.295C350.214 158.932 350.067 159.45 349.774 159.85C349.48 160.247 349.034 160.445 348.434 160.445ZM352.196 161H352.931V153.65H352.196V161ZM356.232 160.995H360.932V160.29H357.352L359.912 157.98C360.262 157.667 360.519 157.363 360.682 157.07C360.849 156.777 360.932 156.403 360.932 155.95C360.932 155.52 360.831 155.132 360.627 154.785C360.427 154.438 360.152 154.163 359.802 153.96C359.456 153.753 359.064 153.65 358.627 153.65C358.184 153.65 357.784 153.75 357.427 153.95C357.074 154.147 356.794 154.418 356.587 154.765C356.381 155.108 356.277 155.5 356.277 155.94H357.027C357.024 155.657 357.091 155.395 357.227 155.155C357.367 154.915 357.557 154.722 357.797 154.575C358.037 154.428 358.311 154.355 358.617 154.355C358.914 154.355 359.181 154.427 359.417 154.57C359.654 154.71 359.841 154.9 359.977 155.14C360.117 155.38 360.187 155.648 360.187 155.945C360.187 156.195 360.141 156.435 360.047 156.665C359.954 156.895 359.769 157.135 359.492 157.385L356.237 160.325L356.232 160.995ZM325.758 177.135C326.145 177.135 326.493 177.062 326.803 176.915C327.116 176.765 327.373 176.543 327.573 176.25V177H328.233V171.6H327.498V174.48C327.498 175.09 327.361 175.568 327.088 175.915C326.815 176.262 326.418 176.435 325.898 176.435C325.521 176.435 325.218 176.345 324.988 176.165C324.758 175.982 324.591 175.733 324.488 175.42C324.385 175.107 324.333 174.752 324.333 174.355V171.6H323.593V174.57C323.593 174.873 323.63 175.177 323.703 175.48C323.78 175.783 323.901 176.06 324.068 176.31C324.235 176.56 324.456 176.76 324.733 176.91C325.013 177.06 325.355 177.135 325.758 177.135ZM329.626 177H330.366V174.12C330.366 173.51 330.502 173.032 330.776 172.685C331.049 172.338 331.446 172.165 331.966 172.165C332.342 172.165 332.646 172.257 332.876 172.44C333.106 172.62 333.272 172.867 333.376 173.18C333.479 173.493 333.531 173.848 333.531 174.245V177H334.271V174.03C334.271 173.727 334.232 173.423 334.156 173.12C334.082 172.817 333.962 172.54 333.796 172.29C333.629 172.04 333.407 171.84 333.131 171.69C332.854 171.54 332.512 171.465 332.106 171.465C331.719 171.465 331.369 171.54 331.056 171.69C330.746 171.837 330.491 172.057 330.291 172.35V171.6H329.626V177ZM337.624 177.15C338.017 177.15 338.362 177.07 338.659 176.91C338.956 176.747 339.201 176.525 339.394 176.245V177H340.054V169.8H339.314V172.235C339.117 171.988 338.874 171.797 338.584 171.66C338.297 171.52 337.967 171.45 337.594 171.45C337.101 171.45 336.677 171.575 336.324 171.825C335.971 172.075 335.699 172.415 335.509 172.845C335.322 173.275 335.229 173.758 335.229 174.295C335.229 174.835 335.322 175.32 335.509 175.75C335.699 176.18 335.972 176.522 336.329 176.775C336.689 177.025 337.121 177.15 337.624 177.15ZM337.699 176.465C337.326 176.465 337.012 176.37 336.759 176.18C336.509 175.987 336.321 175.727 336.194 175.4C336.071 175.073 336.009 174.705 336.009 174.295C336.009 173.888 336.071 173.522 336.194 173.195C336.317 172.868 336.504 172.61 336.754 172.42C337.007 172.23 337.327 172.135 337.714 172.135C338.277 172.135 338.697 172.337 338.974 172.74C339.254 173.14 339.394 173.658 339.394 174.295C339.394 174.712 339.332 175.083 339.209 175.41C339.086 175.737 338.899 175.995 338.649 176.185C338.399 176.372 338.082 176.465 337.699 176.465ZM343.742 177.15C344.265 177.15 344.734 177.022 345.147 176.765C345.564 176.508 345.879 176.143 346.092 175.67L345.407 175.405C345.064 176.098 344.499 176.445 343.712 176.445C343.172 176.445 342.749 176.277 342.442 175.94C342.139 175.603 341.972 175.125 341.942 174.505H346.197C346.224 173.552 346.015 172.805 345.572 172.265C345.132 171.722 344.512 171.45 343.712 171.45C343.192 171.45 342.74 171.567 342.357 171.8C341.977 172.033 341.682 172.365 341.472 172.795C341.262 173.225 341.157 173.735 341.157 174.325C341.157 174.895 341.262 175.392 341.472 175.815C341.685 176.238 341.985 176.567 342.372 176.8C342.762 177.033 343.219 177.15 343.742 177.15ZM343.732 172.125C344.749 172.125 345.314 172.713 345.427 173.89H341.957C342.014 173.32 342.194 172.883 342.497 172.58C342.8 172.277 343.212 172.125 343.732 172.125ZM347.306 177H348.041V174.305C348.041 173.982 348.078 173.66 348.151 173.34C348.228 173.017 348.401 172.748 348.671 172.535C348.868 172.375 349.081 172.283 349.311 172.26C349.545 172.233 349.761 172.243 349.961 172.29V171.6C349.725 171.54 349.456 171.538 349.156 171.595C348.856 171.648 348.6 171.768 348.386 171.955C348.226 172.075 348.086 172.242 347.966 172.455V171.6H347.306V177ZM351.01 177H351.745V169.65H351.01V177ZM354.014 179.4H354.749L357.649 171.6H356.899L355.264 176.04L353.489 171.6H352.709L354.904 176.985L354.014 179.4ZM358.617 170.575H359.352V169.75H358.617V170.575ZM358.617 177H359.352V171.6H358.617V177ZM360.846 177H361.586V174.12C361.586 173.51 361.723 173.032 361.996 172.685C362.27 172.338 362.666 172.165 363.186 172.165C363.563 172.165 363.866 172.257 364.096 172.44C364.326 172.62 364.493 172.867 364.596 173.18C364.7 173.493 364.751 173.848 364.751 174.245V177H365.491V174.03C365.491 173.727 365.453 173.423 365.376 173.12C365.303 172.817 365.183 172.54 365.016 172.29C364.85 172.04 364.628 171.84 364.351 171.69C364.075 171.54 363.733 171.465 363.326 171.465C362.94 171.465 362.59 171.54 362.276 171.69C361.966 171.837 361.711 172.057 361.511 172.35V171.6H360.846V177ZM368.884 177.15C369.247 177.15 369.571 177.08 369.854 176.94C370.137 176.8 370.376 176.607 370.569 176.36V176.915C370.572 177.548 370.447 178.027 370.194 178.35C369.941 178.673 369.521 178.835 368.934 178.835C368.651 178.835 368.372 178.768 368.099 178.635C367.826 178.505 367.616 178.29 367.469 177.99L366.804 178.36C367.034 178.78 367.342 179.083 367.729 179.27C368.119 179.457 368.521 179.55 368.934 179.55C369.594 179.55 370.121 179.407 370.514 179.12C370.907 178.833 371.152 178.388 371.249 177.785C371.272 177.648 371.287 177.508 371.294 177.365C371.304 177.225 371.309 177.078 371.309 176.925V171.6H370.654V172.345C370.457 172.065 370.207 171.847 369.904 171.69C369.604 171.53 369.254 171.45 368.854 171.45C368.361 171.45 367.937 171.575 367.584 171.825C367.231 172.075 366.959 172.415 366.769 172.845C366.582 173.275 366.489 173.758 366.489 174.295C366.489 174.835 366.582 175.32 366.769 175.75C366.959 176.18 367.232 176.522 367.589 176.775C367.949 177.025 368.381 177.15 368.884 177.15ZM368.959 176.465C368.586 176.465 368.272 176.37 368.019 176.18C367.769 175.987 367.581 175.727 367.454 175.4C367.331 175.073 367.269 174.705 367.269 174.295C367.269 173.888 367.331 173.522 367.454 173.195C367.577 172.868 367.764 172.61 368.014 172.42C368.267 172.23 368.587 172.135 368.974 172.135C369.537 172.135 369.957 172.337 370.234 172.74C370.514 173.14 370.654 173.658 370.654 174.295C370.654 174.712 370.592 175.083 370.469 175.41C370.346 175.737 370.159 175.995 369.909 176.185C369.659 176.372 369.342 176.465 368.959 176.465ZM336.321 193H337.056V186.505H339.571V185.8H333.806V186.505H336.321V193ZM341.827 193.15C342.36 193.15 342.817 193.03 343.197 192.79C343.58 192.55 343.874 192.217 344.077 191.79C344.284 191.36 344.387 190.862 344.387 190.295C344.387 189.738 344.285 189.247 344.082 188.82C343.882 188.39 343.59 188.055 343.207 187.815C342.827 187.572 342.367 187.45 341.827 187.45C341.3 187.45 340.845 187.57 340.462 187.81C340.082 188.047 339.789 188.378 339.582 188.805C339.375 189.232 339.272 189.728 339.272 190.295C339.272 190.852 339.372 191.345 339.572 191.775C339.775 192.205 340.067 192.542 340.447 192.785C340.83 193.028 341.29 193.15 341.827 193.15ZM341.827 192.445C341.244 192.445 340.802 192.25 340.502 191.86C340.202 191.467 340.052 190.945 340.052 190.295C340.052 189.665 340.197 189.152 340.487 188.755C340.777 188.355 341.224 188.155 341.827 188.155C342.424 188.155 342.869 188.35 343.162 188.74C343.459 189.127 343.607 189.645 343.607 190.295C343.607 190.932 343.46 191.45 343.167 191.85C342.874 192.247 342.427 192.445 341.827 192.445ZM345.485 193H346.23V190.4L348.88 193H349.95L347.09 190.3L349.62 187.6H348.64L346.23 190.2V185.8H345.49L345.485 193ZM352.638 193.15C353.162 193.15 353.63 193.022 354.043 192.765C354.46 192.508 354.775 192.143 354.988 191.67L354.303 191.405C353.96 192.098 353.395 192.445 352.608 192.445C352.068 192.445 351.645 192.277 351.338 191.94C351.035 191.603 350.868 191.125 350.838 190.505H355.093C355.12 189.552 354.912 188.805 354.468 188.265C354.028 187.722 353.408 187.45 352.608 187.45C352.088 187.45 351.637 187.567 351.253 187.8C350.873 188.033 350.578 188.365 350.368 188.795C350.158 189.225 350.053 189.735 350.053 190.325C350.053 190.895 350.158 191.392 350.368 191.815C350.582 192.238 350.882 192.567 351.268 192.8C351.658 193.033 352.115 193.15 352.638 193.15ZM352.628 188.125C353.645 188.125 354.21 188.713 354.323 189.89H350.853C350.91 189.32 351.09 188.883 351.393 188.58C351.697 188.277 352.108 188.125 352.628 188.125ZM356.051 193H356.791V190.12C356.791 189.51 356.928 189.032 357.201 188.685C357.475 188.338 357.871 188.165 358.391 188.165C358.768 188.165 359.071 188.257 359.301 188.44C359.531 188.62 359.698 188.867 359.801 189.18C359.905 189.493 359.956 189.848 359.956 190.245V193H360.696V190.03C360.696 189.727 360.658 189.423 360.581 189.12C360.508 188.817 360.388 188.54 360.221 188.29C360.055 188.04 359.833 187.84 359.556 187.69C359.28 187.54 358.938 187.465 358.531 187.465C358.145 187.465 357.795 187.54 357.481 187.69C357.171 187.837 356.916 188.057 356.716 188.35V187.6H356.051V193Z" fill="white"></path> <rect x="31.2" y="21.2" width="95.6" height="95.6" rx="3.8" fill="#282726" stroke="url(#paint5_linear)" stroke-width="0.4"></rect> <path d="M67.1317 74H68.9377L71.7457 65.36H70.4437L68.0197 72.734L65.6257 65.36H64.3237L67.1317 74ZM73.9415 74.18C74.9735 74.18 75.7515 73.806 76.2755 73.058V74H77.3855V70.01C77.3855 69.738 77.3735 69.484 77.3495 69.248C77.3255 69.012 77.2615 68.788 77.1575 68.576C76.9575 68.148 76.6415 67.836 76.2095 67.64C75.7815 67.44 75.2775 67.34 74.6975 67.34C73.9495 67.34 73.3495 67.504 72.8975 67.832C72.4455 68.16 72.1415 68.602 71.9855 69.158L73.1555 69.518C73.2675 69.158 73.4655 68.898 73.7495 68.738C74.0335 68.578 74.3455 68.498 74.6855 68.498C75.1895 68.498 75.5535 68.606 75.7775 68.822C76.0055 69.034 76.1295 69.364 76.1495 69.812C75.6215 69.884 75.1055 69.96 74.6015 70.04C74.0975 70.116 73.6575 70.208 73.2815 70.316C72.7815 70.476 72.4015 70.714 72.1415 71.03C71.8815 71.346 71.7515 71.748 71.7515 72.236C71.7515 72.588 71.8335 72.912 71.9975 73.208C72.1655 73.5 72.4115 73.736 72.7355 73.916C73.0635 74.092 73.4655 74.18 73.9415 74.18ZM74.1635 73.154C73.7635 73.154 73.4675 73.062 73.2755 72.878C73.0875 72.694 72.9935 72.476 72.9935 72.224C72.9935 71.968 73.0775 71.766 73.2455 71.618C73.4175 71.47 73.6315 71.352 73.8875 71.264C74.1595 71.184 74.4795 71.114 74.8475 71.054C75.2195 70.994 75.6495 70.928 76.1375 70.856C76.1335 71.008 76.1235 71.178 76.1075 71.366C76.0915 71.554 76.0575 71.722 76.0055 71.87C75.9575 72.082 75.8555 72.286 75.6995 72.482C75.5475 72.678 75.3415 72.84 75.0815 72.968C74.8255 73.092 74.5195 73.154 74.1635 73.154ZM81.3855 74.174C81.8535 74.174 82.2675 74.09 82.6275 73.922C82.9915 73.754 83.2915 73.522 83.5275 73.226V74H84.6435V67.52H83.3775V70.892C83.3775 71.404 83.3035 71.814 83.1555 72.122C83.0075 72.426 82.8075 72.646 82.5555 72.782C82.3075 72.918 82.0335 72.986 81.7335 72.986C81.3895 72.986 81.1095 72.916 80.8935 72.776C80.6775 72.636 80.5115 72.452 80.3955 72.224C80.2795 71.996 80.1995 71.75 80.1555 71.486C80.1155 71.218 80.0955 70.958 80.0955 70.706V67.52H78.8235V71.12C78.8235 71.32 78.8415 71.552 78.8775 71.816C78.9135 72.08 78.9815 72.35 79.0815 72.626C79.1815 72.902 79.3255 73.158 79.5135 73.394C79.7055 73.626 79.9535 73.814 80.2575 73.958C80.5615 74.102 80.9375 74.174 81.3855 74.174ZM86.4463 74H87.7003V65.18H86.4463V74ZM93.2101 74V72.938C92.7861 73.002 92.4161 73.016 92.1001 72.98C91.7881 72.94 91.5601 72.798 91.4161 72.554C91.3401 72.422 91.2981 72.26 91.2901 72.068C91.2861 71.876 91.2841 71.65 91.2841 71.39V68.528H93.2101V67.52H91.2841V65.72H90.0241V67.52H88.7821V68.528H90.0241V71.45C90.0241 71.802 90.0281 72.118 90.0361 72.398C90.0481 72.674 90.1241 72.946 90.2641 73.214C90.4241 73.514 90.6581 73.734 90.9661 73.874C91.2741 74.014 91.6241 74.09 92.0161 74.102C92.4081 74.114 92.8061 74.08 93.2101 74Z" fill="white"></path> <path d="M429.168 209H429.903V206.265H431.948C432.014 206.265 432.093 206.262 432.183 206.255C432.273 206.248 432.363 206.238 432.453 206.225C433.013 206.138 433.444 205.892 433.748 205.485C434.054 205.078 434.208 204.595 434.208 204.035C434.208 203.472 434.056 202.987 433.753 202.58C433.449 202.173 433.016 201.927 432.453 201.84C432.363 201.823 432.273 201.813 432.183 201.81C432.096 201.803 432.018 201.8 431.948 201.8H429.168V209ZM429.903 205.565V202.505H431.928C431.988 202.505 432.058 202.508 432.138 202.515C432.221 202.518 432.299 202.528 432.373 202.545C432.743 202.625 433.014 202.81 433.188 203.1C433.364 203.387 433.453 203.698 433.453 204.035C433.453 204.368 433.364 204.68 433.188 204.97C433.014 205.26 432.743 205.443 432.373 205.52C432.299 205.537 432.221 205.548 432.138 205.555C432.058 205.562 431.988 205.565 431.928 205.565H429.903ZM437.419 209.15C437.952 209.15 438.409 209.03 438.789 208.79C439.172 208.55 439.466 208.217 439.669 207.79C439.876 207.36 439.979 206.862 439.979 206.295C439.979 205.738 439.877 205.247 439.674 204.82C439.474 204.39 439.182 204.055 438.799 203.815C438.419 203.572 437.959 203.45 437.419 203.45C436.892 203.45 436.437 203.57 436.054 203.81C435.674 204.047 435.381 204.378 435.174 204.805C434.967 205.232 434.864 205.728 434.864 206.295C434.864 206.852 434.964 207.345 435.164 207.775C435.367 208.205 435.659 208.542 436.039 208.785C436.422 209.028 436.882 209.15 437.419 209.15ZM437.419 208.445C436.836 208.445 436.394 208.25 436.094 207.86C435.794 207.467 435.644 206.945 435.644 206.295C435.644 205.665 435.789 205.152 436.079 204.755C436.369 204.355 436.816 204.155 437.419 204.155C438.016 204.155 438.461 204.35 438.754 204.74C439.051 205.127 439.199 205.645 439.199 206.295C439.199 206.932 439.052 207.45 438.759 207.85C438.466 208.247 438.019 208.445 437.419 208.445ZM443.337 209.15C443.87 209.15 444.327 209.03 444.707 208.79C445.09 208.55 445.384 208.217 445.587 207.79C445.794 207.36 445.897 206.862 445.897 206.295C445.897 205.738 445.795 205.247 445.592 204.82C445.392 204.39 445.1 204.055 444.717 203.815C444.337 203.572 443.877 203.45 443.337 203.45C442.81 203.45 442.355 203.57 441.972 203.81C441.592 204.047 441.299 204.378 441.092 204.805C440.885 205.232 440.782 205.728 440.782 206.295C440.782 206.852 440.882 207.345 441.082 207.775C441.285 208.205 441.577 208.542 441.957 208.785C442.34 209.028 442.8 209.15 443.337 209.15ZM443.337 208.445C442.754 208.445 442.312 208.25 442.012 207.86C441.712 207.467 441.562 206.945 441.562 206.295C441.562 205.665 441.707 205.152 441.997 204.755C442.287 204.355 442.734 204.155 443.337 204.155C443.934 204.155 444.379 204.35 444.672 204.74C444.969 205.127 445.117 205.645 445.117 206.295C445.117 206.932 444.97 207.45 444.677 207.85C444.384 208.247 443.937 208.445 443.337 208.445ZM447.1 209H447.835V201.65H447.1V209ZM452.591 209H453.336V201.8H452.591L451.236 202.61V203.435L452.591 202.62V209Z" fill="white"></path> <circle cx="442" cy="204" r="41.5" stroke="#13CDF9"></circle> <path d="M241.764 210H242.499V207.265H244.544C244.611 207.265 244.689 207.262 244.779 207.255C244.869 207.248 244.959 207.238 245.049 207.225C245.609 207.138 246.041 206.892 246.344 206.485C246.651 206.078 246.804 205.595 246.804 205.035C246.804 204.472 246.653 203.987 246.349 203.58C246.046 203.173 245.613 202.927 245.049 202.84C244.959 202.823 244.869 202.813 244.779 202.81C244.693 202.803 244.614 202.8 244.544 202.8H241.764V210ZM242.499 206.565V203.505H244.524C244.584 203.505 244.654 203.508 244.734 203.515C244.818 203.518 244.896 203.528 244.969 203.545C245.339 203.625 245.611 203.81 245.784 204.1C245.961 204.387 246.049 204.698 246.049 205.035C246.049 205.368 245.961 205.68 245.784 205.97C245.611 206.26 245.339 206.443 244.969 206.52C244.896 206.537 244.818 206.548 244.734 206.555C244.654 206.562 244.584 206.565 244.524 206.565H242.499ZM250.016 210.15C250.549 210.15 251.006 210.03 251.386 209.79C251.769 209.55 252.062 209.217 252.266 208.79C252.472 208.36 252.576 207.862 252.576 207.295C252.576 206.738 252.474 206.247 252.271 205.82C252.071 205.39 251.779 205.055 251.396 204.815C251.016 204.572 250.556 204.45 250.016 204.45C249.489 204.45 249.034 204.57 248.651 204.81C248.271 205.047 247.977 205.378 247.771 205.805C247.564 206.232 247.461 206.728 247.461 207.295C247.461 207.852 247.561 208.345 247.761 208.775C247.964 209.205 248.256 209.542 248.636 209.785C249.019 210.028 249.479 210.15 250.016 210.15ZM250.016 209.445C249.432 209.445 248.991 209.25 248.691 208.86C248.391 208.467 248.241 207.945 248.241 207.295C248.241 206.665 248.386 206.152 248.676 205.755C248.966 205.355 249.412 205.155 250.016 205.155C250.612 205.155 251.057 205.35 251.351 205.74C251.647 206.127 251.796 206.645 251.796 207.295C251.796 207.932 251.649 208.45 251.356 208.85C251.062 209.247 250.616 209.445 250.016 209.445ZM255.934 210.15C256.467 210.15 256.924 210.03 257.304 209.79C257.687 209.55 257.98 209.217 258.184 208.79C258.39 208.36 258.494 207.862 258.494 207.295C258.494 206.738 258.392 206.247 258.189 205.82C257.989 205.39 257.697 205.055 257.314 204.815C256.934 204.572 256.474 204.45 255.934 204.45C255.407 204.45 254.952 204.57 254.569 204.81C254.189 205.047 253.895 205.378 253.689 205.805C253.482 206.232 253.379 206.728 253.379 207.295C253.379 207.852 253.479 208.345 253.679 208.775C253.882 209.205 254.174 209.542 254.554 209.785C254.937 210.028 255.397 210.15 255.934 210.15ZM255.934 209.445C255.35 209.445 254.909 209.25 254.609 208.86C254.309 208.467 254.159 207.945 254.159 207.295C254.159 206.665 254.304 206.152 254.594 205.755C254.884 205.355 255.33 205.155 255.934 205.155C256.53 205.155 256.975 205.35 257.269 205.74C257.565 206.127 257.714 206.645 257.714 207.295C257.714 207.932 257.567 208.45 257.274 208.85C256.98 209.247 256.534 209.445 255.934 209.445ZM259.696 210H260.431V202.65H259.696V210ZM263.732 209.995H268.432V209.29H264.852L267.412 206.98C267.762 206.667 268.019 206.363 268.182 206.07C268.349 205.777 268.432 205.403 268.432 204.95C268.432 204.52 268.331 204.132 268.127 203.785C267.927 203.438 267.652 203.163 267.302 202.96C266.956 202.753 266.564 202.65 266.127 202.65C265.684 202.65 265.284 202.75 264.927 202.95C264.574 203.147 264.294 203.418 264.087 203.765C263.881 204.108 263.777 204.5 263.777 204.94H264.527C264.524 204.657 264.591 204.395 264.727 204.155C264.867 203.915 265.057 203.722 265.297 203.575C265.537 203.428 265.811 203.355 266.117 203.355C266.414 203.355 266.681 203.427 266.917 203.57C267.154 203.71 267.341 203.9 267.477 204.14C267.617 204.38 267.687 204.648 267.687 204.945C267.687 205.195 267.641 205.435 267.547 205.665C267.454 205.895 267.269 206.135 266.992 206.385L263.737 209.325L263.732 209.995Z" fill="white"></path> <circle cx="255" cy="205" r="41.5" stroke="#13CDF9"></circle> <defs> <linearGradient id="paint0_linear" x1="227" y1="23" x2="291.69" y2="127.227" gradientUnits="userSpaceOnUse"> <stop stop-color="#FBF9E9"></stop> <stop offset="1" stop-color="#6C2E49"></stop> </linearGradient> <linearGradient id="paint1_linear" x1="401" y1="23" x2="336.981" y2="128.546" gradientUnits="userSpaceOnUse"> <stop stop-color="#FBF9E9"></stop> <stop offset="1" stop-color="#6C2E49"></stop> </linearGradient> <linearGradient id="paint2_linear" x1="137" y1="69" x2="217.001" y2="69.1264" gradientUnits="userSpaceOnUse"> <stop stop-color="#13CDF9"></stop> <stop offset="1" stop-color="#F78774"></stop> </linearGradient> <linearGradient id="paint3_linear" x1="442" y1="69" x2="441.874" y2="149.001" gradientUnits="userSpaceOnUse"> <stop stop-color="#13CDF9"></stop> <stop offset="1" stop-color="#F78774"></stop> </linearGradient> <linearGradient id="paint4_linear" x1="389" y1="205" x2="308.999" y2="204.874" gradientUnits="userSpaceOnUse"> <stop stop-color="#13CDF9"></stop> <stop offset="1" stop-color="#F78774"></stop> </linearGradient> <linearGradient id="paint5_linear" x1="31" y1="21" x2="97.4699" y2="134.321" gradientUnits="userSpaceOnUse"> <stop stop-color="#857370"></stop> <stop offset="1" stop-color="#563440"></stop> </linearGradient> </defs> </svg> 