<?xml version="1.0" encoding="UTF-8"?> <svg xmlns="http://www.w3.org/2000/svg" width="538" height="260" viewBox="0 0 538 260" fill="none"> <rect x="0.5" y="0.5" width="537" height="231" rx="3.5" fill="#191919" stroke="#282726"></rect> <path d="M262.168 123H262.903V120.265H264.948C265.014 120.265 265.093 120.262 265.183 120.255C265.273 120.248 265.363 120.238 265.453 120.225C266.013 120.138 266.444 119.892 266.748 119.485C267.054 119.078 267.208 118.595 267.208 118.035C267.208 117.472 267.056 116.987 266.753 116.58C266.449 116.173 266.016 115.927 265.453 115.84C265.363 115.823 265.273 115.813 265.183 115.81C265.096 115.803 265.018 115.8 264.948 115.8H262.168V123ZM262.903 119.565V116.505H264.928C264.988 116.505 265.058 116.508 265.138 116.515C265.221 116.518 265.299 116.528 265.373 116.545C265.743 116.625 266.014 116.81 266.188 117.1C266.364 117.387 266.453 117.698 266.453 118.035C266.453 118.368 266.364 118.68 266.188 118.97C266.014 119.26 265.743 119.443 265.373 119.52C265.299 119.537 265.221 119.548 265.138 119.555C265.058 119.562 264.988 119.565 264.928 119.565H262.903ZM270.419 123.15C270.952 123.15 271.409 123.03 271.789 122.79C272.172 122.55 272.466 122.217 272.669 121.79C272.876 121.36 272.979 120.862 272.979 120.295C272.979 119.738 272.877 119.247 272.674 118.82C272.474 118.39 272.182 118.055 271.799 117.815C271.419 117.572 270.959 117.45 270.419 117.45C269.892 117.45 269.437 117.57 269.054 117.81C268.674 118.047 268.381 118.378 268.174 118.805C267.967 119.232 267.864 119.728 267.864 120.295C267.864 120.852 267.964 121.345 268.164 121.775C268.367 122.205 268.659 122.542 269.039 122.785C269.422 123.028 269.882 123.15 270.419 123.15ZM270.419 122.445C269.836 122.445 269.394 122.25 269.094 121.86C268.794 121.467 268.644 120.945 268.644 120.295C268.644 119.665 268.789 119.152 269.079 118.755C269.369 118.355 269.816 118.155 270.419 118.155C271.016 118.155 271.461 118.35 271.754 118.74C272.051 119.127 272.199 119.645 272.199 120.295C272.199 120.932 272.052 121.45 271.759 121.85C271.466 122.247 271.019 122.445 270.419 122.445ZM276.337 123.15C276.87 123.15 277.327 123.03 277.707 122.79C278.09 122.55 278.384 122.217 278.587 121.79C278.794 121.36 278.897 120.862 278.897 120.295C278.897 119.738 278.795 119.247 278.592 118.82C278.392 118.39 278.1 118.055 277.717 117.815C277.337 117.572 276.877 117.45 276.337 117.45C275.81 117.45 275.355 117.57 274.972 117.81C274.592 118.047 274.299 118.378 274.092 118.805C273.885 119.232 273.782 119.728 273.782 120.295C273.782 120.852 273.882 121.345 274.082 121.775C274.285 122.205 274.577 122.542 274.957 122.785C275.34 123.028 275.8 123.15 276.337 123.15ZM276.337 122.445C275.754 122.445 275.312 122.25 275.012 121.86C274.712 121.467 274.562 120.945 274.562 120.295C274.562 119.665 274.707 119.152 274.997 118.755C275.287 118.355 275.734 118.155 276.337 118.155C276.934 118.155 277.379 118.35 277.672 118.74C277.969 119.127 278.117 119.645 278.117 120.295C278.117 120.932 277.97 121.45 277.677 121.85C277.384 122.247 276.937 122.445 276.337 122.445ZM280.1 123H280.835V115.65H280.1V123ZM285.591 123H286.336V115.8H285.591L284.236 116.61V117.435L285.591 116.62V123Z" fill="white"></path> <circle cx="275" cy="118" r="41.5" stroke="#13CDF9"></circle> <path d="M445.264 123H445.999V120.265H448.044C448.111 120.265 448.189 120.262 448.279 120.255C448.369 120.248 448.459 120.238 448.549 120.225C449.109 120.138 449.541 119.892 449.844 119.485C450.151 119.078 450.304 118.595 450.304 118.035C450.304 117.472 450.153 116.987 449.849 116.58C449.546 116.173 449.113 115.927 448.549 115.84C448.459 115.823 448.369 115.813 448.279 115.81C448.193 115.803 448.114 115.8 448.044 115.8H445.264V123ZM445.999 119.565V116.505H448.024C448.084 116.505 448.154 116.508 448.234 116.515C448.318 116.518 448.396 116.528 448.469 116.545C448.839 116.625 449.111 116.81 449.284 117.1C449.461 117.387 449.549 117.698 449.549 118.035C449.549 118.368 449.461 118.68 449.284 118.97C449.111 119.26 448.839 119.443 448.469 119.52C448.396 119.537 448.318 119.548 448.234 119.555C448.154 119.562 448.084 119.565 448.024 119.565H445.999ZM453.516 123.15C454.049 123.15 454.506 123.03 454.886 122.79C455.269 122.55 455.562 122.217 455.766 121.79C455.972 121.36 456.076 120.862 456.076 120.295C456.076 119.738 455.974 119.247 455.771 118.82C455.571 118.39 455.279 118.055 454.896 117.815C454.516 117.572 454.056 117.45 453.516 117.45C452.989 117.45 452.534 117.57 452.151 117.81C451.771 118.047 451.477 118.378 451.271 118.805C451.064 119.232 450.961 119.728 450.961 120.295C450.961 120.852 451.061 121.345 451.261 121.775C451.464 122.205 451.756 122.542 452.136 122.785C452.519 123.028 452.979 123.15 453.516 123.15ZM453.516 122.445C452.932 122.445 452.491 122.25 452.191 121.86C451.891 121.467 451.741 120.945 451.741 120.295C451.741 119.665 451.886 119.152 452.176 118.755C452.466 118.355 452.912 118.155 453.516 118.155C454.112 118.155 454.557 118.35 454.851 118.74C455.147 119.127 455.296 119.645 455.296 120.295C455.296 120.932 455.149 121.45 454.856 121.85C454.562 122.247 454.116 122.445 453.516 122.445ZM459.434 123.15C459.967 123.15 460.424 123.03 460.804 122.79C461.187 122.55 461.48 122.217 461.684 121.79C461.89 121.36 461.994 120.862 461.994 120.295C461.994 119.738 461.892 119.247 461.689 118.82C461.489 118.39 461.197 118.055 460.814 117.815C460.434 117.572 459.974 117.45 459.434 117.45C458.907 117.45 458.452 117.57 458.069 117.81C457.689 118.047 457.395 118.378 457.189 118.805C456.982 119.232 456.879 119.728 456.879 120.295C456.879 120.852 456.979 121.345 457.179 121.775C457.382 122.205 457.674 122.542 458.054 122.785C458.437 123.028 458.897 123.15 459.434 123.15ZM459.434 122.445C458.85 122.445 458.409 122.25 458.109 121.86C457.809 121.467 457.659 120.945 457.659 120.295C457.659 119.665 457.804 119.152 458.094 118.755C458.384 118.355 458.83 118.155 459.434 118.155C460.03 118.155 460.475 118.35 460.769 118.74C461.065 119.127 461.214 119.645 461.214 120.295C461.214 120.932 461.067 121.45 460.774 121.85C460.48 122.247 460.034 122.445 459.434 122.445ZM463.196 123H463.931V115.65H463.196V123ZM467.232 122.995H471.932V122.29H468.352L470.912 119.98C471.262 119.667 471.519 119.363 471.682 119.07C471.849 118.777 471.932 118.403 471.932 117.95C471.932 117.52 471.831 117.132 471.627 116.785C471.427 116.438 471.152 116.163 470.802 115.96C470.456 115.753 470.064 115.65 469.627 115.65C469.184 115.65 468.784 115.75 468.427 115.95C468.074 116.147 467.794 116.418 467.587 116.765C467.381 117.108 467.277 117.5 467.277 117.94H468.027C468.024 117.657 468.091 117.395 468.227 117.155C468.367 116.915 468.557 116.722 468.797 116.575C469.037 116.428 469.311 116.355 469.617 116.355C469.914 116.355 470.181 116.427 470.417 116.57C470.654 116.71 470.841 116.9 470.977 117.14C471.117 117.38 471.187 117.648 471.187 117.945C471.187 118.195 471.141 118.435 471.047 118.665C470.954 118.895 470.769 119.135 470.492 119.385L467.237 122.325L467.232 122.995Z" fill="white"></path> <circle cx="459" cy="118" r="41.5" stroke="#13CDF9"></circle> <path d="M143 117C142.448 117 142 117.448 142 118C142 118.552 142.448 119 143 119V117ZM223 118L213 112.226V123.774L223 118ZM143 119H214V117H143V119Z" fill="url(#paint0_linear)" fill-opacity="0.9"></path> <path d="M172.821 74H173.796L176.276 66.8H175.511L173.301 73.165L171.106 66.8H170.341L172.821 74ZM178.122 74.15C179.065 74.15 179.75 73.8017 180.177 73.105V74H180.832V70.645C180.832 70.445 180.822 70.2483 180.802 70.055C180.782 69.8617 180.739 69.6867 180.672 69.53C180.529 69.18 180.284 68.9133 179.937 68.73C179.594 68.5433 179.175 68.45 178.682 68.45C178.089 68.45 177.605 68.5833 177.232 68.85C176.859 69.1167 176.609 69.4917 176.482 69.975L177.197 70.185C177.3 69.825 177.479 69.5617 177.732 69.395C177.989 69.2283 178.302 69.145 178.672 69.145C179.185 69.145 179.552 69.265 179.772 69.505C179.992 69.7417 180.105 70.1033 180.112 70.59C179.872 70.6233 179.607 70.6583 179.317 70.695C179.03 70.7317 178.742 70.7733 178.452 70.82C178.162 70.8667 177.895 70.92 177.652 70.98C177.249 71.0867 176.919 71.265 176.662 71.515C176.405 71.7617 176.277 72.1067 176.277 72.55C176.277 72.8367 176.345 73.1017 176.482 73.345C176.619 73.5883 176.824 73.7833 177.097 73.93C177.374 74.0767 177.715 74.15 178.122 74.15ZM178.207 73.515C177.917 73.515 177.684 73.4683 177.507 73.375C177.334 73.2783 177.207 73.1567 177.127 73.01C177.05 72.86 177.012 72.7067 177.012 72.55C177.012 72.2567 177.11 72.0367 177.307 71.89C177.504 71.7433 177.717 71.6367 177.947 71.57C178.244 71.49 178.589 71.425 178.982 71.375C179.375 71.325 179.749 71.2783 180.102 71.235C180.102 71.3583 180.097 71.5 180.087 71.66C180.08 71.8167 180.062 71.9617 180.032 72.095C179.962 72.5017 179.769 72.84 179.452 73.11C179.139 73.38 178.724 73.515 178.207 73.515ZM184.199 74.135C184.585 74.135 184.934 74.0617 185.244 73.915C185.557 73.765 185.814 73.5433 186.014 73.25V74H186.674V68.6H185.939V71.48C185.939 72.09 185.802 72.5683 185.529 72.915C185.255 73.2617 184.859 73.435 184.339 73.435C183.962 73.435 183.659 73.345 183.429 73.165C183.199 72.9817 183.032 72.7333 182.929 72.42C182.825 72.1067 182.774 71.7517 182.774 71.355V68.6H182.034V71.57C182.034 71.8733 182.07 72.1767 182.144 72.48C182.22 72.7833 182.342 73.06 182.509 73.31C182.675 73.56 182.897 73.76 183.174 73.91C183.454 74.06 183.795 74.135 184.199 74.135ZM188.171 74H188.906V66.65H188.171V74ZM193.345 74V73.355C192.958 73.4183 192.633 73.4283 192.37 73.385C192.11 73.3417 191.92 73.2083 191.8 72.985C191.737 72.8683 191.702 72.735 191.695 72.585C191.692 72.4317 191.69 72.2417 191.69 72.015V69.23H193.345V68.6H191.69V67.1H190.96V68.6H189.805V69.23H190.96V72.045C190.96 72.3083 190.963 72.5433 190.97 72.75C190.98 72.9567 191.033 73.1583 191.13 73.355C191.25 73.595 191.425 73.7717 191.655 73.885C191.888 73.9983 192.152 74.0617 192.445 74.075C192.742 74.0883 193.042 74.0633 193.345 74ZM160.258 90.135C160.645 90.135 160.993 90.0617 161.303 89.915C161.616 89.765 161.873 89.5433 162.073 89.25V90H162.733V84.6H161.998V87.48C161.998 88.09 161.861 88.5683 161.588 88.915C161.315 89.2617 160.918 89.435 160.398 89.435C160.021 89.435 159.718 89.345 159.488 89.165C159.258 88.9817 159.091 88.7333 158.988 88.42C158.885 88.1067 158.833 87.7517 158.833 87.355V84.6H158.093V87.57C158.093 87.8733 158.13 88.1767 158.203 88.48C158.28 88.7833 158.401 89.06 158.568 89.31C158.735 89.56 158.956 89.76 159.233 89.91C159.513 90.06 159.855 90.135 160.258 90.135ZM164.126 90H164.866V87.12C164.866 86.51 165.002 86.0317 165.276 85.685C165.549 85.3383 165.946 85.165 166.466 85.165C166.842 85.165 167.146 85.2567 167.376 85.44C167.606 85.62 167.772 85.8667 167.876 86.18C167.979 86.4933 168.031 86.8483 168.031 87.245V90H168.771V87.03C168.771 86.7267 168.732 86.4233 168.656 86.12C168.582 85.8167 168.462 85.54 168.296 85.29C168.129 85.04 167.907 84.84 167.631 84.69C167.354 84.54 167.012 84.465 166.606 84.465C166.219 84.465 165.869 84.54 165.556 84.69C165.246 84.8367 164.991 85.0567 164.791 85.35V84.6H164.126V90ZM172.124 90.15C172.517 90.15 172.862 90.07 173.159 89.91C173.456 89.7467 173.701 89.525 173.894 89.245V90H174.554V82.8H173.814V85.235C173.617 84.9883 173.374 84.7967 173.084 84.66C172.797 84.52 172.467 84.45 172.094 84.45C171.601 84.45 171.177 84.575 170.824 84.825C170.471 85.075 170.199 85.415 170.009 85.845C169.822 86.275 169.729 86.7583 169.729 87.295C169.729 87.835 169.822 88.32 170.009 88.75C170.199 89.18 170.472 89.5217 170.829 89.775C171.189 90.025 171.621 90.15 172.124 90.15ZM172.199 89.465C171.826 89.465 171.512 89.37 171.259 89.18C171.009 88.9867 170.821 88.7267 170.694 88.4C170.571 88.0733 170.509 87.705 170.509 87.295C170.509 86.8883 170.571 86.5217 170.694 86.195C170.817 85.8683 171.004 85.61 171.254 85.42C171.507 85.23 171.827 85.135 172.214 85.135C172.777 85.135 173.197 85.3367 173.474 85.74C173.754 86.14 173.894 86.6583 173.894 87.295C173.894 87.7117 173.832 88.0833 173.709 88.41C173.586 88.7367 173.399 88.995 173.149 89.185C172.899 89.3717 172.582 89.465 172.199 89.465ZM178.242 90.15C178.765 90.15 179.234 90.0217 179.647 89.765C180.064 89.5083 180.379 89.1433 180.592 88.67L179.907 88.405C179.564 89.0983 178.999 89.445 178.212 89.445C177.672 89.445 177.249 89.2767 176.942 88.94C176.639 88.6033 176.472 88.125 176.442 87.505H180.697C180.724 86.5517 180.515 85.805 180.072 85.265C179.632 84.7217 179.012 84.45 178.212 84.45C177.692 84.45 177.24 84.5667 176.857 84.8C176.477 85.0333 176.182 85.365 175.972 85.795C175.762 86.225 175.657 86.735 175.657 87.325C175.657 87.895 175.762 88.3917 175.972 88.815C176.185 89.2383 176.485 89.5667 176.872 89.8C177.262 90.0333 177.719 90.15 178.242 90.15ZM178.232 85.125C179.249 85.125 179.814 85.7133 179.927 86.89H176.457C176.514 86.32 176.694 85.8833 176.997 85.58C177.3 85.2767 177.712 85.125 178.232 85.125ZM181.806 90H182.541V87.305C182.541 86.9817 182.578 86.66 182.651 86.34C182.728 86.0167 182.901 85.7483 183.171 85.535C183.368 85.375 183.581 85.2833 183.811 85.26C184.045 85.2333 184.261 85.2433 184.461 85.29V84.6C184.225 84.54 183.956 84.5383 183.656 84.595C183.356 84.6483 183.1 84.7683 182.886 84.955C182.726 85.075 182.586 85.2417 182.466 85.455V84.6H181.806V90ZM185.51 90H186.245V82.65H185.51V90ZM188.514 92.4H189.249L192.149 84.6H191.399L189.764 89.04L187.989 84.6H187.209L189.404 89.985L188.514 92.4ZM193.117 83.575H193.852V82.75H193.117V83.575ZM193.117 90H193.852V84.6H193.117V90ZM195.346 90H196.086V87.12C196.086 86.51 196.223 86.0317 196.496 85.685C196.77 85.3383 197.166 85.165 197.686 85.165C198.063 85.165 198.366 85.2567 198.596 85.44C198.826 85.62 198.993 85.8667 199.096 86.18C199.2 86.4933 199.251 86.8483 199.251 87.245V90H199.991V87.03C199.991 86.7267 199.953 86.4233 199.876 86.12C199.803 85.8167 199.683 85.54 199.516 85.29C199.35 85.04 199.128 84.84 198.851 84.69C198.575 84.54 198.233 84.465 197.826 84.465C197.44 84.465 197.09 84.54 196.776 84.69C196.466 84.8367 196.211 85.0567 196.011 85.35V84.6H195.346V90ZM203.384 90.15C203.747 90.15 204.071 90.08 204.354 89.94C204.637 89.8 204.876 89.6067 205.069 89.36V89.915C205.072 90.5483 204.947 91.0267 204.694 91.35C204.441 91.6733 204.021 91.835 203.434 91.835C203.151 91.835 202.872 91.7683 202.599 91.635C202.326 91.505 202.116 91.29 201.969 90.99L201.304 91.36C201.534 91.78 201.842 92.0833 202.229 92.27C202.619 92.4567 203.021 92.55 203.434 92.55C204.094 92.55 204.621 92.4067 205.014 92.12C205.407 91.8333 205.652 91.3883 205.749 90.785C205.772 90.6483 205.787 90.5083 205.794 90.365C205.804 90.225 205.809 90.0783 205.809 89.925V84.6H205.154V85.345C204.957 85.065 204.707 84.8467 204.404 84.69C204.104 84.53 203.754 84.45 203.354 84.45C202.861 84.45 202.437 84.575 202.084 84.825C201.731 85.075 201.459 85.415 201.269 85.845C201.082 86.275 200.989 86.7583 200.989 87.295C200.989 87.835 201.082 88.32 201.269 88.75C201.459 89.18 201.732 89.5217 202.089 89.775C202.449 90.025 202.881 90.15 203.384 90.15ZM203.459 89.465C203.086 89.465 202.772 89.37 202.519 89.18C202.269 88.9867 202.081 88.7267 201.954 88.4C201.831 88.0733 201.769 87.705 201.769 87.295C201.769 86.8883 201.831 86.5217 201.954 86.195C202.077 85.8683 202.264 85.61 202.514 85.42C202.767 85.23 203.087 85.135 203.474 85.135C204.037 85.135 204.457 85.3367 204.734 85.74C205.014 86.14 205.154 86.6583 205.154 87.295C205.154 87.7117 205.092 88.0833 204.969 88.41C204.846 88.7367 204.659 88.995 204.409 89.185C204.159 89.3717 203.842 89.465 203.459 89.465ZM170.821 106H171.556V99.505H174.071V98.8H168.306V99.505H170.821V106ZM176.327 106.15C176.86 106.15 177.317 106.03 177.697 105.79C178.08 105.55 178.374 105.217 178.577 104.79C178.784 104.36 178.887 103.862 178.887 103.295C178.887 102.738 178.785 102.247 178.582 101.82C178.382 101.39 178.09 101.055 177.707 100.815C177.327 100.572 176.867 100.45 176.327 100.45C175.8 100.45 175.345 100.57 174.962 100.81C174.582 101.047 174.289 101.378 174.082 101.805C173.875 102.232 173.772 102.728 173.772 103.295C173.772 103.852 173.872 104.345 174.072 104.775C174.275 105.205 174.567 105.542 174.947 105.785C175.33 106.028 175.79 106.15 176.327 106.15ZM176.327 105.445C175.744 105.445 175.302 105.25 175.002 104.86C174.702 104.467 174.552 103.945 174.552 103.295C174.552 102.665 174.697 102.152 174.987 101.755C175.277 101.355 175.724 101.155 176.327 101.155C176.924 101.155 177.369 101.35 177.662 101.74C177.959 102.127 178.107 102.645 178.107 103.295C178.107 103.932 177.96 104.45 177.667 104.85C177.374 105.247 176.927 105.445 176.327 105.445ZM179.985 106H180.73V103.4L183.38 106H184.45L181.59 103.3L184.12 100.6H183.14L180.73 103.2V98.8H179.99L179.985 106ZM187.138 106.15C187.662 106.15 188.13 106.022 188.543 105.765C188.96 105.508 189.275 105.143 189.488 104.67L188.803 104.405C188.46 105.098 187.895 105.445 187.108 105.445C186.568 105.445 186.145 105.277 185.838 104.94C185.535 104.603 185.368 104.125 185.338 103.505H189.593C189.62 102.552 189.412 101.805 188.968 101.265C188.528 100.722 187.908 100.45 187.108 100.45C186.588 100.45 186.137 100.567 185.753 100.8C185.373 101.033 185.078 101.365 184.868 101.795C184.658 102.225 184.553 102.735 184.553 103.325C184.553 103.895 184.658 104.392 184.868 104.815C185.082 105.238 185.382 105.567 185.768 105.8C186.158 106.033 186.615 106.15 187.138 106.15ZM187.128 101.125C188.145 101.125 188.71 101.713 188.823 102.89H185.353C185.41 102.32 185.59 101.883 185.893 101.58C186.197 101.277 186.608 101.125 187.128 101.125ZM190.551 106H191.291V103.12C191.291 102.51 191.428 102.032 191.701 101.685C191.975 101.338 192.371 101.165 192.891 101.165C193.268 101.165 193.571 101.257 193.801 101.44C194.031 101.62 194.198 101.867 194.301 102.18C194.405 102.493 194.456 102.848 194.456 103.245V106H195.196V103.03C195.196 102.727 195.158 102.423 195.081 102.12C195.008 101.817 194.888 101.54 194.721 101.29C194.555 101.04 194.333 100.84 194.056 100.69C193.78 100.54 193.438 100.465 193.031 100.465C192.645 100.465 192.295 100.54 191.981 100.69C191.671 100.837 191.416 101.057 191.216 101.35V100.6H190.551V106Z" fill="white"></path> <path d="M327 117C326.448 117 326 117.448 326 118C326 118.552 326.448 119 327 119V117ZM407 118L397 112.226V123.774L407 118ZM327 119H398V117H327V119Z" fill="url(#paint1_linear)" fill-opacity="0.9"></path> <path d="M352.667 74H353.402V71.265H355.447C355.513 71.265 355.592 71.2617 355.682 71.255C355.772 71.2483 355.862 71.2383 355.952 71.225C356.512 71.1383 356.943 70.8917 357.247 70.485C357.553 70.0783 357.707 69.595 357.707 69.035C357.707 68.4717 357.555 67.9867 357.252 67.58C356.948 67.1733 356.515 66.9267 355.952 66.84C355.862 66.8233 355.772 66.8133 355.682 66.81C355.595 66.8033 355.517 66.8 355.447 66.8H352.667V74ZM353.402 70.565V67.505H355.427C355.487 67.505 355.557 67.5083 355.637 67.515C355.72 67.5183 355.798 67.5283 355.872 67.545C356.242 67.625 356.513 67.81 356.687 68.1C356.863 68.3867 356.952 68.6983 356.952 69.035C356.952 69.3683 356.863 69.68 356.687 69.97C356.513 70.26 356.242 70.4433 355.872 70.52C355.798 70.5367 355.72 70.5483 355.637 70.555C355.557 70.5617 355.487 70.565 355.427 70.565H353.402ZM360.918 74.15C361.451 74.15 361.908 74.03 362.288 73.79C362.671 73.55 362.965 73.2167 363.168 72.79C363.375 72.36 363.478 71.8617 363.478 71.295C363.478 70.7383 363.376 70.2467 363.173 69.82C362.973 69.39 362.681 69.055 362.298 68.815C361.918 68.5717 361.458 68.45 360.918 68.45C360.391 68.45 359.936 68.57 359.553 68.81C359.173 69.0467 358.88 69.3783 358.673 69.805C358.466 70.2317 358.363 70.7283 358.363 71.295C358.363 71.8517 358.463 72.345 358.663 72.775C358.866 73.205 359.158 73.5417 359.538 73.785C359.921 74.0283 360.381 74.15 360.918 74.15ZM360.918 73.445C360.335 73.445 359.893 73.25 359.593 72.86C359.293 72.4667 359.143 71.945 359.143 71.295C359.143 70.665 359.288 70.1517 359.578 69.755C359.868 69.355 360.315 69.155 360.918 69.155C361.515 69.155 361.96 69.35 362.253 69.74C362.55 70.1267 362.698 70.645 362.698 71.295C362.698 71.9317 362.551 72.45 362.258 72.85C361.965 73.2467 361.518 73.445 360.918 73.445ZM366.836 74.15C367.369 74.15 367.826 74.03 368.206 73.79C368.589 73.55 368.883 73.2167 369.086 72.79C369.293 72.36 369.396 71.8617 369.396 71.295C369.396 70.7383 369.294 70.2467 369.091 69.82C368.891 69.39 368.599 69.055 368.216 68.815C367.836 68.5717 367.376 68.45 366.836 68.45C366.309 68.45 365.854 68.57 365.471 68.81C365.091 69.0467 364.798 69.3783 364.591 69.805C364.384 70.2317 364.281 70.7283 364.281 71.295C364.281 71.8517 364.381 72.345 364.581 72.775C364.784 73.205 365.076 73.5417 365.456 73.785C365.839 74.0283 366.299 74.15 366.836 74.15ZM366.836 73.445C366.253 73.445 365.811 73.25 365.511 72.86C365.211 72.4667 365.061 71.945 365.061 71.295C365.061 70.665 365.206 70.1517 365.496 69.755C365.786 69.355 366.233 69.155 366.836 69.155C367.433 69.155 367.878 69.35 368.171 69.74C368.468 70.1267 368.616 70.645 368.616 71.295C368.616 71.9317 368.469 72.45 368.176 72.85C367.883 73.2467 367.436 73.445 366.836 73.445ZM370.599 74H371.334V66.65H370.599V74ZM376.09 74H376.835V66.8H376.09L374.735 67.61V68.435L376.09 67.62V74ZM346.434 90H350.589V89.295H347.169V82.8H346.434V90ZM351.441 90H352.176V87.265H354.221C354.288 87.265 354.366 87.2617 354.456 87.255C354.546 87.2483 354.636 87.2383 354.726 87.225C355.286 87.1383 355.718 86.8917 356.021 86.485C356.328 86.0783 356.481 85.595 356.481 85.035C356.481 84.4717 356.33 83.9867 356.026 83.58C355.723 83.1733 355.29 82.9267 354.726 82.84C354.636 82.8233 354.546 82.8133 354.456 82.81C354.37 82.8033 354.291 82.8 354.221 82.8H351.441V90ZM352.176 86.565V83.505H354.201C354.261 83.505 354.331 83.5083 354.411 83.515C354.495 83.5183 354.573 83.5283 354.646 83.545C355.016 83.625 355.288 83.81 355.461 84.1C355.638 84.3867 355.726 84.6983 355.726 85.035C355.726 85.3683 355.638 85.68 355.461 85.97C355.288 86.26 355.016 86.4433 354.646 86.52C354.573 86.5367 354.495 86.5483 354.411 86.555C354.331 86.5617 354.261 86.565 354.201 86.565H352.176ZM361.393 90H362.128V83.505H364.643V82.8H358.878V83.505H361.393V90ZM366.899 90.15C367.433 90.15 367.889 90.03 368.269 89.79C368.653 89.55 368.946 89.2167 369.149 88.79C369.356 88.36 369.459 87.8617 369.459 87.295C369.459 86.7383 369.358 86.2467 369.154 85.82C368.954 85.39 368.663 85.055 368.279 84.815C367.899 84.5717 367.439 84.45 366.899 84.45C366.373 84.45 365.918 84.57 365.534 84.81C365.154 85.0467 364.861 85.3783 364.654 85.805C364.448 86.2317 364.344 86.7283 364.344 87.295C364.344 87.8517 364.444 88.345 364.644 88.775C364.848 89.205 365.139 89.5417 365.519 89.785C365.903 90.0283 366.363 90.15 366.899 90.15ZM366.899 89.445C366.316 89.445 365.874 89.25 365.574 88.86C365.274 88.4667 365.124 87.945 365.124 87.295C365.124 86.665 365.269 86.1517 365.559 85.755C365.849 85.355 366.296 85.155 366.899 85.155C367.496 85.155 367.941 85.35 368.234 85.74C368.531 86.1267 368.679 86.645 368.679 87.295C368.679 87.9317 368.533 88.45 368.239 88.85C367.946 89.2467 367.499 89.445 366.899 89.445ZM370.557 90H371.302V87.4L373.952 90H375.022L372.162 87.3L374.692 84.6H373.712L371.302 87.2V82.8H370.562L370.557 90ZM377.711 90.15C378.234 90.15 378.702 90.0217 379.116 89.765C379.532 89.5083 379.847 89.1433 380.061 88.67L379.376 88.405C379.032 89.0983 378.467 89.445 377.681 89.445C377.141 89.445 376.717 89.2767 376.411 88.94C376.107 88.6033 375.941 88.125 375.911 87.505H380.166C380.192 86.5517 379.984 85.805 379.541 85.265C379.101 84.7217 378.481 84.45 377.681 84.45C377.161 84.45 376.709 84.5667 376.326 84.8C375.946 85.0333 375.651 85.365 375.441 85.795C375.231 86.225 375.126 86.735 375.126 87.325C375.126 87.895 375.231 88.3917 375.441 88.815C375.654 89.2383 375.954 89.5667 376.341 89.8C376.731 90.0333 377.187 90.15 377.711 90.15ZM377.701 85.125C378.717 85.125 379.282 85.7133 379.396 86.89H375.926C375.982 86.32 376.162 85.8833 376.466 85.58C376.769 85.2767 377.181 85.125 377.701 85.125ZM381.124 90H381.864V87.12C381.864 86.51 382 86.0317 382.274 85.685C382.547 85.3383 382.944 85.165 383.464 85.165C383.84 85.165 384.144 85.2567 384.374 85.44C384.604 85.62 384.77 85.8667 384.874 86.18C384.977 86.4933 385.029 86.8483 385.029 87.245V90H385.769V87.03C385.769 86.7267 385.73 86.4233 385.654 86.12C385.58 85.8167 385.46 85.54 385.294 85.29C385.127 85.04 384.905 84.84 384.629 84.69C384.352 84.54 384.01 84.465 383.604 84.465C383.217 84.465 382.867 84.54 382.554 84.69C382.244 84.8367 381.989 85.0567 381.789 85.35V84.6H381.124V90Z" fill="white"></path> <rect x="37.2" y="74.2" width="95.6" height="95.6" rx="3.8" fill="#282726" stroke="url(#paint2_linear)" stroke-width="0.4"></rect> <path d="M73.1317 127H74.9377L77.7457 118.36H76.4437L74.0197 125.734L71.6257 118.36H70.3237L73.1317 127ZM79.9415 127.18C80.9735 127.18 81.7515 126.806 82.2755 126.058V127H83.3855V123.01C83.3855 122.738 83.3735 122.484 83.3495 122.248C83.3255 122.012 83.2615 121.788 83.1575 121.576C82.9575 121.148 82.6415 120.836 82.2095 120.64C81.7815 120.44 81.2775 120.34 80.6975 120.34C79.9495 120.34 79.3495 120.504 78.8975 120.832C78.4455 121.16 78.1415 121.602 77.9855 122.158L79.1555 122.518C79.2675 122.158 79.4655 121.898 79.7495 121.738C80.0335 121.578 80.3455 121.498 80.6855 121.498C81.1895 121.498 81.5535 121.606 81.7775 121.822C82.0055 122.034 82.1295 122.364 82.1495 122.812C81.6215 122.884 81.1055 122.96 80.6015 123.04C80.0975 123.116 79.6575 123.208 79.2815 123.316C78.7815 123.476 78.4015 123.714 78.1415 124.03C77.8815 124.346 77.7515 124.748 77.7515 125.236C77.7515 125.588 77.8335 125.912 77.9975 126.208C78.1655 126.5 78.4115 126.736 78.7355 126.916C79.0635 127.092 79.4655 127.18 79.9415 127.18ZM80.1635 126.154C79.7635 126.154 79.4675 126.062 79.2755 125.878C79.0875 125.694 78.9935 125.476 78.9935 125.224C78.9935 124.968 79.0775 124.766 79.2455 124.618C79.4175 124.47 79.6315 124.352 79.8875 124.264C80.1595 124.184 80.4795 124.114 80.8475 124.054C81.2195 123.994 81.6495 123.928 82.1375 123.856C82.1335 124.008 82.1235 124.178 82.1075 124.366C82.0915 124.554 82.0575 124.722 82.0055 124.87C81.9575 125.082 81.8555 125.286 81.6995 125.482C81.5475 125.678 81.3415 125.84 81.0815 125.968C80.8255 126.092 80.5195 126.154 80.1635 126.154ZM87.3855 127.174C87.8535 127.174 88.2675 127.09 88.6275 126.922C88.9915 126.754 89.2915 126.522 89.5275 126.226V127H90.6435V120.52H89.3775V123.892C89.3775 124.404 89.3035 124.814 89.1555 125.122C89.0075 125.426 88.8075 125.646 88.5555 125.782C88.3075 125.918 88.0335 125.986 87.7335 125.986C87.3895 125.986 87.1095 125.916 86.8935 125.776C86.6775 125.636 86.5115 125.452 86.3955 125.224C86.2795 124.996 86.1995 124.75 86.1555 124.486C86.1155 124.218 86.0955 123.958 86.0955 123.706V120.52H84.8235V124.12C84.8235 124.32 84.8415 124.552 84.8775 124.816C84.9135 125.08 84.9815 125.35 85.0815 125.626C85.1815 125.902 85.3255 126.158 85.5135 126.394C85.7055 126.626 85.9535 126.814 86.2575 126.958C86.5615 127.102 86.9375 127.174 87.3855 127.174ZM92.4463 127H93.7003V118.18H92.4463V127ZM99.2101 127V125.938C98.7861 126.002 98.4161 126.016 98.1001 125.98C97.7881 125.94 97.5601 125.798 97.4161 125.554C97.3401 125.422 97.2981 125.26 97.2901 125.068C97.2861 124.876 97.2841 124.65 97.2841 124.39V121.528H99.2101V120.52H97.2841V118.72H96.0241V120.52H94.7821V121.528H96.0241V124.45C96.0241 124.802 96.0281 125.118 96.0361 125.398C96.0481 125.674 96.1241 125.946 96.2641 126.214C96.4241 126.514 96.6581 126.734 96.9661 126.874C97.2741 127.014 97.6241 127.09 98.0161 127.102C98.4081 127.114 98.8061 127.08 99.2101 127Z" fill="white"></path> <defs> <linearGradient id="paint0_linear" x1="143" y1="118" x2="188.715" y2="118.041" gradientUnits="userSpaceOnUse"> <stop stop-color="#13CDF9"></stop> <stop offset="1" stop-color="#F78774"></stop> </linearGradient> <linearGradient id="paint1_linear" x1="327" y1="118" x2="372.715" y2="118.041" gradientUnits="userSpaceOnUse"> <stop stop-color="#13CDF9"></stop> <stop offset="1" stop-color="#F78774"></stop> </linearGradient> <linearGradient id="paint2_linear" x1="37" y1="74" x2="103.47" y2="187.321" gradientUnits="userSpaceOnUse"> <stop stop-color="#857370"></stop> <stop offset="1" stop-color="#563440"></stop> </linearGradient> </defs> </svg> 