<?xml version="1.0" encoding="UTF-8"?> <svg xmlns="http://www.w3.org/2000/svg" width="590" height="260" viewBox="0 0 590 260" fill="none"> <rect x="0.5" y="0.5" width="589" height="231" rx="3.5" fill="#191919" stroke="#282726"></rect> <path d="M28.704 44.24C29.5627 44.24 30.2987 44.04 30.912 43.64C31.5307 43.2347 32.0027 42.648 32.328 41.88L31.144 41.528C30.7067 42.584 29.8933 43.112 28.704 43.112C27.776 43.112 27.0773 42.8 26.608 42.176C26.1387 41.5467 25.8987 40.7147 25.888 39.68C25.8987 38.672 26.1307 37.848 26.584 37.208C27.0427 36.568 27.7493 36.248 28.704 36.248C29.2693 36.248 29.7707 36.392 30.208 36.68C30.6507 36.9627 30.9733 37.3627 31.176 37.88L32.328 37.512C32.088 36.7707 31.6427 36.1867 30.992 35.76C30.3467 35.3333 29.5867 35.12 28.712 35.12C27.8533 35.12 27.1227 35.312 26.52 35.696C25.9173 36.0747 25.456 36.608 25.136 37.296C24.816 37.9787 24.6507 38.7733 24.64 39.68C24.6507 40.5653 24.8107 41.352 25.12 42.04C25.4347 42.728 25.8933 43.2667 26.496 43.656C27.0987 44.0453 27.8347 44.24 28.704 44.24ZM37.353 44.24C38.2063 44.24 38.937 44.048 39.545 43.664C40.1583 43.28 40.6277 42.7467 40.953 42.064C41.2837 41.376 41.449 40.5787 41.449 39.672C41.449 38.7813 41.2863 37.9947 40.961 37.312C40.641 36.624 40.1743 36.088 39.561 35.704C38.953 35.3147 38.217 35.12 37.353 35.12C36.5103 35.12 35.7823 35.312 35.169 35.696C34.561 36.0747 34.0917 36.6053 33.761 37.288C33.4303 37.9707 33.265 38.7653 33.265 39.672C33.265 40.5627 33.425 41.352 33.745 42.04C34.0703 42.728 34.537 43.2667 35.145 43.656C35.7583 44.0453 36.4943 44.24 37.353 44.24ZM37.353 43.112C36.4197 43.112 35.713 42.8 35.233 42.176C34.753 41.5467 34.513 40.712 34.513 39.672C34.513 38.664 34.745 37.8427 35.209 37.208C35.673 36.568 36.3877 36.248 37.353 36.248C38.3077 36.248 39.0197 36.56 39.489 37.184C39.9637 37.8027 40.201 38.632 40.201 39.672C40.201 40.6907 39.9663 41.52 39.497 42.16C39.0277 42.7947 38.313 43.112 37.353 43.112ZM43.2138 44H44.3898V39.688C44.3898 39.1707 44.4484 38.656 44.5658 38.144C44.6884 37.6267 44.9658 37.1973 45.3978 36.856C45.7124 36.6 46.0538 36.4533 46.4218 36.416C46.7951 36.3733 47.1418 36.3893 47.4618 36.464V35.36C47.0831 35.264 46.6538 35.2613 46.1738 35.352C45.6938 35.4373 45.2831 35.6293 44.9418 35.928C44.6858 36.12 44.4618 36.3867 44.2698 36.728V35.36H43.2138V44ZM52.4791 44.24C53.3165 44.24 54.0658 44.0347 54.7271 43.624C55.3938 43.2133 55.8978 42.6293 56.2391 41.872L55.1431 41.448C54.5938 42.5573 53.6898 43.112 52.4311 43.112C51.5671 43.112 50.8898 42.8427 50.3991 42.304C49.9138 41.7653 49.6471 41 49.5991 40.008H56.4071C56.4498 38.4827 56.1165 37.288 55.4071 36.424C54.7031 35.5547 53.7111 35.12 52.4311 35.12C51.5991 35.12 50.8765 35.3067 50.2631 35.68C49.6551 36.0533 49.1831 36.584 48.8471 37.272C48.5111 37.96 48.3431 38.776 48.3431 39.72C48.3431 40.632 48.5111 41.4267 48.8471 42.104C49.1885 42.7813 49.6685 43.3067 50.2871 43.68C50.9111 44.0533 51.6418 44.24 52.4791 44.24ZM52.4631 36.2C54.0898 36.2 54.9938 37.1413 55.1751 39.024H49.6231C49.7138 38.112 50.0018 37.4133 50.4871 36.928C50.9725 36.4427 51.6311 36.2 52.4631 36.2ZM60.6261 44H62.1861L66.1541 32.48H64.9301L61.3941 42.664L57.8821 32.48H56.6581L60.6261 44ZM69.1076 44.24C70.617 44.24 71.713 43.6827 72.3956 42.568V44H73.4436V38.632C73.4436 38.312 73.4276 37.9973 73.3956 37.688C73.3636 37.3787 73.2943 37.0987 73.1876 36.848C72.9583 36.288 72.5663 35.8613 72.0116 35.568C71.4623 35.2693 70.793 35.12 70.0036 35.12C69.0543 35.12 68.281 35.3333 67.6836 35.76C67.0863 36.1867 66.6863 36.7867 66.4836 37.56L67.6276 37.896C67.793 37.32 68.0783 36.8987 68.4836 36.632C68.8943 36.3653 69.3956 36.232 69.9876 36.232C70.809 36.232 71.3956 36.424 71.7476 36.808C72.0996 37.1867 72.281 37.7653 72.2916 38.544C71.9076 38.5973 71.4836 38.6533 71.0196 38.712C70.561 38.7707 70.0996 38.8373 69.6356 38.912C69.1716 38.9867 68.745 39.072 68.3556 39.168C67.7103 39.3387 67.1823 39.624 66.7716 40.024C66.361 40.4187 66.1556 40.9707 66.1556 41.68C66.1556 42.1387 66.265 42.5627 66.4836 42.952C66.7023 43.3413 67.0303 43.6533 67.4676 43.888C67.9103 44.1227 68.457 44.24 69.1076 44.24ZM69.2436 43.224C68.7796 43.224 68.4063 43.1493 68.1236 43C67.8463 42.8453 67.6436 42.6507 67.5156 42.416C67.393 42.176 67.3316 41.9307 67.3316 41.68C67.3316 41.2107 67.489 40.8587 67.8036 40.624C68.1183 40.3893 68.4596 40.2187 68.8276 40.112C69.3023 39.984 69.8543 39.88 70.4836 39.8C71.113 39.72 71.7103 39.6453 72.2756 39.576C72.2756 39.7733 72.2676 40 72.2516 40.256C72.241 40.5067 72.2116 40.7387 72.1636 40.952C72.0516 41.6027 71.7423 42.144 71.2356 42.576C70.7343 43.008 70.0703 43.224 69.2436 43.224ZM78.8303 44.216C79.4489 44.216 80.0063 44.0987 80.5023 43.864C81.0036 43.624 81.4143 43.2693 81.7343 42.8V44H82.7903V35.36H81.6143V39.968C81.6143 40.944 81.3956 41.7093 80.9583 42.264C80.5209 42.8187 79.8863 43.096 79.0543 43.096C78.4516 43.096 77.9663 42.952 77.5983 42.664C77.2303 42.3707 76.9636 41.9733 76.7983 41.472C76.6329 40.9707 76.5503 40.4027 76.5503 39.768V35.36H75.3663V40.112C75.3663 40.5973 75.4249 41.0827 75.5423 41.568C75.6649 42.0533 75.8596 42.496 76.1263 42.896C76.3929 43.296 76.7476 43.616 77.1903 43.856C77.6383 44.096 78.1849 44.216 78.8303 44.216ZM85.1863 44H86.3623V32.24H85.1863V44ZM93.4646 44V42.968C92.846 43.0693 92.326 43.0853 91.9046 43.016C91.4886 42.9467 91.1846 42.7333 90.9926 42.376C90.8913 42.1893 90.8353 41.976 90.8246 41.736C90.8193 41.4907 90.8166 41.1867 90.8166 40.824V36.368H93.4646V35.36H90.8166V32.96H89.6486V35.36H87.8006V36.368H89.6486V40.872C89.6486 41.2933 89.654 41.6693 89.6646 42C89.6806 42.3307 89.766 42.6533 89.9206 42.968C90.1126 43.352 90.3926 43.6347 90.7606 43.816C91.134 43.9973 91.5553 44.0987 92.0246 44.12C92.4993 44.1413 92.9793 44.1013 93.4646 44Z" fill="white"></path> <path d="M28.344 96.232C29.4053 96.232 30.2373 96 30.84 95.536C31.448 95.0667 31.752 94.424 31.752 93.608C31.752 93.16 31.656 92.784 31.464 92.48C31.2773 92.176 30.9547 91.912 30.496 91.688C30.0427 91.464 29.4187 91.2507 28.624 91.048C27.9467 90.8773 27.424 90.72 27.056 90.576C26.6933 90.432 26.4427 90.28 26.304 90.12C26.1653 89.9547 26.096 89.7573 26.096 89.528C26.096 89.1173 26.288 88.7893 26.672 88.544C27.056 88.2987 27.5547 88.1813 28.168 88.192C28.8187 88.2027 29.3547 88.3573 29.776 88.656C30.1973 88.9493 30.4507 89.3493 30.536 89.856L31.736 89.64C31.6773 89.1387 31.4907 88.6987 31.176 88.32C30.8613 87.9413 30.4453 87.648 29.928 87.44C29.416 87.2267 28.8347 87.12 28.184 87.12C27.5333 87.12 26.96 87.224 26.464 87.432C25.9733 87.6347 25.5893 87.9227 25.312 88.296C25.04 88.664 24.904 89.0933 24.904 89.584C24.904 89.984 24.9947 90.3253 25.176 90.608C25.3627 90.8853 25.68 91.1333 26.128 91.352C26.576 91.5653 27.1893 91.7787 27.968 91.992C28.6987 92.1893 29.2453 92.36 29.608 92.504C29.976 92.648 30.2213 92.8053 30.344 92.976C30.4667 93.1413 30.528 93.3573 30.528 93.624C30.528 94.0933 30.3387 94.4667 29.96 94.744C29.5813 95.0213 29.064 95.16 28.408 95.16C27.736 95.16 27.1707 95.016 26.712 94.728C26.2533 94.4347 25.9627 94.0427 25.84 93.552L24.64 93.752C24.7893 94.5307 25.1893 95.1387 25.84 95.576C26.496 96.0133 27.3307 96.232 28.344 96.232ZM33.6863 85.72H34.8623V84.4H33.6863V85.72ZM33.6863 96H34.8623V87.36H33.6863V96ZM37.2526 96H38.4366V91.392C38.4366 90.416 38.6553 89.6507 39.0926 89.096C39.53 88.5413 40.1646 88.264 40.9966 88.264C41.5993 88.264 42.0846 88.4107 42.4526 88.704C42.8206 88.992 43.0873 89.3867 43.2526 89.888C43.418 90.3893 43.5006 90.9573 43.5006 91.592V96H44.6846V91.248C44.6846 90.7627 44.6233 90.2773 44.5006 89.792C44.3833 89.3067 44.1913 88.864 43.9246 88.464C43.658 88.064 43.3033 87.744 42.8606 87.504C42.418 87.264 41.8713 87.144 41.2206 87.144C40.602 87.144 40.042 87.264 39.5406 87.504C39.0446 87.7387 38.6366 88.0907 38.3166 88.56V87.36H37.2526V96ZM50.1126 96.24C50.694 96.24 51.2113 96.128 51.6646 95.904C52.118 95.68 52.4993 95.3707 52.8086 94.976V95.864C52.814 96.8773 52.614 97.6427 52.2086 98.16C51.8033 98.6773 51.1313 98.936 50.1926 98.936C49.7393 98.936 49.294 98.8293 48.8566 98.616C48.4193 98.408 48.0833 98.064 47.8486 97.584L46.7846 98.176C47.1526 98.848 47.646 99.3333 48.2646 99.632C48.8886 99.9307 49.5313 100.08 50.1926 100.08C51.2486 100.08 52.0913 99.8507 52.7206 99.392C53.35 98.9333 53.742 98.2213 53.8966 97.256C53.934 97.0373 53.958 96.8133 53.9686 96.584C53.9846 96.36 53.9926 96.1253 53.9926 95.88V87.36H52.9446V88.552C52.63 88.104 52.23 87.7547 51.7446 87.504C51.2646 87.248 50.7046 87.12 50.0646 87.12C49.2753 87.12 48.598 87.32 48.0326 87.72C47.4673 88.12 47.0326 88.664 46.7286 89.352C46.43 90.04 46.2806 90.8133 46.2806 91.672C46.2806 92.536 46.43 93.312 46.7286 94C47.0326 94.688 47.47 95.2347 48.0406 95.64C48.6166 96.04 49.3073 96.24 50.1126 96.24ZM50.2326 95.144C49.6353 95.144 49.134 94.992 48.7286 94.688C48.3286 94.3787 48.0273 93.9627 47.8246 93.44C47.6273 92.9173 47.5286 92.328 47.5286 91.672C47.5286 91.0213 47.6273 90.4347 47.8246 89.912C48.022 89.3893 48.3206 88.976 48.7206 88.672C49.126 88.368 49.638 88.216 50.2566 88.216C51.158 88.216 51.83 88.5387 52.2726 89.184C52.7206 89.824 52.9446 90.6533 52.9446 91.672C52.9446 92.3387 52.846 92.9333 52.6486 93.456C52.4513 93.9787 52.1526 94.392 51.7526 94.696C51.3526 94.9947 50.846 95.144 50.2326 95.144ZM56.3894 96H57.5654V84.24H56.3894V96ZM63.6198 96.24C64.4571 96.24 65.2064 96.0347 65.8678 95.624C66.5344 95.2133 67.0384 94.6293 67.3798 93.872L66.2838 93.448C65.7344 94.5573 64.8304 95.112 63.5718 95.112C62.7078 95.112 62.0304 94.8427 61.5398 94.304C61.0544 93.7653 60.7878 93 60.7398 92.008H67.5478C67.5904 90.4827 67.2571 89.288 66.5478 88.424C65.8438 87.5547 64.8518 87.12 63.5718 87.12C62.7398 87.12 62.0171 87.3067 61.4038 87.68C60.7958 88.0533 60.3238 88.584 59.9878 89.272C59.6518 89.96 59.4838 90.776 59.4838 91.72C59.4838 92.632 59.6518 93.4267 59.9878 94.104C60.3291 94.7813 60.8091 95.3067 61.4278 95.68C62.0518 96.0533 62.7824 96.24 63.6198 96.24ZM63.6038 88.2C65.2304 88.2 66.1344 89.1413 66.3158 91.024H60.7638C60.8544 90.112 61.1424 89.4133 61.6278 88.928C62.1131 88.4427 62.7718 88.2 63.6038 88.2ZM68.5231 96H69.7471L70.7071 93.208H75.8271L76.7951 96H78.0191L74.0511 84.48H72.4911L68.5231 96ZM71.0911 92.104L73.2591 85.808L75.4431 92.104H71.0911ZM82.6878 96.232C83.7491 96.232 84.5811 96 85.1838 95.536C85.7918 95.0667 86.0958 94.424 86.0958 93.608C86.0958 93.16 85.9998 92.784 85.8078 92.48C85.6211 92.176 85.2984 91.912 84.8398 91.688C84.3864 91.464 83.7624 91.2507 82.9678 91.048C82.2904 90.8773 81.7678 90.72 81.3998 90.576C81.0371 90.432 80.7864 90.28 80.6478 90.12C80.5091 89.9547 80.4398 89.7573 80.4398 89.528C80.4398 89.1173 80.6318 88.7893 81.0158 88.544C81.3998 88.2987 81.8984 88.1813 82.5118 88.192C83.1624 88.2027 83.6984 88.3573 84.1198 88.656C84.5411 88.9493 84.7944 89.3493 84.8798 89.856L86.0798 89.64C86.0211 89.1387 85.8344 88.6987 85.5198 88.32C85.2051 87.9413 84.7891 87.648 84.2718 87.44C83.7598 87.2267 83.1784 87.12 82.5278 87.12C81.8771 87.12 81.3038 87.224 80.8078 87.432C80.3171 87.6347 79.9331 87.9227 79.6558 88.296C79.3838 88.664 79.2478 89.0933 79.2478 89.584C79.2478 89.984 79.3384 90.3253 79.5197 90.608C79.7064 90.8853 80.0238 91.1333 80.4718 91.352C80.9198 91.5653 81.5331 91.7787 82.3118 91.992C83.0424 92.1893 83.5891 92.36 83.9518 92.504C84.3198 92.648 84.5651 92.8053 84.6878 92.976C84.8104 93.1413 84.8718 93.3573 84.8718 93.624C84.8718 94.0933 84.6824 94.4667 84.3038 94.744C83.9251 95.0213 83.4078 95.16 82.7517 95.16C82.0798 95.16 81.5144 95.016 81.0558 94.728C80.5971 94.4347 80.3064 94.0427 80.1838 93.552L78.9838 93.752C79.1331 94.5307 79.5331 95.1387 80.1838 95.576C80.8398 96.0133 81.6744 96.232 82.6878 96.232ZM91.094 96.232C92.1553 96.232 92.9873 96 93.59 95.536C94.198 95.0667 94.502 94.424 94.502 93.608C94.502 93.16 94.406 92.784 94.214 92.48C94.0273 92.176 93.7047 91.912 93.246 91.688C92.7927 91.464 92.1687 91.2507 91.374 91.048C90.6967 90.8773 90.174 90.72 89.806 90.576C89.4433 90.432 89.1927 90.28 89.054 90.12C88.9153 89.9547 88.846 89.7573 88.846 89.528C88.846 89.1173 89.038 88.7893 89.422 88.544C89.806 88.2987 90.3047 88.1813 90.918 88.192C91.5687 88.2027 92.1047 88.3573 92.526 88.656C92.9473 88.9493 93.2007 89.3493 93.286 89.856L94.486 89.64C94.4273 89.1387 94.2407 88.6987 93.926 88.32C93.6113 87.9413 93.1953 87.648 92.678 87.44C92.166 87.2267 91.5847 87.12 90.934 87.12C90.2833 87.12 89.71 87.224 89.214 87.432C88.7233 87.6347 88.3393 87.9227 88.062 88.296C87.79 88.664 87.654 89.0933 87.654 89.584C87.654 89.984 87.7447 90.3253 87.926 90.608C88.1127 90.8853 88.43 91.1333 88.878 91.352C89.326 91.5653 89.9393 91.7787 90.718 91.992C91.4487 92.1893 91.9953 92.36 92.358 92.504C92.726 92.648 92.9713 92.8053 93.094 92.976C93.2167 93.1413 93.278 93.3573 93.278 93.624C93.278 94.0933 93.0887 94.4667 92.71 94.744C92.3313 95.0213 91.814 95.16 91.158 95.16C90.486 95.16 89.9207 95.016 89.462 94.728C89.0033 94.4347 88.7127 94.0427 88.59 93.552L87.39 93.752C87.5393 94.5307 87.9393 95.1387 88.59 95.576C89.246 96.0133 90.0807 96.232 91.094 96.232ZM99.9323 96.24C100.77 96.24 101.519 96.0347 102.18 95.624C102.847 95.2133 103.351 94.6293 103.692 93.872L102.596 93.448C102.047 94.5573 101.143 95.112 99.8843 95.112C99.0203 95.112 98.3429 94.8427 97.8523 94.304C97.3669 93.7653 97.1003 93 97.0523 92.008H103.86C103.903 90.4827 103.57 89.288 102.86 88.424C102.156 87.5547 101.164 87.12 99.8843 87.12C99.0523 87.12 98.3296 87.3067 97.7163 87.68C97.1083 88.0533 96.6363 88.584 96.3003 89.272C95.9643 89.96 95.7963 90.776 95.7963 91.72C95.7963 92.632 95.9643 93.4267 96.3003 94.104C96.6416 94.7813 97.1216 95.3067 97.7403 95.68C98.3643 96.0533 99.0949 96.24 99.9323 96.24ZM99.9163 88.2C101.543 88.2 102.447 89.1413 102.628 91.024H97.0763C97.1669 90.112 97.4549 89.4133 97.9403 88.928C98.4256 88.4427 99.0843 88.2 99.9163 88.2ZM110.34 96V94.968C109.721 95.0693 109.201 95.0853 108.78 95.016C108.364 94.9467 108.06 94.7333 107.868 94.376C107.766 94.1893 107.71 93.976 107.7 93.736C107.694 93.4907 107.692 93.1867 107.692 92.824V88.368H110.34V87.36H107.692V84.96H106.524V87.36H104.676V88.368H106.524V92.872C106.524 93.2933 106.529 93.6693 106.54 94C106.556 94.3307 106.641 94.6533 106.796 94.968C106.988 95.352 107.268 95.6347 107.636 95.816C108.009 95.9973 108.43 96.0987 108.9 96.12C109.374 96.1413 109.854 96.1013 110.34 96ZM112.202 96H118.85V94.872H113.378V84.48H112.202V96ZM120.214 96H121.39V91.624H124.662C124.768 91.624 124.894 91.6187 125.038 91.608C125.182 91.5973 125.326 91.5813 125.47 91.56C126.366 91.4213 127.056 91.0267 127.542 90.376C128.032 89.7253 128.278 88.952 128.278 88.056C128.278 87.1547 128.035 86.3787 127.55 85.728C127.064 85.0773 126.371 84.6827 125.47 84.544C125.326 84.5173 125.182 84.5013 125.038 84.496C124.899 84.4853 124.774 84.48 124.662 84.48H120.214V96ZM121.39 90.504V85.608H124.63C124.726 85.608 124.838 85.6133 124.966 85.624C125.099 85.6293 125.224 85.6453 125.342 85.672C125.934 85.8 126.368 86.096 126.646 86.56C126.928 87.0187 127.07 87.5173 127.07 88.056C127.07 88.5893 126.928 89.088 126.646 89.552C126.368 90.016 125.934 90.3093 125.342 90.432C125.224 90.4587 125.099 90.4773 124.966 90.488C124.838 90.4987 124.726 90.504 124.63 90.504H121.39ZM132.798 96H134.358L138.326 84.48H137.102L133.566 94.664L130.054 84.48H128.83L132.798 96ZM141.28 96.24C142.789 96.24 143.885 95.6827 144.568 94.568V96H145.616V90.632C145.616 90.312 145.6 89.9973 145.568 89.688C145.536 89.3787 145.466 89.0987 145.36 88.848C145.13 88.288 144.738 87.8613 144.184 87.568C143.634 87.2693 142.965 87.12 142.176 87.12C141.226 87.12 140.453 87.3333 139.856 87.76C139.258 88.1867 138.858 88.7867 138.656 89.56L139.799 89.896C139.965 89.32 140.25 88.8987 140.656 88.632C141.066 88.3653 141.568 88.232 142.16 88.232C142.981 88.232 143.568 88.424 143.92 88.808C144.272 89.1867 144.453 89.7653 144.464 90.544C144.08 90.5973 143.656 90.6533 143.192 90.712C142.733 90.7707 142.272 90.8373 141.808 90.912C141.344 90.9867 140.917 91.072 140.528 91.168C139.882 91.3387 139.354 91.624 138.944 92.024C138.533 92.4187 138.328 92.9707 138.328 93.68C138.328 94.1387 138.437 94.5627 138.656 94.952C138.874 95.3413 139.202 95.6533 139.64 95.888C140.082 96.1227 140.629 96.24 141.28 96.24ZM141.416 95.224C140.952 95.224 140.578 95.1493 140.296 95C140.018 94.8453 139.816 94.6507 139.688 94.416C139.565 94.176 139.504 93.9307 139.504 93.68C139.504 93.2107 139.661 92.8587 139.976 92.624C140.29 92.3893 140.632 92.2187 141 92.112C141.474 91.984 142.026 91.88 142.656 91.8C143.285 91.72 143.882 91.6453 144.448 91.576C144.448 91.7733 144.44 92 144.424 92.256C144.413 92.5067 144.384 92.7387 144.336 92.952C144.224 93.6027 143.914 94.144 143.408 94.576C142.906 95.008 142.242 95.224 141.416 95.224ZM151.002 96.216C151.621 96.216 152.178 96.0987 152.674 95.864C153.175 95.624 153.586 95.2693 153.906 94.8V96H154.962V87.36H153.786V91.968C153.786 92.944 153.567 93.7093 153.13 94.264C152.693 94.8187 152.058 95.096 151.226 95.096C150.623 95.096 150.138 94.952 149.77 94.664C149.402 94.3707 149.135 93.9733 148.97 93.472C148.805 92.9707 148.722 92.4027 148.722 91.768V87.36H147.538V92.112C147.538 92.5973 147.597 93.0827 147.714 93.568C147.837 94.0533 148.031 94.496 148.298 94.896C148.565 95.296 148.919 95.616 149.362 95.856C149.81 96.096 150.357 96.216 151.002 96.216ZM157.358 96H158.534V84.24H157.358V96ZM165.637 96V94.968C165.018 95.0693 164.498 95.0853 164.077 95.016C163.661 94.9467 163.357 94.7333 163.165 94.376C163.063 94.1893 163.007 93.976 162.997 93.736C162.991 93.4907 162.989 93.1867 162.989 92.824V88.368H165.637V87.36H162.989V84.96H161.821V87.36H159.973V88.368H161.821V92.872C161.821 93.2933 161.826 93.6693 161.837 94C161.853 94.3307 161.938 94.6533 162.093 94.968C162.285 95.352 162.565 95.6347 162.933 95.816C163.306 95.9973 163.727 96.0987 164.197 96.12C164.671 96.1413 165.151 96.1013 165.637 96Z" fill="white"></path> <path d="M25.112 148H26.296V142.424C26.296 141.747 26.48 141.205 26.848 140.8C27.216 140.389 27.6987 140.184 28.296 140.184C28.8933 140.184 29.3733 140.384 29.736 140.784C30.104 141.179 30.288 141.72 30.288 142.408L30.28 148H31.44L31.448 142.424C31.448 141.885 31.5467 141.453 31.744 141.128C31.9467 140.797 32.2027 140.557 32.512 140.408C32.8213 140.259 33.1387 140.184 33.464 140.184C34.0347 140.184 34.504 140.376 34.872 140.76C35.2453 141.139 35.432 141.661 35.432 142.328L35.424 148H36.6L36.608 142.104C36.608 141.192 36.3467 140.469 35.824 139.936C35.3067 139.397 34.6107 139.128 33.736 139.128C33.16 139.128 32.6427 139.259 32.184 139.52C31.7253 139.776 31.3707 140.131 31.12 140.584C30.8853 140.109 30.5467 139.749 30.104 139.504C29.6667 139.253 29.1653 139.128 28.6 139.128C28.088 139.128 27.6213 139.232 27.2 139.44C26.7787 139.643 26.4347 139.92 26.168 140.272V139.36H25.112V148ZM41.9865 148.216C42.6052 148.216 43.1625 148.099 43.6585 147.864C44.1598 147.624 44.5705 147.269 44.8905 146.8V148H45.9465V139.36H44.7705V143.968C44.7705 144.944 44.5518 145.709 44.1145 146.264C43.6772 146.819 43.0425 147.096 42.2105 147.096C41.6078 147.096 41.1225 146.952 40.7545 146.664C40.3865 146.371 40.1198 145.973 39.9545 145.472C39.7892 144.971 39.7065 144.403 39.7065 143.768V139.36H38.5225V144.112C38.5225 144.597 38.5812 145.083 38.6985 145.568C38.8212 146.053 39.0158 146.496 39.2825 146.896C39.5492 147.296 39.9038 147.616 40.3465 147.856C40.7945 148.096 41.3412 148.216 41.9865 148.216ZM48.3425 148H49.5185V136.24H48.3425V148ZM56.6209 148V146.968C56.0022 147.069 55.4822 147.085 55.0609 147.016C54.6449 146.947 54.3409 146.733 54.1489 146.376C54.0475 146.189 53.9915 145.976 53.9809 145.736C53.9755 145.491 53.9729 145.187 53.9729 144.824V140.368H56.6209V139.36H53.9729V136.96H52.8049V139.36H50.9569V140.368H52.8049V144.872C52.8049 145.293 52.8102 145.669 52.8209 146C52.8369 146.331 52.9222 146.653 53.0769 146.968C53.2689 147.352 53.5489 147.635 53.9169 147.816C54.2902 147.997 54.7115 148.099 55.1809 148.12C55.6555 148.141 56.1355 148.101 56.6209 148ZM58.4831 137.72H59.6591V136.4H58.4831V137.72ZM58.4831 148H59.6591V139.36H58.4831V148ZM61.2575 148H62.4815L63.4415 145.208H68.5615L69.5295 148H70.7535L66.7855 136.48H65.2255L61.2575 148ZM63.8255 144.104L65.9935 137.808L68.1775 144.104H63.8255ZM75.4221 148.232C76.4835 148.232 77.3155 148 77.9181 147.536C78.5261 147.067 78.8301 146.424 78.8301 145.608C78.8301 145.16 78.7341 144.784 78.5421 144.48C78.3555 144.176 78.0328 143.912 77.5741 143.688C77.1208 143.464 76.4968 143.251 75.7021 143.048C75.0248 142.877 74.5021 142.72 74.1341 142.576C73.7715 142.432 73.5208 142.28 73.3821 142.12C73.2435 141.955 73.1741 141.757 73.1741 141.528C73.1741 141.117 73.3661 140.789 73.7501 140.544C74.1341 140.299 74.6328 140.181 75.2461 140.192C75.8968 140.203 76.4328 140.357 76.8541 140.656C77.2755 140.949 77.5288 141.349 77.6141 141.856L78.8141 141.64C78.7555 141.139 78.5688 140.699 78.2541 140.32C77.9395 139.941 77.5235 139.648 77.0061 139.44C76.4941 139.227 75.9128 139.12 75.2621 139.12C74.6115 139.12 74.0381 139.224 73.5421 139.432C73.0515 139.635 72.6675 139.923 72.3901 140.296C72.1181 140.664 71.9821 141.093 71.9821 141.584C71.9821 141.984 72.0728 142.325 72.2541 142.608C72.4408 142.885 72.7581 143.133 73.2061 143.352C73.6541 143.565 74.2675 143.779 75.0461 143.992C75.7768 144.189 76.3235 144.36 76.6861 144.504C77.0541 144.648 77.2995 144.805 77.4221 144.976C77.5448 145.141 77.6061 145.357 77.6061 145.624C77.6061 146.093 77.4168 146.467 77.0381 146.744C76.6595 147.021 76.1421 147.16 75.4861 147.16C74.8141 147.16 74.2488 147.016 73.7901 146.728C73.3315 146.435 73.0408 146.043 72.9181 145.552L71.7181 145.752C71.8675 146.531 72.2675 147.139 72.9181 147.576C73.5741 148.013 74.4088 148.232 75.4221 148.232ZM83.8284 148.232C84.8897 148.232 85.7217 148 86.3244 147.536C86.9324 147.067 87.2364 146.424 87.2364 145.608C87.2364 145.16 87.1404 144.784 86.9484 144.48C86.7617 144.176 86.439 143.912 85.9804 143.688C85.527 143.464 84.903 143.251 84.1084 143.048C83.431 142.877 82.9084 142.72 82.5404 142.576C82.1777 142.432 81.927 142.28 81.7884 142.12C81.6497 141.955 81.5804 141.757 81.5804 141.528C81.5804 141.117 81.7724 140.789 82.1564 140.544C82.5404 140.299 83.039 140.181 83.6524 140.192C84.303 140.203 84.839 140.357 85.2604 140.656C85.6817 140.949 85.935 141.349 86.0204 141.856L87.2204 141.64C87.1617 141.139 86.975 140.699 86.6604 140.32C86.3457 139.941 85.9297 139.648 85.4124 139.44C84.9004 139.227 84.319 139.12 83.6684 139.12C83.0177 139.12 82.4444 139.224 81.9484 139.432C81.4577 139.635 81.0737 139.923 80.7964 140.296C80.5244 140.664 80.3884 141.093 80.3884 141.584C80.3884 141.984 80.479 142.325 80.6604 142.608C80.847 142.885 81.1644 143.133 81.6124 143.352C82.0604 143.565 82.6737 143.779 83.4524 143.992C84.183 144.189 84.7297 144.36 85.0924 144.504C85.4604 144.648 85.7057 144.805 85.8284 144.976C85.951 145.141 86.0124 145.357 86.0124 145.624C86.0124 146.093 85.823 146.467 85.4444 146.744C85.0657 147.021 84.5484 147.16 83.8924 147.16C83.2204 147.16 82.655 147.016 82.1964 146.728C81.7377 146.435 81.447 146.043 81.3244 145.552L80.1244 145.752C80.2737 146.531 80.6737 147.139 81.3244 147.576C81.9804 148.013 82.815 148.232 83.8284 148.232ZM92.6666 148.24C93.504 148.24 94.2533 148.035 94.9146 147.624C95.5813 147.213 96.0853 146.629 96.4266 145.872L95.3306 145.448C94.7813 146.557 93.8773 147.112 92.6186 147.112C91.7546 147.112 91.0773 146.843 90.5866 146.304C90.1013 145.765 89.8346 145 89.7866 144.008H96.5946C96.6373 142.483 96.304 141.288 95.5946 140.424C94.8906 139.555 93.8986 139.12 92.6186 139.12C91.7866 139.12 91.064 139.307 90.4506 139.68C89.8426 140.053 89.3706 140.584 89.0346 141.272C88.6986 141.96 88.5306 142.776 88.5306 143.72C88.5306 144.632 88.6986 145.427 89.0346 146.104C89.376 146.781 89.856 147.307 90.4746 147.68C91.0986 148.053 91.8293 148.24 92.6666 148.24ZM92.6506 140.2C94.2773 140.2 95.1813 141.141 95.3626 143.024H89.8106C89.9013 142.112 90.1893 141.413 90.6746 140.928C91.16 140.443 91.8186 140.2 92.6506 140.2ZM103.074 148V146.968C102.455 147.069 101.935 147.085 101.514 147.016C101.098 146.947 100.794 146.733 100.602 146.376C100.501 146.189 100.445 145.976 100.434 145.736C100.429 145.491 100.426 145.187 100.426 144.824V140.368H103.074V139.36H100.426V136.96H99.258V139.36H97.41V140.368H99.258V144.872C99.258 145.293 99.2633 145.669 99.274 146C99.29 146.331 99.3753 146.653 99.53 146.968C99.722 147.352 100.002 147.635 100.37 147.816C100.743 147.997 101.165 148.099 101.634 148.12C102.109 148.141 102.589 148.101 103.074 148ZM104.936 148H111.584V146.872H106.112V136.48H104.936V148ZM112.948 148H114.124V143.624H117.396C117.503 143.624 117.628 143.619 117.772 143.608C117.916 143.597 118.06 143.581 118.204 143.56C119.1 143.421 119.791 143.027 120.276 142.376C120.767 141.725 121.012 140.952 121.012 140.056C121.012 139.155 120.769 138.379 120.284 137.728C119.799 137.077 119.105 136.683 118.204 136.544C118.06 136.517 117.916 136.501 117.772 136.496C117.633 136.485 117.508 136.48 117.396 136.48H112.948V148ZM114.124 142.504V137.608H117.364C117.46 137.608 117.572 137.613 117.7 137.624C117.833 137.629 117.959 137.645 118.076 137.672C118.668 137.8 119.103 138.096 119.38 138.56C119.663 139.019 119.804 139.517 119.804 140.056C119.804 140.589 119.663 141.088 119.38 141.552C119.103 142.016 118.668 142.309 118.076 142.432C117.959 142.459 117.833 142.477 117.7 142.488C117.572 142.499 117.46 142.504 117.364 142.504H114.124ZM125.532 148H127.092L131.06 136.48H129.836L126.3 146.664L122.788 136.48H121.564L125.532 148ZM134.014 148.24C135.523 148.24 136.619 147.683 137.302 146.568V148H138.35V142.632C138.35 142.312 138.334 141.997 138.302 141.688C138.27 141.379 138.201 141.099 138.094 140.848C137.865 140.288 137.473 139.861 136.918 139.568C136.369 139.269 135.699 139.12 134.91 139.12C133.961 139.12 133.187 139.333 132.59 139.76C131.993 140.187 131.593 140.787 131.39 141.56L132.534 141.896C132.699 141.32 132.985 140.899 133.39 140.632C133.801 140.365 134.302 140.232 134.894 140.232C135.715 140.232 136.302 140.424 136.654 140.808C137.006 141.187 137.187 141.765 137.198 142.544C136.814 142.597 136.39 142.653 135.926 142.712C135.467 142.771 135.006 142.837 134.542 142.912C134.078 142.987 133.651 143.072 133.262 143.168C132.617 143.339 132.089 143.624 131.678 144.024C131.267 144.419 131.062 144.971 131.062 145.68C131.062 146.139 131.171 146.563 131.39 146.952C131.609 147.341 131.937 147.653 132.374 147.888C132.817 148.123 133.363 148.24 134.014 148.24ZM134.15 147.224C133.686 147.224 133.313 147.149 133.03 147C132.753 146.845 132.55 146.651 132.422 146.416C132.299 146.176 132.238 145.931 132.238 145.68C132.238 145.211 132.395 144.859 132.71 144.624C133.025 144.389 133.366 144.219 133.734 144.112C134.209 143.984 134.761 143.88 135.39 143.8C136.019 143.72 136.617 143.645 137.182 143.576C137.182 143.773 137.174 144 137.158 144.256C137.147 144.507 137.118 144.739 137.07 144.952C136.958 145.603 136.649 146.144 136.142 146.576C135.641 147.008 134.977 147.224 134.15 147.224ZM143.737 148.216C144.355 148.216 144.913 148.099 145.409 147.864C145.91 147.624 146.321 147.269 146.641 146.8V148H147.697V139.36H146.521V143.968C146.521 144.944 146.302 145.709 145.865 146.264C145.427 146.819 144.793 147.096 143.961 147.096C143.358 147.096 142.873 146.952 142.505 146.664C142.137 146.371 141.87 145.973 141.705 145.472C141.539 144.971 141.457 144.403 141.457 143.768V139.36H140.273V144.112C140.273 144.597 140.331 145.083 140.449 145.568C140.571 146.053 140.766 146.496 141.033 146.896C141.299 147.296 141.654 147.616 142.097 147.856C142.545 148.096 143.091 148.216 143.737 148.216ZM150.093 148H151.269V136.24H150.093V148ZM158.371 148V146.968C157.752 147.069 157.232 147.085 156.811 147.016C156.395 146.947 156.091 146.733 155.899 146.376C155.798 146.189 155.742 145.976 155.731 145.736C155.726 145.491 155.723 145.187 155.723 144.824V140.368H158.371V139.36H155.723V136.96H154.555V139.36H152.707V140.368H154.555V144.872C154.555 145.293 154.56 145.669 154.571 146C154.587 146.331 154.672 146.653 154.827 146.968C155.019 147.352 155.299 147.635 155.667 147.816C156.04 147.997 156.462 148.099 156.931 148.12C157.406 148.141 157.886 148.101 158.371 148Z" fill="white"></path> <path d="M25.12 200H26.296V195.688C26.296 195.171 26.3547 194.656 26.472 194.144C26.5947 193.627 26.872 193.197 27.304 192.856C27.6187 192.6 27.96 192.453 28.328 192.416C28.7013 192.373 29.048 192.389 29.368 192.464V191.36C28.9893 191.264 28.56 191.261 28.08 191.352C27.6 191.437 27.1893 191.629 26.848 191.928C26.592 192.12 26.368 192.387 26.176 192.728V191.36H25.12V200ZM34.3854 200.24C35.2227 200.24 35.972 200.035 36.6334 199.624C37.3 199.213 37.804 198.629 38.1454 197.872L37.0494 197.448C36.5 198.557 35.596 199.112 34.3374 199.112C33.4734 199.112 32.796 198.843 32.3054 198.304C31.82 197.765 31.5534 197 31.5054 196.008H38.3134C38.356 194.483 38.0227 193.288 37.3134 192.424C36.6094 191.555 35.6174 191.12 34.3374 191.12C33.5054 191.12 32.7827 191.307 32.1694 191.68C31.5614 192.053 31.0894 192.584 30.7534 193.272C30.4174 193.96 30.2494 194.776 30.2494 195.72C30.2494 196.632 30.4174 197.427 30.7534 198.104C31.0947 198.781 31.5747 199.307 32.1934 199.68C32.8174 200.053 33.548 200.24 34.3854 200.24ZM34.3694 192.2C35.996 192.2 36.9 193.141 37.0814 195.024H31.5294C31.62 194.112 31.908 193.413 32.3934 192.928C32.8787 192.443 33.5374 192.2 34.3694 192.2ZM41.6163 200H42.6403L44.7923 193.12L46.9523 200H47.9763L50.6163 191.36H49.4483L47.3843 198.072L45.3283 191.36H44.2563L42.2003 198.072L40.1523 191.36L38.9763 191.352L41.6163 200ZM54.0451 200.24C55.5545 200.24 56.6505 199.683 57.3331 198.568V200H58.3811V194.632C58.3811 194.312 58.3651 193.997 58.3331 193.688C58.3011 193.379 58.2318 193.099 58.1251 192.848C57.8958 192.288 57.5038 191.861 56.9491 191.568C56.3998 191.269 55.7305 191.12 54.9411 191.12C53.9918 191.12 53.2185 191.333 52.6211 191.76C52.0238 192.187 51.6238 192.787 51.4211 193.56L52.5651 193.896C52.7305 193.32 53.0158 192.899 53.4211 192.632C53.8318 192.365 54.3331 192.232 54.9251 192.232C55.7465 192.232 56.3331 192.424 56.6851 192.808C57.0371 193.187 57.2185 193.765 57.2291 194.544C56.8451 194.597 56.4211 194.653 55.9571 194.712C55.4985 194.771 55.0371 194.837 54.5731 194.912C54.1091 194.987 53.6825 195.072 53.2931 195.168C52.6478 195.339 52.1198 195.624 51.7091 196.024C51.2985 196.419 51.0931 196.971 51.0931 197.68C51.0931 198.139 51.2025 198.563 51.4211 198.952C51.6398 199.341 51.9678 199.653 52.4051 199.888C52.8478 200.123 53.3945 200.24 54.0451 200.24ZM54.1811 199.224C53.7171 199.224 53.3438 199.149 53.0611 199C52.7838 198.845 52.5811 198.651 52.4531 198.416C52.3305 198.176 52.2691 197.931 52.2691 197.68C52.2691 197.211 52.4265 196.859 52.7411 196.624C53.0558 196.389 53.3971 196.219 53.7651 196.112C54.2398 195.984 54.7918 195.88 55.4211 195.8C56.0505 195.72 56.6478 195.645 57.2131 195.576C57.2131 195.773 57.2051 196 57.1891 196.256C57.1785 196.507 57.1491 196.739 57.1011 196.952C56.9891 197.603 56.6798 198.144 56.1731 198.576C55.6718 199.008 55.0078 199.224 54.1811 199.224ZM60.4638 200H61.6398V195.688C61.6398 195.171 61.6984 194.656 61.8158 194.144C61.9384 193.627 62.2158 193.197 62.6478 192.856C62.9624 192.6 63.3038 192.453 63.6718 192.416C64.0451 192.373 64.3918 192.389 64.7118 192.464V191.36C64.3331 191.264 63.9038 191.261 63.4238 191.352C62.9438 191.437 62.5331 191.629 62.1918 191.928C61.9358 192.12 61.7118 192.387 61.5198 192.728V191.36H60.4638V200ZM69.4251 200.24C70.0545 200.24 70.6065 200.112 71.0811 199.856C71.5558 199.595 71.9478 199.24 72.2571 198.792V200H73.3131V188.48H72.1291V192.376C71.8145 191.981 71.4251 191.675 70.9611 191.456C70.5025 191.232 69.9745 191.12 69.3771 191.12C68.5878 191.12 67.9105 191.32 67.3451 191.72C66.7798 192.12 66.3451 192.664 66.0411 193.352C65.7425 194.04 65.5931 194.813 65.5931 195.672C65.5931 196.536 65.7425 197.312 66.0411 198C66.3451 198.688 66.7825 199.235 67.3531 199.64C67.9291 200.04 68.6198 200.24 69.4251 200.24ZM69.5451 199.144C68.9478 199.144 68.4465 198.992 68.0411 198.688C67.6411 198.379 67.3398 197.963 67.1371 197.44C66.9398 196.917 66.8411 196.328 66.8411 195.672C66.8411 195.021 66.9398 194.435 67.1371 193.912C67.3345 193.389 67.6331 192.976 68.0331 192.672C68.4385 192.368 68.9505 192.216 69.5691 192.216C70.4705 192.216 71.1425 192.539 71.5851 193.184C72.0331 193.824 72.2571 194.653 72.2571 195.672C72.2571 196.339 72.1585 196.933 71.9611 197.456C71.7638 197.979 71.4651 198.392 71.0651 198.696C70.6651 198.995 70.1585 199.144 69.5451 199.144ZM78.4855 200H80.0455L84.0135 188.48H82.7895L79.2535 198.664L75.7415 188.48H74.5175L78.4855 200ZM86.967 200.24C88.4763 200.24 89.5723 199.683 90.255 198.568V200H91.303V194.632C91.303 194.312 91.287 193.997 91.255 193.688C91.223 193.379 91.1537 193.099 91.047 192.848C90.8177 192.288 90.4257 191.861 89.871 191.568C89.3217 191.269 88.6523 191.12 87.863 191.12C86.9137 191.12 86.1403 191.333 85.543 191.76C84.9457 192.187 84.5457 192.787 84.343 193.56L85.487 193.896C85.6523 193.32 85.9377 192.899 86.343 192.632C86.7537 192.365 87.255 192.232 87.847 192.232C88.6683 192.232 89.255 192.424 89.607 192.808C89.959 193.187 90.1403 193.765 90.151 194.544C89.767 194.597 89.343 194.653 88.879 194.712C88.4203 194.771 87.959 194.837 87.495 194.912C87.031 194.987 86.6043 195.072 86.215 195.168C85.5697 195.339 85.0417 195.624 84.631 196.024C84.2203 196.419 84.015 196.971 84.015 197.68C84.015 198.139 84.1243 198.563 84.343 198.952C84.5617 199.341 84.8897 199.653 85.327 199.888C85.7697 200.123 86.3163 200.24 86.967 200.24ZM87.103 199.224C86.639 199.224 86.2657 199.149 85.983 199C85.7057 198.845 85.503 198.651 85.375 198.416C85.2523 198.176 85.191 197.931 85.191 197.68C85.191 197.211 85.3483 196.859 85.663 196.624C85.9777 196.389 86.319 196.219 86.687 196.112C87.1617 195.984 87.7137 195.88 88.343 195.8C88.9723 195.72 89.5697 195.645 90.135 195.576C90.135 195.773 90.127 196 90.111 196.256C90.1003 196.507 90.071 196.739 90.023 196.952C89.911 197.603 89.6017 198.144 89.095 198.576C88.5937 199.008 87.9297 199.224 87.103 199.224ZM96.6896 200.216C97.3083 200.216 97.8656 200.099 98.3616 199.864C98.863 199.624 99.2736 199.269 99.5936 198.8V200H100.65V191.36H99.4736V195.968C99.4736 196.944 99.255 197.709 98.8176 198.264C98.3803 198.819 97.7456 199.096 96.9136 199.096C96.311 199.096 95.8256 198.952 95.4576 198.664C95.0896 198.371 94.823 197.973 94.6576 197.472C94.4923 196.971 94.4096 196.403 94.4096 195.768V191.36H93.2256V196.112C93.2256 196.597 93.2843 197.083 93.4016 197.568C93.5243 198.053 93.719 198.496 93.9856 198.896C94.2523 199.296 94.607 199.616 95.0496 199.856C95.4976 200.096 96.0443 200.216 96.6896 200.216ZM103.046 200H104.222V188.24H103.046V200ZM111.324 200V198.968C110.705 199.069 110.185 199.085 109.764 199.016C109.348 198.947 109.044 198.733 108.852 198.376C108.751 198.189 108.695 197.976 108.684 197.736C108.679 197.491 108.676 197.187 108.676 196.824V192.368H111.324V191.36H108.676V188.96H107.508V191.36H105.66V192.368H107.508V196.872C107.508 197.293 107.513 197.669 107.524 198C107.54 198.331 107.625 198.653 107.78 198.968C107.972 199.352 108.252 199.635 108.62 199.816C108.993 199.997 109.415 200.099 109.884 200.12C110.359 200.141 110.839 200.101 111.324 200Z" fill="white"></path> <path d="M217.112 96H218.296V91.392C218.296 90.416 218.515 89.6507 218.952 89.096C219.389 88.5413 220.024 88.264 220.856 88.264C221.459 88.264 221.944 88.4107 222.312 88.704C222.68 88.992 222.947 89.3867 223.112 89.888C223.277 90.3893 223.36 90.9573 223.36 91.592V96H224.544V91.248C224.544 90.7627 224.483 90.2773 224.36 89.792C224.243 89.3067 224.051 88.864 223.784 88.464C223.517 88.064 223.163 87.744 222.72 87.504C222.277 87.264 221.731 87.144 221.08 87.144C220.461 87.144 219.901 87.264 219.4 87.504C218.904 87.7387 218.496 88.0907 218.176 88.56V87.36H217.112V96ZM230.166 96.24C231.019 96.24 231.75 96.048 232.358 95.664C232.971 95.28 233.44 94.7467 233.766 94.064C234.096 93.376 234.262 92.5787 234.262 91.672C234.262 90.7813 234.099 89.9947 233.774 89.312C233.454 88.624 232.987 88.088 232.374 87.704C231.766 87.3147 231.03 87.12 230.166 87.12C229.323 87.12 228.595 87.312 227.982 87.696C227.374 88.0747 226.904 88.6053 226.574 89.288C226.243 89.9707 226.078 90.7653 226.078 91.672C226.078 92.5627 226.238 93.352 226.558 94.04C226.883 94.728 227.35 95.2667 227.958 95.656C228.571 96.0453 229.307 96.24 230.166 96.24ZM230.166 95.112C229.232 95.112 228.526 94.8 228.046 94.176C227.566 93.5467 227.326 92.712 227.326 91.672C227.326 90.664 227.558 89.8427 228.022 89.208C228.486 88.568 229.2 88.248 230.166 88.248C231.12 88.248 231.832 88.56 232.302 89.184C232.776 89.8027 233.014 90.632 233.014 91.672C233.014 92.6907 232.779 93.52 232.31 94.16C231.84 94.7947 231.126 95.112 230.166 95.112ZM240.73 96V94.968C240.112 95.0693 239.592 95.0853 239.17 95.016C238.754 94.9467 238.45 94.7333 238.258 94.376C238.157 94.1893 238.101 93.976 238.09 93.736C238.085 93.4907 238.082 93.1867 238.082 92.824V88.368H240.73V87.36H238.082V84.96H236.914V87.36H235.066V88.368H236.914V92.872C236.914 93.2933 236.92 93.6693 236.93 94C236.946 94.3307 237.032 94.6533 237.186 94.968C237.378 95.352 237.658 95.6347 238.026 95.816C238.4 95.9973 238.821 96.0987 239.29 96.12C239.765 96.1413 240.245 96.1013 240.73 96ZM249.22 96.24C250.078 96.24 250.814 96.04 251.428 95.64C252.046 95.2347 252.518 94.648 252.844 93.88L251.66 93.528C251.222 94.584 250.409 95.112 249.22 95.112C248.292 95.112 247.593 94.8 247.124 94.176C246.654 93.5467 246.414 92.7147 246.404 91.68C246.414 90.672 246.646 89.848 247.1 89.208C247.558 88.568 248.265 88.248 249.22 88.248C249.785 88.248 250.286 88.392 250.724 88.68C251.166 88.9627 251.489 89.3627 251.692 89.88L252.844 89.512C252.604 88.7707 252.158 88.1867 251.508 87.76C250.862 87.3333 250.102 87.12 249.228 87.12C248.369 87.12 247.638 87.312 247.036 87.696C246.433 88.0747 245.972 88.608 245.652 89.296C245.332 89.9787 245.166 90.7733 245.156 91.68C245.166 92.5653 245.326 93.352 245.636 94.04C245.95 94.728 246.409 95.2667 247.012 95.656C247.614 96.0453 248.35 96.24 249.22 96.24ZM257.869 96.24C258.722 96.24 259.453 96.048 260.061 95.664C260.674 95.28 261.143 94.7467 261.469 94.064C261.799 93.376 261.965 92.5787 261.965 91.672C261.965 90.7813 261.802 89.9947 261.477 89.312C261.157 88.624 260.69 88.088 260.077 87.704C259.469 87.3147 258.733 87.12 257.869 87.12C257.026 87.12 256.298 87.312 255.685 87.696C255.077 88.0747 254.607 88.6053 254.277 89.288C253.946 89.9707 253.781 90.7653 253.781 91.672C253.781 92.5627 253.941 93.352 254.261 94.04C254.586 94.728 255.053 95.2667 255.661 95.656C256.274 96.0453 257.01 96.24 257.869 96.24ZM257.869 95.112C256.935 95.112 256.229 94.8 255.749 94.176C255.269 93.5467 255.029 92.712 255.029 91.672C255.029 90.664 255.261 89.8427 255.725 89.208C256.189 88.568 256.903 88.248 257.869 88.248C258.823 88.248 259.535 88.56 260.005 89.184C260.479 89.8027 260.717 90.632 260.717 91.672C260.717 92.6907 260.482 93.52 260.013 94.16C259.543 94.7947 258.829 95.112 257.869 95.112ZM263.721 96H264.905V90.424C264.905 89.7467 265.089 89.2053 265.457 88.8C265.825 88.3893 266.308 88.184 266.905 88.184C267.503 88.184 267.983 88.384 268.345 88.784C268.713 89.1787 268.897 89.72 268.897 90.408L268.889 96H270.049L270.057 90.424C270.057 89.8853 270.156 89.4533 270.353 89.128C270.556 88.7973 270.812 88.5573 271.121 88.408C271.431 88.2587 271.748 88.184 272.073 88.184C272.644 88.184 273.113 88.376 273.481 88.76C273.855 89.1387 274.041 89.6613 274.041 90.328L274.033 96H275.209L275.217 90.104C275.217 89.192 274.956 88.4693 274.433 87.936C273.916 87.3973 273.22 87.128 272.345 87.128C271.769 87.128 271.252 87.2587 270.793 87.52C270.335 87.776 269.98 88.1307 269.729 88.584C269.495 88.1093 269.156 87.7493 268.713 87.504C268.276 87.2533 267.775 87.128 267.209 87.128C266.697 87.128 266.231 87.232 265.809 87.44C265.388 87.6427 265.044 87.92 264.777 88.272V87.36H263.721V96ZM277.284 96H278.468V90.424C278.468 89.7467 278.652 89.2053 279.02 88.8C279.388 88.3893 279.871 88.184 280.468 88.184C281.065 88.184 281.545 88.384 281.908 88.784C282.276 89.1787 282.46 89.72 282.46 90.408L282.452 96H283.612L283.62 90.424C283.62 89.8853 283.719 89.4533 283.916 89.128C284.119 88.7973 284.375 88.5573 284.684 88.408C284.993 88.2587 285.311 88.184 285.636 88.184C286.207 88.184 286.676 88.376 287.044 88.76C287.417 89.1387 287.604 89.6613 287.604 90.328L287.596 96H288.772L288.78 90.104C288.78 89.192 288.519 88.4693 287.996 87.936C287.479 87.3973 286.783 87.128 285.908 87.128C285.332 87.128 284.815 87.2587 284.356 87.52C283.897 87.776 283.543 88.1307 283.292 88.584C283.057 88.1093 282.719 87.7493 282.276 87.504C281.839 87.2533 281.337 87.128 280.772 87.128C280.26 87.128 279.793 87.232 279.372 87.44C278.951 87.6427 278.607 87.92 278.34 88.272V87.36H277.284V96ZM294.4 96.24C295.253 96.24 295.984 96.048 296.592 95.664C297.205 95.28 297.675 94.7467 298 94.064C298.331 93.376 298.496 92.5787 298.496 91.672C298.496 90.7813 298.333 89.9947 298.008 89.312C297.688 88.624 297.221 88.088 296.608 87.704C296 87.3147 295.264 87.12 294.4 87.12C293.557 87.12 292.829 87.312 292.216 87.696C291.608 88.0747 291.139 88.6053 290.808 89.288C290.477 89.9707 290.312 90.7653 290.312 91.672C290.312 92.5627 290.472 93.352 290.792 94.04C291.117 94.728 291.584 95.2667 292.192 95.656C292.805 96.0453 293.541 96.24 294.4 96.24ZM294.4 95.112C293.467 95.112 292.76 94.8 292.28 94.176C291.8 93.5467 291.56 92.712 291.56 91.672C291.56 90.664 291.792 89.8427 292.256 89.208C292.72 88.568 293.435 88.248 294.4 88.248C295.355 88.248 296.067 88.56 296.536 89.184C297.011 89.8027 297.248 90.632 297.248 91.672C297.248 92.6907 297.013 93.52 296.544 94.16C296.075 94.7947 295.36 95.112 294.4 95.112ZM300.253 96H301.437V91.392C301.437 90.416 301.655 89.6507 302.093 89.096C302.53 88.5413 303.165 88.264 303.997 88.264C304.599 88.264 305.085 88.4107 305.453 88.704C305.821 88.992 306.087 89.3867 306.253 89.888C306.418 90.3893 306.501 90.9573 306.501 91.592V96H307.685V91.248C307.685 90.7627 307.623 90.2773 307.501 89.792C307.383 89.3067 307.191 88.864 306.925 88.464C306.658 88.064 306.303 87.744 305.861 87.504C305.418 87.264 304.871 87.144 304.221 87.144C303.602 87.144 303.042 87.264 302.541 87.504C302.045 87.7387 301.637 88.0907 301.317 88.56V87.36H300.253V96Z" fill="white"></path> <path d="M217.112 148H218.296V143.392C218.296 142.416 218.515 141.651 218.952 141.096C219.389 140.541 220.024 140.264 220.856 140.264C221.459 140.264 221.944 140.411 222.312 140.704C222.68 140.992 222.947 141.387 223.112 141.888C223.277 142.389 223.36 142.957 223.36 143.592V148H224.544V143.248C224.544 142.763 224.483 142.277 224.36 141.792C224.243 141.307 224.051 140.864 223.784 140.464C223.517 140.064 223.163 139.744 222.72 139.504C222.277 139.264 221.731 139.144 221.08 139.144C220.461 139.144 219.901 139.264 219.4 139.504C218.904 139.739 218.496 140.091 218.176 140.56V139.36H217.112V148ZM230.166 148.24C231.019 148.24 231.75 148.048 232.358 147.664C232.971 147.28 233.44 146.747 233.766 146.064C234.096 145.376 234.262 144.579 234.262 143.672C234.262 142.781 234.099 141.995 233.774 141.312C233.454 140.624 232.987 140.088 232.374 139.704C231.766 139.315 231.03 139.12 230.166 139.12C229.323 139.12 228.595 139.312 227.982 139.696C227.374 140.075 226.904 140.605 226.574 141.288C226.243 141.971 226.078 142.765 226.078 143.672C226.078 144.563 226.238 145.352 226.558 146.04C226.883 146.728 227.35 147.267 227.958 147.656C228.571 148.045 229.307 148.24 230.166 148.24ZM230.166 147.112C229.232 147.112 228.526 146.8 228.046 146.176C227.566 145.547 227.326 144.712 227.326 143.672C227.326 142.664 227.558 141.843 228.022 141.208C228.486 140.568 229.2 140.248 230.166 140.248C231.12 140.248 231.832 140.56 232.302 141.184C232.776 141.803 233.014 142.632 233.014 143.672C233.014 144.691 232.779 145.52 232.31 146.16C231.84 146.795 231.126 147.112 230.166 147.112ZM240.73 148V146.968C240.112 147.069 239.592 147.085 239.17 147.016C238.754 146.947 238.45 146.733 238.258 146.376C238.157 146.189 238.101 145.976 238.09 145.736C238.085 145.491 238.082 145.187 238.082 144.824V140.368H240.73V139.36H238.082V136.96H236.914V139.36H235.066V140.368H236.914V144.872C236.914 145.293 236.92 145.669 236.93 146C236.946 146.331 237.032 146.653 237.186 146.968C237.378 147.352 237.658 147.635 238.026 147.816C238.4 147.997 238.821 148.099 239.29 148.12C239.765 148.141 240.245 148.101 240.73 148ZM249.22 148.24C250.078 148.24 250.814 148.04 251.428 147.64C252.046 147.235 252.518 146.648 252.844 145.88L251.66 145.528C251.222 146.584 250.409 147.112 249.22 147.112C248.292 147.112 247.593 146.8 247.124 146.176C246.654 145.547 246.414 144.715 246.404 143.68C246.414 142.672 246.646 141.848 247.1 141.208C247.558 140.568 248.265 140.248 249.22 140.248C249.785 140.248 250.286 140.392 250.724 140.68C251.166 140.963 251.489 141.363 251.692 141.88L252.844 141.512C252.604 140.771 252.158 140.187 251.508 139.76C250.862 139.333 250.102 139.12 249.228 139.12C248.369 139.12 247.638 139.312 247.036 139.696C246.433 140.075 245.972 140.608 245.652 141.296C245.332 141.979 245.166 142.773 245.156 143.68C245.166 144.565 245.326 145.352 245.636 146.04C245.95 146.728 246.409 147.267 247.012 147.656C247.614 148.045 248.35 148.24 249.22 148.24ZM257.869 148.24C258.722 148.24 259.453 148.048 260.061 147.664C260.674 147.28 261.143 146.747 261.469 146.064C261.799 145.376 261.965 144.579 261.965 143.672C261.965 142.781 261.802 141.995 261.477 141.312C261.157 140.624 260.69 140.088 260.077 139.704C259.469 139.315 258.733 139.12 257.869 139.12C257.026 139.12 256.298 139.312 255.685 139.696C255.077 140.075 254.607 140.605 254.277 141.288C253.946 141.971 253.781 142.765 253.781 143.672C253.781 144.563 253.941 145.352 254.261 146.04C254.586 146.728 255.053 147.267 255.661 147.656C256.274 148.045 257.01 148.24 257.869 148.24ZM257.869 147.112C256.935 147.112 256.229 146.8 255.749 146.176C255.269 145.547 255.029 144.712 255.029 143.672C255.029 142.664 255.261 141.843 255.725 141.208C256.189 140.568 256.903 140.248 257.869 140.248C258.823 140.248 259.535 140.56 260.005 141.184C260.479 141.803 260.717 142.632 260.717 143.672C260.717 144.691 260.482 145.52 260.013 146.16C259.543 146.795 258.829 147.112 257.869 147.112ZM263.721 148H264.905V142.424C264.905 141.747 265.089 141.205 265.457 140.8C265.825 140.389 266.308 140.184 266.905 140.184C267.503 140.184 267.983 140.384 268.345 140.784C268.713 141.179 268.897 141.72 268.897 142.408L268.889 148H270.049L270.057 142.424C270.057 141.885 270.156 141.453 270.353 141.128C270.556 140.797 270.812 140.557 271.121 140.408C271.431 140.259 271.748 140.184 272.073 140.184C272.644 140.184 273.113 140.376 273.481 140.76C273.855 141.139 274.041 141.661 274.041 142.328L274.033 148H275.209L275.217 142.104C275.217 141.192 274.956 140.469 274.433 139.936C273.916 139.397 273.22 139.128 272.345 139.128C271.769 139.128 271.252 139.259 270.793 139.52C270.335 139.776 269.98 140.131 269.729 140.584C269.495 140.109 269.156 139.749 268.713 139.504C268.276 139.253 267.775 139.128 267.209 139.128C266.697 139.128 266.231 139.232 265.809 139.44C265.388 139.643 265.044 139.92 264.777 140.272V139.36H263.721V148ZM277.284 148H278.468V142.424C278.468 141.747 278.652 141.205 279.02 140.8C279.388 140.389 279.871 140.184 280.468 140.184C281.065 140.184 281.545 140.384 281.908 140.784C282.276 141.179 282.46 141.72 282.46 142.408L282.452 148H283.612L283.62 142.424C283.62 141.885 283.719 141.453 283.916 141.128C284.119 140.797 284.375 140.557 284.684 140.408C284.993 140.259 285.311 140.184 285.636 140.184C286.207 140.184 286.676 140.376 287.044 140.76C287.417 141.139 287.604 141.661 287.604 142.328L287.596 148H288.772L288.78 142.104C288.78 141.192 288.519 140.469 287.996 139.936C287.479 139.397 286.783 139.128 285.908 139.128C285.332 139.128 284.815 139.259 284.356 139.52C283.897 139.776 283.543 140.131 283.292 140.584C283.057 140.109 282.719 139.749 282.276 139.504C281.839 139.253 281.337 139.128 280.772 139.128C280.26 139.128 279.793 139.232 279.372 139.44C278.951 139.643 278.607 139.92 278.34 140.272V139.36H277.284V148ZM294.4 148.24C295.253 148.24 295.984 148.048 296.592 147.664C297.205 147.28 297.675 146.747 298 146.064C298.331 145.376 298.496 144.579 298.496 143.672C298.496 142.781 298.333 141.995 298.008 141.312C297.688 140.624 297.221 140.088 296.608 139.704C296 139.315 295.264 139.12 294.4 139.12C293.557 139.12 292.829 139.312 292.216 139.696C291.608 140.075 291.139 140.605 290.808 141.288C290.477 141.971 290.312 142.765 290.312 143.672C290.312 144.563 290.472 145.352 290.792 146.04C291.117 146.728 291.584 147.267 292.192 147.656C292.805 148.045 293.541 148.24 294.4 148.24ZM294.4 147.112C293.467 147.112 292.76 146.8 292.28 146.176C291.8 145.547 291.56 144.712 291.56 143.672C291.56 142.664 291.792 141.843 292.256 141.208C292.72 140.568 293.435 140.248 294.4 140.248C295.355 140.248 296.067 140.56 296.536 141.184C297.011 141.803 297.248 142.632 297.248 143.672C297.248 144.691 297.013 145.52 296.544 146.16C296.075 146.795 295.36 147.112 294.4 147.112ZM300.253 148H301.437V143.392C301.437 142.416 301.655 141.651 302.093 141.096C302.53 140.541 303.165 140.264 303.997 140.264C304.599 140.264 305.085 140.411 305.453 140.704C305.821 140.992 306.087 141.387 306.253 141.888C306.418 142.389 306.501 142.957 306.501 143.592V148H307.685V143.248C307.685 142.763 307.623 142.277 307.501 141.792C307.383 141.307 307.191 140.864 306.925 140.464C306.658 140.064 306.303 139.744 305.861 139.504C305.418 139.264 304.871 139.144 304.221 139.144C303.602 139.144 303.042 139.264 302.541 139.504C302.045 139.739 301.637 140.091 301.317 140.56V139.36H300.253V148Z" fill="white"></path> <path d="M217.112 200H218.296V195.392C218.296 194.416 218.515 193.651 218.952 193.096C219.389 192.541 220.024 192.264 220.856 192.264C221.459 192.264 221.944 192.411 222.312 192.704C222.68 192.992 222.947 193.387 223.112 193.888C223.277 194.389 223.36 194.957 223.36 195.592V200H224.544V195.248C224.544 194.763 224.483 194.277 224.36 193.792C224.243 193.307 224.051 192.864 223.784 192.464C223.517 192.064 223.163 191.744 222.72 191.504C222.277 191.264 221.731 191.144 221.08 191.144C220.461 191.144 219.901 191.264 219.4 191.504C218.904 191.739 218.496 192.091 218.176 192.56V191.36H217.112V200ZM230.166 200.24C231.019 200.24 231.75 200.048 232.358 199.664C232.971 199.28 233.44 198.747 233.766 198.064C234.096 197.376 234.262 196.579 234.262 195.672C234.262 194.781 234.099 193.995 233.774 193.312C233.454 192.624 232.987 192.088 232.374 191.704C231.766 191.315 231.03 191.12 230.166 191.12C229.323 191.12 228.595 191.312 227.982 191.696C227.374 192.075 226.904 192.605 226.574 193.288C226.243 193.971 226.078 194.765 226.078 195.672C226.078 196.563 226.238 197.352 226.558 198.04C226.883 198.728 227.35 199.267 227.958 199.656C228.571 200.045 229.307 200.24 230.166 200.24ZM230.166 199.112C229.232 199.112 228.526 198.8 228.046 198.176C227.566 197.547 227.326 196.712 227.326 195.672C227.326 194.664 227.558 193.843 228.022 193.208C228.486 192.568 229.2 192.248 230.166 192.248C231.12 192.248 231.832 192.56 232.302 193.184C232.776 193.803 233.014 194.632 233.014 195.672C233.014 196.691 232.779 197.52 232.31 198.16C231.84 198.795 231.126 199.112 230.166 199.112ZM240.73 200V198.968C240.112 199.069 239.592 199.085 239.17 199.016C238.754 198.947 238.45 198.733 238.258 198.376C238.157 198.189 238.101 197.976 238.09 197.736C238.085 197.491 238.082 197.187 238.082 196.824V192.368H240.73V191.36H238.082V188.96H236.914V191.36H235.066V192.368H236.914V196.872C236.914 197.293 236.92 197.669 236.93 198C236.946 198.331 237.032 198.653 237.186 198.968C237.378 199.352 237.658 199.635 238.026 199.816C238.4 199.997 238.821 200.099 239.29 200.12C239.765 200.141 240.245 200.101 240.73 200ZM249.22 200.24C250.078 200.24 250.814 200.04 251.428 199.64C252.046 199.235 252.518 198.648 252.844 197.88L251.66 197.528C251.222 198.584 250.409 199.112 249.22 199.112C248.292 199.112 247.593 198.8 247.124 198.176C246.654 197.547 246.414 196.715 246.404 195.68C246.414 194.672 246.646 193.848 247.1 193.208C247.558 192.568 248.265 192.248 249.22 192.248C249.785 192.248 250.286 192.392 250.724 192.68C251.166 192.963 251.489 193.363 251.692 193.88L252.844 193.512C252.604 192.771 252.158 192.187 251.508 191.76C250.862 191.333 250.102 191.12 249.228 191.12C248.369 191.12 247.638 191.312 247.036 191.696C246.433 192.075 245.972 192.608 245.652 193.296C245.332 193.979 245.166 194.773 245.156 195.68C245.166 196.565 245.326 197.352 245.636 198.04C245.95 198.728 246.409 199.267 247.012 199.656C247.614 200.045 248.35 200.24 249.22 200.24ZM257.869 200.24C258.722 200.24 259.453 200.048 260.061 199.664C260.674 199.28 261.143 198.747 261.469 198.064C261.799 197.376 261.965 196.579 261.965 195.672C261.965 194.781 261.802 193.995 261.477 193.312C261.157 192.624 260.69 192.088 260.077 191.704C259.469 191.315 258.733 191.12 257.869 191.12C257.026 191.12 256.298 191.312 255.685 191.696C255.077 192.075 254.607 192.605 254.277 193.288C253.946 193.971 253.781 194.765 253.781 195.672C253.781 196.563 253.941 197.352 254.261 198.04C254.586 198.728 255.053 199.267 255.661 199.656C256.274 200.045 257.01 200.24 257.869 200.24ZM257.869 199.112C256.935 199.112 256.229 198.8 255.749 198.176C255.269 197.547 255.029 196.712 255.029 195.672C255.029 194.664 255.261 193.843 255.725 193.208C256.189 192.568 256.903 192.248 257.869 192.248C258.823 192.248 259.535 192.56 260.005 193.184C260.479 193.803 260.717 194.632 260.717 195.672C260.717 196.691 260.482 197.52 260.013 198.16C259.543 198.795 258.829 199.112 257.869 199.112ZM263.721 200H264.905V194.424C264.905 193.747 265.089 193.205 265.457 192.8C265.825 192.389 266.308 192.184 266.905 192.184C267.503 192.184 267.983 192.384 268.345 192.784C268.713 193.179 268.897 193.72 268.897 194.408L268.889 200H270.049L270.057 194.424C270.057 193.885 270.156 193.453 270.353 193.128C270.556 192.797 270.812 192.557 271.121 192.408C271.431 192.259 271.748 192.184 272.073 192.184C272.644 192.184 273.113 192.376 273.481 192.76C273.855 193.139 274.041 193.661 274.041 194.328L274.033 200H275.209L275.217 194.104C275.217 193.192 274.956 192.469 274.433 191.936C273.916 191.397 273.22 191.128 272.345 191.128C271.769 191.128 271.252 191.259 270.793 191.52C270.335 191.776 269.98 192.131 269.729 192.584C269.495 192.109 269.156 191.749 268.713 191.504C268.276 191.253 267.775 191.128 267.209 191.128C266.697 191.128 266.231 191.232 265.809 191.44C265.388 191.643 265.044 191.92 264.777 192.272V191.36H263.721V200ZM277.284 200H278.468V194.424C278.468 193.747 278.652 193.205 279.02 192.8C279.388 192.389 279.871 192.184 280.468 192.184C281.065 192.184 281.545 192.384 281.908 192.784C282.276 193.179 282.46 193.72 282.46 194.408L282.452 200H283.612L283.62 194.424C283.62 193.885 283.719 193.453 283.916 193.128C284.119 192.797 284.375 192.557 284.684 192.408C284.993 192.259 285.311 192.184 285.636 192.184C286.207 192.184 286.676 192.376 287.044 192.76C287.417 193.139 287.604 193.661 287.604 194.328L287.596 200H288.772L288.78 194.104C288.78 193.192 288.519 192.469 287.996 191.936C287.479 191.397 286.783 191.128 285.908 191.128C285.332 191.128 284.815 191.259 284.356 191.52C283.897 191.776 283.543 192.131 283.292 192.584C283.057 192.109 282.719 191.749 282.276 191.504C281.839 191.253 281.337 191.128 280.772 191.128C280.26 191.128 279.793 191.232 279.372 191.44C278.951 191.643 278.607 191.92 278.34 192.272V191.36H277.284V200ZM294.4 200.24C295.253 200.24 295.984 200.048 296.592 199.664C297.205 199.28 297.675 198.747 298 198.064C298.331 197.376 298.496 196.579 298.496 195.672C298.496 194.781 298.333 193.995 298.008 193.312C297.688 192.624 297.221 192.088 296.608 191.704C296 191.315 295.264 191.12 294.4 191.12C293.557 191.12 292.829 191.312 292.216 191.696C291.608 192.075 291.139 192.605 290.808 193.288C290.477 193.971 290.312 194.765 290.312 195.672C290.312 196.563 290.472 197.352 290.792 198.04C291.117 198.728 291.584 199.267 292.192 199.656C292.805 200.045 293.541 200.24 294.4 200.24ZM294.4 199.112C293.467 199.112 292.76 198.8 292.28 198.176C291.8 197.547 291.56 196.712 291.56 195.672C291.56 194.664 291.792 193.843 292.256 193.208C292.72 192.568 293.435 192.248 294.4 192.248C295.355 192.248 296.067 192.56 296.536 193.184C297.011 193.803 297.248 194.632 297.248 195.672C297.248 196.691 297.013 197.52 296.544 198.16C296.075 198.795 295.36 199.112 294.4 199.112ZM300.253 200H301.437V195.392C301.437 194.416 301.655 193.651 302.093 193.096C302.53 192.541 303.165 192.264 303.997 192.264C304.599 192.264 305.085 192.411 305.453 192.704C305.821 192.992 306.087 193.387 306.253 193.888C306.418 194.389 306.501 194.957 306.501 195.592V200H307.685V195.248C307.685 194.763 307.623 194.277 307.501 193.792C307.383 193.307 307.191 192.864 306.925 192.464C306.658 192.064 306.303 191.744 305.861 191.504C305.418 191.264 304.871 191.144 304.221 191.144C303.602 191.144 303.042 191.264 302.541 191.504C302.045 191.739 301.637 192.091 301.317 192.56V191.36H300.253V200Z" fill="white"></path> <path d="M221.064 47.488H222.016V46.36H221.112C220.883 46.36 220.688 46.28 220.528 46.12C220.368 45.96 220.288 45.768 220.288 45.544V40.376C220.288 39.9653 220.168 39.592 219.928 39.256L219.488 38.64L219.928 38.024C220.168 37.688 220.288 37.3147 220.288 36.904V31.752C220.288 31.5173 220.368 31.32 220.528 31.16C220.688 31 220.883 30.92 221.112 30.92H222.016V29.792H221.064C220.509 29.792 220.053 29.9707 219.696 30.328C219.339 30.6853 219.16 31.1413 219.16 31.696V36.904C219.16 37.0587 219.112 37.2133 219.016 37.368L218.336 38.32C218.187 38.5333 218.187 38.7467 218.336 38.96L219.016 39.912C219.112 40.0613 219.16 40.216 219.16 40.376V45.592C219.16 46.1413 219.339 46.5947 219.696 46.952C220.053 47.3093 220.509 47.488 221.064 47.488ZM254.074 42.712L253.322 41.976L256.378 38.96L253.322 35.944L254.074 35.208L257.826 38.96L254.074 42.712ZM318.86 32.48H320.068L316.996 44H315.788L318.86 32.48ZM368.121 42.712L367.369 41.976L370.425 38.96L367.369 35.944L368.121 35.208L371.873 38.96L368.121 42.712ZM430.548 32.48H431.756L428.684 44H427.476L430.548 32.48ZM483.882 47.488H482.93V46.36H483.834C484.064 46.36 484.258 46.28 484.418 46.12C484.578 45.96 484.658 45.768 484.658 45.544V40.376C484.658 39.9653 484.778 39.592 485.018 39.256L485.458 38.64L485.018 38.024C484.778 37.688 484.658 37.3147 484.658 36.904V31.752C484.658 31.5173 484.578 31.32 484.418 31.16C484.258 31 484.064 30.92 483.834 30.92H482.93V29.792H483.882C484.437 29.792 484.893 29.9707 485.25 30.328C485.608 30.6853 485.786 31.1413 485.786 31.696V36.904C485.786 37.0587 485.834 37.2133 485.93 37.368L486.61 38.32C486.76 38.5333 486.76 38.7467 486.61 38.96L485.93 39.912C485.834 40.0613 485.786 40.216 485.786 40.376V45.592C485.786 46.1413 485.608 46.5947 485.25 46.952C484.893 47.3093 484.437 47.488 483.882 47.488Z" fill="#949494"></path> <path d="M223.839 44H227.335C227.447 44 227.655 43.9973 227.959 43.992C228.263 43.9867 228.548 43.9653 228.815 43.928C229.689 43.8053 230.42 43.4827 231.007 42.96C231.593 42.432 232.033 41.76 232.327 40.944C232.62 40.1227 232.767 39.2213 232.767 38.24C232.767 37.2587 232.62 36.36 232.327 35.544C232.033 34.728 231.593 34.056 231.007 33.528C230.42 32.9947 229.689 32.6693 228.815 32.552C228.537 32.5147 228.252 32.4933 227.959 32.488C227.665 32.4827 227.457 32.48 227.335 32.48H223.839V44ZM225.055 42.872V33.608H227.335C227.543 33.608 227.775 33.616 228.031 33.632C228.292 33.6427 228.513 33.6667 228.695 33.704C229.361 33.8213 229.903 34.0933 230.319 34.52C230.735 34.9413 231.039 35.472 231.231 36.112C231.423 36.752 231.519 37.4613 231.519 38.24C231.519 39.0027 231.423 39.7067 231.231 40.352C231.044 40.9973 230.743 41.5333 230.327 41.96C229.911 42.3867 229.367 42.6587 228.695 42.776C228.513 42.8133 228.295 42.84 228.039 42.856C227.788 42.8667 227.553 42.872 227.335 42.872H225.055ZM233.476 44H234.7L235.66 41.208H240.78L241.748 44H242.972L239.004 32.48H237.444L233.476 44ZM236.044 40.104L238.212 33.808L240.396 40.104H236.044ZM244.577 44H245.753V32.48H244.577V44Z" fill="#B46558"></path> <path d="M269.05 44.24C270.388 44.24 271.482 43.8987 272.33 43.216C273.178 42.528 273.759 41.608 274.074 40.456L272.874 40.144C272.628 41.0507 272.188 41.7733 271.554 42.312C270.919 42.8453 270.084 43.112 269.05 43.112C268.148 43.112 267.394 42.9067 266.786 42.496C266.183 42.08 265.73 41.5067 265.426 40.776C265.127 40.0453 264.98 39.2 264.986 38.24C264.996 37.28 265.151 36.4347 265.45 35.704C265.748 34.968 266.196 34.3947 266.794 33.984C267.396 33.5733 268.148 33.368 269.05 33.368C270.084 33.368 270.919 33.6373 271.554 34.176C272.188 34.7093 272.628 35.4293 272.874 36.336L274.074 36.024C273.759 34.872 273.178 33.9547 272.33 33.272C271.482 32.584 270.388 32.24 269.05 32.24C267.903 32.24 266.935 32.4933 266.146 33C265.356 33.5067 264.759 34.2107 264.354 35.112C263.948 36.0133 263.746 37.056 263.746 38.24C263.746 39.4187 263.948 40.4613 264.354 41.368C264.759 42.2693 265.356 42.9733 266.146 43.48C266.935 43.9867 267.903 44.24 269.05 44.24ZM280.335 44.24C281.215 44.24 281.991 44.0587 282.663 43.696C283.34 43.328 283.871 42.8133 284.255 42.152C284.639 41.4907 284.831 40.72 284.831 39.84V32.48H283.647V39.688C283.647 40.2853 283.545 40.8027 283.343 41.24C283.145 41.672 282.881 42.0293 282.551 42.312C282.225 42.5893 281.868 42.7947 281.479 42.928C281.089 43.0613 280.708 43.128 280.335 43.128C279.967 43.128 279.588 43.0613 279.199 42.928C278.809 42.7947 278.449 42.5893 278.119 42.312C277.793 42.0293 277.529 41.672 277.327 41.24C277.124 40.8027 277.023 40.2853 277.023 39.688V32.48L275.839 32.488V39.84C275.839 40.7253 276.031 41.4987 276.415 42.16C276.799 42.8213 277.329 43.3333 278.007 43.696C278.684 44.0587 279.46 44.24 280.335 44.24ZM287.073 44H288.249V39.624H291.929L294.049 44H295.401L293.129 39.336C293.774 39.0747 294.27 38.6507 294.617 38.064C294.964 37.4773 295.137 36.808 295.137 36.056C295.137 35.1547 294.894 34.3787 294.409 33.728C293.924 33.0773 293.23 32.6827 292.329 32.544C292.185 32.5173 292.041 32.5013 291.897 32.496C291.758 32.4853 291.633 32.48 291.521 32.48H287.073V44ZM288.249 38.504V33.608H291.489C291.585 33.608 291.697 33.6133 291.825 33.624C291.958 33.6293 292.084 33.6453 292.201 33.672C292.793 33.8 293.228 34.096 293.505 34.56C293.788 35.0187 293.929 35.5173 293.929 36.056C293.929 36.5893 293.788 37.088 293.505 37.552C293.228 38.016 292.793 38.3093 292.201 38.432C292.084 38.4587 291.958 38.4773 291.825 38.488C291.697 38.4987 291.585 38.504 291.489 38.504H288.249ZM300.095 44H301.655L305.623 32.48H304.399L300.863 42.664L297.351 32.48H296.127L300.095 44ZM306.823 44H314.023V42.872H307.999V38.72H313.063V37.592H307.999V33.608H314.023V32.48H306.823V44Z" fill="#FFB33D"></path> <path d="M325.247 44.232C325.957 44.232 326.586 44.0747 327.135 43.76C327.69 43.44 328.125 43 328.439 42.44C328.759 41.8747 328.919 41.224 328.919 40.488C328.919 39.768 328.773 39.1333 328.479 38.584C328.186 38.0347 327.775 37.608 327.247 37.304C326.719 36.9947 326.106 36.8427 325.407 36.848L328.783 33.624V32.48H322.127V33.608H327.287L323.327 37.264L323.919 38.2C324.117 38.104 324.33 38.0267 324.559 37.968C324.789 37.9093 325.007 37.88 325.215 37.88C325.962 37.88 326.562 38.12 327.015 38.6C327.474 39.0747 327.703 39.704 327.703 40.488C327.703 41.2613 327.482 41.8853 327.039 42.36C326.602 42.8347 325.999 43.08 325.231 43.096C324.682 43.1067 324.186 42.9653 323.743 42.672C323.301 42.3787 322.983 41.9467 322.791 41.376L321.671 41.712C321.917 42.4907 322.359 43.1067 322.999 43.56C323.645 44.008 324.394 44.232 325.247 44.232ZM335.659 44.24C336.998 44.24 338.091 43.8987 338.939 43.216C339.787 42.528 340.368 41.608 340.683 40.456L339.483 40.144C339.238 41.0507 338.798 41.7733 338.163 42.312C337.528 42.8453 336.694 43.112 335.659 43.112C334.758 43.112 334.003 42.9067 333.395 42.496C332.792 42.08 332.339 41.5067 332.035 40.776C331.736 40.0453 331.59 39.2 331.595 38.24C331.606 37.28 331.76 36.4347 332.059 35.704C332.358 34.968 332.806 34.3947 333.403 33.984C334.006 33.5733 334.758 33.368 335.659 33.368C336.694 33.368 337.528 33.6373 338.163 34.176C338.798 34.7093 339.238 35.4293 339.483 36.336L340.683 36.024C340.368 34.872 339.787 33.9547 338.939 33.272C338.091 32.584 336.998 32.24 335.659 32.24C334.512 32.24 333.544 32.4933 332.755 33C331.966 33.5067 331.368 34.2107 330.963 35.112C330.558 36.0133 330.355 37.056 330.355 38.24C330.355 39.4187 330.558 40.4613 330.963 41.368C331.368 42.2693 331.966 42.9733 332.755 43.48C333.544 43.9867 334.512 44.24 335.659 44.24ZM342.448 44H343.624V39.624H347.304L349.424 44H350.776L348.504 39.336C349.149 39.0747 349.645 38.6507 349.992 38.064C350.339 37.4773 350.512 36.808 350.512 36.056C350.512 35.1547 350.269 34.3787 349.784 33.728C349.299 33.0773 348.605 32.6827 347.704 32.544C347.56 32.5173 347.416 32.5013 347.272 32.496C347.133 32.4853 347.008 32.48 346.896 32.48H342.448V44ZM343.624 38.504V33.608H346.864C346.96 33.608 347.072 33.6133 347.2 33.624C347.333 33.6293 347.459 33.6453 347.576 33.672C348.168 33.8 348.603 34.096 348.88 34.56C349.163 35.0187 349.304 35.5173 349.304 36.056C349.304 36.5893 349.163 37.088 348.88 37.552C348.603 38.016 348.168 38.3093 347.576 38.432C347.459 38.4587 347.333 38.4773 347.2 38.488C347.072 38.4987 346.96 38.504 346.864 38.504H343.624ZM355.47 44H357.03L360.998 32.48H359.774L356.238 42.664L352.726 32.48H351.502L355.47 44ZM437.191 44.24C437.772 44.24 438.289 44.128 438.743 43.904C439.196 43.68 439.577 43.3707 439.887 42.976V43.864C439.892 44.8773 439.692 45.6427 439.287 46.16C438.881 46.6773 438.209 46.936 437.271 46.936C436.817 46.936 436.372 46.8293 435.935 46.616C435.497 46.408 435.161 46.064 434.927 45.584L433.863 46.176C434.231 46.848 434.724 47.3333 435.343 47.632C435.967 47.9307 436.609 48.08 437.271 48.08C438.327 48.08 439.169 47.8507 439.799 47.392C440.428 46.9333 440.82 46.2213 440.975 45.256C441.012 45.0373 441.036 44.8133 441.047 44.584C441.063 44.36 441.071 44.1253 441.071 43.88V35.36H440.023V36.552C439.708 36.104 439.308 35.7547 438.823 35.504C438.343 35.248 437.783 35.12 437.143 35.12C436.353 35.12 435.676 35.32 435.111 35.72C434.545 36.12 434.111 36.664 433.807 37.352C433.508 38.04 433.359 38.8133 433.359 39.672C433.359 40.536 433.508 41.312 433.807 42C434.111 42.688 434.548 43.2347 435.119 43.64C435.695 44.04 436.385 44.24 437.191 44.24ZM437.311 43.144C436.713 43.144 436.212 42.992 435.807 42.688C435.407 42.3787 435.105 41.9627 434.903 41.44C434.705 40.9173 434.607 40.328 434.607 39.672C434.607 39.0213 434.705 38.4347 434.903 37.912C435.1 37.3893 435.399 36.976 435.799 36.672C436.204 36.368 436.716 36.216 437.335 36.216C438.236 36.216 438.908 36.5387 439.351 37.184C439.799 37.824 440.023 38.6533 440.023 39.672C440.023 40.3387 439.924 40.9333 439.727 41.456C439.529 41.9787 439.231 42.392 438.831 42.696C438.431 42.9947 437.924 43.144 437.311 43.144ZM446.404 44.232C447.113 44.232 447.742 44.0747 448.292 43.76C448.846 43.44 449.281 43 449.596 42.44C449.916 41.8747 450.076 41.224 450.076 40.488C450.076 39.768 449.929 39.1333 449.636 38.584C449.342 38.0347 448.932 37.608 448.404 37.304C447.876 36.9947 447.262 36.8427 446.564 36.848L449.94 33.624V32.48H443.284V33.608H448.444L444.484 37.264L445.076 38.2C445.273 38.104 445.486 38.0267 445.716 37.968C445.945 37.9093 446.164 37.88 446.372 37.88C447.118 37.88 447.718 38.12 448.172 38.6C448.63 39.0747 448.86 39.704 448.86 40.488C448.86 41.2613 448.638 41.8853 448.196 42.36C447.758 42.8347 447.156 43.08 446.388 43.096C445.838 43.1067 445.342 42.9653 444.9 42.672C444.457 42.3787 444.14 41.9467 443.948 41.376L442.828 41.712C443.073 42.4907 443.516 43.1067 444.156 43.56C444.801 44.008 445.55 44.232 446.404 44.232ZM456.815 44.24C458.154 44.24 459.247 43.8987 460.095 43.216C460.943 42.528 461.525 41.608 461.839 40.456L460.639 40.144C460.394 41.0507 459.954 41.7733 459.319 42.312C458.685 42.8453 457.85 43.112 456.815 43.112C455.914 43.112 455.159 42.9067 454.551 42.496C453.949 42.08 453.495 41.5067 453.191 40.776C452.893 40.0453 452.746 39.2 452.751 38.24C452.762 37.28 452.917 36.4347 453.215 35.704C453.514 34.968 453.962 34.3947 454.559 33.984C455.162 33.5733 455.914 33.368 456.815 33.368C457.85 33.368 458.685 33.6373 459.319 34.176C459.954 34.7093 460.394 35.4293 460.639 36.336L461.839 36.024C461.525 34.872 460.943 33.9547 460.095 33.272C459.247 32.584 458.154 32.24 456.815 32.24C455.669 32.24 454.701 32.4933 453.911 33C453.122 33.5067 452.525 34.2107 452.119 35.112C451.714 36.0133 451.511 37.056 451.511 38.24C451.511 39.4187 451.714 40.4613 452.119 41.368C452.525 42.2693 453.122 42.9733 453.911 43.48C454.701 43.9867 455.669 44.24 456.815 44.24ZM463.604 44H464.78V39.624H468.46L470.58 44H471.932L469.66 39.336C470.306 39.0747 470.802 38.6507 471.148 38.064C471.495 37.4773 471.668 36.808 471.668 36.056C471.668 35.1547 471.426 34.3787 470.94 33.728C470.455 33.0773 469.762 32.6827 468.86 32.544C468.716 32.5173 468.572 32.5013 468.428 32.496C468.29 32.4853 468.164 32.48 468.052 32.48H463.604V44ZM464.78 38.504V33.608H468.02C468.116 33.608 468.228 33.6133 468.356 33.624C468.49 33.6293 468.615 33.6453 468.732 33.672C469.324 33.8 469.759 34.096 470.036 34.56C470.319 35.0187 470.46 35.5173 470.46 36.056C470.46 36.5893 470.319 37.088 470.036 37.552C469.759 38.016 469.324 38.3093 468.732 38.432C468.615 38.4587 468.49 38.4773 468.356 38.488C468.228 38.4987 468.116 38.504 468.02 38.504H464.78ZM476.626 44H478.186L482.154 32.48H480.93L477.394 42.664L473.882 32.48H472.658L476.626 44Z" fill="#0B7B95"></path> <path d="M381.177 44H382.361V39.176L386.209 32.48H384.849L381.769 37.832L378.673 32.48H377.312L381.177 39.176V44ZM387.323 44H394.523V42.872H388.499V38.72H393.563V37.592H388.499V33.608H394.523V32.48H387.323V44ZM395.648 44H396.872L397.832 41.208H402.952L403.92 44H405.144L401.176 32.48H399.616L395.648 44ZM398.216 40.104L400.384 33.808L402.568 40.104H398.216ZM406.589 44H407.765V39.624H411.445L413.565 44H414.917L412.645 39.336C413.29 39.0747 413.786 38.6507 414.133 38.064C414.479 37.4773 414.653 36.808 414.653 36.056C414.653 35.1547 414.41 34.3787 413.925 33.728C413.439 33.0773 412.746 32.6827 411.845 32.544C411.701 32.5173 411.557 32.5013 411.413 32.496C411.274 32.4853 411.149 32.48 411.037 32.48H406.589V44ZM407.765 38.504V33.608H411.005C411.101 33.608 411.213 33.6133 411.341 33.624C411.474 33.6293 411.599 33.6453 411.717 33.672C412.309 33.8 412.743 34.096 413.021 34.56C413.303 35.0187 413.445 35.5173 413.445 36.056C413.445 36.5893 413.303 37.088 413.021 37.552C412.743 38.016 412.309 38.3093 411.717 38.432C411.599 38.4587 411.474 38.4773 411.341 38.488C411.213 38.4987 411.101 38.504 411.005 38.504H407.765ZM416.683 44H417.867V34.552L424.211 44H425.395V32.48H424.211V41.92L417.867 32.48H416.683V44Z" fill="#DCA196"></path> <path d="M24 64H566" stroke="#282726"></path> <path d="M24 116H566" stroke="#282726"></path> <path d="M24 168H566" stroke="#282726"></path> </svg> 