<?xml version="1.0" encoding="UTF-8"?> <svg xmlns="http://www.w3.org/2000/svg" width="538" height="260" viewBox="0 0 538 260" fill="none"> <rect x="0.5" y="0.5" width="537" height="231" rx="3.5" fill="#191919" stroke="#282726"></rect> <rect x="139.2" y="63.2" width="105.363" height="105.6" rx="3.8" fill="#282726" stroke="url(#paint0_linear)" stroke-width="0.4"></rect> <path d="M175.531 119H177.939L181.683 107.48H179.947L176.715 117.312L173.523 107.48H171.787L175.531 119ZM184.611 119.24C185.987 119.24 187.024 118.741 187.723 117.744V119H189.203V113.68C189.203 113.317 189.187 112.979 189.155 112.664C189.123 112.349 189.037 112.051 188.899 111.768C188.632 111.197 188.211 110.781 187.635 110.52C187.064 110.253 186.392 110.12 185.619 110.12C184.621 110.12 183.821 110.339 183.219 110.776C182.616 111.213 182.211 111.803 182.003 112.544L183.563 113.024C183.712 112.544 183.976 112.197 184.355 111.984C184.733 111.771 185.149 111.664 185.603 111.664C186.275 111.664 186.76 111.808 187.059 112.096C187.363 112.379 187.528 112.819 187.555 113.416C186.851 113.512 186.163 113.613 185.491 113.72C184.819 113.821 184.232 113.944 183.731 114.088C183.064 114.301 182.557 114.619 182.211 115.04C181.864 115.461 181.691 115.997 181.691 116.648C181.691 117.117 181.8 117.549 182.019 117.944C182.243 118.333 182.571 118.648 183.003 118.888C183.44 119.123 183.976 119.24 184.611 119.24ZM184.907 117.872C184.373 117.872 183.979 117.749 183.723 117.504C183.472 117.259 183.347 116.968 183.347 116.632C183.347 116.291 183.459 116.021 183.683 115.824C183.912 115.627 184.197 115.469 184.539 115.352C184.901 115.245 185.328 115.152 185.819 115.072C186.315 114.992 186.888 114.904 187.539 114.808C187.533 115.011 187.52 115.237 187.499 115.488C187.477 115.739 187.432 115.963 187.363 116.16C187.299 116.443 187.163 116.715 186.955 116.976C186.752 117.237 186.477 117.453 186.131 117.624C185.789 117.789 185.381 117.872 184.907 117.872ZM194.536 119.232C195.16 119.232 195.712 119.12 196.192 118.896C196.677 118.672 197.077 118.363 197.392 117.968V119H198.88V110.36H197.192V114.856C197.192 115.539 197.093 116.085 196.896 116.496C196.699 116.901 196.432 117.195 196.096 117.376C195.765 117.557 195.4 117.648 195 117.648C194.541 117.648 194.168 117.555 193.88 117.368C193.592 117.181 193.371 116.936 193.216 116.632C193.061 116.328 192.955 116 192.896 115.648C192.843 115.291 192.816 114.944 192.816 114.608V110.36H191.12V115.16C191.12 115.427 191.144 115.736 191.192 116.088C191.24 116.44 191.331 116.8 191.464 117.168C191.597 117.536 191.789 117.877 192.04 118.192C192.296 118.501 192.627 118.752 193.032 118.944C193.437 119.136 193.939 119.232 194.536 119.232ZM201.284 119H202.956V107.24H201.284V119ZM210.302 119V117.584C209.737 117.669 209.244 117.688 208.822 117.64C208.406 117.587 208.102 117.397 207.91 117.072C207.809 116.896 207.753 116.68 207.742 116.424C207.737 116.168 207.734 115.867 207.734 115.52V111.704H210.302V110.36H207.734V107.96H206.054V110.36H204.398V111.704H206.054V115.6C206.054 116.069 206.06 116.491 206.07 116.864C206.086 117.232 206.188 117.595 206.374 117.952C206.588 118.352 206.9 118.645 207.31 118.832C207.721 119.019 208.188 119.12 208.71 119.136C209.233 119.152 209.764 119.107 210.302 119Z" fill="white"></path> <path d="M288.241 120.167H289.123V116.267H293.899V120.167H294.775V111.527H293.899V115.421H289.123V111.527H288.241V120.167ZM299.162 120.347C299.802 120.347 300.35 120.203 300.806 119.915C301.266 119.627 301.618 119.227 301.862 118.715C302.11 118.199 302.234 117.601 302.234 116.921C302.234 116.253 302.112 115.663 301.868 115.151C301.628 114.635 301.278 114.233 300.818 113.945C300.362 113.653 299.81 113.507 299.162 113.507C298.53 113.507 297.984 113.651 297.524 113.939C297.068 114.223 296.716 114.621 296.468 115.133C296.22 115.645 296.096 116.241 296.096 116.921C296.096 117.589 296.216 118.181 296.456 118.697C296.7 119.213 297.05 119.617 297.506 119.909C297.966 120.201 298.518 120.347 299.162 120.347ZM299.162 119.501C298.462 119.501 297.932 119.267 297.572 118.799C297.212 118.327 297.032 117.701 297.032 116.921C297.032 116.165 297.206 115.549 297.554 115.073C297.902 114.593 298.438 114.353 299.162 114.353C299.878 114.353 300.412 114.587 300.764 115.055C301.12 115.519 301.298 116.141 301.298 116.921C301.298 117.685 301.122 118.307 300.77 118.787C300.418 119.263 299.882 119.501 299.162 119.501ZM303.678 120.167H304.56V111.347H303.678V120.167ZM308.873 120.347C309.345 120.347 309.759 120.251 310.115 120.059C310.471 119.863 310.765 119.597 310.997 119.261V120.167H311.789V111.527H310.901V114.449C310.665 114.153 310.373 113.923 310.025 113.759C309.681 113.591 309.285 113.507 308.837 113.507C308.245 113.507 307.737 113.657 307.313 113.957C306.889 114.257 306.563 114.665 306.335 115.181C306.111 115.697 305.999 116.277 305.999 116.921C305.999 117.569 306.111 118.151 306.335 118.667C306.563 119.183 306.891 119.593 307.319 119.897C307.751 120.197 308.269 120.347 308.873 120.347ZM308.963 119.525C308.515 119.525 308.139 119.411 307.835 119.183C307.535 118.951 307.309 118.639 307.157 118.247C307.009 117.855 306.935 117.413 306.935 116.921C306.935 116.433 307.009 115.993 307.157 115.601C307.305 115.209 307.529 114.899 307.829 114.671C308.133 114.443 308.517 114.329 308.981 114.329C309.657 114.329 310.161 114.571 310.493 115.055C310.829 115.535 310.997 116.157 310.997 116.921C310.997 117.421 310.923 117.867 310.775 118.259C310.627 118.651 310.403 118.961 310.103 119.189C309.803 119.413 309.423 119.525 308.963 119.525ZM315.994 112.457H316.876V111.467H315.994V112.457ZM315.994 120.167H316.876V113.687H315.994V120.167ZM318.669 120.167H319.557V116.711C319.557 115.979 319.721 115.405 320.049 114.989C320.377 114.573 320.853 114.365 321.477 114.365C321.929 114.365 322.293 114.475 322.569 114.695C322.845 114.911 323.045 115.207 323.169 115.583C323.293 115.959 323.355 116.385 323.355 116.861V120.167H324.243V116.603C324.243 116.239 324.197 115.875 324.105 115.511C324.017 115.147 323.873 114.815 323.673 114.515C323.473 114.215 323.207 113.975 322.875 113.795C322.543 113.615 322.133 113.525 321.645 113.525C321.181 113.525 320.761 113.615 320.385 113.795C320.013 113.971 319.707 114.235 319.467 114.587V113.687H318.669V120.167ZM330.398 120.167H331.568L334.544 111.527H333.626L330.974 119.165L328.34 111.527H327.422L330.398 120.167ZM336.759 120.347C337.891 120.347 338.713 119.929 339.225 119.093V120.167H340.011V116.141C340.011 115.901 339.999 115.665 339.975 115.433C339.951 115.201 339.899 114.991 339.819 114.803C339.647 114.383 339.353 114.063 338.937 113.843C338.525 113.619 338.023 113.507 337.431 113.507C336.719 113.507 336.139 113.667 335.691 113.987C335.243 114.307 334.943 114.757 334.791 115.337L335.649 115.589C335.773 115.157 335.987 114.841 336.291 114.641C336.599 114.441 336.975 114.341 337.419 114.341C338.035 114.341 338.475 114.485 338.739 114.773C339.003 115.057 339.139 115.491 339.147 116.075C338.859 116.115 338.541 116.157 338.193 116.201C337.849 116.245 337.503 116.295 337.155 116.351C336.807 116.407 336.487 116.471 336.195 116.543C335.711 116.671 335.315 116.885 335.007 117.185C334.699 117.481 334.545 117.895 334.545 118.427C334.545 118.771 334.627 119.089 334.791 119.381C334.955 119.673 335.201 119.907 335.529 120.083C335.861 120.259 336.271 120.347 336.759 120.347ZM336.861 119.585C336.513 119.585 336.233 119.529 336.021 119.417C335.813 119.301 335.661 119.155 335.565 118.979C335.473 118.799 335.427 118.615 335.427 118.427C335.427 118.075 335.545 117.811 335.781 117.635C336.017 117.459 336.273 117.331 336.549 117.251C336.905 117.155 337.319 117.077 337.791 117.017C338.263 116.957 338.711 116.901 339.135 116.849C339.135 116.997 339.129 117.167 339.117 117.359C339.109 117.547 339.087 117.721 339.051 117.881C338.967 118.369 338.735 118.775 338.355 119.099C337.979 119.423 337.481 119.585 336.861 119.585ZM344.051 120.329C344.515 120.329 344.933 120.241 345.305 120.065C345.681 119.885 345.989 119.619 346.229 119.267V120.167H347.021V113.687H346.139V117.143C346.139 117.875 345.975 118.449 345.647 118.865C345.319 119.281 344.843 119.489 344.219 119.489C343.767 119.489 343.403 119.381 343.127 119.165C342.851 118.945 342.651 118.647 342.527 118.271C342.403 117.895 342.341 117.469 342.341 116.993V113.687H341.453V117.251C341.453 117.615 341.497 117.979 341.585 118.343C341.677 118.707 341.823 119.039 342.023 119.339C342.223 119.639 342.489 119.879 342.821 120.059C343.157 120.239 343.567 120.329 344.051 120.329ZM348.818 120.167H349.7V111.347H348.818V120.167ZM355.027 120.167V119.393C354.563 119.469 354.173 119.481 353.857 119.429C353.545 119.377 353.317 119.217 353.173 118.949C353.097 118.809 353.055 118.649 353.047 118.469C353.043 118.285 353.041 118.057 353.041 117.785V114.443H355.027V113.687H353.041V111.887H352.165V113.687H350.779V114.443H352.165V117.821C352.165 118.137 352.169 118.419 352.177 118.667C352.189 118.915 352.253 119.157 352.369 119.393C352.513 119.681 352.723 119.893 352.999 120.029C353.279 120.165 353.595 120.241 353.947 120.257C354.303 120.273 354.663 120.243 355.027 120.167Z" fill="white"></path> <path d="M244.763 89.5L254.763 95.2735V83.7265L244.763 89.5ZM253.763 90.5H395V88.5H253.763V90.5ZM398 93.5V138.5H400V93.5H398ZM395 141.5H244.763V143.5H395V141.5ZM398 138.5C398 140.157 396.657 141.5 395 141.5V143.5C397.761 143.5 400 141.261 400 138.5H398ZM395 90.5C396.657 90.5 398 91.8431 398 93.5H400C400 90.7386 397.761 88.5 395 88.5V90.5Z" fill="url(#paint1_linear)"></path> <defs> <linearGradient id="paint0_linear" x1="139" y1="63" x2="212.474" y2="187.982" gradientUnits="userSpaceOnUse"> <stop stop-color="#857370"></stop> <stop offset="1" stop-color="#563440"></stop> </linearGradient> <linearGradient id="paint1_linear" x1="244.763" y1="89.5" x2="261.05" y2="170.305" gradientUnits="userSpaceOnUse"> <stop stop-color="#F78774"></stop> <stop offset="1" stop-color="#13CDF9"></stop> </linearGradient> </defs> </svg> 