<svg width="604" height="308" viewBox="0 0 604 308" fill="none" xmlns="http://www.w3.org/2000/svg">
<rect width="604" height="308" fill="#E5E5E5"/>
<rect width="604" height="308" fill="#111112"/>
<path d="M283.486 108.15C284.323 108.15 285.006 107.937 285.536 107.51C286.066 107.08 286.429 106.505 286.626 105.785L285.876 105.59C285.723 106.157 285.448 106.608 285.051 106.945C284.654 107.278 284.133 107.445 283.486 107.445C282.923 107.445 282.451 107.317 282.071 107.06C281.694 106.8 281.411 106.442 281.221 105.985C281.034 105.528 280.943 105 280.946 104.4C280.953 103.8 281.049 103.272 281.236 102.815C281.423 102.355 281.703 101.997 282.076 101.74C282.453 101.483 282.923 101.355 283.486 101.355C284.133 101.355 284.654 101.523 285.051 101.86C285.448 102.193 285.723 102.643 285.876 103.21L286.626 103.015C286.429 102.295 286.066 101.722 285.536 101.295C285.006 100.865 284.323 100.65 283.486 100.65C282.769 100.65 282.164 100.808 281.671 101.125C281.178 101.442 280.804 101.882 280.551 102.445C280.298 103.008 280.171 103.66 280.171 104.4C280.171 105.137 280.298 105.788 280.551 106.355C280.804 106.918 281.178 107.358 281.671 107.675C282.164 107.992 282.769 108.15 283.486 108.15ZM289.984 108.15C290.518 108.15 290.974 108.03 291.354 107.79C291.738 107.55 292.031 107.217 292.234 106.79C292.441 106.36 292.544 105.862 292.544 105.295C292.544 104.738 292.443 104.247 292.239 103.82C292.039 103.39 291.748 103.055 291.364 102.815C290.984 102.572 290.524 102.45 289.984 102.45C289.458 102.45 289.003 102.57 288.619 102.81C288.239 103.047 287.946 103.378 287.739 103.805C287.533 104.232 287.429 104.728 287.429 105.295C287.429 105.852 287.529 106.345 287.729 106.775C287.933 107.205 288.224 107.542 288.604 107.785C288.988 108.028 289.448 108.15 289.984 108.15ZM289.984 107.445C289.401 107.445 288.959 107.25 288.659 106.86C288.359 106.467 288.209 105.945 288.209 105.295C288.209 104.665 288.354 104.152 288.644 103.755C288.934 103.355 289.381 103.155 289.984 103.155C290.581 103.155 291.026 103.35 291.319 103.74C291.616 104.127 291.764 104.645 291.764 105.295C291.764 105.932 291.618 106.45 291.324 106.85C291.031 107.247 290.584 107.445 289.984 107.445ZM293.747 108H294.482V100.65H293.747V108ZM296.081 108H296.816V100.65H296.081V108ZM299.86 108.15C300.804 108.15 301.489 107.802 301.915 107.105V108H302.57V104.645C302.57 104.445 302.56 104.248 302.54 104.055C302.52 103.862 302.477 103.687 302.41 103.53C302.267 103.18 302.022 102.913 301.675 102.73C301.332 102.543 300.914 102.45 300.42 102.45C299.827 102.45 299.344 102.583 298.97 102.85C298.597 103.117 298.347 103.492 298.22 103.975L298.935 104.185C299.039 103.825 299.217 103.562 299.47 103.395C299.727 103.228 300.04 103.145 300.41 103.145C300.924 103.145 301.29 103.265 301.51 103.505C301.73 103.742 301.844 104.103 301.85 104.59C301.61 104.623 301.345 104.658 301.055 104.695C300.769 104.732 300.48 104.773 300.19 104.82C299.9 104.867 299.634 104.92 299.39 104.98C298.987 105.087 298.657 105.265 298.4 105.515C298.144 105.762 298.015 106.107 298.015 106.55C298.015 106.837 298.084 107.102 298.22 107.345C298.357 107.588 298.562 107.783 298.835 107.93C299.112 108.077 299.454 108.15 299.86 108.15ZM299.945 107.515C299.655 107.515 299.422 107.468 299.245 107.375C299.072 107.278 298.945 107.157 298.865 107.01C298.789 106.86 298.75 106.707 298.75 106.55C298.75 106.257 298.849 106.037 299.045 105.89C299.242 105.743 299.455 105.637 299.685 105.57C299.982 105.49 300.327 105.425 300.72 105.375C301.114 105.325 301.487 105.278 301.84 105.235C301.84 105.358 301.835 105.5 301.825 105.66C301.819 105.817 301.8 105.962 301.77 106.095C301.7 106.502 301.507 106.84 301.19 107.11C300.877 107.38 300.462 107.515 299.945 107.515ZM306.812 108V107.355C306.425 107.418 306.1 107.428 305.837 107.385C305.577 107.342 305.387 107.208 305.267 106.985C305.204 106.868 305.169 106.735 305.162 106.585C305.159 106.432 305.157 106.242 305.157 106.015V103.23H306.812V102.6H305.157V101.1H304.427V102.6H303.272V103.23H304.427V106.045C304.427 106.308 304.43 106.543 304.437 106.75C304.447 106.957 304.5 107.158 304.597 107.355C304.717 107.595 304.892 107.772 305.122 107.885C305.355 107.998 305.619 108.062 305.912 108.075C306.209 108.088 306.509 108.063 306.812 108ZM309.965 108.15C310.489 108.15 310.957 108.022 311.37 107.765C311.787 107.508 312.102 107.143 312.315 106.67L311.63 106.405C311.287 107.098 310.722 107.445 309.935 107.445C309.395 107.445 308.972 107.277 308.665 106.94C308.362 106.603 308.195 106.125 308.165 105.505H312.42C312.447 104.552 312.239 103.805 311.795 103.265C311.355 102.722 310.735 102.45 309.935 102.45C309.415 102.45 308.964 102.567 308.58 102.8C308.2 103.033 307.905 103.365 307.695 103.795C307.485 104.225 307.38 104.735 307.38 105.325C307.38 105.895 307.485 106.392 307.695 106.815C307.909 107.238 308.209 107.567 308.595 107.8C308.985 108.033 309.442 108.15 309.965 108.15ZM309.955 103.125C310.972 103.125 311.537 103.713 311.65 104.89H308.18C308.237 104.32 308.417 103.883 308.72 103.58C309.024 103.277 309.435 103.125 309.955 103.125ZM313.53 108H314.265V105.305C314.265 104.982 314.302 104.66 314.375 104.34C314.452 104.017 314.625 103.748 314.895 103.535C315.092 103.375 315.305 103.283 315.535 103.26C315.768 103.233 315.985 103.243 316.185 103.29V102.6C315.948 102.54 315.68 102.538 315.38 102.595C315.08 102.648 314.823 102.768 314.61 102.955C314.45 103.075 314.31 103.242 314.19 103.455V102.6H313.53V108ZM318.483 108.15C319.427 108.15 320.112 107.802 320.538 107.105V108H321.193V104.645C321.193 104.445 321.183 104.248 321.163 104.055C321.143 103.862 321.1 103.687 321.033 103.53C320.89 103.18 320.645 102.913 320.298 102.73C319.955 102.543 319.537 102.45 319.043 102.45C318.45 102.45 317.967 102.583 317.593 102.85C317.22 103.117 316.97 103.492 316.843 103.975L317.558 104.185C317.662 103.825 317.84 103.562 318.093 103.395C318.35 103.228 318.663 103.145 319.033 103.145C319.547 103.145 319.913 103.265 320.133 103.505C320.353 103.742 320.467 104.103 320.473 104.59C320.233 104.623 319.968 104.658 319.678 104.695C319.392 104.732 319.103 104.773 318.813 104.82C318.523 104.867 318.257 104.92 318.013 104.98C317.61 105.087 317.28 105.265 317.023 105.515C316.767 105.762 316.638 106.107 316.638 106.55C316.638 106.837 316.707 107.102 316.843 107.345C316.98 107.588 317.185 107.783 317.458 107.93C317.735 108.077 318.077 108.15 318.483 108.15ZM318.568 107.515C318.278 107.515 318.045 107.468 317.868 107.375C317.695 107.278 317.568 107.157 317.488 107.01C317.412 106.86 317.373 106.707 317.373 106.55C317.373 106.257 317.472 106.037 317.668 105.89C317.865 105.743 318.078 105.637 318.308 105.57C318.605 105.49 318.95 105.425 319.343 105.375C319.737 105.325 320.11 105.278 320.463 105.235C320.463 105.358 320.458 105.5 320.448 105.66C320.442 105.817 320.423 105.962 320.393 106.095C320.323 106.502 320.13 106.84 319.813 107.11C319.5 107.38 319.085 107.515 318.568 107.515ZM322.595 108H323.33V100.65H322.595V108ZM292.617 124H293.352V121.265H295.397C295.464 121.265 295.542 121.262 295.632 121.255C295.722 121.248 295.812 121.238 295.902 121.225C296.462 121.138 296.894 120.892 297.197 120.485C297.504 120.078 297.657 119.595 297.657 119.035C297.657 118.472 297.505 117.987 297.202 117.58C296.899 117.173 296.465 116.927 295.902 116.84C295.812 116.823 295.722 116.813 295.632 116.81C295.545 116.803 295.467 116.8 295.397 116.8H292.617V124ZM293.352 120.565V117.505H295.377C295.437 117.505 295.507 117.508 295.587 117.515C295.67 117.518 295.749 117.528 295.822 117.545C296.192 117.625 296.464 117.81 296.637 118.1C296.814 118.387 296.902 118.698 296.902 119.035C296.902 119.368 296.814 119.68 296.637 119.97C296.464 120.26 296.192 120.443 295.822 120.52C295.749 120.537 295.67 120.548 295.587 120.555C295.507 120.562 295.437 120.565 295.377 120.565H293.352ZM300.868 124.15C301.401 124.15 301.858 124.03 302.238 123.79C302.621 123.55 302.915 123.217 303.118 122.79C303.325 122.36 303.428 121.862 303.428 121.295C303.428 120.738 303.326 120.247 303.123 119.82C302.923 119.39 302.631 119.055 302.248 118.815C301.868 118.572 301.408 118.45 300.868 118.45C300.341 118.45 299.886 118.57 299.503 118.81C299.123 119.047 298.83 119.378 298.623 119.805C298.416 120.232 298.313 120.728 298.313 121.295C298.313 121.852 298.413 122.345 298.613 122.775C298.816 123.205 299.108 123.542 299.488 123.785C299.871 124.028 300.331 124.15 300.868 124.15ZM300.868 123.445C300.285 123.445 299.843 123.25 299.543 122.86C299.243 122.467 299.093 121.945 299.093 121.295C299.093 120.665 299.238 120.152 299.528 119.755C299.818 119.355 300.265 119.155 300.868 119.155C301.465 119.155 301.91 119.35 302.203 119.74C302.5 120.127 302.648 120.645 302.648 121.295C302.648 121.932 302.501 122.45 302.208 122.85C301.915 123.247 301.468 123.445 300.868 123.445ZM306.786 124.15C307.319 124.15 307.776 124.03 308.156 123.79C308.539 123.55 308.833 123.217 309.036 122.79C309.243 122.36 309.346 121.862 309.346 121.295C309.346 120.738 309.244 120.247 309.041 119.82C308.841 119.39 308.549 119.055 308.166 118.815C307.786 118.572 307.326 118.45 306.786 118.45C306.259 118.45 305.804 118.57 305.421 118.81C305.041 119.047 304.748 119.378 304.541 119.805C304.334 120.232 304.231 120.728 304.231 121.295C304.231 121.852 304.331 122.345 304.531 122.775C304.734 123.205 305.026 123.542 305.406 123.785C305.789 124.028 306.249 124.15 306.786 124.15ZM306.786 123.445C306.203 123.445 305.761 123.25 305.461 122.86C305.161 122.467 305.011 121.945 305.011 121.295C305.011 120.665 305.156 120.152 305.446 119.755C305.736 119.355 306.183 119.155 306.786 119.155C307.383 119.155 307.828 119.35 308.121 119.74C308.418 120.127 308.566 120.645 308.566 121.295C308.566 121.932 308.419 122.45 308.126 122.85C307.833 123.247 307.386 123.445 306.786 123.445ZM310.549 124H311.284V116.65H310.549V124Z" fill="white"/>
<circle cx="302" cy="112" r="41.5" stroke="#13CDF9"/>
<path d="M286.421 192H289.431C290.067 192 290.581 191.82 290.971 191.46C291.361 191.097 291.556 190.603 291.556 189.98C291.556 189.563 291.449 189.2 291.236 188.89C291.026 188.58 290.734 188.343 290.361 188.18C290.621 188.03 290.826 187.822 290.976 187.555C291.129 187.285 291.206 186.985 291.206 186.655C291.206 186.315 291.122 186.005 290.956 185.725C290.789 185.442 290.556 185.217 290.256 185.05C289.956 184.883 289.604 184.8 289.201 184.8H286.421V192ZM287.161 187.87V185.495H289.196C289.559 185.495 289.857 185.602 290.091 185.815C290.327 186.028 290.446 186.305 290.446 186.645C290.446 187.005 290.324 187.3 290.081 187.53C289.837 187.757 289.542 187.87 289.196 187.87H287.161ZM287.161 191.295V188.565H289.386C289.656 188.565 289.897 188.628 290.111 188.755C290.324 188.882 290.491 189.053 290.611 189.27C290.734 189.483 290.796 189.723 290.796 189.99C290.796 190.4 290.647 190.72 290.351 190.95C290.054 191.18 289.687 191.295 289.251 191.295H287.161ZM294.809 192.15C295.342 192.15 295.799 192.03 296.179 191.79C296.562 191.55 296.855 191.217 297.059 190.79C297.265 190.36 297.369 189.862 297.369 189.295C297.369 188.738 297.267 188.247 297.064 187.82C296.864 187.39 296.572 187.055 296.189 186.815C295.809 186.572 295.349 186.45 294.809 186.45C294.282 186.45 293.827 186.57 293.444 186.81C293.064 187.047 292.77 187.378 292.564 187.805C292.357 188.232 292.254 188.728 292.254 189.295C292.254 189.852 292.354 190.345 292.554 190.775C292.757 191.205 293.049 191.542 293.429 191.785C293.812 192.028 294.272 192.15 294.809 192.15ZM294.809 191.445C294.225 191.445 293.784 191.25 293.484 190.86C293.184 190.467 293.034 189.945 293.034 189.295C293.034 188.665 293.179 188.152 293.469 187.755C293.759 187.355 294.205 187.155 294.809 187.155C295.405 187.155 295.85 187.35 296.144 187.74C296.44 188.127 296.589 188.645 296.589 189.295C296.589 189.932 296.442 190.45 296.149 190.85C295.855 191.247 295.409 191.445 294.809 191.445ZM298.471 192H299.206V189.305C299.206 188.982 299.243 188.66 299.316 188.34C299.393 188.017 299.566 187.748 299.836 187.535C300.033 187.375 300.246 187.283 300.476 187.26C300.71 187.233 300.926 187.243 301.126 187.29V186.6C300.89 186.54 300.621 186.538 300.321 186.595C300.021 186.648 299.765 186.768 299.551 186.955C299.391 187.075 299.251 187.242 299.131 187.455V186.6H298.471V192ZM302.075 192H302.81V189.305C302.81 188.982 302.847 188.66 302.92 188.34C302.997 188.017 303.17 187.748 303.44 187.535C303.637 187.375 303.85 187.283 304.08 187.26C304.313 187.233 304.53 187.243 304.73 187.29V186.6C304.493 186.54 304.225 186.538 303.925 186.595C303.625 186.648 303.368 186.768 303.155 186.955C302.995 187.075 302.855 187.242 302.735 187.455V186.6H302.075V192ZM307.836 192.15C308.369 192.15 308.826 192.03 309.206 191.79C309.589 191.55 309.883 191.217 310.086 190.79C310.293 190.36 310.396 189.862 310.396 189.295C310.396 188.738 310.294 188.247 310.091 187.82C309.891 187.39 309.599 187.055 309.216 186.815C308.836 186.572 308.376 186.45 307.836 186.45C307.309 186.45 306.854 186.57 306.471 186.81C306.091 187.047 305.798 187.378 305.591 187.805C305.384 188.232 305.281 188.728 305.281 189.295C305.281 189.852 305.381 190.345 305.581 190.775C305.784 191.205 306.076 191.542 306.456 191.785C306.839 192.028 307.299 192.15 307.836 192.15ZM307.836 191.445C307.253 191.445 306.811 191.25 306.511 190.86C306.211 190.467 306.061 189.945 306.061 189.295C306.061 188.665 306.206 188.152 306.496 187.755C306.786 187.355 307.233 187.155 307.836 187.155C308.433 187.155 308.878 187.35 309.171 187.74C309.468 188.127 309.616 188.645 309.616 189.295C309.616 189.932 309.469 190.45 309.176 190.85C308.883 191.247 308.436 191.445 307.836 191.445ZM312.454 192H313.094L314.439 187.7L315.789 192H316.429L318.079 186.6H317.349L316.059 190.795L314.774 186.6H314.104L312.819 190.795L311.539 186.6L310.804 186.595L312.454 192ZM292.617 208H293.352V205.265H295.397C295.464 205.265 295.542 205.262 295.632 205.255C295.722 205.248 295.812 205.238 295.902 205.225C296.462 205.138 296.894 204.892 297.197 204.485C297.504 204.078 297.657 203.595 297.657 203.035C297.657 202.472 297.505 201.987 297.202 201.58C296.899 201.173 296.465 200.927 295.902 200.84C295.812 200.823 295.722 200.813 295.632 200.81C295.545 200.803 295.467 200.8 295.397 200.8H292.617V208ZM293.352 204.565V201.505H295.377C295.437 201.505 295.507 201.508 295.587 201.515C295.67 201.518 295.749 201.528 295.822 201.545C296.192 201.625 296.464 201.81 296.637 202.1C296.814 202.387 296.902 202.698 296.902 203.035C296.902 203.368 296.814 203.68 296.637 203.97C296.464 204.26 296.192 204.443 295.822 204.52C295.749 204.537 295.67 204.548 295.587 204.555C295.507 204.562 295.437 204.565 295.377 204.565H293.352ZM300.868 208.15C301.401 208.15 301.858 208.03 302.238 207.79C302.621 207.55 302.915 207.217 303.118 206.79C303.325 206.36 303.428 205.862 303.428 205.295C303.428 204.738 303.326 204.247 303.123 203.82C302.923 203.39 302.631 203.055 302.248 202.815C301.868 202.572 301.408 202.45 300.868 202.45C300.341 202.45 299.886 202.57 299.503 202.81C299.123 203.047 298.83 203.378 298.623 203.805C298.416 204.232 298.313 204.728 298.313 205.295C298.313 205.852 298.413 206.345 298.613 206.775C298.816 207.205 299.108 207.542 299.488 207.785C299.871 208.028 300.331 208.15 300.868 208.15ZM300.868 207.445C300.285 207.445 299.843 207.25 299.543 206.86C299.243 206.467 299.093 205.945 299.093 205.295C299.093 204.665 299.238 204.152 299.528 203.755C299.818 203.355 300.265 203.155 300.868 203.155C301.465 203.155 301.91 203.35 302.203 203.74C302.5 204.127 302.648 204.645 302.648 205.295C302.648 205.932 302.501 206.45 302.208 206.85C301.915 207.247 301.468 207.445 300.868 207.445ZM306.786 208.15C307.319 208.15 307.776 208.03 308.156 207.79C308.539 207.55 308.833 207.217 309.036 206.79C309.243 206.36 309.346 205.862 309.346 205.295C309.346 204.738 309.244 204.247 309.041 203.82C308.841 203.39 308.549 203.055 308.166 202.815C307.786 202.572 307.326 202.45 306.786 202.45C306.259 202.45 305.804 202.57 305.421 202.81C305.041 203.047 304.748 203.378 304.541 203.805C304.334 204.232 304.231 204.728 304.231 205.295C304.231 205.852 304.331 206.345 304.531 206.775C304.734 207.205 305.026 207.542 305.406 207.785C305.789 208.028 306.249 208.15 306.786 208.15ZM306.786 207.445C306.203 207.445 305.761 207.25 305.461 206.86C305.161 206.467 305.011 205.945 305.011 205.295C305.011 204.665 305.156 204.152 305.446 203.755C305.736 203.355 306.183 203.155 306.786 203.155C307.383 203.155 307.828 203.35 308.121 203.74C308.418 204.127 308.566 204.645 308.566 205.295C308.566 205.932 308.419 206.45 308.126 206.85C307.833 207.247 307.386 207.445 306.786 207.445ZM310.549 208H311.284V200.65H310.549V208Z" fill="white"/>
<circle cx="302" cy="196" r="41.5" stroke="url(#paint0_radial)"/>
<path d="M170 111C169.448 111 169 111.448 169 112C169 112.552 169.448 113 170 113V111ZM250 112L240 106.226V117.774L250 112ZM170 113H241V111H170V113Z" fill="url(#paint1_linear)" fill-opacity="0.9"/>
<path d="M354 195C353.448 195 353 195.448 353 196C353 196.552 353.448 197 354 197V195ZM434 196L424 190.226V201.774L434 196ZM354 197H425V195H354V197Z" fill="url(#paint2_linear)" fill-opacity="0.9"/>
<rect x="64.5" y="64.5" width="95" height="95" rx="3.5" stroke="#F78774"/>
<path d="M80.0323 117H81.2863V108.36H80.0323V117ZM83.082 117H84.354V113.628C84.354 113.116 84.428 112.708 84.576 112.404C84.728 112.096 84.928 111.874 85.176 111.738C85.424 111.602 85.698 111.534 85.998 111.534C86.342 111.534 86.622 111.604 86.838 111.744C87.054 111.884 87.22 112.068 87.336 112.296C87.452 112.524 87.53 112.772 87.57 113.04C87.614 113.304 87.636 113.562 87.636 113.814V117H88.908V113.4C88.908 113.2 88.89 112.968 88.854 112.704C88.818 112.44 88.75 112.17 88.65 111.894C88.55 111.618 88.404 111.364 88.212 111.132C88.024 110.896 87.778 110.706 87.474 110.562C87.17 110.418 86.794 110.346 86.346 110.346C85.878 110.346 85.462 110.43 85.098 110.598C84.738 110.766 84.44 110.998 84.204 111.294V110.52H83.082V117ZM90.4649 119.88H91.7249V116.544C91.9529 116.748 92.2149 116.904 92.5109 117.012C92.8109 117.124 93.1449 117.18 93.5129 117.18C94.1169 117.18 94.6369 117.03 95.0729 116.73C95.5129 116.426 95.8509 116.016 96.0869 115.5C96.3269 114.984 96.4469 114.402 96.4469 113.754C96.4469 113.102 96.3269 112.52 96.0869 112.008C95.8469 111.492 95.5049 111.086 95.0609 110.79C94.6209 110.49 94.0969 110.34 93.4889 110.34C93.0889 110.34 92.7289 110.408 92.4089 110.544C92.0889 110.676 91.8129 110.862 91.5809 111.102V110.52H90.4649V119.88ZM93.3389 116.046C92.7229 116.046 92.2749 115.832 91.9949 115.404C91.7189 114.976 91.5809 114.426 91.5809 113.754C91.5809 113.082 91.7189 112.534 91.9949 112.11C92.2709 111.686 92.7049 111.474 93.2969 111.474C93.7129 111.474 94.0549 111.576 94.3229 111.78C94.5909 111.984 94.7889 112.258 94.9169 112.602C95.0489 112.946 95.1149 113.33 95.1149 113.754C95.1149 114.182 95.0509 114.57 94.9229 114.918C94.7949 115.262 94.5989 115.536 94.3349 115.74C94.0749 115.944 93.7429 116.046 93.3389 116.046ZM100.214 117.174C100.682 117.174 101.096 117.09 101.456 116.922C101.82 116.754 102.12 116.522 102.356 116.226V117H103.472V110.52H102.206V113.892C102.206 114.404 102.132 114.814 101.984 115.122C101.836 115.426 101.636 115.646 101.384 115.782C101.136 115.918 100.862 115.986 100.562 115.986C100.218 115.986 99.9376 115.916 99.7216 115.776C99.5056 115.636 99.3396 115.452 99.2236 115.224C99.1076 114.996 99.0276 114.75 98.9836 114.486C98.9436 114.218 98.9236 113.958 98.9236 113.706V110.52H97.6516V114.12C97.6516 114.32 97.6696 114.552 97.7056 114.816C97.7416 115.08 97.8096 115.35 97.9096 115.626C98.0096 115.902 98.1536 116.158 98.3416 116.394C98.5336 116.626 98.7816 116.814 99.0856 116.958C99.3896 117.102 99.7656 117.174 100.214 117.174ZM108.862 117V115.938C108.438 116.002 108.068 116.016 107.752 115.98C107.44 115.94 107.212 115.798 107.068 115.554C106.992 115.422 106.95 115.26 106.942 115.068C106.938 114.876 106.936 114.65 106.936 114.39V111.528H108.862V110.52H106.936V108.72H105.676V110.52H104.434V111.528H105.676V114.45C105.676 114.802 105.68 115.118 105.688 115.398C105.7 115.674 105.776 115.946 105.916 116.214C106.076 116.514 106.31 116.734 106.618 116.874C106.926 117.014 107.276 117.09 107.668 117.102C108.06 117.114 108.458 117.08 108.862 117ZM114.785 117H116.039V109.542H118.913V108.36H111.911V109.542H114.785V117ZM121.726 117.18C122.37 117.18 122.93 117.036 123.406 116.748C123.882 116.456 124.25 116.054 124.51 115.542C124.774 115.026 124.906 114.43 124.906 113.754C124.906 113.086 124.776 112.496 124.516 111.984C124.256 111.468 123.888 111.066 123.412 110.778C122.936 110.486 122.374 110.34 121.726 110.34C121.09 110.34 120.534 110.484 120.058 110.772C119.582 111.06 119.212 111.46 118.948 111.972C118.684 112.484 118.552 113.078 118.552 113.754C118.552 114.422 118.682 115.014 118.942 115.53C119.202 116.046 119.568 116.45 120.04 116.742C120.516 117.034 121.078 117.18 121.726 117.18ZM121.726 115.998C121.122 115.998 120.664 115.796 120.352 115.392C120.04 114.984 119.884 114.438 119.884 113.754C119.884 113.094 120.034 112.558 120.334 112.146C120.634 111.73 121.098 111.522 121.726 111.522C122.338 111.522 122.798 111.724 123.106 112.128C123.418 112.532 123.574 113.074 123.574 113.754C123.574 114.418 123.42 114.958 123.112 115.374C122.808 115.79 122.346 115.998 121.726 115.998ZM126.219 117H127.497V113.88L130.209 117H131.913L128.949 113.76L131.637 110.52H130.041L127.497 113.64V108.36H126.225L126.219 117ZM135.275 117.18C135.903 117.18 136.473 117.022 136.985 116.706C137.497 116.386 137.879 115.936 138.131 115.356L136.901 114.966C136.573 115.654 136.011 115.998 135.215 115.998C134.671 115.998 134.243 115.834 133.931 115.506C133.619 115.178 133.437 114.714 133.385 114.114H138.215C138.259 113.338 138.167 112.668 137.939 112.104C137.711 111.54 137.365 111.106 136.901 110.802C136.437 110.494 135.875 110.34 135.215 110.34C134.583 110.34 134.029 110.482 133.553 110.766C133.077 111.05 132.705 111.452 132.437 111.972C132.173 112.492 132.041 113.106 132.041 113.814C132.041 114.482 132.175 115.07 132.443 115.578C132.715 116.082 133.093 116.476 133.577 116.76C134.065 117.04 134.631 117.18 135.275 117.18ZM135.263 111.45C136.243 111.45 136.799 112.012 136.931 113.136H133.415C133.495 112.588 133.689 112.17 133.997 111.882C134.305 111.594 134.727 111.45 135.263 111.45ZM139.379 117H140.651V113.628C140.651 113.116 140.725 112.708 140.873 112.404C141.025 112.096 141.225 111.874 141.473 111.738C141.721 111.602 141.995 111.534 142.295 111.534C142.639 111.534 142.919 111.604 143.135 111.744C143.351 111.884 143.517 112.068 143.633 112.296C143.749 112.524 143.827 112.772 143.867 113.04C143.911 113.304 143.933 113.562 143.933 113.814V117H145.205V113.4C145.205 113.2 145.187 112.968 145.151 112.704C145.115 112.44 145.047 112.17 144.947 111.894C144.847 111.618 144.701 111.364 144.509 111.132C144.321 110.896 144.075 110.706 143.771 110.562C143.467 110.418 143.091 110.346 142.643 110.346C142.175 110.346 141.759 110.43 141.395 110.598C141.035 110.766 140.737 110.998 140.501 111.294V110.52H139.379V117Z" fill="white"/>
<rect x="444.5" y="148.5" width="95" height="95" rx="3.5" stroke="#F78774"/>
<path d="M473.072 187H476.792C477.616 187 478.252 186.77 478.7 186.31C479.152 185.85 479.378 185.24 479.378 184.48C479.378 184.02 479.264 183.61 479.036 183.25C478.808 182.89 478.48 182.618 478.052 182.434C478.336 182.27 478.56 182.036 478.724 181.732C478.888 181.428 478.97 181.078 478.97 180.682C478.97 180.29 478.876 179.918 478.688 179.566C478.5 179.21 478.22 178.92 477.848 178.696C477.48 178.472 477.02 178.36 476.468 178.36H473.072V187ZM474.344 181.888V179.542H476.45C476.826 179.542 477.126 179.65 477.35 179.866C477.574 180.082 477.686 180.358 477.686 180.694C477.686 181.07 477.566 181.364 477.326 181.576C477.09 181.784 476.798 181.888 476.45 181.888H474.344ZM474.344 185.806V183.07H476.678C477.11 183.07 477.454 183.204 477.71 183.472C477.966 183.736 478.094 184.064 478.094 184.456C478.094 184.876 477.952 185.206 477.668 185.446C477.384 185.686 477.028 185.806 476.6 185.806H474.344ZM483.386 187.18C484.03 187.18 484.59 187.036 485.066 186.748C485.542 186.456 485.91 186.054 486.17 185.542C486.434 185.026 486.566 184.43 486.566 183.754C486.566 183.086 486.436 182.496 486.176 181.984C485.916 181.468 485.548 181.066 485.072 180.778C484.596 180.486 484.034 180.34 483.386 180.34C482.75 180.34 482.194 180.484 481.718 180.772C481.242 181.06 480.872 181.46 480.608 181.972C480.344 182.484 480.212 183.078 480.212 183.754C480.212 184.422 480.342 185.014 480.602 185.53C480.862 186.046 481.228 186.45 481.7 186.742C482.176 187.034 482.738 187.18 483.386 187.18ZM483.386 185.998C482.782 185.998 482.324 185.796 482.012 185.392C481.7 184.984 481.544 184.438 481.544 183.754C481.544 183.094 481.694 182.558 481.994 182.146C482.294 181.73 482.758 181.522 483.386 181.522C483.998 181.522 484.458 181.724 484.766 182.128C485.078 182.532 485.234 183.074 485.234 183.754C485.234 184.418 485.08 184.958 484.772 185.374C484.468 185.79 484.006 185.998 483.386 185.998ZM487.885 187H489.151V183.73C489.151 183.35 489.211 182.998 489.331 182.674C489.451 182.35 489.663 182.09 489.967 181.894C490.183 181.754 490.421 181.672 490.681 181.648C490.941 181.624 491.175 181.64 491.383 181.696V180.52C491.091 180.464 490.781 180.466 490.453 180.526C490.129 180.586 489.845 180.706 489.601 180.886C489.361 181.046 489.161 181.268 489.001 181.552V180.52H487.885V187ZM492.526 187H493.792V183.73C493.792 183.35 493.852 182.998 493.972 182.674C494.092 182.35 494.304 182.09 494.608 181.894C494.824 181.754 495.062 181.672 495.322 181.648C495.582 181.624 495.816 181.64 496.024 181.696V180.52C495.732 180.464 495.422 180.466 495.094 180.526C494.77 180.586 494.486 180.706 494.242 180.886C494.002 181.046 493.802 181.268 493.642 181.552V180.52H492.526V187ZM499.863 187.18C500.507 187.18 501.067 187.036 501.543 186.748C502.019 186.456 502.387 186.054 502.647 185.542C502.911 185.026 503.043 184.43 503.043 183.754C503.043 183.086 502.913 182.496 502.653 181.984C502.393 181.468 502.025 181.066 501.549 180.778C501.073 180.486 500.511 180.34 499.863 180.34C499.227 180.34 498.671 180.484 498.195 180.772C497.719 181.06 497.349 181.46 497.085 181.972C496.821 182.484 496.689 183.078 496.689 183.754C496.689 184.422 496.819 185.014 497.079 185.53C497.339 186.046 497.705 186.45 498.177 186.742C498.653 187.034 499.215 187.18 499.863 187.18ZM499.863 185.998C499.259 185.998 498.801 185.796 498.489 185.392C498.177 184.984 498.021 184.438 498.021 183.754C498.021 183.094 498.171 182.558 498.471 182.146C498.771 181.73 499.235 181.522 499.863 181.522C500.475 181.522 500.935 181.724 501.243 182.128C501.555 182.532 501.711 183.074 501.711 183.754C501.711 184.418 501.557 184.958 501.249 185.374C500.945 185.79 500.483 185.998 499.863 185.998ZM505.507 187H506.515L508.033 182.308L509.545 187H510.553L512.533 180.52H511.297L509.941 184.966L508.573 180.52H507.493L506.125 184.966L504.769 180.52L503.527 180.514L505.507 187ZM478.426 207H479.68V199.542H482.554V198.36H475.552V199.542H478.426V207ZM485.367 207.18C486.011 207.18 486.571 207.036 487.047 206.748C487.523 206.456 487.891 206.054 488.151 205.542C488.415 205.026 488.547 204.43 488.547 203.754C488.547 203.086 488.417 202.496 488.157 201.984C487.897 201.468 487.529 201.066 487.053 200.778C486.577 200.486 486.015 200.34 485.367 200.34C484.731 200.34 484.175 200.484 483.699 200.772C483.223 201.06 482.853 201.46 482.589 201.972C482.325 202.484 482.193 203.078 482.193 203.754C482.193 204.422 482.323 205.014 482.583 205.53C482.843 206.046 483.209 206.45 483.681 206.742C484.157 207.034 484.719 207.18 485.367 207.18ZM485.367 205.998C484.763 205.998 484.305 205.796 483.993 205.392C483.681 204.984 483.525 204.438 483.525 203.754C483.525 203.094 483.675 202.558 483.975 202.146C484.275 201.73 484.739 201.522 485.367 201.522C485.979 201.522 486.439 201.724 486.747 202.128C487.059 202.532 487.215 203.074 487.215 203.754C487.215 204.418 487.061 204.958 486.753 205.374C486.449 205.79 485.987 205.998 485.367 205.998ZM489.859 207H491.137V203.88L493.849 207H495.553L492.589 203.76L495.277 200.52H493.681L491.137 203.64V198.36H489.865L489.859 207ZM498.915 207.18C499.543 207.18 500.113 207.022 500.625 206.706C501.137 206.386 501.519 205.936 501.771 205.356L500.541 204.966C500.213 205.654 499.651 205.998 498.855 205.998C498.311 205.998 497.883 205.834 497.571 205.506C497.259 205.178 497.077 204.714 497.025 204.114H501.855C501.899 203.338 501.807 202.668 501.579 202.104C501.351 201.54 501.005 201.106 500.541 200.802C500.077 200.494 499.515 200.34 498.855 200.34C498.223 200.34 497.669 200.482 497.193 200.766C496.717 201.05 496.345 201.452 496.077 201.972C495.813 202.492 495.681 203.106 495.681 203.814C495.681 204.482 495.815 205.07 496.083 205.578C496.355 206.082 496.733 206.476 497.217 206.76C497.705 207.04 498.271 207.18 498.915 207.18ZM498.903 201.45C499.883 201.45 500.439 202.012 500.571 203.136H497.055C497.135 202.588 497.329 202.17 497.637 201.882C497.945 201.594 498.367 201.45 498.903 201.45ZM503.02 207H504.292V203.628C504.292 203.116 504.366 202.708 504.514 202.404C504.666 202.096 504.866 201.874 505.114 201.738C505.362 201.602 505.636 201.534 505.936 201.534C506.28 201.534 506.56 201.604 506.776 201.744C506.992 201.884 507.158 202.068 507.274 202.296C507.39 202.524 507.468 202.772 507.508 203.04C507.552 203.304 507.574 203.562 507.574 203.814V207H508.846V203.4C508.846 203.2 508.828 202.968 508.792 202.704C508.756 202.44 508.688 202.17 508.588 201.894C508.488 201.618 508.342 201.364 508.15 201.132C507.962 200.896 507.716 200.706 507.412 200.562C507.108 200.418 506.732 200.346 506.284 200.346C505.816 200.346 505.4 200.43 505.036 200.598C504.676 200.766 504.378 200.998 504.142 201.294V200.52H503.02V207Z" fill="white"/>
<defs>
<radialGradient id="paint0_radial" cx="0" cy="0" r="1" gradientUnits="userSpaceOnUse" gradientTransform="translate(260 164.5) rotate(36.8699) scale(105 2172.65)">
<stop stop-color="#F78774"/>
<stop offset="1" stop-color="#E475A6"/>
</radialGradient>
<linearGradient id="paint1_linear" x1="170" y1="112" x2="215.715" y2="112.041" gradientUnits="userSpaceOnUse">
<stop stop-color="#13CDF9"/>
<stop offset="1" stop-color="#F78774"/>
</linearGradient>
<linearGradient id="paint2_linear" x1="354" y1="196" x2="399.715" y2="196.041" gradientUnits="userSpaceOnUse">
<stop stop-color="#13CDF9"/>
<stop offset="1" stop-color="#F78774"/>
</linearGradient>
</defs>
</svg>
