<svg width="604" height="224" viewBox="0 0 604 224" fill="none" xmlns="http://www.w3.org/2000/svg">
<rect width="604" height="224" fill="#E5E5E5"/>
<rect width="604" height="224" fill="#111112"/>
<path d="M283.283 108H287.438V107.295H284.018V100.8H283.283V108ZM288.391 101.575H289.126V100.75H288.391V101.575ZM288.391 108H289.126V102.6H288.391V108ZM292.72 108.15C293.086 108.15 293.411 108.08 293.695 107.94C293.978 107.797 294.216 107.602 294.41 107.355V110.4H295.15V102.6H294.49V103.345C294.293 103.065 294.043 102.847 293.74 102.69C293.44 102.53 293.09 102.45 292.69 102.45C292.196 102.45 291.773 102.575 291.42 102.825C291.066 103.075 290.795 103.415 290.605 103.845C290.418 104.275 290.325 104.758 290.325 105.295C290.325 105.835 290.418 106.32 290.605 106.75C290.795 107.18 291.068 107.522 291.425 107.775C291.785 108.025 292.216 108.15 292.72 108.15ZM292.795 107.465C292.421 107.465 292.108 107.37 291.855 107.18C291.605 106.987 291.416 106.727 291.29 106.4C291.166 106.073 291.105 105.705 291.105 105.295C291.105 104.888 291.166 104.522 291.29 104.195C291.413 103.868 291.6 103.61 291.85 103.42C292.103 103.23 292.423 103.135 292.81 103.135C293.373 103.135 293.793 103.337 294.07 103.74C294.35 104.14 294.49 104.658 294.49 105.295C294.49 105.712 294.428 106.083 294.305 106.41C294.181 106.737 293.995 106.995 293.745 107.185C293.495 107.372 293.178 107.465 292.795 107.465ZM298.618 108.135C299.004 108.135 299.353 108.062 299.663 107.915C299.976 107.765 300.233 107.543 300.433 107.25V108H301.093V102.6H300.358V105.48C300.358 106.09 300.221 106.568 299.948 106.915C299.674 107.262 299.278 107.435 298.758 107.435C298.381 107.435 298.078 107.345 297.848 107.165C297.618 106.982 297.451 106.733 297.348 106.42C297.244 106.107 297.193 105.752 297.193 105.355V102.6H296.453V105.57C296.453 105.873 296.489 106.177 296.563 106.48C296.639 106.783 296.761 107.06 296.928 107.31C297.094 107.56 297.316 107.76 297.593 107.91C297.873 108.06 298.214 108.135 298.618 108.135ZM302.59 101.575H303.325V100.75H302.59V101.575ZM302.59 108H303.325V102.6H302.59V108ZM306.919 108.15C307.312 108.15 307.657 108.07 307.954 107.91C308.251 107.747 308.496 107.525 308.689 107.245V108H309.349V100.8H308.609V103.235C308.412 102.988 308.169 102.797 307.879 102.66C307.592 102.52 307.262 102.45 306.889 102.45C306.396 102.45 305.972 102.575 305.619 102.825C305.266 103.075 304.994 103.415 304.804 103.845C304.617 104.275 304.524 104.758 304.524 105.295C304.524 105.835 304.617 106.32 304.804 106.75C304.994 107.18 305.267 107.522 305.624 107.775C305.984 108.025 306.416 108.15 306.919 108.15ZM306.994 107.465C306.621 107.465 306.307 107.37 306.054 107.18C305.804 106.987 305.616 106.727 305.489 106.4C305.366 106.073 305.304 105.705 305.304 105.295C305.304 104.888 305.366 104.522 305.489 104.195C305.612 103.868 305.799 103.61 306.049 103.42C306.302 103.23 306.622 103.135 307.009 103.135C307.572 103.135 307.992 103.337 308.269 103.74C308.549 104.14 308.689 104.658 308.689 105.295C308.689 105.712 308.627 106.083 308.504 106.41C308.381 106.737 308.194 106.995 307.944 107.185C307.694 107.372 307.377 107.465 306.994 107.465ZM310.852 101.575H311.587V100.75H310.852V101.575ZM310.852 108H311.587V102.6H310.852V108ZM316.026 108V107.355C315.639 107.418 315.314 107.428 315.051 107.385C314.791 107.342 314.601 107.208 314.481 106.985C314.417 106.868 314.382 106.735 314.376 106.585C314.372 106.432 314.371 106.242 314.371 106.015V103.23H316.026V102.6H314.371V101.1H313.641V102.6H312.486V103.23H313.641V106.045C313.641 106.308 313.644 106.543 313.651 106.75C313.661 106.957 313.714 107.158 313.811 107.355C313.931 107.595 314.106 107.772 314.336 107.885C314.569 107.998 314.832 108.062 315.126 108.075C315.422 108.088 315.722 108.063 316.026 108ZM317.713 110.4H318.448L321.348 102.6H320.598L318.963 107.04L317.188 102.6H316.408L318.603 107.985L317.713 110.4ZM292.617 124H293.352V121.265H295.397C295.464 121.265 295.542 121.262 295.632 121.255C295.722 121.248 295.812 121.238 295.902 121.225C296.462 121.138 296.894 120.892 297.197 120.485C297.504 120.078 297.657 119.595 297.657 119.035C297.657 118.472 297.505 117.987 297.202 117.58C296.899 117.173 296.465 116.927 295.902 116.84C295.812 116.823 295.722 116.813 295.632 116.81C295.545 116.803 295.467 116.8 295.397 116.8H292.617V124ZM293.352 120.565V117.505H295.377C295.437 117.505 295.507 117.508 295.587 117.515C295.67 117.518 295.749 117.528 295.822 117.545C296.192 117.625 296.464 117.81 296.637 118.1C296.814 118.387 296.902 118.698 296.902 119.035C296.902 119.368 296.814 119.68 296.637 119.97C296.464 120.26 296.192 120.443 295.822 120.52C295.749 120.537 295.67 120.548 295.587 120.555C295.507 120.562 295.437 120.565 295.377 120.565H293.352ZM300.868 124.15C301.401 124.15 301.858 124.03 302.238 123.79C302.621 123.55 302.915 123.217 303.118 122.79C303.325 122.36 303.428 121.862 303.428 121.295C303.428 120.738 303.326 120.247 303.123 119.82C302.923 119.39 302.631 119.055 302.248 118.815C301.868 118.572 301.408 118.45 300.868 118.45C300.341 118.45 299.886 118.57 299.503 118.81C299.123 119.047 298.83 119.378 298.623 119.805C298.416 120.232 298.313 120.728 298.313 121.295C298.313 121.852 298.413 122.345 298.613 122.775C298.816 123.205 299.108 123.542 299.488 123.785C299.871 124.028 300.331 124.15 300.868 124.15ZM300.868 123.445C300.285 123.445 299.843 123.25 299.543 122.86C299.243 122.467 299.093 121.945 299.093 121.295C299.093 120.665 299.238 120.152 299.528 119.755C299.818 119.355 300.265 119.155 300.868 119.155C301.465 119.155 301.91 119.35 302.203 119.74C302.5 120.127 302.648 120.645 302.648 121.295C302.648 121.932 302.501 122.45 302.208 122.85C301.915 123.247 301.468 123.445 300.868 123.445ZM306.786 124.15C307.319 124.15 307.776 124.03 308.156 123.79C308.539 123.55 308.833 123.217 309.036 122.79C309.243 122.36 309.346 121.862 309.346 121.295C309.346 120.738 309.244 120.247 309.041 119.82C308.841 119.39 308.549 119.055 308.166 118.815C307.786 118.572 307.326 118.45 306.786 118.45C306.259 118.45 305.804 118.57 305.421 118.81C305.041 119.047 304.748 119.378 304.541 119.805C304.334 120.232 304.231 120.728 304.231 121.295C304.231 121.852 304.331 122.345 304.531 122.775C304.734 123.205 305.026 123.542 305.406 123.785C305.789 124.028 306.249 124.15 306.786 124.15ZM306.786 123.445C306.203 123.445 305.761 123.25 305.461 122.86C305.161 122.467 305.011 121.945 305.011 121.295C305.011 120.665 305.156 120.152 305.446 119.755C305.736 119.355 306.183 119.155 306.786 119.155C307.383 119.155 307.828 119.35 308.121 119.74C308.418 120.127 308.566 120.645 308.566 121.295C308.566 121.932 308.419 122.45 308.126 122.85C307.833 123.247 307.386 123.445 306.786 123.445ZM310.549 124H311.284V116.65H310.549V124Z" fill="white"/>
<circle cx="302" cy="112" r="41.5" stroke="#13CDF9"/>
<path d="M170 111C169.448 111 169 111.448 169 112C169 112.552 169.448 113 170 113V111ZM250 112L240 106.226V117.774L250 112ZM170 113H241V111H170V113Z" fill="url(#paint0_linear)" fill-opacity="0.9"/>
<path d="M354 111C353.448 111 353 111.448 353 112C353 112.552 353.448 113 354 113V111ZM434 112L424 106.226V117.774L434 112ZM354 113H425V111H354V113Z" fill="url(#paint1_linear)" fill-opacity="0.9"/>
<rect x="64.5" y="64.5" width="95" height="95" rx="3.5" stroke="#F78774"/>
<path d="M80.0323 117H81.2863V108.36H80.0323V117ZM83.082 117H84.354V113.628C84.354 113.116 84.428 112.708 84.576 112.404C84.728 112.096 84.928 111.874 85.176 111.738C85.424 111.602 85.698 111.534 85.998 111.534C86.342 111.534 86.622 111.604 86.838 111.744C87.054 111.884 87.22 112.068 87.336 112.296C87.452 112.524 87.53 112.772 87.57 113.04C87.614 113.304 87.636 113.562 87.636 113.814V117H88.908V113.4C88.908 113.2 88.89 112.968 88.854 112.704C88.818 112.44 88.75 112.17 88.65 111.894C88.55 111.618 88.404 111.364 88.212 111.132C88.024 110.896 87.778 110.706 87.474 110.562C87.17 110.418 86.794 110.346 86.346 110.346C85.878 110.346 85.462 110.43 85.098 110.598C84.738 110.766 84.44 110.998 84.204 111.294V110.52H83.082V117ZM90.4649 119.88H91.7249V116.544C91.9529 116.748 92.2149 116.904 92.5109 117.012C92.8109 117.124 93.1449 117.18 93.5129 117.18C94.1169 117.18 94.6369 117.03 95.0729 116.73C95.5129 116.426 95.8509 116.016 96.0869 115.5C96.3269 114.984 96.4469 114.402 96.4469 113.754C96.4469 113.102 96.3269 112.52 96.0869 112.008C95.8469 111.492 95.5049 111.086 95.0609 110.79C94.6209 110.49 94.0969 110.34 93.4889 110.34C93.0889 110.34 92.7289 110.408 92.4089 110.544C92.0889 110.676 91.8129 110.862 91.5809 111.102V110.52H90.4649V119.88ZM93.3389 116.046C92.7229 116.046 92.2749 115.832 91.9949 115.404C91.7189 114.976 91.5809 114.426 91.5809 113.754C91.5809 113.082 91.7189 112.534 91.9949 112.11C92.2709 111.686 92.7049 111.474 93.2969 111.474C93.7129 111.474 94.0549 111.576 94.3229 111.78C94.5909 111.984 94.7889 112.258 94.9169 112.602C95.0489 112.946 95.1149 113.33 95.1149 113.754C95.1149 114.182 95.0509 114.57 94.9229 114.918C94.7949 115.262 94.5989 115.536 94.3349 115.74C94.0749 115.944 93.7429 116.046 93.3389 116.046ZM100.214 117.174C100.682 117.174 101.096 117.09 101.456 116.922C101.82 116.754 102.12 116.522 102.356 116.226V117H103.472V110.52H102.206V113.892C102.206 114.404 102.132 114.814 101.984 115.122C101.836 115.426 101.636 115.646 101.384 115.782C101.136 115.918 100.862 115.986 100.562 115.986C100.218 115.986 99.9376 115.916 99.7216 115.776C99.5056 115.636 99.3396 115.452 99.2236 115.224C99.1076 114.996 99.0276 114.75 98.9836 114.486C98.9436 114.218 98.9236 113.958 98.9236 113.706V110.52H97.6516V114.12C97.6516 114.32 97.6696 114.552 97.7056 114.816C97.7416 115.08 97.8096 115.35 97.9096 115.626C98.0096 115.902 98.1536 116.158 98.3416 116.394C98.5336 116.626 98.7816 116.814 99.0856 116.958C99.3896 117.102 99.7656 117.174 100.214 117.174ZM108.862 117V115.938C108.438 116.002 108.068 116.016 107.752 115.98C107.44 115.94 107.212 115.798 107.068 115.554C106.992 115.422 106.95 115.26 106.942 115.068C106.938 114.876 106.936 114.65 106.936 114.39V111.528H108.862V110.52H106.936V108.72H105.676V110.52H104.434V111.528H105.676V114.45C105.676 114.802 105.68 115.118 105.688 115.398C105.7 115.674 105.776 115.946 105.916 116.214C106.076 116.514 106.31 116.734 106.618 116.874C106.926 117.014 107.276 117.09 107.668 117.102C108.06 117.114 108.458 117.08 108.862 117ZM114.785 117H116.039V109.542H118.913V108.36H111.911V109.542H114.785V117ZM121.726 117.18C122.37 117.18 122.93 117.036 123.406 116.748C123.882 116.456 124.25 116.054 124.51 115.542C124.774 115.026 124.906 114.43 124.906 113.754C124.906 113.086 124.776 112.496 124.516 111.984C124.256 111.468 123.888 111.066 123.412 110.778C122.936 110.486 122.374 110.34 121.726 110.34C121.09 110.34 120.534 110.484 120.058 110.772C119.582 111.06 119.212 111.46 118.948 111.972C118.684 112.484 118.552 113.078 118.552 113.754C118.552 114.422 118.682 115.014 118.942 115.53C119.202 116.046 119.568 116.45 120.04 116.742C120.516 117.034 121.078 117.18 121.726 117.18ZM121.726 115.998C121.122 115.998 120.664 115.796 120.352 115.392C120.04 114.984 119.884 114.438 119.884 113.754C119.884 113.094 120.034 112.558 120.334 112.146C120.634 111.73 121.098 111.522 121.726 111.522C122.338 111.522 122.798 111.724 123.106 112.128C123.418 112.532 123.574 113.074 123.574 113.754C123.574 114.418 123.42 114.958 123.112 115.374C122.808 115.79 122.346 115.998 121.726 115.998ZM126.219 117H127.497V113.88L130.209 117H131.913L128.949 113.76L131.637 110.52H130.041L127.497 113.64V108.36H126.225L126.219 117ZM135.275 117.18C135.903 117.18 136.473 117.022 136.985 116.706C137.497 116.386 137.879 115.936 138.131 115.356L136.901 114.966C136.573 115.654 136.011 115.998 135.215 115.998C134.671 115.998 134.243 115.834 133.931 115.506C133.619 115.178 133.437 114.714 133.385 114.114H138.215C138.259 113.338 138.167 112.668 137.939 112.104C137.711 111.54 137.365 111.106 136.901 110.802C136.437 110.494 135.875 110.34 135.215 110.34C134.583 110.34 134.029 110.482 133.553 110.766C133.077 111.05 132.705 111.452 132.437 111.972C132.173 112.492 132.041 113.106 132.041 113.814C132.041 114.482 132.175 115.07 132.443 115.578C132.715 116.082 133.093 116.476 133.577 116.76C134.065 117.04 134.631 117.18 135.275 117.18ZM135.263 111.45C136.243 111.45 136.799 112.012 136.931 113.136H133.415C133.495 112.588 133.689 112.17 133.997 111.882C134.305 111.594 134.727 111.45 135.263 111.45ZM139.379 117H140.651V113.628C140.651 113.116 140.725 112.708 140.873 112.404C141.025 112.096 141.225 111.874 141.473 111.738C141.721 111.602 141.995 111.534 142.295 111.534C142.639 111.534 142.919 111.604 143.135 111.744C143.351 111.884 143.517 112.068 143.633 112.296C143.749 112.524 143.827 112.772 143.867 113.04C143.911 113.304 143.933 113.562 143.933 113.814V117H145.205V113.4C145.205 113.2 145.187 112.968 145.151 112.704C145.115 112.44 145.047 112.17 144.947 111.894C144.847 111.618 144.701 111.364 144.509 111.132C144.321 110.896 144.075 110.706 143.771 110.562C143.467 110.418 143.091 110.346 142.643 110.346C142.175 110.346 141.759 110.43 141.395 110.598C141.035 110.766 140.737 110.998 140.501 111.294V110.52H139.379V117Z" fill="white"/>
<rect x="444.5" y="64.5" width="95" height="95" rx="3.5" stroke="#F78774"/>
<path d="M468.276 117H473.442V115.818H469.53V108.36H468.276V117ZM474.461 117H475.715V113.898H477.953C478.033 113.898 478.135 113.894 478.259 113.886C478.387 113.878 478.507 113.866 478.619 113.85C479.339 113.734 479.879 113.426 480.239 112.926C480.603 112.426 480.785 111.826 480.785 111.126C480.785 110.426 480.605 109.826 480.245 109.326C479.885 108.826 479.343 108.52 478.619 108.408C478.507 108.388 478.389 108.376 478.265 108.372C478.141 108.364 478.037 108.36 477.953 108.36H474.461V117ZM475.715 112.71V109.542H477.905C477.985 109.542 478.073 109.546 478.169 109.554C478.269 109.562 478.363 109.578 478.451 109.602C478.835 109.69 479.107 109.886 479.267 110.19C479.427 110.494 479.507 110.806 479.507 111.126C479.507 111.442 479.427 111.754 479.267 112.062C479.107 112.366 478.835 112.564 478.451 112.656C478.363 112.676 478.269 112.69 478.169 112.698C478.073 112.706 477.985 112.71 477.905 112.71H475.715ZM486.541 117H487.795V109.542H490.669V108.36H483.667V109.542H486.541V117ZM493.482 117.18C494.126 117.18 494.686 117.036 495.162 116.748C495.638 116.456 496.006 116.054 496.266 115.542C496.53 115.026 496.662 114.43 496.662 113.754C496.662 113.086 496.532 112.496 496.272 111.984C496.012 111.468 495.644 111.066 495.168 110.778C494.692 110.486 494.13 110.34 493.482 110.34C492.846 110.34 492.29 110.484 491.814 110.772C491.338 111.06 490.968 111.46 490.704 111.972C490.44 112.484 490.308 113.078 490.308 113.754C490.308 114.422 490.438 115.014 490.698 115.53C490.958 116.046 491.324 116.45 491.796 116.742C492.272 117.034 492.834 117.18 493.482 117.18ZM493.482 115.998C492.878 115.998 492.42 115.796 492.108 115.392C491.796 114.984 491.64 114.438 491.64 113.754C491.64 113.094 491.79 112.558 492.09 112.146C492.39 111.73 492.854 111.522 493.482 111.522C494.094 111.522 494.554 111.724 494.862 112.128C495.174 112.532 495.33 113.074 495.33 113.754C495.33 114.418 495.176 114.958 494.868 115.374C494.564 115.79 494.102 115.998 493.482 115.998ZM497.975 117H499.253V113.88L501.965 117H503.669L500.705 113.76L503.393 110.52H501.797L499.253 113.64V108.36H497.981L497.975 117ZM507.03 117.18C507.658 117.18 508.228 117.022 508.74 116.706C509.252 116.386 509.634 115.936 509.886 115.356L508.656 114.966C508.328 115.654 507.766 115.998 506.97 115.998C506.426 115.998 505.998 115.834 505.686 115.506C505.374 115.178 505.192 114.714 505.14 114.114H509.97C510.014 113.338 509.922 112.668 509.694 112.104C509.466 111.54 509.12 111.106 508.656 110.802C508.192 110.494 507.63 110.34 506.97 110.34C506.338 110.34 505.784 110.482 505.308 110.766C504.832 111.05 504.46 111.452 504.192 111.972C503.928 112.492 503.796 113.106 503.796 113.814C503.796 114.482 503.93 115.07 504.198 115.578C504.47 116.082 504.848 116.476 505.332 116.76C505.82 117.04 506.386 117.18 507.03 117.18ZM507.018 111.45C507.998 111.45 508.554 112.012 508.686 113.136H505.17C505.25 112.588 505.444 112.17 505.752 111.882C506.06 111.594 506.482 111.45 507.018 111.45ZM511.135 117H512.407V113.628C512.407 113.116 512.481 112.708 512.629 112.404C512.781 112.096 512.981 111.874 513.229 111.738C513.477 111.602 513.751 111.534 514.051 111.534C514.395 111.534 514.675 111.604 514.891 111.744C515.107 111.884 515.273 112.068 515.389 112.296C515.505 112.524 515.583 112.772 515.623 113.04C515.667 113.304 515.689 113.562 515.689 113.814V117H516.961V113.4C516.961 113.2 516.943 112.968 516.907 112.704C516.871 112.44 516.803 112.17 516.703 111.894C516.603 111.618 516.457 111.364 516.265 111.132C516.077 110.896 515.831 110.706 515.527 110.562C515.223 110.418 514.847 110.346 514.399 110.346C513.931 110.346 513.515 110.43 513.151 110.598C512.791 110.766 512.493 110.998 512.257 111.294V110.52H511.135V117Z" fill="white"/>
<defs>
<linearGradient id="paint0_linear" x1="170" y1="112" x2="215.715" y2="112.041" gradientUnits="userSpaceOnUse">
<stop stop-color="#13CDF9"/>
<stop offset="1" stop-color="#F78774"/>
</linearGradient>
<linearGradient id="paint1_linear" x1="354" y1="112" x2="399.715" y2="112.041" gradientUnits="userSpaceOnUse">
<stop stop-color="#13CDF9"/>
<stop offset="1" stop-color="#F78774"/>
</linearGradient>
</defs>
</svg>
