<?xml version="1.0" encoding="UTF-8"?> <svg xmlns="http://www.w3.org/2000/svg" width="538" height="260" viewBox="0 0 538 260" fill="none"> <rect x="0.5" y="0.5" width="537" height="259" rx="3.5" fill="#191919" stroke="#282726"></rect> <path d="M254.986 91.15C255.823 91.15 256.506 90.9367 257.036 90.51C257.566 90.08 257.929 89.505 258.126 88.785L257.376 88.59C257.223 89.1567 256.948 89.6083 256.551 89.945C256.154 90.2783 255.633 90.445 254.986 90.445C254.423 90.445 253.951 90.3167 253.571 90.06C253.194 89.8 252.911 89.4417 252.721 88.985C252.534 88.5283 252.443 88 252.446 87.4C252.453 86.8 252.549 86.2717 252.736 85.815C252.923 85.355 253.203 84.9967 253.576 84.74C253.953 84.4833 254.423 84.355 254.986 84.355C255.633 84.355 256.154 84.5233 256.551 84.86C256.948 85.1933 257.223 85.6433 257.376 86.21L258.126 86.015C257.929 85.295 257.566 84.7217 257.036 84.295C256.506 83.865 255.823 83.65 254.986 83.65C254.269 83.65 253.664 83.8083 253.171 84.125C252.678 84.4417 252.304 84.8817 252.051 85.445C251.798 86.0083 251.671 86.66 251.671 87.4C251.671 88.1367 251.798 88.7883 252.051 89.355C252.304 89.9183 252.678 90.3583 253.171 90.675C253.664 90.9917 254.269 91.15 254.986 91.15ZM261.484 91.15C262.018 91.15 262.474 91.03 262.854 90.79C263.238 90.55 263.531 90.2167 263.734 89.79C263.941 89.36 264.044 88.8617 264.044 88.295C264.044 87.7383 263.943 87.2467 263.739 86.82C263.539 86.39 263.248 86.055 262.864 85.815C262.484 85.5717 262.024 85.45 261.484 85.45C260.958 85.45 260.503 85.57 260.119 85.81C259.739 86.0467 259.446 86.3783 259.239 86.805C259.033 87.2317 258.929 87.7283 258.929 88.295C258.929 88.8517 259.029 89.345 259.229 89.775C259.433 90.205 259.724 90.5417 260.104 90.785C260.488 91.0283 260.948 91.15 261.484 91.15ZM261.484 90.445C260.901 90.445 260.459 90.25 260.159 89.86C259.859 89.4667 259.709 88.945 259.709 88.295C259.709 87.665 259.854 87.1517 260.144 86.755C260.434 86.355 260.881 86.155 261.484 86.155C262.081 86.155 262.526 86.35 262.819 86.74C263.116 87.1267 263.264 87.645 263.264 88.295C263.264 88.9317 263.118 89.45 262.824 89.85C262.531 90.2467 262.084 90.445 261.484 90.445ZM265.247 91H265.982V83.65H265.247V91ZM267.581 91H268.316V83.65H267.581V91ZM271.36 91.15C272.304 91.15 272.989 90.8017 273.415 90.105V91H274.07V87.645C274.07 87.445 274.06 87.2483 274.04 87.055C274.02 86.8617 273.977 86.6867 273.91 86.53C273.767 86.18 273.522 85.9133 273.175 85.73C272.832 85.5433 272.414 85.45 271.92 85.45C271.327 85.45 270.844 85.5833 270.47 85.85C270.097 86.1167 269.847 86.4917 269.72 86.975L270.435 87.185C270.539 86.825 270.717 86.5617 270.97 86.395C271.227 86.2283 271.54 86.145 271.91 86.145C272.424 86.145 272.79 86.265 273.01 86.505C273.23 86.7417 273.344 87.1033 273.35 87.59C273.11 87.6233 272.845 87.6583 272.555 87.695C272.269 87.7317 271.98 87.7733 271.69 87.82C271.4 87.8667 271.134 87.92 270.89 87.98C270.487 88.0867 270.157 88.265 269.9 88.515C269.644 88.7617 269.515 89.1067 269.515 89.55C269.515 89.8367 269.584 90.1017 269.72 90.345C269.857 90.5883 270.062 90.7833 270.335 90.93C270.612 91.0767 270.954 91.15 271.36 91.15ZM271.445 90.515C271.155 90.515 270.922 90.4683 270.745 90.375C270.572 90.2783 270.445 90.1567 270.365 90.01C270.289 89.86 270.25 89.7067 270.25 89.55C270.25 89.2567 270.349 89.0367 270.545 88.89C270.742 88.7433 270.955 88.6367 271.185 88.57C271.482 88.49 271.827 88.425 272.22 88.375C272.614 88.325 272.987 88.2783 273.34 88.235C273.34 88.3583 273.335 88.5 273.325 88.66C273.319 88.8167 273.3 88.9617 273.27 89.095C273.2 89.5017 273.007 89.84 272.69 90.11C272.377 90.38 271.962 90.515 271.445 90.515ZM278.312 91V90.355C277.925 90.4183 277.6 90.4283 277.337 90.385C277.077 90.3417 276.887 90.2083 276.767 89.985C276.704 89.8683 276.669 89.735 276.662 89.585C276.659 89.4317 276.657 89.2417 276.657 89.015V86.23H278.312V85.6H276.657V84.1H275.927V85.6H274.772V86.23H275.927V89.045C275.927 89.3083 275.93 89.5433 275.937 89.75C275.947 89.9567 276 90.1583 276.097 90.355C276.217 90.595 276.392 90.7717 276.622 90.885C276.855 90.9983 277.119 91.0617 277.412 91.075C277.709 91.0883 278.009 91.0633 278.312 91ZM281.465 91.15C281.989 91.15 282.457 91.0217 282.87 90.765C283.287 90.5083 283.602 90.1433 283.815 89.67L283.13 89.405C282.787 90.0983 282.222 90.445 281.435 90.445C280.895 90.445 280.472 90.2767 280.165 89.94C279.862 89.6033 279.695 89.125 279.665 88.505H283.92C283.947 87.5517 283.739 86.805 283.295 86.265C282.855 85.7217 282.235 85.45 281.435 85.45C280.915 85.45 280.464 85.5667 280.08 85.8C279.7 86.0333 279.405 86.365 279.195 86.795C278.985 87.225 278.88 87.735 278.88 88.325C278.88 88.895 278.985 89.3917 279.195 89.815C279.409 90.2383 279.709 90.5667 280.095 90.8C280.485 91.0333 280.942 91.15 281.465 91.15ZM281.455 86.125C282.472 86.125 283.037 86.7133 283.15 87.89H279.68C279.737 87.32 279.917 86.8833 280.22 86.58C280.524 86.2767 280.935 86.125 281.455 86.125ZM285.03 91H285.765V88.305C285.765 87.9817 285.802 87.66 285.875 87.34C285.952 87.0167 286.125 86.7483 286.395 86.535C286.592 86.375 286.805 86.2833 287.035 86.26C287.268 86.2333 287.485 86.2433 287.685 86.29V85.6C287.448 85.54 287.18 85.5383 286.88 85.595C286.58 85.6483 286.323 85.7683 286.11 85.955C285.95 86.075 285.81 86.2417 285.69 86.455V85.6H285.03V91ZM289.983 91.15C290.927 91.15 291.612 90.8017 292.038 90.105V91H292.693V87.645C292.693 87.445 292.683 87.2483 292.663 87.055C292.643 86.8617 292.6 86.6867 292.533 86.53C292.39 86.18 292.145 85.9133 291.798 85.73C291.455 85.5433 291.037 85.45 290.543 85.45C289.95 85.45 289.467 85.5833 289.093 85.85C288.72 86.1167 288.47 86.4917 288.343 86.975L289.058 87.185C289.162 86.825 289.34 86.5617 289.593 86.395C289.85 86.2283 290.163 86.145 290.533 86.145C291.047 86.145 291.413 86.265 291.633 86.505C291.853 86.7417 291.967 87.1033 291.973 87.59C291.733 87.6233 291.468 87.6583 291.178 87.695C290.892 87.7317 290.603 87.7733 290.313 87.82C290.023 87.8667 289.757 87.92 289.513 87.98C289.11 88.0867 288.78 88.265 288.523 88.515C288.267 88.7617 288.138 89.1067 288.138 89.55C288.138 89.8367 288.207 90.1017 288.343 90.345C288.48 90.5883 288.685 90.7833 288.958 90.93C289.235 91.0767 289.577 91.15 289.983 91.15ZM290.068 90.515C289.778 90.515 289.545 90.4683 289.368 90.375C289.195 90.2783 289.068 90.1567 288.988 90.01C288.912 89.86 288.873 89.7067 288.873 89.55C288.873 89.2567 288.972 89.0367 289.168 88.89C289.365 88.7433 289.578 88.6367 289.808 88.57C290.105 88.49 290.45 88.425 290.843 88.375C291.237 88.325 291.61 88.2783 291.963 88.235C291.963 88.3583 291.958 88.5 291.948 88.66C291.942 88.8167 291.923 88.9617 291.893 89.095C291.823 89.5017 291.63 89.84 291.313 90.11C291 90.38 290.585 90.515 290.068 90.515ZM294.095 91H294.83V83.65H294.095V91ZM264.117 107H264.852V104.265H266.897C266.964 104.265 267.042 104.262 267.132 104.255C267.222 104.248 267.312 104.238 267.402 104.225C267.962 104.138 268.394 103.892 268.697 103.485C269.004 103.078 269.157 102.595 269.157 102.035C269.157 101.472 269.005 100.987 268.702 100.58C268.399 100.173 267.965 99.9267 267.402 99.84C267.312 99.8233 267.222 99.8133 267.132 99.81C267.045 99.8033 266.967 99.8 266.897 99.8H264.117V107ZM264.852 103.565V100.505H266.877C266.937 100.505 267.007 100.508 267.087 100.515C267.17 100.518 267.249 100.528 267.322 100.545C267.692 100.625 267.964 100.81 268.137 101.1C268.314 101.387 268.402 101.698 268.402 102.035C268.402 102.368 268.314 102.68 268.137 102.97C267.964 103.26 267.692 103.443 267.322 103.52C267.249 103.537 267.17 103.548 267.087 103.555C267.007 103.562 266.937 103.565 266.877 103.565H264.852ZM272.368 107.15C272.901 107.15 273.358 107.03 273.738 106.79C274.121 106.55 274.415 106.217 274.618 105.79C274.825 105.36 274.928 104.862 274.928 104.295C274.928 103.738 274.826 103.247 274.623 102.82C274.423 102.39 274.131 102.055 273.748 101.815C273.368 101.572 272.908 101.45 272.368 101.45C271.841 101.45 271.386 101.57 271.003 101.81C270.623 102.047 270.33 102.378 270.123 102.805C269.916 103.232 269.813 103.728 269.813 104.295C269.813 104.852 269.913 105.345 270.113 105.775C270.316 106.205 270.608 106.542 270.988 106.785C271.371 107.028 271.831 107.15 272.368 107.15ZM272.368 106.445C271.785 106.445 271.343 106.25 271.043 105.86C270.743 105.467 270.593 104.945 270.593 104.295C270.593 103.665 270.738 103.152 271.028 102.755C271.318 102.355 271.765 102.155 272.368 102.155C272.965 102.155 273.41 102.35 273.703 102.74C274 103.127 274.148 103.645 274.148 104.295C274.148 104.932 274.001 105.45 273.708 105.85C273.415 106.247 272.968 106.445 272.368 106.445ZM278.286 107.15C278.819 107.15 279.276 107.03 279.656 106.79C280.039 106.55 280.333 106.217 280.536 105.79C280.743 105.36 280.846 104.862 280.846 104.295C280.846 103.738 280.744 103.247 280.541 102.82C280.341 102.39 280.049 102.055 279.666 101.815C279.286 101.572 278.826 101.45 278.286 101.45C277.759 101.45 277.304 101.57 276.921 101.81C276.541 102.047 276.248 102.378 276.041 102.805C275.834 103.232 275.731 103.728 275.731 104.295C275.731 104.852 275.831 105.345 276.031 105.775C276.234 106.205 276.526 106.542 276.906 106.785C277.289 107.028 277.749 107.15 278.286 107.15ZM278.286 106.445C277.703 106.445 277.261 106.25 276.961 105.86C276.661 105.467 276.511 104.945 276.511 104.295C276.511 103.665 276.656 103.152 276.946 102.755C277.236 102.355 277.683 102.155 278.286 102.155C278.883 102.155 279.328 102.35 279.621 102.74C279.918 103.127 280.066 103.645 280.066 104.295C280.066 104.932 279.919 105.45 279.626 105.85C279.333 106.247 278.886 106.445 278.286 106.445ZM282.049 107H282.784V99.65H282.049V107Z" fill="white"></path> <circle cx="274" cy="93" r="31.5" stroke="#13CDF9"></circle> <rect x="245.5" y="141.5" width="57" height="57" rx="3.5" stroke="#F78774"></rect> <path d="M258.921 171H261.931C262.567 171 263.081 170.82 263.471 170.46C263.861 170.097 264.056 169.603 264.056 168.98C264.056 168.563 263.949 168.2 263.736 167.89C263.526 167.58 263.234 167.343 262.861 167.18C263.121 167.03 263.326 166.822 263.476 166.555C263.629 166.285 263.706 165.985 263.706 165.655C263.706 165.315 263.622 165.005 263.456 164.725C263.289 164.442 263.056 164.217 262.756 164.05C262.456 163.883 262.104 163.8 261.701 163.8H258.921V171ZM259.661 166.87V164.495H261.696C262.059 164.495 262.357 164.602 262.591 164.815C262.827 165.028 262.946 165.305 262.946 165.645C262.946 166.005 262.824 166.3 262.581 166.53C262.337 166.757 262.042 166.87 261.696 166.87H259.661ZM259.661 170.295V167.565H261.886C262.156 167.565 262.397 167.628 262.611 167.755C262.824 167.882 262.991 168.053 263.111 168.27C263.234 168.483 263.296 168.723 263.296 168.99C263.296 169.4 263.147 169.72 262.851 169.95C262.554 170.18 262.187 170.295 261.751 170.295H259.661ZM267.309 171.15C267.842 171.15 268.299 171.03 268.679 170.79C269.062 170.55 269.355 170.217 269.559 169.79C269.765 169.36 269.869 168.862 269.869 168.295C269.869 167.738 269.767 167.247 269.564 166.82C269.364 166.39 269.072 166.055 268.689 165.815C268.309 165.572 267.849 165.45 267.309 165.45C266.782 165.45 266.327 165.57 265.944 165.81C265.564 166.047 265.27 166.378 265.064 166.805C264.857 167.232 264.754 167.728 264.754 168.295C264.754 168.852 264.854 169.345 265.054 169.775C265.257 170.205 265.549 170.542 265.929 170.785C266.312 171.028 266.772 171.15 267.309 171.15ZM267.309 170.445C266.725 170.445 266.284 170.25 265.984 169.86C265.684 169.467 265.534 168.945 265.534 168.295C265.534 167.665 265.679 167.152 265.969 166.755C266.259 166.355 266.705 166.155 267.309 166.155C267.905 166.155 268.35 166.35 268.644 166.74C268.94 167.127 269.089 167.645 269.089 168.295C269.089 168.932 268.942 169.45 268.649 169.85C268.355 170.247 267.909 170.445 267.309 170.445ZM270.971 171H271.706V168.305C271.706 167.982 271.743 167.66 271.816 167.34C271.893 167.017 272.066 166.748 272.336 166.535C272.533 166.375 272.746 166.283 272.976 166.26C273.21 166.233 273.426 166.243 273.626 166.29V165.6C273.39 165.54 273.121 165.538 272.821 165.595C272.521 165.648 272.265 165.768 272.051 165.955C271.891 166.075 271.751 166.242 271.631 166.455V165.6H270.971V171ZM274.575 171H275.31V168.305C275.31 167.982 275.347 167.66 275.42 167.34C275.497 167.017 275.67 166.748 275.94 166.535C276.137 166.375 276.35 166.283 276.58 166.26C276.813 166.233 277.03 166.243 277.23 166.29V165.6C276.993 165.54 276.725 165.538 276.425 165.595C276.125 165.648 275.868 165.768 275.655 165.955C275.495 166.075 275.355 166.242 275.235 166.455V165.6H274.575V171ZM280.336 171.15C280.869 171.15 281.326 171.03 281.706 170.79C282.089 170.55 282.383 170.217 282.586 169.79C282.793 169.36 282.896 168.862 282.896 168.295C282.896 167.738 282.794 167.247 282.591 166.82C282.391 166.39 282.099 166.055 281.716 165.815C281.336 165.572 280.876 165.45 280.336 165.45C279.809 165.45 279.354 165.57 278.971 165.81C278.591 166.047 278.298 166.378 278.091 166.805C277.884 167.232 277.781 167.728 277.781 168.295C277.781 168.852 277.881 169.345 278.081 169.775C278.284 170.205 278.576 170.542 278.956 170.785C279.339 171.028 279.799 171.15 280.336 171.15ZM280.336 170.445C279.753 170.445 279.311 170.25 279.011 169.86C278.711 169.467 278.561 168.945 278.561 168.295C278.561 167.665 278.706 167.152 278.996 166.755C279.286 166.355 279.733 166.155 280.336 166.155C280.933 166.155 281.378 166.35 281.671 166.74C281.968 167.127 282.116 167.645 282.116 168.295C282.116 168.932 281.969 169.45 281.676 169.85C281.383 170.247 280.936 170.445 280.336 170.445ZM284.954 171H285.594L286.939 166.7L288.289 171H288.929L290.579 165.6H289.849L288.559 169.795L287.274 165.6H286.604L285.319 169.795L284.039 165.6L283.304 165.595L284.954 171Z" fill="white"></path> <path d="M242 61H228C225.791 61 224 62.7909 224 65V195C224 197.209 225.791 199 228 199H242" stroke="url(#paint0_linear)" stroke-opacity="0.5"></path> <path d="M309 61H323C325.209 61 327 62.7909 327 65V195C327 197.209 325.209 199 323 199H309" stroke="url(#paint1_linear)" stroke-opacity="0.5"></path> <path d="M134 129C133.448 129 133 129.448 133 130C133 130.552 133.448 131 134 131V129ZM214 130L204 124.226V135.774L214 130ZM134 131H205V129H134V131Z" fill="url(#paint2_linear)" fill-opacity="0.9"></path> <path d="M160.821 86H161.796L164.276 78.8H163.511L161.301 85.165L159.106 78.8H158.341L160.821 86ZM166.122 86.15C167.065 86.15 167.75 85.8017 168.177 85.105V86H168.832V82.645C168.832 82.445 168.822 82.2483 168.802 82.055C168.782 81.8617 168.739 81.6867 168.672 81.53C168.529 81.18 168.284 80.9133 167.937 80.73C167.594 80.5433 167.175 80.45 166.682 80.45C166.089 80.45 165.605 80.5833 165.232 80.85C164.859 81.1167 164.609 81.4917 164.482 81.975L165.197 82.185C165.3 81.825 165.479 81.5617 165.732 81.395C165.989 81.2283 166.302 81.145 166.672 81.145C167.185 81.145 167.552 81.265 167.772 81.505C167.992 81.7417 168.105 82.1033 168.112 82.59C167.872 82.6233 167.607 82.6583 167.317 82.695C167.03 82.7317 166.742 82.7733 166.452 82.82C166.162 82.8667 165.895 82.92 165.652 82.98C165.249 83.0867 164.919 83.265 164.662 83.515C164.405 83.7617 164.277 84.1067 164.277 84.55C164.277 84.8367 164.345 85.1017 164.482 85.345C164.619 85.5883 164.824 85.7833 165.097 85.93C165.374 86.0767 165.715 86.15 166.122 86.15ZM166.207 85.515C165.917 85.515 165.684 85.4683 165.507 85.375C165.334 85.2783 165.207 85.1567 165.127 85.01C165.05 84.86 165.012 84.7067 165.012 84.55C165.012 84.2567 165.11 84.0367 165.307 83.89C165.504 83.7433 165.717 83.6367 165.947 83.57C166.244 83.49 166.589 83.425 166.982 83.375C167.375 83.325 167.749 83.2783 168.102 83.235C168.102 83.3583 168.097 83.5 168.087 83.66C168.08 83.8167 168.062 83.9617 168.032 84.095C167.962 84.5017 167.769 84.84 167.452 85.11C167.139 85.38 166.724 85.515 166.207 85.515ZM172.199 86.135C172.585 86.135 172.934 86.0617 173.244 85.915C173.557 85.765 173.814 85.5433 174.014 85.25V86H174.674V80.6H173.939V83.48C173.939 84.09 173.802 84.5683 173.529 84.915C173.255 85.2617 172.859 85.435 172.339 85.435C171.962 85.435 171.659 85.345 171.429 85.165C171.199 84.9817 171.032 84.7333 170.929 84.42C170.825 84.1067 170.774 83.7517 170.774 83.355V80.6H170.034V83.57C170.034 83.8733 170.07 84.1767 170.144 84.48C170.22 84.7833 170.342 85.06 170.509 85.31C170.675 85.56 170.897 85.76 171.174 85.91C171.454 86.06 171.795 86.135 172.199 86.135ZM176.171 86H176.906V78.65H176.171V86ZM181.345 86V85.355C180.958 85.4183 180.633 85.4283 180.37 85.385C180.11 85.3417 179.92 85.2083 179.8 84.985C179.737 84.8683 179.702 84.735 179.695 84.585C179.692 84.4317 179.69 84.2417 179.69 84.015V81.23H181.345V80.6H179.69V79.1H178.96V80.6H177.805V81.23H178.96V84.045C178.96 84.3083 178.963 84.5433 178.97 84.75C178.98 84.9567 179.033 85.1583 179.13 85.355C179.25 85.595 179.425 85.7717 179.655 85.885C179.888 85.9983 180.152 86.0617 180.445 86.075C180.742 86.0883 181.042 86.0633 181.345 86ZM148.258 102.135C148.645 102.135 148.993 102.062 149.303 101.915C149.616 101.765 149.873 101.543 150.073 101.25V102H150.733V96.6H149.998V99.48C149.998 100.09 149.861 100.568 149.588 100.915C149.315 101.262 148.918 101.435 148.398 101.435C148.021 101.435 147.718 101.345 147.488 101.165C147.258 100.982 147.091 100.733 146.988 100.42C146.885 100.107 146.833 99.7517 146.833 99.355V96.6H146.093V99.57C146.093 99.8733 146.13 100.177 146.203 100.48C146.28 100.783 146.401 101.06 146.568 101.31C146.735 101.56 146.956 101.76 147.233 101.91C147.513 102.06 147.855 102.135 148.258 102.135ZM152.126 102H152.866V99.12C152.866 98.51 153.002 98.0317 153.276 97.685C153.549 97.3383 153.946 97.165 154.466 97.165C154.842 97.165 155.146 97.2567 155.376 97.44C155.606 97.62 155.772 97.8667 155.876 98.18C155.979 98.4933 156.031 98.8483 156.031 99.245V102H156.771V99.03C156.771 98.7267 156.732 98.4233 156.656 98.12C156.582 97.8167 156.462 97.54 156.296 97.29C156.129 97.04 155.907 96.84 155.631 96.69C155.354 96.54 155.012 96.465 154.606 96.465C154.219 96.465 153.869 96.54 153.556 96.69C153.246 96.8367 152.991 97.0567 152.791 97.35V96.6H152.126V102ZM160.124 102.15C160.517 102.15 160.862 102.07 161.159 101.91C161.456 101.747 161.701 101.525 161.894 101.245V102H162.554V94.8H161.814V97.235C161.617 96.9883 161.374 96.7967 161.084 96.66C160.797 96.52 160.467 96.45 160.094 96.45C159.601 96.45 159.177 96.575 158.824 96.825C158.471 97.075 158.199 97.415 158.009 97.845C157.822 98.275 157.729 98.7583 157.729 99.295C157.729 99.835 157.822 100.32 158.009 100.75C158.199 101.18 158.472 101.522 158.829 101.775C159.189 102.025 159.621 102.15 160.124 102.15ZM160.199 101.465C159.826 101.465 159.512 101.37 159.259 101.18C159.009 100.987 158.821 100.727 158.694 100.4C158.571 100.073 158.509 99.705 158.509 99.295C158.509 98.8883 158.571 98.5217 158.694 98.195C158.817 97.8683 159.004 97.61 159.254 97.42C159.507 97.23 159.827 97.135 160.214 97.135C160.777 97.135 161.197 97.3367 161.474 97.74C161.754 98.14 161.894 98.6583 161.894 99.295C161.894 99.7117 161.832 100.083 161.709 100.41C161.586 100.737 161.399 100.995 161.149 101.185C160.899 101.372 160.582 101.465 160.199 101.465ZM166.242 102.15C166.765 102.15 167.234 102.022 167.647 101.765C168.064 101.508 168.379 101.143 168.592 100.67L167.907 100.405C167.564 101.098 166.999 101.445 166.212 101.445C165.672 101.445 165.249 101.277 164.942 100.94C164.639 100.603 164.472 100.125 164.442 99.505H168.697C168.724 98.5517 168.515 97.805 168.072 97.265C167.632 96.7217 167.012 96.45 166.212 96.45C165.692 96.45 165.24 96.5667 164.857 96.8C164.477 97.0333 164.182 97.365 163.972 97.795C163.762 98.225 163.657 98.735 163.657 99.325C163.657 99.895 163.762 100.392 163.972 100.815C164.185 101.238 164.485 101.567 164.872 101.8C165.262 102.033 165.719 102.15 166.242 102.15ZM166.232 97.125C167.249 97.125 167.814 97.7133 167.927 98.89H164.457C164.514 98.32 164.694 97.8833 164.997 97.58C165.3 97.2767 165.712 97.125 166.232 97.125ZM169.806 102H170.541V99.305C170.541 98.9817 170.578 98.66 170.651 98.34C170.728 98.0167 170.901 97.7483 171.171 97.535C171.368 97.375 171.581 97.2833 171.811 97.26C172.045 97.2333 172.261 97.2433 172.461 97.29V96.6C172.225 96.54 171.956 96.5383 171.656 96.595C171.356 96.6483 171.1 96.7683 170.886 96.955C170.726 97.075 170.586 97.2417 170.466 97.455V96.6H169.806V102ZM173.51 102H174.245V94.65H173.51V102ZM176.514 104.4H177.249L180.149 96.6H179.399L177.764 101.04L175.989 96.6H175.209L177.404 101.985L176.514 104.4ZM181.117 95.575H181.852V94.75H181.117V95.575ZM181.117 102H181.852V96.6H181.117V102ZM183.346 102H184.086V99.12C184.086 98.51 184.223 98.0317 184.496 97.685C184.77 97.3383 185.166 97.165 185.686 97.165C186.063 97.165 186.366 97.2567 186.596 97.44C186.826 97.62 186.993 97.8667 187.096 98.18C187.2 98.4933 187.251 98.8483 187.251 99.245V102H187.991V99.03C187.991 98.7267 187.953 98.4233 187.876 98.12C187.803 97.8167 187.683 97.54 187.516 97.29C187.35 97.04 187.128 96.84 186.851 96.69C186.575 96.54 186.233 96.465 185.826 96.465C185.44 96.465 185.09 96.54 184.776 96.69C184.466 96.8367 184.211 97.0567 184.011 97.35V96.6H183.346V102ZM191.384 102.15C191.747 102.15 192.071 102.08 192.354 101.94C192.637 101.8 192.876 101.607 193.069 101.36V101.915C193.072 102.548 192.947 103.027 192.694 103.35C192.441 103.673 192.021 103.835 191.434 103.835C191.151 103.835 190.872 103.768 190.599 103.635C190.326 103.505 190.116 103.29 189.969 102.99L189.304 103.36C189.534 103.78 189.842 104.083 190.229 104.27C190.619 104.457 191.021 104.55 191.434 104.55C192.094 104.55 192.621 104.407 193.014 104.12C193.407 103.833 193.652 103.388 193.749 102.785C193.772 102.648 193.787 102.508 193.794 102.365C193.804 102.225 193.809 102.078 193.809 101.925V96.6H193.154V97.345C192.957 97.065 192.707 96.8467 192.404 96.69C192.104 96.53 191.754 96.45 191.354 96.45C190.861 96.45 190.437 96.575 190.084 96.825C189.731 97.075 189.459 97.415 189.269 97.845C189.082 98.275 188.989 98.7583 188.989 99.295C188.989 99.835 189.082 100.32 189.269 100.75C189.459 101.18 189.732 101.522 190.089 101.775C190.449 102.025 190.881 102.15 191.384 102.15ZM191.459 101.465C191.086 101.465 190.772 101.37 190.519 101.18C190.269 100.987 190.081 100.727 189.954 100.4C189.831 100.073 189.769 99.705 189.769 99.295C189.769 98.8883 189.831 98.5217 189.954 98.195C190.077 97.8683 190.264 97.61 190.514 97.42C190.767 97.23 191.087 97.135 191.474 97.135C192.037 97.135 192.457 97.3367 192.734 97.74C193.014 98.14 193.154 98.6583 193.154 99.295C193.154 99.7117 193.092 100.083 192.969 100.41C192.846 100.737 192.659 100.995 192.409 101.185C192.159 101.372 191.842 101.465 191.459 101.465ZM158.821 118H159.556V111.505H162.071V110.8H156.306V111.505H158.821V118ZM164.327 118.15C164.86 118.15 165.317 118.03 165.697 117.79C166.08 117.55 166.374 117.217 166.577 116.79C166.784 116.36 166.887 115.862 166.887 115.295C166.887 114.738 166.785 114.247 166.582 113.82C166.382 113.39 166.09 113.055 165.707 112.815C165.327 112.572 164.867 112.45 164.327 112.45C163.8 112.45 163.345 112.57 162.962 112.81C162.582 113.047 162.289 113.378 162.082 113.805C161.875 114.232 161.772 114.728 161.772 115.295C161.772 115.852 161.872 116.345 162.072 116.775C162.275 117.205 162.567 117.542 162.947 117.785C163.33 118.028 163.79 118.15 164.327 118.15ZM164.327 117.445C163.744 117.445 163.302 117.25 163.002 116.86C162.702 116.467 162.552 115.945 162.552 115.295C162.552 114.665 162.697 114.152 162.987 113.755C163.277 113.355 163.724 113.155 164.327 113.155C164.924 113.155 165.369 113.35 165.662 113.74C165.959 114.127 166.107 114.645 166.107 115.295C166.107 115.932 165.96 116.45 165.667 116.85C165.374 117.247 164.927 117.445 164.327 117.445ZM167.985 118H168.73V115.4L171.38 118H172.45L169.59 115.3L172.12 112.6H171.14L168.73 115.2V110.8H167.99L167.985 118ZM175.138 118.15C175.662 118.15 176.13 118.022 176.543 117.765C176.96 117.508 177.275 117.143 177.488 116.67L176.803 116.405C176.46 117.098 175.895 117.445 175.108 117.445C174.568 117.445 174.145 117.277 173.838 116.94C173.535 116.603 173.368 116.125 173.338 115.505H177.593C177.62 114.552 177.412 113.805 176.968 113.265C176.528 112.722 175.908 112.45 175.108 112.45C174.588 112.45 174.137 112.567 173.753 112.8C173.373 113.033 173.078 113.365 172.868 113.795C172.658 114.225 172.553 114.735 172.553 115.325C172.553 115.895 172.658 116.392 172.868 116.815C173.082 117.238 173.382 117.567 173.768 117.8C174.158 118.033 174.615 118.15 175.138 118.15ZM175.128 113.125C176.145 113.125 176.71 113.713 176.823 114.89H173.353C173.41 114.32 173.59 113.883 173.893 113.58C174.197 113.277 174.608 113.125 175.128 113.125ZM178.551 118H179.291V115.12C179.291 114.51 179.428 114.032 179.701 113.685C179.975 113.338 180.371 113.165 180.891 113.165C181.268 113.165 181.571 113.257 181.801 113.44C182.031 113.62 182.198 113.867 182.301 114.18C182.405 114.493 182.456 114.848 182.456 115.245V118H183.196V115.03C183.196 114.727 183.158 114.423 183.081 114.12C183.008 113.817 182.888 113.54 182.721 113.29C182.555 113.04 182.333 112.84 182.056 112.69C181.78 112.54 181.438 112.465 181.031 112.465C180.645 112.465 180.295 112.54 179.981 112.69C179.671 112.837 179.416 113.057 179.216 113.35V112.6H178.551V118Z" fill="white"></path> <path d="M337 129C336.448 129 336 129.448 336 130C336 130.552 336.448 131 337 131V129ZM417 130L407 124.226V135.774L417 130ZM337 131H408V129H337V131Z" fill="url(#paint3_linear)" fill-opacity="0.9"></path> <path d="M357.421 102H360.431C361.067 102 361.581 101.82 361.971 101.46C362.361 101.097 362.556 100.603 362.556 99.98C362.556 99.5633 362.449 99.2 362.236 98.89C362.026 98.58 361.734 98.3433 361.361 98.18C361.621 98.03 361.826 97.8217 361.976 97.555C362.129 97.285 362.206 96.985 362.206 96.655C362.206 96.315 362.122 96.005 361.956 95.725C361.789 95.4417 361.556 95.2167 361.256 95.05C360.956 94.8833 360.604 94.8 360.201 94.8H357.421V102ZM358.161 97.87V95.495H360.196C360.559 95.495 360.857 95.6017 361.091 95.815C361.327 96.0283 361.446 96.305 361.446 96.645C361.446 97.005 361.324 97.3 361.081 97.53C360.837 97.7567 360.542 97.87 360.196 97.87H358.161ZM358.161 101.295V98.565H360.386C360.656 98.565 360.897 98.6283 361.111 98.755C361.324 98.8817 361.491 99.0533 361.611 99.27C361.734 99.4833 361.796 99.7233 361.796 99.99C361.796 100.4 361.647 100.72 361.351 100.95C361.054 101.18 360.687 101.295 360.251 101.295H358.161ZM365.809 102.15C366.342 102.15 366.799 102.03 367.179 101.79C367.562 101.55 367.855 101.217 368.059 100.79C368.265 100.36 368.369 99.8617 368.369 99.295C368.369 98.7383 368.267 98.2467 368.064 97.82C367.864 97.39 367.572 97.055 367.189 96.815C366.809 96.5717 366.349 96.45 365.809 96.45C365.282 96.45 364.827 96.57 364.444 96.81C364.064 97.0467 363.77 97.3783 363.564 97.805C363.357 98.2317 363.254 98.7283 363.254 99.295C363.254 99.8517 363.354 100.345 363.554 100.775C363.757 101.205 364.049 101.542 364.429 101.785C364.812 102.028 365.272 102.15 365.809 102.15ZM365.809 101.445C365.225 101.445 364.784 101.25 364.484 100.86C364.184 100.467 364.034 99.945 364.034 99.295C364.034 98.665 364.179 98.1517 364.469 97.755C364.759 97.355 365.205 97.155 365.809 97.155C366.405 97.155 366.85 97.35 367.144 97.74C367.44 98.1267 367.589 98.645 367.589 99.295C367.589 99.9317 367.442 100.45 367.149 100.85C366.855 101.247 366.409 101.445 365.809 101.445ZM369.471 102H370.206V99.305C370.206 98.9817 370.243 98.66 370.316 98.34C370.393 98.0167 370.566 97.7483 370.836 97.535C371.033 97.375 371.246 97.2833 371.476 97.26C371.71 97.2333 371.926 97.2433 372.126 97.29V96.6C371.89 96.54 371.621 96.5383 371.321 96.595C371.021 96.6483 370.765 96.7683 370.551 96.955C370.391 97.075 370.251 97.2417 370.131 97.455V96.6H369.471V102ZM373.075 102H373.81V99.305C373.81 98.9817 373.847 98.66 373.92 98.34C373.997 98.0167 374.17 97.7483 374.44 97.535C374.637 97.375 374.85 97.2833 375.08 97.26C375.313 97.2333 375.53 97.2433 375.73 97.29V96.6C375.493 96.54 375.225 96.5383 374.925 96.595C374.625 96.6483 374.368 96.7683 374.155 96.955C373.995 97.075 373.855 97.2417 373.735 97.455V96.6H373.075V102ZM378.836 102.15C379.369 102.15 379.826 102.03 380.206 101.79C380.589 101.55 380.883 101.217 381.086 100.79C381.293 100.36 381.396 99.8617 381.396 99.295C381.396 98.7383 381.294 98.2467 381.091 97.82C380.891 97.39 380.599 97.055 380.216 96.815C379.836 96.5717 379.376 96.45 378.836 96.45C378.309 96.45 377.854 96.57 377.471 96.81C377.091 97.0467 376.798 97.3783 376.591 97.805C376.384 98.2317 376.281 98.7283 376.281 99.295C376.281 99.8517 376.381 100.345 376.581 100.775C376.784 101.205 377.076 101.542 377.456 101.785C377.839 102.028 378.299 102.15 378.836 102.15ZM378.836 101.445C378.253 101.445 377.811 101.25 377.511 100.86C377.211 100.467 377.061 99.945 377.061 99.295C377.061 98.665 377.206 98.1517 377.496 97.755C377.786 97.355 378.233 97.155 378.836 97.155C379.433 97.155 379.878 97.35 380.171 97.74C380.468 98.1267 380.616 98.645 380.616 99.295C380.616 99.9317 380.469 100.45 380.176 100.85C379.883 101.247 379.436 101.445 378.836 101.445ZM383.454 102H384.094L385.439 97.7L386.789 102H387.429L389.079 96.6H388.349L387.059 100.795L385.774 96.6H385.104L383.819 100.795L382.539 96.6L381.804 96.595L383.454 102ZM361.821 118H362.556V111.505H365.071V110.8H359.306V111.505H361.821V118ZM367.327 118.15C367.86 118.15 368.317 118.03 368.697 117.79C369.08 117.55 369.374 117.217 369.577 116.79C369.784 116.36 369.887 115.862 369.887 115.295C369.887 114.738 369.785 114.247 369.582 113.82C369.382 113.39 369.09 113.055 368.707 112.815C368.327 112.572 367.867 112.45 367.327 112.45C366.8 112.45 366.345 112.57 365.962 112.81C365.582 113.047 365.289 113.378 365.082 113.805C364.875 114.232 364.772 114.728 364.772 115.295C364.772 115.852 364.872 116.345 365.072 116.775C365.275 117.205 365.567 117.542 365.947 117.785C366.33 118.028 366.79 118.15 367.327 118.15ZM367.327 117.445C366.744 117.445 366.302 117.25 366.002 116.86C365.702 116.467 365.552 115.945 365.552 115.295C365.552 114.665 365.697 114.152 365.987 113.755C366.277 113.355 366.724 113.155 367.327 113.155C367.924 113.155 368.369 113.35 368.662 113.74C368.959 114.127 369.107 114.645 369.107 115.295C369.107 115.932 368.96 116.45 368.667 116.85C368.374 117.247 367.927 117.445 367.327 117.445ZM370.985 118H371.73V115.4L374.38 118H375.45L372.59 115.3L375.12 112.6H374.14L371.73 115.2V110.8H370.99L370.985 118ZM378.138 118.15C378.662 118.15 379.13 118.022 379.543 117.765C379.96 117.508 380.275 117.143 380.488 116.67L379.803 116.405C379.46 117.098 378.895 117.445 378.108 117.445C377.568 117.445 377.145 117.277 376.838 116.94C376.535 116.603 376.368 116.125 376.338 115.505H380.593C380.62 114.552 380.412 113.805 379.968 113.265C379.528 112.722 378.908 112.45 378.108 112.45C377.588 112.45 377.137 112.567 376.753 112.8C376.373 113.033 376.078 113.365 375.868 113.795C375.658 114.225 375.553 114.735 375.553 115.325C375.553 115.895 375.658 116.392 375.868 116.815C376.082 117.238 376.382 117.567 376.768 117.8C377.158 118.033 377.615 118.15 378.138 118.15ZM378.128 113.125C379.145 113.125 379.71 113.713 379.823 114.89H376.353C376.41 114.32 376.59 113.883 376.893 113.58C377.197 113.277 377.608 113.125 378.128 113.125ZM381.551 118H382.291V115.12C382.291 114.51 382.428 114.032 382.701 113.685C382.975 113.338 383.371 113.165 383.891 113.165C384.268 113.165 384.571 113.257 384.801 113.44C385.031 113.62 385.198 113.867 385.301 114.18C385.405 114.493 385.456 114.848 385.456 115.245V118H386.196V115.03C386.196 114.727 386.158 114.423 386.081 114.12C386.008 113.817 385.888 113.54 385.721 113.29C385.555 113.04 385.333 112.84 385.056 112.69C384.78 112.54 384.438 112.465 384.031 112.465C383.645 112.465 383.295 112.54 382.981 112.69C382.671 112.837 382.416 113.057 382.216 113.35V112.6H381.551V118Z" fill="white"></path> <rect x="28.2" y="82.2" width="95.6" height="95.6" rx="3.8" fill="#282726" stroke="url(#paint4_linear)" stroke-width="0.4"></rect> <path d="M64.1317 135H65.9377L68.7457 126.36H67.4437L65.0197 133.734L62.6257 126.36H61.3237L64.1317 135ZM70.9415 135.18C71.9735 135.18 72.7515 134.806 73.2755 134.058V135H74.3855V131.01C74.3855 130.738 74.3735 130.484 74.3495 130.248C74.3255 130.012 74.2615 129.788 74.1575 129.576C73.9575 129.148 73.6415 128.836 73.2095 128.64C72.7815 128.44 72.2775 128.34 71.6975 128.34C70.9495 128.34 70.3495 128.504 69.8975 128.832C69.4455 129.16 69.1415 129.602 68.9855 130.158L70.1555 130.518C70.2675 130.158 70.4655 129.898 70.7495 129.738C71.0335 129.578 71.3455 129.498 71.6855 129.498C72.1895 129.498 72.5535 129.606 72.7775 129.822C73.0055 130.034 73.1295 130.364 73.1495 130.812C72.6215 130.884 72.1055 130.96 71.6015 131.04C71.0975 131.116 70.6575 131.208 70.2815 131.316C69.7815 131.476 69.4015 131.714 69.1415 132.03C68.8815 132.346 68.7515 132.748 68.7515 133.236C68.7515 133.588 68.8335 133.912 68.9975 134.208C69.1655 134.5 69.4115 134.736 69.7355 134.916C70.0635 135.092 70.4655 135.18 70.9415 135.18ZM71.1635 134.154C70.7635 134.154 70.4675 134.062 70.2755 133.878C70.0875 133.694 69.9935 133.476 69.9935 133.224C69.9935 132.968 70.0775 132.766 70.2455 132.618C70.4175 132.47 70.6315 132.352 70.8875 132.264C71.1595 132.184 71.4795 132.114 71.8475 132.054C72.2195 131.994 72.6495 131.928 73.1375 131.856C73.1335 132.008 73.1235 132.178 73.1075 132.366C73.0915 132.554 73.0575 132.722 73.0055 132.87C72.9575 133.082 72.8555 133.286 72.6995 133.482C72.5475 133.678 72.3415 133.84 72.0815 133.968C71.8255 134.092 71.5195 134.154 71.1635 134.154ZM78.3855 135.174C78.8535 135.174 79.2675 135.09 79.6275 134.922C79.9915 134.754 80.2915 134.522 80.5275 134.226V135H81.6435V128.52H80.3775V131.892C80.3775 132.404 80.3035 132.814 80.1555 133.122C80.0075 133.426 79.8075 133.646 79.5555 133.782C79.3075 133.918 79.0335 133.986 78.7335 133.986C78.3895 133.986 78.1095 133.916 77.8935 133.776C77.6775 133.636 77.5115 133.452 77.3955 133.224C77.2795 132.996 77.1995 132.75 77.1555 132.486C77.1155 132.218 77.0955 131.958 77.0955 131.706V128.52H75.8235V132.12C75.8235 132.32 75.8415 132.552 75.8775 132.816C75.9135 133.08 75.9815 133.35 76.0815 133.626C76.1815 133.902 76.3255 134.158 76.5135 134.394C76.7055 134.626 76.9535 134.814 77.2575 134.958C77.5615 135.102 77.9375 135.174 78.3855 135.174ZM83.4463 135H84.7003V126.18H83.4463V135ZM90.2101 135V133.938C89.7861 134.002 89.4161 134.016 89.1001 133.98C88.7881 133.94 88.5601 133.798 88.4161 133.554C88.3401 133.422 88.2981 133.26 88.2901 133.068C88.2861 132.876 88.2841 132.65 88.2841 132.39V129.528H90.2101V128.52H88.2841V126.72H87.0241V128.52H85.7821V129.528H87.0241V132.45C87.0241 132.802 87.0281 133.118 87.0361 133.398C87.0481 133.674 87.1241 133.946 87.2641 134.214C87.4241 134.514 87.6581 134.734 87.9661 134.874C88.2741 135.014 88.6241 135.09 89.0161 135.102C89.4081 135.114 89.8061 135.08 90.2101 135Z" fill="white"></path> <path d="M459.117 135H459.852V132.265H461.897C461.964 132.265 462.042 132.262 462.132 132.255C462.222 132.248 462.312 132.238 462.402 132.225C462.962 132.138 463.394 131.892 463.697 131.485C464.004 131.078 464.157 130.595 464.157 130.035C464.157 129.472 464.005 128.987 463.702 128.58C463.399 128.173 462.965 127.927 462.402 127.84C462.312 127.823 462.222 127.813 462.132 127.81C462.045 127.803 461.967 127.8 461.897 127.8H459.117V135ZM459.852 131.565V128.505H461.877C461.937 128.505 462.007 128.508 462.087 128.515C462.17 128.518 462.249 128.528 462.322 128.545C462.692 128.625 462.964 128.81 463.137 129.1C463.314 129.387 463.402 129.698 463.402 130.035C463.402 130.368 463.314 130.68 463.137 130.97C462.964 131.26 462.692 131.443 462.322 131.52C462.249 131.537 462.17 131.548 462.087 131.555C462.007 131.562 461.937 131.565 461.877 131.565H459.852ZM467.368 135.15C467.901 135.15 468.358 135.03 468.738 134.79C469.121 134.55 469.415 134.217 469.618 133.79C469.825 133.36 469.928 132.862 469.928 132.295C469.928 131.738 469.826 131.247 469.623 130.82C469.423 130.39 469.131 130.055 468.748 129.815C468.368 129.572 467.908 129.45 467.368 129.45C466.841 129.45 466.386 129.57 466.003 129.81C465.623 130.047 465.33 130.378 465.123 130.805C464.916 131.232 464.813 131.728 464.813 132.295C464.813 132.852 464.913 133.345 465.113 133.775C465.316 134.205 465.608 134.542 465.988 134.785C466.371 135.028 466.831 135.15 467.368 135.15ZM467.368 134.445C466.785 134.445 466.343 134.25 466.043 133.86C465.743 133.467 465.593 132.945 465.593 132.295C465.593 131.665 465.738 131.152 466.028 130.755C466.318 130.355 466.765 130.155 467.368 130.155C467.965 130.155 468.41 130.35 468.703 130.74C469 131.127 469.148 131.645 469.148 132.295C469.148 132.932 469.001 133.45 468.708 133.85C468.415 134.247 467.968 134.445 467.368 134.445ZM473.286 135.15C473.819 135.15 474.276 135.03 474.656 134.79C475.039 134.55 475.333 134.217 475.536 133.79C475.743 133.36 475.846 132.862 475.846 132.295C475.846 131.738 475.744 131.247 475.541 130.82C475.341 130.39 475.049 130.055 474.666 129.815C474.286 129.572 473.826 129.45 473.286 129.45C472.759 129.45 472.304 129.57 471.921 129.81C471.541 130.047 471.248 130.378 471.041 130.805C470.834 131.232 470.731 131.728 470.731 132.295C470.731 132.852 470.831 133.345 471.031 133.775C471.234 134.205 471.526 134.542 471.906 134.785C472.289 135.028 472.749 135.15 473.286 135.15ZM473.286 134.445C472.703 134.445 472.261 134.25 471.961 133.86C471.661 133.467 471.511 132.945 471.511 132.295C471.511 131.665 471.656 131.152 471.946 130.755C472.236 130.355 472.683 130.155 473.286 130.155C473.883 130.155 474.328 130.35 474.621 130.74C474.918 131.127 475.066 131.645 475.066 132.295C475.066 132.932 474.919 133.45 474.626 133.85C474.333 134.247 473.886 134.445 473.286 134.445ZM477.049 135H477.784V127.65H477.049V135Z" fill="white"></path> <circle cx="469" cy="130" r="41.5" stroke="#13CDF9"></circle> <defs> <linearGradient id="paint0_linear" x1="224" y1="61" x2="270.393" y2="71.3165" gradientUnits="userSpaceOnUse"> <stop stop-color="#FBF9E9"></stop> <stop offset="1" stop-color="#6C2E49"></stop> </linearGradient> <linearGradient id="paint1_linear" x1="327" y1="61" x2="280.607" y2="71.3165" gradientUnits="userSpaceOnUse"> <stop stop-color="#FBF9E9"></stop> <stop offset="1" stop-color="#6C2E49"></stop> </linearGradient> <linearGradient id="paint2_linear" x1="134" y1="130" x2="214.001" y2="130.126" gradientUnits="userSpaceOnUse"> <stop stop-color="#13CDF9"></stop> <stop offset="1" stop-color="#F78774"></stop> </linearGradient> <linearGradient id="paint3_linear" x1="337" y1="130" x2="417.001" y2="130.126" gradientUnits="userSpaceOnUse"> <stop stop-color="#13CDF9"></stop> <stop offset="1" stop-color="#F78774"></stop> </linearGradient> <linearGradient id="paint4_linear" x1="28" y1="82" x2="94.4699" y2="195.321" gradientUnits="userSpaceOnUse"> <stop stop-color="#857370"></stop> <stop offset="1" stop-color="#563440"></stop> </linearGradient> </defs> </svg> 