<?xml version="1.0" encoding="UTF-8"?> <!-- Generator: Adobe Illustrator 24.1.2, SVG Export Plug-In . SVG Version: 6.00 Build 0) --> <svg xmlns="http://www.w3.org/2000/svg" xmlns:xlink="http://www.w3.org/1999/xlink" id="Слой_1" x="0px" y="0px" viewBox="0 0 337 280" style="enable-background:new 0 0 337 280;" xml:space="preserve"> <style type="text/css"> .st0{fill:url(#SVGID_1_);fill-opacity:0.9;} .st1{fill:url(#SVGID_2_);fill-opacity:0.9;} .st2{fill:#FFFFFF;} .st3{fill:url(#SVGID_3_);fill-opacity:0.9;} .st4{fill:url(#SVGID_4_);fill-opacity:0.9;} .st5{fill:#282726;} .st6{fill:none;stroke:url(#SVGID_5_);stroke-width:0.4;} .st7{fill:none;stroke:url(#SVGID_6_);stroke-width:0.4;} .st8{fill:#6C2E49;} .st9{fill:#89586D;} </style> <linearGradient id="SVGID_1_" gradientUnits="userSpaceOnUse" x1="250.6442" y1="69.4222" x2="69.9639" y2="68.7773" gradientTransform="matrix(1 0 0 -1 0 282)"> <stop offset="0" style="stop-color:#13CDF9"></stop> <stop offset="1" style="stop-color:#F78774"></stop> </linearGradient> <path class="st0" d="M206,212c0.6,0,1,0.4,1,1s-0.4,1-1,1V212z M125.3,213.7c-0.4-0.4-0.4-1,0-1.4l6.4-6.4c0.4-0.4,1-0.4,1.4,0 c0.4,0.4,0.4,1,0,1.4l-5.7,5.7l5.7,5.7c0.4,0.4,0.4,1,0,1.4c-0.4,0.4-1,0.4-1.4,0L125.3,213.7z M206,214h-80v-2h80V214z"></path> <linearGradient id="SVGID_2_" gradientUnits="userSpaceOnUse" x1="270.0196" y1="164" x2="269.9956" y2="128.999" gradientTransform="matrix(1 0 0 -1 0 282)"> <stop offset="0" style="stop-color:#13CDF9"></stop> <stop offset="1" style="stop-color:#F78774"></stop> </linearGradient> <path class="st1" d="M271,118c0-0.6-0.4-1-1-1s-1,0.4-1,1H271z M269.3,153.7c0.4,0.4,1,0.4,1.4,0l6.4-6.4c0.4-0.4,0.4-1,0-1.4 c-0.4-0.4-1-0.4-1.4,0l-5.7,5.7l-5.7-5.7c-0.4-0.4-1-0.4-1.4,0c-0.4,0.4-0.4,1,0,1.4L269.3,153.7z M269,118v35h2v-35H269z"></path> <path class="st2" d="M151.7,200h0.7v-3.3h4v3.3h0.7v-7.2h-0.7v3.2h-4v-3.2h-0.7V200z M160.8,200.1c0.5,0,1-0.1,1.4-0.4 c0.4-0.2,0.7-0.6,0.9-1c0.2-0.4,0.3-0.9,0.3-1.5c0-0.6-0.1-1-0.3-1.5c-0.2-0.4-0.5-0.8-0.9-1c-0.4-0.2-0.8-0.4-1.4-0.4 c-0.5,0-1,0.1-1.4,0.4c-0.4,0.2-0.7,0.6-0.9,1c-0.2,0.4-0.3,0.9-0.3,1.5c0,0.6,0.1,1.1,0.3,1.5c0.2,0.4,0.5,0.8,0.9,1 C159.8,200,160.3,200.1,160.8,200.1z M160.8,199.4c-0.6,0-1-0.2-1.3-0.6c-0.3-0.4-0.4-0.9-0.4-1.6c0-0.6,0.1-1.1,0.4-1.5 c0.3-0.4,0.7-0.6,1.3-0.6c0.6,0,1,0.2,1.3,0.6c0.3,0.4,0.4,0.9,0.4,1.6c0,0.6-0.1,1.2-0.4,1.6C161.8,199.2,161.4,199.4,160.8,199.4z M164.6,200h0.7v-7.4h-0.7V200z M168.9,200.1c0.4,0,0.7-0.1,1-0.2c0.3-0.2,0.5-0.4,0.7-0.7v0.8h0.7v-7.2h-0.7v2.4 c-0.2-0.2-0.4-0.4-0.7-0.6c-0.3-0.1-0.6-0.2-1-0.2c-0.5,0-0.9,0.1-1.3,0.4c-0.4,0.3-0.6,0.6-0.8,1c-0.2,0.4-0.3,0.9-0.3,1.4 c0,0.5,0.1,1,0.3,1.5c0.2,0.4,0.5,0.8,0.8,1C168,200,168.4,200.1,168.9,200.1z M169,199.5c-0.4,0-0.7-0.1-0.9-0.3 c-0.3-0.2-0.4-0.5-0.6-0.8c-0.1-0.3-0.2-0.7-0.2-1.1c0-0.4,0.1-0.8,0.2-1.1c0.1-0.3,0.3-0.6,0.6-0.8c0.3-0.2,0.6-0.3,1-0.3 c0.6,0,1,0.2,1.3,0.6c0.3,0.4,0.4,0.9,0.4,1.6c0,0.4-0.1,0.8-0.2,1.1c-0.1,0.3-0.3,0.6-0.6,0.8C169.7,199.4,169.4,199.5,169,199.5z M176.4,196.3c0.3,0,0.6-0.1,0.9-0.2c0.3-0.2,0.5-0.4,0.7-0.6c0.2-0.3,0.2-0.6,0.2-0.9c0-0.3-0.1-0.6-0.2-0.9 c-0.2-0.3-0.4-0.5-0.7-0.6c-0.3-0.2-0.6-0.2-0.9-0.2c-0.3,0-0.6,0.1-0.9,0.2c-0.3,0.2-0.5,0.4-0.7,0.7c-0.2,0.3-0.3,0.6-0.3,0.9 c0,0.3,0.1,0.6,0.2,0.9c0.2,0.3,0.4,0.5,0.7,0.6C175.8,196.2,176.1,196.3,176.4,196.3z M175.4,200l6.7-6.7l-0.5-0.5l-6.7,6.7 L175.4,200z M176.4,195.6c-0.2,0-0.4-0.1-0.6-0.2c-0.2-0.1-0.3-0.2-0.4-0.4c-0.1-0.2-0.2-0.4-0.2-0.6c0-0.2,0.1-0.4,0.2-0.6 c0.1-0.2,0.2-0.3,0.4-0.4c0.2-0.1,0.4-0.2,0.6-0.2c0.2,0,0.4,0.1,0.6,0.2c0.2,0.1,0.3,0.2,0.4,0.4c0.1,0.2,0.2,0.4,0.2,0.6 c0,0.2-0.1,0.4-0.2,0.6c-0.1,0.2-0.2,0.3-0.4,0.4C176.8,195.5,176.6,195.6,176.4,195.6z M180.6,200.1c0.3,0,0.6-0.1,0.9-0.2 c0.3-0.2,0.5-0.4,0.7-0.7c0.2-0.3,0.2-0.6,0.2-0.9c0-0.3-0.1-0.6-0.2-0.9c-0.2-0.3-0.4-0.5-0.7-0.7c-0.3-0.2-0.6-0.2-0.9-0.2 c-0.3,0-0.6,0.1-0.9,0.2c-0.3,0.2-0.5,0.4-0.7,0.7c-0.2,0.3-0.3,0.6-0.3,0.9c0,0.3,0.1,0.6,0.2,0.9c0.2,0.3,0.4,0.5,0.7,0.7 C180,200.1,180.3,200.1,180.6,200.1z M180.6,199.5c-0.2,0-0.4-0.1-0.6-0.2c-0.2-0.1-0.3-0.2-0.4-0.4c-0.1-0.2-0.2-0.4-0.2-0.6 c0-0.2,0.1-0.4,0.2-0.6c0.1-0.2,0.2-0.3,0.4-0.4c0.2-0.1,0.4-0.2,0.6-0.2c0.2,0,0.4,0.1,0.6,0.2c0.2,0.1,0.3,0.2,0.4,0.4 c0.1,0.2,0.2,0.4,0.2,0.6c0,0.2-0.1,0.4-0.2,0.6c-0.1,0.2-0.2,0.3-0.4,0.4C181,199.4,180.8,199.5,180.6,199.5z"></path> <linearGradient id="SVGID_3_" gradientUnits="userSpaceOnUse" x1="248.6217" y1="87.6039" x2="91.8259" y2="177.3856" gradientTransform="matrix(1 0 0 -1 0 282)"> <stop offset="0" style="stop-color:#13CDF9"></stop> <stop offset="1" style="stop-color:#F78774"></stop> </linearGradient> <path class="st3" d="M213,173.3c0.5,0.3,0.6,0.9,0.4,1.4c-0.3,0.5-0.9,0.6-1.4,0.4L213,173.3z M125.1,124.4 c-0.1-0.5,0.2-1.1,0.7-1.2l8.7-2.3c0.5-0.1,1.1,0.2,1.2,0.7c0.1,0.5-0.2,1.1-0.7,1.2l-7.7,2.1l2.1,7.7c0.1,0.5-0.2,1.1-0.7,1.2 c-0.5,0.1-1.1-0.2-1.2-0.7L125.1,124.4z M212,175l-86.5-50l1-1.7l86.5,50L212,175z"></path> <path class="st2" d="M161.8,128.7l0.6,0.4l1.6-2.8l3.4,2l-1.6,2.8l0.6,0.4l3.6-6.2l-0.6-0.4l-1.6,2.8l-3.4-2l1.6-2.8l-0.6-0.4 L161.8,128.7z M169,133.1c0.8,0.5,1.6,0.5,2.3,0.1l-0.4,0.8l0.6,0.3l1.7-2.9c0.1-0.2,0.2-0.3,0.3-0.5c0.1-0.2,0.1-0.3,0.2-0.5 c0.1-0.4,0-0.7-0.2-1.1c-0.2-0.3-0.5-0.6-0.9-0.9c-0.5-0.3-1-0.4-1.5-0.4c-0.5,0-0.9,0.2-1.2,0.6l0.5,0.5c0.3-0.3,0.6-0.4,0.9-0.4 c0.3,0,0.6,0.1,0.9,0.3c0.4,0.3,0.7,0.5,0.8,0.9c0.1,0.3,0,0.7-0.2,1.1c-0.2-0.1-0.5-0.2-0.7-0.3c-0.3-0.1-0.5-0.2-0.8-0.3 c-0.3-0.1-0.5-0.2-0.8-0.3c-0.4-0.1-0.8-0.1-1.1,0c-0.3,0.1-0.6,0.3-0.9,0.7c-0.1,0.2-0.2,0.5-0.2,0.8c0,0.3,0.1,0.6,0.2,0.8 C168.3,132.6,168.6,132.9,169,133.1z M169.4,132.6c-0.3-0.1-0.4-0.3-0.5-0.5c-0.1-0.2-0.2-0.3-0.1-0.5c0-0.2,0.1-0.3,0.1-0.5 c0.1-0.3,0.3-0.4,0.6-0.4c0.2,0,0.5,0,0.7,0c0.3,0.1,0.6,0.2,1,0.3c0.4,0.2,0.7,0.3,1,0.4c-0.1,0.1-0.1,0.2-0.2,0.4 c-0.1,0.1-0.2,0.2-0.3,0.3c-0.3,0.3-0.6,0.5-1,0.6C170.2,132.9,169.8,132.8,169.4,132.6z M172.5,134.9l0.6,0.4l1.3-2.3 c0.2-0.3,0.4-0.5,0.6-0.8c0.2-0.2,0.5-0.4,0.9-0.4c0.3,0,0.5,0,0.7,0.1c0.2,0.1,0.4,0.2,0.5,0.4l0.3-0.6c-0.2-0.2-0.4-0.3-0.7-0.4 c-0.3-0.1-0.6-0.1-0.8-0.1c-0.2,0-0.4,0.1-0.6,0.2l0.4-0.7l-0.6-0.3L172.5,134.9z M176.9,137.5l0.7,0.4l4.4-3.7l-0.7-0.4l-3.6,3.1 l0.8-4.6l-0.6-0.4L176.9,137.5z M181.8,140.5c0.5,0.3,0.9,0.4,1.4,0.4c0.5,0,0.9-0.2,1.4-0.5l-0.5-0.6c-0.6,0.4-1.3,0.4-2,0.1 c-0.5-0.3-0.8-0.6-0.8-1.1c-0.1-0.4,0-0.9,0.3-1.5l3.7,2.1c0.5-0.8,0.7-1.6,0.6-2.3c-0.1-0.7-0.5-1.2-1.2-1.6 c-0.5-0.3-0.9-0.4-1.3-0.4c-0.4,0-0.9,0.2-1.3,0.4c-0.4,0.3-0.7,0.7-1,1.2c-0.3,0.5-0.4,1-0.5,1.4c0,0.5,0.1,0.9,0.3,1.3 C181,139.9,181.3,140.2,181.8,140.5z M184.3,136.1c0.9,0.5,1.1,1.3,0.6,2.4l-3-1.7c0.3-0.5,0.7-0.8,1.1-0.9 C183.4,135.8,183.8,135.8,184.3,136.1z M186.6,143.2c0.6,0.3,1.1,0.5,1.6,0.4c0.5-0.1,0.8-0.3,1.1-0.8c0.1-0.2,0.2-0.5,0.2-0.7 c0-0.2-0.1-0.5-0.3-0.7c-0.2-0.3-0.4-0.6-0.8-0.9c-0.3-0.3-0.5-0.6-0.7-0.7c-0.2-0.2-0.2-0.4-0.3-0.5c0-0.1,0-0.3,0.1-0.4 c0.1-0.2,0.3-0.3,0.6-0.4c0.3,0,0.6,0.1,0.9,0.3c0.3,0.2,0.6,0.5,0.7,0.8c0.1,0.3,0.1,0.6,0,0.9l0.7,0.3c0.1-0.3,0.2-0.6,0.1-0.9 s-0.2-0.6-0.4-0.9c-0.2-0.3-0.5-0.5-0.8-0.7c-0.4-0.2-0.7-0.3-1-0.4c-0.3,0-0.6,0-0.9,0.1c-0.3,0.1-0.5,0.3-0.6,0.6 c-0.1,0.2-0.2,0.4-0.2,0.6c0,0.2,0.1,0.4,0.3,0.7c0.2,0.3,0.4,0.6,0.8,0.9c0.3,0.3,0.6,0.6,0.7,0.8c0.2,0.2,0.2,0.4,0.3,0.5 c0,0.1,0,0.3-0.1,0.4c-0.1,0.3-0.4,0.4-0.7,0.4c-0.3,0-0.6-0.1-1-0.3c-0.4-0.2-0.6-0.5-0.8-0.8c-0.2-0.3-0.2-0.6-0.1-0.9l-0.7-0.3 c-0.2,0.5-0.1,0.9,0.1,1.4C185.7,142.5,186,142.9,186.6,143.2z M192,146.2l0.3-0.6c-0.4-0.1-0.7-0.3-0.9-0.5 c-0.2-0.2-0.3-0.4-0.3-0.6c0-0.1,0-0.3,0.1-0.4c0.1-0.1,0.2-0.3,0.3-0.5l1.4-2.4l1.4,0.8l0.3-0.5l-1.4-0.8l0.8-1.3l-0.6-0.4 l-0.8,1.3l-1-0.6l-0.3,0.5l1,0.6l-1.4,2.4c-0.1,0.2-0.2,0.4-0.3,0.6c-0.1,0.2-0.1,0.4-0.2,0.6c0,0.3,0,0.5,0.2,0.7 c0.1,0.2,0.3,0.4,0.6,0.6C191.5,146,191.7,146.1,192,146.2z M198,145.3c0.3,0.2,0.6,0.2,0.9,0.2c0.3,0,0.6-0.1,0.9-0.2 c0.3-0.2,0.5-0.4,0.7-0.7c0.2-0.3,0.2-0.6,0.2-0.9c0-0.3-0.1-0.6-0.2-0.9c-0.2-0.3-0.4-0.5-0.7-0.7c-0.3-0.2-0.6-0.2-0.9-0.2 c-0.3,0-0.6,0.1-0.9,0.2c-0.3,0.2-0.5,0.4-0.7,0.7c-0.2,0.3-0.2,0.6-0.2,0.9c0,0.3,0.1,0.6,0.2,0.9C197.5,145,197.7,145.2,198,145.3 z M195.3,148.1l9.2-2.4l-0.2-0.7l-9.2,2.4L195.3,148.1z M198.4,144.8c-0.2-0.1-0.3-0.2-0.4-0.4c-0.1-0.2-0.2-0.4-0.2-0.6 c0-0.2,0-0.4,0.1-0.6c0.1-0.2,0.2-0.3,0.4-0.4c0.2-0.1,0.4-0.1,0.6-0.2c0.2,0,0.4,0,0.6,0.1c0.2,0.1,0.3,0.2,0.4,0.4 c0.1,0.2,0.1,0.4,0.2,0.6c0,0.2,0,0.4-0.1,0.6c-0.1,0.2-0.2,0.3-0.4,0.4c-0.2,0.1-0.4,0.1-0.6,0.2 C198.7,144.9,198.5,144.9,198.4,144.8z M199.7,150.8c0.3,0.2,0.6,0.2,0.9,0.2c0.3,0,0.6-0.1,0.9-0.2c0.3-0.2,0.5-0.4,0.7-0.7 c0.2-0.3,0.2-0.6,0.2-0.9c0-0.3-0.1-0.6-0.2-0.9c-0.2-0.3-0.4-0.5-0.7-0.7c-0.3-0.2-0.6-0.2-0.9-0.2c-0.3,0-0.6,0.1-0.9,0.2 c-0.3,0.2-0.5,0.4-0.7,0.7c-0.2,0.3-0.2,0.6-0.2,0.9c0,0.3,0.1,0.6,0.2,0.9C199.2,150.4,199.4,150.7,199.7,150.8z M200.1,150.3 c-0.2-0.1-0.3-0.2-0.4-0.4c-0.1-0.2-0.1-0.4-0.2-0.6c0-0.2,0-0.4,0.1-0.6c0.1-0.2,0.2-0.3,0.4-0.4c0.2-0.1,0.4-0.1,0.6-0.2 c0.2,0,0.4,0,0.6,0.1c0.2,0.1,0.3,0.2,0.4,0.4c0.1,0.2,0.1,0.4,0.2,0.6c0,0.2,0,0.4-0.1,0.6c-0.1,0.2-0.2,0.3-0.4,0.4 c-0.2,0.1-0.4,0.1-0.6,0.2C200.4,150.4,200.2,150.4,200.1,150.3z"></path> <linearGradient id="SVGID_4_" gradientUnits="userSpaceOnUse" x1="126" y1="215.1003" x2="206.001" y2="214.9738" gradientTransform="matrix(1 0 0 -1 0 282)"> <stop offset="0" style="stop-color:#13CDF9"></stop> <stop offset="1" style="stop-color:#F78774"></stop> </linearGradient> <path class="st4" d="M126,66c-0.6,0-1,0.4-1,1s0.4,1,1,1V66z M206,67l-10-5.8v11.5L206,67z M126,68h71v-2h-71V68z"></path> <path class="st2" d="M152.7,39.2c0.8,0,1.5-0.2,2.1-0.6c0.5-0.4,0.9-1,1.1-1.7l-0.8-0.2c-0.2,0.6-0.4,1-0.8,1.4 c-0.4,0.3-0.9,0.5-1.6,0.5c-0.6,0-1-0.1-1.4-0.4c-0.4-0.3-0.7-0.6-0.9-1.1c-0.2-0.5-0.3-1-0.3-1.6c0-0.6,0.1-1.1,0.3-1.6 c0.2-0.5,0.5-0.8,0.8-1.1c0.4-0.3,0.8-0.4,1.4-0.4c0.6,0,1.2,0.2,1.6,0.5c0.4,0.3,0.7,0.8,0.8,1.3l0.8-0.2c-0.2-0.7-0.6-1.3-1.1-1.7 c-0.5-0.4-1.2-0.6-2.1-0.6c-0.7,0-1.3,0.2-1.8,0.5c-0.5,0.3-0.9,0.8-1.1,1.3c-0.3,0.6-0.4,1.2-0.4,2c0,0.7,0.1,1.4,0.4,2 c0.3,0.6,0.6,1,1.1,1.3C151.4,39,152,39.2,152.7,39.2z M157,39h0.7v-7.4H157V39z M160.8,39.2c0.9,0,1.6-0.3,2.1-1V39h0.7v-3.4 c0-0.2,0-0.4,0-0.6c0-0.2-0.1-0.4-0.1-0.5c-0.1-0.3-0.4-0.6-0.7-0.8c-0.3-0.2-0.8-0.3-1.3-0.3c-0.6,0-1.1,0.1-1.4,0.4 c-0.4,0.3-0.6,0.6-0.8,1.1l0.7,0.2c0.1-0.4,0.3-0.6,0.5-0.8c0.3-0.2,0.6-0.3,0.9-0.3c0.5,0,0.9,0.1,1.1,0.4c0.2,0.2,0.3,0.6,0.3,1.1 c-0.2,0-0.5,0.1-0.8,0.1c-0.3,0-0.6,0.1-0.9,0.1s-0.6,0.1-0.8,0.2c-0.4,0.1-0.7,0.3-1,0.5c-0.3,0.2-0.4,0.6-0.4,1 c0,0.3,0.1,0.6,0.2,0.8c0.1,0.2,0.3,0.4,0.6,0.6C160.1,39.1,160.4,39.2,160.8,39.2z M160.9,38.5c-0.3,0-0.5,0-0.7-0.1 c-0.2-0.1-0.3-0.2-0.4-0.4c-0.1-0.1-0.1-0.3-0.1-0.5c0-0.3,0.1-0.5,0.3-0.7c0.2-0.1,0.4-0.3,0.6-0.3c0.3-0.1,0.6-0.1,1-0.2 c0.4,0,0.8-0.1,1.1-0.1c0,0.1,0,0.3,0,0.4c0,0.2,0,0.3-0.1,0.4c-0.1,0.4-0.3,0.7-0.6,1C161.8,38.4,161.4,38.5,160.9,38.5z M164.9,32.6h0.7v-0.8h-0.7V32.6z M164.9,39h0.7v-5.4h-0.7V39z M167.1,39h0.7v-3.5c0-0.4,0.1-0.8,0.3-1c0.2-0.3,0.5-0.4,0.9-0.4 s0.7,0.1,0.9,0.4c0.2,0.2,0.3,0.6,0.3,1l0,3.5h0.7l0-3.5c0-0.3,0.1-0.6,0.2-0.8c0.1-0.2,0.3-0.4,0.5-0.5c0.2-0.1,0.4-0.1,0.6-0.1 c0.4,0,0.7,0.1,0.9,0.4c0.2,0.2,0.4,0.6,0.4,1l0,3.5h0.7l0-3.7c0-0.6-0.2-1-0.5-1.4c-0.3-0.3-0.8-0.5-1.3-0.5c-0.4,0-0.7,0.1-1,0.2 c-0.3,0.2-0.5,0.4-0.7,0.7c-0.1-0.3-0.4-0.5-0.6-0.7c-0.3-0.2-0.6-0.2-0.9-0.2c-0.3,0-0.6,0.1-0.9,0.2c-0.3,0.1-0.5,0.3-0.6,0.5 v-0.6h-0.7V39z M145.5,55h0.7v-2.7h2.3l1.3,2.7h0.8l-1.4-2.9c0.4-0.2,0.7-0.4,0.9-0.8s0.3-0.8,0.3-1.3c0-0.6-0.2-1-0.5-1.5 c-0.3-0.4-0.7-0.7-1.3-0.7c-0.1,0-0.2,0-0.3,0c-0.1,0-0.2,0-0.2,0h-2.8V55z M146.3,51.6v-3.1h2c0.1,0,0.1,0,0.2,0c0.1,0,0.2,0,0.2,0 c0.4,0.1,0.6,0.3,0.8,0.6c0.2,0.3,0.3,0.6,0.3,0.9c0,0.3-0.1,0.6-0.3,0.9c-0.2,0.3-0.4,0.5-0.8,0.5c-0.1,0-0.2,0-0.2,0 c-0.1,0-0.2,0-0.2,0H146.3z M154.1,55.2c0.5,0,1-0.1,1.4-0.4c0.4-0.3,0.7-0.6,0.9-1.1l-0.7-0.3c-0.3,0.7-0.9,1-1.7,1 c-0.5,0-1-0.2-1.3-0.5c-0.3-0.3-0.5-0.8-0.5-1.4h4.3c0-1-0.2-1.7-0.6-2.2c-0.4-0.5-1.1-0.8-1.9-0.8c-0.5,0-1,0.1-1.4,0.3 c-0.4,0.2-0.7,0.6-0.9,1c-0.2,0.4-0.3,0.9-0.3,1.5c0,0.6,0.1,1.1,0.3,1.5c0.2,0.4,0.5,0.8,0.9,1C153.2,55,153.6,55.2,154.1,55.2z M154.1,50.1c1,0,1.6,0.6,1.7,1.8h-3.5c0.1-0.6,0.2-1,0.5-1.3C153.2,50.3,153.6,50.1,154.1,50.1z M158.6,55h0.6l1.3-4.3L162,55h0.6 l1.6-5.4h-0.7l-1.3,4.2l-1.3-4.2h-0.7l-1.3,4.2l-1.3-4.2l-0.7,0L158.6,55z M166.4,55.2c0.9,0,1.6-0.3,2.1-1V55h0.7v-3.4 c0-0.2,0-0.4,0-0.6c0-0.2-0.1-0.4-0.1-0.5c-0.1-0.3-0.4-0.6-0.7-0.8c-0.3-0.2-0.8-0.3-1.3-0.3c-0.6,0-1.1,0.1-1.4,0.4 c-0.4,0.3-0.6,0.6-0.8,1.1l0.7,0.2c0.1-0.4,0.3-0.6,0.5-0.8c0.3-0.2,0.6-0.3,0.9-0.3c0.5,0,0.9,0.1,1.1,0.4c0.2,0.2,0.3,0.6,0.3,1.1 c-0.2,0-0.5,0.1-0.8,0.1c-0.3,0-0.6,0.1-0.9,0.1c-0.3,0-0.6,0.1-0.8,0.2c-0.4,0.1-0.7,0.3-1,0.5c-0.3,0.2-0.4,0.6-0.4,1 c0,0.3,0.1,0.6,0.2,0.8c0.1,0.2,0.3,0.4,0.6,0.6C165.7,55.1,166,55.2,166.4,55.2z M166.5,54.5c-0.3,0-0.5,0-0.7-0.1 c-0.2-0.1-0.3-0.2-0.4-0.4c-0.1-0.1-0.1-0.3-0.1-0.5c0-0.3,0.1-0.5,0.3-0.7c0.2-0.1,0.4-0.3,0.6-0.3c0.3-0.1,0.6-0.1,1-0.2 s0.8-0.1,1.1-0.1c0,0.1,0,0.3,0,0.4c0,0.2,0,0.3-0.1,0.4c-0.1,0.4-0.3,0.7-0.6,1C167.4,54.4,167,54.5,166.5,54.5z M170.4,55h0.7 v-2.7c0-0.3,0-0.6,0.1-1c0.1-0.3,0.3-0.6,0.5-0.8c0.2-0.2,0.4-0.3,0.6-0.3c0.2,0,0.4,0,0.6,0v-0.7c-0.2-0.1-0.5-0.1-0.8,0 c-0.3,0.1-0.6,0.2-0.8,0.4c-0.2,0.1-0.3,0.3-0.4,0.5v-0.9h-0.7V55z M176,55.2c0.4,0,0.7-0.1,1-0.2c0.3-0.2,0.5-0.4,0.7-0.7V55h0.7 v-7.2h-0.7v2.4c-0.2-0.2-0.4-0.4-0.7-0.6c-0.3-0.1-0.6-0.2-1-0.2c-0.5,0-0.9,0.1-1.3,0.4c-0.4,0.3-0.6,0.6-0.8,1 c-0.2,0.4-0.3,0.9-0.3,1.4c0,0.5,0.1,1,0.3,1.5c0.2,0.4,0.5,0.8,0.8,1C175.1,55,175.5,55.2,176,55.2z M176.1,54.5 c-0.4,0-0.7-0.1-0.9-0.3c-0.3-0.2-0.4-0.5-0.6-0.8c-0.1-0.3-0.2-0.7-0.2-1.1c0-0.4,0.1-0.8,0.2-1.1c0.1-0.3,0.3-0.6,0.6-0.8 c0.3-0.2,0.6-0.3,1-0.3c0.6,0,1,0.2,1.3,0.6c0.3,0.4,0.4,0.9,0.4,1.6c0,0.4-0.1,0.8-0.2,1.1c-0.1,0.3-0.3,0.6-0.6,0.8 C176.8,54.4,176.5,54.5,176.1,54.5z"></path> <g> <path class="st5" d="M14,19h88c2.2,0,4,1.8,4,4v88c0,2.2-1.8,4-4,4H14c-2.2,0-4-1.8-4-4V23C10,20.8,11.8,19,14,19z"></path> <linearGradient id="SVGID_5_" gradientUnits="userSpaceOnUse" x1="24.765" y1="271.6606" x2="91.2349" y2="158.3396" gradientTransform="matrix(1 0 0 -1 0 282)"> <stop offset="0" style="stop-color:#857370"></stop> <stop offset="1" style="stop-color:#563440"></stop> </linearGradient> <path class="st6" d="M14,19.2h88c2.1,0,3.8,1.7,3.8,3.8v88c0,2.1-1.7,3.8-3.8,3.8H14c-2.1,0-3.8-1.7-3.8-3.8V23 C10.2,20.9,11.9,19.2,14,19.2z"></path> </g> <g> <path class="st5" d="M14,180h88c2.2,0,4,1.8,4,4v58c0,2.2-1.8,4-4,4H14c-2.2,0-4-1.8-4-4v-58C10,181.8,11.8,180,14,180z"></path> <linearGradient id="SVGID_6_" gradientUnits="userSpaceOnUse" x1="39.8397" y1="114.0333" x2="76.16" y2="23.9673" gradientTransform="matrix(1 0 0 -1 0 282)"> <stop offset="0" style="stop-color:#857370"></stop> <stop offset="1" style="stop-color:#563440"></stop> </linearGradient> <path class="st7" d="M14,180.2h88c2.1,0,3.8,1.7,3.8,3.8v58c0,2.1-1.7,3.8-3.8,3.8H14c-2.1,0-3.8-1.7-3.8-3.8v-58 C10.2,181.9,11.9,180.2,14,180.2z"></path> </g> <path class="st2" d="M46.1,72h1.8l2.8-8.6h-1.3L47,70.7l-2.4-7.4h-1.3L46.1,72z M52.9,72.2c1,0,1.8-0.4,2.3-1.1V72h1.1v-4 c0-0.3,0-0.5,0-0.8c0-0.2-0.1-0.5-0.2-0.7c-0.2-0.4-0.5-0.7-0.9-0.9c-0.4-0.2-0.9-0.3-1.5-0.3c-0.7,0-1.3,0.2-1.8,0.5 s-0.8,0.8-0.9,1.3l1.2,0.4c0.1-0.4,0.3-0.6,0.6-0.8c0.3-0.2,0.6-0.2,0.9-0.2c0.5,0,0.9,0.1,1.1,0.3c0.2,0.2,0.4,0.5,0.4,1 c-0.5,0.1-1,0.1-1.5,0.2c-0.5,0.1-0.9,0.2-1.3,0.3c-0.5,0.2-0.9,0.4-1.1,0.7c-0.3,0.3-0.4,0.7-0.4,1.2c0,0.4,0.1,0.7,0.2,1 c0.2,0.3,0.4,0.5,0.7,0.7C52.1,72.1,52.5,72.2,52.9,72.2z M53.2,71.2c-0.4,0-0.7-0.1-0.9-0.3c-0.2-0.2-0.3-0.4-0.3-0.7 c0-0.3,0.1-0.5,0.3-0.6c0.2-0.1,0.4-0.3,0.6-0.4c0.3-0.1,0.6-0.2,1-0.2c0.4-0.1,0.8-0.1,1.3-0.2c0,0.2,0,0.3,0,0.5 c0,0.2,0,0.4-0.1,0.5c0,0.2-0.2,0.4-0.3,0.6c-0.2,0.2-0.4,0.4-0.6,0.5C53.8,71.1,53.5,71.2,53.2,71.2z M60.4,72.2 c0.5,0,0.9-0.1,1.2-0.3c0.4-0.2,0.7-0.4,0.9-0.7V72h1.1v-6.5h-1.3v3.4c0,0.5-0.1,0.9-0.2,1.2c-0.1,0.3-0.3,0.5-0.6,0.7 C61.3,70.9,61,71,60.7,71c-0.3,0-0.6-0.1-0.8-0.2s-0.4-0.3-0.5-0.6c-0.1-0.2-0.2-0.5-0.2-0.7c0-0.3-0.1-0.5-0.1-0.8v-3.2h-1.3v3.6 c0,0.2,0,0.4,0.1,0.7c0,0.3,0.1,0.5,0.2,0.8c0.1,0.3,0.2,0.5,0.4,0.8c0.2,0.2,0.4,0.4,0.7,0.6S59.9,72.2,60.4,72.2z M65.4,72h1.3 v-8.8h-1.3V72z M72.2,72v-1.1c-0.4,0.1-0.8,0.1-1.1,0c-0.3,0-0.5-0.2-0.7-0.4c-0.1-0.1-0.1-0.3-0.1-0.5c0-0.2,0-0.4,0-0.7v-2.9h1.9 v-1h-1.9v-1.8H69v1.8h-1.2v1H69v2.9c0,0.4,0,0.7,0,0.9c0,0.3,0.1,0.5,0.2,0.8c0.2,0.3,0.4,0.5,0.7,0.7c0.3,0.1,0.7,0.2,1,0.2 S71.8,72.1,72.2,72z"></path> <path class="st2" d="M38.2,208h0.9v-3.3h2.8l1.6,3.3h1l-1.7-3.5c0.5-0.2,0.9-0.5,1.1-1c0.3-0.4,0.4-0.9,0.4-1.5 c0-0.7-0.2-1.3-0.5-1.7c-0.4-0.5-0.9-0.8-1.6-0.9c-0.1,0-0.2,0-0.3,0c-0.1,0-0.2,0-0.3,0h-3.3V208z M39.1,203.9v-3.7h2.4 c0.1,0,0.2,0,0.3,0c0.1,0,0.2,0,0.3,0c0.4,0.1,0.8,0.3,1,0.7c0.2,0.3,0.3,0.7,0.3,1.1c0,0.4-0.1,0.8-0.3,1.1c-0.2,0.3-0.5,0.6-1,0.7 c-0.1,0-0.2,0-0.3,0c-0.1,0-0.2,0-0.3,0H39.1z M48.6,208.2c0.6,0,1.2-0.2,1.7-0.5c0.5-0.3,0.9-0.7,1.1-1.3l-0.8-0.3 c-0.4,0.8-1.1,1.2-2,1.2c-0.6,0-1.2-0.2-1.5-0.6c-0.4-0.4-0.6-1-0.6-1.7h5.1c0-1.1-0.2-2-0.8-2.7c-0.5-0.7-1.3-1-2.2-1 c-0.6,0-1.2,0.1-1.6,0.4c-0.5,0.3-0.8,0.7-1.1,1.2c-0.3,0.5-0.4,1.1-0.4,1.8c0,0.7,0.1,1.3,0.4,1.8c0.3,0.5,0.6,0.9,1.1,1.2 C47.4,208,47.9,208.2,48.6,208.2z M48.5,202.1c1.2,0,1.9,0.7,2,2.1h-4.2c0.1-0.7,0.3-1.2,0.6-1.6C47.4,202.3,47.9,202.1,48.5,202.1z M54,208h0.8l1.6-5.2L58,208h0.8l2-6.5h-0.9l-1.5,5l-1.5-5H56l-1.5,5l-1.5-5l-0.9,0L54,208z M63.3,208.2c1.1,0,2-0.4,2.5-1.3v1.1 h0.8v-4c0-0.2,0-0.5,0-0.7c0-0.2-0.1-0.4-0.2-0.6c-0.2-0.4-0.5-0.7-0.9-1c-0.4-0.2-0.9-0.3-1.5-0.3c-0.7,0-1.3,0.2-1.7,0.5 c-0.4,0.3-0.7,0.8-0.9,1.3l0.9,0.3c0.1-0.4,0.3-0.7,0.6-0.9c0.3-0.2,0.7-0.3,1.1-0.3c0.6,0,1.1,0.1,1.3,0.4c0.3,0.3,0.4,0.7,0.4,1.3 c-0.3,0-0.6,0.1-1,0.1c-0.3,0-0.7,0.1-1,0.2c-0.3,0.1-0.7,0.1-1,0.2c-0.5,0.1-0.9,0.3-1.2,0.6c-0.3,0.3-0.5,0.7-0.5,1.2 c0,0.3,0.1,0.7,0.2,1c0.2,0.3,0.4,0.5,0.7,0.7C62.4,208.1,62.8,208.2,63.3,208.2z M63.4,207.4c-0.3,0-0.6-0.1-0.8-0.2 c-0.2-0.1-0.4-0.3-0.5-0.4c-0.1-0.2-0.1-0.4-0.1-0.6c0-0.4,0.1-0.6,0.4-0.8s0.5-0.3,0.8-0.4c0.4-0.1,0.8-0.2,1.2-0.2 c0.5-0.1,0.9-0.1,1.3-0.2c0,0.1,0,0.3,0,0.5c0,0.2,0,0.4-0.1,0.5c-0.1,0.5-0.3,0.9-0.7,1.2C64.5,207.3,64,207.4,63.4,207.4z M68.1,208H69v-3.2c0-0.4,0-0.8,0.1-1.2c0.1-0.4,0.3-0.7,0.6-1c0.2-0.2,0.5-0.3,0.8-0.3c0.3,0,0.5,0,0.8,0v-0.8 c-0.3-0.1-0.6-0.1-1,0c-0.4,0.1-0.7,0.2-0.9,0.4c-0.2,0.1-0.4,0.3-0.5,0.6v-1h-0.8V208z M74.8,208.2c0.5,0,0.9-0.1,1.2-0.3 c0.4-0.2,0.7-0.5,0.9-0.8v0.9h0.8v-8.6h-0.9v2.9c-0.2-0.3-0.5-0.5-0.9-0.7c-0.3-0.2-0.7-0.3-1.2-0.3c-0.6,0-1.1,0.2-1.5,0.4 c-0.4,0.3-0.8,0.7-1,1.2c-0.2,0.5-0.3,1.1-0.3,1.7c0,0.6,0.1,1.2,0.3,1.7c0.2,0.5,0.6,0.9,1,1.2C73.7,208,74.2,208.2,74.8,208.2z M74.9,207.4c-0.4,0-0.8-0.1-1.1-0.3c-0.3-0.2-0.5-0.5-0.7-0.9c-0.1-0.4-0.2-0.8-0.2-1.3c0-0.5,0.1-0.9,0.2-1.3s0.4-0.7,0.7-0.9 c0.3-0.2,0.7-0.3,1.2-0.3c0.7,0,1.2,0.2,1.5,0.7c0.3,0.5,0.5,1.1,0.5,1.9c0,0.5-0.1,0.9-0.2,1.3c-0.1,0.4-0.4,0.7-0.7,0.9 C75.8,207.2,75.4,207.4,74.9,207.4z M47,228h1.2l3-8.6h-0.9l-2.7,7.6l-2.6-7.6H44L47,228z M53.3,228.2c1.1,0,2-0.4,2.5-1.3v1.1h0.8 v-4c0-0.2,0-0.5,0-0.7c0-0.2-0.1-0.4-0.2-0.6c-0.2-0.4-0.5-0.7-0.9-1c-0.4-0.2-0.9-0.3-1.5-0.3c-0.7,0-1.3,0.2-1.7,0.5 c-0.4,0.3-0.7,0.8-0.9,1.3l0.9,0.3c0.1-0.4,0.3-0.7,0.6-0.9c0.3-0.2,0.7-0.3,1.1-0.3c0.6,0,1.1,0.1,1.3,0.4c0.3,0.3,0.4,0.7,0.4,1.3 c-0.3,0-0.6,0.1-1,0.1c-0.3,0-0.7,0.1-1,0.2c-0.3,0.1-0.7,0.1-1,0.2c-0.5,0.1-0.9,0.3-1.2,0.6c-0.3,0.3-0.5,0.7-0.5,1.2 c0,0.3,0.1,0.7,0.2,1c0.2,0.3,0.4,0.5,0.7,0.7C52.4,228.1,52.9,228.2,53.3,228.2z M53.4,227.4c-0.3,0-0.6-0.1-0.8-0.2 c-0.2-0.1-0.4-0.3-0.5-0.4c-0.1-0.2-0.1-0.4-0.1-0.6c0-0.4,0.1-0.6,0.4-0.8s0.5-0.3,0.8-0.4c0.4-0.1,0.8-0.2,1.2-0.2 c0.5-0.1,0.9-0.1,1.3-0.2c0,0.1,0,0.3,0,0.5c0,0.2,0,0.4-0.1,0.5c-0.1,0.5-0.3,0.9-0.7,1.2C54.6,227.3,54.1,227.4,53.4,227.4z M60.6,228.2c0.5,0,0.9-0.1,1.3-0.3c0.4-0.2,0.7-0.4,0.9-0.8v0.9h0.8v-6.5h-0.9v3.5c0,0.7-0.2,1.3-0.5,1.7c-0.3,0.4-0.8,0.6-1.4,0.6 c-0.5,0-0.8-0.1-1.1-0.3c-0.3-0.2-0.5-0.5-0.6-0.9c-0.1-0.4-0.2-0.8-0.2-1.3v-3.3H58v3.6c0,0.4,0,0.7,0.1,1.1c0.1,0.4,0.2,0.7,0.4,1 c0.2,0.3,0.5,0.5,0.8,0.7C59.7,228.1,60.2,228.2,60.6,228.2z M65.4,228h0.9v-8.8h-0.9V228z M71.6,228v-0.8c-0.5,0.1-0.9,0.1-1.2,0 c-0.3-0.1-0.5-0.2-0.7-0.5c-0.1-0.1-0.1-0.3-0.1-0.5c0-0.2,0-0.4,0-0.7v-3.3h2v-0.8h-2v-1.8h-0.9v1.8h-1.4v0.8h1.4v3.4 c0,0.3,0,0.6,0,0.8c0,0.2,0.1,0.5,0.2,0.7c0.1,0.3,0.4,0.5,0.6,0.6c0.3,0.1,0.6,0.2,0.9,0.2C70.9,228.1,71.3,228.1,71.6,228z"></path> <g> <circle class="st8" cx="270" cy="213" r="47"></circle> </g> <path class="st2" d="M254,209h0.7v-2.7h2.3l1.3,2.7h0.8l-1.4-2.9c0.4-0.2,0.7-0.4,0.9-0.8c0.2-0.4,0.3-0.8,0.3-1.3 c0-0.6-0.2-1-0.5-1.5c-0.3-0.4-0.7-0.7-1.3-0.7c-0.1,0-0.2,0-0.3,0c-0.1,0-0.2,0-0.2,0H254V209z M254.8,205.6v-3.1h2 c0.1,0,0.1,0,0.2,0c0.1,0,0.2,0,0.2,0c0.4,0.1,0.6,0.3,0.8,0.6c0.2,0.3,0.3,0.6,0.3,0.9c0,0.3-0.1,0.6-0.3,0.9 c-0.2,0.3-0.4,0.5-0.8,0.6c-0.1,0-0.2,0-0.2,0c-0.1,0-0.1,0-0.2,0H254.8z M262.6,209.1c0.5,0,1-0.1,1.4-0.4c0.4-0.3,0.7-0.6,0.9-1.1 l-0.7-0.3c-0.3,0.7-0.9,1-1.7,1c-0.5,0-1-0.2-1.3-0.5c-0.3-0.3-0.5-0.8-0.5-1.4h4.3c0-1-0.2-1.7-0.6-2.2c-0.4-0.5-1.1-0.8-1.9-0.8 c-0.5,0-1,0.1-1.4,0.4c-0.4,0.2-0.7,0.6-0.9,1c-0.2,0.4-0.3,0.9-0.3,1.5c0,0.6,0.1,1.1,0.3,1.5c0.2,0.4,0.5,0.8,0.9,1 C261.7,209,262.1,209.1,262.6,209.1z M262.6,204.1c1,0,1.6,0.6,1.7,1.8h-3.5c0.1-0.6,0.2-1,0.5-1.3 C261.7,204.3,262.1,204.1,262.6,204.1z M267.1,209h0.6l1.3-4.3l1.3,4.3h0.6l1.6-5.4H272l-1.3,4.2l-1.3-4.2h-0.7l-1.3,4.2l-1.3-4.2 l-0.7,0L267.1,209z M274.9,209.1c0.9,0,1.6-0.3,2.1-1v0.9h0.7v-3.4c0-0.2,0-0.4,0-0.6c0-0.2-0.1-0.4-0.1-0.5 c-0.1-0.4-0.4-0.6-0.7-0.8c-0.3-0.2-0.8-0.3-1.3-0.3c-0.6,0-1.1,0.1-1.4,0.4c-0.4,0.3-0.6,0.6-0.8,1.1l0.7,0.2 c0.1-0.4,0.3-0.6,0.5-0.8c0.3-0.2,0.6-0.3,0.9-0.3c0.5,0,0.9,0.1,1.1,0.4c0.2,0.2,0.3,0.6,0.3,1.1c-0.2,0-0.5,0.1-0.8,0.1 c-0.3,0-0.6,0.1-0.9,0.1c-0.3,0-0.6,0.1-0.8,0.2c-0.4,0.1-0.7,0.3-1,0.5c-0.3,0.2-0.4,0.6-0.4,1c0,0.3,0.1,0.6,0.2,0.8 c0.1,0.2,0.3,0.4,0.6,0.6C274.2,209.1,274.5,209.1,274.9,209.1z M275,208.5c-0.3,0-0.5,0-0.7-0.1c-0.2-0.1-0.3-0.2-0.4-0.4 c-0.1-0.1-0.1-0.3-0.1-0.5c0-0.3,0.1-0.5,0.3-0.7s0.4-0.3,0.6-0.3c0.3-0.1,0.6-0.1,1-0.2c0.4-0.1,0.8-0.1,1.1-0.1c0,0.1,0,0.3,0,0.4 c0,0.2,0,0.3-0.1,0.4c-0.1,0.4-0.3,0.7-0.6,1C275.9,208.4,275.5,208.5,275,208.5z M278.9,209h0.7v-2.7c0-0.3,0-0.6,0.1-1 c0.1-0.3,0.3-0.6,0.5-0.8c0.2-0.2,0.4-0.3,0.6-0.3c0.2,0,0.5,0,0.7,0v-0.7c-0.2-0.1-0.5-0.1-0.8,0c-0.3,0.1-0.6,0.2-0.8,0.4 c-0.2,0.1-0.3,0.3-0.4,0.5v-0.9h-0.7V209z M284.5,209.1c0.4,0,0.7-0.1,1-0.2c0.3-0.2,0.5-0.4,0.7-0.7v0.8h0.7v-7.2h-0.7v2.4 c-0.2-0.2-0.4-0.4-0.7-0.6c-0.3-0.1-0.6-0.2-1-0.2c-0.5,0-0.9,0.1-1.3,0.4c-0.4,0.3-0.6,0.6-0.8,1c-0.2,0.4-0.3,0.9-0.3,1.4 c0,0.5,0.1,1,0.3,1.5c0.2,0.4,0.5,0.8,0.8,1C283.6,209,284,209.1,284.5,209.1z M284.6,208.5c-0.4,0-0.7-0.1-0.9-0.3 c-0.3-0.2-0.4-0.5-0.6-0.8c-0.1-0.3-0.2-0.7-0.2-1.1c0-0.4,0.1-0.8,0.2-1.1c0.1-0.3,0.3-0.6,0.6-0.8c0.3-0.2,0.6-0.3,1-0.3 c0.6,0,1,0.2,1.3,0.6c0.3,0.4,0.4,0.9,0.4,1.6c0,0.4-0.1,0.8-0.2,1.1c-0.1,0.3-0.3,0.6-0.6,0.8C285.3,208.4,285,208.5,284.6,208.5z M259.3,225h0.7v-6.5h2.5v-0.7h-5.8v0.7h2.5V225z M264.8,225.1c0.5,0,1-0.1,1.4-0.4c0.4-0.2,0.7-0.6,0.9-1c0.2-0.4,0.3-0.9,0.3-1.5 c0-0.6-0.1-1-0.3-1.5c-0.2-0.4-0.5-0.8-0.9-1c-0.4-0.2-0.8-0.4-1.4-0.4c-0.5,0-1,0.1-1.4,0.4c-0.4,0.2-0.7,0.6-0.9,1 c-0.2,0.4-0.3,0.9-0.3,1.5c0,0.6,0.1,1.1,0.3,1.5c0.2,0.4,0.5,0.8,0.9,1C263.8,225,264.3,225.1,264.8,225.1z M264.8,224.4 c-0.6,0-1-0.2-1.3-0.6c-0.3-0.4-0.5-0.9-0.5-1.6c0-0.6,0.1-1.1,0.4-1.5c0.3-0.4,0.7-0.6,1.3-0.6c0.6,0,1,0.2,1.3,0.6 c0.3,0.4,0.4,0.9,0.4,1.6c0,0.6-0.1,1.2-0.4,1.6C265.9,224.2,265.4,224.4,264.8,224.4z M268.5,225h0.7v-2.6l2.6,2.6h1.1l-2.9-2.7 l2.5-2.7h-1l-2.4,2.6v-4.4h-0.7L268.5,225z M275.6,225.1c0.5,0,1-0.1,1.4-0.4c0.4-0.3,0.7-0.6,0.9-1.1l-0.7-0.3 c-0.3,0.7-0.9,1-1.7,1c-0.5,0-1-0.2-1.3-0.5c-0.3-0.3-0.5-0.8-0.5-1.4h4.3c0-1-0.2-1.7-0.6-2.2c-0.4-0.5-1.1-0.8-1.9-0.8 c-0.5,0-1,0.1-1.4,0.4c-0.4,0.2-0.7,0.6-0.9,1c-0.2,0.4-0.3,0.9-0.3,1.5c0,0.6,0.1,1.1,0.3,1.5c0.2,0.4,0.5,0.8,0.9,1 C274.7,225,275.1,225.1,275.6,225.1z M275.6,220.1c1,0,1.6,0.6,1.7,1.8h-3.5c0.1-0.6,0.2-1,0.5-1.3 C274.7,220.3,275.1,220.1,275.6,220.1z M279.1,225h0.7v-2.9c0-0.6,0.1-1.1,0.4-1.4c0.3-0.3,0.7-0.5,1.2-0.5c0.4,0,0.7,0.1,0.9,0.3 c0.2,0.2,0.4,0.4,0.5,0.7c0.1,0.3,0.2,0.7,0.2,1.1v2.8h0.7v-3c0-0.3,0-0.6-0.1-0.9c-0.1-0.3-0.2-0.6-0.4-0.8 c-0.2-0.3-0.4-0.4-0.7-0.6c-0.3-0.2-0.6-0.2-1-0.2c-0.4,0-0.7,0.1-1.1,0.2c-0.3,0.1-0.6,0.4-0.8,0.7v-0.8h-0.7V225z"></path> <g> <path class="st9" d="M236.8,33.8h66.5v66.5h-66.5V33.8z"></path> </g> <path class="st2" d="M253.5,63h0.7v-2.7h2.3l1.3,2.7h0.8l-1.4-2.9c0.4-0.2,0.7-0.4,0.9-0.8c0.2-0.4,0.3-0.8,0.3-1.3 c0-0.6-0.2-1-0.5-1.5c-0.3-0.4-0.7-0.7-1.3-0.7c-0.1,0-0.2,0-0.3,0c-0.1,0-0.2,0-0.2,0h-2.8V63z M254.3,59.6v-3.1h2 c0.1,0,0.1,0,0.2,0c0.1,0,0.2,0,0.2,0c0.4,0.1,0.6,0.3,0.8,0.6c0.2,0.3,0.3,0.6,0.3,0.9c0,0.3-0.1,0.6-0.3,0.9 c-0.2,0.3-0.4,0.5-0.8,0.5c-0.1,0-0.2,0-0.2,0c-0.1,0-0.1,0-0.2,0H254.3z M262.1,63.2c0.5,0,1-0.1,1.4-0.4c0.4-0.3,0.7-0.6,0.9-1.1 l-0.7-0.3c-0.3,0.7-0.9,1-1.7,1c-0.5,0-1-0.2-1.3-0.5c-0.3-0.3-0.5-0.8-0.5-1.4h4.3c0-1-0.2-1.7-0.6-2.2c-0.4-0.5-1.1-0.8-1.9-0.8 c-0.5,0-1,0.1-1.4,0.3c-0.4,0.2-0.7,0.6-0.9,1c-0.2,0.4-0.3,0.9-0.3,1.5c0,0.6,0.1,1.1,0.3,1.5c0.2,0.4,0.5,0.8,0.9,1 C261.2,63,261.6,63.2,262.1,63.2z M262.1,58.1c1,0,1.6,0.6,1.7,1.8h-3.5c0.1-0.6,0.2-1,0.5-1.3C261.2,58.3,261.6,58.1,262.1,58.1z M266.6,63h0.6l1.3-4.3L270,63h0.6l1.6-5.4h-0.7l-1.3,4.2l-1.3-4.2h-0.7l-1.3,4.2l-1.3-4.2l-0.7,0L266.6,63z M274.4,63.2 c0.9,0,1.6-0.3,2.1-1V63h0.7v-3.4c0-0.2,0-0.4,0-0.6c0-0.2-0.1-0.4-0.1-0.5c-0.1-0.3-0.4-0.6-0.7-0.8c-0.3-0.2-0.8-0.3-1.3-0.3 c-0.6,0-1.1,0.1-1.4,0.4c-0.4,0.3-0.6,0.6-0.8,1.1l0.7,0.2c0.1-0.4,0.3-0.6,0.5-0.8c0.3-0.2,0.6-0.3,0.9-0.3c0.5,0,0.9,0.1,1.1,0.4 c0.2,0.2,0.3,0.6,0.3,1.1c-0.2,0-0.5,0.1-0.8,0.1c-0.3,0-0.6,0.1-0.9,0.1c-0.3,0-0.6,0.1-0.8,0.2c-0.4,0.1-0.7,0.3-1,0.5 c-0.3,0.2-0.4,0.6-0.4,1c0,0.3,0.1,0.6,0.2,0.8c0.1,0.2,0.3,0.4,0.6,0.6C273.7,63.1,274,63.2,274.4,63.2z M274.5,62.5 c-0.3,0-0.5,0-0.7-0.1c-0.2-0.1-0.3-0.2-0.4-0.4c-0.1-0.1-0.1-0.3-0.1-0.5c0-0.3,0.1-0.5,0.3-0.7c0.2-0.1,0.4-0.3,0.6-0.3 c0.3-0.1,0.6-0.1,1-0.2c0.4,0,0.8-0.1,1.1-0.1c0,0.1,0,0.3,0,0.4c0,0.2,0,0.3-0.1,0.4c-0.1,0.4-0.3,0.7-0.6,1 C275.4,62.4,275,62.5,274.5,62.5z M278.4,63h0.7v-2.7c0-0.3,0-0.6,0.1-1c0.1-0.3,0.3-0.6,0.5-0.8c0.2-0.2,0.4-0.3,0.6-0.3 c0.2,0,0.5,0,0.7,0v-0.7c-0.2-0.1-0.5-0.1-0.8,0c-0.3,0.1-0.6,0.2-0.8,0.4c-0.2,0.1-0.3,0.3-0.4,0.5v-0.9h-0.7V63z M284,63.2 c0.4,0,0.7-0.1,1-0.2c0.3-0.2,0.5-0.4,0.7-0.7V63h0.7v-7.2h-0.7v2.4c-0.2-0.2-0.4-0.4-0.7-0.6c-0.3-0.1-0.6-0.2-1-0.2 c-0.5,0-0.9,0.1-1.3,0.4c-0.4,0.3-0.6,0.6-0.8,1c-0.2,0.4-0.3,0.9-0.3,1.4c0,0.5,0.1,1,0.3,1.5c0.2,0.4,0.5,0.8,0.8,1 C283.1,63,283.5,63.2,284,63.2z M284.1,62.5c-0.4,0-0.7-0.1-0.9-0.3c-0.3-0.2-0.4-0.5-0.6-0.8c-0.1-0.3-0.2-0.7-0.2-1.1 c0-0.4,0.1-0.8,0.2-1.1c0.1-0.3,0.3-0.6,0.6-0.8c0.3-0.2,0.6-0.3,1-0.3c0.6,0,1,0.2,1.3,0.6c0.3,0.4,0.4,0.9,0.4,1.6 c0,0.4-0.1,0.8-0.2,1.1c-0.1,0.3-0.3,0.6-0.6,0.8C284.8,62.4,284.5,62.5,284.1,62.5z M251.3,79h0.7v-2.7h2c0.1,0,0.1,0,0.2,0 c0.1,0,0.2,0,0.3,0c0.6-0.1,1-0.3,1.3-0.7c0.3-0.4,0.5-0.9,0.5-1.4c0-0.6-0.2-1-0.5-1.5s-0.7-0.7-1.3-0.7c-0.1,0-0.2,0-0.3,0 c-0.1,0-0.2,0-0.2,0h-2.8V79z M252,75.6v-3.1h2c0.1,0,0.1,0,0.2,0c0.1,0,0.2,0,0.2,0c0.4,0.1,0.6,0.3,0.8,0.6 c0.2,0.3,0.3,0.6,0.3,0.9c0,0.3-0.1,0.6-0.3,0.9c-0.2,0.3-0.4,0.5-0.8,0.5c-0.1,0-0.2,0-0.2,0c-0.1,0-0.1,0-0.2,0H252z M257.3,79 h0.7v-2.7c0-0.3,0-0.6,0.1-1c0.1-0.3,0.3-0.6,0.5-0.8c0.2-0.2,0.4-0.3,0.6-0.3c0.2,0,0.5,0,0.7,0v-0.7c-0.2-0.1-0.5-0.1-0.8,0 c-0.3,0.1-0.6,0.2-0.8,0.4c-0.2,0.1-0.3,0.3-0.4,0.5v-0.9h-0.7V79z M263.1,79.2c0.5,0,1-0.1,1.4-0.4c0.4-0.2,0.7-0.6,0.9-1 c0.2-0.4,0.3-0.9,0.3-1.5c0-0.6-0.1-1-0.3-1.5c-0.2-0.4-0.5-0.8-0.9-1c-0.4-0.2-0.8-0.4-1.4-0.4c-0.5,0-1,0.1-1.4,0.4 c-0.4,0.2-0.7,0.6-0.9,1s-0.3,0.9-0.3,1.5c0,0.6,0.1,1.1,0.3,1.5c0.2,0.4,0.5,0.8,0.9,1C262.1,79,262.5,79.2,263.1,79.2z M263.1,78.4c-0.6,0-1-0.2-1.3-0.6c-0.3-0.4-0.4-0.9-0.4-1.6c0-0.6,0.1-1.1,0.4-1.5c0.3-0.4,0.7-0.6,1.3-0.6c0.6,0,1,0.2,1.3,0.6 c0.3,0.4,0.4,0.9,0.4,1.6c0,0.6-0.1,1.2-0.4,1.6C264.1,78.2,263.7,78.4,263.1,78.4z M269.7,79v-0.6c-0.4,0.1-0.7,0.1-1,0 c-0.3,0-0.4-0.2-0.6-0.4c-0.1-0.1-0.1-0.3-0.1-0.4c0-0.2,0-0.3,0-0.6v-2.8h1.7v-0.6H268v-1.5h-0.7v1.5h-1.2v0.6h1.2V77 c0,0.3,0,0.5,0,0.7c0,0.2,0.1,0.4,0.2,0.6c0.1,0.2,0.3,0.4,0.5,0.5c0.2,0.1,0.5,0.2,0.8,0.2C269.1,79.1,269.4,79.1,269.7,79z M272.8,79.2c0.5,0,1-0.1,1.4-0.4c0.4-0.2,0.7-0.6,0.9-1c0.2-0.4,0.3-0.9,0.3-1.5c0-0.6-0.1-1-0.3-1.5c-0.2-0.4-0.5-0.8-0.9-1 c-0.4-0.2-0.8-0.4-1.4-0.4c-0.5,0-1,0.1-1.4,0.4c-0.4,0.2-0.7,0.6-0.9,1c-0.2,0.4-0.3,0.9-0.3,1.5c0,0.6,0.1,1.1,0.3,1.5 c0.2,0.4,0.5,0.8,0.9,1C271.8,79,272.3,79.2,272.8,79.2z M272.8,78.4c-0.6,0-1-0.2-1.3-0.6c-0.3-0.4-0.5-0.9-0.5-1.6 c0-0.6,0.1-1.1,0.4-1.5c0.3-0.4,0.7-0.6,1.3-0.6c0.6,0,1,0.2,1.3,0.6c0.3,0.4,0.4,0.9,0.4,1.6c0,0.6-0.1,1.2-0.4,1.6 C273.9,78.2,273.4,78.4,272.8,78.4z M278.7,79.2c0.5,0,1-0.1,1.4-0.4c0.4-0.3,0.7-0.6,0.9-1.1l-0.7-0.2c-0.3,0.7-0.8,1-1.5,1 c-0.6,0-1-0.2-1.3-0.6c-0.3-0.4-0.4-0.9-0.5-1.6c0-0.6,0.2-1.1,0.4-1.5c0.3-0.4,0.7-0.6,1.3-0.6c0.4,0,0.7,0.1,0.9,0.3 c0.3,0.2,0.5,0.4,0.6,0.8l0.7-0.2c-0.2-0.5-0.4-0.8-0.8-1.1c-0.4-0.3-0.9-0.4-1.4-0.4c-0.5,0-1,0.1-1.4,0.4c-0.4,0.2-0.7,0.6-0.9,1 c-0.2,0.4-0.3,0.9-0.3,1.5c0,0.6,0.1,1,0.3,1.5c0.2,0.4,0.5,0.8,0.9,1C277.7,79,278.2,79.2,278.7,79.2z M284.1,79.2 c0.5,0,1-0.1,1.4-0.4c0.4-0.2,0.7-0.6,0.9-1c0.2-0.4,0.3-0.9,0.3-1.5c0-0.6-0.1-1-0.3-1.5c-0.2-0.4-0.5-0.8-0.9-1 c-0.4-0.2-0.8-0.4-1.4-0.4c-0.5,0-1,0.1-1.4,0.4c-0.4,0.2-0.7,0.6-0.9,1s-0.3,0.9-0.3,1.5c0,0.6,0.1,1.1,0.3,1.5 c0.2,0.4,0.5,0.8,0.9,1C283.1,79,283.6,79.2,284.1,79.2z M284.1,78.4c-0.6,0-1-0.2-1.3-0.6c-0.3-0.4-0.4-0.9-0.4-1.6 c0-0.6,0.1-1.1,0.4-1.5c0.3-0.4,0.7-0.6,1.3-0.6c0.6,0,1,0.2,1.3,0.6c0.3,0.4,0.4,0.9,0.4,1.6c0,0.6-0.1,1.2-0.4,1.6 C285.2,78.2,284.7,78.4,284.1,78.4z M287.9,79h0.7v-7.3h-0.7V79z"></path> </svg> 