<svg width="347" height="280" viewBox="0 0 347 280" fill="none" xmlns="http://www.w3.org/2000/svg">
<rect width="347" height="280" fill="#111112"/>
<path d="M206 212C206.552 212 207 212.448 207 213C207 213.552 206.552 214 206 214V212ZM125.293 213.707C124.902 213.317 124.902 212.683 125.293 212.293L131.657 205.929C132.047 205.538 132.681 205.538 133.071 205.929C133.462 206.319 133.462 206.953 133.071 207.343L127.414 213L133.071 218.657C133.462 219.047 133.462 219.681 133.071 220.071C132.681 220.462 132.047 220.462 131.657 220.071L125.293 213.707ZM206 214H126V212H206V214Z" fill="url(#paint0_linear)" fill-opacity="0.9"/>
<path d="M271 118C271 117.448 270.552 117 270 117C269.448 117 269 117.448 269 118H271ZM269.293 153.707C269.683 154.098 270.317 154.098 270.707 153.707L277.071 147.343C277.462 146.953 277.462 146.319 277.071 145.929C276.681 145.538 276.047 145.538 275.657 145.929L270 151.586L264.343 145.929C263.953 145.538 263.319 145.538 262.929 145.929C262.538 146.319 262.538 146.953 262.929 147.343L269.293 153.707ZM269 118V153H271V118H269Z" fill="url(#paint1_linear)" fill-opacity="0.9"/>
<path d="M151.7 200H152.435V196.75H156.415V200H157.145V192.8H156.415V196.045H152.435V192.8H151.7V200ZM160.801 200.15C161.334 200.15 161.791 200.03 162.171 199.79C162.554 199.55 162.847 199.217 163.051 198.79C163.257 198.36 163.361 197.862 163.361 197.295C163.361 196.738 163.259 196.247 163.056 195.82C162.856 195.39 162.564 195.055 162.181 194.815C161.801 194.572 161.341 194.45 160.801 194.45C160.274 194.45 159.819 194.57 159.436 194.81C159.056 195.047 158.762 195.378 158.556 195.805C158.349 196.232 158.246 196.728 158.246 197.295C158.246 197.852 158.346 198.345 158.546 198.775C158.749 199.205 159.041 199.542 159.421 199.785C159.804 200.028 160.264 200.15 160.801 200.15ZM160.801 199.445C160.217 199.445 159.776 199.25 159.476 198.86C159.176 198.467 159.026 197.945 159.026 197.295C159.026 196.665 159.171 196.152 159.461 195.755C159.751 195.355 160.197 195.155 160.801 195.155C161.397 195.155 161.842 195.35 162.136 195.74C162.432 196.127 162.581 196.645 162.581 197.295C162.581 197.932 162.434 198.45 162.141 198.85C161.847 199.247 161.401 199.445 160.801 199.445ZM164.564 200H165.299V192.65H164.564V200ZM168.893 200.15C169.286 200.15 169.631 200.07 169.928 199.91C170.224 199.747 170.469 199.525 170.663 199.245V200H171.323V192.8H170.583V195.235C170.386 194.988 170.143 194.797 169.853 194.66C169.566 194.52 169.236 194.45 168.863 194.45C168.369 194.45 167.946 194.575 167.593 194.825C167.239 195.075 166.968 195.415 166.778 195.845C166.591 196.275 166.498 196.758 166.498 197.295C166.498 197.835 166.591 198.32 166.778 198.75C166.968 199.18 167.241 199.522 167.598 199.775C167.958 200.025 168.389 200.15 168.893 200.15ZM168.968 199.465C168.594 199.465 168.281 199.37 168.028 199.18C167.778 198.987 167.589 198.727 167.463 198.4C167.339 198.073 167.278 197.705 167.278 197.295C167.278 196.888 167.339 196.522 167.463 196.195C167.586 195.868 167.773 195.61 168.023 195.42C168.276 195.23 168.596 195.135 168.983 195.135C169.546 195.135 169.966 195.337 170.243 195.74C170.523 196.14 170.663 196.658 170.663 197.295C170.663 197.712 170.601 198.083 170.478 198.41C170.354 198.737 170.168 198.995 169.918 199.185C169.668 199.372 169.351 199.465 168.968 199.465ZM176.427 196.25C176.757 196.25 177.057 196.17 177.327 196.01C177.601 195.847 177.819 195.63 177.982 195.36C178.146 195.087 178.227 194.783 178.227 194.45C178.227 194.117 178.146 193.815 177.982 193.545C177.819 193.272 177.601 193.055 177.327 192.895C177.057 192.732 176.757 192.65 176.427 192.65C176.107 192.65 175.811 192.732 175.537 192.895C175.264 193.058 175.044 193.277 174.877 193.55C174.711 193.823 174.627 194.123 174.627 194.45C174.627 194.783 174.709 195.087 174.872 195.36C175.036 195.63 175.252 195.847 175.522 196.01C175.796 196.17 176.097 196.25 176.427 196.25ZM175.427 200L182.142 193.295L181.642 192.8L174.927 199.5L175.427 200ZM176.427 195.585C176.224 195.585 176.036 195.533 175.862 195.43C175.689 195.327 175.551 195.188 175.447 195.015C175.344 194.842 175.292 194.653 175.292 194.45C175.292 194.243 175.344 194.055 175.447 193.885C175.551 193.712 175.689 193.573 175.862 193.47C176.036 193.367 176.224 193.315 176.427 193.315C176.634 193.315 176.822 193.367 176.992 193.47C177.166 193.573 177.304 193.712 177.407 193.885C177.511 194.055 177.562 194.243 177.562 194.45C177.562 194.653 177.511 194.842 177.407 195.015C177.304 195.188 177.166 195.327 176.992 195.43C176.822 195.533 176.634 195.585 176.427 195.585ZM180.642 200.15C180.972 200.15 181.272 200.07 181.542 199.91C181.816 199.747 182.034 199.53 182.197 199.26C182.361 198.987 182.442 198.683 182.442 198.35C182.442 198.017 182.361 197.715 182.197 197.445C182.034 197.172 181.816 196.955 181.542 196.795C181.272 196.632 180.972 196.55 180.642 196.55C180.322 196.55 180.026 196.632 179.752 196.795C179.479 196.958 179.259 197.177 179.092 197.45C178.926 197.723 178.842 198.023 178.842 198.35C178.842 198.683 178.922 198.987 179.082 199.26C179.246 199.53 179.464 199.747 179.737 199.91C180.011 200.07 180.312 200.15 180.642 200.15ZM180.642 199.485C180.439 199.485 180.251 199.433 180.077 199.33C179.904 199.227 179.766 199.088 179.662 198.915C179.559 198.742 179.507 198.553 179.507 198.35C179.507 198.143 179.559 197.955 179.662 197.785C179.766 197.612 179.904 197.473 180.077 197.37C180.251 197.267 180.439 197.215 180.642 197.215C180.849 197.215 181.037 197.267 181.207 197.37C181.381 197.473 181.519 197.612 181.622 197.785C181.726 197.955 181.777 198.143 181.777 198.35C181.777 198.553 181.726 198.742 181.622 198.915C181.519 199.088 181.381 199.227 181.207 199.33C181.037 199.433 180.849 199.485 180.642 199.485Z" fill="white"/>
<path d="M213.024 173.301C213.503 173.578 213.666 174.189 213.39 174.667C213.113 175.146 212.502 175.309 212.024 175.033L213.024 173.301ZM125.059 124.426C124.917 123.892 125.234 123.344 125.767 123.201L134.462 120.876C134.995 120.734 135.543 121.05 135.686 121.584C135.829 122.118 135.512 122.666 134.978 122.808L127.25 124.875L129.316 132.603C129.459 133.137 129.142 133.685 128.609 133.828C128.075 133.97 127.527 133.654 127.384 133.12L125.059 124.426ZM212.024 175.033L125.525 125.033L126.526 123.301L213.024 173.301L212.024 175.033Z" fill="url(#paint2_linear)" fill-opacity="0.9"/>
<path d="M161.769 128.743L162.405 129.111L164.03 126.296L167.477 128.286L165.852 131.101L166.484 131.466L170.084 125.23L169.452 124.865L167.83 127.676L164.383 125.686L166.005 122.875L165.369 122.508L161.769 128.743ZM168.96 133.069C169.777 133.54 170.545 133.581 171.262 133.191L170.815 133.966L171.382 134.294L173.06 131.388C173.16 131.215 173.249 131.04 173.329 130.862C173.408 130.685 173.458 130.512 173.479 130.342C173.529 129.968 173.451 129.614 173.242 129.282C173.038 128.949 172.722 128.659 172.295 128.412C171.781 128.116 171.296 127.989 170.839 128.034C170.383 128.078 169.979 128.278 169.627 128.633L170.142 129.172C170.411 128.912 170.697 128.773 171 128.756C171.306 128.74 171.619 128.824 171.939 129.009C172.384 129.266 172.641 129.553 172.712 129.871C172.784 130.186 172.701 130.556 172.464 130.98C172.239 130.889 171.992 130.787 171.723 130.674C171.456 130.562 171.186 130.454 170.911 130.35C170.637 130.245 170.379 130.158 170.138 130.088C169.736 129.979 169.361 129.968 169.013 130.057C168.668 130.142 168.384 130.376 168.162 130.76C168.019 131.009 167.946 131.272 167.942 131.551C167.939 131.83 168.019 132.102 168.183 132.366C168.349 132.631 168.608 132.865 168.96 133.069ZM169.351 132.561C169.1 132.416 168.921 132.259 168.815 132.09C168.713 131.919 168.665 131.751 168.669 131.584C168.677 131.416 168.721 131.264 168.799 131.128C168.946 130.874 169.141 130.733 169.384 130.704C169.628 130.675 169.866 130.689 170.099 130.747C170.396 130.826 170.727 130.942 171.093 131.095C171.458 131.249 171.805 131.395 172.132 131.534C172.071 131.641 171.996 131.761 171.907 131.895C171.823 132.027 171.735 132.143 171.642 132.244C171.378 132.561 171.041 132.757 170.632 132.833C170.226 132.91 169.799 132.819 169.351 132.561ZM172.509 134.944L173.146 135.312L174.493 132.978C174.655 132.698 174.848 132.438 175.071 132.197C175.299 131.956 175.584 131.81 175.924 131.76C176.174 131.72 176.405 131.747 176.616 131.842C176.831 131.936 177.014 132.053 177.164 132.193L177.509 131.595C177.334 131.425 177.102 131.29 176.814 131.189C176.528 131.085 176.245 131.06 175.967 131.115C175.769 131.139 175.564 131.214 175.354 131.338L175.781 130.598L175.209 130.268L172.509 134.944ZM176.895 137.476L177.553 137.856L181.95 134.16L181.296 133.782L177.704 136.835L178.542 132.192L177.897 131.82L176.895 137.476ZM181.763 140.46C182.216 140.722 182.686 140.845 183.172 140.829C183.661 140.815 184.116 140.657 184.538 140.353L184.077 139.781C183.433 140.21 182.77 140.228 182.089 139.834C181.622 139.564 181.339 139.207 181.242 138.762C181.147 138.319 181.242 137.821 181.526 137.269L185.211 139.397C185.711 138.585 185.904 137.834 185.79 137.144C185.681 136.454 185.28 135.909 184.587 135.509C184.136 135.249 183.687 135.124 183.238 135.134C182.792 135.146 182.371 135.286 181.974 135.553C181.577 135.821 181.232 136.21 180.937 136.721C180.652 137.215 180.494 137.697 180.464 138.169C180.437 138.642 180.533 139.077 180.751 139.472C180.972 139.869 181.309 140.198 181.763 140.46ZM184.267 136.103C185.147 136.612 185.342 137.404 184.852 138.479L181.847 136.744C182.181 136.279 182.555 135.991 182.969 135.88C183.384 135.769 183.816 135.843 184.267 136.103ZM186.597 143.245C187.172 143.577 187.695 143.712 188.166 143.649C188.642 143.585 189.007 143.332 189.262 142.89C189.402 142.648 189.467 142.414 189.459 142.19C189.452 141.967 189.36 141.723 189.182 141.458C189.007 141.196 188.736 140.885 188.369 140.527C188.056 140.223 187.822 139.975 187.668 139.782C187.516 139.59 187.428 139.43 187.403 139.3C187.38 139.167 187.404 139.038 187.475 138.914C187.604 138.692 187.81 138.575 188.095 138.562C188.379 138.549 188.686 138.641 189.015 138.839C189.363 139.048 189.605 139.299 189.74 139.592C189.876 139.883 189.888 140.178 189.776 140.479L190.493 140.737C190.618 140.448 190.655 140.151 190.603 139.848C190.551 139.545 190.417 139.256 190.202 138.982C189.992 138.706 189.71 138.467 189.358 138.263C189.006 138.06 188.663 137.937 188.33 137.895C188.001 137.851 187.703 137.887 187.436 138.003C187.174 138.117 186.966 138.307 186.813 138.572C186.688 138.789 186.63 139.002 186.64 139.211C186.654 139.42 186.749 139.653 186.923 139.912C187.099 140.167 187.364 140.474 187.719 140.833C188.053 141.168 188.295 141.431 188.446 141.623C188.601 141.816 188.684 141.977 188.697 142.108C188.712 142.236 188.678 142.372 188.594 142.516C188.448 142.77 188.229 142.913 187.937 142.945C187.645 142.977 187.322 142.89 186.967 142.685C186.603 142.475 186.342 142.221 186.184 141.921C186.027 141.619 185.992 141.316 186.079 141.012L185.367 140.746C185.205 141.214 185.231 141.668 185.447 142.108C185.665 142.55 186.049 142.929 186.597 143.245ZM192.021 146.209L192.343 145.651C191.977 145.512 191.69 145.358 191.484 145.189C191.28 145.022 191.183 144.811 191.19 144.558C191.194 144.425 191.23 144.292 191.299 144.159C191.373 144.024 191.467 143.859 191.58 143.663L192.973 141.251L194.406 142.078L194.721 141.533L193.288 140.705L194.038 139.406L193.405 139.041L192.655 140.34L191.655 139.763L191.34 140.308L192.34 140.886L190.933 143.324C190.801 143.552 190.687 143.757 190.589 143.939C190.494 144.123 190.44 144.325 190.425 144.543C190.409 144.811 190.472 145.052 190.615 145.265C190.76 145.48 190.957 145.666 191.204 145.824C191.454 145.984 191.726 146.113 192.021 146.209ZM198.023 145.345C198.309 145.51 198.609 145.59 198.923 145.587C199.241 145.582 199.538 145.504 199.815 145.351C200.093 145.196 200.315 144.975 200.482 144.686C200.649 144.397 200.729 144.095 200.722 143.78C200.718 143.461 200.637 143.164 200.48 142.889C200.328 142.613 200.109 142.392 199.823 142.227C199.546 142.067 199.248 141.989 198.93 141.994C198.612 141.999 198.312 142.078 198.031 142.231C197.75 142.385 197.528 142.603 197.364 142.886C197.198 143.175 197.117 143.478 197.122 143.796C197.128 144.112 197.207 144.408 197.359 144.684C197.516 144.96 197.737 145.18 198.023 145.345ZM195.282 148.092L204.45 145.643L204.265 144.964L195.099 147.409L195.282 148.092ZM198.356 144.769C198.18 144.667 198.042 144.528 197.944 144.352C197.845 144.176 197.795 143.987 197.792 143.785C197.789 143.583 197.839 143.394 197.94 143.218C198.044 143.039 198.183 142.902 198.357 142.807C198.533 142.708 198.722 142.657 198.924 142.655C199.126 142.652 199.315 142.701 199.491 142.803C199.67 142.906 199.807 143.045 199.903 143.22C200.001 143.396 200.052 143.585 200.054 143.787C200.059 143.985 200.009 144.174 199.906 144.353C199.804 144.529 199.666 144.667 199.489 144.765C199.313 144.864 199.124 144.914 198.923 144.917C198.724 144.922 198.535 144.872 198.356 144.769ZM199.724 150.83C200.009 150.995 200.309 151.075 200.623 151.072C200.941 151.067 201.239 150.989 201.515 150.836C201.793 150.681 202.016 150.46 202.182 150.171C202.349 149.882 202.429 149.58 202.423 149.265C202.418 148.946 202.337 148.649 202.18 148.374C202.028 148.098 201.809 147.877 201.524 147.712C201.246 147.552 200.949 147.474 200.63 147.479C200.312 147.484 200.012 147.563 199.731 147.716C199.45 147.87 199.228 148.088 199.065 148.371C198.898 148.66 198.816 148.962 198.818 149.279C198.824 149.594 198.905 149.891 199.06 150.169C199.216 150.445 199.438 150.665 199.724 150.83ZM200.056 150.254C199.88 150.152 199.743 150.013 199.644 149.837C199.546 149.661 199.495 149.472 199.492 149.27C199.489 149.068 199.539 148.879 199.641 148.703C199.744 148.524 199.883 148.387 200.057 148.292C200.233 148.193 200.422 148.142 200.624 148.14C200.826 148.137 201.015 148.186 201.191 148.288C201.37 148.391 201.507 148.53 201.603 148.705C201.701 148.881 201.752 149.07 201.755 149.272C201.759 149.47 201.71 149.659 201.606 149.838C201.505 150.014 201.366 150.152 201.19 150.25C201.014 150.349 200.825 150.399 200.623 150.402C200.424 150.407 200.235 150.357 200.056 150.254Z" fill="white"/>
<path d="M126 66C125.448 66 125 66.4477 125 67C125 67.5523 125.448 68 126 68V66ZM206 67L196 61.2265V72.7735L206 67ZM126 68H197V66H126V68Z" fill="url(#paint3_linear)" fill-opacity="0.9"/>
<path d="M152.685 39.15C153.522 39.15 154.205 38.9367 154.735 38.51C155.265 38.08 155.629 37.505 155.825 36.785L155.075 36.59C154.922 37.1567 154.647 37.6083 154.25 37.945C153.854 38.2783 153.332 38.445 152.685 38.445C152.122 38.445 151.65 38.3167 151.27 38.06C150.894 37.8 150.61 37.4417 150.42 36.985C150.234 36.5283 150.142 36 150.145 35.4C150.152 34.8 150.249 34.2717 150.435 33.815C150.622 33.355 150.902 32.9967 151.275 32.74C151.652 32.4833 152.122 32.355 152.685 32.355C153.332 32.355 153.854 32.5233 154.25 32.86C154.647 33.1933 154.922 33.6433 155.075 34.21L155.825 34.015C155.629 33.295 155.265 32.7217 154.735 32.295C154.205 31.865 153.522 31.65 152.685 31.65C151.969 31.65 151.364 31.8083 150.87 32.125C150.377 32.4417 150.004 32.8817 149.75 33.445C149.497 34.0083 149.37 34.66 149.37 35.4C149.37 36.1367 149.497 36.7883 149.75 37.355C150.004 37.9183 150.377 38.3583 150.87 38.675C151.364 38.9917 151.969 39.15 152.685 39.15ZM157.029 39H157.764V31.65H157.029V39ZM160.808 39.15C161.751 39.15 162.436 38.8017 162.863 38.105V39H163.518V35.645C163.518 35.445 163.508 35.2483 163.488 35.055C163.468 34.8617 163.424 34.6867 163.358 34.53C163.214 34.18 162.969 33.9133 162.623 33.73C162.279 33.5433 161.861 33.45 161.368 33.45C160.774 33.45 160.291 33.5833 159.918 33.85C159.544 34.1167 159.294 34.4917 159.168 34.975L159.882 35.185C159.986 34.825 160.164 34.5617 160.418 34.395C160.674 34.2283 160.988 34.145 161.358 34.145C161.871 34.145 162.238 34.265 162.458 34.505C162.678 34.7417 162.791 35.1033 162.798 35.59C162.558 35.6233 162.293 35.6583 162.003 35.695C161.716 35.7317 161.428 35.7733 161.138 35.82C160.848 35.8667 160.581 35.92 160.338 35.98C159.934 36.0867 159.604 36.265 159.348 36.515C159.091 36.7617 158.963 37.1067 158.963 37.55C158.963 37.8367 159.031 38.1017 159.168 38.345C159.304 38.5883 159.509 38.7833 159.783 38.93C160.059 39.0767 160.401 39.15 160.808 39.15ZM160.893 38.515C160.603 38.515 160.369 38.4683 160.193 38.375C160.019 38.2783 159.893 38.1567 159.812 38.01C159.736 37.86 159.698 37.7067 159.698 37.55C159.698 37.2567 159.796 37.0367 159.993 36.89C160.189 36.7433 160.403 36.6367 160.633 36.57C160.929 36.49 161.274 36.425 161.668 36.375C162.061 36.325 162.434 36.2783 162.788 36.235C162.788 36.3583 162.783 36.5 162.773 36.66C162.766 36.8167 162.748 36.9617 162.718 37.095C162.648 37.5017 162.454 37.84 162.138 38.11C161.824 38.38 161.409 38.515 160.893 38.515ZM164.919 32.575H165.654V31.75H164.919V32.575ZM164.919 39H165.654V33.6H164.919V39ZM167.148 39H167.888V35.515C167.888 35.0917 168.003 34.7533 168.233 34.5C168.463 34.2433 168.765 34.115 169.138 34.115C169.511 34.115 169.811 34.24 170.038 34.49C170.268 34.7367 170.383 35.075 170.383 35.505L170.378 39H171.103L171.108 35.515C171.108 35.1783 171.17 34.9083 171.293 34.705C171.42 34.4983 171.58 34.3483 171.773 34.255C171.966 34.1617 172.165 34.115 172.368 34.115C172.725 34.115 173.018 34.235 173.248 34.475C173.481 34.7117 173.598 35.0383 173.598 35.455L173.593 39H174.328L174.333 35.315C174.333 34.745 174.17 34.2933 173.843 33.96C173.52 33.6233 173.085 33.455 172.538 33.455C172.178 33.455 171.855 33.5367 171.568 33.7C171.281 33.86 171.06 34.0817 170.903 34.365C170.756 34.0683 170.545 33.8433 170.268 33.69C169.995 33.5333 169.681 33.455 169.328 33.455C169.008 33.455 168.716 33.52 168.453 33.65C168.19 33.7767 167.975 33.95 167.808 34.17V33.6H167.148V39ZM145.537 55H146.272V52.265H148.572L149.897 55H150.742L149.322 52.085C149.725 51.9217 150.035 51.6567 150.252 51.29C150.469 50.9233 150.577 50.505 150.577 50.035C150.577 49.4717 150.425 48.9867 150.122 48.58C149.819 48.1733 149.385 47.9267 148.822 47.84C148.732 47.8233 148.642 47.8133 148.552 47.81C148.465 47.8033 148.387 47.8 148.317 47.8H145.537V55ZM146.272 51.565V48.505H148.297C148.357 48.505 148.427 48.5083 148.507 48.515C148.59 48.5183 148.669 48.5283 148.742 48.545C149.112 48.625 149.384 48.81 149.557 49.1C149.734 49.3867 149.822 49.6983 149.822 50.035C149.822 50.3683 149.734 50.68 149.557 50.97C149.384 51.26 149.112 51.4433 148.742 51.52C148.669 51.5367 148.59 51.5483 148.507 51.555C148.427 51.5617 148.357 51.565 148.297 51.565H146.272ZM154.131 55.15C154.654 55.15 155.122 55.0217 155.536 54.765C155.952 54.5083 156.267 54.1433 156.481 53.67L155.796 53.405C155.452 54.0983 154.887 54.445 154.101 54.445C153.561 54.445 153.137 54.2767 152.831 53.94C152.527 53.6033 152.361 53.125 152.331 52.505H156.586C156.612 51.5517 156.404 50.805 155.961 50.265C155.521 49.7217 154.901 49.45 154.101 49.45C153.581 49.45 153.129 49.5667 152.746 49.8C152.366 50.0333 152.071 50.365 151.861 50.795C151.651 51.225 151.546 51.735 151.546 52.325C151.546 52.895 151.651 53.3917 151.861 53.815C152.074 54.2383 152.374 54.5667 152.761 54.8C153.151 55.0333 153.607 55.15 154.131 55.15ZM154.121 50.125C155.137 50.125 155.702 50.7133 155.816 51.89H152.346C152.402 51.32 152.582 50.8833 152.886 50.58C153.189 50.2767 153.601 50.125 154.121 50.125ZM158.65 55H159.29L160.635 50.7L161.985 55H162.625L164.275 49.6H163.545L162.255 53.795L160.97 49.6H160.3L159.015 53.795L157.735 49.6L157 49.595L158.65 55ZM166.418 55.15C167.361 55.15 168.046 54.8017 168.473 54.105V55H169.128V51.645C169.128 51.445 169.118 51.2483 169.098 51.055C169.078 50.8617 169.035 50.6867 168.968 50.53C168.825 50.18 168.58 49.9133 168.233 49.73C167.89 49.5433 167.471 49.45 166.978 49.45C166.385 49.45 165.901 49.5833 165.528 49.85C165.155 50.1167 164.905 50.4917 164.778 50.975L165.493 51.185C165.596 50.825 165.775 50.5617 166.028 50.395C166.285 50.2283 166.598 50.145 166.968 50.145C167.481 50.145 167.848 50.265 168.068 50.505C168.288 50.7417 168.401 51.1033 168.408 51.59C168.168 51.6233 167.903 51.6583 167.613 51.695C167.326 51.7317 167.038 51.7733 166.748 51.82C166.458 51.8667 166.191 51.92 165.948 51.98C165.545 52.0867 165.215 52.265 164.958 52.515C164.701 52.7617 164.573 53.1067 164.573 53.55C164.573 53.8367 164.641 54.1017 164.778 54.345C164.915 54.5883 165.12 54.7833 165.393 54.93C165.67 55.0767 166.011 55.15 166.418 55.15ZM166.503 54.515C166.213 54.515 165.98 54.4683 165.803 54.375C165.63 54.2783 165.503 54.1567 165.423 54.01C165.346 53.86 165.308 53.7067 165.308 53.55C165.308 53.2567 165.406 53.0367 165.603 52.89C165.8 52.7433 166.013 52.6367 166.243 52.57C166.54 52.49 166.885 52.425 167.278 52.375C167.671 52.325 168.045 52.2783 168.398 52.235C168.398 52.3583 168.393 52.5 168.383 52.66C168.376 52.8167 168.358 52.9617 168.328 53.095C168.258 53.5017 168.065 53.84 167.748 54.11C167.435 54.38 167.02 54.515 166.503 54.515ZM170.429 55H171.164V52.305C171.164 51.9817 171.201 51.66 171.274 51.34C171.351 51.0167 171.524 50.7483 171.794 50.535C171.991 50.375 172.204 50.2833 172.434 50.26C172.668 50.2333 172.884 50.2433 173.084 50.29V49.6C172.848 49.54 172.579 49.5383 172.279 49.595C171.979 49.6483 171.723 49.7683 171.509 49.955C171.349 50.075 171.209 50.2417 171.089 50.455V49.6H170.429V55ZM176.03 55.15C176.424 55.15 176.769 55.07 177.065 54.91C177.362 54.7467 177.607 54.525 177.8 54.245V55H178.46V47.8H177.72V50.235C177.524 49.9883 177.28 49.7967 176.99 49.66C176.704 49.52 176.374 49.45 176 49.45C175.507 49.45 175.084 49.575 174.73 49.825C174.377 50.075 174.105 50.415 173.915 50.845C173.729 51.275 173.635 51.7583 173.635 52.295C173.635 52.835 173.729 53.32 173.915 53.75C174.105 54.18 174.379 54.5217 174.735 54.775C175.095 55.025 175.527 55.15 176.03 55.15ZM176.105 54.465C175.732 54.465 175.419 54.37 175.165 54.18C174.915 53.9867 174.727 53.7267 174.6 53.4C174.477 53.0733 174.415 52.705 174.415 52.295C174.415 51.8883 174.477 51.5217 174.6 51.195C174.724 50.8683 174.91 50.61 175.16 50.42C175.414 50.23 175.734 50.135 176.12 50.135C176.684 50.135 177.104 50.3367 177.38 50.74C177.66 51.14 177.8 51.6583 177.8 52.295C177.8 52.7117 177.739 53.0833 177.615 53.41C177.492 53.7367 177.305 53.995 177.055 54.185C176.805 54.3717 176.489 54.465 176.105 54.465Z" fill="white"/>
<g filter="url(#filter0_bd)">
<rect x="10" y="19" width="96" height="96" rx="4" fill="#282726"/>
<rect x="10.2" y="19.2" width="95.6" height="95.6" rx="3.8" stroke="url(#paint4_linear)" stroke-width="0.4"/>
</g>
<g filter="url(#filter1_bd)">
<rect x="10" y="180" width="96" height="66" rx="4" fill="#282726"/>
<rect x="10.2" y="180.2" width="95.6" height="65.6" rx="3.8" stroke="url(#paint5_linear)" stroke-width="0.4"/>
</g>
<path d="M46.1317 72H47.9377L50.7457 63.36H49.4437L47.0197 70.734L44.6257 63.36H43.3237L46.1317 72ZM52.9415 72.18C53.9735 72.18 54.7515 71.806 55.2755 71.058V72H56.3855V68.01C56.3855 67.738 56.3735 67.484 56.3495 67.248C56.3255 67.012 56.2615 66.788 56.1575 66.576C55.9575 66.148 55.6415 65.836 55.2095 65.64C54.7815 65.44 54.2775 65.34 53.6975 65.34C52.9495 65.34 52.3495 65.504 51.8975 65.832C51.4455 66.16 51.1415 66.602 50.9855 67.158L52.1555 67.518C52.2675 67.158 52.4655 66.898 52.7495 66.738C53.0335 66.578 53.3455 66.498 53.6855 66.498C54.1895 66.498 54.5535 66.606 54.7775 66.822C55.0055 67.034 55.1295 67.364 55.1495 67.812C54.6215 67.884 54.1055 67.96 53.6015 68.04C53.0975 68.116 52.6575 68.208 52.2815 68.316C51.7815 68.476 51.4015 68.714 51.1415 69.03C50.8815 69.346 50.7515 69.748 50.7515 70.236C50.7515 70.588 50.8335 70.912 50.9975 71.208C51.1655 71.5 51.4115 71.736 51.7355 71.916C52.0635 72.092 52.4655 72.18 52.9415 72.18ZM53.1635 71.154C52.7635 71.154 52.4675 71.062 52.2755 70.878C52.0875 70.694 51.9935 70.476 51.9935 70.224C51.9935 69.968 52.0775 69.766 52.2455 69.618C52.4175 69.47 52.6315 69.352 52.8875 69.264C53.1595 69.184 53.4795 69.114 53.8475 69.054C54.2195 68.994 54.6495 68.928 55.1375 68.856C55.1335 69.008 55.1235 69.178 55.1075 69.366C55.0915 69.554 55.0575 69.722 55.0055 69.87C54.9575 70.082 54.8555 70.286 54.6995 70.482C54.5475 70.678 54.3415 70.84 54.0815 70.968C53.8255 71.092 53.5195 71.154 53.1635 71.154ZM60.3855 72.174C60.8535 72.174 61.2675 72.09 61.6275 71.922C61.9915 71.754 62.2915 71.522 62.5275 71.226V72H63.6435V65.52H62.3775V68.892C62.3775 69.404 62.3035 69.814 62.1555 70.122C62.0075 70.426 61.8075 70.646 61.5555 70.782C61.3075 70.918 61.0335 70.986 60.7335 70.986C60.3895 70.986 60.1095 70.916 59.8935 70.776C59.6775 70.636 59.5115 70.452 59.3955 70.224C59.2795 69.996 59.1995 69.75 59.1555 69.486C59.1155 69.218 59.0955 68.958 59.0955 68.706V65.52H57.8235V69.12C57.8235 69.32 57.8415 69.552 57.8775 69.816C57.9135 70.08 57.9815 70.35 58.0815 70.626C58.1815 70.902 58.3255 71.158 58.5135 71.394C58.7055 71.626 58.9535 71.814 59.2575 71.958C59.5615 72.102 59.9375 72.174 60.3855 72.174ZM65.4463 72H66.7003V63.18H65.4463V72ZM72.2101 72V70.938C71.7861 71.002 71.4161 71.016 71.1001 70.98C70.7881 70.94 70.5601 70.798 70.4161 70.554C70.3401 70.422 70.2981 70.26 70.2901 70.068C70.2861 69.876 70.2841 69.65 70.2841 69.39V66.528H72.2101V65.52H70.2841V63.72H69.0241V65.52H67.7821V66.528H69.0241V69.45C69.0241 69.802 69.0281 70.118 69.0361 70.398C69.0481 70.674 69.1241 70.946 69.2641 71.214C69.4241 71.514 69.6581 71.734 69.9661 71.874C70.2741 72.014 70.6241 72.09 71.0161 72.102C71.4081 72.114 71.8061 72.08 72.2101 72Z" fill="white"/>
<path d="M38.2443 208H39.1263V204.718H41.8863L43.4763 208H44.4903L42.7863 204.502C43.2703 204.306 43.6423 203.988 43.9023 203.548C44.1623 203.108 44.2923 202.606 44.2923 202.042C44.2923 201.366 44.1103 200.784 43.7463 200.296C43.3823 199.808 42.8623 199.512 42.1863 199.408C42.0783 199.388 41.9703 199.376 41.8623 199.372C41.7583 199.364 41.6643 199.36 41.5803 199.36H38.2443V208ZM39.1263 203.878V200.206H41.5563C41.6283 200.206 41.7123 200.21 41.8083 200.218C41.9083 200.222 42.0023 200.234 42.0903 200.254C42.5343 200.35 42.8603 200.572 43.0683 200.92C43.2803 201.264 43.3863 201.638 43.3863 202.042C43.3863 202.442 43.2803 202.816 43.0683 203.164C42.8603 203.512 42.5343 203.732 42.0903 203.824C42.0023 203.844 41.9083 203.858 41.8083 203.866C41.7123 203.874 41.6283 203.878 41.5563 203.878H39.1263ZM48.5566 208.18C49.1846 208.18 49.7466 208.026 50.2426 207.718C50.7426 207.41 51.1206 206.972 51.3766 206.404L50.5546 206.086C50.1426 206.918 49.4646 207.334 48.5206 207.334C47.8726 207.334 47.3646 207.132 46.9966 206.728C46.6326 206.324 46.4326 205.75 46.3966 205.006H51.5026C51.5346 203.862 51.2846 202.966 50.7526 202.318C50.2246 201.666 49.4806 201.34 48.5206 201.34C47.8966 201.34 47.3546 201.48 46.8946 201.76C46.4386 202.04 46.0846 202.438 45.8326 202.954C45.5806 203.47 45.4546 204.082 45.4546 204.79C45.4546 205.474 45.5806 206.07 45.8326 206.578C46.0886 207.086 46.4486 207.48 46.9126 207.76C47.3806 208.04 47.9286 208.18 48.5566 208.18ZM48.5446 202.15C49.7646 202.15 50.4426 202.856 50.5786 204.268H46.4146C46.4826 203.584 46.6986 203.06 47.0626 202.696C47.4266 202.332 47.9206 202.15 48.5446 202.15ZM53.9798 208H54.7478L56.3618 202.84L57.9818 208H58.7498L60.7298 201.52H59.8538L58.3058 206.554L56.7638 201.52H55.9598L54.4178 206.554L52.8818 201.52L51.9998 201.514L53.9798 208ZM63.3014 208.18C64.4334 208.18 65.2554 207.762 65.7674 206.926V208H66.5534V203.974C66.5534 203.734 66.5414 203.498 66.5174 203.266C66.4934 203.034 66.4414 202.824 66.3614 202.636C66.1894 202.216 65.8954 201.896 65.4794 201.676C65.0674 201.452 64.5654 201.34 63.9734 201.34C63.2614 201.34 62.6814 201.5 62.2334 201.82C61.7854 202.14 61.4854 202.59 61.3334 203.17L62.1914 203.422C62.3154 202.99 62.5294 202.674 62.8334 202.474C63.1414 202.274 63.5174 202.174 63.9614 202.174C64.5774 202.174 65.0174 202.318 65.2814 202.606C65.5454 202.89 65.6814 203.324 65.6894 203.908C65.4014 203.948 65.0834 203.99 64.7354 204.034C64.3914 204.078 64.0454 204.128 63.6974 204.184C63.3494 204.24 63.0294 204.304 62.7374 204.376C62.2534 204.504 61.8574 204.718 61.5494 205.018C61.2414 205.314 61.0874 205.728 61.0874 206.26C61.0874 206.604 61.1694 206.922 61.3334 207.214C61.4974 207.506 61.7434 207.74 62.0714 207.916C62.4034 208.092 62.8134 208.18 63.3014 208.18ZM63.4034 207.418C63.0554 207.418 62.7754 207.362 62.5634 207.25C62.3554 207.134 62.2034 206.988 62.1074 206.812C62.0154 206.632 61.9694 206.448 61.9694 206.26C61.9694 205.908 62.0874 205.644 62.3234 205.468C62.5594 205.292 62.8154 205.164 63.0914 205.084C63.4474 204.988 63.8614 204.91 64.3334 204.85C64.8054 204.79 65.2534 204.734 65.6774 204.682C65.6774 204.83 65.6714 205 65.6594 205.192C65.6514 205.38 65.6294 205.554 65.5934 205.714C65.5094 206.202 65.2774 206.608 64.8974 206.932C64.5214 207.256 64.0234 207.418 63.4034 207.418ZM68.1154 208H68.9974V204.766C68.9974 204.378 69.0414 203.992 69.1294 203.608C69.2214 203.22 69.4294 202.898 69.7534 202.642C69.9894 202.45 70.2454 202.34 70.5214 202.312C70.8014 202.28 71.0614 202.292 71.3014 202.348V201.52C71.0174 201.448 70.6954 201.446 70.3354 201.514C69.9754 201.578 69.6674 201.722 69.4114 201.946C69.2194 202.09 69.0514 202.29 68.9074 202.546V201.52H68.1154V208ZM74.8364 208.18C75.3084 208.18 75.7224 208.084 76.0784 207.892C76.4344 207.696 76.7284 207.43 76.9604 207.094V208H77.7524V199.36H76.8644V202.282C76.6284 201.986 76.3364 201.756 75.9884 201.592C75.6444 201.424 75.2484 201.34 74.8004 201.34C74.2084 201.34 73.7004 201.49 73.2764 201.79C72.8524 202.09 72.5264 202.498 72.2984 203.014C72.0744 203.53 71.9624 204.11 71.9624 204.754C71.9624 205.402 72.0744 205.984 72.2984 206.5C72.5264 207.016 72.8544 207.426 73.2824 207.73C73.7144 208.03 74.2324 208.18 74.8364 208.18ZM74.9264 207.358C74.4784 207.358 74.1024 207.244 73.7984 207.016C73.4984 206.784 73.2724 206.472 73.1204 206.08C72.9724 205.688 72.8984 205.246 72.8984 204.754C72.8984 204.266 72.9724 203.826 73.1204 203.434C73.2684 203.042 73.4924 202.732 73.7924 202.504C74.0964 202.276 74.4804 202.162 74.9444 202.162C75.6204 202.162 76.1244 202.404 76.4564 202.888C76.7924 203.368 76.9604 203.99 76.9604 204.754C76.9604 205.254 76.8864 205.7 76.7384 206.092C76.5904 206.484 76.3664 206.794 76.0664 207.022C75.7664 207.246 75.3864 207.358 74.9264 207.358ZM46.9852 228H48.1552L51.1312 219.36H50.2132L47.5612 226.998L44.9272 219.36H44.0092L46.9852 228ZM53.3463 228.18C54.4783 228.18 55.3003 227.762 55.8123 226.926V228H56.5983V223.974C56.5983 223.734 56.5863 223.498 56.5623 223.266C56.5383 223.034 56.4863 222.824 56.4063 222.636C56.2343 222.216 55.9403 221.896 55.5243 221.676C55.1123 221.452 54.6103 221.34 54.0183 221.34C53.3063 221.34 52.7263 221.5 52.2783 221.82C51.8303 222.14 51.5303 222.59 51.3783 223.17L52.2363 223.422C52.3603 222.99 52.5743 222.674 52.8783 222.474C53.1863 222.274 53.5623 222.174 54.0063 222.174C54.6223 222.174 55.0623 222.318 55.3263 222.606C55.5903 222.89 55.7263 223.324 55.7343 223.908C55.4463 223.948 55.1283 223.99 54.7803 224.034C54.4363 224.078 54.0903 224.128 53.7423 224.184C53.3943 224.24 53.0743 224.304 52.7823 224.376C52.2983 224.504 51.9023 224.718 51.5943 225.018C51.2863 225.314 51.1323 225.728 51.1323 226.26C51.1323 226.604 51.2143 226.922 51.3783 227.214C51.5423 227.506 51.7883 227.74 52.1163 227.916C52.4483 228.092 52.8583 228.18 53.3463 228.18ZM53.4483 227.418C53.1003 227.418 52.8203 227.362 52.6083 227.25C52.4003 227.134 52.2483 226.988 52.1523 226.812C52.0603 226.632 52.0143 226.448 52.0143 226.26C52.0143 225.908 52.1323 225.644 52.3683 225.468C52.6043 225.292 52.8603 225.164 53.1363 225.084C53.4923 224.988 53.9063 224.91 54.3783 224.85C54.8503 224.79 55.2983 224.734 55.7223 224.682C55.7223 224.83 55.7163 225 55.7043 225.192C55.6963 225.38 55.6743 225.554 55.6383 225.714C55.5543 226.202 55.3223 226.608 54.9423 226.932C54.5663 227.256 54.0683 227.418 53.4483 227.418ZM60.6383 228.162C61.1023 228.162 61.5203 228.074 61.8923 227.898C62.2683 227.718 62.5763 227.452 62.8163 227.1V228H63.6083V221.52H62.7263V224.976C62.7263 225.708 62.5623 226.282 62.2343 226.698C61.9063 227.114 61.4303 227.322 60.8063 227.322C60.3543 227.322 59.9903 227.214 59.7143 226.998C59.4383 226.778 59.2383 226.48 59.1143 226.104C58.9903 225.728 58.9283 225.302 58.9283 224.826V221.52H58.0403V225.084C58.0403 225.448 58.0843 225.812 58.1723 226.176C58.2643 226.54 58.4103 226.872 58.6103 227.172C58.8103 227.472 59.0763 227.712 59.4083 227.892C59.7443 228.072 60.1543 228.162 60.6383 228.162ZM65.4053 228H66.2873V219.18H65.4053V228ZM71.6141 228V227.226C71.1501 227.302 70.7601 227.314 70.4441 227.262C70.1321 227.21 69.9041 227.05 69.7601 226.782C69.6841 226.642 69.6421 226.482 69.6341 226.302C69.6301 226.118 69.6281 225.89 69.6281 225.618V222.276H71.6141V221.52H69.6281V219.72H68.7521V221.52H67.3661V222.276H68.7521V225.654C68.7521 225.97 68.7561 226.252 68.7641 226.5C68.7761 226.748 68.8401 226.99 68.9561 227.226C69.1001 227.514 69.3101 227.726 69.5861 227.862C69.8661 227.998 70.1821 228.074 70.5341 228.09C70.8901 228.106 71.2501 228.076 71.6141 228Z" fill="white"/>
<g filter="url(#filter2_bd)">
<circle cx="270" cy="213" r="47" fill="#6C2E49"/>
</g>
<path d="M254.037 209H254.772V206.265H257.072L258.397 209H259.242L257.822 206.085C258.225 205.922 258.535 205.657 258.752 205.29C258.968 204.923 259.077 204.505 259.077 204.035C259.077 203.472 258.925 202.987 258.622 202.58C258.318 202.173 257.885 201.927 257.322 201.84C257.232 201.823 257.142 201.813 257.052 201.81C256.965 201.803 256.887 201.8 256.817 201.8H254.037V209ZM254.772 205.565V202.505H256.797C256.857 202.505 256.927 202.508 257.007 202.515C257.09 202.518 257.168 202.528 257.242 202.545C257.612 202.625 257.883 202.81 258.057 203.1C258.233 203.387 258.322 203.698 258.322 204.035C258.322 204.368 258.233 204.68 258.057 204.97C257.883 205.26 257.612 205.443 257.242 205.52C257.168 205.537 257.09 205.548 257.007 205.555C256.927 205.562 256.857 205.565 256.797 205.565H254.772ZM262.63 209.15C263.154 209.15 263.622 209.022 264.035 208.765C264.452 208.508 264.767 208.143 264.98 207.67L264.295 207.405C263.952 208.098 263.387 208.445 262.6 208.445C262.06 208.445 261.637 208.277 261.33 207.94C261.027 207.603 260.86 207.125 260.83 206.505H265.085C265.112 205.552 264.904 204.805 264.46 204.265C264.02 203.722 263.4 203.45 262.6 203.45C262.08 203.45 261.629 203.567 261.245 203.8C260.865 204.033 260.57 204.365 260.36 204.795C260.15 205.225 260.045 205.735 260.045 206.325C260.045 206.895 260.15 207.392 260.36 207.815C260.574 208.238 260.874 208.567 261.26 208.8C261.65 209.033 262.107 209.15 262.63 209.15ZM262.62 204.125C263.637 204.125 264.202 204.713 264.315 205.89H260.845C260.902 205.32 261.082 204.883 261.385 204.58C261.689 204.277 262.1 204.125 262.62 204.125ZM267.15 209H267.79L269.135 204.7L270.485 209H271.125L272.775 203.6H272.045L270.755 207.795L269.47 203.6H268.8L267.515 207.795L266.235 203.6L265.5 203.595L267.15 209ZM274.918 209.15C275.861 209.15 276.546 208.802 276.973 208.105V209H277.628V205.645C277.628 205.445 277.618 205.248 277.598 205.055C277.578 204.862 277.534 204.687 277.468 204.53C277.324 204.18 277.079 203.913 276.733 203.73C276.389 203.543 275.971 203.45 275.478 203.45C274.884 203.45 274.401 203.583 274.028 203.85C273.654 204.117 273.404 204.492 273.278 204.975L273.993 205.185C274.096 204.825 274.274 204.562 274.528 204.395C274.784 204.228 275.098 204.145 275.468 204.145C275.981 204.145 276.348 204.265 276.568 204.505C276.788 204.742 276.901 205.103 276.908 205.59C276.668 205.623 276.403 205.658 276.113 205.695C275.826 205.732 275.538 205.773 275.248 205.82C274.958 205.867 274.691 205.92 274.448 205.98C274.044 206.087 273.714 206.265 273.458 206.515C273.201 206.762 273.073 207.107 273.073 207.55C273.073 207.837 273.141 208.102 273.278 208.345C273.414 208.588 273.619 208.783 273.893 208.93C274.169 209.077 274.511 209.15 274.918 209.15ZM275.003 208.515C274.713 208.515 274.479 208.468 274.303 208.375C274.129 208.278 274.003 208.157 273.923 208.01C273.846 207.86 273.808 207.707 273.808 207.55C273.808 207.257 273.906 207.037 274.103 206.89C274.299 206.743 274.513 206.637 274.743 206.57C275.039 206.49 275.384 206.425 275.778 206.375C276.171 206.325 276.544 206.278 276.898 206.235C276.898 206.358 276.893 206.5 276.883 206.66C276.876 206.817 276.858 206.962 276.828 207.095C276.758 207.502 276.564 207.84 276.248 208.11C275.934 208.38 275.519 208.515 275.003 208.515ZM278.929 209H279.664V206.305C279.664 205.982 279.701 205.66 279.774 205.34C279.851 205.017 280.024 204.748 280.294 204.535C280.491 204.375 280.704 204.283 280.934 204.26C281.168 204.233 281.384 204.243 281.584 204.29V203.6C281.348 203.54 281.079 203.538 280.779 203.595C280.479 203.648 280.223 203.768 280.009 203.955C279.849 204.075 279.709 204.242 279.589 204.455V203.6H278.929V209ZM284.53 209.15C284.924 209.15 285.269 209.07 285.565 208.91C285.862 208.747 286.107 208.525 286.3 208.245V209H286.96V201.8H286.22V204.235C286.024 203.988 285.78 203.797 285.49 203.66C285.204 203.52 284.874 203.45 284.5 203.45C284.007 203.45 283.584 203.575 283.23 203.825C282.877 204.075 282.605 204.415 282.415 204.845C282.229 205.275 282.135 205.758 282.135 206.295C282.135 206.835 282.229 207.32 282.415 207.75C282.605 208.18 282.879 208.522 283.235 208.775C283.595 209.025 284.027 209.15 284.53 209.15ZM284.605 208.465C284.232 208.465 283.919 208.37 283.665 208.18C283.415 207.987 283.227 207.727 283.1 207.4C282.977 207.073 282.915 206.705 282.915 206.295C282.915 205.888 282.977 205.522 283.1 205.195C283.224 204.868 283.41 204.61 283.66 204.42C283.914 204.23 284.234 204.135 284.62 204.135C285.184 204.135 285.604 204.337 285.88 204.74C286.16 205.14 286.3 205.658 286.3 206.295C286.3 206.712 286.239 207.083 286.115 207.41C285.992 207.737 285.805 207.995 285.555 208.185C285.305 208.372 284.989 208.465 284.605 208.465ZM259.321 225H260.056V218.505H262.571V217.8H256.806V218.505H259.321V225ZM264.827 225.15C265.36 225.15 265.817 225.03 266.197 224.79C266.58 224.55 266.874 224.217 267.077 223.79C267.284 223.36 267.387 222.862 267.387 222.295C267.387 221.738 267.285 221.247 267.082 220.82C266.882 220.39 266.59 220.055 266.207 219.815C265.827 219.572 265.367 219.45 264.827 219.45C264.3 219.45 263.845 219.57 263.462 219.81C263.082 220.047 262.789 220.378 262.582 220.805C262.375 221.232 262.272 221.728 262.272 222.295C262.272 222.852 262.372 223.345 262.572 223.775C262.775 224.205 263.067 224.542 263.447 224.785C263.83 225.028 264.29 225.15 264.827 225.15ZM264.827 224.445C264.244 224.445 263.802 224.25 263.502 223.86C263.202 223.467 263.052 222.945 263.052 222.295C263.052 221.665 263.197 221.152 263.487 220.755C263.777 220.355 264.224 220.155 264.827 220.155C265.424 220.155 265.869 220.35 266.162 220.74C266.459 221.127 266.607 221.645 266.607 222.295C266.607 222.932 266.46 223.45 266.167 223.85C265.874 224.247 265.427 224.445 264.827 224.445ZM268.485 225H269.23V222.4L271.88 225H272.95L270.09 222.3L272.62 219.6H271.64L269.23 222.2V217.8H268.49L268.485 225ZM275.638 225.15C276.161 225.15 276.63 225.022 277.043 224.765C277.46 224.508 277.775 224.143 277.988 223.67L277.303 223.405C276.96 224.098 276.395 224.445 275.608 224.445C275.068 224.445 274.645 224.277 274.338 223.94C274.035 223.603 273.868 223.125 273.838 222.505H278.093C278.12 221.552 277.911 220.805 277.468 220.265C277.028 219.722 276.408 219.45 275.608 219.45C275.088 219.45 274.636 219.567 274.253 219.8C273.873 220.033 273.578 220.365 273.368 220.795C273.158 221.225 273.053 221.735 273.053 222.325C273.053 222.895 273.158 223.392 273.368 223.815C273.581 224.238 273.881 224.567 274.268 224.8C274.658 225.033 275.115 225.15 275.638 225.15ZM275.628 220.125C276.645 220.125 277.21 220.713 277.323 221.89H273.853C273.91 221.32 274.09 220.883 274.393 220.58C274.696 220.277 275.108 220.125 275.628 220.125ZM279.051 225H279.791V222.12C279.791 221.51 279.928 221.032 280.201 220.685C280.475 220.338 280.871 220.165 281.391 220.165C281.768 220.165 282.071 220.257 282.301 220.44C282.531 220.62 282.698 220.867 282.801 221.18C282.905 221.493 282.956 221.848 282.956 222.245V225H283.696V222.03C283.696 221.727 283.658 221.423 283.581 221.12C283.508 220.817 283.388 220.54 283.221 220.29C283.055 220.04 282.833 219.84 282.556 219.69C282.28 219.54 281.938 219.465 281.531 219.465C281.145 219.465 280.795 219.54 280.481 219.69C280.171 219.837 279.916 220.057 279.716 220.35V219.6H279.051V225Z" fill="white"/>
<g filter="url(#filter3_bd)">
<path d="M236.766 33.766H303.234V100.234H236.766V33.766Z" fill="#89586D"/>
</g>
<path d="M253.537 63H254.272V60.265H256.572L257.897 63H258.742L257.322 60.085C257.725 59.9217 258.035 59.6567 258.252 59.29C258.468 58.9233 258.577 58.505 258.577 58.035C258.577 57.4717 258.425 56.9867 258.122 56.58C257.818 56.1733 257.385 55.9267 256.822 55.84C256.732 55.8233 256.642 55.8133 256.552 55.81C256.465 55.8033 256.387 55.8 256.317 55.8H253.537V63ZM254.272 59.565V56.505H256.297C256.357 56.505 256.427 56.5083 256.507 56.515C256.59 56.5183 256.668 56.5283 256.742 56.545C257.112 56.625 257.383 56.81 257.557 57.1C257.733 57.3867 257.822 57.6983 257.822 58.035C257.822 58.3683 257.733 58.68 257.557 58.97C257.383 59.26 257.112 59.4433 256.742 59.52C256.668 59.5367 256.59 59.5483 256.507 59.555C256.427 59.5617 256.357 59.565 256.297 59.565H254.272ZM262.13 63.15C262.654 63.15 263.122 63.0217 263.535 62.765C263.952 62.5083 264.267 62.1433 264.48 61.67L263.795 61.405C263.452 62.0983 262.887 62.445 262.1 62.445C261.56 62.445 261.137 62.2767 260.83 61.94C260.527 61.6033 260.36 61.125 260.33 60.505H264.585C264.612 59.5517 264.404 58.805 263.96 58.265C263.52 57.7217 262.9 57.45 262.1 57.45C261.58 57.45 261.129 57.5667 260.745 57.8C260.365 58.0333 260.07 58.365 259.86 58.795C259.65 59.225 259.545 59.735 259.545 60.325C259.545 60.895 259.65 61.3917 259.86 61.815C260.074 62.2383 260.374 62.5667 260.76 62.8C261.15 63.0333 261.607 63.15 262.13 63.15ZM262.12 58.125C263.137 58.125 263.702 58.7133 263.815 59.89H260.345C260.402 59.32 260.582 58.8833 260.885 58.58C261.189 58.2767 261.6 58.125 262.12 58.125ZM266.65 63H267.29L268.635 58.7L269.985 63H270.625L272.275 57.6H271.545L270.255 61.795L268.97 57.6H268.3L267.015 61.795L265.735 57.6L265 57.595L266.65 63ZM274.418 63.15C275.361 63.15 276.046 62.8017 276.473 62.105V63H277.128V59.645C277.128 59.445 277.118 59.2483 277.098 59.055C277.078 58.8617 277.034 58.6867 276.968 58.53C276.824 58.18 276.579 57.9133 276.233 57.73C275.889 57.5433 275.471 57.45 274.978 57.45C274.384 57.45 273.901 57.5833 273.528 57.85C273.154 58.1167 272.904 58.4917 272.778 58.975L273.493 59.185C273.596 58.825 273.774 58.5617 274.028 58.395C274.284 58.2283 274.598 58.145 274.968 58.145C275.481 58.145 275.848 58.265 276.068 58.505C276.288 58.7417 276.401 59.1033 276.408 59.59C276.168 59.6233 275.903 59.6583 275.613 59.695C275.326 59.7317 275.038 59.7733 274.748 59.82C274.458 59.8667 274.191 59.92 273.948 59.98C273.544 60.0867 273.214 60.265 272.958 60.515C272.701 60.7617 272.573 61.1067 272.573 61.55C272.573 61.8367 272.641 62.1017 272.778 62.345C272.914 62.5883 273.119 62.7833 273.393 62.93C273.669 63.0767 274.011 63.15 274.418 63.15ZM274.503 62.515C274.213 62.515 273.979 62.4683 273.803 62.375C273.629 62.2783 273.503 62.1567 273.423 62.01C273.346 61.86 273.308 61.7067 273.308 61.55C273.308 61.2567 273.406 61.0367 273.603 60.89C273.799 60.7433 274.013 60.6367 274.243 60.57C274.539 60.49 274.884 60.425 275.278 60.375C275.671 60.325 276.044 60.2783 276.398 60.235C276.398 60.3583 276.393 60.5 276.383 60.66C276.376 60.8167 276.358 60.9617 276.328 61.095C276.258 61.5017 276.064 61.84 275.748 62.11C275.434 62.38 275.019 62.515 274.503 62.515ZM278.429 63H279.164V60.305C279.164 59.9817 279.201 59.66 279.274 59.34C279.351 59.0167 279.524 58.7483 279.794 58.535C279.991 58.375 280.204 58.2833 280.434 58.26C280.668 58.2333 280.884 58.2433 281.084 58.29V57.6C280.848 57.54 280.579 57.5383 280.279 57.595C279.979 57.6483 279.723 57.7683 279.509 57.955C279.349 58.075 279.209 58.2417 279.089 58.455V57.6H278.429V63ZM284.03 63.15C284.423 63.15 284.768 63.07 285.065 62.91C285.362 62.7467 285.607 62.525 285.8 62.245V63H286.46V55.8H285.72V58.235C285.523 57.9883 285.28 57.7967 284.99 57.66C284.703 57.52 284.373 57.45 284 57.45C283.507 57.45 283.083 57.575 282.73 57.825C282.377 58.075 282.105 58.415 281.915 58.845C281.728 59.275 281.635 59.7583 281.635 60.295C281.635 60.835 281.728 61.32 281.915 61.75C282.105 62.18 282.378 62.5217 282.735 62.775C283.095 63.025 283.527 63.15 284.03 63.15ZM284.105 62.465C283.732 62.465 283.418 62.37 283.165 62.18C282.915 61.9867 282.727 61.7267 282.6 61.4C282.477 61.0733 282.415 60.705 282.415 60.295C282.415 59.8883 282.477 59.5217 282.6 59.195C282.723 58.8683 282.91 58.61 283.16 58.42C283.413 58.23 283.733 58.135 284.12 58.135C284.683 58.135 285.103 58.3367 285.38 58.74C285.66 59.14 285.8 59.6583 285.8 60.295C285.8 60.7117 285.738 61.0833 285.615 61.41C285.492 61.7367 285.305 61.995 285.055 62.185C284.805 62.3717 284.488 62.465 284.105 62.465ZM251.286 79H252.021V76.265H254.066C254.132 76.265 254.211 76.2617 254.301 76.255C254.391 76.2483 254.481 76.2383 254.571 76.225C255.131 76.1383 255.562 75.8917 255.866 75.485C256.172 75.0783 256.326 74.595 256.326 74.035C256.326 73.4717 256.174 72.9867 255.871 72.58C255.567 72.1733 255.134 71.9267 254.571 71.84C254.481 71.8233 254.391 71.8133 254.301 71.81C254.214 71.8033 254.136 71.8 254.066 71.8H251.286V79ZM252.021 75.565V72.505H254.046C254.106 72.505 254.176 72.5083 254.256 72.515C254.339 72.5183 254.417 72.5283 254.491 72.545C254.861 72.625 255.132 72.81 255.306 73.1C255.482 73.3867 255.571 73.6983 255.571 74.035C255.571 74.3683 255.482 74.68 255.306 74.97C255.132 75.26 254.861 75.4433 254.491 75.52C254.417 75.5367 254.339 75.5483 254.256 75.555C254.176 75.5617 254.106 75.565 254.046 75.565H252.021ZM257.321 79H258.056V76.305C258.056 75.9817 258.093 75.66 258.166 75.34C258.243 75.0167 258.416 74.7483 258.686 74.535C258.883 74.375 259.096 74.2833 259.326 74.26C259.559 74.2333 259.776 74.2433 259.976 74.29V73.6C259.739 73.54 259.471 73.5383 259.171 73.595C258.871 73.6483 258.614 73.7683 258.401 73.955C258.241 74.075 258.101 74.2417 257.981 74.455V73.6H257.321V79ZM263.082 79.15C263.615 79.15 264.072 79.03 264.452 78.79C264.835 78.55 265.128 78.2167 265.332 77.79C265.538 77.36 265.642 76.8617 265.642 76.295C265.642 75.7383 265.54 75.2467 265.337 74.82C265.137 74.39 264.845 74.055 264.462 73.815C264.082 73.5717 263.622 73.45 263.082 73.45C262.555 73.45 262.1 73.57 261.717 73.81C261.337 74.0467 261.043 74.3783 260.837 74.805C260.63 75.2317 260.527 75.7283 260.527 76.295C260.527 76.8517 260.627 77.345 260.827 77.775C261.03 78.205 261.322 78.5417 261.702 78.785C262.085 79.0283 262.545 79.15 263.082 79.15ZM263.082 78.445C262.498 78.445 262.057 78.25 261.757 77.86C261.457 77.4667 261.307 76.945 261.307 76.295C261.307 75.665 261.452 75.1517 261.742 74.755C262.032 74.355 262.478 74.155 263.082 74.155C263.678 74.155 264.123 74.35 264.417 74.74C264.713 75.1267 264.862 75.645 264.862 76.295C264.862 76.9317 264.715 77.45 264.422 77.85C264.128 78.2467 263.682 78.445 263.082 78.445ZM269.685 79V78.355C269.298 78.4183 268.973 78.4283 268.71 78.385C268.45 78.3417 268.26 78.2083 268.14 77.985C268.076 77.8683 268.041 77.735 268.035 77.585C268.031 77.4317 268.03 77.2417 268.03 77.015V74.23H269.685V73.6H268.03V72.1H267.3V73.6H266.145V74.23H267.3V77.045C267.3 77.3083 267.303 77.5433 267.31 77.75C267.32 77.9567 267.373 78.1583 267.47 78.355C267.59 78.595 267.765 78.7717 267.995 78.885C268.228 78.9983 268.491 79.0617 268.785 79.075C269.081 79.0883 269.381 79.0633 269.685 79ZM272.808 79.15C273.342 79.15 273.798 79.03 274.178 78.79C274.562 78.55 274.855 78.2167 275.058 77.79C275.265 77.36 275.368 76.8617 275.368 76.295C275.368 75.7383 275.267 75.2467 275.063 74.82C274.863 74.39 274.572 74.055 274.188 73.815C273.808 73.5717 273.348 73.45 272.808 73.45C272.282 73.45 271.827 73.57 271.443 73.81C271.063 74.0467 270.77 74.3783 270.563 74.805C270.357 75.2317 270.253 75.7283 270.253 76.295C270.253 76.8517 270.353 77.345 270.553 77.775C270.757 78.205 271.048 78.5417 271.428 78.785C271.812 79.0283 272.272 79.15 272.808 79.15ZM272.808 78.445C272.225 78.445 271.783 78.25 271.483 77.86C271.183 77.4667 271.033 76.945 271.033 76.295C271.033 75.665 271.178 75.1517 271.468 74.755C271.758 74.355 272.205 74.155 272.808 74.155C273.405 74.155 273.85 74.35 274.143 74.74C274.44 75.1267 274.588 75.645 274.588 76.295C274.588 76.9317 274.442 77.45 274.148 77.85C273.855 78.2467 273.408 78.445 272.808 78.445ZM278.711 79.15C279.248 79.15 279.708 79.025 280.091 78.775C280.478 78.5217 280.773 78.155 280.976 77.675L280.236 77.455C279.963 78.115 279.455 78.445 278.711 78.445C278.131 78.445 277.695 78.25 277.401 77.86C277.108 77.4667 276.958 76.9467 276.951 76.3C276.958 75.67 277.103 75.155 277.386 74.755C277.673 74.355 278.115 74.155 278.711 74.155C279.065 74.155 279.378 74.245 279.651 74.425C279.928 74.6017 280.13 74.8517 280.256 75.175L280.976 74.945C280.826 74.4817 280.548 74.1167 280.141 73.85C279.738 73.5833 279.263 73.45 278.716 73.45C278.18 73.45 277.723 73.57 277.346 73.81C276.97 74.0467 276.681 74.38 276.481 74.81C276.281 75.2367 276.178 75.7333 276.171 76.3C276.178 76.8533 276.278 77.345 276.471 77.775C276.668 78.205 276.955 78.5417 277.331 78.785C277.708 79.0283 278.168 79.15 278.711 79.15ZM284.117 79.15C284.65 79.15 285.107 79.03 285.487 78.79C285.87 78.55 286.164 78.2167 286.367 77.79C286.574 77.36 286.677 76.8617 286.677 76.295C286.677 75.7383 286.575 75.2467 286.372 74.82C286.172 74.39 285.88 74.055 285.497 73.815C285.117 73.5717 284.657 73.45 284.117 73.45C283.59 73.45 283.135 73.57 282.752 73.81C282.372 74.0467 282.079 74.3783 281.872 74.805C281.665 75.2317 281.562 75.7283 281.562 76.295C281.562 76.8517 281.662 77.345 281.862 77.775C282.065 78.205 282.357 78.5417 282.737 78.785C283.12 79.0283 283.58 79.15 284.117 79.15ZM284.117 78.445C283.534 78.445 283.092 78.25 282.792 77.86C282.492 77.4667 282.342 76.945 282.342 76.295C282.342 75.665 282.487 75.1517 282.777 74.755C283.067 74.355 283.514 74.155 284.117 74.155C284.714 74.155 285.159 74.35 285.452 74.74C285.749 75.1267 285.897 75.645 285.897 76.295C285.897 76.9317 285.75 77.45 285.457 77.85C285.164 78.2467 284.717 78.445 284.117 78.445ZM287.88 79H288.615V71.65H287.88V79Z" fill="white"/>
<defs>
<filter id="filter0_bd" x="-6" y="3" width="128" height="132" filterUnits="userSpaceOnUse" color-interpolation-filters="sRGB">
<feFlood flood-opacity="0" result="BackgroundImageFix"/>
<feGaussianBlur in="BackgroundImage" stdDeviation="8"/>
<feComposite in2="SourceAlpha" operator="in" result="effect1_backgroundBlur"/>
<feColorMatrix in="SourceAlpha" type="matrix" values="0 0 0 0 0 0 0 0 0 0 0 0 0 0 0 0 0 0 127 0"/>
<feOffset dy="10"/>
<feGaussianBlur stdDeviation="5"/>
<feColorMatrix type="matrix" values="0 0 0 0 0.0823529 0 0 0 0 0.0784314 0 0 0 0 0.0823529 0 0 0 0.44 0"/>
<feBlend mode="normal" in2="effect1_backgroundBlur" result="effect2_dropShadow"/>
<feBlend mode="normal" in="SourceGraphic" in2="effect2_dropShadow" result="shape"/>
</filter>
<filter id="filter1_bd" x="-6" y="164" width="128" height="102" filterUnits="userSpaceOnUse" color-interpolation-filters="sRGB">
<feFlood flood-opacity="0" result="BackgroundImageFix"/>
<feGaussianBlur in="BackgroundImage" stdDeviation="8"/>
<feComposite in2="SourceAlpha" operator="in" result="effect1_backgroundBlur"/>
<feColorMatrix in="SourceAlpha" type="matrix" values="0 0 0 0 0 0 0 0 0 0 0 0 0 0 0 0 0 0 127 0"/>
<feOffset dy="10"/>
<feGaussianBlur stdDeviation="5"/>
<feColorMatrix type="matrix" values="0 0 0 0 0.0823529 0 0 0 0 0.0784314 0 0 0 0 0.0823529 0 0 0 0.44 0"/>
<feBlend mode="normal" in2="effect1_backgroundBlur" result="effect2_dropShadow"/>
<feBlend mode="normal" in="SourceGraphic" in2="effect2_dropShadow" result="shape"/>
</filter>
<filter id="filter2_bd" x="207" y="150" width="126" height="130" filterUnits="userSpaceOnUse" color-interpolation-filters="sRGB">
<feFlood flood-opacity="0" result="BackgroundImageFix"/>
<feGaussianBlur in="BackgroundImage" stdDeviation="8"/>
<feComposite in2="SourceAlpha" operator="in" result="effect1_backgroundBlur"/>
<feColorMatrix in="SourceAlpha" type="matrix" values="0 0 0 0 0 0 0 0 0 0 0 0 0 0 0 0 0 0 127 0"/>
<feOffset dy="10"/>
<feGaussianBlur stdDeviation="5"/>
<feColorMatrix type="matrix" values="0 0 0 0 0.0823529 0 0 0 0 0.0784314 0 0 0 0 0.0823529 0 0 0 0.44 0"/>
<feBlend mode="normal" in2="effect1_backgroundBlur" result="effect2_dropShadow"/>
<feBlend mode="normal" in="SourceGraphic" in2="effect2_dropShadow" result="shape"/>
</filter>
<filter id="filter3_bd" x="187.532" y="-15.4678" width="164.936" height="168.936" filterUnits="userSpaceOnUse" color-interpolation-filters="sRGB">
<feFlood flood-opacity="0" result="BackgroundImageFix"/>
<feGaussianBlur in="BackgroundImage" stdDeviation="8"/>
<feComposite in2="SourceAlpha" operator="in" result="effect1_backgroundBlur"/>
<feColorMatrix in="SourceAlpha" type="matrix" values="0 0 0 0 0 0 0 0 0 0 0 0 0 0 0 0 0 0 127 0"/>
<feOffset dy="10"/>
<feGaussianBlur stdDeviation="5"/>
<feColorMatrix type="matrix" values="0 0 0 0 0.0823529 0 0 0 0 0.0784314 0 0 0 0 0.0823529 0 0 0 0.44 0"/>
<feBlend mode="normal" in2="effect1_backgroundBlur" result="effect2_dropShadow"/>
<feBlend mode="normal" in="SourceGraphic" in2="effect2_dropShadow" result="shape"/>
</filter>
<linearGradient id="paint0_linear" x1="250.679" y1="222.324" x2="69.9987" y2="222.969" gradientUnits="userSpaceOnUse">
<stop stop-color="#13CDF9"/>
<stop offset="1" stop-color="#F78774"/>
</linearGradient>
<linearGradient id="paint1_linear" x1="270" y1="118" x2="269.976" y2="153.001" gradientUnits="userSpaceOnUse">
<stop stop-color="#13CDF9"/>
<stop offset="1" stop-color="#F78774"/>
</linearGradient>
<linearGradient id="paint2_linear" x1="252.496" y1="187.63" x2="95.7003" y2="97.8484" gradientUnits="userSpaceOnUse">
<stop stop-color="#13CDF9"/>
<stop offset="1" stop-color="#F78774"/>
</linearGradient>
<linearGradient id="paint3_linear" x1="126" y1="67" x2="206.001" y2="67.1264" gradientUnits="userSpaceOnUse">
<stop stop-color="#13CDF9"/>
<stop offset="1" stop-color="#F78774"/>
</linearGradient>
<linearGradient id="paint4_linear" x1="10" y1="19" x2="76.4699" y2="132.321" gradientUnits="userSpaceOnUse">
<stop stop-color="#857370"/>
<stop offset="1" stop-color="#563440"/>
</linearGradient>
<linearGradient id="paint5_linear" x1="10" y1="180" x2="46.3203" y2="270.066" gradientUnits="userSpaceOnUse">
<stop stop-color="#857370"/>
<stop offset="1" stop-color="#563440"/>
</linearGradient>
</defs>
</svg>
