<svg width="984" height="224" viewBox="0 0 984 224" fill="none" xmlns="http://www.w3.org/2000/svg">
<rect width="984" height="224" fill="#E5E5E5"/>
<rect width="984" height="224" fill="#111112"/>
<path d="M283.283 108H287.438V107.295H284.018V100.8H283.283V108ZM288.391 101.575H289.126V100.75H288.391V101.575ZM288.391 108H289.126V102.6H288.391V108ZM292.72 108.15C293.086 108.15 293.411 108.08 293.695 107.94C293.978 107.797 294.216 107.602 294.41 107.355V110.4H295.15V102.6H294.49V103.345C294.293 103.065 294.043 102.847 293.74 102.69C293.44 102.53 293.09 102.45 292.69 102.45C292.196 102.45 291.773 102.575 291.42 102.825C291.066 103.075 290.795 103.415 290.605 103.845C290.418 104.275 290.325 104.758 290.325 105.295C290.325 105.835 290.418 106.32 290.605 106.75C290.795 107.18 291.068 107.522 291.425 107.775C291.785 108.025 292.216 108.15 292.72 108.15ZM292.795 107.465C292.421 107.465 292.108 107.37 291.855 107.18C291.605 106.987 291.416 106.727 291.29 106.4C291.166 106.073 291.105 105.705 291.105 105.295C291.105 104.888 291.166 104.522 291.29 104.195C291.413 103.868 291.6 103.61 291.85 103.42C292.103 103.23 292.423 103.135 292.81 103.135C293.373 103.135 293.793 103.337 294.07 103.74C294.35 104.14 294.49 104.658 294.49 105.295C294.49 105.712 294.428 106.083 294.305 106.41C294.181 106.737 293.995 106.995 293.745 107.185C293.495 107.372 293.178 107.465 292.795 107.465ZM298.618 108.135C299.004 108.135 299.353 108.062 299.663 107.915C299.976 107.765 300.233 107.543 300.433 107.25V108H301.093V102.6H300.358V105.48C300.358 106.09 300.221 106.568 299.948 106.915C299.674 107.262 299.278 107.435 298.758 107.435C298.381 107.435 298.078 107.345 297.848 107.165C297.618 106.982 297.451 106.733 297.348 106.42C297.244 106.107 297.193 105.752 297.193 105.355V102.6H296.453V105.57C296.453 105.873 296.489 106.177 296.563 106.48C296.639 106.783 296.761 107.06 296.928 107.31C297.094 107.56 297.316 107.76 297.593 107.91C297.873 108.06 298.214 108.135 298.618 108.135ZM302.59 101.575H303.325V100.75H302.59V101.575ZM302.59 108H303.325V102.6H302.59V108ZM306.919 108.15C307.312 108.15 307.657 108.07 307.954 107.91C308.251 107.747 308.496 107.525 308.689 107.245V108H309.349V100.8H308.609V103.235C308.412 102.988 308.169 102.797 307.879 102.66C307.592 102.52 307.262 102.45 306.889 102.45C306.396 102.45 305.972 102.575 305.619 102.825C305.266 103.075 304.994 103.415 304.804 103.845C304.617 104.275 304.524 104.758 304.524 105.295C304.524 105.835 304.617 106.32 304.804 106.75C304.994 107.18 305.267 107.522 305.624 107.775C305.984 108.025 306.416 108.15 306.919 108.15ZM306.994 107.465C306.621 107.465 306.307 107.37 306.054 107.18C305.804 106.987 305.616 106.727 305.489 106.4C305.366 106.073 305.304 105.705 305.304 105.295C305.304 104.888 305.366 104.522 305.489 104.195C305.612 103.868 305.799 103.61 306.049 103.42C306.302 103.23 306.622 103.135 307.009 103.135C307.572 103.135 307.992 103.337 308.269 103.74C308.549 104.14 308.689 104.658 308.689 105.295C308.689 105.712 308.627 106.083 308.504 106.41C308.381 106.737 308.194 106.995 307.944 107.185C307.694 107.372 307.377 107.465 306.994 107.465ZM310.852 101.575H311.587V100.75H310.852V101.575ZM310.852 108H311.587V102.6H310.852V108ZM316.026 108V107.355C315.639 107.418 315.314 107.428 315.051 107.385C314.791 107.342 314.601 107.208 314.481 106.985C314.417 106.868 314.382 106.735 314.376 106.585C314.372 106.432 314.371 106.242 314.371 106.015V103.23H316.026V102.6H314.371V101.1H313.641V102.6H312.486V103.23H313.641V106.045C313.641 106.308 313.644 106.543 313.651 106.75C313.661 106.957 313.714 107.158 313.811 107.355C313.931 107.595 314.106 107.772 314.336 107.885C314.569 107.998 314.832 108.062 315.126 108.075C315.422 108.088 315.722 108.063 316.026 108ZM317.713 110.4H318.448L321.348 102.6H320.598L318.963 107.04L317.188 102.6H316.408L318.603 107.985L317.713 110.4ZM289.668 124H290.403V121.265H292.448C292.514 121.265 292.593 121.262 292.683 121.255C292.773 121.248 292.863 121.238 292.953 121.225C293.513 121.138 293.944 120.892 294.248 120.485C294.554 120.078 294.708 119.595 294.708 119.035C294.708 118.472 294.556 117.987 294.253 117.58C293.949 117.173 293.516 116.927 292.953 116.84C292.863 116.823 292.773 116.813 292.683 116.81C292.596 116.803 292.518 116.8 292.448 116.8H289.668V124ZM290.403 120.565V117.505H292.428C292.488 117.505 292.558 117.508 292.638 117.515C292.721 117.518 292.799 117.528 292.873 117.545C293.243 117.625 293.514 117.81 293.688 118.1C293.864 118.387 293.953 118.698 293.953 119.035C293.953 119.368 293.864 119.68 293.688 119.97C293.514 120.26 293.243 120.443 292.873 120.52C292.799 120.537 292.721 120.548 292.638 120.555C292.558 120.562 292.488 120.565 292.428 120.565H290.403ZM297.919 124.15C298.452 124.15 298.909 124.03 299.289 123.79C299.672 123.55 299.966 123.217 300.169 122.79C300.376 122.36 300.479 121.862 300.479 121.295C300.479 120.738 300.377 120.247 300.174 119.82C299.974 119.39 299.682 119.055 299.299 118.815C298.919 118.572 298.459 118.45 297.919 118.45C297.392 118.45 296.937 118.57 296.554 118.81C296.174 119.047 295.881 119.378 295.674 119.805C295.467 120.232 295.364 120.728 295.364 121.295C295.364 121.852 295.464 122.345 295.664 122.775C295.867 123.205 296.159 123.542 296.539 123.785C296.922 124.028 297.382 124.15 297.919 124.15ZM297.919 123.445C297.336 123.445 296.894 123.25 296.594 122.86C296.294 122.467 296.144 121.945 296.144 121.295C296.144 120.665 296.289 120.152 296.579 119.755C296.869 119.355 297.316 119.155 297.919 119.155C298.516 119.155 298.961 119.35 299.254 119.74C299.551 120.127 299.699 120.645 299.699 121.295C299.699 121.932 299.552 122.45 299.259 122.85C298.966 123.247 298.519 123.445 297.919 123.445ZM303.837 124.15C304.37 124.15 304.827 124.03 305.207 123.79C305.59 123.55 305.884 123.217 306.087 122.79C306.294 122.36 306.397 121.862 306.397 121.295C306.397 120.738 306.295 120.247 306.092 119.82C305.892 119.39 305.6 119.055 305.217 118.815C304.837 118.572 304.377 118.45 303.837 118.45C303.31 118.45 302.855 118.57 302.472 118.81C302.092 119.047 301.799 119.378 301.592 119.805C301.385 120.232 301.282 120.728 301.282 121.295C301.282 121.852 301.382 122.345 301.582 122.775C301.785 123.205 302.077 123.542 302.457 123.785C302.84 124.028 303.3 124.15 303.837 124.15ZM303.837 123.445C303.254 123.445 302.812 123.25 302.512 122.86C302.212 122.467 302.062 121.945 302.062 121.295C302.062 120.665 302.207 120.152 302.497 119.755C302.787 119.355 303.234 119.155 303.837 119.155C304.434 119.155 304.879 119.35 305.172 119.74C305.469 120.127 305.617 120.645 305.617 121.295C305.617 121.932 305.47 122.45 305.177 122.85C304.884 123.247 304.437 123.445 303.837 123.445ZM307.6 124H308.335V116.65H307.6V124ZM313.091 124H313.836V116.8H313.091L311.736 117.61V118.435L313.091 117.62V124Z" fill="white"/>
<circle cx="302" cy="112" r="41.5" stroke="#13CDF9"/>
<path d="M663.283 108H667.438V107.295H664.018V100.8H663.283V108ZM668.391 101.575H669.126V100.75H668.391V101.575ZM668.391 108H669.126V102.6H668.391V108ZM672.72 108.15C673.086 108.15 673.411 108.08 673.695 107.94C673.978 107.797 674.216 107.602 674.41 107.355V110.4H675.15V102.6H674.49V103.345C674.293 103.065 674.043 102.847 673.74 102.69C673.44 102.53 673.09 102.45 672.69 102.45C672.196 102.45 671.773 102.575 671.42 102.825C671.066 103.075 670.795 103.415 670.605 103.845C670.418 104.275 670.325 104.758 670.325 105.295C670.325 105.835 670.418 106.32 670.605 106.75C670.795 107.18 671.068 107.522 671.425 107.775C671.785 108.025 672.216 108.15 672.72 108.15ZM672.795 107.465C672.421 107.465 672.108 107.37 671.855 107.18C671.605 106.987 671.416 106.727 671.29 106.4C671.166 106.073 671.105 105.705 671.105 105.295C671.105 104.888 671.166 104.522 671.29 104.195C671.413 103.868 671.6 103.61 671.85 103.42C672.103 103.23 672.423 103.135 672.81 103.135C673.373 103.135 673.793 103.337 674.07 103.74C674.35 104.14 674.49 104.658 674.49 105.295C674.49 105.712 674.428 106.083 674.305 106.41C674.181 106.737 673.995 106.995 673.745 107.185C673.495 107.372 673.178 107.465 672.795 107.465ZM678.618 108.135C679.004 108.135 679.353 108.062 679.663 107.915C679.976 107.765 680.233 107.543 680.433 107.25V108H681.093V102.6H680.358V105.48C680.358 106.09 680.221 106.568 679.948 106.915C679.674 107.262 679.278 107.435 678.758 107.435C678.381 107.435 678.078 107.345 677.848 107.165C677.618 106.982 677.451 106.733 677.348 106.42C677.244 106.107 677.193 105.752 677.193 105.355V102.6H676.453V105.57C676.453 105.873 676.489 106.177 676.563 106.48C676.639 106.783 676.761 107.06 676.928 107.31C677.094 107.56 677.316 107.76 677.593 107.91C677.873 108.06 678.214 108.135 678.618 108.135ZM682.59 101.575H683.325V100.75H682.59V101.575ZM682.59 108H683.325V102.6H682.59V108ZM686.919 108.15C687.312 108.15 687.657 108.07 687.954 107.91C688.251 107.747 688.496 107.525 688.689 107.245V108H689.349V100.8H688.609V103.235C688.412 102.988 688.169 102.797 687.879 102.66C687.592 102.52 687.262 102.45 686.889 102.45C686.396 102.45 685.972 102.575 685.619 102.825C685.266 103.075 684.994 103.415 684.804 103.845C684.617 104.275 684.524 104.758 684.524 105.295C684.524 105.835 684.617 106.32 684.804 106.75C684.994 107.18 685.267 107.522 685.624 107.775C685.984 108.025 686.416 108.15 686.919 108.15ZM686.994 107.465C686.621 107.465 686.307 107.37 686.054 107.18C685.804 106.987 685.616 106.727 685.489 106.4C685.366 106.073 685.304 105.705 685.304 105.295C685.304 104.888 685.366 104.522 685.489 104.195C685.612 103.868 685.799 103.61 686.049 103.42C686.302 103.23 686.622 103.135 687.009 103.135C687.572 103.135 687.992 103.337 688.269 103.74C688.549 104.14 688.689 104.658 688.689 105.295C688.689 105.712 688.627 106.083 688.504 106.41C688.381 106.737 688.194 106.995 687.944 107.185C687.694 107.372 687.377 107.465 686.994 107.465ZM690.852 101.575H691.587V100.75H690.852V101.575ZM690.852 108H691.587V102.6H690.852V108ZM696.026 108V107.355C695.639 107.418 695.314 107.428 695.051 107.385C694.791 107.342 694.601 107.208 694.481 106.985C694.417 106.868 694.382 106.735 694.376 106.585C694.372 106.432 694.371 106.242 694.371 106.015V103.23H696.026V102.6H694.371V101.1H693.641V102.6H692.486V103.23H693.641V106.045C693.641 106.308 693.644 106.543 693.651 106.75C693.661 106.957 693.714 107.158 693.811 107.355C693.931 107.595 694.106 107.772 694.336 107.885C694.569 107.998 694.832 108.062 695.126 108.075C695.422 108.088 695.722 108.063 696.026 108ZM697.713 110.4H698.448L701.348 102.6H700.598L698.963 107.04L697.188 102.6H696.408L698.603 107.985L697.713 110.4ZM668.764 124H669.499V121.265H671.544C671.611 121.265 671.689 121.262 671.779 121.255C671.869 121.248 671.959 121.238 672.049 121.225C672.609 121.138 673.041 120.892 673.344 120.485C673.651 120.078 673.804 119.595 673.804 119.035C673.804 118.472 673.653 117.987 673.349 117.58C673.046 117.173 672.613 116.927 672.049 116.84C671.959 116.823 671.869 116.813 671.779 116.81C671.693 116.803 671.614 116.8 671.544 116.8H668.764V124ZM669.499 120.565V117.505H671.524C671.584 117.505 671.654 117.508 671.734 117.515C671.818 117.518 671.896 117.528 671.969 117.545C672.339 117.625 672.611 117.81 672.784 118.1C672.961 118.387 673.049 118.698 673.049 119.035C673.049 119.368 672.961 119.68 672.784 119.97C672.611 120.26 672.339 120.443 671.969 120.52C671.896 120.537 671.818 120.548 671.734 120.555C671.654 120.562 671.584 120.565 671.524 120.565H669.499ZM677.016 124.15C677.549 124.15 678.006 124.03 678.386 123.79C678.769 123.55 679.062 123.217 679.266 122.79C679.472 122.36 679.576 121.862 679.576 121.295C679.576 120.738 679.474 120.247 679.271 119.82C679.071 119.39 678.779 119.055 678.396 118.815C678.016 118.572 677.556 118.45 677.016 118.45C676.489 118.45 676.034 118.57 675.651 118.81C675.271 119.047 674.977 119.378 674.771 119.805C674.564 120.232 674.461 120.728 674.461 121.295C674.461 121.852 674.561 122.345 674.761 122.775C674.964 123.205 675.256 123.542 675.636 123.785C676.019 124.028 676.479 124.15 677.016 124.15ZM677.016 123.445C676.432 123.445 675.991 123.25 675.691 122.86C675.391 122.467 675.241 121.945 675.241 121.295C675.241 120.665 675.386 120.152 675.676 119.755C675.966 119.355 676.412 119.155 677.016 119.155C677.612 119.155 678.057 119.35 678.351 119.74C678.647 120.127 678.796 120.645 678.796 121.295C678.796 121.932 678.649 122.45 678.356 122.85C678.062 123.247 677.616 123.445 677.016 123.445ZM682.934 124.15C683.467 124.15 683.924 124.03 684.304 123.79C684.687 123.55 684.98 123.217 685.184 122.79C685.39 122.36 685.494 121.862 685.494 121.295C685.494 120.738 685.392 120.247 685.189 119.82C684.989 119.39 684.697 119.055 684.314 118.815C683.934 118.572 683.474 118.45 682.934 118.45C682.407 118.45 681.952 118.57 681.569 118.81C681.189 119.047 680.895 119.378 680.689 119.805C680.482 120.232 680.379 120.728 680.379 121.295C680.379 121.852 680.479 122.345 680.679 122.775C680.882 123.205 681.174 123.542 681.554 123.785C681.937 124.028 682.397 124.15 682.934 124.15ZM682.934 123.445C682.35 123.445 681.909 123.25 681.609 122.86C681.309 122.467 681.159 121.945 681.159 121.295C681.159 120.665 681.304 120.152 681.594 119.755C681.884 119.355 682.33 119.155 682.934 119.155C683.53 119.155 683.975 119.35 684.269 119.74C684.565 120.127 684.714 120.645 684.714 121.295C684.714 121.932 684.567 122.45 684.274 122.85C683.98 123.247 683.534 123.445 682.934 123.445ZM686.696 124H687.431V116.65H686.696V124ZM690.732 123.995H695.432V123.29H691.852L694.412 120.98C694.762 120.667 695.019 120.363 695.182 120.07C695.349 119.777 695.432 119.403 695.432 118.95C695.432 118.52 695.331 118.132 695.127 117.785C694.927 117.438 694.652 117.163 694.302 116.96C693.956 116.753 693.564 116.65 693.127 116.65C692.684 116.65 692.284 116.75 691.927 116.95C691.574 117.147 691.294 117.418 691.087 117.765C690.881 118.108 690.777 118.5 690.777 118.94H691.527C691.524 118.657 691.591 118.395 691.727 118.155C691.867 117.915 692.057 117.722 692.297 117.575C692.537 117.428 692.811 117.355 693.117 117.355C693.414 117.355 693.681 117.427 693.917 117.57C694.154 117.71 694.341 117.9 694.477 118.14C694.617 118.38 694.687 118.648 694.687 118.945C694.687 119.195 694.641 119.435 694.547 119.665C694.454 119.895 694.269 120.135 693.992 120.385L690.737 123.325L690.732 123.995Z" fill="white"/>
<circle cx="682" cy="112" r="41.5" stroke="#13CDF9"/>
<path d="M170 111C169.448 111 169 111.448 169 112C169 112.552 169.448 113 170 113V111ZM250 112L240 106.226V117.774L250 112ZM170 113H241V111H170V113Z" fill="url(#paint0_linear)" fill-opacity="0.9"/>
<path d="M354 111C353.448 111 353 111.448 353 112C353 112.552 353.448 113 354 113V111ZM434 112L424 106.226V117.774L434 112ZM354 113H425V111H354V113Z" fill="url(#paint1_linear)" fill-opacity="0.9"/>
<path d="M734 111C733.448 111 733 111.448 733 112C733 112.552 733.448 113 734 113V111ZM814 112L804 106.226V117.774L814 112ZM734 113H805V111H734V113Z" fill="url(#paint2_linear)" fill-opacity="0.9"/>
<path d="M550 111C549.448 111 549 111.448 549 112C549 112.552 549.448 113 550 113V111ZM630 112L620 106.226V117.774L630 112ZM550 113H621V111H550V113Z" fill="url(#paint3_linear)" fill-opacity="0.9"/>
<rect x="64.5" y="64.5" width="95" height="95" rx="3.5" stroke="#F78774"/>
<path d="M80.0323 117H81.2863V108.36H80.0323V117ZM83.082 117H84.354V113.628C84.354 113.116 84.428 112.708 84.576 112.404C84.728 112.096 84.928 111.874 85.176 111.738C85.424 111.602 85.698 111.534 85.998 111.534C86.342 111.534 86.622 111.604 86.838 111.744C87.054 111.884 87.22 112.068 87.336 112.296C87.452 112.524 87.53 112.772 87.57 113.04C87.614 113.304 87.636 113.562 87.636 113.814V117H88.908V113.4C88.908 113.2 88.89 112.968 88.854 112.704C88.818 112.44 88.75 112.17 88.65 111.894C88.55 111.618 88.404 111.364 88.212 111.132C88.024 110.896 87.778 110.706 87.474 110.562C87.17 110.418 86.794 110.346 86.346 110.346C85.878 110.346 85.462 110.43 85.098 110.598C84.738 110.766 84.44 110.998 84.204 111.294V110.52H83.082V117ZM90.4649 119.88H91.7249V116.544C91.9529 116.748 92.2149 116.904 92.5109 117.012C92.8109 117.124 93.1449 117.18 93.5129 117.18C94.1169 117.18 94.6369 117.03 95.0729 116.73C95.5129 116.426 95.8509 116.016 96.0869 115.5C96.3269 114.984 96.4469 114.402 96.4469 113.754C96.4469 113.102 96.3269 112.52 96.0869 112.008C95.8469 111.492 95.5049 111.086 95.0609 110.79C94.6209 110.49 94.0969 110.34 93.4889 110.34C93.0889 110.34 92.7289 110.408 92.4089 110.544C92.0889 110.676 91.8129 110.862 91.5809 111.102V110.52H90.4649V119.88ZM93.3389 116.046C92.7229 116.046 92.2749 115.832 91.9949 115.404C91.7189 114.976 91.5809 114.426 91.5809 113.754C91.5809 113.082 91.7189 112.534 91.9949 112.11C92.2709 111.686 92.7049 111.474 93.2969 111.474C93.7129 111.474 94.0549 111.576 94.3229 111.78C94.5909 111.984 94.7889 112.258 94.9169 112.602C95.0489 112.946 95.1149 113.33 95.1149 113.754C95.1149 114.182 95.0509 114.57 94.9229 114.918C94.7949 115.262 94.5989 115.536 94.3349 115.74C94.0749 115.944 93.7429 116.046 93.3389 116.046ZM100.214 117.174C100.682 117.174 101.096 117.09 101.456 116.922C101.82 116.754 102.12 116.522 102.356 116.226V117H103.472V110.52H102.206V113.892C102.206 114.404 102.132 114.814 101.984 115.122C101.836 115.426 101.636 115.646 101.384 115.782C101.136 115.918 100.862 115.986 100.562 115.986C100.218 115.986 99.9376 115.916 99.7216 115.776C99.5056 115.636 99.3396 115.452 99.2236 115.224C99.1076 114.996 99.0276 114.75 98.9836 114.486C98.9436 114.218 98.9236 113.958 98.9236 113.706V110.52H97.6516V114.12C97.6516 114.32 97.6696 114.552 97.7056 114.816C97.7416 115.08 97.8096 115.35 97.9096 115.626C98.0096 115.902 98.1536 116.158 98.3416 116.394C98.5336 116.626 98.7816 116.814 99.0856 116.958C99.3896 117.102 99.7656 117.174 100.214 117.174ZM108.862 117V115.938C108.438 116.002 108.068 116.016 107.752 115.98C107.44 115.94 107.212 115.798 107.068 115.554C106.992 115.422 106.95 115.26 106.942 115.068C106.938 114.876 106.936 114.65 106.936 114.39V111.528H108.862V110.52H106.936V108.72H105.676V110.52H104.434V111.528H105.676V114.45C105.676 114.802 105.68 115.118 105.688 115.398C105.7 115.674 105.776 115.946 105.916 116.214C106.076 116.514 106.31 116.734 106.618 116.874C106.926 117.014 107.276 117.09 107.668 117.102C108.06 117.114 108.458 117.08 108.862 117ZM114.785 117H116.039V109.542H118.913V108.36H111.911V109.542H114.785V117ZM121.726 117.18C122.37 117.18 122.93 117.036 123.406 116.748C123.882 116.456 124.25 116.054 124.51 115.542C124.774 115.026 124.906 114.43 124.906 113.754C124.906 113.086 124.776 112.496 124.516 111.984C124.256 111.468 123.888 111.066 123.412 110.778C122.936 110.486 122.374 110.34 121.726 110.34C121.09 110.34 120.534 110.484 120.058 110.772C119.582 111.06 119.212 111.46 118.948 111.972C118.684 112.484 118.552 113.078 118.552 113.754C118.552 114.422 118.682 115.014 118.942 115.53C119.202 116.046 119.568 116.45 120.04 116.742C120.516 117.034 121.078 117.18 121.726 117.18ZM121.726 115.998C121.122 115.998 120.664 115.796 120.352 115.392C120.04 114.984 119.884 114.438 119.884 113.754C119.884 113.094 120.034 112.558 120.334 112.146C120.634 111.73 121.098 111.522 121.726 111.522C122.338 111.522 122.798 111.724 123.106 112.128C123.418 112.532 123.574 113.074 123.574 113.754C123.574 114.418 123.42 114.958 123.112 115.374C122.808 115.79 122.346 115.998 121.726 115.998ZM126.219 117H127.497V113.88L130.209 117H131.913L128.949 113.76L131.637 110.52H130.041L127.497 113.64V108.36H126.225L126.219 117ZM135.275 117.18C135.903 117.18 136.473 117.022 136.985 116.706C137.497 116.386 137.879 115.936 138.131 115.356L136.901 114.966C136.573 115.654 136.011 115.998 135.215 115.998C134.671 115.998 134.243 115.834 133.931 115.506C133.619 115.178 133.437 114.714 133.385 114.114H138.215C138.259 113.338 138.167 112.668 137.939 112.104C137.711 111.54 137.365 111.106 136.901 110.802C136.437 110.494 135.875 110.34 135.215 110.34C134.583 110.34 134.029 110.482 133.553 110.766C133.077 111.05 132.705 111.452 132.437 111.972C132.173 112.492 132.041 113.106 132.041 113.814C132.041 114.482 132.175 115.07 132.443 115.578C132.715 116.082 133.093 116.476 133.577 116.76C134.065 117.04 134.631 117.18 135.275 117.18ZM135.263 111.45C136.243 111.45 136.799 112.012 136.931 113.136H133.415C133.495 112.588 133.689 112.17 133.997 111.882C134.305 111.594 134.727 111.45 135.263 111.45ZM139.379 117H140.651V113.628C140.651 113.116 140.725 112.708 140.873 112.404C141.025 112.096 141.225 111.874 141.473 111.738C141.721 111.602 141.995 111.534 142.295 111.534C142.639 111.534 142.919 111.604 143.135 111.744C143.351 111.884 143.517 112.068 143.633 112.296C143.749 112.524 143.827 112.772 143.867 113.04C143.911 113.304 143.933 113.562 143.933 113.814V117H145.205V113.4C145.205 113.2 145.187 112.968 145.151 112.704C145.115 112.44 145.047 112.17 144.947 111.894C144.847 111.618 144.701 111.364 144.509 111.132C144.321 110.896 144.075 110.706 143.771 110.562C143.467 110.418 143.091 110.346 142.643 110.346C142.175 110.346 141.759 110.43 141.395 110.598C141.035 110.766 140.737 110.998 140.501 111.294V110.52H139.379V117Z" fill="white"/>
<rect x="444.5" y="64.5" width="95" height="95" rx="3.5" stroke="#F78774"/>
<path d="M465.245 117H470.411V115.818H466.499V108.36H465.245V117ZM471.43 117H472.684V113.898H474.922C475.002 113.898 475.104 113.894 475.228 113.886C475.356 113.878 475.476 113.866 475.588 113.85C476.308 113.734 476.848 113.426 477.208 112.926C477.572 112.426 477.754 111.826 477.754 111.126C477.754 110.426 477.574 109.826 477.214 109.326C476.854 108.826 476.312 108.52 475.588 108.408C475.476 108.388 475.358 108.376 475.234 108.372C475.11 108.364 475.006 108.36 474.922 108.36H471.43V117ZM472.684 112.71V109.542H474.874C474.954 109.542 475.042 109.546 475.138 109.554C475.238 109.562 475.332 109.578 475.42 109.602C475.804 109.69 476.076 109.886 476.236 110.19C476.396 110.494 476.476 110.806 476.476 111.126C476.476 111.442 476.396 111.754 476.236 112.062C476.076 112.366 475.804 112.564 475.42 112.656C475.332 112.676 475.238 112.69 475.138 112.698C475.042 112.706 474.954 112.71 474.874 112.71H472.684ZM480.459 117H481.737V108.36H480.459L478.833 109.332V110.73L480.459 109.74V117ZM488.572 117H489.826V109.542H492.7V108.36H485.698V109.542H488.572V117ZM495.513 117.18C496.157 117.18 496.717 117.036 497.193 116.748C497.669 116.456 498.037 116.054 498.297 115.542C498.561 115.026 498.693 114.43 498.693 113.754C498.693 113.086 498.563 112.496 498.303 111.984C498.043 111.468 497.675 111.066 497.199 110.778C496.723 110.486 496.161 110.34 495.513 110.34C494.877 110.34 494.321 110.484 493.845 110.772C493.369 111.06 492.999 111.46 492.735 111.972C492.471 112.484 492.339 113.078 492.339 113.754C492.339 114.422 492.469 115.014 492.729 115.53C492.989 116.046 493.355 116.45 493.827 116.742C494.303 117.034 494.865 117.18 495.513 117.18ZM495.513 115.998C494.909 115.998 494.451 115.796 494.139 115.392C493.827 114.984 493.671 114.438 493.671 113.754C493.671 113.094 493.821 112.558 494.121 112.146C494.421 111.73 494.885 111.522 495.513 111.522C496.125 111.522 496.585 111.724 496.893 112.128C497.205 112.532 497.361 113.074 497.361 113.754C497.361 114.418 497.207 114.958 496.899 115.374C496.595 115.79 496.133 115.998 495.513 115.998ZM500.006 117H501.284V113.88L503.996 117H505.7L502.736 113.76L505.424 110.52H503.828L501.284 113.64V108.36H500.012L500.006 117ZM509.062 117.18C509.69 117.18 510.26 117.022 510.772 116.706C511.284 116.386 511.666 115.936 511.918 115.356L510.688 114.966C510.36 115.654 509.798 115.998 509.002 115.998C508.458 115.998 508.03 115.834 507.718 115.506C507.406 115.178 507.224 114.714 507.172 114.114H512.002C512.046 113.338 511.954 112.668 511.726 112.104C511.498 111.54 511.152 111.106 510.688 110.802C510.224 110.494 509.662 110.34 509.002 110.34C508.37 110.34 507.816 110.482 507.34 110.766C506.864 111.05 506.492 111.452 506.224 111.972C505.96 112.492 505.828 113.106 505.828 113.814C505.828 114.482 505.962 115.07 506.23 115.578C506.502 116.082 506.88 116.476 507.364 116.76C507.852 117.04 508.418 117.18 509.062 117.18ZM509.05 111.45C510.03 111.45 510.586 112.012 510.718 113.136H507.202C507.282 112.588 507.476 112.17 507.784 111.882C508.092 111.594 508.514 111.45 509.05 111.45ZM513.166 117H514.438V113.628C514.438 113.116 514.512 112.708 514.66 112.404C514.812 112.096 515.012 111.874 515.26 111.738C515.508 111.602 515.782 111.534 516.082 111.534C516.426 111.534 516.706 111.604 516.922 111.744C517.138 111.884 517.304 112.068 517.42 112.296C517.536 112.524 517.614 112.772 517.654 113.04C517.698 113.304 517.72 113.562 517.72 113.814V117H518.992V113.4C518.992 113.2 518.974 112.968 518.938 112.704C518.902 112.44 518.834 112.17 518.734 111.894C518.634 111.618 518.488 111.364 518.296 111.132C518.108 110.896 517.862 110.706 517.558 110.562C517.254 110.418 516.878 110.346 516.43 110.346C515.962 110.346 515.546 110.43 515.182 110.598C514.822 110.766 514.524 110.998 514.288 111.294V110.52H513.166V117Z" fill="white"/>
<rect x="824.5" y="64.5" width="95" height="95" rx="3.5" stroke="#F78774"/>
<path d="M844.255 117H849.421V115.818H845.509V108.36H844.255V117ZM850.44 117H851.694V113.898H853.932C854.012 113.898 854.114 113.894 854.238 113.886C854.366 113.878 854.486 113.866 854.598 113.85C855.318 113.734 855.858 113.426 856.218 112.926C856.582 112.426 856.764 111.826 856.764 111.126C856.764 110.426 856.584 109.826 856.224 109.326C855.864 108.826 855.322 108.52 854.598 108.408C854.486 108.388 854.368 108.376 854.244 108.372C854.12 108.364 854.016 108.36 853.932 108.36H850.44V117ZM851.694 112.71V109.542H853.884C853.964 109.542 854.052 109.546 854.148 109.554C854.248 109.562 854.342 109.578 854.43 109.602C854.814 109.69 855.086 109.886 855.246 110.19C855.406 110.494 855.486 110.806 855.486 111.126C855.486 111.442 855.406 111.754 855.246 112.062C855.086 112.366 854.814 112.564 854.43 112.656C854.342 112.676 854.248 112.69 854.148 112.698C854.052 112.706 853.964 112.71 853.884 112.71H851.694ZM857.723 116.994H863.567V115.8H859.661L862.163 113.568C862.475 113.292 862.735 113.036 862.943 112.8C863.151 112.564 863.307 112.308 863.411 112.032C863.515 111.752 863.567 111.416 863.567 111.024C863.567 110.476 863.441 109.988 863.189 109.56C862.941 109.132 862.601 108.796 862.169 108.552C861.737 108.304 861.249 108.18 860.705 108.18C860.133 108.18 859.623 108.3 859.175 108.54C858.731 108.776 858.383 109.106 858.131 109.53C857.879 109.95 857.753 110.44 857.753 111H859.037C859.033 110.708 859.101 110.44 859.241 110.196C859.385 109.948 859.581 109.75 859.829 109.602C860.077 109.45 860.361 109.374 860.681 109.374C861.145 109.374 861.527 109.53 861.827 109.842C862.127 110.154 862.277 110.542 862.277 111.006C862.277 111.25 862.221 111.494 862.109 111.738C862.001 111.978 861.795 112.234 861.491 112.506L857.729 115.878L857.723 116.994ZM869.562 117H870.816V109.542H873.69V108.36H866.688V109.542H869.562V117ZM876.504 117.18C877.148 117.18 877.708 117.036 878.184 116.748C878.66 116.456 879.028 116.054 879.288 115.542C879.552 115.026 879.684 114.43 879.684 113.754C879.684 113.086 879.554 112.496 879.294 111.984C879.034 111.468 878.666 111.066 878.19 110.778C877.714 110.486 877.152 110.34 876.504 110.34C875.868 110.34 875.312 110.484 874.836 110.772C874.36 111.06 873.99 111.46 873.726 111.972C873.462 112.484 873.33 113.078 873.33 113.754C873.33 114.422 873.46 115.014 873.72 115.53C873.98 116.046 874.346 116.45 874.818 116.742C875.294 117.034 875.856 117.18 876.504 117.18ZM876.504 115.998C875.9 115.998 875.442 115.796 875.13 115.392C874.818 114.984 874.662 114.438 874.662 113.754C874.662 113.094 874.812 112.558 875.112 112.146C875.412 111.73 875.876 111.522 876.504 111.522C877.116 111.522 877.576 111.724 877.884 112.128C878.196 112.532 878.352 113.074 878.352 113.754C878.352 114.418 878.198 114.958 877.89 115.374C877.586 115.79 877.124 115.998 876.504 115.998ZM880.996 117H882.274V113.88L884.986 117H886.69L883.726 113.76L886.414 110.52H884.818L882.274 113.64V108.36H881.002L880.996 117ZM890.052 117.18C890.68 117.18 891.25 117.022 891.762 116.706C892.274 116.386 892.656 115.936 892.908 115.356L891.678 114.966C891.35 115.654 890.788 115.998 889.992 115.998C889.448 115.998 889.02 115.834 888.708 115.506C888.396 115.178 888.214 114.714 888.162 114.114H892.992C893.036 113.338 892.944 112.668 892.716 112.104C892.488 111.54 892.142 111.106 891.678 110.802C891.214 110.494 890.652 110.34 889.992 110.34C889.36 110.34 888.806 110.482 888.33 110.766C887.854 111.05 887.482 111.452 887.214 111.972C886.95 112.492 886.818 113.106 886.818 113.814C886.818 114.482 886.952 115.07 887.22 115.578C887.492 116.082 887.87 116.476 888.354 116.76C888.842 117.04 889.408 117.18 890.052 117.18ZM890.04 111.45C891.02 111.45 891.576 112.012 891.708 113.136H888.192C888.272 112.588 888.466 112.17 888.774 111.882C889.082 111.594 889.504 111.45 890.04 111.45ZM894.156 117H895.428V113.628C895.428 113.116 895.502 112.708 895.65 112.404C895.802 112.096 896.002 111.874 896.25 111.738C896.498 111.602 896.772 111.534 897.072 111.534C897.416 111.534 897.696 111.604 897.912 111.744C898.128 111.884 898.294 112.068 898.41 112.296C898.526 112.524 898.604 112.772 898.644 113.04C898.688 113.304 898.71 113.562 898.71 113.814V117H899.982V113.4C899.982 113.2 899.964 112.968 899.928 112.704C899.892 112.44 899.824 112.17 899.724 111.894C899.624 111.618 899.478 111.364 899.286 111.132C899.098 110.896 898.852 110.706 898.548 110.562C898.244 110.418 897.868 110.346 897.42 110.346C896.952 110.346 896.536 110.43 896.172 110.598C895.812 110.766 895.514 110.998 895.278 111.294V110.52H894.156V117Z" fill="white"/>
<defs>
<linearGradient id="paint0_linear" x1="170" y1="112" x2="215.715" y2="112.041" gradientUnits="userSpaceOnUse">
<stop stop-color="#13CDF9"/>
<stop offset="1" stop-color="#F78774"/>
</linearGradient>
<linearGradient id="paint1_linear" x1="354" y1="112" x2="399.715" y2="112.041" gradientUnits="userSpaceOnUse">
<stop stop-color="#13CDF9"/>
<stop offset="1" stop-color="#F78774"/>
</linearGradient>
<linearGradient id="paint2_linear" x1="734" y1="112" x2="779.715" y2="112.041" gradientUnits="userSpaceOnUse">
<stop stop-color="#13CDF9"/>
<stop offset="1" stop-color="#F78774"/>
</linearGradient>
<linearGradient id="paint3_linear" x1="550" y1="112" x2="595.715" y2="112.041" gradientUnits="userSpaceOnUse">
<stop stop-color="#13CDF9"/>
<stop offset="1" stop-color="#F78774"/>
</linearGradient>
</defs>
</svg>
