<?xml version="1.0" encoding="UTF-8"?> <svg xmlns="http://www.w3.org/2000/svg" width="590" height="260" viewBox="0 0 590 260" fill="none"> <rect x="0.5" y="0.5" width="589" height="259" rx="3.5" fill="#191919" stroke="#282726"></rect> <path d="M28.704 44.24C29.5627 44.24 30.2987 44.04 30.912 43.64C31.5307 43.2347 32.0027 42.648 32.328 41.88L31.144 41.528C30.7067 42.584 29.8933 43.112 28.704 43.112C27.776 43.112 27.0773 42.8 26.608 42.176C26.1387 41.5467 25.8987 40.7147 25.888 39.68C25.8987 38.672 26.1307 37.848 26.584 37.208C27.0427 36.568 27.7493 36.248 28.704 36.248C29.2693 36.248 29.7707 36.392 30.208 36.68C30.6507 36.9627 30.9733 37.3627 31.176 37.88L32.328 37.512C32.088 36.7707 31.6427 36.1867 30.992 35.76C30.3467 35.3333 29.5867 35.12 28.712 35.12C27.8533 35.12 27.1227 35.312 26.52 35.696C25.9173 36.0747 25.456 36.608 25.136 37.296C24.816 37.9787 24.6507 38.7733 24.64 39.68C24.6507 40.5653 24.8107 41.352 25.12 42.04C25.4347 42.728 25.8933 43.2667 26.496 43.656C27.0987 44.0453 27.8347 44.24 28.704 44.24ZM37.353 44.24C38.2063 44.24 38.937 44.048 39.545 43.664C40.1583 43.28 40.6277 42.7467 40.953 42.064C41.2837 41.376 41.449 40.5787 41.449 39.672C41.449 38.7813 41.2863 37.9947 40.961 37.312C40.641 36.624 40.1743 36.088 39.561 35.704C38.953 35.3147 38.217 35.12 37.353 35.12C36.5103 35.12 35.7823 35.312 35.169 35.696C34.561 36.0747 34.0917 36.6053 33.761 37.288C33.4303 37.9707 33.265 38.7653 33.265 39.672C33.265 40.5627 33.425 41.352 33.745 42.04C34.0703 42.728 34.537 43.2667 35.145 43.656C35.7583 44.0453 36.4943 44.24 37.353 44.24ZM37.353 43.112C36.4197 43.112 35.713 42.8 35.233 42.176C34.753 41.5467 34.513 40.712 34.513 39.672C34.513 38.664 34.745 37.8427 35.209 37.208C35.673 36.568 36.3877 36.248 37.353 36.248C38.3077 36.248 39.0197 36.56 39.489 37.184C39.9637 37.8027 40.201 38.632 40.201 39.672C40.201 40.6907 39.9663 41.52 39.497 42.16C39.0277 42.7947 38.313 43.112 37.353 43.112ZM43.2138 44H44.3898V39.688C44.3898 39.1707 44.4484 38.656 44.5658 38.144C44.6884 37.6267 44.9658 37.1973 45.3978 36.856C45.7124 36.6 46.0538 36.4533 46.4218 36.416C46.7951 36.3733 47.1418 36.3893 47.4618 36.464V35.36C47.0831 35.264 46.6538 35.2613 46.1738 35.352C45.6938 35.4373 45.2831 35.6293 44.9418 35.928C44.6858 36.12 44.4618 36.3867 44.2698 36.728V35.36H43.2138V44ZM52.4791 44.24C53.3165 44.24 54.0658 44.0347 54.7271 43.624C55.3938 43.2133 55.8978 42.6293 56.2391 41.872L55.1431 41.448C54.5938 42.5573 53.6898 43.112 52.4311 43.112C51.5671 43.112 50.8898 42.8427 50.3991 42.304C49.9138 41.7653 49.6471 41 49.5991 40.008H56.4071C56.4498 38.4827 56.1165 37.288 55.4071 36.424C54.7031 35.5547 53.7111 35.12 52.4311 35.12C51.5991 35.12 50.8765 35.3067 50.2631 35.68C49.6551 36.0533 49.1831 36.584 48.8471 37.272C48.5111 37.96 48.3431 38.776 48.3431 39.72C48.3431 40.632 48.5111 41.4267 48.8471 42.104C49.1885 42.7813 49.6685 43.3067 50.2871 43.68C50.9111 44.0533 51.6418 44.24 52.4791 44.24ZM52.4631 36.2C54.0898 36.2 54.9938 37.1413 55.1751 39.024H49.6231C49.7138 38.112 50.0018 37.4133 50.4871 36.928C50.9725 36.4427 51.6311 36.2 52.4631 36.2ZM60.6261 44H62.1861L66.1541 32.48H64.9301L61.3941 42.664L57.8821 32.48H56.6581L60.6261 44ZM69.1076 44.24C70.617 44.24 71.713 43.6827 72.3956 42.568V44H73.4436V38.632C73.4436 38.312 73.4276 37.9973 73.3956 37.688C73.3636 37.3787 73.2943 37.0987 73.1876 36.848C72.9583 36.288 72.5663 35.8613 72.0116 35.568C71.4623 35.2693 70.793 35.12 70.0036 35.12C69.0543 35.12 68.281 35.3333 67.6836 35.76C67.0863 36.1867 66.6863 36.7867 66.4836 37.56L67.6276 37.896C67.793 37.32 68.0783 36.8987 68.4836 36.632C68.8943 36.3653 69.3956 36.232 69.9876 36.232C70.809 36.232 71.3956 36.424 71.7476 36.808C72.0996 37.1867 72.281 37.7653 72.2916 38.544C71.9076 38.5973 71.4836 38.6533 71.0196 38.712C70.561 38.7707 70.0996 38.8373 69.6356 38.912C69.1716 38.9867 68.745 39.072 68.3556 39.168C67.7103 39.3387 67.1823 39.624 66.7716 40.024C66.361 40.4187 66.1556 40.9707 66.1556 41.68C66.1556 42.1387 66.265 42.5627 66.4836 42.952C66.7023 43.3413 67.0303 43.6533 67.4676 43.888C67.9103 44.1227 68.457 44.24 69.1076 44.24ZM69.2436 43.224C68.7796 43.224 68.4063 43.1493 68.1236 43C67.8463 42.8453 67.6436 42.6507 67.5156 42.416C67.393 42.176 67.3316 41.9307 67.3316 41.68C67.3316 41.2107 67.489 40.8587 67.8036 40.624C68.1183 40.3893 68.4596 40.2187 68.8276 40.112C69.3023 39.984 69.8543 39.88 70.4836 39.8C71.113 39.72 71.7103 39.6453 72.2756 39.576C72.2756 39.7733 72.2676 40 72.2516 40.256C72.241 40.5067 72.2116 40.7387 72.1636 40.952C72.0516 41.6027 71.7423 42.144 71.2356 42.576C70.7343 43.008 70.0703 43.224 69.2436 43.224ZM78.8303 44.216C79.4489 44.216 80.0063 44.0987 80.5023 43.864C81.0036 43.624 81.4143 43.2693 81.7343 42.8V44H82.7903V35.36H81.6143V39.968C81.6143 40.944 81.3956 41.7093 80.9583 42.264C80.5209 42.8187 79.8863 43.096 79.0543 43.096C78.4516 43.096 77.9663 42.952 77.5983 42.664C77.2303 42.3707 76.9636 41.9733 76.7983 41.472C76.6329 40.9707 76.5503 40.4027 76.5503 39.768V35.36H75.3663V40.112C75.3663 40.5973 75.4249 41.0827 75.5423 41.568C75.6649 42.0533 75.8596 42.496 76.1263 42.896C76.3929 43.296 76.7476 43.616 77.1903 43.856C77.6383 44.096 78.1849 44.216 78.8303 44.216ZM85.1863 44H86.3623V32.24H85.1863V44ZM93.4646 44V42.968C92.846 43.0693 92.326 43.0853 91.9046 43.016C91.4886 42.9467 91.1846 42.7333 90.9926 42.376C90.8913 42.1893 90.8353 41.976 90.8246 41.736C90.8193 41.4907 90.8166 41.1867 90.8166 40.824V36.368H93.4646V35.36H90.8166V32.96H89.6486V35.36H87.8006V36.368H89.6486V40.872C89.6486 41.2933 89.654 41.6693 89.6646 42C89.6806 42.3307 89.766 42.6533 89.9206 42.968C90.1126 43.352 90.3926 43.6347 90.7606 43.816C91.134 43.9973 91.5553 44.0987 92.0246 44.12C92.4993 44.1413 92.9793 44.1013 93.4646 44Z" fill="white"></path> <path d="M28.344 124.232C29.4053 124.232 30.2373 124 30.84 123.536C31.448 123.067 31.752 122.424 31.752 121.608C31.752 121.16 31.656 120.784 31.464 120.48C31.2773 120.176 30.9547 119.912 30.496 119.688C30.0427 119.464 29.4187 119.251 28.624 119.048C27.9467 118.877 27.424 118.72 27.056 118.576C26.6933 118.432 26.4427 118.28 26.304 118.12C26.1653 117.955 26.096 117.757 26.096 117.528C26.096 117.117 26.288 116.789 26.672 116.544C27.056 116.299 27.5547 116.181 28.168 116.192C28.8187 116.203 29.3547 116.357 29.776 116.656C30.1973 116.949 30.4507 117.349 30.536 117.856L31.736 117.64C31.6773 117.139 31.4907 116.699 31.176 116.32C30.8613 115.941 30.4453 115.648 29.928 115.44C29.416 115.227 28.8347 115.12 28.184 115.12C27.5333 115.12 26.96 115.224 26.464 115.432C25.9733 115.635 25.5893 115.923 25.312 116.296C25.04 116.664 24.904 117.093 24.904 117.584C24.904 117.984 24.9947 118.325 25.176 118.608C25.3627 118.885 25.68 119.133 26.128 119.352C26.576 119.565 27.1893 119.779 27.968 119.992C28.6987 120.189 29.2453 120.36 29.608 120.504C29.976 120.648 30.2213 120.805 30.344 120.976C30.4667 121.141 30.528 121.357 30.528 121.624C30.528 122.093 30.3387 122.467 29.96 122.744C29.5813 123.021 29.064 123.16 28.408 123.16C27.736 123.16 27.1707 123.016 26.712 122.728C26.2533 122.435 25.9627 122.043 25.84 121.552L24.64 121.752C24.7893 122.531 25.1893 123.139 25.84 123.576C26.496 124.013 27.3307 124.232 28.344 124.232ZM33.6863 113.72H34.8623V112.4H33.6863V113.72ZM33.6863 124H34.8623V115.36H33.6863V124ZM37.2526 124H38.4366V119.392C38.4366 118.416 38.6553 117.651 39.0926 117.096C39.53 116.541 40.1646 116.264 40.9966 116.264C41.5993 116.264 42.0846 116.411 42.4526 116.704C42.8206 116.992 43.0873 117.387 43.2526 117.888C43.418 118.389 43.5006 118.957 43.5006 119.592V124H44.6846V119.248C44.6846 118.763 44.6233 118.277 44.5006 117.792C44.3833 117.307 44.1913 116.864 43.9246 116.464C43.658 116.064 43.3033 115.744 42.8606 115.504C42.418 115.264 41.8713 115.144 41.2206 115.144C40.602 115.144 40.042 115.264 39.5406 115.504C39.0446 115.739 38.6366 116.091 38.3166 116.56V115.36H37.2526V124ZM50.1126 124.24C50.694 124.24 51.2113 124.128 51.6646 123.904C52.118 123.68 52.4993 123.371 52.8086 122.976V123.864C52.814 124.877 52.614 125.643 52.2086 126.16C51.8033 126.677 51.1313 126.936 50.1926 126.936C49.7393 126.936 49.294 126.829 48.8566 126.616C48.4193 126.408 48.0833 126.064 47.8486 125.584L46.7846 126.176C47.1526 126.848 47.646 127.333 48.2646 127.632C48.8886 127.931 49.5313 128.08 50.1926 128.08C51.2486 128.08 52.0913 127.851 52.7206 127.392C53.35 126.933 53.742 126.221 53.8966 125.256C53.934 125.037 53.958 124.813 53.9686 124.584C53.9846 124.36 53.9926 124.125 53.9926 123.88V115.36H52.9446V116.552C52.63 116.104 52.23 115.755 51.7446 115.504C51.2646 115.248 50.7046 115.12 50.0646 115.12C49.2753 115.12 48.598 115.32 48.0326 115.72C47.4673 116.12 47.0326 116.664 46.7286 117.352C46.43 118.04 46.2806 118.813 46.2806 119.672C46.2806 120.536 46.43 121.312 46.7286 122C47.0326 122.688 47.47 123.235 48.0406 123.64C48.6166 124.04 49.3073 124.24 50.1126 124.24ZM50.2326 123.144C49.6353 123.144 49.134 122.992 48.7286 122.688C48.3286 122.379 48.0273 121.963 47.8246 121.44C47.6273 120.917 47.5286 120.328 47.5286 119.672C47.5286 119.021 47.6273 118.435 47.8246 117.912C48.022 117.389 48.3206 116.976 48.7206 116.672C49.126 116.368 49.638 116.216 50.2566 116.216C51.158 116.216 51.83 116.539 52.2726 117.184C52.7206 117.824 52.9446 118.653 52.9446 119.672C52.9446 120.339 52.846 120.933 52.6486 121.456C52.4513 121.979 52.1526 122.392 51.7526 122.696C51.3526 122.995 50.846 123.144 50.2326 123.144ZM56.3894 124H57.5654V112.24H56.3894V124ZM63.6198 124.24C64.4571 124.24 65.2064 124.035 65.8678 123.624C66.5344 123.213 67.0384 122.629 67.3798 121.872L66.2838 121.448C65.7344 122.557 64.8304 123.112 63.5718 123.112C62.7078 123.112 62.0304 122.843 61.5398 122.304C61.0544 121.765 60.7878 121 60.7398 120.008H67.5478C67.5904 118.483 67.2571 117.288 66.5478 116.424C65.8438 115.555 64.8518 115.12 63.5718 115.12C62.7398 115.12 62.0171 115.307 61.4038 115.68C60.7958 116.053 60.3238 116.584 59.9878 117.272C59.6518 117.96 59.4838 118.776 59.4838 119.72C59.4838 120.632 59.6518 121.427 59.9878 122.104C60.3291 122.781 60.8091 123.307 61.4278 123.68C62.0518 124.053 62.7824 124.24 63.6198 124.24ZM63.6038 116.2C65.2304 116.2 66.1344 117.141 66.3158 119.024H60.7638C60.8544 118.112 61.1424 117.413 61.6278 116.928C62.1131 116.443 62.7718 116.2 63.6038 116.2ZM68.5231 124H69.7471L70.7071 121.208H75.8271L76.7951 124H78.0191L74.0511 112.48H72.4911L68.5231 124ZM71.0911 120.104L73.2591 113.808L75.4431 120.104H71.0911ZM82.6878 124.232C83.7491 124.232 84.5811 124 85.1838 123.536C85.7918 123.067 86.0958 122.424 86.0958 121.608C86.0958 121.16 85.9998 120.784 85.8078 120.48C85.6211 120.176 85.2984 119.912 84.8398 119.688C84.3864 119.464 83.7624 119.251 82.9678 119.048C82.2904 118.877 81.7678 118.72 81.3998 118.576C81.0371 118.432 80.7864 118.28 80.6478 118.12C80.5091 117.955 80.4398 117.757 80.4398 117.528C80.4398 117.117 80.6318 116.789 81.0158 116.544C81.3998 116.299 81.8984 116.181 82.5118 116.192C83.1624 116.203 83.6984 116.357 84.1198 116.656C84.5411 116.949 84.7944 117.349 84.8798 117.856L86.0798 117.64C86.0211 117.139 85.8344 116.699 85.5198 116.32C85.2051 115.941 84.7891 115.648 84.2718 115.44C83.7598 115.227 83.1784 115.12 82.5278 115.12C81.8771 115.12 81.3038 115.224 80.8078 115.432C80.3171 115.635 79.9331 115.923 79.6558 116.296C79.3838 116.664 79.2478 117.093 79.2478 117.584C79.2478 117.984 79.3384 118.325 79.5197 118.608C79.7064 118.885 80.0238 119.133 80.4718 119.352C80.9198 119.565 81.5331 119.779 82.3118 119.992C83.0424 120.189 83.5891 120.36 83.9518 120.504C84.3198 120.648 84.5651 120.805 84.6878 120.976C84.8104 121.141 84.8718 121.357 84.8718 121.624C84.8718 122.093 84.6824 122.467 84.3038 122.744C83.9251 123.021 83.4078 123.16 82.7517 123.16C82.0798 123.16 81.5144 123.016 81.0558 122.728C80.5971 122.435 80.3064 122.043 80.1838 121.552L78.9838 121.752C79.1331 122.531 79.5331 123.139 80.1838 123.576C80.8398 124.013 81.6744 124.232 82.6878 124.232ZM91.094 124.232C92.1553 124.232 92.9873 124 93.59 123.536C94.198 123.067 94.502 122.424 94.502 121.608C94.502 121.16 94.406 120.784 94.214 120.48C94.0273 120.176 93.7047 119.912 93.246 119.688C92.7927 119.464 92.1687 119.251 91.374 119.048C90.6967 118.877 90.174 118.72 89.806 118.576C89.4433 118.432 89.1927 118.28 89.054 118.12C88.9153 117.955 88.846 117.757 88.846 117.528C88.846 117.117 89.038 116.789 89.422 116.544C89.806 116.299 90.3047 116.181 90.918 116.192C91.5687 116.203 92.1047 116.357 92.526 116.656C92.9473 116.949 93.2007 117.349 93.286 117.856L94.486 117.64C94.4273 117.139 94.2407 116.699 93.926 116.32C93.6113 115.941 93.1953 115.648 92.678 115.44C92.166 115.227 91.5847 115.12 90.934 115.12C90.2833 115.12 89.71 115.224 89.214 115.432C88.7233 115.635 88.3393 115.923 88.062 116.296C87.79 116.664 87.654 117.093 87.654 117.584C87.654 117.984 87.7447 118.325 87.926 118.608C88.1127 118.885 88.43 119.133 88.878 119.352C89.326 119.565 89.9393 119.779 90.718 119.992C91.4487 120.189 91.9953 120.36 92.358 120.504C92.726 120.648 92.9713 120.805 93.094 120.976C93.2167 121.141 93.278 121.357 93.278 121.624C93.278 122.093 93.0887 122.467 92.71 122.744C92.3313 123.021 91.814 123.16 91.158 123.16C90.486 123.16 89.9207 123.016 89.462 122.728C89.0033 122.435 88.7127 122.043 88.59 121.552L87.39 121.752C87.5393 122.531 87.9393 123.139 88.59 123.576C89.246 124.013 90.0807 124.232 91.094 124.232ZM99.9323 124.24C100.77 124.24 101.519 124.035 102.18 123.624C102.847 123.213 103.351 122.629 103.692 121.872L102.596 121.448C102.047 122.557 101.143 123.112 99.8843 123.112C99.0203 123.112 98.3429 122.843 97.8523 122.304C97.3669 121.765 97.1003 121 97.0523 120.008H103.86C103.903 118.483 103.57 117.288 102.86 116.424C102.156 115.555 101.164 115.12 99.8843 115.12C99.0523 115.12 98.3296 115.307 97.7163 115.68C97.1083 116.053 96.6363 116.584 96.3003 117.272C95.9643 117.96 95.7963 118.776 95.7963 119.72C95.7963 120.632 95.9643 121.427 96.3003 122.104C96.6416 122.781 97.1216 123.307 97.7403 123.68C98.3643 124.053 99.0949 124.24 99.9323 124.24ZM99.9163 116.2C101.543 116.2 102.447 117.141 102.628 119.024H97.0763C97.1669 118.112 97.4549 117.413 97.9403 116.928C98.4256 116.443 99.0843 116.2 99.9163 116.2ZM110.34 124V122.968C109.721 123.069 109.201 123.085 108.78 123.016C108.364 122.947 108.06 122.733 107.868 122.376C107.766 122.189 107.71 121.976 107.7 121.736C107.694 121.491 107.692 121.187 107.692 120.824V116.368H110.34V115.36H107.692V112.96H106.524V115.36H104.676V116.368H106.524V120.872C106.524 121.293 106.529 121.669 106.54 122C106.556 122.331 106.641 122.653 106.796 122.968C106.988 123.352 107.268 123.635 107.636 123.816C108.009 123.997 108.43 124.099 108.9 124.12C109.374 124.141 109.854 124.101 110.34 124ZM112.202 124H118.85V122.872H113.378V112.48H112.202V124ZM120.214 124H121.39V119.624H124.662C124.768 119.624 124.894 119.619 125.038 119.608C125.182 119.597 125.326 119.581 125.47 119.56C126.366 119.421 127.056 119.027 127.542 118.376C128.032 117.725 128.278 116.952 128.278 116.056C128.278 115.155 128.035 114.379 127.55 113.728C127.064 113.077 126.371 112.683 125.47 112.544C125.326 112.517 125.182 112.501 125.038 112.496C124.899 112.485 124.774 112.48 124.662 112.48H120.214V124ZM121.39 118.504V113.608H124.63C124.726 113.608 124.838 113.613 124.966 113.624C125.099 113.629 125.224 113.645 125.342 113.672C125.934 113.8 126.368 114.096 126.646 114.56C126.928 115.019 127.07 115.517 127.07 116.056C127.07 116.589 126.928 117.088 126.646 117.552C126.368 118.016 125.934 118.309 125.342 118.432C125.224 118.459 125.099 118.477 124.966 118.488C124.838 118.499 124.726 118.504 124.63 118.504H121.39ZM132.798 124H134.358L138.326 112.48H137.102L133.566 122.664L130.054 112.48H128.83L132.798 124ZM141.28 124.24C142.789 124.24 143.885 123.683 144.568 122.568V124H145.616V118.632C145.616 118.312 145.6 117.997 145.568 117.688C145.536 117.379 145.466 117.099 145.36 116.848C145.13 116.288 144.738 115.861 144.184 115.568C143.634 115.269 142.965 115.12 142.176 115.12C141.226 115.12 140.453 115.333 139.856 115.76C139.258 116.187 138.858 116.787 138.656 117.56L139.799 117.896C139.965 117.32 140.25 116.899 140.656 116.632C141.066 116.365 141.568 116.232 142.16 116.232C142.981 116.232 143.568 116.424 143.92 116.808C144.272 117.187 144.453 117.765 144.464 118.544C144.08 118.597 143.656 118.653 143.192 118.712C142.733 118.771 142.272 118.837 141.808 118.912C141.344 118.987 140.917 119.072 140.528 119.168C139.882 119.339 139.354 119.624 138.944 120.024C138.533 120.419 138.328 120.971 138.328 121.68C138.328 122.139 138.437 122.563 138.656 122.952C138.874 123.341 139.202 123.653 139.64 123.888C140.082 124.123 140.629 124.24 141.28 124.24ZM141.416 123.224C140.952 123.224 140.578 123.149 140.296 123C140.018 122.845 139.816 122.651 139.688 122.416C139.565 122.176 139.504 121.931 139.504 121.68C139.504 121.211 139.661 120.859 139.976 120.624C140.29 120.389 140.632 120.219 141 120.112C141.474 119.984 142.026 119.88 142.656 119.8C143.285 119.72 143.882 119.645 144.448 119.576C144.448 119.773 144.44 120 144.424 120.256C144.413 120.507 144.384 120.739 144.336 120.952C144.224 121.603 143.914 122.144 143.408 122.576C142.906 123.008 142.242 123.224 141.416 123.224ZM151.002 124.216C151.621 124.216 152.178 124.099 152.674 123.864C153.175 123.624 153.586 123.269 153.906 122.8V124H154.962V115.36H153.786V119.968C153.786 120.944 153.567 121.709 153.13 122.264C152.693 122.819 152.058 123.096 151.226 123.096C150.623 123.096 150.138 122.952 149.77 122.664C149.402 122.371 149.135 121.973 148.97 121.472C148.805 120.971 148.722 120.403 148.722 119.768V115.36H147.538V120.112C147.538 120.597 147.597 121.083 147.714 121.568C147.837 122.053 148.031 122.496 148.298 122.896C148.565 123.296 148.919 123.616 149.362 123.856C149.81 124.096 150.357 124.216 151.002 124.216ZM157.358 124H158.534V112.24H157.358V124ZM165.637 124V122.968C165.018 123.069 164.498 123.085 164.077 123.016C163.661 122.947 163.357 122.733 163.165 122.376C163.063 122.189 163.007 121.976 162.997 121.736C162.991 121.491 162.989 121.187 162.989 120.824V116.368H165.637V115.36H162.989V112.96H161.821V115.36H159.973V116.368H161.821V120.872C161.821 121.293 161.826 121.669 161.837 122C161.853 122.331 161.938 122.653 162.093 122.968C162.285 123.352 162.565 123.635 162.933 123.816C163.306 123.997 163.727 124.099 164.197 124.12C164.671 124.141 165.151 124.101 165.637 124Z" fill="white"></path> <path d="M25.112 176H26.296V170.424C26.296 169.747 26.48 169.205 26.848 168.8C27.216 168.389 27.6987 168.184 28.296 168.184C28.8933 168.184 29.3733 168.384 29.736 168.784C30.104 169.179 30.288 169.72 30.288 170.408L30.28 176H31.44L31.448 170.424C31.448 169.885 31.5467 169.453 31.744 169.128C31.9467 168.797 32.2027 168.557 32.512 168.408C32.8213 168.259 33.1387 168.184 33.464 168.184C34.0347 168.184 34.504 168.376 34.872 168.76C35.2453 169.139 35.432 169.661 35.432 170.328L35.424 176H36.6L36.608 170.104C36.608 169.192 36.3467 168.469 35.824 167.936C35.3067 167.397 34.6107 167.128 33.736 167.128C33.16 167.128 32.6427 167.259 32.184 167.52C31.7253 167.776 31.3707 168.131 31.12 168.584C30.8853 168.109 30.5467 167.749 30.104 167.504C29.6667 167.253 29.1653 167.128 28.6 167.128C28.088 167.128 27.6213 167.232 27.2 167.44C26.7787 167.643 26.4347 167.92 26.168 168.272V167.36H25.112V176ZM41.9865 176.216C42.6052 176.216 43.1625 176.099 43.6585 175.864C44.1598 175.624 44.5705 175.269 44.8905 174.8V176H45.9465V167.36H44.7705V171.968C44.7705 172.944 44.5518 173.709 44.1145 174.264C43.6772 174.819 43.0425 175.096 42.2105 175.096C41.6078 175.096 41.1225 174.952 40.7545 174.664C40.3865 174.371 40.1198 173.973 39.9545 173.472C39.7892 172.971 39.7065 172.403 39.7065 171.768V167.36H38.5225V172.112C38.5225 172.597 38.5812 173.083 38.6985 173.568C38.8212 174.053 39.0158 174.496 39.2825 174.896C39.5492 175.296 39.9038 175.616 40.3465 175.856C40.7945 176.096 41.3412 176.216 41.9865 176.216ZM48.3425 176H49.5185V164.24H48.3425V176ZM56.6209 176V174.968C56.0022 175.069 55.4822 175.085 55.0609 175.016C54.6449 174.947 54.3409 174.733 54.1489 174.376C54.0475 174.189 53.9915 173.976 53.9809 173.736C53.9755 173.491 53.9729 173.187 53.9729 172.824V168.368H56.6209V167.36H53.9729V164.96H52.8049V167.36H50.9569V168.368H52.8049V172.872C52.8049 173.293 52.8102 173.669 52.8209 174C52.8369 174.331 52.9222 174.653 53.0769 174.968C53.2689 175.352 53.5489 175.635 53.9169 175.816C54.2902 175.997 54.7115 176.099 55.1809 176.12C55.6555 176.141 56.1355 176.101 56.6209 176ZM58.4831 165.72H59.6591V164.4H58.4831V165.72ZM58.4831 176H59.6591V167.36H58.4831V176ZM61.2575 176H62.4815L63.4415 173.208H68.5615L69.5295 176H70.7535L66.7855 164.48H65.2255L61.2575 176ZM63.8255 172.104L65.9935 165.808L68.1775 172.104H63.8255ZM75.4221 176.232C76.4835 176.232 77.3155 176 77.9181 175.536C78.5261 175.067 78.8301 174.424 78.8301 173.608C78.8301 173.16 78.7341 172.784 78.5421 172.48C78.3555 172.176 78.0328 171.912 77.5741 171.688C77.1208 171.464 76.4968 171.251 75.7021 171.048C75.0248 170.877 74.5021 170.72 74.1341 170.576C73.7715 170.432 73.5208 170.28 73.3821 170.12C73.2435 169.955 73.1741 169.757 73.1741 169.528C73.1741 169.117 73.3661 168.789 73.7501 168.544C74.1341 168.299 74.6328 168.181 75.2461 168.192C75.8968 168.203 76.4328 168.357 76.8541 168.656C77.2755 168.949 77.5288 169.349 77.6141 169.856L78.8141 169.64C78.7555 169.139 78.5688 168.699 78.2541 168.32C77.9395 167.941 77.5235 167.648 77.0061 167.44C76.4941 167.227 75.9128 167.12 75.2621 167.12C74.6115 167.12 74.0381 167.224 73.5421 167.432C73.0515 167.635 72.6675 167.923 72.3901 168.296C72.1181 168.664 71.9821 169.093 71.9821 169.584C71.9821 169.984 72.0728 170.325 72.2541 170.608C72.4408 170.885 72.7581 171.133 73.2061 171.352C73.6541 171.565 74.2675 171.779 75.0461 171.992C75.7768 172.189 76.3235 172.36 76.6861 172.504C77.0541 172.648 77.2995 172.805 77.4221 172.976C77.5448 173.141 77.6061 173.357 77.6061 173.624C77.6061 174.093 77.4168 174.467 77.0381 174.744C76.6595 175.021 76.1421 175.16 75.4861 175.16C74.8141 175.16 74.2488 175.016 73.7901 174.728C73.3315 174.435 73.0408 174.043 72.9181 173.552L71.7181 173.752C71.8675 174.531 72.2675 175.139 72.9181 175.576C73.5741 176.013 74.4088 176.232 75.4221 176.232ZM83.8284 176.232C84.8897 176.232 85.7217 176 86.3244 175.536C86.9324 175.067 87.2364 174.424 87.2364 173.608C87.2364 173.16 87.1404 172.784 86.9484 172.48C86.7617 172.176 86.439 171.912 85.9804 171.688C85.527 171.464 84.903 171.251 84.1084 171.048C83.431 170.877 82.9084 170.72 82.5404 170.576C82.1777 170.432 81.927 170.28 81.7884 170.12C81.6497 169.955 81.5804 169.757 81.5804 169.528C81.5804 169.117 81.7724 168.789 82.1564 168.544C82.5404 168.299 83.039 168.181 83.6524 168.192C84.303 168.203 84.839 168.357 85.2604 168.656C85.6817 168.949 85.935 169.349 86.0204 169.856L87.2204 169.64C87.1617 169.139 86.975 168.699 86.6604 168.32C86.3457 167.941 85.9297 167.648 85.4124 167.44C84.9004 167.227 84.319 167.12 83.6684 167.12C83.0177 167.12 82.4444 167.224 81.9484 167.432C81.4577 167.635 81.0737 167.923 80.7964 168.296C80.5244 168.664 80.3884 169.093 80.3884 169.584C80.3884 169.984 80.479 170.325 80.6604 170.608C80.847 170.885 81.1644 171.133 81.6124 171.352C82.0604 171.565 82.6737 171.779 83.4524 171.992C84.183 172.189 84.7297 172.36 85.0924 172.504C85.4604 172.648 85.7057 172.805 85.8284 172.976C85.951 173.141 86.0124 173.357 86.0124 173.624C86.0124 174.093 85.823 174.467 85.4444 174.744C85.0657 175.021 84.5484 175.16 83.8924 175.16C83.2204 175.16 82.655 175.016 82.1964 174.728C81.7377 174.435 81.447 174.043 81.3244 173.552L80.1244 173.752C80.2737 174.531 80.6737 175.139 81.3244 175.576C81.9804 176.013 82.815 176.232 83.8284 176.232ZM92.6666 176.24C93.504 176.24 94.2533 176.035 94.9146 175.624C95.5813 175.213 96.0853 174.629 96.4266 173.872L95.3306 173.448C94.7813 174.557 93.8773 175.112 92.6186 175.112C91.7546 175.112 91.0773 174.843 90.5866 174.304C90.1013 173.765 89.8346 173 89.7866 172.008H96.5946C96.6373 170.483 96.304 169.288 95.5946 168.424C94.8906 167.555 93.8986 167.12 92.6186 167.12C91.7866 167.12 91.064 167.307 90.4506 167.68C89.8426 168.053 89.3706 168.584 89.0346 169.272C88.6986 169.96 88.5306 170.776 88.5306 171.72C88.5306 172.632 88.6986 173.427 89.0346 174.104C89.376 174.781 89.856 175.307 90.4746 175.68C91.0986 176.053 91.8293 176.24 92.6666 176.24ZM92.6506 168.2C94.2773 168.2 95.1813 169.141 95.3626 171.024H89.8106C89.9013 170.112 90.1893 169.413 90.6746 168.928C91.16 168.443 91.8186 168.2 92.6506 168.2ZM103.074 176V174.968C102.455 175.069 101.935 175.085 101.514 175.016C101.098 174.947 100.794 174.733 100.602 174.376C100.501 174.189 100.445 173.976 100.434 173.736C100.429 173.491 100.426 173.187 100.426 172.824V168.368H103.074V167.36H100.426V164.96H99.258V167.36H97.41V168.368H99.258V172.872C99.258 173.293 99.2633 173.669 99.274 174C99.29 174.331 99.3753 174.653 99.53 174.968C99.722 175.352 100.002 175.635 100.37 175.816C100.743 175.997 101.165 176.099 101.634 176.12C102.109 176.141 102.589 176.101 103.074 176ZM104.936 176H111.584V174.872H106.112V164.48H104.936V176ZM112.948 176H114.124V171.624H117.396C117.503 171.624 117.628 171.619 117.772 171.608C117.916 171.597 118.06 171.581 118.204 171.56C119.1 171.421 119.791 171.027 120.276 170.376C120.767 169.725 121.012 168.952 121.012 168.056C121.012 167.155 120.769 166.379 120.284 165.728C119.799 165.077 119.105 164.683 118.204 164.544C118.06 164.517 117.916 164.501 117.772 164.496C117.633 164.485 117.508 164.48 117.396 164.48H112.948V176ZM114.124 170.504V165.608H117.364C117.46 165.608 117.572 165.613 117.7 165.624C117.833 165.629 117.959 165.645 118.076 165.672C118.668 165.8 119.103 166.096 119.38 166.56C119.663 167.019 119.804 167.517 119.804 168.056C119.804 168.589 119.663 169.088 119.38 169.552C119.103 170.016 118.668 170.309 118.076 170.432C117.959 170.459 117.833 170.477 117.7 170.488C117.572 170.499 117.46 170.504 117.364 170.504H114.124ZM125.532 176H127.092L131.06 164.48H129.836L126.3 174.664L122.788 164.48H121.564L125.532 176ZM134.014 176.24C135.523 176.24 136.619 175.683 137.302 174.568V176H138.35V170.632C138.35 170.312 138.334 169.997 138.302 169.688C138.27 169.379 138.201 169.099 138.094 168.848C137.865 168.288 137.473 167.861 136.918 167.568C136.369 167.269 135.699 167.12 134.91 167.12C133.961 167.12 133.187 167.333 132.59 167.76C131.993 168.187 131.593 168.787 131.39 169.56L132.534 169.896C132.699 169.32 132.985 168.899 133.39 168.632C133.801 168.365 134.302 168.232 134.894 168.232C135.715 168.232 136.302 168.424 136.654 168.808C137.006 169.187 137.187 169.765 137.198 170.544C136.814 170.597 136.39 170.653 135.926 170.712C135.467 170.771 135.006 170.837 134.542 170.912C134.078 170.987 133.651 171.072 133.262 171.168C132.617 171.339 132.089 171.624 131.678 172.024C131.267 172.419 131.062 172.971 131.062 173.68C131.062 174.139 131.171 174.563 131.39 174.952C131.609 175.341 131.937 175.653 132.374 175.888C132.817 176.123 133.363 176.24 134.014 176.24ZM134.15 175.224C133.686 175.224 133.313 175.149 133.03 175C132.753 174.845 132.55 174.651 132.422 174.416C132.299 174.176 132.238 173.931 132.238 173.68C132.238 173.211 132.395 172.859 132.71 172.624C133.025 172.389 133.366 172.219 133.734 172.112C134.209 171.984 134.761 171.88 135.39 171.8C136.019 171.72 136.617 171.645 137.182 171.576C137.182 171.773 137.174 172 137.158 172.256C137.147 172.507 137.118 172.739 137.07 172.952C136.958 173.603 136.649 174.144 136.142 174.576C135.641 175.008 134.977 175.224 134.15 175.224ZM143.737 176.216C144.355 176.216 144.913 176.099 145.409 175.864C145.91 175.624 146.321 175.269 146.641 174.8V176H147.697V167.36H146.521V171.968C146.521 172.944 146.302 173.709 145.865 174.264C145.427 174.819 144.793 175.096 143.961 175.096C143.358 175.096 142.873 174.952 142.505 174.664C142.137 174.371 141.87 173.973 141.705 173.472C141.539 172.971 141.457 172.403 141.457 171.768V167.36H140.273V172.112C140.273 172.597 140.331 173.083 140.449 173.568C140.571 174.053 140.766 174.496 141.033 174.896C141.299 175.296 141.654 175.616 142.097 175.856C142.545 176.096 143.091 176.216 143.737 176.216ZM150.093 176H151.269V164.24H150.093V176ZM158.371 176V174.968C157.752 175.069 157.232 175.085 156.811 175.016C156.395 174.947 156.091 174.733 155.899 174.376C155.798 174.189 155.742 173.976 155.731 173.736C155.726 173.491 155.723 173.187 155.723 172.824V168.368H158.371V167.36H155.723V164.96H154.555V167.36H152.707V168.368H154.555V172.872C154.555 173.293 154.56 173.669 154.571 174C154.587 174.331 154.672 174.653 154.827 174.968C155.019 175.352 155.299 175.635 155.667 175.816C156.04 175.997 156.462 176.099 156.931 176.12C157.406 176.141 157.886 176.101 158.371 176Z" fill="white"></path> <path d="M25.12 228H26.296V223.688C26.296 223.171 26.3547 222.656 26.472 222.144C26.5947 221.627 26.872 221.197 27.304 220.856C27.6187 220.6 27.96 220.453 28.328 220.416C28.7013 220.373 29.048 220.389 29.368 220.464V219.36C28.9893 219.264 28.56 219.261 28.08 219.352C27.6 219.437 27.1893 219.629 26.848 219.928C26.592 220.12 26.368 220.387 26.176 220.728V219.36H25.12V228ZM34.3854 228.24C35.2227 228.24 35.972 228.035 36.6334 227.624C37.3 227.213 37.804 226.629 38.1454 225.872L37.0494 225.448C36.5 226.557 35.596 227.112 34.3374 227.112C33.4734 227.112 32.796 226.843 32.3054 226.304C31.82 225.765 31.5534 225 31.5054 224.008H38.3134C38.356 222.483 38.0227 221.288 37.3134 220.424C36.6094 219.555 35.6174 219.12 34.3374 219.12C33.5054 219.12 32.7827 219.307 32.1694 219.68C31.5614 220.053 31.0894 220.584 30.7534 221.272C30.4174 221.96 30.2494 222.776 30.2494 223.72C30.2494 224.632 30.4174 225.427 30.7534 226.104C31.0947 226.781 31.5747 227.307 32.1934 227.68C32.8174 228.053 33.548 228.24 34.3854 228.24ZM34.3694 220.2C35.996 220.2 36.9 221.141 37.0814 223.024H31.5294C31.62 222.112 31.908 221.413 32.3934 220.928C32.8787 220.443 33.5374 220.2 34.3694 220.2ZM41.6163 228H42.6403L44.7923 221.12L46.9523 228H47.9763L50.6163 219.36H49.4483L47.3843 226.072L45.3283 219.36H44.2563L42.2003 226.072L40.1523 219.36L38.9763 219.352L41.6163 228ZM54.0451 228.24C55.5545 228.24 56.6505 227.683 57.3331 226.568V228H58.3811V222.632C58.3811 222.312 58.3651 221.997 58.3331 221.688C58.3011 221.379 58.2318 221.099 58.1251 220.848C57.8958 220.288 57.5038 219.861 56.9491 219.568C56.3998 219.269 55.7305 219.12 54.9411 219.12C53.9918 219.12 53.2185 219.333 52.6211 219.76C52.0238 220.187 51.6238 220.787 51.4211 221.56L52.5651 221.896C52.7305 221.32 53.0158 220.899 53.4211 220.632C53.8318 220.365 54.3331 220.232 54.9251 220.232C55.7465 220.232 56.3331 220.424 56.6851 220.808C57.0371 221.187 57.2185 221.765 57.2291 222.544C56.8451 222.597 56.4211 222.653 55.9571 222.712C55.4985 222.771 55.0371 222.837 54.5731 222.912C54.1091 222.987 53.6825 223.072 53.2931 223.168C52.6478 223.339 52.1198 223.624 51.7091 224.024C51.2985 224.419 51.0931 224.971 51.0931 225.68C51.0931 226.139 51.2025 226.563 51.4211 226.952C51.6398 227.341 51.9678 227.653 52.4051 227.888C52.8478 228.123 53.3945 228.24 54.0451 228.24ZM54.1811 227.224C53.7171 227.224 53.3438 227.149 53.0611 227C52.7838 226.845 52.5811 226.651 52.4531 226.416C52.3305 226.176 52.2691 225.931 52.2691 225.68C52.2691 225.211 52.4265 224.859 52.7411 224.624C53.0558 224.389 53.3971 224.219 53.7651 224.112C54.2398 223.984 54.7918 223.88 55.4211 223.8C56.0505 223.72 56.6478 223.645 57.2131 223.576C57.2131 223.773 57.2051 224 57.1891 224.256C57.1785 224.507 57.1491 224.739 57.1011 224.952C56.9891 225.603 56.6798 226.144 56.1731 226.576C55.6718 227.008 55.0078 227.224 54.1811 227.224ZM60.4638 228H61.6398V223.688C61.6398 223.171 61.6984 222.656 61.8158 222.144C61.9384 221.627 62.2158 221.197 62.6478 220.856C62.9624 220.6 63.3038 220.453 63.6718 220.416C64.0451 220.373 64.3918 220.389 64.7118 220.464V219.36C64.3331 219.264 63.9038 219.261 63.4238 219.352C62.9438 219.437 62.5331 219.629 62.1918 219.928C61.9358 220.12 61.7118 220.387 61.5198 220.728V219.36H60.4638V228ZM69.4251 228.24C70.0545 228.24 70.6065 228.112 71.0811 227.856C71.5558 227.595 71.9478 227.24 72.2571 226.792V228H73.3131V216.48H72.1291V220.376C71.8145 219.981 71.4251 219.675 70.9611 219.456C70.5025 219.232 69.9745 219.12 69.3771 219.12C68.5878 219.12 67.9105 219.32 67.3451 219.72C66.7798 220.12 66.3451 220.664 66.0411 221.352C65.7425 222.04 65.5931 222.813 65.5931 223.672C65.5931 224.536 65.7425 225.312 66.0411 226C66.3451 226.688 66.7825 227.235 67.3531 227.64C67.9291 228.04 68.6198 228.24 69.4251 228.24ZM69.5451 227.144C68.9478 227.144 68.4465 226.992 68.0411 226.688C67.6411 226.379 67.3398 225.963 67.1371 225.44C66.9398 224.917 66.8411 224.328 66.8411 223.672C66.8411 223.021 66.9398 222.435 67.1371 221.912C67.3345 221.389 67.6331 220.976 68.0331 220.672C68.4385 220.368 68.9505 220.216 69.5691 220.216C70.4705 220.216 71.1425 220.539 71.5851 221.184C72.0331 221.824 72.2571 222.653 72.2571 223.672C72.2571 224.339 72.1585 224.933 71.9611 225.456C71.7638 225.979 71.4651 226.392 71.0651 226.696C70.6651 226.995 70.1585 227.144 69.5451 227.144ZM78.4855 228H80.0455L84.0135 216.48H82.7895L79.2535 226.664L75.7415 216.48H74.5175L78.4855 228ZM86.967 228.24C88.4763 228.24 89.5723 227.683 90.255 226.568V228H91.303V222.632C91.303 222.312 91.287 221.997 91.255 221.688C91.223 221.379 91.1537 221.099 91.047 220.848C90.8177 220.288 90.4257 219.861 89.871 219.568C89.3217 219.269 88.6523 219.12 87.863 219.12C86.9137 219.12 86.1403 219.333 85.543 219.76C84.9457 220.187 84.5457 220.787 84.343 221.56L85.487 221.896C85.6523 221.32 85.9377 220.899 86.343 220.632C86.7537 220.365 87.255 220.232 87.847 220.232C88.6683 220.232 89.255 220.424 89.607 220.808C89.959 221.187 90.1403 221.765 90.151 222.544C89.767 222.597 89.343 222.653 88.879 222.712C88.4203 222.771 87.959 222.837 87.495 222.912C87.031 222.987 86.6043 223.072 86.215 223.168C85.5697 223.339 85.0417 223.624 84.631 224.024C84.2203 224.419 84.015 224.971 84.015 225.68C84.015 226.139 84.1243 226.563 84.343 226.952C84.5617 227.341 84.8897 227.653 85.327 227.888C85.7697 228.123 86.3163 228.24 86.967 228.24ZM87.103 227.224C86.639 227.224 86.2657 227.149 85.983 227C85.7057 226.845 85.503 226.651 85.375 226.416C85.2523 226.176 85.191 225.931 85.191 225.68C85.191 225.211 85.3483 224.859 85.663 224.624C85.9777 224.389 86.319 224.219 86.687 224.112C87.1617 223.984 87.7137 223.88 88.343 223.8C88.9723 223.72 89.5697 223.645 90.135 223.576C90.135 223.773 90.127 224 90.111 224.256C90.1003 224.507 90.071 224.739 90.023 224.952C89.911 225.603 89.6017 226.144 89.095 226.576C88.5937 227.008 87.9297 227.224 87.103 227.224ZM96.6896 228.216C97.3083 228.216 97.8656 228.099 98.3616 227.864C98.863 227.624 99.2736 227.269 99.5936 226.8V228H100.65V219.36H99.4736V223.968C99.4736 224.944 99.255 225.709 98.8176 226.264C98.3803 226.819 97.7456 227.096 96.9136 227.096C96.311 227.096 95.8256 226.952 95.4576 226.664C95.0896 226.371 94.823 225.973 94.6576 225.472C94.4923 224.971 94.4096 224.403 94.4096 223.768V219.36H93.2256V224.112C93.2256 224.597 93.2843 225.083 93.4016 225.568C93.5243 226.053 93.719 226.496 93.9856 226.896C94.2523 227.296 94.607 227.616 95.0496 227.856C95.4976 228.096 96.0443 228.216 96.6896 228.216ZM103.046 228H104.222V216.24H103.046V228ZM111.324 228V226.968C110.705 227.069 110.185 227.085 109.764 227.016C109.348 226.947 109.044 226.733 108.852 226.376C108.751 226.189 108.695 225.976 108.684 225.736C108.679 225.491 108.676 225.187 108.676 224.824V220.368H111.324V219.36H108.676V216.96H107.508V219.36H105.66V220.368H107.508V224.872C107.508 225.293 107.513 225.669 107.524 226C107.54 226.331 107.625 226.653 107.78 226.968C107.972 227.352 108.252 227.635 108.62 227.816C108.993 227.997 109.415 228.099 109.884 228.12C110.359 228.141 110.839 228.101 111.324 228Z" fill="white"></path> <path d="M24 92H566" stroke="#282726"></path> <path d="M24 144H566" stroke="#282726"></path> <path d="M24 196H566" stroke="#282726"></path> <path d="M225.112 124H226.296V119.392C226.296 118.416 226.515 117.651 226.952 117.096C227.389 116.541 228.024 116.264 228.856 116.264C229.459 116.264 229.944 116.411 230.312 116.704C230.68 116.992 230.947 117.387 231.112 117.888C231.277 118.389 231.36 118.957 231.36 119.592V124H232.544V119.248C232.544 118.763 232.483 118.277 232.36 117.792C232.243 117.307 232.051 116.864 231.784 116.464C231.517 116.064 231.163 115.744 230.72 115.504C230.277 115.264 229.731 115.144 229.08 115.144C228.461 115.144 227.901 115.264 227.4 115.504C226.904 115.739 226.496 116.091 226.176 116.56V115.36H225.112V124ZM238.166 124.24C239.019 124.24 239.75 124.048 240.358 123.664C240.971 123.28 241.44 122.747 241.766 122.064C242.096 121.376 242.262 120.579 242.262 119.672C242.262 118.781 242.099 117.995 241.774 117.312C241.454 116.624 240.987 116.088 240.374 115.704C239.766 115.315 239.03 115.12 238.166 115.12C237.323 115.12 236.595 115.312 235.982 115.696C235.374 116.075 234.904 116.605 234.574 117.288C234.243 117.971 234.078 118.765 234.078 119.672C234.078 120.563 234.238 121.352 234.558 122.04C234.883 122.728 235.35 123.267 235.958 123.656C236.571 124.045 237.307 124.24 238.166 124.24ZM238.166 123.112C237.232 123.112 236.526 122.8 236.046 122.176C235.566 121.547 235.326 120.712 235.326 119.672C235.326 118.664 235.558 117.843 236.022 117.208C236.486 116.568 237.2 116.248 238.166 116.248C239.12 116.248 239.832 116.56 240.302 117.184C240.776 117.803 241.014 118.632 241.014 119.672C241.014 120.691 240.779 121.52 240.31 122.16C239.84 122.795 239.126 123.112 238.166 123.112ZM248.73 124V122.968C248.112 123.069 247.592 123.085 247.17 123.016C246.754 122.947 246.45 122.733 246.258 122.376C246.157 122.189 246.101 121.976 246.09 121.736C246.085 121.491 246.082 121.187 246.082 120.824V116.368H248.73V115.36H246.082V112.96H244.914V115.36H243.066V116.368H244.914V120.872C244.914 121.293 244.92 121.669 244.93 122C244.946 122.331 245.032 122.653 245.186 122.968C245.378 123.352 245.658 123.635 246.026 123.816C246.4 123.997 246.821 124.099 247.29 124.12C247.765 124.141 248.245 124.101 248.73 124ZM257.22 124.24C258.078 124.24 258.814 124.04 259.428 123.64C260.046 123.235 260.518 122.648 260.844 121.88L259.66 121.528C259.222 122.584 258.409 123.112 257.22 123.112C256.292 123.112 255.593 122.8 255.124 122.176C254.654 121.547 254.414 120.715 254.404 119.68C254.414 118.672 254.646 117.848 255.1 117.208C255.558 116.568 256.265 116.248 257.22 116.248C257.785 116.248 258.286 116.392 258.724 116.68C259.166 116.963 259.489 117.363 259.692 117.88L260.844 117.512C260.604 116.771 260.158 116.187 259.508 115.76C258.862 115.333 258.102 115.12 257.228 115.12C256.369 115.12 255.638 115.312 255.036 115.696C254.433 116.075 253.972 116.608 253.652 117.296C253.332 117.979 253.166 118.773 253.156 119.68C253.166 120.565 253.326 121.352 253.636 122.04C253.95 122.728 254.409 123.267 255.012 123.656C255.614 124.045 256.35 124.24 257.22 124.24ZM265.869 124.24C266.722 124.24 267.453 124.048 268.061 123.664C268.674 123.28 269.143 122.747 269.469 122.064C269.799 121.376 269.965 120.579 269.965 119.672C269.965 118.781 269.802 117.995 269.477 117.312C269.157 116.624 268.69 116.088 268.077 115.704C267.469 115.315 266.733 115.12 265.869 115.12C265.026 115.12 264.298 115.312 263.685 115.696C263.077 116.075 262.607 116.605 262.277 117.288C261.946 117.971 261.781 118.765 261.781 119.672C261.781 120.563 261.941 121.352 262.261 122.04C262.586 122.728 263.053 123.267 263.661 123.656C264.274 124.045 265.01 124.24 265.869 124.24ZM265.869 123.112C264.935 123.112 264.229 122.8 263.749 122.176C263.269 121.547 263.029 120.712 263.029 119.672C263.029 118.664 263.261 117.843 263.725 117.208C264.189 116.568 264.903 116.248 265.869 116.248C266.823 116.248 267.535 116.56 268.005 117.184C268.479 117.803 268.717 118.632 268.717 119.672C268.717 120.691 268.482 121.52 268.013 122.16C267.543 122.795 266.829 123.112 265.869 123.112ZM271.721 124H272.905V118.424C272.905 117.747 273.089 117.205 273.457 116.8C273.825 116.389 274.308 116.184 274.905 116.184C275.503 116.184 275.983 116.384 276.345 116.784C276.713 117.179 276.897 117.72 276.897 118.408L276.889 124H278.049L278.057 118.424C278.057 117.885 278.156 117.453 278.353 117.128C278.556 116.797 278.812 116.557 279.121 116.408C279.431 116.259 279.748 116.184 280.073 116.184C280.644 116.184 281.113 116.376 281.481 116.76C281.855 117.139 282.041 117.661 282.041 118.328L282.033 124H283.209L283.217 118.104C283.217 117.192 282.956 116.469 282.433 115.936C281.916 115.397 281.22 115.128 280.345 115.128C279.769 115.128 279.252 115.259 278.793 115.52C278.335 115.776 277.98 116.131 277.729 116.584C277.495 116.109 277.156 115.749 276.713 115.504C276.276 115.253 275.775 115.128 275.209 115.128C274.697 115.128 274.231 115.232 273.809 115.44C273.388 115.643 273.044 115.92 272.777 116.272V115.36H271.721V124ZM285.284 124H286.468V118.424C286.468 117.747 286.652 117.205 287.02 116.8C287.388 116.389 287.871 116.184 288.468 116.184C289.065 116.184 289.545 116.384 289.908 116.784C290.276 117.179 290.46 117.72 290.46 118.408L290.452 124H291.612L291.62 118.424C291.62 117.885 291.719 117.453 291.916 117.128C292.119 116.797 292.375 116.557 292.684 116.408C292.993 116.259 293.311 116.184 293.636 116.184C294.207 116.184 294.676 116.376 295.044 116.76C295.417 117.139 295.604 117.661 295.604 118.328L295.596 124H296.772L296.78 118.104C296.78 117.192 296.519 116.469 295.996 115.936C295.479 115.397 294.783 115.128 293.908 115.128C293.332 115.128 292.815 115.259 292.356 115.52C291.897 115.776 291.543 116.131 291.292 116.584C291.057 116.109 290.719 115.749 290.276 115.504C289.839 115.253 289.337 115.128 288.772 115.128C288.26 115.128 287.793 115.232 287.372 115.44C286.951 115.643 286.607 115.92 286.34 116.272V115.36H285.284V124ZM302.4 124.24C303.253 124.24 303.984 124.048 304.592 123.664C305.205 123.28 305.675 122.747 306 122.064C306.331 121.376 306.496 120.579 306.496 119.672C306.496 118.781 306.333 117.995 306.008 117.312C305.688 116.624 305.221 116.088 304.608 115.704C304 115.315 303.264 115.12 302.4 115.12C301.557 115.12 300.829 115.312 300.216 115.696C299.608 116.075 299.139 116.605 298.808 117.288C298.477 117.971 298.312 118.765 298.312 119.672C298.312 120.563 298.472 121.352 298.792 122.04C299.117 122.728 299.584 123.267 300.192 123.656C300.805 124.045 301.541 124.24 302.4 124.24ZM302.4 123.112C301.467 123.112 300.76 122.8 300.28 122.176C299.8 121.547 299.56 120.712 299.56 119.672C299.56 118.664 299.792 117.843 300.256 117.208C300.72 116.568 301.435 116.248 302.4 116.248C303.355 116.248 304.067 116.56 304.536 117.184C305.011 117.803 305.248 118.632 305.248 119.672C305.248 120.691 305.013 121.52 304.544 122.16C304.075 122.795 303.36 123.112 302.4 123.112ZM308.253 124H309.437V119.392C309.437 118.416 309.655 117.651 310.093 117.096C310.53 116.541 311.165 116.264 311.997 116.264C312.599 116.264 313.085 116.411 313.453 116.704C313.821 116.992 314.087 117.387 314.253 117.888C314.418 118.389 314.501 118.957 314.501 119.592V124H315.685V119.248C315.685 118.763 315.623 118.277 315.501 117.792C315.383 117.307 315.191 116.864 314.925 116.464C314.658 116.064 314.303 115.744 313.861 115.504C313.418 115.264 312.871 115.144 312.221 115.144C311.602 115.144 311.042 115.264 310.541 115.504C310.045 115.739 309.637 116.091 309.317 116.56V115.36H308.253V124Z" fill="white"></path> <path d="M225.112 176.118H226.296V171.51C226.296 170.534 226.515 169.768 226.952 169.214C227.389 168.659 228.024 168.382 228.856 168.382C229.459 168.382 229.944 168.528 230.312 168.822C230.68 169.11 230.947 169.504 231.112 170.006C231.277 170.507 231.36 171.075 231.36 171.71V176.118H232.544V171.366C232.544 170.88 232.483 170.395 232.36 169.91C232.243 169.424 232.051 168.982 231.784 168.582C231.517 168.182 231.163 167.862 230.72 167.622C230.277 167.382 229.731 167.262 229.08 167.262C228.461 167.262 227.901 167.382 227.4 167.622C226.904 167.856 226.496 168.208 226.176 168.678V167.478H225.112V176.118ZM238.166 176.358C239.019 176.358 239.75 176.166 240.358 175.782C240.971 175.398 241.44 174.864 241.766 174.182C242.096 173.494 242.262 172.696 242.262 171.79C242.262 170.899 242.099 170.112 241.774 169.43C241.454 168.742 240.987 168.206 240.374 167.822C239.766 167.432 239.03 167.238 238.166 167.238C237.323 167.238 236.595 167.43 235.982 167.814C235.374 168.192 234.904 168.723 234.574 169.406C234.243 170.088 234.078 170.883 234.078 171.79C234.078 172.68 234.238 173.47 234.558 174.158C234.883 174.846 235.35 175.384 235.958 175.774C236.571 176.163 237.307 176.358 238.166 176.358ZM238.166 175.23C237.232 175.23 236.526 174.918 236.046 174.294C235.566 173.664 235.326 172.83 235.326 171.79C235.326 170.782 235.558 169.96 236.022 169.326C236.486 168.686 237.2 168.366 238.166 168.366C239.12 168.366 239.832 168.678 240.302 169.302C240.776 169.92 241.014 170.75 241.014 171.79C241.014 172.808 240.779 173.638 240.31 174.278C239.84 174.912 239.126 175.23 238.166 175.23ZM248.73 176.118V175.086C248.112 175.187 247.592 175.203 247.17 175.134C246.754 175.064 246.45 174.851 246.258 174.494C246.157 174.307 246.101 174.094 246.09 173.854C246.085 173.608 246.082 173.304 246.082 172.942V168.486H248.73V167.478H246.082V165.078H244.914V167.478H243.066V168.486H244.914V172.99C244.914 173.411 244.92 173.787 244.93 174.118C244.946 174.448 245.032 174.771 245.186 175.086C245.378 175.47 245.658 175.752 246.026 175.934C246.4 176.115 246.821 176.216 247.29 176.238C247.765 176.259 248.245 176.219 248.73 176.118ZM257.22 176.358C258.078 176.358 258.814 176.158 259.428 175.758C260.046 175.352 260.518 174.766 260.844 173.998L259.66 173.646C259.222 174.702 258.409 175.23 257.22 175.23C256.292 175.23 255.593 174.918 255.124 174.294C254.654 173.664 254.414 172.832 254.404 171.798C254.414 170.79 254.646 169.966 255.1 169.326C255.558 168.686 256.265 168.366 257.22 168.366C257.785 168.366 258.286 168.51 258.724 168.798C259.166 169.08 259.489 169.48 259.692 169.998L260.844 169.63C260.604 168.888 260.158 168.304 259.508 167.878C258.862 167.451 258.102 167.238 257.228 167.238C256.369 167.238 255.638 167.43 255.036 167.814C254.433 168.192 253.972 168.726 253.652 169.414C253.332 170.096 253.166 170.891 253.156 171.798C253.166 172.683 253.326 173.47 253.636 174.158C253.95 174.846 254.409 175.384 255.012 175.774C255.614 176.163 256.35 176.358 257.22 176.358ZM265.869 176.358C266.722 176.358 267.453 176.166 268.061 175.782C268.674 175.398 269.143 174.864 269.469 174.182C269.799 173.494 269.965 172.696 269.965 171.79C269.965 170.899 269.802 170.112 269.477 169.43C269.157 168.742 268.69 168.206 268.077 167.822C267.469 167.432 266.733 167.238 265.869 167.238C265.026 167.238 264.298 167.43 263.685 167.814C263.077 168.192 262.607 168.723 262.277 169.406C261.946 170.088 261.781 170.883 261.781 171.79C261.781 172.68 261.941 173.47 262.261 174.158C262.586 174.846 263.053 175.384 263.661 175.774C264.274 176.163 265.01 176.358 265.869 176.358ZM265.869 175.23C264.935 175.23 264.229 174.918 263.749 174.294C263.269 173.664 263.029 172.83 263.029 171.79C263.029 170.782 263.261 169.96 263.725 169.326C264.189 168.686 264.903 168.366 265.869 168.366C266.823 168.366 267.535 168.678 268.005 169.302C268.479 169.92 268.717 170.75 268.717 171.79C268.717 172.808 268.482 173.638 268.013 174.278C267.543 174.912 266.829 175.23 265.869 175.23ZM271.721 176.118H272.905V170.542C272.905 169.864 273.089 169.323 273.457 168.918C273.825 168.507 274.308 168.302 274.905 168.302C275.503 168.302 275.983 168.502 276.345 168.902C276.713 169.296 276.897 169.838 276.897 170.526L276.889 176.118H278.049L278.057 170.542C278.057 170.003 278.156 169.571 278.353 169.246C278.556 168.915 278.812 168.675 279.121 168.526C279.431 168.376 279.748 168.302 280.073 168.302C280.644 168.302 281.113 168.494 281.481 168.878C281.855 169.256 282.041 169.779 282.041 170.446L282.033 176.118H283.209L283.217 170.222C283.217 169.31 282.956 168.587 282.433 168.054C281.916 167.515 281.22 167.246 280.345 167.246C279.769 167.246 279.252 167.376 278.793 167.638C278.335 167.894 277.98 168.248 277.729 168.702C277.495 168.227 277.156 167.867 276.713 167.622C276.276 167.371 275.775 167.246 275.209 167.246C274.697 167.246 274.231 167.35 273.809 167.558C273.388 167.76 273.044 168.038 272.777 168.39V167.478H271.721V176.118ZM285.284 176.118H286.468V170.542C286.468 169.864 286.652 169.323 287.02 168.918C287.388 168.507 287.871 168.302 288.468 168.302C289.065 168.302 289.545 168.502 289.908 168.902C290.276 169.296 290.46 169.838 290.46 170.526L290.452 176.118H291.612L291.62 170.542C291.62 170.003 291.719 169.571 291.916 169.246C292.119 168.915 292.375 168.675 292.684 168.526C292.993 168.376 293.311 168.302 293.636 168.302C294.207 168.302 294.676 168.494 295.044 168.878C295.417 169.256 295.604 169.779 295.604 170.446L295.596 176.118H296.772L296.78 170.222C296.78 169.31 296.519 168.587 295.996 168.054C295.479 167.515 294.783 167.246 293.908 167.246C293.332 167.246 292.815 167.376 292.356 167.638C291.897 167.894 291.543 168.248 291.292 168.702C291.057 168.227 290.719 167.867 290.276 167.622C289.839 167.371 289.337 167.246 288.772 167.246C288.26 167.246 287.793 167.35 287.372 167.558C286.951 167.76 286.607 168.038 286.34 168.39V167.478H285.284V176.118ZM302.4 176.358C303.253 176.358 303.984 176.166 304.592 175.782C305.205 175.398 305.675 174.864 306 174.182C306.331 173.494 306.496 172.696 306.496 171.79C306.496 170.899 306.333 170.112 306.008 169.43C305.688 168.742 305.221 168.206 304.608 167.822C304 167.432 303.264 167.238 302.4 167.238C301.557 167.238 300.829 167.43 300.216 167.814C299.608 168.192 299.139 168.723 298.808 169.406C298.477 170.088 298.312 170.883 298.312 171.79C298.312 172.68 298.472 173.47 298.792 174.158C299.117 174.846 299.584 175.384 300.192 175.774C300.805 176.163 301.541 176.358 302.4 176.358ZM302.4 175.23C301.467 175.23 300.76 174.918 300.28 174.294C299.8 173.664 299.56 172.83 299.56 171.79C299.56 170.782 299.792 169.96 300.256 169.326C300.72 168.686 301.435 168.366 302.4 168.366C303.355 168.366 304.067 168.678 304.536 169.302C305.011 169.92 305.248 170.75 305.248 171.79C305.248 172.808 305.013 173.638 304.544 174.278C304.075 174.912 303.36 175.23 302.4 175.23ZM308.253 176.118H309.437V171.51C309.437 170.534 309.655 169.768 310.093 169.214C310.53 168.659 311.165 168.382 311.997 168.382C312.599 168.382 313.085 168.528 313.453 168.822C313.821 169.11 314.087 169.504 314.253 170.006C314.418 170.507 314.501 171.075 314.501 171.71V176.118H315.685V171.366C315.685 170.88 315.623 170.395 315.501 169.91C315.383 169.424 315.191 168.982 314.925 168.582C314.658 168.182 314.303 167.862 313.861 167.622C313.418 167.382 312.871 167.262 312.221 167.262C311.602 167.262 311.042 167.382 310.541 167.622C310.045 167.856 309.637 168.208 309.317 168.678V167.478H308.253V176.118Z" fill="white"></path> <path d="M225.112 228.118H226.296V223.51C226.296 222.534 226.515 221.768 226.952 221.214C227.389 220.659 228.024 220.382 228.856 220.382C229.459 220.382 229.944 220.528 230.312 220.822C230.68 221.11 230.947 221.504 231.112 222.006C231.277 222.507 231.36 223.075 231.36 223.71V228.118H232.544V223.366C232.544 222.88 232.483 222.395 232.36 221.91C232.243 221.424 232.051 220.982 231.784 220.582C231.517 220.182 231.163 219.862 230.72 219.622C230.277 219.382 229.731 219.262 229.08 219.262C228.461 219.262 227.901 219.382 227.4 219.622C226.904 219.856 226.496 220.208 226.176 220.678V219.478H225.112V228.118ZM238.166 228.358C239.019 228.358 239.75 228.166 240.358 227.782C240.971 227.398 241.44 226.864 241.766 226.182C242.096 225.494 242.262 224.696 242.262 223.79C242.262 222.899 242.099 222.112 241.774 221.43C241.454 220.742 240.987 220.206 240.374 219.822C239.766 219.432 239.03 219.238 238.166 219.238C237.323 219.238 236.595 219.43 235.982 219.814C235.374 220.192 234.904 220.723 234.574 221.406C234.243 222.088 234.078 222.883 234.078 223.79C234.078 224.68 234.238 225.47 234.558 226.158C234.883 226.846 235.35 227.384 235.958 227.774C236.571 228.163 237.307 228.358 238.166 228.358ZM238.166 227.23C237.232 227.23 236.526 226.918 236.046 226.294C235.566 225.664 235.326 224.83 235.326 223.79C235.326 222.782 235.558 221.96 236.022 221.326C236.486 220.686 237.2 220.366 238.166 220.366C239.12 220.366 239.832 220.678 240.302 221.302C240.776 221.92 241.014 222.75 241.014 223.79C241.014 224.808 240.779 225.638 240.31 226.278C239.84 226.912 239.126 227.23 238.166 227.23ZM248.73 228.118V227.086C248.112 227.187 247.592 227.203 247.17 227.134C246.754 227.064 246.45 226.851 246.258 226.494C246.157 226.307 246.101 226.094 246.09 225.854C246.085 225.608 246.082 225.304 246.082 224.942V220.486H248.73V219.478H246.082V217.078H244.914V219.478H243.066V220.486H244.914V224.99C244.914 225.411 244.92 225.787 244.93 226.118C244.946 226.448 245.032 226.771 245.186 227.086C245.378 227.47 245.658 227.752 246.026 227.934C246.4 228.115 246.821 228.216 247.29 228.238C247.765 228.259 248.245 228.219 248.73 228.118ZM257.22 228.358C258.078 228.358 258.814 228.158 259.428 227.758C260.046 227.352 260.518 226.766 260.844 225.998L259.66 225.646C259.222 226.702 258.409 227.23 257.22 227.23C256.292 227.23 255.593 226.918 255.124 226.294C254.654 225.664 254.414 224.832 254.404 223.798C254.414 222.79 254.646 221.966 255.1 221.326C255.558 220.686 256.265 220.366 257.22 220.366C257.785 220.366 258.286 220.51 258.724 220.798C259.166 221.08 259.489 221.48 259.692 221.998L260.844 221.63C260.604 220.888 260.158 220.304 259.508 219.878C258.862 219.451 258.102 219.238 257.228 219.238C256.369 219.238 255.638 219.43 255.036 219.814C254.433 220.192 253.972 220.726 253.652 221.414C253.332 222.096 253.166 222.891 253.156 223.798C253.166 224.683 253.326 225.47 253.636 226.158C253.95 226.846 254.409 227.384 255.012 227.774C255.614 228.163 256.35 228.358 257.22 228.358ZM265.869 228.358C266.722 228.358 267.453 228.166 268.061 227.782C268.674 227.398 269.143 226.864 269.469 226.182C269.799 225.494 269.965 224.696 269.965 223.79C269.965 222.899 269.802 222.112 269.477 221.43C269.157 220.742 268.69 220.206 268.077 219.822C267.469 219.432 266.733 219.238 265.869 219.238C265.026 219.238 264.298 219.43 263.685 219.814C263.077 220.192 262.607 220.723 262.277 221.406C261.946 222.088 261.781 222.883 261.781 223.79C261.781 224.68 261.941 225.47 262.261 226.158C262.586 226.846 263.053 227.384 263.661 227.774C264.274 228.163 265.01 228.358 265.869 228.358ZM265.869 227.23C264.935 227.23 264.229 226.918 263.749 226.294C263.269 225.664 263.029 224.83 263.029 223.79C263.029 222.782 263.261 221.96 263.725 221.326C264.189 220.686 264.903 220.366 265.869 220.366C266.823 220.366 267.535 220.678 268.005 221.302C268.479 221.92 268.717 222.75 268.717 223.79C268.717 224.808 268.482 225.638 268.013 226.278C267.543 226.912 266.829 227.23 265.869 227.23ZM271.721 228.118H272.905V222.542C272.905 221.864 273.089 221.323 273.457 220.918C273.825 220.507 274.308 220.302 274.905 220.302C275.503 220.302 275.983 220.502 276.345 220.902C276.713 221.296 276.897 221.838 276.897 222.526L276.889 228.118H278.049L278.057 222.542C278.057 222.003 278.156 221.571 278.353 221.246C278.556 220.915 278.812 220.675 279.121 220.526C279.431 220.376 279.748 220.302 280.073 220.302C280.644 220.302 281.113 220.494 281.481 220.878C281.855 221.256 282.041 221.779 282.041 222.446L282.033 228.118H283.209L283.217 222.222C283.217 221.31 282.956 220.587 282.433 220.054C281.916 219.515 281.22 219.246 280.345 219.246C279.769 219.246 279.252 219.376 278.793 219.638C278.335 219.894 277.98 220.248 277.729 220.702C277.495 220.227 277.156 219.867 276.713 219.622C276.276 219.371 275.775 219.246 275.209 219.246C274.697 219.246 274.231 219.35 273.809 219.558C273.388 219.76 273.044 220.038 272.777 220.39V219.478H271.721V228.118ZM285.284 228.118H286.468V222.542C286.468 221.864 286.652 221.323 287.02 220.918C287.388 220.507 287.871 220.302 288.468 220.302C289.065 220.302 289.545 220.502 289.908 220.902C290.276 221.296 290.46 221.838 290.46 222.526L290.452 228.118H291.612L291.62 222.542C291.62 222.003 291.719 221.571 291.916 221.246C292.119 220.915 292.375 220.675 292.684 220.526C292.993 220.376 293.311 220.302 293.636 220.302C294.207 220.302 294.676 220.494 295.044 220.878C295.417 221.256 295.604 221.779 295.604 222.446L295.596 228.118H296.772L296.78 222.222C296.78 221.31 296.519 220.587 295.996 220.054C295.479 219.515 294.783 219.246 293.908 219.246C293.332 219.246 292.815 219.376 292.356 219.638C291.897 219.894 291.543 220.248 291.292 220.702C291.057 220.227 290.719 219.867 290.276 219.622C289.839 219.371 289.337 219.246 288.772 219.246C288.26 219.246 287.793 219.35 287.372 219.558C286.951 219.76 286.607 220.038 286.34 220.39V219.478H285.284V228.118ZM302.4 228.358C303.253 228.358 303.984 228.166 304.592 227.782C305.205 227.398 305.675 226.864 306 226.182C306.331 225.494 306.496 224.696 306.496 223.79C306.496 222.899 306.333 222.112 306.008 221.43C305.688 220.742 305.221 220.206 304.608 219.822C304 219.432 303.264 219.238 302.4 219.238C301.557 219.238 300.829 219.43 300.216 219.814C299.608 220.192 299.139 220.723 298.808 221.406C298.477 222.088 298.312 222.883 298.312 223.79C298.312 224.68 298.472 225.47 298.792 226.158C299.117 226.846 299.584 227.384 300.192 227.774C300.805 228.163 301.541 228.358 302.4 228.358ZM302.4 227.23C301.467 227.23 300.76 226.918 300.28 226.294C299.8 225.664 299.56 224.83 299.56 223.79C299.56 222.782 299.792 221.96 300.256 221.326C300.72 220.686 301.435 220.366 302.4 220.366C303.355 220.366 304.067 220.678 304.536 221.302C305.011 221.92 305.248 222.75 305.248 223.79C305.248 224.808 305.013 225.638 304.544 226.278C304.075 226.912 303.36 227.23 302.4 227.23ZM308.253 228.118H309.437V223.51C309.437 222.534 309.655 221.768 310.093 221.214C310.53 220.659 311.165 220.382 311.997 220.382C312.599 220.382 313.085 220.528 313.453 220.822C313.821 221.11 314.087 221.504 314.253 222.006C314.418 222.507 314.501 223.075 314.501 223.71V228.118H315.685V223.366C315.685 222.88 315.623 222.395 315.501 221.91C315.383 221.424 315.191 220.982 314.925 220.582C314.658 220.182 314.303 219.862 313.861 219.622C313.418 219.382 312.871 219.262 312.221 219.262C311.602 219.262 311.042 219.382 310.541 219.622C310.045 219.856 309.637 220.208 309.317 220.678V219.478H308.253V228.118Z" fill="white"></path> <path d="M229.064 47.6057H230.016V46.4777H229.112C228.883 46.4777 228.688 46.3977 228.528 46.2377C228.368 46.0777 228.288 45.8857 228.288 45.6617V40.4937C228.288 40.083 228.168 39.7097 227.928 39.3737L227.488 38.7577L227.928 38.1417C228.168 37.8057 228.288 37.4323 228.288 37.0217V31.8697C228.288 31.635 228.368 31.4377 228.528 31.2777C228.688 31.1177 228.883 31.0377 229.112 31.0377H230.016V29.9097H229.064C228.509 29.9097 228.053 30.0883 227.696 30.4457C227.339 30.803 227.16 31.259 227.16 31.8137V37.0217C227.16 37.1763 227.112 37.331 227.016 37.4857L226.336 38.4377C226.187 38.651 226.187 38.8643 226.336 39.0777L227.016 40.0297C227.112 40.179 227.16 40.3337 227.16 40.4937V45.7097C227.16 46.259 227.339 46.7123 227.696 47.0697C228.053 47.427 228.509 47.6057 229.064 47.6057ZM282.356 42.8297L281.604 42.0937L284.66 39.0777L281.604 36.0617L282.356 35.3257L286.108 39.0777L282.356 42.8297ZM334.095 32.5977H335.303L332.231 44.1177H331.023L334.095 32.5977ZM381.824 42.8297L381.072 42.0937L384.128 39.0777L381.072 36.0617L381.824 35.3257L385.576 39.0777L381.824 42.8297ZM488.516 32.5977H489.724L486.652 44.1177H485.444L488.516 32.5977ZM540.543 42.8297L539.791 42.0937L542.847 39.0777L539.791 36.0617L540.543 35.3257L544.295 39.0777L540.543 42.8297ZM279.595 60.5977H280.803L277.731 72.1177H276.523L279.595 60.5977ZM328.856 70.8297L328.104 70.0937L331.16 67.0777L328.104 64.0617L328.856 63.3257L332.608 67.0777L328.856 70.8297ZM393.449 70.8297L392.697 70.0937L395.753 67.0777L392.697 64.0617L393.449 63.3257L397.201 67.0777L393.449 70.8297ZM441.914 75.6057H440.962V74.4777H441.866C442.095 74.4777 442.29 74.3977 442.45 74.2377C442.61 74.0777 442.69 73.8857 442.69 73.6617V68.4937C442.69 68.083 442.81 67.7097 443.05 67.3737L443.49 66.7577L443.05 66.1417C442.81 65.8057 442.69 65.4323 442.69 65.0217V59.8697C442.69 59.635 442.61 59.4377 442.45 59.2777C442.29 59.1177 442.095 59.0377 441.866 59.0377H440.962V57.9097H441.914C442.468 57.9097 442.924 58.0883 443.282 58.4457C443.639 58.803 443.818 59.259 443.818 59.8137V65.0217C443.818 65.1763 443.866 65.331 443.962 65.4857L444.642 66.4377C444.791 66.651 444.791 66.8643 444.642 67.0777L443.962 68.0297C443.866 68.179 443.818 68.3337 443.818 68.4937V73.7097C443.818 74.259 443.639 74.7123 443.282 75.0697C442.924 75.427 442.468 75.6057 441.914 75.6057Z" fill="#949494"></path> <path d="M234.311 44.1177H235.495L238.199 34.6697L240.919 44.1177H242.103L245.423 32.5977H244.191L241.511 42.1097L238.815 32.5977L237.583 32.6057L234.903 42.1097L232.207 32.5977H230.983L234.311 44.1177ZM246.808 44.1177H254.008V42.9897H247.984V38.8377H253.048V37.7097H247.984V33.7257H254.008V32.5977H246.808V44.1177ZM258.997 44.1177H260.173V33.7257H264.197V32.5977H254.973V33.7257H258.997V44.1177ZM265.479 44.1177H266.655V38.9177H273.023V44.1177H274.191V32.5977H273.023V37.7897H266.655V32.5977H265.479V44.1177Z" fill="#0B7B95"></path> <path d="M291.867 44.1177H293.091L294.051 41.3257H299.171L300.139 44.1177H301.363L297.395 32.5977H295.835L291.867 44.1177ZM294.435 40.2217L296.603 33.9257L298.787 40.2217H294.435ZM302.586 44.1177H303.81L304.77 41.3257H309.89L310.858 44.1177H312.082L308.114 32.5977H306.554L302.586 44.1177ZM305.154 40.2217L307.322 33.9257L309.506 40.2217H305.154ZM315.329 44.1177H316.889L320.857 32.5977H319.633L316.097 42.7817L312.585 32.5977H311.361L315.329 44.1177ZM322.058 44.1177H329.258V42.9897H323.234V38.8377H328.298V37.7097H323.234V33.7257H329.258V32.5977H322.058V44.1177ZM446.289 44.1177H447.513L448.473 41.3257H453.593L454.561 44.1177H455.785L451.817 32.5977H450.257L446.289 44.1177ZM448.857 40.2217L451.025 33.9257L453.209 40.2217H448.857ZM457.008 44.1177H458.232L459.192 41.3257H464.312L465.28 44.1177H466.504L462.536 32.5977H460.976L457.008 44.1177ZM459.576 40.2217L461.744 33.9257L463.928 40.2217H459.576ZM469.751 44.1177H471.311L475.279 32.5977H474.055L470.519 42.7817L467.007 32.5977H465.783L469.751 44.1177ZM476.479 44.1177H483.679V42.9897H477.655V38.8377H482.719V37.7097H477.655V33.7257H483.679V32.5977H476.479V44.1177ZM403.91 72.3577C404.491 72.3577 405.008 72.2457 405.462 72.0217C405.915 71.7977 406.296 71.4883 406.606 71.0937V71.9817C406.611 72.995 406.411 73.7603 406.006 74.2777C405.6 74.795 404.928 75.0537 403.99 75.0537C403.536 75.0537 403.091 74.947 402.654 74.7337C402.216 74.5257 401.88 74.1817 401.646 73.7017L400.582 74.2937C400.95 74.9657 401.443 75.451 402.062 75.7497C402.686 76.0483 403.328 76.1977 403.99 76.1977C405.046 76.1977 405.888 75.9683 406.518 75.5097C407.147 75.051 407.539 74.339 407.694 73.3737C407.731 73.155 407.755 72.931 407.766 72.7017C407.782 72.4777 407.79 72.243 407.79 71.9977V63.4777H406.742V64.6697C406.427 64.2217 406.027 63.8723 405.542 63.6217C405.062 63.3657 404.502 63.2377 403.862 63.2377C403.072 63.2377 402.395 63.4377 401.83 63.8377C401.264 64.2377 400.83 64.7817 400.526 65.4697C400.227 66.1577 400.078 66.931 400.078 67.7897C400.078 68.6537 400.227 69.4297 400.526 70.1177C400.83 70.8057 401.267 71.3523 401.838 71.7577C402.414 72.1577 403.104 72.3577 403.91 72.3577ZM404.03 71.2617C403.432 71.2617 402.931 71.1097 402.526 70.8057C402.126 70.4963 401.824 70.0803 401.622 69.5577C401.424 69.035 401.326 68.4457 401.326 67.7897C401.326 67.139 401.424 66.5523 401.622 66.0297C401.819 65.507 402.118 65.0937 402.518 64.7897C402.923 64.4857 403.435 64.3337 404.054 64.3337C404.955 64.3337 405.627 64.6563 406.07 65.3017C406.518 65.9417 406.742 66.771 406.742 67.7897C406.742 68.4563 406.643 69.051 406.446 69.5737C406.248 70.0963 405.95 70.5097 405.55 70.8137C405.15 71.1123 404.643 71.2617 404.03 71.2617ZM414.522 72.3577C415.402 72.3577 416.178 72.1763 416.85 71.8137C417.528 71.4457 418.058 70.931 418.442 70.2697C418.826 69.6083 419.018 68.8377 419.018 67.9577V60.5977H417.834V67.8057C417.834 68.403 417.733 68.9203 417.53 69.3577C417.333 69.7897 417.069 70.147 416.738 70.4297C416.413 70.707 416.056 70.9123 415.666 71.0457C415.277 71.179 414.896 71.2457 414.522 71.2457C414.154 71.2457 413.776 71.179 413.386 71.0457C412.997 70.9123 412.637 70.707 412.306 70.4297C411.981 70.147 411.717 69.7897 411.514 69.3577C411.312 68.9203 411.21 68.403 411.21 67.8057V60.5977L410.026 60.6057V67.9577C410.026 68.843 410.218 69.6163 410.602 70.2777C410.986 70.939 411.517 71.451 412.194 71.8137C412.872 72.1763 413.648 72.3577 414.522 72.3577ZM424.776 72.3577C425.582 72.3577 426.299 72.2243 426.928 71.9577C427.563 71.691 428.064 71.307 428.432 70.8057C428.8 70.299 428.984 69.6883 428.984 68.9737C428.984 68.4297 428.883 67.979 428.68 67.6217C428.483 67.259 428.232 66.9683 427.928 66.7497C427.63 66.5257 427.323 66.355 427.008 66.2377C426.694 66.115 426.419 66.0217 426.184 65.9577L423.928 65.2937C423.63 65.2083 423.32 65.099 423 64.9657C422.686 64.8323 422.419 64.6483 422.2 64.4137C421.987 64.179 421.88 63.867 421.88 63.4777C421.88 63.0937 421.998 62.7523 422.232 62.4537C422.467 62.1497 422.787 61.9123 423.192 61.7417C423.598 61.5657 424.056 61.4803 424.568 61.4857C425.374 61.491 426.064 61.7177 426.64 62.1657C427.222 62.6083 427.571 63.203 427.688 63.9497L428.92 63.7257C428.734 62.691 428.251 61.875 427.472 61.2777C426.694 60.675 425.728 60.371 424.576 60.3657C423.819 60.3603 423.144 60.4883 422.552 60.7497C421.96 61.0057 421.494 61.371 421.152 61.8457C420.811 62.315 420.64 62.875 420.64 63.5257C420.64 64.299 420.872 64.9017 421.336 65.3337C421.806 65.7603 422.392 66.0777 423.096 66.2857L426.016 67.1577C426.283 67.2377 426.552 67.347 426.824 67.4857C427.096 67.6243 427.323 67.8163 427.504 68.0617C427.691 68.307 427.784 68.627 427.784 69.0217C427.784 69.475 427.656 69.867 427.4 70.1977C427.144 70.5283 426.792 70.7843 426.344 70.9657C425.902 71.1417 425.395 71.2297 424.824 71.2297C423.966 71.2297 423.227 71.019 422.608 70.5977C421.99 70.171 421.584 69.5843 421.392 68.8377L420.192 69.0377C420.326 69.7203 420.6 70.3097 421.016 70.8057C421.432 71.3017 421.96 71.6857 422.6 71.9577C423.246 72.2243 423.971 72.3577 424.776 72.3577ZM430.636 72.1177H434.132C434.244 72.1177 434.452 72.115 434.756 72.1097C435.06 72.1043 435.345 72.083 435.612 72.0457C436.486 71.923 437.217 71.6003 437.804 71.0777C438.39 70.5497 438.83 69.8777 439.124 69.0617C439.417 68.2403 439.564 67.339 439.564 66.3577C439.564 65.3763 439.417 64.4777 439.124 63.6617C438.83 62.8457 438.39 62.1737 437.804 61.6457C437.217 61.1123 436.486 60.787 435.612 60.6697C435.334 60.6323 435.049 60.611 434.756 60.6057C434.462 60.6003 434.254 60.5977 434.132 60.5977H430.636V72.1177ZM431.852 70.9897V61.7257H434.132C434.34 61.7257 434.572 61.7337 434.828 61.7497C435.089 61.7603 435.31 61.7843 435.492 61.8217C436.158 61.939 436.7 62.211 437.116 62.6377C437.532 63.059 437.836 63.5897 438.028 64.2297C438.22 64.8697 438.316 65.579 438.316 66.3577C438.316 67.1203 438.22 67.8243 438.028 68.4697C437.841 69.115 437.54 69.651 437.124 70.0777C436.708 70.5043 436.164 70.7763 435.492 70.8937C435.31 70.931 435.092 70.9577 434.836 70.9737C434.585 70.9843 434.35 70.9897 434.132 70.9897H431.852Z" fill="#FFB33D"></path> <path d="M339.858 44.3577C341.367 44.3577 342.463 43.8003 343.146 42.6857V44.1177H344.194V38.7497C344.194 38.4297 344.178 38.115 344.146 37.8057C344.114 37.4963 344.044 37.2163 343.938 36.9657C343.708 36.4057 343.316 35.979 342.762 35.6857C342.212 35.387 341.543 35.2377 340.754 35.2377C339.804 35.2377 339.031 35.451 338.434 35.8777C337.836 36.3043 337.436 36.9043 337.234 37.6777L338.378 38.0137C338.543 37.4377 338.828 37.0163 339.234 36.7497C339.644 36.483 340.146 36.3497 340.738 36.3497C341.559 36.3497 342.146 36.5417 342.498 36.9257C342.85 37.3043 343.031 37.883 343.042 38.6617C342.658 38.715 342.234 38.771 341.77 38.8297C341.311 38.8883 340.85 38.955 340.386 39.0297C339.922 39.1043 339.495 39.1897 339.106 39.2857C338.46 39.4563 337.932 39.7417 337.522 40.1417C337.111 40.5363 336.906 41.0883 336.906 41.7977C336.906 42.2563 337.015 42.6803 337.234 43.0697C337.452 43.459 337.78 43.771 338.218 44.0057C338.66 44.2403 339.207 44.3577 339.858 44.3577ZM339.994 43.3417C339.53 43.3417 339.156 43.267 338.874 43.1177C338.596 42.963 338.394 42.7683 338.266 42.5337C338.143 42.2937 338.082 42.0483 338.082 41.7977C338.082 41.3283 338.239 40.9763 338.554 40.7417C338.868 40.507 339.21 40.3363 339.578 40.2297C340.052 40.1017 340.604 39.9977 341.234 39.9177C341.863 39.8377 342.46 39.763 343.026 39.6937C343.026 39.891 343.018 40.1177 343.002 40.3737C342.991 40.6243 342.962 40.8563 342.914 41.0697C342.802 41.7203 342.492 42.2617 341.986 42.6937C341.484 43.1257 340.82 43.3417 339.994 43.3417ZM346.276 44.1177H353.476V42.9897H347.452V38.8377H352.516V37.7097H347.452V33.7257H353.476V32.5977H346.276V44.1177ZM358.465 44.1177H359.641V33.7257H363.665V32.5977H354.441V33.7257H358.465V44.1177ZM364.948 44.1177H366.124V38.9177H372.492V44.1177H373.66V32.5977H372.492V37.7897H366.124V32.5977H364.948V44.1177Z" fill="#B6708E"></path> <path d="M392.128 44.1177H393.184V42.9097C393.493 43.3577 393.885 43.7123 394.36 43.9737C394.834 44.2297 395.386 44.3577 396.016 44.3577C396.826 44.3577 397.517 44.1577 398.088 43.7577C398.658 43.3523 399.093 42.8057 399.392 42.1177C399.696 41.4297 399.848 40.6537 399.848 39.7897C399.848 38.931 399.696 38.1577 399.392 37.4697C399.093 36.7817 398.661 36.2377 398.096 35.8377C397.53 35.4377 396.853 35.2377 396.064 35.2377C395.466 35.2377 394.936 35.3497 394.472 35.5737C394.013 35.7923 393.626 36.099 393.312 36.4937V32.5977H392.128V44.1177ZM395.896 43.2617C395.282 43.2617 394.776 43.1123 394.376 42.8137C393.976 42.5097 393.677 42.0963 393.48 41.5737C393.282 41.051 393.184 40.4563 393.184 39.7897C393.184 38.771 393.405 37.9417 393.848 37.3017C394.296 36.6563 394.97 36.3337 395.872 36.3337C396.49 36.3337 397 36.4857 397.4 36.7897C397.805 37.0937 398.106 37.507 398.304 38.0297C398.501 38.5523 398.6 39.139 398.6 39.7897C398.6 40.4457 398.498 41.035 398.296 41.5577C398.098 42.0803 397.8 42.4963 397.4 42.8057C397 43.1097 396.498 43.2617 395.896 43.2617ZM405.212 44.3577C406.066 44.3577 406.796 44.1657 407.404 43.7817C408.018 43.3977 408.487 42.8643 408.812 42.1817C409.143 41.4937 409.308 40.6963 409.308 39.7897C409.308 38.899 409.146 38.1123 408.82 37.4297C408.5 36.7417 408.034 36.2057 407.42 35.8217C406.812 35.4323 406.076 35.2377 405.212 35.2377C404.37 35.2377 403.642 35.4297 403.028 35.8137C402.42 36.1923 401.951 36.723 401.62 37.4057C401.29 38.0883 401.124 38.883 401.124 39.7897C401.124 40.6803 401.284 41.4697 401.604 42.1577C401.93 42.8457 402.396 43.3843 403.004 43.7737C403.618 44.163 404.354 44.3577 405.212 44.3577ZM405.212 43.2297C404.279 43.2297 403.572 42.9177 403.092 42.2937C402.612 41.6643 402.372 40.8297 402.372 39.7897C402.372 38.7817 402.604 37.9603 403.068 37.3257C403.532 36.6857 404.247 36.3657 405.212 36.3657C406.167 36.3657 406.879 36.6777 407.348 37.3017C407.823 37.9203 408.06 38.7497 408.06 39.7897C408.06 40.8083 407.826 41.6377 407.356 42.2777C406.887 42.9123 406.172 43.2297 405.212 43.2297ZM411.073 44.1177H412.249V39.8057C412.249 39.2883 412.308 38.7737 412.425 38.2617C412.548 37.7443 412.825 37.315 413.257 36.9737C413.572 36.7177 413.913 36.571 414.281 36.5337C414.654 36.491 415.001 36.507 415.321 36.5817V35.4777C414.942 35.3817 414.513 35.379 414.033 35.4697C413.553 35.555 413.142 35.747 412.801 36.0457C412.545 36.2377 412.321 36.5043 412.129 36.8457V35.4777H411.073V44.1177ZM416.839 44.1177H418.015V39.8057C418.015 39.2883 418.073 38.7737 418.191 38.2617C418.313 37.7443 418.591 37.315 419.023 36.9737C419.337 36.7177 419.679 36.571 420.047 36.5337C420.42 36.491 420.767 36.507 421.087 36.5817V35.4777C420.708 35.3817 420.279 35.379 419.799 35.4697C419.319 35.555 418.908 35.747 418.567 36.0457C418.311 36.2377 418.087 36.5043 417.895 36.8457V35.4777H416.839V44.1177ZM426.056 44.3577C426.909 44.3577 427.64 44.1657 428.248 43.7817C428.861 43.3977 429.331 42.8643 429.656 42.1817C429.987 41.4937 430.152 40.6963 430.152 39.7897C430.152 38.899 429.989 38.1123 429.664 37.4297C429.344 36.7417 428.877 36.2057 428.264 35.8217C427.656 35.4323 426.92 35.2377 426.056 35.2377C425.213 35.2377 424.485 35.4297 423.872 35.8137C423.264 36.1923 422.795 36.723 422.464 37.4057C422.133 38.0883 421.968 38.883 421.968 39.7897C421.968 40.6803 422.128 41.4697 422.448 42.1577C422.773 42.8457 423.24 43.3843 423.848 43.7737C424.461 44.163 425.197 44.3577 426.056 44.3577ZM426.056 43.2297C425.123 43.2297 424.416 42.9177 423.936 42.2937C423.456 41.6643 423.216 40.8297 423.216 39.7897C423.216 38.7817 423.448 37.9603 423.912 37.3257C424.376 36.6857 425.091 36.3657 426.056 36.3657C427.011 36.3657 427.723 36.6777 428.192 37.3017C428.667 37.9203 428.904 38.7497 428.904 39.7897C428.904 40.8083 428.669 41.6377 428.2 42.2777C427.731 42.9123 427.016 43.2297 426.056 43.2297ZM433.444 44.1177H434.468L436.62 37.2377L438.78 44.1177H439.804L442.444 35.4777H441.276L439.212 42.1897L437.156 35.4777H436.084L434.028 42.1897L431.98 35.4777L430.804 35.4697L433.444 44.1177ZM285.982 72.3497C286.691 72.3497 287.32 72.1923 287.87 71.8777C288.424 71.5577 288.859 71.1177 289.174 70.5577C289.494 69.9923 289.654 69.3417 289.654 68.6057C289.654 67.8857 289.507 67.251 289.214 66.7017C288.92 66.1523 288.51 65.7257 287.982 65.4217C287.454 65.1123 286.84 64.9603 286.142 64.9657L289.518 61.7417V60.5977H282.862V61.7257H288.022L284.062 65.3817L284.654 66.3177C284.851 66.2217 285.064 66.1443 285.294 66.0857C285.523 66.027 285.742 65.9977 285.95 65.9977C286.696 65.9977 287.296 66.2377 287.75 66.7177C288.208 67.1923 288.438 67.8217 288.438 68.6057C288.438 69.379 288.216 70.003 287.774 70.4777C287.336 70.9523 286.734 71.1977 285.966 71.2137C285.416 71.2243 284.92 71.083 284.478 70.7897C284.035 70.4963 283.718 70.0643 283.526 69.4937L282.406 69.8297C282.651 70.6083 283.094 71.2243 283.734 71.6777C284.379 72.1257 285.128 72.3497 285.982 72.3497ZM296.393 72.3577C297.732 72.3577 298.825 72.0163 299.673 71.3337C300.521 70.6457 301.103 69.7257 301.417 68.5737L300.217 68.2617C299.972 69.1683 299.532 69.891 298.897 70.4297C298.263 70.963 297.428 71.2297 296.393 71.2297C295.492 71.2297 294.737 71.0243 294.129 70.6137C293.527 70.1977 293.073 69.6243 292.769 68.8937C292.471 68.163 292.324 67.3177 292.329 66.3577C292.34 65.3977 292.495 64.5523 292.793 63.8217C293.092 63.0857 293.54 62.5123 294.137 62.1017C294.74 61.691 295.492 61.4857 296.393 61.4857C297.428 61.4857 298.263 61.755 298.897 62.2937C299.532 62.827 299.972 63.547 300.217 64.4537L301.417 64.1417C301.103 62.9897 300.521 62.0723 299.673 61.3897C298.825 60.7017 297.732 60.3577 296.393 60.3577C295.247 60.3577 294.279 60.611 293.489 61.1177C292.7 61.6243 292.103 62.3283 291.697 63.2297C291.292 64.131 291.089 65.1737 291.089 66.3577C291.089 67.5363 291.292 68.579 291.697 69.4857C292.103 70.387 292.7 71.091 293.489 71.5977C294.279 72.1043 295.247 72.3577 296.393 72.3577ZM303.183 72.1177H304.359V67.7417H308.039L310.159 72.1177H311.511L309.239 67.4537C309.884 67.1923 310.38 66.7683 310.727 66.1817C311.073 65.595 311.247 64.9257 311.247 64.1737C311.247 63.2723 311.004 62.4963 310.519 61.8457C310.033 61.195 309.34 60.8003 308.439 60.6617C308.295 60.635 308.151 60.619 308.007 60.6137C307.868 60.603 307.743 60.5977 307.631 60.5977H303.183V72.1177ZM304.359 66.6217V61.7257H307.599C307.695 61.7257 307.807 61.731 307.935 61.7417C308.068 61.747 308.193 61.763 308.311 61.7897C308.903 61.9177 309.337 62.2137 309.615 62.6777C309.897 63.1363 310.039 63.635 310.039 64.1737C310.039 64.707 309.897 65.2057 309.615 65.6697C309.337 66.1337 308.903 66.427 308.311 66.5497C308.193 66.5763 308.068 66.595 307.935 66.6057C307.807 66.6163 307.695 66.6217 307.599 66.6217H304.359ZM316.204 72.1177H317.764L321.732 60.5977H320.508L316.972 70.7817L313.46 60.5977H312.236L316.204 72.1177Z" fill="#B46558"></path> <path d="M496.304 44.3577C497.184 44.3577 497.96 44.1763 498.632 43.8137C499.309 43.4457 499.84 42.931 500.224 42.2697C500.608 41.6083 500.8 40.8377 500.8 39.9577V32.5977H499.616V39.8057C499.616 40.403 499.514 40.9203 499.312 41.3577C499.114 41.7897 498.85 42.147 498.52 42.4297C498.194 42.707 497.837 42.9123 497.448 43.0457C497.058 43.179 496.677 43.2457 496.304 43.2457C495.936 43.2457 495.557 43.179 495.168 43.0457C494.778 42.9123 494.418 42.707 494.088 42.4297C493.762 42.147 493.498 41.7897 493.296 41.3577C493.093 40.9203 492.992 40.403 492.992 39.8057V32.5977L491.808 32.6057V39.9577C491.808 40.843 492 41.6163 492.384 42.2777C492.768 42.939 493.298 43.451 493.976 43.8137C494.653 44.1763 495.429 44.3577 496.304 44.3577ZM506.558 44.3577C507.363 44.3577 508.08 44.2243 508.71 43.9577C509.344 43.691 509.845 43.307 510.214 42.8057C510.582 42.299 510.766 41.6883 510.766 40.9737C510.766 40.4297 510.664 39.979 510.462 39.6217C510.264 39.259 510.014 38.9683 509.71 38.7497C509.411 38.5257 509.104 38.355 508.79 38.2377C508.475 38.115 508.2 38.0217 507.966 37.9577L505.71 37.2937C505.411 37.2083 505.102 37.099 504.782 36.9657C504.467 36.8323 504.2 36.6483 503.982 36.4137C503.768 36.179 503.662 35.867 503.662 35.4777C503.662 35.0937 503.779 34.7523 504.014 34.4537C504.248 34.1497 504.568 33.9123 504.974 33.7417C505.379 33.5657 505.838 33.4803 506.35 33.4857C507.155 33.491 507.846 33.7177 508.422 34.1657C509.003 34.6083 509.352 35.203 509.47 35.9497L510.702 35.7257C510.515 34.691 510.032 33.875 509.254 33.2777C508.475 32.675 507.51 32.371 506.358 32.3657C505.6 32.3603 504.926 32.4883 504.334 32.7497C503.742 33.0057 503.275 33.371 502.934 33.8457C502.592 34.315 502.422 34.875 502.422 35.5257C502.422 36.299 502.654 36.9017 503.118 37.3337C503.587 37.7603 504.174 38.0777 504.878 38.2857L507.798 39.1577C508.064 39.2377 508.334 39.347 508.606 39.4857C508.878 39.6243 509.104 39.8163 509.286 40.0617C509.472 40.307 509.566 40.627 509.566 41.0217C509.566 41.475 509.438 41.867 509.182 42.1977C508.926 42.5283 508.574 42.7843 508.126 42.9657C507.683 43.1417 507.176 43.2297 506.606 43.2297C505.747 43.2297 505.008 43.019 504.39 42.5977C503.771 42.171 503.366 41.5843 503.174 40.8377L501.974 41.0377C502.107 41.7203 502.382 42.3097 502.798 42.8057C503.214 43.3017 503.742 43.6857 504.382 43.9577C505.027 44.2243 505.752 44.3577 506.558 44.3577ZM512.417 44.1177H515.913C516.025 44.1177 516.233 44.115 516.537 44.1097C516.841 44.1043 517.126 44.083 517.393 44.0457C518.268 43.923 518.998 43.6003 519.585 43.0777C520.172 42.5497 520.612 41.8777 520.905 41.0617C521.198 40.2403 521.345 39.339 521.345 38.3577C521.345 37.3763 521.198 36.4777 520.905 35.6617C520.612 34.8457 520.172 34.1737 519.585 33.6457C518.998 33.1123 518.268 32.787 517.393 32.6697C517.116 32.6323 516.83 32.611 516.537 32.6057C516.244 32.6003 516.036 32.5977 515.913 32.5977H512.417V44.1177ZM513.633 42.9897V33.7257H515.913C516.121 33.7257 516.353 33.7337 516.609 33.7497C516.87 33.7603 517.092 33.7843 517.273 33.8217C517.94 33.939 518.481 34.211 518.897 34.6377C519.313 35.059 519.617 35.5897 519.809 36.2297C520.001 36.8697 520.097 37.579 520.097 38.3577C520.097 39.1203 520.001 39.8243 519.809 40.4697C519.622 41.115 519.321 41.651 518.905 42.0777C518.489 42.5043 517.945 42.7763 517.273 42.8937C517.092 42.931 516.873 42.9577 516.617 42.9737C516.366 42.9843 516.132 42.9897 515.913 42.9897H513.633ZM527.831 44.3577C529.17 44.3577 530.263 44.0163 531.111 43.3337C531.959 42.6457 532.54 41.7257 532.855 40.5737L531.655 40.2617C531.41 41.1683 530.97 41.891 530.335 42.4297C529.7 42.963 528.866 43.2297 527.831 43.2297C526.93 43.2297 526.175 43.0243 525.567 42.6137C524.964 42.1977 524.511 41.6243 524.207 40.8937C523.908 40.163 523.762 39.3177 523.767 38.3577C523.778 37.3977 523.932 36.5523 524.231 35.8217C524.53 35.0857 524.978 34.5123 525.575 34.1017C526.178 33.691 526.93 33.4857 527.831 33.4857C528.866 33.4857 529.7 33.755 530.335 34.2937C530.97 34.827 531.41 35.547 531.655 36.4537L532.855 36.1417C532.54 34.9897 531.959 34.0723 531.111 33.3897C530.263 32.7017 529.17 32.3577 527.831 32.3577C526.684 32.3577 525.716 32.611 524.927 33.1177C524.138 33.6243 523.54 34.3283 523.135 35.2297C522.73 36.131 522.527 37.1737 522.527 38.3577C522.527 39.5363 522.73 40.579 523.135 41.4857C523.54 42.387 524.138 43.091 524.927 43.5977C525.716 44.1043 526.684 44.3577 527.831 44.3577ZM343.831 72.3577C345.17 72.3577 346.263 72.0163 347.111 71.3337C347.959 70.6457 348.54 69.7257 348.855 68.5737L347.655 68.2617C347.41 69.1683 346.97 69.891 346.335 70.4297C345.7 70.963 344.866 71.2297 343.831 71.2297C342.93 71.2297 342.175 71.0243 341.567 70.6137C340.964 70.1977 340.511 69.6243 340.207 68.8937C339.908 68.163 339.762 67.3177 339.767 66.3577C339.778 65.3977 339.932 64.5523 340.231 63.8217C340.53 63.0857 340.978 62.5123 341.575 62.1017C342.178 61.691 342.93 61.4857 343.831 61.4857C344.866 61.4857 345.7 61.755 346.335 62.2937C346.97 62.827 347.41 63.547 347.655 64.4537L348.855 64.1417C348.54 62.9897 347.959 62.0723 347.111 61.3897C346.263 60.7017 345.17 60.3577 343.831 60.3577C342.684 60.3577 341.716 60.611 340.927 61.1177C340.138 61.6243 339.54 62.3283 339.135 63.2297C338.73 64.131 338.527 65.1737 338.527 66.3577C338.527 67.5363 338.73 68.579 339.135 69.4857C339.54 70.387 340.138 71.091 340.927 71.5977C341.716 72.1043 342.684 72.3577 343.831 72.3577ZM355.116 72.3577C355.996 72.3577 356.772 72.1763 357.444 71.8137C358.121 71.4457 358.652 70.931 359.036 70.2697C359.42 69.6083 359.612 68.8377 359.612 67.9577V60.5977H358.428V67.8057C358.428 68.403 358.327 68.9203 358.124 69.3577C357.927 69.7897 357.663 70.147 357.332 70.4297C357.007 70.707 356.649 70.9123 356.26 71.0457C355.871 71.179 355.489 71.2457 355.116 71.2457C354.748 71.2457 354.369 71.179 353.98 71.0457C353.591 70.9123 353.231 70.707 352.9 70.4297C352.575 70.147 352.311 69.7897 352.108 69.3577C351.905 68.9203 351.804 68.403 351.804 67.8057V60.5977L350.62 60.6057V67.9577C350.62 68.843 350.812 69.6163 351.196 70.2777C351.58 70.939 352.111 71.451 352.788 71.8137C353.465 72.1763 354.241 72.3577 355.116 72.3577ZM361.854 72.1177H363.03V67.7417H366.71L368.83 72.1177H370.182L367.91 67.4537C368.556 67.1923 369.052 66.7683 369.398 66.1817C369.745 65.595 369.918 64.9257 369.918 64.1737C369.918 63.2723 369.676 62.4963 369.19 61.8457C368.705 61.195 368.012 60.8003 367.11 60.6617C366.966 60.635 366.822 60.619 366.678 60.6137C366.54 60.603 366.414 60.5977 366.302 60.5977H361.854V72.1177ZM363.03 66.6217V61.7257H366.27C366.366 61.7257 366.478 61.731 366.606 61.7417C366.74 61.747 366.865 61.763 366.982 61.7897C367.574 61.9177 368.009 62.2137 368.286 62.6777C368.569 63.1363 368.71 63.635 368.71 64.1737C368.71 64.707 368.569 65.2057 368.286 65.6697C368.009 66.1337 367.574 66.427 366.982 66.5497C366.865 66.5763 366.74 66.595 366.606 66.6057C366.478 66.6163 366.366 66.6217 366.27 66.6217H363.03ZM374.876 72.1177H376.436L380.404 60.5977H379.18L375.644 70.7817L372.132 60.5977H370.908L374.876 72.1177ZM381.604 72.1177H388.804V70.9897H382.78V66.8377H387.844V65.7097H382.78V61.7257H388.804V60.5977H381.604V72.1177Z" fill="#DCA196"></path> <path d="M229.784 72.3577C231.123 72.3577 232.216 72.0163 233.064 71.3337C233.912 70.6457 234.493 69.7257 234.808 68.5737L233.608 68.2617C233.363 69.1683 232.923 69.891 232.288 70.4297C231.653 70.963 230.819 71.2297 229.784 71.2297C228.883 71.2297 228.128 71.0243 227.52 70.6137C226.917 70.1977 226.464 69.6243 226.16 68.8937C225.861 68.163 225.715 67.3177 225.72 66.3577C225.731 65.3977 225.885 64.5523 226.184 63.8217C226.483 63.0857 226.931 62.5123 227.528 62.1017C228.131 61.691 228.883 61.4857 229.784 61.4857C230.819 61.4857 231.653 61.755 232.288 62.2937C232.923 62.827 233.363 63.547 233.608 64.4537L234.808 64.1417C234.493 62.9897 233.912 62.0723 233.064 61.3897C232.216 60.7017 231.123 60.3577 229.784 60.3577C228.637 60.3577 227.669 60.611 226.88 61.1177C226.091 61.6243 225.493 62.3283 225.088 63.2297C224.683 64.131 224.48 65.1737 224.48 66.3577C224.48 67.5363 224.683 68.579 225.088 69.4857C225.493 70.387 226.091 71.091 226.88 71.5977C227.669 72.1043 228.637 72.3577 229.784 72.3577ZM241.069 72.3577C241.949 72.3577 242.725 72.1763 243.397 71.8137C244.074 71.4457 244.605 70.931 244.989 70.2697C245.373 69.6083 245.565 68.8377 245.565 67.9577V60.5977H244.381V67.8057C244.381 68.403 244.28 68.9203 244.077 69.3577C243.88 69.7897 243.616 70.147 243.285 70.4297C242.96 70.707 242.602 70.9123 242.213 71.0457C241.824 71.179 241.442 71.2457 241.069 71.2457C240.701 71.2457 240.322 71.179 239.933 71.0457C239.544 70.9123 239.184 70.707 238.853 70.4297C238.528 70.147 238.264 69.7897 238.061 69.3577C237.858 68.9203 237.757 68.403 237.757 67.8057V60.5977L236.573 60.6057V67.9577C236.573 68.843 236.765 69.6163 237.149 70.2777C237.533 70.939 238.064 71.451 238.741 71.8137C239.418 72.1763 240.194 72.3577 241.069 72.3577ZM247.808 72.1177H248.984V67.7417H252.664L254.784 72.1177H256.136L253.864 67.4537C254.509 67.1923 255.005 66.7683 255.352 66.1817C255.698 65.595 255.872 64.9257 255.872 64.1737C255.872 63.2723 255.629 62.4963 255.144 61.8457C254.658 61.195 253.965 60.8003 253.064 60.6617C252.92 60.635 252.776 60.619 252.632 60.6137C252.493 60.603 252.368 60.5977 252.256 60.5977H247.808V72.1177ZM248.984 66.6217V61.7257H252.224C252.32 61.7257 252.432 61.731 252.56 61.7417C252.693 61.747 252.818 61.763 252.936 61.7897C253.528 61.9177 253.962 62.2137 254.24 62.6777C254.522 63.1363 254.664 63.635 254.664 64.1737C254.664 64.707 254.522 65.2057 254.24 65.6697C253.962 66.1337 253.528 66.427 252.936 66.5497C252.818 66.5763 252.693 66.595 252.56 66.6057C252.432 66.6163 252.32 66.6217 252.224 66.6217H248.984ZM260.829 72.1177H262.389L266.357 60.5977H265.133L261.597 70.7817L258.085 60.5977H256.861L260.829 72.1177ZM267.558 72.1177H274.758V70.9897H268.734V66.8377H273.798V65.7097H268.734V61.7257H274.758V60.5977H267.558V72.1177Z" fill="#3D9EFF"></path> </svg> 