<?xml version="1.0" encoding="UTF-8"?> <svg xmlns="http://www.w3.org/2000/svg" width="590" height="260" viewBox="0 0 590 260" fill="none"> <rect x="0.5" y="0.5" width="589" height="231" rx="3.5" fill="#191919" stroke="#282726"></rect> <path d="M28.704 44.24C29.5627 44.24 30.2987 44.04 30.912 43.64C31.5307 43.2347 32.0027 42.648 32.328 41.88L31.144 41.528C30.7067 42.584 29.8933 43.112 28.704 43.112C27.776 43.112 27.0773 42.8 26.608 42.176C26.1387 41.5467 25.8987 40.7147 25.888 39.68C25.8987 38.672 26.1307 37.848 26.584 37.208C27.0427 36.568 27.7493 36.248 28.704 36.248C29.2693 36.248 29.7707 36.392 30.208 36.68C30.6507 36.9627 30.9733 37.3627 31.176 37.88L32.328 37.512C32.088 36.7707 31.6427 36.1867 30.992 35.76C30.3467 35.3333 29.5867 35.12 28.712 35.12C27.8533 35.12 27.1227 35.312 26.52 35.696C25.9173 36.0747 25.456 36.608 25.136 37.296C24.816 37.9787 24.6507 38.7733 24.64 39.68C24.6507 40.5653 24.8107 41.352 25.12 42.04C25.4347 42.728 25.8933 43.2667 26.496 43.656C27.0987 44.0453 27.8347 44.24 28.704 44.24ZM37.353 44.24C38.2063 44.24 38.937 44.048 39.545 43.664C40.1583 43.28 40.6277 42.7467 40.953 42.064C41.2837 41.376 41.449 40.5787 41.449 39.672C41.449 38.7813 41.2863 37.9947 40.961 37.312C40.641 36.624 40.1743 36.088 39.561 35.704C38.953 35.3147 38.217 35.12 37.353 35.12C36.5103 35.12 35.7823 35.312 35.169 35.696C34.561 36.0747 34.0917 36.6053 33.761 37.288C33.4303 37.9707 33.265 38.7653 33.265 39.672C33.265 40.5627 33.425 41.352 33.745 42.04C34.0703 42.728 34.537 43.2667 35.145 43.656C35.7583 44.0453 36.4943 44.24 37.353 44.24ZM37.353 43.112C36.4197 43.112 35.713 42.8 35.233 42.176C34.753 41.5467 34.513 40.712 34.513 39.672C34.513 38.664 34.745 37.8427 35.209 37.208C35.673 36.568 36.3877 36.248 37.353 36.248C38.3077 36.248 39.0197 36.56 39.489 37.184C39.9637 37.8027 40.201 38.632 40.201 39.672C40.201 40.6907 39.9663 41.52 39.497 42.16C39.0277 42.7947 38.313 43.112 37.353 43.112ZM43.2138 44H44.3898V39.688C44.3898 39.1707 44.4484 38.656 44.5658 38.144C44.6884 37.6267 44.9658 37.1973 45.3978 36.856C45.7124 36.6 46.0538 36.4533 46.4218 36.416C46.7951 36.3733 47.1418 36.3893 47.4618 36.464V35.36C47.0831 35.264 46.6538 35.2613 46.1738 35.352C45.6938 35.4373 45.2831 35.6293 44.9418 35.928C44.6858 36.12 44.4618 36.3867 44.2698 36.728V35.36H43.2138V44ZM52.4791 44.24C53.3165 44.24 54.0658 44.0347 54.7271 43.624C55.3938 43.2133 55.8978 42.6293 56.2391 41.872L55.1431 41.448C54.5938 42.5573 53.6898 43.112 52.4311 43.112C51.5671 43.112 50.8898 42.8427 50.3991 42.304C49.9138 41.7653 49.6471 41 49.5991 40.008H56.4071C56.4498 38.4827 56.1165 37.288 55.4071 36.424C54.7031 35.5547 53.7111 35.12 52.4311 35.12C51.5991 35.12 50.8765 35.3067 50.2631 35.68C49.6551 36.0533 49.1831 36.584 48.8471 37.272C48.5111 37.96 48.3431 38.776 48.3431 39.72C48.3431 40.632 48.5111 41.4267 48.8471 42.104C49.1885 42.7813 49.6685 43.3067 50.2871 43.68C50.9111 44.0533 51.6418 44.24 52.4791 44.24ZM52.4631 36.2C54.0898 36.2 54.9938 37.1413 55.1751 39.024H49.6231C49.7138 38.112 50.0018 37.4133 50.4871 36.928C50.9725 36.4427 51.6311 36.2 52.4631 36.2ZM60.6261 44H62.1861L66.1541 32.48H64.9301L61.3941 42.664L57.8821 32.48H56.6581L60.6261 44ZM69.1076 44.24C70.617 44.24 71.713 43.6827 72.3956 42.568V44H73.4436V38.632C73.4436 38.312 73.4276 37.9973 73.3956 37.688C73.3636 37.3787 73.2943 37.0987 73.1876 36.848C72.9583 36.288 72.5663 35.8613 72.0116 35.568C71.4623 35.2693 70.793 35.12 70.0036 35.12C69.0543 35.12 68.281 35.3333 67.6836 35.76C67.0863 36.1867 66.6863 36.7867 66.4836 37.56L67.6276 37.896C67.793 37.32 68.0783 36.8987 68.4836 36.632C68.8943 36.3653 69.3956 36.232 69.9876 36.232C70.809 36.232 71.3956 36.424 71.7476 36.808C72.0996 37.1867 72.281 37.7653 72.2916 38.544C71.9076 38.5973 71.4836 38.6533 71.0196 38.712C70.561 38.7707 70.0996 38.8373 69.6356 38.912C69.1716 38.9867 68.745 39.072 68.3556 39.168C67.7103 39.3387 67.1823 39.624 66.7716 40.024C66.361 40.4187 66.1556 40.9707 66.1556 41.68C66.1556 42.1387 66.265 42.5627 66.4836 42.952C66.7023 43.3413 67.0303 43.6533 67.4676 43.888C67.9103 44.1227 68.457 44.24 69.1076 44.24ZM69.2436 43.224C68.7796 43.224 68.4063 43.1493 68.1236 43C67.8463 42.8453 67.6436 42.6507 67.5156 42.416C67.393 42.176 67.3316 41.9307 67.3316 41.68C67.3316 41.2107 67.489 40.8587 67.8036 40.624C68.1183 40.3893 68.4596 40.2187 68.8276 40.112C69.3023 39.984 69.8543 39.88 70.4836 39.8C71.113 39.72 71.7103 39.6453 72.2756 39.576C72.2756 39.7733 72.2676 40 72.2516 40.256C72.241 40.5067 72.2116 40.7387 72.1636 40.952C72.0516 41.6027 71.7423 42.144 71.2356 42.576C70.7343 43.008 70.0703 43.224 69.2436 43.224ZM78.8303 44.216C79.4489 44.216 80.0063 44.0987 80.5023 43.864C81.0036 43.624 81.4143 43.2693 81.7343 42.8V44H82.7903V35.36H81.6143V39.968C81.6143 40.944 81.3956 41.7093 80.9583 42.264C80.5209 42.8187 79.8863 43.096 79.0543 43.096C78.4516 43.096 77.9663 42.952 77.5983 42.664C77.2303 42.3707 76.9636 41.9733 76.7983 41.472C76.6329 40.9707 76.5503 40.4027 76.5503 39.768V35.36H75.3663V40.112C75.3663 40.5973 75.4249 41.0827 75.5423 41.568C75.6649 42.0533 75.8596 42.496 76.1263 42.896C76.3929 43.296 76.7476 43.616 77.1903 43.856C77.6383 44.096 78.1849 44.216 78.8303 44.216ZM85.1863 44H86.3623V32.24H85.1863V44ZM93.4646 44V42.968C92.846 43.0693 92.326 43.0853 91.9046 43.016C91.4886 42.9467 91.1846 42.7333 90.9926 42.376C90.8913 42.1893 90.8353 41.976 90.8246 41.736C90.8193 41.4907 90.8166 41.1867 90.8166 40.824V36.368H93.4646V35.36H90.8166V32.96H89.6486V35.36H87.8006V36.368H89.6486V40.872C89.6486 41.2933 89.654 41.6693 89.6646 42C89.6806 42.3307 89.766 42.6533 89.9206 42.968C90.1126 43.352 90.3926 43.6347 90.7606 43.816C91.134 43.9973 91.5553 44.0987 92.0246 44.12C92.4993 44.1413 92.9793 44.1013 93.4646 44Z" fill="white"></path> <path d="M217.112 44H218.296V39.392C218.296 38.416 218.515 37.6507 218.952 37.096C219.389 36.5413 220.024 36.264 220.856 36.264C221.459 36.264 221.944 36.4107 222.312 36.704C222.68 36.992 222.947 37.3867 223.112 37.888C223.277 38.3893 223.36 38.9573 223.36 39.592V44H224.544V39.248C224.544 38.7627 224.483 38.2773 224.36 37.792C224.243 37.3067 224.051 36.864 223.784 36.464C223.517 36.064 223.163 35.744 222.72 35.504C222.277 35.264 221.731 35.144 221.08 35.144C220.461 35.144 219.901 35.264 219.4 35.504C218.904 35.7387 218.496 36.0907 218.176 36.56V35.36H217.112V44ZM230.166 44.24C231.019 44.24 231.75 44.048 232.358 43.664C232.971 43.28 233.44 42.7467 233.766 42.064C234.096 41.376 234.262 40.5787 234.262 39.672C234.262 38.7813 234.099 37.9947 233.774 37.312C233.454 36.624 232.987 36.088 232.374 35.704C231.766 35.3147 231.03 35.12 230.166 35.12C229.323 35.12 228.595 35.312 227.982 35.696C227.374 36.0747 226.904 36.6053 226.574 37.288C226.243 37.9707 226.078 38.7653 226.078 39.672C226.078 40.5627 226.238 41.352 226.558 42.04C226.883 42.728 227.35 43.2667 227.958 43.656C228.571 44.0453 229.307 44.24 230.166 44.24ZM230.166 43.112C229.232 43.112 228.526 42.8 228.046 42.176C227.566 41.5467 227.326 40.712 227.326 39.672C227.326 38.664 227.558 37.8427 228.022 37.208C228.486 36.568 229.2 36.248 230.166 36.248C231.12 36.248 231.832 36.56 232.302 37.184C232.776 37.8027 233.014 38.632 233.014 39.672C233.014 40.6907 232.779 41.52 232.31 42.16C231.84 42.7947 231.126 43.112 230.166 43.112ZM240.73 44V42.968C240.112 43.0693 239.592 43.0853 239.17 43.016C238.754 42.9467 238.45 42.7333 238.258 42.376C238.157 42.1893 238.101 41.976 238.09 41.736C238.085 41.4907 238.082 41.1867 238.082 40.824V36.368H240.73V35.36H238.082V32.96H236.914V35.36H235.066V36.368H236.914V40.872C236.914 41.2933 236.92 41.6693 236.93 42C236.946 42.3307 237.032 42.6533 237.186 42.968C237.378 43.352 237.658 43.6347 238.026 43.816C238.4 43.9973 238.821 44.0987 239.29 44.12C239.765 44.1413 240.245 44.1013 240.73 44ZM248.108 44.24C249.617 44.24 250.713 43.6827 251.396 42.568V44H252.444V38.632C252.444 38.312 252.428 37.9973 252.396 37.688C252.364 37.3787 252.294 37.0987 252.188 36.848C251.958 36.288 251.566 35.8613 251.012 35.568C250.462 35.2693 249.793 35.12 249.004 35.12C248.054 35.12 247.281 35.3333 246.684 35.76C246.086 36.1867 245.686 36.7867 245.484 37.56L246.628 37.896C246.793 37.32 247.078 36.8987 247.484 36.632C247.894 36.3653 248.396 36.232 248.988 36.232C249.809 36.232 250.396 36.424 250.748 36.808C251.1 37.1867 251.281 37.7653 251.292 38.544C250.908 38.5973 250.484 38.6533 250.02 38.712C249.561 38.7707 249.1 38.8373 248.636 38.912C248.172 38.9867 247.745 39.072 247.356 39.168C246.71 39.3387 246.182 39.624 245.772 40.024C245.361 40.4187 245.156 40.9707 245.156 41.68C245.156 42.1387 245.265 42.5627 245.484 42.952C245.702 43.3413 246.03 43.6533 246.468 43.888C246.91 44.1227 247.457 44.24 248.108 44.24ZM248.244 43.224C247.78 43.224 247.406 43.1493 247.124 43C246.846 42.8453 246.644 42.6507 246.516 42.416C246.393 42.176 246.332 41.9307 246.332 41.68C246.332 41.2107 246.489 40.8587 246.804 40.624C247.118 40.3893 247.46 40.2187 247.828 40.112C248.302 39.984 248.854 39.88 249.484 39.8C250.113 39.72 250.71 39.6453 251.276 39.576C251.276 39.7733 251.268 40 251.252 40.256C251.241 40.5067 251.212 40.7387 251.164 40.952C251.052 41.6027 250.742 42.144 250.236 42.576C249.734 43.008 249.07 43.224 248.244 43.224ZM254.518 47.84H255.702V42.968C256.012 43.3627 256.393 43.6747 256.846 43.904C257.3 44.128 257.82 44.24 258.406 44.24C259.217 44.24 259.908 44.04 260.478 43.64C261.049 43.2347 261.484 42.688 261.782 42C262.086 41.312 262.238 40.536 262.238 39.672C262.238 38.8133 262.086 38.04 261.782 37.352C261.484 36.664 261.052 36.12 260.486 35.72C259.921 35.32 259.244 35.12 258.454 35.12C257.814 35.12 257.252 35.248 256.766 35.504C256.286 35.7547 255.889 36.104 255.574 36.552V35.36H254.518V47.84ZM258.286 43.144C257.673 43.144 257.166 42.9947 256.766 42.696C256.366 42.392 256.068 41.9787 255.87 41.456C255.673 40.9333 255.574 40.3387 255.574 39.672C255.574 38.6533 255.796 37.824 256.238 37.184C256.686 36.5387 257.361 36.216 258.262 36.216C258.881 36.216 259.39 36.368 259.79 36.672C260.196 36.976 260.497 37.3893 260.694 37.912C260.892 38.4347 260.99 39.0213 260.99 39.672C260.99 40.328 260.889 40.9173 260.686 41.44C260.489 41.9627 260.19 42.3787 259.79 42.688C259.39 42.992 258.889 43.144 258.286 43.144ZM263.987 47.84H265.171V42.968C265.48 43.3627 265.862 43.6747 266.315 43.904C266.768 44.128 267.288 44.24 267.875 44.24C268.686 44.24 269.376 44.04 269.947 43.64C270.518 43.2347 270.952 42.688 271.251 42C271.555 41.312 271.707 40.536 271.707 39.672C271.707 38.8133 271.555 38.04 271.251 37.352C270.952 36.664 270.52 36.12 269.955 35.72C269.39 35.32 268.712 35.12 267.923 35.12C267.283 35.12 266.72 35.248 266.235 35.504C265.755 35.7547 265.358 36.104 265.043 36.552V35.36H263.987V47.84ZM267.755 43.144C267.142 43.144 266.635 42.9947 266.235 42.696C265.835 42.392 265.536 41.9787 265.339 41.456C265.142 40.9333 265.043 40.3387 265.043 39.672C265.043 38.6533 265.264 37.824 265.707 37.184C266.155 36.5387 266.83 36.216 267.731 36.216C268.35 36.216 268.859 36.368 269.259 36.672C269.664 36.976 269.966 37.3893 270.163 37.912C270.36 38.4347 270.459 39.0213 270.459 39.672C270.459 40.328 270.358 40.9173 270.155 41.44C269.958 41.9627 269.659 42.3787 269.259 42.688C268.859 42.992 268.358 43.144 267.755 43.144ZM273.624 44H274.8V32.24H273.624V44ZM277.358 33.72H278.534V32.4H277.358V33.72ZM277.358 44H278.534V35.36H277.358V44ZM284.516 44.24C285.375 44.24 286.111 44.04 286.725 43.64C287.343 43.2347 287.815 42.648 288.141 41.88L286.957 41.528C286.519 42.584 285.706 43.112 284.516 43.112C283.589 43.112 282.89 42.8 282.421 42.176C281.951 41.5467 281.711 40.7147 281.701 39.68C281.711 38.672 281.943 37.848 282.397 37.208C282.855 36.568 283.562 36.248 284.516 36.248C285.082 36.248 285.583 36.392 286.021 36.68C286.463 36.9627 286.786 37.3627 286.989 37.88L288.141 37.512C287.901 36.7707 287.455 36.1867 286.805 35.76C286.159 35.3333 285.399 35.12 284.525 35.12C283.666 35.12 282.935 35.312 282.333 35.696C281.73 36.0747 281.269 36.608 280.949 37.296C280.629 37.9787 280.463 38.7733 280.453 39.68C280.463 40.5653 280.623 41.352 280.933 42.04C281.247 42.728 281.706 43.2667 282.309 43.656C282.911 44.0453 283.647 44.24 284.516 44.24ZM292.201 44.24C293.711 44.24 294.807 43.6827 295.489 42.568V44H296.537V38.632C296.537 38.312 296.521 37.9973 296.489 37.688C296.457 37.3787 296.388 37.0987 296.281 36.848C296.052 36.288 295.66 35.8613 295.105 35.568C294.556 35.2693 293.887 35.12 293.097 35.12C292.148 35.12 291.375 35.3333 290.777 35.76C290.18 36.1867 289.78 36.7867 289.577 37.56L290.721 37.896C290.887 37.32 291.172 36.8987 291.577 36.632C291.988 36.3653 292.489 36.232 293.081 36.232C293.903 36.232 294.489 36.424 294.841 36.808C295.193 37.1867 295.375 37.7653 295.385 38.544C295.001 38.5973 294.577 38.6533 294.113 38.712C293.655 38.7707 293.193 38.8373 292.729 38.912C292.265 38.9867 291.839 39.072 291.449 39.168C290.804 39.3387 290.276 39.624 289.865 40.024C289.455 40.4187 289.249 40.9707 289.249 41.68C289.249 42.1387 289.359 42.5627 289.577 42.952C289.796 43.3413 290.124 43.6533 290.561 43.888C291.004 44.1227 291.551 44.24 292.201 44.24ZM292.337 43.224C291.873 43.224 291.5 43.1493 291.217 43C290.94 42.8453 290.737 42.6507 290.609 42.416C290.487 42.176 290.425 41.9307 290.425 41.68C290.425 41.2107 290.583 40.8587 290.897 40.624C291.212 40.3893 291.553 40.2187 291.921 40.112C292.396 39.984 292.948 39.88 293.577 39.8C294.207 39.72 294.804 39.6453 295.369 39.576C295.369 39.7733 295.361 40 295.345 40.256C295.335 40.5067 295.305 40.7387 295.257 40.952C295.145 41.6027 294.836 42.144 294.329 42.576C293.828 43.008 293.164 43.224 292.337 43.224ZM298.612 44H299.668V42.792C299.977 43.24 300.369 43.5947 300.844 43.856C301.319 44.112 301.871 44.24 302.5 44.24C303.311 44.24 304.001 44.04 304.572 43.64C305.143 43.2347 305.577 42.688 305.876 42C306.18 41.312 306.332 40.536 306.332 39.672C306.332 38.8133 306.18 38.04 305.876 37.352C305.577 36.664 305.145 36.12 304.58 35.72C304.015 35.32 303.337 35.12 302.548 35.12C301.951 35.12 301.42 35.232 300.956 35.456C300.497 35.6747 300.111 35.9813 299.796 36.376V32.48H298.612V44ZM302.38 43.144C301.767 43.144 301.26 42.9947 300.86 42.696C300.46 42.392 300.161 41.9787 299.964 41.456C299.767 40.9333 299.668 40.3387 299.668 39.672C299.668 38.6533 299.889 37.824 300.332 37.184C300.78 36.5387 301.455 36.216 302.356 36.216C302.975 36.216 303.484 36.368 303.884 36.672C304.289 36.976 304.591 37.3893 304.788 37.912C304.985 38.4347 305.084 39.0213 305.084 39.672C305.084 40.328 304.983 40.9173 304.78 41.44C304.583 41.9627 304.284 42.3787 303.884 42.688C303.484 42.992 302.983 43.144 302.38 43.144ZM308.249 44H309.425V32.24H308.249V44ZM315.479 44.24C316.316 44.24 317.066 44.0347 317.727 43.624C318.394 43.2133 318.898 42.6293 319.239 41.872L318.143 41.448C317.594 42.5573 316.69 43.112 315.431 43.112C314.567 43.112 313.89 42.8427 313.399 42.304C312.914 41.7653 312.647 41 312.599 40.008H319.407C319.45 38.4827 319.116 37.288 318.407 36.424C317.703 35.5547 316.711 35.12 315.431 35.12C314.599 35.12 313.876 35.3067 313.263 35.68C312.655 36.0533 312.183 36.584 311.847 37.272C311.511 37.96 311.343 38.776 311.343 39.72C311.343 40.632 311.511 41.4267 311.847 42.104C312.188 42.7813 312.668 43.3067 313.287 43.68C313.911 44.0533 314.642 44.24 315.479 44.24ZM315.463 36.2C317.09 36.2 317.994 37.1413 318.175 39.024H312.623C312.714 38.112 313.002 37.4133 313.487 36.928C313.972 36.4427 314.631 36.2 315.463 36.2Z" fill="white"></path> <path d="M28.344 96.232C29.4053 96.232 30.2373 96 30.84 95.536C31.448 95.0667 31.752 94.424 31.752 93.608C31.752 93.16 31.656 92.784 31.464 92.48C31.2773 92.176 30.9547 91.912 30.496 91.688C30.0427 91.464 29.4187 91.2507 28.624 91.048C27.9467 90.8773 27.424 90.72 27.056 90.576C26.6933 90.432 26.4427 90.28 26.304 90.12C26.1653 89.9547 26.096 89.7573 26.096 89.528C26.096 89.1173 26.288 88.7893 26.672 88.544C27.056 88.2987 27.5547 88.1813 28.168 88.192C28.8187 88.2027 29.3547 88.3573 29.776 88.656C30.1973 88.9493 30.4507 89.3493 30.536 89.856L31.736 89.64C31.6773 89.1387 31.4907 88.6987 31.176 88.32C30.8613 87.9413 30.4453 87.648 29.928 87.44C29.416 87.2267 28.8347 87.12 28.184 87.12C27.5333 87.12 26.96 87.224 26.464 87.432C25.9733 87.6347 25.5893 87.9227 25.312 88.296C25.04 88.664 24.904 89.0933 24.904 89.584C24.904 89.984 24.9947 90.3253 25.176 90.608C25.3627 90.8853 25.68 91.1333 26.128 91.352C26.576 91.5653 27.1893 91.7787 27.968 91.992C28.6987 92.1893 29.2453 92.36 29.608 92.504C29.976 92.648 30.2213 92.8053 30.344 92.976C30.4667 93.1413 30.528 93.3573 30.528 93.624C30.528 94.0933 30.3387 94.4667 29.96 94.744C29.5813 95.0213 29.064 95.16 28.408 95.16C27.736 95.16 27.1707 95.016 26.712 94.728C26.2533 94.4347 25.9627 94.0427 25.84 93.552L24.64 93.752C24.7893 94.5307 25.1893 95.1387 25.84 95.576C26.496 96.0133 27.3307 96.232 28.344 96.232ZM33.6863 85.72H34.8623V84.4H33.6863V85.72ZM33.6863 96H34.8623V87.36H33.6863V96ZM37.2526 96H38.4366V91.392C38.4366 90.416 38.6553 89.6507 39.0926 89.096C39.53 88.5413 40.1646 88.264 40.9966 88.264C41.5993 88.264 42.0846 88.4107 42.4526 88.704C42.8206 88.992 43.0873 89.3867 43.2526 89.888C43.418 90.3893 43.5006 90.9573 43.5006 91.592V96H44.6846V91.248C44.6846 90.7627 44.6233 90.2773 44.5006 89.792C44.3833 89.3067 44.1913 88.864 43.9246 88.464C43.658 88.064 43.3033 87.744 42.8606 87.504C42.418 87.264 41.8713 87.144 41.2206 87.144C40.602 87.144 40.042 87.264 39.5406 87.504C39.0446 87.7387 38.6366 88.0907 38.3166 88.56V87.36H37.2526V96ZM50.1126 96.24C50.694 96.24 51.2113 96.128 51.6646 95.904C52.118 95.68 52.4993 95.3707 52.8086 94.976V95.864C52.814 96.8773 52.614 97.6427 52.2086 98.16C51.8033 98.6773 51.1313 98.936 50.1926 98.936C49.7393 98.936 49.294 98.8293 48.8566 98.616C48.4193 98.408 48.0833 98.064 47.8486 97.584L46.7846 98.176C47.1526 98.848 47.646 99.3333 48.2646 99.632C48.8886 99.9307 49.5313 100.08 50.1926 100.08C51.2486 100.08 52.0913 99.8507 52.7206 99.392C53.35 98.9333 53.742 98.2213 53.8966 97.256C53.934 97.0373 53.958 96.8133 53.9686 96.584C53.9846 96.36 53.9926 96.1253 53.9926 95.88V87.36H52.9446V88.552C52.63 88.104 52.23 87.7547 51.7446 87.504C51.2646 87.248 50.7046 87.12 50.0646 87.12C49.2753 87.12 48.598 87.32 48.0326 87.72C47.4673 88.12 47.0326 88.664 46.7286 89.352C46.43 90.04 46.2806 90.8133 46.2806 91.672C46.2806 92.536 46.43 93.312 46.7286 94C47.0326 94.688 47.47 95.2347 48.0406 95.64C48.6166 96.04 49.3073 96.24 50.1126 96.24ZM50.2326 95.144C49.6353 95.144 49.134 94.992 48.7286 94.688C48.3286 94.3787 48.0273 93.9627 47.8246 93.44C47.6273 92.9173 47.5286 92.328 47.5286 91.672C47.5286 91.0213 47.6273 90.4347 47.8246 89.912C48.022 89.3893 48.3206 88.976 48.7206 88.672C49.126 88.368 49.638 88.216 50.2566 88.216C51.158 88.216 51.83 88.5387 52.2726 89.184C52.7206 89.824 52.9446 90.6533 52.9446 91.672C52.9446 92.3387 52.846 92.9333 52.6486 93.456C52.4513 93.9787 52.1526 94.392 51.7526 94.696C51.3526 94.9947 50.846 95.144 50.2326 95.144ZM56.3894 96H57.5654V84.24H56.3894V96ZM63.6198 96.24C64.4571 96.24 65.2064 96.0347 65.8678 95.624C66.5344 95.2133 67.0384 94.6293 67.3798 93.872L66.2838 93.448C65.7344 94.5573 64.8304 95.112 63.5718 95.112C62.7078 95.112 62.0304 94.8427 61.5398 94.304C61.0544 93.7653 60.7878 93 60.7398 92.008H67.5478C67.5904 90.4827 67.2571 89.288 66.5478 88.424C65.8438 87.5547 64.8518 87.12 63.5718 87.12C62.7398 87.12 62.0171 87.3067 61.4038 87.68C60.7958 88.0533 60.3238 88.584 59.9878 89.272C59.6518 89.96 59.4838 90.776 59.4838 91.72C59.4838 92.632 59.6518 93.4267 59.9878 94.104C60.3291 94.7813 60.8091 95.3067 61.4278 95.68C62.0518 96.0533 62.7824 96.24 63.6198 96.24ZM63.6038 88.2C65.2304 88.2 66.1344 89.1413 66.3158 91.024H60.7638C60.8544 90.112 61.1424 89.4133 61.6278 88.928C62.1131 88.4427 62.7718 88.2 63.6038 88.2ZM68.5231 96H69.7471L70.7071 93.208H75.8271L76.7951 96H78.0191L74.0511 84.48H72.4911L68.5231 96ZM71.0911 92.104L73.2591 85.808L75.4431 92.104H71.0911ZM82.6878 96.232C83.7491 96.232 84.5811 96 85.1838 95.536C85.7918 95.0667 86.0958 94.424 86.0958 93.608C86.0958 93.16 85.9998 92.784 85.8078 92.48C85.6211 92.176 85.2984 91.912 84.8398 91.688C84.3864 91.464 83.7624 91.2507 82.9678 91.048C82.2904 90.8773 81.7678 90.72 81.3998 90.576C81.0371 90.432 80.7864 90.28 80.6478 90.12C80.5091 89.9547 80.4398 89.7573 80.4398 89.528C80.4398 89.1173 80.6318 88.7893 81.0158 88.544C81.3998 88.2987 81.8984 88.1813 82.5118 88.192C83.1624 88.2027 83.6984 88.3573 84.1198 88.656C84.5411 88.9493 84.7944 89.3493 84.8798 89.856L86.0798 89.64C86.0211 89.1387 85.8344 88.6987 85.5198 88.32C85.2051 87.9413 84.7891 87.648 84.2718 87.44C83.7598 87.2267 83.1784 87.12 82.5278 87.12C81.8771 87.12 81.3038 87.224 80.8078 87.432C80.3171 87.6347 79.9331 87.9227 79.6558 88.296C79.3838 88.664 79.2478 89.0933 79.2478 89.584C79.2478 89.984 79.3384 90.3253 79.5197 90.608C79.7064 90.8853 80.0238 91.1333 80.4718 91.352C80.9198 91.5653 81.5331 91.7787 82.3118 91.992C83.0424 92.1893 83.5891 92.36 83.9518 92.504C84.3198 92.648 84.5651 92.8053 84.6878 92.976C84.8104 93.1413 84.8718 93.3573 84.8718 93.624C84.8718 94.0933 84.6824 94.4667 84.3038 94.744C83.9251 95.0213 83.4078 95.16 82.7517 95.16C82.0798 95.16 81.5144 95.016 81.0558 94.728C80.5971 94.4347 80.3064 94.0427 80.1838 93.552L78.9838 93.752C79.1331 94.5307 79.5331 95.1387 80.1838 95.576C80.8398 96.0133 81.6744 96.232 82.6878 96.232ZM91.094 96.232C92.1553 96.232 92.9873 96 93.59 95.536C94.198 95.0667 94.502 94.424 94.502 93.608C94.502 93.16 94.406 92.784 94.214 92.48C94.0273 92.176 93.7047 91.912 93.246 91.688C92.7927 91.464 92.1687 91.2507 91.374 91.048C90.6967 90.8773 90.174 90.72 89.806 90.576C89.4433 90.432 89.1927 90.28 89.054 90.12C88.9153 89.9547 88.846 89.7573 88.846 89.528C88.846 89.1173 89.038 88.7893 89.422 88.544C89.806 88.2987 90.3047 88.1813 90.918 88.192C91.5687 88.2027 92.1047 88.3573 92.526 88.656C92.9473 88.9493 93.2007 89.3493 93.286 89.856L94.486 89.64C94.4273 89.1387 94.2407 88.6987 93.926 88.32C93.6113 87.9413 93.1953 87.648 92.678 87.44C92.166 87.2267 91.5847 87.12 90.934 87.12C90.2833 87.12 89.71 87.224 89.214 87.432C88.7233 87.6347 88.3393 87.9227 88.062 88.296C87.79 88.664 87.654 89.0933 87.654 89.584C87.654 89.984 87.7447 90.3253 87.926 90.608C88.1127 90.8853 88.43 91.1333 88.878 91.352C89.326 91.5653 89.9393 91.7787 90.718 91.992C91.4487 92.1893 91.9953 92.36 92.358 92.504C92.726 92.648 92.9713 92.8053 93.094 92.976C93.2167 93.1413 93.278 93.3573 93.278 93.624C93.278 94.0933 93.0887 94.4667 92.71 94.744C92.3313 95.0213 91.814 95.16 91.158 95.16C90.486 95.16 89.9207 95.016 89.462 94.728C89.0033 94.4347 88.7127 94.0427 88.59 93.552L87.39 93.752C87.5393 94.5307 87.9393 95.1387 88.59 95.576C89.246 96.0133 90.0807 96.232 91.094 96.232ZM99.9323 96.24C100.77 96.24 101.519 96.0347 102.18 95.624C102.847 95.2133 103.351 94.6293 103.692 93.872L102.596 93.448C102.047 94.5573 101.143 95.112 99.8843 95.112C99.0203 95.112 98.3429 94.8427 97.8523 94.304C97.3669 93.7653 97.1003 93 97.0523 92.008H103.86C103.903 90.4827 103.57 89.288 102.86 88.424C102.156 87.5547 101.164 87.12 99.8843 87.12C99.0523 87.12 98.3296 87.3067 97.7163 87.68C97.1083 88.0533 96.6363 88.584 96.3003 89.272C95.9643 89.96 95.7963 90.776 95.7963 91.72C95.7963 92.632 95.9643 93.4267 96.3003 94.104C96.6416 94.7813 97.1216 95.3067 97.7403 95.68C98.3643 96.0533 99.0949 96.24 99.9323 96.24ZM99.9163 88.2C101.543 88.2 102.447 89.1413 102.628 91.024H97.0763C97.1669 90.112 97.4549 89.4133 97.9403 88.928C98.4256 88.4427 99.0843 88.2 99.9163 88.2ZM110.34 96V94.968C109.721 95.0693 109.201 95.0853 108.78 95.016C108.364 94.9467 108.06 94.7333 107.868 94.376C107.766 94.1893 107.71 93.976 107.7 93.736C107.694 93.4907 107.692 93.1867 107.692 92.824V88.368H110.34V87.36H107.692V84.96H106.524V87.36H104.676V88.368H106.524V92.872C106.524 93.2933 106.529 93.6693 106.54 94C106.556 94.3307 106.641 94.6533 106.796 94.968C106.988 95.352 107.268 95.6347 107.636 95.816C108.009 95.9973 108.43 96.0987 108.9 96.12C109.374 96.1413 109.854 96.1013 110.34 96ZM112.202 96H118.85V94.872H113.378V84.48H112.202V96ZM120.214 96H121.39V91.624H124.662C124.768 91.624 124.894 91.6187 125.038 91.608C125.182 91.5973 125.326 91.5813 125.47 91.56C126.366 91.4213 127.056 91.0267 127.542 90.376C128.032 89.7253 128.278 88.952 128.278 88.056C128.278 87.1547 128.035 86.3787 127.55 85.728C127.064 85.0773 126.371 84.6827 125.47 84.544C125.326 84.5173 125.182 84.5013 125.038 84.496C124.899 84.4853 124.774 84.48 124.662 84.48H120.214V96ZM121.39 90.504V85.608H124.63C124.726 85.608 124.838 85.6133 124.966 85.624C125.099 85.6293 125.224 85.6453 125.342 85.672C125.934 85.8 126.368 86.096 126.646 86.56C126.928 87.0187 127.07 87.5173 127.07 88.056C127.07 88.5893 126.928 89.088 126.646 89.552C126.368 90.016 125.934 90.3093 125.342 90.432C125.224 90.4587 125.099 90.4773 124.966 90.488C124.838 90.4987 124.726 90.504 124.63 90.504H121.39ZM132.798 96H134.358L138.326 84.48H137.102L133.566 94.664L130.054 84.48H128.83L132.798 96ZM141.28 96.24C142.789 96.24 143.885 95.6827 144.568 94.568V96H145.616V90.632C145.616 90.312 145.6 89.9973 145.568 89.688C145.536 89.3787 145.466 89.0987 145.36 88.848C145.13 88.288 144.738 87.8613 144.184 87.568C143.634 87.2693 142.965 87.12 142.176 87.12C141.226 87.12 140.453 87.3333 139.856 87.76C139.258 88.1867 138.858 88.7867 138.656 89.56L139.799 89.896C139.965 89.32 140.25 88.8987 140.656 88.632C141.066 88.3653 141.568 88.232 142.16 88.232C142.981 88.232 143.568 88.424 143.92 88.808C144.272 89.1867 144.453 89.7653 144.464 90.544C144.08 90.5973 143.656 90.6533 143.192 90.712C142.733 90.7707 142.272 90.8373 141.808 90.912C141.344 90.9867 140.917 91.072 140.528 91.168C139.882 91.3387 139.354 91.624 138.944 92.024C138.533 92.4187 138.328 92.9707 138.328 93.68C138.328 94.1387 138.437 94.5627 138.656 94.952C138.874 95.3413 139.202 95.6533 139.64 95.888C140.082 96.1227 140.629 96.24 141.28 96.24ZM141.416 95.224C140.952 95.224 140.578 95.1493 140.296 95C140.018 94.8453 139.816 94.6507 139.688 94.416C139.565 94.176 139.504 93.9307 139.504 93.68C139.504 93.2107 139.661 92.8587 139.976 92.624C140.29 92.3893 140.632 92.2187 141 92.112C141.474 91.984 142.026 91.88 142.656 91.8C143.285 91.72 143.882 91.6453 144.448 91.576C144.448 91.7733 144.44 92 144.424 92.256C144.413 92.5067 144.384 92.7387 144.336 92.952C144.224 93.6027 143.914 94.144 143.408 94.576C142.906 95.008 142.242 95.224 141.416 95.224ZM151.002 96.216C151.621 96.216 152.178 96.0987 152.674 95.864C153.175 95.624 153.586 95.2693 153.906 94.8V96H154.962V87.36H153.786V91.968C153.786 92.944 153.567 93.7093 153.13 94.264C152.693 94.8187 152.058 95.096 151.226 95.096C150.623 95.096 150.138 94.952 149.77 94.664C149.402 94.3707 149.135 93.9733 148.97 93.472C148.805 92.9707 148.722 92.4027 148.722 91.768V87.36H147.538V92.112C147.538 92.5973 147.597 93.0827 147.714 93.568C147.837 94.0533 148.031 94.496 148.298 94.896C148.565 95.296 148.919 95.616 149.362 95.856C149.81 96.096 150.357 96.216 151.002 96.216ZM157.358 96H158.534V84.24H157.358V96ZM165.637 96V94.968C165.018 95.0693 164.498 95.0853 164.077 95.016C163.661 94.9467 163.357 94.7333 163.165 94.376C163.063 94.1893 163.007 93.976 162.997 93.736C162.991 93.4907 162.989 93.1867 162.989 92.824V88.368H165.637V87.36H162.989V84.96H161.821V87.36H159.973V88.368H161.821V92.872C161.821 93.2933 161.826 93.6693 161.837 94C161.853 94.3307 161.938 94.6533 162.093 94.968C162.285 95.352 162.565 95.6347 162.933 95.816C163.306 95.9973 163.727 96.0987 164.197 96.12C164.671 96.1413 165.151 96.1013 165.637 96Z" fill="white"></path> <path d="M217.112 96H218.296V91.392C218.296 90.416 218.515 89.6507 218.952 89.096C219.389 88.5413 220.024 88.264 220.856 88.264C221.459 88.264 221.944 88.4107 222.312 88.704C222.68 88.992 222.947 89.3867 223.112 89.888C223.277 90.3893 223.36 90.9573 223.36 91.592V96H224.544V91.248C224.544 90.7627 224.483 90.2773 224.36 89.792C224.243 89.3067 224.051 88.864 223.784 88.464C223.517 88.064 223.163 87.744 222.72 87.504C222.277 87.264 221.731 87.144 221.08 87.144C220.461 87.144 219.901 87.264 219.4 87.504C218.904 87.7387 218.496 88.0907 218.176 88.56V87.36H217.112V96ZM230.166 96.24C231.019 96.24 231.75 96.048 232.358 95.664C232.971 95.28 233.44 94.7467 233.766 94.064C234.096 93.376 234.262 92.5787 234.262 91.672C234.262 90.7813 234.099 89.9947 233.774 89.312C233.454 88.624 232.987 88.088 232.374 87.704C231.766 87.3147 231.03 87.12 230.166 87.12C229.323 87.12 228.595 87.312 227.982 87.696C227.374 88.0747 226.904 88.6053 226.574 89.288C226.243 89.9707 226.078 90.7653 226.078 91.672C226.078 92.5627 226.238 93.352 226.558 94.04C226.883 94.728 227.35 95.2667 227.958 95.656C228.571 96.0453 229.307 96.24 230.166 96.24ZM230.166 95.112C229.232 95.112 228.526 94.8 228.046 94.176C227.566 93.5467 227.326 92.712 227.326 91.672C227.326 90.664 227.558 89.8427 228.022 89.208C228.486 88.568 229.2 88.248 230.166 88.248C231.12 88.248 231.832 88.56 232.302 89.184C232.776 89.8027 233.014 90.632 233.014 91.672C233.014 92.6907 232.779 93.52 232.31 94.16C231.84 94.7947 231.126 95.112 230.166 95.112ZM240.73 96V94.968C240.112 95.0693 239.592 95.0853 239.17 95.016C238.754 94.9467 238.45 94.7333 238.258 94.376C238.157 94.1893 238.101 93.976 238.09 93.736C238.085 93.4907 238.082 93.1867 238.082 92.824V88.368H240.73V87.36H238.082V84.96H236.914V87.36H235.066V88.368H236.914V92.872C236.914 93.2933 236.92 93.6693 236.93 94C236.946 94.3307 237.032 94.6533 237.186 94.968C237.378 95.352 237.658 95.6347 238.026 95.816C238.4 95.9973 238.821 96.0987 239.29 96.12C239.765 96.1413 240.245 96.1013 240.73 96ZM249.22 96.24C250.078 96.24 250.814 96.04 251.428 95.64C252.046 95.2347 252.518 94.648 252.844 93.88L251.66 93.528C251.222 94.584 250.409 95.112 249.22 95.112C248.292 95.112 247.593 94.8 247.124 94.176C246.654 93.5467 246.414 92.7147 246.404 91.68C246.414 90.672 246.646 89.848 247.1 89.208C247.558 88.568 248.265 88.248 249.22 88.248C249.785 88.248 250.286 88.392 250.724 88.68C251.166 88.9627 251.489 89.3627 251.692 89.88L252.844 89.512C252.604 88.7707 252.158 88.1867 251.508 87.76C250.862 87.3333 250.102 87.12 249.228 87.12C248.369 87.12 247.638 87.312 247.036 87.696C246.433 88.0747 245.972 88.608 245.652 89.296C245.332 89.9787 245.166 90.7733 245.156 91.68C245.166 92.5653 245.326 93.352 245.636 94.04C245.95 94.728 246.409 95.2667 247.012 95.656C247.614 96.0453 248.35 96.24 249.22 96.24ZM257.869 96.24C258.722 96.24 259.453 96.048 260.061 95.664C260.674 95.28 261.143 94.7467 261.469 94.064C261.799 93.376 261.965 92.5787 261.965 91.672C261.965 90.7813 261.802 89.9947 261.477 89.312C261.157 88.624 260.69 88.088 260.077 87.704C259.469 87.3147 258.733 87.12 257.869 87.12C257.026 87.12 256.298 87.312 255.685 87.696C255.077 88.0747 254.607 88.6053 254.277 89.288C253.946 89.9707 253.781 90.7653 253.781 91.672C253.781 92.5627 253.941 93.352 254.261 94.04C254.586 94.728 255.053 95.2667 255.661 95.656C256.274 96.0453 257.01 96.24 257.869 96.24ZM257.869 95.112C256.935 95.112 256.229 94.8 255.749 94.176C255.269 93.5467 255.029 92.712 255.029 91.672C255.029 90.664 255.261 89.8427 255.725 89.208C256.189 88.568 256.903 88.248 257.869 88.248C258.823 88.248 259.535 88.56 260.005 89.184C260.479 89.8027 260.717 90.632 260.717 91.672C260.717 92.6907 260.482 93.52 260.013 94.16C259.543 94.7947 258.829 95.112 257.869 95.112ZM263.721 96H264.905V90.424C264.905 89.7467 265.089 89.2053 265.457 88.8C265.825 88.3893 266.308 88.184 266.905 88.184C267.503 88.184 267.983 88.384 268.345 88.784C268.713 89.1787 268.897 89.72 268.897 90.408L268.889 96H270.049L270.057 90.424C270.057 89.8853 270.156 89.4533 270.353 89.128C270.556 88.7973 270.812 88.5573 271.121 88.408C271.431 88.2587 271.748 88.184 272.073 88.184C272.644 88.184 273.113 88.376 273.481 88.76C273.855 89.1387 274.041 89.6613 274.041 90.328L274.033 96H275.209L275.217 90.104C275.217 89.192 274.956 88.4693 274.433 87.936C273.916 87.3973 273.22 87.128 272.345 87.128C271.769 87.128 271.252 87.2587 270.793 87.52C270.335 87.776 269.98 88.1307 269.729 88.584C269.495 88.1093 269.156 87.7493 268.713 87.504C268.276 87.2533 267.775 87.128 267.209 87.128C266.697 87.128 266.231 87.232 265.809 87.44C265.388 87.6427 265.044 87.92 264.777 88.272V87.36H263.721V96ZM277.284 96H278.468V90.424C278.468 89.7467 278.652 89.2053 279.02 88.8C279.388 88.3893 279.871 88.184 280.468 88.184C281.065 88.184 281.545 88.384 281.908 88.784C282.276 89.1787 282.46 89.72 282.46 90.408L282.452 96H283.612L283.62 90.424C283.62 89.8853 283.719 89.4533 283.916 89.128C284.119 88.7973 284.375 88.5573 284.684 88.408C284.993 88.2587 285.311 88.184 285.636 88.184C286.207 88.184 286.676 88.376 287.044 88.76C287.417 89.1387 287.604 89.6613 287.604 90.328L287.596 96H288.772L288.78 90.104C288.78 89.192 288.519 88.4693 287.996 87.936C287.479 87.3973 286.783 87.128 285.908 87.128C285.332 87.128 284.815 87.2587 284.356 87.52C283.897 87.776 283.543 88.1307 283.292 88.584C283.057 88.1093 282.719 87.7493 282.276 87.504C281.839 87.2533 281.337 87.128 280.772 87.128C280.26 87.128 279.793 87.232 279.372 87.44C278.951 87.6427 278.607 87.92 278.34 88.272V87.36H277.284V96ZM294.4 96.24C295.253 96.24 295.984 96.048 296.592 95.664C297.205 95.28 297.675 94.7467 298 94.064C298.331 93.376 298.496 92.5787 298.496 91.672C298.496 90.7813 298.333 89.9947 298.008 89.312C297.688 88.624 297.221 88.088 296.608 87.704C296 87.3147 295.264 87.12 294.4 87.12C293.557 87.12 292.829 87.312 292.216 87.696C291.608 88.0747 291.139 88.6053 290.808 89.288C290.477 89.9707 290.312 90.7653 290.312 91.672C290.312 92.5627 290.472 93.352 290.792 94.04C291.117 94.728 291.584 95.2667 292.192 95.656C292.805 96.0453 293.541 96.24 294.4 96.24ZM294.4 95.112C293.467 95.112 292.76 94.8 292.28 94.176C291.8 93.5467 291.56 92.712 291.56 91.672C291.56 90.664 291.792 89.8427 292.256 89.208C292.72 88.568 293.435 88.248 294.4 88.248C295.355 88.248 296.067 88.56 296.536 89.184C297.011 89.8027 297.248 90.632 297.248 91.672C297.248 92.6907 297.013 93.52 296.544 94.16C296.075 94.7947 295.36 95.112 294.4 95.112ZM300.253 96H301.437V91.392C301.437 90.416 301.655 89.6507 302.093 89.096C302.53 88.5413 303.165 88.264 303.997 88.264C304.599 88.264 305.085 88.4107 305.453 88.704C305.821 88.992 306.087 89.3867 306.253 89.888C306.418 90.3893 306.501 90.9573 306.501 91.592V96H307.685V91.248C307.685 90.7627 307.623 90.2773 307.501 89.792C307.383 89.3067 307.191 88.864 306.925 88.464C306.658 88.064 306.303 87.744 305.861 87.504C305.418 87.264 304.871 87.144 304.221 87.144C303.602 87.144 303.042 87.264 302.541 87.504C302.045 87.7387 301.637 88.0907 301.317 88.56V87.36H300.253V96Z" fill="white"></path> <path d="M25.112 148H26.296V142.424C26.296 141.747 26.48 141.205 26.848 140.8C27.216 140.389 27.6987 140.184 28.296 140.184C28.8933 140.184 29.3733 140.384 29.736 140.784C30.104 141.179 30.288 141.72 30.288 142.408L30.28 148H31.44L31.448 142.424C31.448 141.885 31.5467 141.453 31.744 141.128C31.9467 140.797 32.2027 140.557 32.512 140.408C32.8213 140.259 33.1387 140.184 33.464 140.184C34.0347 140.184 34.504 140.376 34.872 140.76C35.2453 141.139 35.432 141.661 35.432 142.328L35.424 148H36.6L36.608 142.104C36.608 141.192 36.3467 140.469 35.824 139.936C35.3067 139.397 34.6107 139.128 33.736 139.128C33.16 139.128 32.6427 139.259 32.184 139.52C31.7253 139.776 31.3707 140.131 31.12 140.584C30.8853 140.109 30.5467 139.749 30.104 139.504C29.6667 139.253 29.1653 139.128 28.6 139.128C28.088 139.128 27.6213 139.232 27.2 139.44C26.7787 139.643 26.4347 139.92 26.168 140.272V139.36H25.112V148ZM41.9865 148.216C42.6052 148.216 43.1625 148.099 43.6585 147.864C44.1598 147.624 44.5705 147.269 44.8905 146.8V148H45.9465V139.36H44.7705V143.968C44.7705 144.944 44.5518 145.709 44.1145 146.264C43.6772 146.819 43.0425 147.096 42.2105 147.096C41.6078 147.096 41.1225 146.952 40.7545 146.664C40.3865 146.371 40.1198 145.973 39.9545 145.472C39.7892 144.971 39.7065 144.403 39.7065 143.768V139.36H38.5225V144.112C38.5225 144.597 38.5812 145.083 38.6985 145.568C38.8212 146.053 39.0158 146.496 39.2825 146.896C39.5492 147.296 39.9038 147.616 40.3465 147.856C40.7945 148.096 41.3412 148.216 41.9865 148.216ZM48.3425 148H49.5185V136.24H48.3425V148ZM56.6209 148V146.968C56.0022 147.069 55.4822 147.085 55.0609 147.016C54.6449 146.947 54.3409 146.733 54.1489 146.376C54.0475 146.189 53.9915 145.976 53.9809 145.736C53.9755 145.491 53.9729 145.187 53.9729 144.824V140.368H56.6209V139.36H53.9729V136.96H52.8049V139.36H50.9569V140.368H52.8049V144.872C52.8049 145.293 52.8102 145.669 52.8209 146C52.8369 146.331 52.9222 146.653 53.0769 146.968C53.2689 147.352 53.5489 147.635 53.9169 147.816C54.2902 147.997 54.7115 148.099 55.1809 148.12C55.6555 148.141 56.1355 148.101 56.6209 148ZM58.4831 137.72H59.6591V136.4H58.4831V137.72ZM58.4831 148H59.6591V139.36H58.4831V148ZM61.2575 148H62.4815L63.4415 145.208H68.5615L69.5295 148H70.7535L66.7855 136.48H65.2255L61.2575 148ZM63.8255 144.104L65.9935 137.808L68.1775 144.104H63.8255ZM75.4221 148.232C76.4835 148.232 77.3155 148 77.9181 147.536C78.5261 147.067 78.8301 146.424 78.8301 145.608C78.8301 145.16 78.7341 144.784 78.5421 144.48C78.3555 144.176 78.0328 143.912 77.5741 143.688C77.1208 143.464 76.4968 143.251 75.7021 143.048C75.0248 142.877 74.5021 142.72 74.1341 142.576C73.7715 142.432 73.5208 142.28 73.3821 142.12C73.2435 141.955 73.1741 141.757 73.1741 141.528C73.1741 141.117 73.3661 140.789 73.7501 140.544C74.1341 140.299 74.6328 140.181 75.2461 140.192C75.8968 140.203 76.4328 140.357 76.8541 140.656C77.2755 140.949 77.5288 141.349 77.6141 141.856L78.8141 141.64C78.7555 141.139 78.5688 140.699 78.2541 140.32C77.9395 139.941 77.5235 139.648 77.0061 139.44C76.4941 139.227 75.9128 139.12 75.2621 139.12C74.6115 139.12 74.0381 139.224 73.5421 139.432C73.0515 139.635 72.6675 139.923 72.3901 140.296C72.1181 140.664 71.9821 141.093 71.9821 141.584C71.9821 141.984 72.0728 142.325 72.2541 142.608C72.4408 142.885 72.7581 143.133 73.2061 143.352C73.6541 143.565 74.2675 143.779 75.0461 143.992C75.7768 144.189 76.3235 144.36 76.6861 144.504C77.0541 144.648 77.2995 144.805 77.4221 144.976C77.5448 145.141 77.6061 145.357 77.6061 145.624C77.6061 146.093 77.4168 146.467 77.0381 146.744C76.6595 147.021 76.1421 147.16 75.4861 147.16C74.8141 147.16 74.2488 147.016 73.7901 146.728C73.3315 146.435 73.0408 146.043 72.9181 145.552L71.7181 145.752C71.8675 146.531 72.2675 147.139 72.9181 147.576C73.5741 148.013 74.4088 148.232 75.4221 148.232ZM83.8284 148.232C84.8897 148.232 85.7217 148 86.3244 147.536C86.9324 147.067 87.2364 146.424 87.2364 145.608C87.2364 145.16 87.1404 144.784 86.9484 144.48C86.7617 144.176 86.439 143.912 85.9804 143.688C85.527 143.464 84.903 143.251 84.1084 143.048C83.431 142.877 82.9084 142.72 82.5404 142.576C82.1777 142.432 81.927 142.28 81.7884 142.12C81.6497 141.955 81.5804 141.757 81.5804 141.528C81.5804 141.117 81.7724 140.789 82.1564 140.544C82.5404 140.299 83.039 140.181 83.6524 140.192C84.303 140.203 84.839 140.357 85.2604 140.656C85.6817 140.949 85.935 141.349 86.0204 141.856L87.2204 141.64C87.1617 141.139 86.975 140.699 86.6604 140.32C86.3457 139.941 85.9297 139.648 85.4124 139.44C84.9004 139.227 84.319 139.12 83.6684 139.12C83.0177 139.12 82.4444 139.224 81.9484 139.432C81.4577 139.635 81.0737 139.923 80.7964 140.296C80.5244 140.664 80.3884 141.093 80.3884 141.584C80.3884 141.984 80.479 142.325 80.6604 142.608C80.847 142.885 81.1644 143.133 81.6124 143.352C82.0604 143.565 82.6737 143.779 83.4524 143.992C84.183 144.189 84.7297 144.36 85.0924 144.504C85.4604 144.648 85.7057 144.805 85.8284 144.976C85.951 145.141 86.0124 145.357 86.0124 145.624C86.0124 146.093 85.823 146.467 85.4444 146.744C85.0657 147.021 84.5484 147.16 83.8924 147.16C83.2204 147.16 82.655 147.016 82.1964 146.728C81.7377 146.435 81.447 146.043 81.3244 145.552L80.1244 145.752C80.2737 146.531 80.6737 147.139 81.3244 147.576C81.9804 148.013 82.815 148.232 83.8284 148.232ZM92.6666 148.24C93.504 148.24 94.2533 148.035 94.9146 147.624C95.5813 147.213 96.0853 146.629 96.4266 145.872L95.3306 145.448C94.7813 146.557 93.8773 147.112 92.6186 147.112C91.7546 147.112 91.0773 146.843 90.5866 146.304C90.1013 145.765 89.8346 145 89.7866 144.008H96.5946C96.6373 142.483 96.304 141.288 95.5946 140.424C94.8906 139.555 93.8986 139.12 92.6186 139.12C91.7866 139.12 91.064 139.307 90.4506 139.68C89.8426 140.053 89.3706 140.584 89.0346 141.272C88.6986 141.96 88.5306 142.776 88.5306 143.72C88.5306 144.632 88.6986 145.427 89.0346 146.104C89.376 146.781 89.856 147.307 90.4746 147.68C91.0986 148.053 91.8293 148.24 92.6666 148.24ZM92.6506 140.2C94.2773 140.2 95.1813 141.141 95.3626 143.024H89.8106C89.9013 142.112 90.1893 141.413 90.6746 140.928C91.16 140.443 91.8186 140.2 92.6506 140.2ZM103.074 148V146.968C102.455 147.069 101.935 147.085 101.514 147.016C101.098 146.947 100.794 146.733 100.602 146.376C100.501 146.189 100.445 145.976 100.434 145.736C100.429 145.491 100.426 145.187 100.426 144.824V140.368H103.074V139.36H100.426V136.96H99.258V139.36H97.41V140.368H99.258V144.872C99.258 145.293 99.2633 145.669 99.274 146C99.29 146.331 99.3753 146.653 99.53 146.968C99.722 147.352 100.002 147.635 100.37 147.816C100.743 147.997 101.165 148.099 101.634 148.12C102.109 148.141 102.589 148.101 103.074 148ZM104.936 148H111.584V146.872H106.112V136.48H104.936V148ZM112.948 148H114.124V143.624H117.396C117.503 143.624 117.628 143.619 117.772 143.608C117.916 143.597 118.06 143.581 118.204 143.56C119.1 143.421 119.791 143.027 120.276 142.376C120.767 141.725 121.012 140.952 121.012 140.056C121.012 139.155 120.769 138.379 120.284 137.728C119.799 137.077 119.105 136.683 118.204 136.544C118.06 136.517 117.916 136.501 117.772 136.496C117.633 136.485 117.508 136.48 117.396 136.48H112.948V148ZM114.124 142.504V137.608H117.364C117.46 137.608 117.572 137.613 117.7 137.624C117.833 137.629 117.959 137.645 118.076 137.672C118.668 137.8 119.103 138.096 119.38 138.56C119.663 139.019 119.804 139.517 119.804 140.056C119.804 140.589 119.663 141.088 119.38 141.552C119.103 142.016 118.668 142.309 118.076 142.432C117.959 142.459 117.833 142.477 117.7 142.488C117.572 142.499 117.46 142.504 117.364 142.504H114.124ZM125.532 148H127.092L131.06 136.48H129.836L126.3 146.664L122.788 136.48H121.564L125.532 148ZM134.014 148.24C135.523 148.24 136.619 147.683 137.302 146.568V148H138.35V142.632C138.35 142.312 138.334 141.997 138.302 141.688C138.27 141.379 138.201 141.099 138.094 140.848C137.865 140.288 137.473 139.861 136.918 139.568C136.369 139.269 135.699 139.12 134.91 139.12C133.961 139.12 133.187 139.333 132.59 139.76C131.993 140.187 131.593 140.787 131.39 141.56L132.534 141.896C132.699 141.32 132.985 140.899 133.39 140.632C133.801 140.365 134.302 140.232 134.894 140.232C135.715 140.232 136.302 140.424 136.654 140.808C137.006 141.187 137.187 141.765 137.198 142.544C136.814 142.597 136.39 142.653 135.926 142.712C135.467 142.771 135.006 142.837 134.542 142.912C134.078 142.987 133.651 143.072 133.262 143.168C132.617 143.339 132.089 143.624 131.678 144.024C131.267 144.419 131.062 144.971 131.062 145.68C131.062 146.139 131.171 146.563 131.39 146.952C131.609 147.341 131.937 147.653 132.374 147.888C132.817 148.123 133.363 148.24 134.014 148.24ZM134.15 147.224C133.686 147.224 133.313 147.149 133.03 147C132.753 146.845 132.55 146.651 132.422 146.416C132.299 146.176 132.238 145.931 132.238 145.68C132.238 145.211 132.395 144.859 132.71 144.624C133.025 144.389 133.366 144.219 133.734 144.112C134.209 143.984 134.761 143.88 135.39 143.8C136.019 143.72 136.617 143.645 137.182 143.576C137.182 143.773 137.174 144 137.158 144.256C137.147 144.507 137.118 144.739 137.07 144.952C136.958 145.603 136.649 146.144 136.142 146.576C135.641 147.008 134.977 147.224 134.15 147.224ZM143.737 148.216C144.355 148.216 144.913 148.099 145.409 147.864C145.91 147.624 146.321 147.269 146.641 146.8V148H147.697V139.36H146.521V143.968C146.521 144.944 146.302 145.709 145.865 146.264C145.427 146.819 144.793 147.096 143.961 147.096C143.358 147.096 142.873 146.952 142.505 146.664C142.137 146.371 141.87 145.973 141.705 145.472C141.539 144.971 141.457 144.403 141.457 143.768V139.36H140.273V144.112C140.273 144.597 140.331 145.083 140.449 145.568C140.571 146.053 140.766 146.496 141.033 146.896C141.299 147.296 141.654 147.616 142.097 147.856C142.545 148.096 143.091 148.216 143.737 148.216ZM150.093 148H151.269V136.24H150.093V148ZM158.371 148V146.968C157.752 147.069 157.232 147.085 156.811 147.016C156.395 146.947 156.091 146.733 155.899 146.376C155.798 146.189 155.742 145.976 155.731 145.736C155.726 145.491 155.723 145.187 155.723 144.824V140.368H158.371V139.36H155.723V136.96H154.555V139.36H152.707V140.368H154.555V144.872C154.555 145.293 154.56 145.669 154.571 146C154.587 146.331 154.672 146.653 154.827 146.968C155.019 147.352 155.299 147.635 155.667 147.816C156.04 147.997 156.462 148.099 156.931 148.12C157.406 148.141 157.886 148.101 158.371 148Z" fill="white"></path> <path d="M221.064 203.488H222.016V202.36H221.112C220.883 202.36 220.688 202.28 220.528 202.12C220.368 201.96 220.288 201.768 220.288 201.544V196.376C220.288 195.965 220.168 195.592 219.928 195.256L219.488 194.64L219.928 194.024C220.168 193.688 220.288 193.315 220.288 192.904V187.752C220.288 187.517 220.368 187.32 220.528 187.16C220.688 187 220.883 186.92 221.112 186.92H222.016V185.792H221.064C220.509 185.792 220.053 185.971 219.696 186.328C219.339 186.685 219.16 187.141 219.16 187.696V192.904C219.16 193.059 219.112 193.213 219.016 193.368L218.336 194.32C218.187 194.533 218.187 194.747 218.336 194.96L219.016 195.912C219.112 196.061 219.16 196.216 219.16 196.376V201.592C219.16 202.141 219.339 202.595 219.696 202.952C220.053 203.309 220.509 203.488 221.064 203.488ZM270.507 203.488H269.555V202.36H270.459C270.689 202.36 270.883 202.28 271.043 202.12C271.203 201.96 271.283 201.768 271.283 201.544V196.376C271.283 195.965 271.403 195.592 271.643 195.256L272.083 194.64L271.643 194.024C271.403 193.688 271.283 193.315 271.283 192.904V187.752C271.283 187.517 271.203 187.32 271.043 187.16C270.883 187 270.689 186.92 270.459 186.92H269.555V185.792H270.507C271.062 185.792 271.518 185.971 271.875 186.328C272.233 186.685 272.411 187.141 272.411 187.696V192.904C272.411 193.059 272.459 193.213 272.555 193.368L273.235 194.32C273.385 194.533 273.385 194.747 273.235 194.96L272.555 195.912C272.459 196.061 272.411 196.216 272.411 196.376V201.592C272.411 202.141 272.233 202.595 271.875 202.952C271.518 203.309 271.062 203.488 270.507 203.488Z" fill="#949494"></path> <path d="M228.503 200.24C229.841 200.24 230.935 199.899 231.783 199.216C232.631 198.528 233.212 197.608 233.527 196.456L232.327 196.144C232.081 197.051 231.641 197.773 231.007 198.312C230.372 198.845 229.537 199.112 228.503 199.112C227.601 199.112 226.847 198.907 226.239 198.496C225.636 198.08 225.183 197.507 224.879 196.776C224.58 196.045 224.433 195.2 224.439 194.24C224.449 193.28 224.604 192.435 224.903 191.704C225.201 190.968 225.649 190.395 226.247 189.984C226.849 189.573 227.601 189.368 228.503 189.368C229.537 189.368 230.372 189.637 231.007 190.176C231.641 190.709 232.081 191.429 232.327 192.336L233.527 192.024C233.212 190.872 232.631 189.955 231.783 189.272C230.935 188.584 229.841 188.24 228.503 188.24C227.356 188.24 226.388 188.493 225.599 189C224.809 189.507 224.212 190.211 223.807 191.112C223.401 192.013 223.199 193.056 223.199 194.24C223.199 195.419 223.401 196.461 223.807 197.368C224.212 198.269 224.809 198.973 225.599 199.48C226.388 199.987 227.356 200.24 228.503 200.24ZM239.956 200.24C241.108 200.24 242.079 199.987 242.868 199.48C243.657 198.973 244.255 198.269 244.66 197.368C245.065 196.461 245.268 195.419 245.268 194.24C245.268 193.056 245.065 192.013 244.66 191.112C244.255 190.211 243.657 189.507 242.868 189C242.079 188.493 241.108 188.24 239.956 188.24C238.809 188.24 237.841 188.493 237.052 189C236.263 189.507 235.665 190.211 235.26 191.112C234.855 192.013 234.652 193.056 234.652 194.24C234.652 195.419 234.855 196.461 235.26 197.368C235.665 198.269 236.263 198.973 237.052 199.48C237.841 199.987 238.809 200.24 239.956 200.24ZM239.956 199.112C239.055 199.107 238.3 198.899 237.692 198.488C237.089 198.077 236.639 197.507 236.34 196.776C236.041 196.045 235.895 195.2 235.9 194.24C235.911 193.28 236.065 192.435 236.364 191.704C236.663 190.968 237.111 190.395 237.708 189.984C238.305 189.568 239.055 189.363 239.956 189.368C240.857 189.373 241.609 189.581 242.212 189.992C242.815 190.403 243.265 190.973 243.564 191.704C243.868 192.435 244.02 193.28 244.02 194.24C244.02 195.2 243.868 196.048 243.564 196.784C243.265 197.515 242.815 198.085 242.212 198.496C241.609 198.907 240.857 199.112 239.956 199.112ZM246.87 200H247.998V191.104L252.094 200H252.854L256.958 191.104V199.992H258.078V188.48H256.982L252.478 198.168L247.95 188.48H246.87V200ZM260.323 200H261.499V195.624H264.771C264.878 195.624 265.003 195.619 265.147 195.608C265.291 195.597 265.435 195.581 265.579 195.56C266.475 195.421 267.166 195.027 267.651 194.376C268.142 193.725 268.387 192.952 268.387 192.056C268.387 191.155 268.144 190.379 267.659 189.728C267.174 189.077 266.48 188.683 265.579 188.544C265.435 188.517 265.291 188.501 265.147 188.496C265.008 188.485 264.883 188.48 264.771 188.48H260.323V200ZM261.499 194.504V189.608H264.739C264.835 189.608 264.947 189.613 265.075 189.624C265.208 189.629 265.334 189.645 265.451 189.672C266.043 189.8 266.478 190.096 266.755 190.56C267.038 191.019 267.179 191.517 267.179 192.056C267.179 192.589 267.038 193.088 266.755 193.552C266.478 194.016 266.043 194.309 265.451 194.432C265.334 194.459 265.208 194.477 265.075 194.488C264.947 194.499 264.835 194.504 264.739 194.504H261.499Z" fill="#B597A4"></path> <path d="M25.12 200H26.296V195.688C26.296 195.171 26.3547 194.656 26.472 194.144C26.5947 193.627 26.872 193.197 27.304 192.856C27.6187 192.6 27.96 192.453 28.328 192.416C28.7013 192.373 29.048 192.389 29.368 192.464V191.36C28.9893 191.264 28.56 191.261 28.08 191.352C27.6 191.437 27.1893 191.629 26.848 191.928C26.592 192.12 26.368 192.387 26.176 192.728V191.36H25.12V200ZM34.3854 200.24C35.2227 200.24 35.972 200.035 36.6334 199.624C37.3 199.213 37.804 198.629 38.1454 197.872L37.0494 197.448C36.5 198.557 35.596 199.112 34.3374 199.112C33.4734 199.112 32.796 198.843 32.3054 198.304C31.82 197.765 31.5534 197 31.5054 196.008H38.3134C38.356 194.483 38.0227 193.288 37.3134 192.424C36.6094 191.555 35.6174 191.12 34.3374 191.12C33.5054 191.12 32.7827 191.307 32.1694 191.68C31.5614 192.053 31.0894 192.584 30.7534 193.272C30.4174 193.96 30.2494 194.776 30.2494 195.72C30.2494 196.632 30.4174 197.427 30.7534 198.104C31.0947 198.781 31.5747 199.307 32.1934 199.68C32.8174 200.053 33.548 200.24 34.3854 200.24ZM34.3694 192.2C35.996 192.2 36.9 193.141 37.0814 195.024H31.5294C31.62 194.112 31.908 193.413 32.3934 192.928C32.8787 192.443 33.5374 192.2 34.3694 192.2ZM41.6163 200H42.6403L44.7923 193.12L46.9523 200H47.9763L50.6163 191.36H49.4483L47.3843 198.072L45.3283 191.36H44.2563L42.2003 198.072L40.1523 191.36L38.9763 191.352L41.6163 200ZM54.0451 200.24C55.5545 200.24 56.6505 199.683 57.3331 198.568V200H58.3811V194.632C58.3811 194.312 58.3651 193.997 58.3331 193.688C58.3011 193.379 58.2318 193.099 58.1251 192.848C57.8958 192.288 57.5038 191.861 56.9491 191.568C56.3998 191.269 55.7305 191.12 54.9411 191.12C53.9918 191.12 53.2185 191.333 52.6211 191.76C52.0238 192.187 51.6238 192.787 51.4211 193.56L52.5651 193.896C52.7305 193.32 53.0158 192.899 53.4211 192.632C53.8318 192.365 54.3331 192.232 54.9251 192.232C55.7465 192.232 56.3331 192.424 56.6851 192.808C57.0371 193.187 57.2185 193.765 57.2291 194.544C56.8451 194.597 56.4211 194.653 55.9571 194.712C55.4985 194.771 55.0371 194.837 54.5731 194.912C54.1091 194.987 53.6825 195.072 53.2931 195.168C52.6478 195.339 52.1198 195.624 51.7091 196.024C51.2985 196.419 51.0931 196.971 51.0931 197.68C51.0931 198.139 51.2025 198.563 51.4211 198.952C51.6398 199.341 51.9678 199.653 52.4051 199.888C52.8478 200.123 53.3945 200.24 54.0451 200.24ZM54.1811 199.224C53.7171 199.224 53.3438 199.149 53.0611 199C52.7838 198.845 52.5811 198.651 52.4531 198.416C52.3305 198.176 52.2691 197.931 52.2691 197.68C52.2691 197.211 52.4265 196.859 52.7411 196.624C53.0558 196.389 53.3971 196.219 53.7651 196.112C54.2398 195.984 54.7918 195.88 55.4211 195.8C56.0505 195.72 56.6478 195.645 57.2131 195.576C57.2131 195.773 57.2051 196 57.1891 196.256C57.1785 196.507 57.1491 196.739 57.1011 196.952C56.9891 197.603 56.6798 198.144 56.1731 198.576C55.6718 199.008 55.0078 199.224 54.1811 199.224ZM60.4638 200H61.6398V195.688C61.6398 195.171 61.6984 194.656 61.8158 194.144C61.9384 193.627 62.2158 193.197 62.6478 192.856C62.9624 192.6 63.3038 192.453 63.6718 192.416C64.0451 192.373 64.3918 192.389 64.7118 192.464V191.36C64.3331 191.264 63.9038 191.261 63.4238 191.352C62.9438 191.437 62.5331 191.629 62.1918 191.928C61.9358 192.12 61.7118 192.387 61.5198 192.728V191.36H60.4638V200ZM69.4251 200.24C70.0545 200.24 70.6065 200.112 71.0811 199.856C71.5558 199.595 71.9478 199.24 72.2571 198.792V200H73.3131V188.48H72.1291V192.376C71.8145 191.981 71.4251 191.675 70.9611 191.456C70.5025 191.232 69.9745 191.12 69.3771 191.12C68.5878 191.12 67.9105 191.32 67.3451 191.72C66.7798 192.12 66.3451 192.664 66.0411 193.352C65.7425 194.04 65.5931 194.813 65.5931 195.672C65.5931 196.536 65.7425 197.312 66.0411 198C66.3451 198.688 66.7825 199.235 67.3531 199.64C67.9291 200.04 68.6198 200.24 69.4251 200.24ZM69.5451 199.144C68.9478 199.144 68.4465 198.992 68.0411 198.688C67.6411 198.379 67.3398 197.963 67.1371 197.44C66.9398 196.917 66.8411 196.328 66.8411 195.672C66.8411 195.021 66.9398 194.435 67.1371 193.912C67.3345 193.389 67.6331 192.976 68.0331 192.672C68.4385 192.368 68.9505 192.216 69.5691 192.216C70.4705 192.216 71.1425 192.539 71.5851 193.184C72.0331 193.824 72.2571 194.653 72.2571 195.672C72.2571 196.339 72.1585 196.933 71.9611 197.456C71.7638 197.979 71.4651 198.392 71.0651 198.696C70.6651 198.995 70.1585 199.144 69.5451 199.144ZM78.4855 200H80.0455L84.0135 188.48H82.7895L79.2535 198.664L75.7415 188.48H74.5175L78.4855 200ZM86.967 200.24C88.4763 200.24 89.5723 199.683 90.255 198.568V200H91.303V194.632C91.303 194.312 91.287 193.997 91.255 193.688C91.223 193.379 91.1537 193.099 91.047 192.848C90.8177 192.288 90.4257 191.861 89.871 191.568C89.3217 191.269 88.6523 191.12 87.863 191.12C86.9137 191.12 86.1403 191.333 85.543 191.76C84.9457 192.187 84.5457 192.787 84.343 193.56L85.487 193.896C85.6523 193.32 85.9377 192.899 86.343 192.632C86.7537 192.365 87.255 192.232 87.847 192.232C88.6683 192.232 89.255 192.424 89.607 192.808C89.959 193.187 90.1403 193.765 90.151 194.544C89.767 194.597 89.343 194.653 88.879 194.712C88.4203 194.771 87.959 194.837 87.495 194.912C87.031 194.987 86.6043 195.072 86.215 195.168C85.5697 195.339 85.0417 195.624 84.631 196.024C84.2203 196.419 84.015 196.971 84.015 197.68C84.015 198.139 84.1243 198.563 84.343 198.952C84.5617 199.341 84.8897 199.653 85.327 199.888C85.7697 200.123 86.3163 200.24 86.967 200.24ZM87.103 199.224C86.639 199.224 86.2657 199.149 85.983 199C85.7057 198.845 85.503 198.651 85.375 198.416C85.2523 198.176 85.191 197.931 85.191 197.68C85.191 197.211 85.3483 196.859 85.663 196.624C85.9777 196.389 86.319 196.219 86.687 196.112C87.1617 195.984 87.7137 195.88 88.343 195.8C88.9723 195.72 89.5697 195.645 90.135 195.576C90.135 195.773 90.127 196 90.111 196.256C90.1003 196.507 90.071 196.739 90.023 196.952C89.911 197.603 89.6017 198.144 89.095 198.576C88.5937 199.008 87.9297 199.224 87.103 199.224ZM96.6896 200.216C97.3083 200.216 97.8656 200.099 98.3616 199.864C98.863 199.624 99.2736 199.269 99.5936 198.8V200H100.65V191.36H99.4736V195.968C99.4736 196.944 99.255 197.709 98.8176 198.264C98.3803 198.819 97.7456 199.096 96.9136 199.096C96.311 199.096 95.8256 198.952 95.4576 198.664C95.0896 198.371 94.823 197.973 94.6576 197.472C94.4923 196.971 94.4096 196.403 94.4096 195.768V191.36H93.2256V196.112C93.2256 196.597 93.2843 197.083 93.4016 197.568C93.5243 198.053 93.719 198.496 93.9856 198.896C94.2523 199.296 94.607 199.616 95.0496 199.856C95.4976 200.096 96.0443 200.216 96.6896 200.216ZM103.046 200H104.222V188.24H103.046V200ZM111.324 200V198.968C110.705 199.069 110.185 199.085 109.764 199.016C109.348 198.947 109.044 198.733 108.852 198.376C108.751 198.189 108.695 197.976 108.684 197.736C108.679 197.491 108.676 197.187 108.676 196.824V192.368H111.324V191.36H108.676V188.96H107.508V191.36H105.66V192.368H107.508V196.872C107.508 197.293 107.513 197.669 107.524 198C107.54 198.331 107.625 198.653 107.78 198.968C107.972 199.352 108.252 199.635 108.62 199.816C108.993 199.997 109.415 200.099 109.884 200.12C110.359 200.141 110.839 200.101 111.324 200Z" fill="white"></path> <path d="M24 64H566" stroke="#282726"></path> <path d="M24 116H566" stroke="#282726"></path> <path d="M24 168H566" stroke="#282726"></path> <path d="M221.064 151.488H222.016V150.36H221.112C220.883 150.36 220.688 150.28 220.528 150.12C220.368 149.96 220.288 149.768 220.288 149.544V144.376C220.288 143.965 220.168 143.592 219.928 143.256L219.488 142.64L219.928 142.024C220.168 141.688 220.288 141.315 220.288 140.904V135.752C220.288 135.517 220.368 135.32 220.528 135.16C220.688 135 220.883 134.92 221.112 134.92H222.016V133.792H221.064C220.509 133.792 220.053 133.971 219.696 134.328C219.339 134.685 219.16 135.141 219.16 135.696V140.904C219.16 141.059 219.112 141.213 219.016 141.368L218.336 142.32C218.187 142.533 218.187 142.747 218.336 142.96L219.016 143.912C219.112 144.061 219.16 144.216 219.16 144.376V149.592C219.16 150.141 219.339 150.595 219.696 150.952C220.053 151.309 220.509 151.488 221.064 151.488ZM251.804 143.464H256.604V142.456H251.804V143.464ZM301.773 143.464H306.573V142.456H301.773V143.464ZM351.992 151.488H351.04V150.36H351.944C352.173 150.36 352.368 150.28 352.528 150.12C352.688 149.96 352.768 149.768 352.768 149.544V144.376C352.768 143.965 352.888 143.592 353.128 143.256L353.568 142.64L353.128 142.024C352.888 141.688 352.768 141.315 352.768 140.904V135.752C352.768 135.517 352.688 135.32 352.528 135.16C352.368 135 352.173 134.92 351.944 134.92H351.04V133.792H351.992C352.546 133.792 353.002 133.971 353.36 134.328C353.717 134.685 353.896 135.141 353.896 135.696V140.904C353.896 141.059 353.944 141.213 354.04 141.368L354.72 142.32C354.869 142.533 354.869 142.747 354.72 142.96L354.04 143.912C353.944 144.061 353.896 144.216 353.896 144.376V149.592C353.896 150.141 353.717 150.595 353.36 150.952C353.002 151.309 352.546 151.488 351.992 151.488Z" fill="#949494"></path> <path d="M223.839 148H228.655C229.673 148 230.495 147.712 231.119 147.136C231.743 146.555 232.055 145.765 232.055 144.768C232.055 144.101 231.884 143.52 231.543 143.024C231.207 142.528 230.74 142.149 230.143 141.888C230.559 141.648 230.887 141.315 231.127 140.888C231.372 140.456 231.495 139.976 231.495 139.448C231.495 138.904 231.361 138.408 231.095 137.96C230.828 137.507 230.455 137.147 229.975 136.88C229.495 136.613 228.932 136.48 228.287 136.48H223.839V148ZM225.023 141.392V137.592H228.279C228.86 137.592 229.337 137.763 229.711 138.104C230.089 138.445 230.279 138.888 230.279 139.432C230.279 140.008 230.084 140.48 229.695 140.848C229.305 141.211 228.833 141.392 228.279 141.392H225.023ZM225.023 146.872V142.504H228.583C229.015 142.504 229.401 142.605 229.743 142.808C230.084 143.011 230.351 143.285 230.543 143.632C230.74 143.973 230.839 144.357 230.839 144.784C230.839 145.44 230.601 145.952 230.127 146.32C229.652 146.688 229.065 146.872 228.367 146.872H225.023ZM232.851 148H234.075L235.035 145.208H240.155L241.123 148H242.347L238.379 136.48H236.819L232.851 148ZM235.419 144.104L237.587 137.808L239.771 144.104H235.419ZM243.952 148H250.6V146.872H245.128V136.48H243.952V148Z" fill="#DCA196"></path> <path d="M263.347 148.24C264.499 148.24 265.469 147.987 266.259 147.48C267.048 146.973 267.645 146.269 268.051 145.368C268.456 144.461 268.659 143.419 268.659 142.24C268.659 141.056 268.456 140.013 268.051 139.112C267.645 138.211 267.048 137.507 266.259 137C265.469 136.493 264.499 136.24 263.347 136.24C262.2 136.24 261.232 136.493 260.443 137C259.653 137.507 259.056 138.211 258.651 139.112C258.245 140.013 258.043 141.056 258.043 142.24C258.043 143.419 258.245 144.461 258.651 145.368C259.056 146.269 259.653 146.973 260.443 147.48C261.232 147.987 262.2 148.24 263.347 148.24ZM263.347 147.112C262.445 147.107 261.691 146.899 261.083 146.488C260.48 146.077 260.029 145.507 259.731 144.776C259.432 144.045 259.285 143.2 259.291 142.24C259.301 141.28 259.456 140.435 259.755 139.704C260.053 138.968 260.501 138.395 261.099 137.984C261.696 137.568 262.445 137.363 263.347 137.368C264.248 137.373 265 137.581 265.602 137.992C266.205 138.403 266.656 138.973 266.955 139.704C267.259 140.435 267.411 141.28 267.411 142.24C267.411 143.2 267.259 144.048 266.955 144.784C266.656 145.515 266.205 146.085 265.602 146.496C265 146.907 264.248 147.112 263.347 147.112ZM270.261 148H273.757C273.869 148 274.077 147.997 274.381 147.992C274.685 147.987 274.97 147.965 275.237 147.928C276.111 147.805 276.842 147.483 277.429 146.96C278.015 146.432 278.455 145.76 278.749 144.944C279.042 144.123 279.189 143.221 279.189 142.24C279.189 141.259 279.042 140.36 278.749 139.544C278.455 138.728 278.015 138.056 277.429 137.528C276.842 136.995 276.111 136.669 275.237 136.552C274.959 136.515 274.674 136.493 274.381 136.488C274.087 136.483 273.879 136.48 273.757 136.48H270.261V148ZM271.477 146.872V137.608H273.757C273.965 137.608 274.197 137.616 274.453 137.632C274.714 137.643 274.935 137.667 275.117 137.704C275.783 137.821 276.325 138.093 276.741 138.52C277.157 138.941 277.461 139.472 277.653 140.112C277.845 140.752 277.941 141.461 277.941 142.24C277.941 143.003 277.845 143.707 277.653 144.352C277.466 144.997 277.165 145.533 276.749 145.96C276.333 146.387 275.789 146.659 275.117 146.776C274.935 146.813 274.717 146.84 274.461 146.856C274.21 146.867 273.975 146.872 273.757 146.872H271.477ZM281.011 148H288.211V146.872H282.187V142.72H287.251V141.592H282.187V137.608H288.211V136.48H281.011V148ZM290.136 148H291.312V142.824H295.792V141.656H291.312V137.656H296.752V136.48H290.136V148ZM298.358 148H299.534V136.48H298.358V148Z" fill="#B6708E"></path> <path d="M313.147 148.24C314.027 148.24 314.803 148.059 315.475 147.696C316.153 147.328 316.683 146.813 317.067 146.152C317.451 145.491 317.643 144.72 317.643 143.84V136.48H316.459V143.688C316.459 144.285 316.358 144.803 316.155 145.24C315.958 145.672 315.694 146.029 315.363 146.312C315.038 146.589 314.681 146.795 314.291 146.928C313.902 147.061 313.521 147.128 313.147 147.128C312.779 147.128 312.401 147.061 312.011 146.928C311.622 146.795 311.262 146.589 310.931 146.312C310.606 146.029 310.342 145.672 310.139 145.24C309.937 144.803 309.835 144.285 309.835 143.688V136.48L308.651 136.488V143.84C308.651 144.725 308.843 145.499 309.227 146.16C309.611 146.821 310.142 147.333 310.819 147.696C311.497 148.059 312.273 148.24 313.147 148.24ZM323.401 148.24C324.207 148.24 324.924 148.107 325.553 147.84C326.188 147.573 326.689 147.189 327.057 146.688C327.425 146.181 327.609 145.571 327.609 144.856C327.609 144.312 327.508 143.861 327.305 143.504C327.108 143.141 326.857 142.851 326.553 142.632C326.255 142.408 325.948 142.237 325.633 142.12C325.319 141.997 325.044 141.904 324.809 141.84L322.553 141.176C322.255 141.091 321.945 140.981 321.625 140.848C321.311 140.715 321.044 140.531 320.825 140.296C320.612 140.061 320.505 139.749 320.505 139.36C320.505 138.976 320.623 138.635 320.857 138.336C321.092 138.032 321.412 137.795 321.817 137.624C322.223 137.448 322.681 137.363 323.193 137.368C323.999 137.373 324.689 137.6 325.265 138.048C325.847 138.491 326.196 139.085 326.313 139.832L327.545 139.608C327.359 138.573 326.876 137.757 326.097 137.16C325.319 136.557 324.353 136.253 323.201 136.248C322.444 136.243 321.769 136.371 321.177 136.632C320.585 136.888 320.119 137.253 319.777 137.728C319.436 138.197 319.265 138.757 319.265 139.408C319.265 140.181 319.497 140.784 319.961 141.216C320.431 141.643 321.017 141.96 321.721 142.168L324.641 143.04C324.908 143.12 325.177 143.229 325.449 143.368C325.721 143.507 325.948 143.699 326.129 143.944C326.316 144.189 326.409 144.509 326.409 144.904C326.409 145.357 326.281 145.749 326.025 146.08C325.769 146.411 325.417 146.667 324.969 146.848C324.527 147.024 324.02 147.112 323.449 147.112C322.591 147.112 321.852 146.901 321.233 146.48C320.615 146.053 320.209 145.467 320.017 144.72L318.817 144.92C318.951 145.603 319.225 146.192 319.641 146.688C320.057 147.184 320.585 147.568 321.225 147.84C321.871 148.107 322.596 148.24 323.401 148.24ZM329.261 148H332.757C332.869 148 333.077 147.997 333.381 147.992C333.685 147.987 333.97 147.965 334.237 147.928C335.111 147.805 335.842 147.483 336.429 146.96C337.015 146.432 337.455 145.76 337.749 144.944C338.042 144.123 338.189 143.221 338.189 142.24C338.189 141.259 338.042 140.36 337.749 139.544C337.455 138.728 337.015 138.056 336.429 137.528C335.842 136.995 335.111 136.669 334.237 136.552C333.959 136.515 333.674 136.493 333.381 136.488C333.087 136.483 332.879 136.48 332.757 136.48H329.261V148ZM330.477 146.872V137.608H332.757C332.965 137.608 333.197 137.616 333.453 137.632C333.714 137.643 333.935 137.667 334.117 137.704C334.783 137.821 335.325 138.093 335.741 138.52C336.157 138.941 336.461 139.472 336.653 140.112C336.845 140.752 336.941 141.461 336.941 142.24C336.941 143.003 336.845 143.707 336.653 144.352C336.466 144.997 336.165 145.533 335.749 145.96C335.333 146.387 334.789 146.659 334.117 146.776C333.935 146.813 333.717 146.84 333.461 146.856C333.21 146.867 332.975 146.872 332.757 146.872H330.477ZM344.675 148.24C346.013 148.24 347.107 147.899 347.955 147.216C348.803 146.528 349.384 145.608 349.699 144.456L348.499 144.144C348.253 145.051 347.813 145.773 347.179 146.312C346.544 146.845 345.709 147.112 344.675 147.112C343.773 147.112 343.019 146.907 342.411 146.496C341.808 146.08 341.355 145.507 341.051 144.776C340.752 144.045 340.605 143.2 340.611 142.24C340.621 141.28 340.776 140.435 341.075 139.704C341.373 138.968 341.821 138.395 342.419 137.984C343.021 137.573 343.773 137.368 344.675 137.368C345.709 137.368 346.544 137.637 347.179 138.176C347.813 138.709 348.253 139.429 348.499 140.336L349.699 140.024C349.384 138.872 348.803 137.955 347.955 137.272C347.107 136.584 346.013 136.24 344.675 136.24C343.528 136.24 342.56 136.493 341.771 137C340.981 137.507 340.384 138.211 339.979 139.112C339.573 140.013 339.371 141.056 339.371 142.24C339.371 143.419 339.573 144.461 339.979 145.368C340.384 146.269 340.981 146.973 341.771 147.48C342.56 147.987 343.528 148.24 344.675 148.24Z" fill="#0B7B95"></path> </svg> 